<svg width="271" height="271" viewBox="0 0 271 271" fill="none" xmlns="http://www.w3.org/2000/svg">
<circle cx="135.5" cy="135.5" r="135.5" fill="url(#paint0_linear_655_58)"/>
<path d="M59.9541 219.929C59.6146 223.764 58.8886 227.564 57.7942 231.257C52.9972 231.022 48.1917 230.932 43.3877 230.981C45.225 223.892 47.4875 216.915 50.1626 210.101L59.9548 219.929H59.9541Z" fill="#B4713D"/>
<path d="M56.5867 250.262C45.1772 250.508 33.7804 251.329 22.4524 252.721C21.235 252.872 20.5125 251.397 21.3833 250.532C25.3123 246.624 29.6581 243.133 34.3208 240.139C36.6635 238.634 39.1207 237.226 41.01 235.182C42.9007 233.138 44.1644 230.278 43.5346 227.566C48.6184 227.353 53.7226 227.601 58.7614 228.31C58.7614 228.31 57.653 244.83 56.5874 250.262L56.5867 250.262Z" fill="#6B74B5"/>
<path d="M57.8039 240.277C54.4112 241.226 51.6047 244.134 50.8604 247.59C52.9352 247.296 55.0163 247.054 57.1031 246.865C57.3498 244.915 57.5881 242.6 57.8039 240.278V240.277Z" fill="#EFA02A"/>
<path d="M28.8033 249.084C29.1041 247.622 28.6248 246.056 27.652 244.933C25.4647 246.686 23.3709 248.555 21.3832 250.532C21.3305 250.584 21.2841 250.639 21.2427 250.695C24.0021 250.432 26.758 250.132 29.5083 249.796L28.8033 249.084V249.084Z" fill="#EFA02A"/>
<path d="M43.8699 239.013C43.2007 238.851 42.7896 238.174 42.9519 237.505C43.1157 236.834 43.7904 236.425 44.4603 236.587C45.1308 236.751 45.5412 237.426 45.3789 238.096C45.2151 238.765 44.5404 239.175 43.8699 239.012V239.013Z" fill="#EFA02A"/>
<path d="M38.807 242.091C38.1379 241.928 37.7267 241.253 37.8912 240.583C38.0536 239.913 38.7283 239.502 39.3974 239.666C40.0665 239.828 40.4784 240.504 40.3147 241.174C40.1523 241.843 39.4761 242.254 38.807 242.091Z" fill="#EFA02A"/>
<path d="M34.975 245.011C34.3059 244.848 33.8947 244.172 34.0592 243.502C34.2222 242.833 34.897 242.423 35.5661 242.587C36.2366 242.75 36.6471 243.425 36.4847 244.095C36.321 244.764 35.6462 245.175 34.9757 245.011H34.975Z" fill="#EFA02A"/>
<path d="M44.955 237.686C44.456 236.124 43.446 234.737 42.1372 233.75C41.9383 234.049 41.7254 234.339 41.5005 234.616C42.6215 235.459 43.4945 236.631 43.9303 237.992C44.1397 238.648 45.168 238.346 44.9557 237.687L44.955 237.686Z" fill="white"/>
<path d="M39.2807 240.981C39.3426 239.773 38.7922 238.619 37.9256 237.8C37.6262 238.01 37.3219 238.216 37.0161 238.418C37.0899 238.479 37.1609 238.544 37.2319 238.613C37.8863 239.255 38.2602 240.088 38.2117 241.011C38.1969 241.301 38.49 241.539 38.762 241.531C39.0699 241.522 39.266 241.268 39.2807 240.981Z" fill="white"/>
<path d="M35.5964 243.504C35.0587 242.443 34.2687 241.51 33.3184 240.793C33 241.005 32.6837 241.219 32.3682 241.434C33.3465 242.092 34.138 242.986 34.682 244.06C34.8127 244.318 35.1831 244.381 35.4165 244.24C35.6793 244.08 35.7271 243.764 35.5971 243.504H35.5964Z" fill="white"/>
<path d="M57.1068 246.838C55.1079 246.98 53.111 247.13 51.1142 247.289C48.0357 247.536 44.9572 247.802 41.8822 248.092C38.8057 248.381 35.7329 248.691 32.6621 249.024C29.5899 249.356 26.5219 249.709 23.4553 250.085C22.8375 250.161 22.2204 250.237 21.6033 250.314L21.3833 250.532C21.1084 250.806 20.9925 251.139 21.0009 251.463L22.3595 251.293C25.4247 250.913 28.4941 250.553 31.5635 250.216C34.6343 249.88 37.7072 249.563 40.7836 249.27C43.8565 248.975 46.9343 248.702 50.0128 248.451C52.3288 248.262 54.6461 248.085 56.9641 247.921C57.0119 247.575 57.0597 247.214 57.1068 246.839V246.838Z" fill="white"/>
<path d="M208.871 226.276C212.676 225.701 216.541 225.505 220.388 225.693C221.296 230.41 222.345 235.101 223.532 239.756C216.211 239.65 208.895 239.102 201.64 238.119L208.871 226.276V226.276Z" fill="#B4713D"/>
<path d="M138.907 170.724C135.022 174.058 129.391 174.88 124.115 175.481C99.5047 178.286 87.8724 177.158 63.0727 177.097L65.7098 224.903L42.2139 227.256L40.4582 171.739C40.1714 162.64 46.6208 154.471 56.2662 151.715C82.1208 144.328 101.86 138.104 130.759 130.14C133.52 140.649 137.085 150.981 141.416 161.033L138.908 170.723L138.907 170.724Z" fill="#B03537"/>
<path d="M63.855 217.194C61.0647 217.692 58.275 218.19 55.4847 218.689C52.681 219.189 49.878 219.689 47.0743 220.191C45.4963 220.472 43.9184 220.754 42.3398 221.036C42.0861 221.08 41.9434 221.39 42.0066 221.623C42.0811 221.891 42.3398 222.003 42.5956 221.958C45.3867 221.459 48.1756 220.962 50.966 220.463C53.7697 219.963 56.5727 219.462 59.3771 218.961C60.9543 218.679 62.5329 218.398 64.1116 218.116C64.3646 218.07 64.5073 217.762 64.4447 217.527C64.3716 217.26 64.1116 217.149 63.855 217.194Z" fill="#6D181D"/>
<path d="M132.943 145.756C130.265 146.65 127.862 148.273 125.973 150.367C124.084 152.461 122.682 155.005 121.978 157.738C121.585 159.265 121.409 160.852 121.482 162.429C121.494 162.686 121.693 162.906 121.959 162.906C122.21 162.906 122.451 162.688 122.439 162.429C122.313 159.767 122.924 157.114 124.12 154.745C125.319 152.372 127.076 150.263 129.229 148.72C130.453 147.845 131.787 147.149 133.198 146.676C133.444 146.595 133.603 146.348 133.532 146.09C133.467 145.85 133.189 145.672 132.944 145.755L132.943 145.756Z" fill="#6D181D"/>
<path d="M135.701 160.762C126.963 161.199 118.226 161.638 109.502 162.299C100.804 162.959 92.1183 163.842 83.4928 165.162C79.178 165.824 74.8835 166.594 70.615 167.5C66.9314 168.282 63.0628 168.989 59.7003 170.761C58.1224 171.591 56.6893 172.701 55.5816 174.104C54.528 175.442 53.7745 176.974 53.2403 178.587C52.0694 182.114 51.8972 185.916 51.6723 189.596C51.1254 198.499 51.1057 207.436 51.6097 216.34C51.6723 217.44 51.7418 218.54 51.8206 219.637C51.8634 220.248 52.8193 220.254 52.7765 219.637C52.1537 210.849 52.0363 202.026 52.437 193.224C52.534 191.048 52.6619 188.873 52.8264 186.7C52.9571 184.951 53.1328 183.202 53.4765 181.481C54.147 178.119 55.5275 174.833 58.3537 172.731C61.2494 170.576 64.8867 169.759 68.3406 168.977C72.5458 168.027 76.7805 167.215 81.0328 166.516C89.5571 165.114 98.1503 164.173 106.757 163.472C115.316 162.773 123.892 162.314 132.466 161.881C133.545 161.825 134.622 161.772 135.701 161.717C136.313 161.688 136.317 160.731 135.701 160.763V160.762Z" fill="#6D181D"/>
<path d="M59.4404 174.925C59.6723 175.022 60.0231 175.202 60.2874 175.357C60.5819 175.529 60.8686 175.717 61.1364 175.928C61.6129 176.297 62.1232 176.815 62.5231 177.328C62.682 177.532 63.0327 177.495 63.1993 177.328C63.4003 177.127 63.3588 176.858 63.1993 176.653C62.2849 175.474 61.0647 174.581 59.6934 174.003C59.4552 173.902 59.1684 174.11 59.1051 174.336C59.0292 174.612 59.2 174.823 59.4397 174.925H59.4404Z" fill="#6D181D"/>
<path d="M62.6237 176.862C61.6558 176.608 60.6866 176.358 59.7181 176.105C59.4756 176.043 59.186 176.186 59.1284 176.439C59.0714 176.69 59.2029 176.96 59.4615 177.028C60.4308 177.279 61.3986 177.532 62.3685 177.782C62.611 177.845 62.8992 177.704 62.9568 177.449C63.0138 177.201 62.8837 176.93 62.6237 176.862Z" fill="#6D181D"/>
<path d="M158.911 143.381C162.245 147.268 163.064 152.9 163.667 158.176C166.472 182.786 165.344 194.416 165.283 219.215L213.09 216.579L215.442 240.076L159.925 241.831C150.826 242.118 142.657 235.667 139.901 226.023C132.514 200.167 126.291 180.432 118.326 151.533C128.836 148.769 139.167 145.206 149.219 140.874L158.91 143.381H158.911Z" fill="#B03537"/>
<path d="M205.38 218.434C205.879 221.223 206.376 224.014 206.875 226.805C207.375 229.609 207.876 232.413 208.376 235.215C208.657 236.794 208.94 238.371 209.221 239.949C209.267 240.204 209.576 240.348 209.809 240.284C210.076 240.211 210.188 239.951 210.142 239.695C209.644 236.905 209.146 234.114 208.647 231.324C208.148 228.52 207.648 225.716 207.146 222.913C206.865 221.335 206.583 219.759 206.301 218.18C206.256 217.926 205.946 217.782 205.714 217.846C205.447 217.92 205.335 218.179 205.38 218.435L205.38 218.434Z" fill="#6D181D"/>
<path d="M133.942 149.346C134.829 151.999 136.389 154.409 138.434 156.319C140.455 158.204 142.934 159.609 145.613 160.313C147.122 160.709 148.699 160.881 150.258 160.808C150.515 160.796 150.735 160.597 150.735 160.329C150.735 160.08 150.517 159.84 150.258 159.852C147.63 159.975 145.021 159.376 142.695 158.169C140.374 156.965 138.348 155.198 136.865 153.061C136.007 151.827 135.334 150.495 134.863 149.093C134.783 148.848 134.534 148.688 134.277 148.759C134.037 148.825 133.859 149.102 133.942 149.347V149.346Z" fill="#6D181D"/>
<path d="M148.949 146.59C149.386 155.325 149.825 164.064 150.487 172.787C151.147 181.487 152.031 190.173 153.349 198.798C154.009 203.11 154.781 207.407 155.688 211.675C156.471 215.358 157.175 219.225 158.948 222.588C159.779 224.164 160.888 225.6 162.293 226.707C163.628 227.762 165.162 228.514 166.774 229.048C170.3 230.218 174.103 230.389 177.783 230.616C186.685 231.161 195.622 231.183 204.528 230.68C205.627 230.618 206.727 230.547 207.825 230.47C208.435 230.427 208.44 229.469 207.825 229.514C199.036 230.135 190.214 230.252 181.41 229.854C179.234 229.755 177.06 229.629 174.886 229.465C173.137 229.331 171.389 229.157 169.668 228.814C166.305 228.142 163.021 226.763 160.917 223.935C158.762 221.04 157.945 217.403 157.164 213.948C156.214 209.744 155.401 205.508 154.702 201.256C153.301 192.732 152.36 184.14 151.658 175.532C150.96 166.973 150.501 158.397 150.066 149.823C150.013 148.744 149.959 147.667 149.905 146.59C149.874 145.977 148.919 145.973 148.949 146.59H148.949Z" fill="#6D181D"/>
<path d="M163.111 222.85C163.21 222.617 163.389 222.266 163.543 222.001C163.716 221.709 163.903 221.422 164.114 221.154C164.485 220.678 165.003 220.164 165.516 219.766C165.721 219.607 165.682 219.256 165.516 219.09C165.314 218.887 165.045 218.931 164.839 219.09C163.661 220.005 162.767 221.223 162.189 222.596C162.089 222.832 162.297 223.121 162.522 223.183C162.798 223.26 163.01 223.089 163.111 222.85Z" fill="#6D181D"/>
<path d="M165.049 219.666C164.796 220.635 164.545 221.603 164.293 222.573C164.23 222.816 164.373 223.102 164.626 223.161C164.877 223.217 165.148 223.086 165.215 222.826C165.466 221.858 165.719 220.889 165.97 219.921C166.034 219.678 165.891 219.39 165.637 219.332C165.387 219.275 165.117 219.408 165.049 219.666Z" fill="#6D181D"/>
<path d="M126.988 74.191C105.253 80.6474 85.6245 93.722 71.516 111.143C70.1306 112.854 68.8282 118.825 68.3503 120.958C67.0092 126.954 72.8395 127.778 78.0462 131.199C79.6171 132.232 81.3834 133.312 83.2572 133.055C84.4837 132.889 85.5464 132.167 86.5515 131.462C103.526 119.556 119.284 105.989 133.51 91.0259C135.171 89.2807 136.883 87.371 137.255 85.0136C137.689 82.2647 136.128 79.5039 133.955 77.7109C131.783 75.9158 129.065 74.9044 126.403 73.9253L126.987 74.1903L126.988 74.191Z" fill="#424E7F"/>
<path d="M71.4191 116.438C71.0592 117.441 70.6965 118.444 70.3367 119.447C70.2509 119.683 70.4308 119.981 70.6698 120.036C70.939 120.097 71.1674 119.953 71.2581 119.701C71.618 118.698 71.9806 117.696 72.3405 116.693C72.4269 116.457 72.2463 116.159 72.0074 116.105C71.7382 116.045 71.5097 116.187 71.4191 116.438Z" fill="#152151"/>
<path d="M73.6239 117.132C73.1424 117.964 72.8598 118.884 72.7706 119.841C72.7467 120.09 73.0067 120.329 73.2478 120.32C73.5276 120.307 73.7012 120.108 73.7279 119.841L73.7447 119.668V119.665L73.7539 119.601L73.8122 119.28C73.8537 119.081 73.9057 118.883 73.9668 118.69L74.0666 118.402L74.1306 118.24L74.1517 118.194C74.2395 117.995 74.3386 117.802 74.449 117.613C74.5727 117.396 74.5052 117.08 74.2768 116.959C74.0484 116.837 73.7567 116.899 73.6217 117.131L73.6239 117.132Z" fill="#152151"/>
<path d="M75.6954 116.826C75.5689 117.834 75.4445 118.843 75.3194 119.853C75.2878 120.102 75.5612 120.341 75.7966 120.33C76.082 120.318 76.2409 120.119 76.2753 119.853C76.399 118.844 76.5262 117.834 76.6513 116.826C76.6823 116.578 76.4088 116.338 76.1727 116.348C75.8873 116.362 75.7285 116.559 75.6954 116.826Z" fill="#152151"/>
<path d="M78.0289 117.545C77.7583 118.548 77.4891 119.549 77.2192 120.552C77.1539 120.794 77.2993 121.082 77.5524 121.141C77.8033 121.198 78.0697 121.065 78.1407 120.806C78.4099 119.803 78.679 118.801 78.951 117.799C79.015 117.557 78.8681 117.269 78.6165 117.211C78.3649 117.153 78.0978 117.286 78.0289 117.544V117.545Z" fill="#152151"/>
<path d="M79.7397 118.094C79.5717 119.192 79.3384 120.276 79.0354 121.345C78.9665 121.594 79.1219 121.866 79.37 121.934C79.6209 122.002 79.8887 121.849 79.9576 121.6C80.2591 120.531 80.4939 119.445 80.6619 118.348C80.7005 118.094 80.5965 117.834 80.3273 117.76C80.1017 117.697 79.7791 117.837 79.739 118.093L79.7397 118.094Z" fill="#152151"/>
<path d="M58.5259 169.429C54.9737 170.17 51.063 168.971 48.5791 166.377C47.0363 164.765 46.0607 162.716 45.2278 160.662C43.8467 157.246 42.784 153.529 43.5051 149.924C44.2586 146.166 46.8964 142.977 50.0523 140.714C53.2053 138.453 56.8735 136.995 60.5003 135.562C60.2402 133.392 57.2425 132.83 55.0496 133.231C51.2401 133.928 47.6724 135.828 45.0057 138.58C44.9453 136.377 42.4579 134.757 40.227 135.048C37.9947 135.34 36.1898 137.092 35.2458 139.092C34.3019 141.092 34.0699 143.332 33.8514 145.527C33.5337 144.72 32.3697 144.512 31.5994 144.931C30.8277 145.348 30.394 146.181 30.1184 147C28.9847 150.369 29.928 154.324 32.4681 156.852C31.0961 156.576 29.7748 157.809 29.5295 159.159C29.2842 160.508 29.8373 161.874 30.5135 163.073C32.4527 166.505 35.5431 169.304 39.1896 170.929C38.5682 169.802 36.5482 170.782 36.5841 172.062C36.6213 173.342 37.812 174.278 38.9562 174.898C45.6186 178.51 54.6124 177.397 60.146 172.276L58.5274 169.429L58.5259 169.429Z" fill="#663304"/>
<path d="M127.296 74.9332C120.312 82.9346 114.222 92.0823 112.168 102.41C110.14 112.613 112.192 123.122 114.239 133.322C115.489 139.544 116.737 145.766 117.988 151.99C132.131 152.4 150.553 160.499 163.381 154.656C166.947 143.958 163.118 119.954 165.52 113.649C169.799 102.415 168.016 89.0446 166.947 83.5173C165.349 75.265 157.439 70.4877 141.886 70.6036C137.405 70.6381 133.188 72.7087 128.84 73.7609L127.296 74.9332H127.296Z" fill="#424E7F"/>
<path d="M101.636 60.8185C103.583 64.3426 104.177 66.6276 107.044 69.4545C109.912 72.2814 115.462 75.4731 119.248 73.8825C115.848 67.393 112.953 60.6358 110.601 53.688L101.636 60.8185Z" fill="#141515"/>
<path d="M131.65 27.7502C134.174 32.9985 142.487 55.5146 141.962 59.5567C141.439 63.5996 135.447 66.4005 131.077 68.4633C132.449 71.3127 133.55 74.3034 134.361 77.3791C134.621 78.3631 134.842 79.4511 134.402 80.3817C134.04 81.1486 133.298 81.6455 132.577 82.0721C130.327 83.4097 127.926 84.4703 125.442 85.2336C122.786 86.0482 119.999 84.4991 119.128 81.7868C117.579 76.9616 115.618 72.2827 113.272 67.823C110.682 70.7631 105.402 70.3414 103.412 67.0387C101.421 63.7345 103.379 58.643 107.068 57.5311C105.555 51.9658 101.251 38.9348 99.7358 33.3696L131.651 27.7495L131.65 27.7502Z" fill="#B4713D"/>
<path d="M107.129 36.5564C120.949 38.7662 119.344 30.2054 131.646 27.8121C130.59 22.372 128.575 17.1483 125.731 12.4617C125.322 11.7841 124.342 11.8692 124.046 12.6065C123.035 15.1107 122.72 17.8969 123.176 20.5382C122.677 17.6797 120.981 15.0967 118.632 13.5117C118.027 13.1027 117.208 13.5209 117.159 14.2652C116.99 16.8096 117.326 19.3771 118.145 21.7626C116.643 19.1185 114.612 16.8025 112.213 14.9863C111.687 14.5878 110.938 14.8479 110.749 15.4931C110.004 18.0494 110.107 20.8461 111.023 23.3103C110.116 21.6853 108.885 20.2557 107.418 19.1409C106.614 18.5288 105.465 18.0171 104.648 18.6461C104.109 19.0608 103.957 19.8143 103.886 20.4954C103.631 22.9048 103.858 25.3556 104.547 27.654C103.716 24.9684 102.087 22.5646 99.9293 20.8376C99.4029 20.4159 98.7267 20.016 98.0892 20.255C97.5157 20.4686 97.2191 21.1111 97.0441 21.7099C96.3511 24.0926 96.7447 26.7635 98.0885 28.7898C96.784 27.694 95.4802 26.5969 94.175 25.4976C93.8172 25.1961 93.4335 24.8833 92.9696 24.8165C91.3348 24.5776 90.8821 27.0966 91.1907 28.7561C93.3948 40.6147 97.1066 52.1493 102.2 62.9804C104.791 58.1539 105.447 58.2684 107.032 57.3125C108.586 58.9404 109.86 60.8873 111.082 62.811C111.232 63.05 111.421 63.3136 111.699 63.3417C111.848 63.3564 111.995 63.296 112.135 63.2369C112.623 63.031 113.113 62.8237 113.601 62.617L113.543 62.5228C110.731 57.827 109.359 52.3925 109.342 46.8751C109.333 43.3095 108.593 39.76 107.127 36.5564H107.129Z" fill="#141515"/>
<path d="M125.106 44.0505C125.482 46.4402 126.781 48.6851 128.634 50.2342C129.102 50.6236 129.601 50.9785 130.129 51.278C130.71 51.6048 131.363 51.8424 131.888 52.2634C132.726 52.9367 133.122 54.1035 132.9 55.1114C132.647 56.2648 131.599 57.2101 130.453 57.338C130.197 57.3675 129.974 57.5376 129.974 57.8153C129.974 58.0542 130.194 58.3234 130.453 58.2953C131.732 58.1512 132.908 57.3872 133.502 56.2303C134.104 55.0622 134.024 53.6368 133.35 52.5143C132.995 51.9239 132.487 51.4663 131.893 51.1226C131.301 50.7824 130.674 50.5161 130.102 50.1407C129.101 49.485 128.219 48.6092 127.547 47.621C126.762 46.4648 126.244 45.1793 126.027 43.796C125.986 43.5395 125.668 43.3996 125.438 43.4629C125.166 43.5374 125.064 43.7946 125.105 44.0505H125.106Z" fill="#633719"/>
<path d="M133.071 45.6303C133.071 46.466 132.394 47.145 131.557 47.145C130.719 47.145 130.041 46.4667 130.041 45.6303C130.041 44.7925 130.719 44.1143 131.557 44.1143C132.394 44.1143 133.071 44.7925 133.071 45.6303Z" fill="#141515"/>
<path d="M123.775 60.0201C125.288 61.6937 127.699 62.3839 129.891 61.9544C130.514 61.8328 131.118 61.6044 131.672 61.2944C132.209 60.9943 131.729 60.1663 131.19 60.4693C129.516 61.4055 127.373 61.324 125.716 60.3681C125.229 60.0869 124.835 59.7664 124.451 59.344C124.278 59.1521 123.952 59.1669 123.776 59.344C123.585 59.5345 123.602 59.8283 123.776 60.0201H123.775Z" fill="#633719"/>
<path d="M105.839 62.0616C108.159 61.7896 109.946 63.5454 111.327 65.1697C111.495 65.3672 111.831 65.3433 112.004 65.1697C112.198 64.9764 112.172 64.6924 112.004 64.4942C110.467 62.6886 108.403 60.8063 105.839 61.1064C105.582 61.1374 105.359 61.3046 105.359 61.5851C105.359 61.8212 105.579 62.0947 105.839 62.0623V62.0616Z" fill="#874E27"/>
<path d="M70.1659 181.287C77.586 181.318 85.0061 181.346 92.4275 181.375L91.4393 178.263C95.7802 179.328 100.38 178.871 104.722 177.805C107.315 177.17 109.882 176.309 112.129 174.892C117.687 171.387 120.618 164.854 121.343 158.422C122.267 150.244 120.285 142.009 119.185 133.94C118.223 126.866 117.508 119.762 116.606 112.679C116.037 108.21 115.423 103.746 114.88 99.271C114.534 96.4111 114.21 93.5477 113.901 90.6835C113.697 88.7914 113.499 86.8993 113.303 85.0065C112.836 80.4436 112.42 75.8743 112.067 71.3015C111.856 68.5744 111.667 65.8452 111.498 63.116C111.419 61.8571 111.344 60.5976 111.276 59.336C111.24 58.7027 111.208 58.068 111.175 57.4347L111.112 56.1851C108.789 58.8531 98.9269 71.8321 97.4129 71.468C96.3432 70.6787 93.4994 61.9598 92.2104 57.1543C89.6435 61.886 87.6931 66.936 86.4181 72.1463C74.2319 72.7023 67.4212 73.7706 55.3306 75.3492C54.5027 75.4575 53.6107 75.5987 53.0281 76.1835C52.1853 77.0291 52.3533 78.4053 52.6738 79.5432C55.5633 89.8232 65.7337 96.5924 76.0313 100.072C78.0274 100.748 80.1205 101.369 81.7061 102.735C84.4023 105.062 84.9702 108.94 84.9435 112.458C84.921 115.246 84.6314 118.056 83.7437 120.706C81.1038 128.585 73.7371 133.84 68.2864 140.186C61.8581 147.664 57.9024 157.146 57.1433 166.888C56.9472 169.402 57.0323 172.154 58.6488 174.115C61.326 177.366 64.1944 181.794 68.3525 180.863C68.8045 182.665 70.939 179.552 70.2327 181.275L70.1673 181.286L70.1659 181.287Z" fill="#EFA02A"/>
<path d="M104.477 75.4851C102.851 73.7308 100.565 72.5141 98.1749 72.4853C95.7845 72.4572 93.3413 73.7448 92.287 75.8907C91.2335 78.0386 91.8358 80.9534 93.8284 82.2783C94.6444 82.8209 95.6727 83.1266 96.2266 83.9356C96.7959 84.765 96.6975 85.8832 97.1065 86.8047C97.7743 88.3137 99.6692 88.9259 101.306 88.7263C104.539 88.3327 107.141 85.2928 107.341 82.0421C107.541 78.79 105.532 75.5983 102.658 74.0675L104.477 75.4851H104.477Z" fill="#F2D1AA"/>
<path d="M53.6423 82.2725C55.5414 84.0345 57.8166 85.391 60.2843 86.1797C67.424 88.4597 75.6671 86.1305 82.3773 89.4662C86.6162 91.5741 89.7306 96.2207 89.1894 100.924C88.8612 103.772 86.9649 106.371 84.495 107.745C84.0487 105.814 83.2074 104.034 81.704 102.737C80.1183 101.371 78.0252 100.749 76.0291 100.073C66.6719 96.9116 57.4209 91.0329 53.6416 82.2725H53.6423Z" fill="#F2D1AA"/>
<path d="M84.0278 181.343C89.6873 172.06 93.5396 161.389 95.2378 150.297C96.4481 142.404 96.6154 134.168 99.4373 126.814C100.622 123.727 102.852 120.491 105.838 120.693C108.561 120.877 110.431 123.871 111.382 126.748C112.974 131.567 113.183 136.808 113.253 141.948C113.408 153.254 112.947 164.724 110.705 175.7C108.825 176.655 106.782 177.301 104.721 177.807C100.38 178.872 95.7797 179.33 91.4388 178.264L92.427 181.377L84.0278 181.343V181.343Z" fill="#F2D1AA"/>
<path d="M55.398 85.5683C55.7501 85.5964 56.1029 85.5415 56.4347 85.3834C57.3133 84.9652 57.7652 83.9721 57.9592 83.0169C58.1553 82.0631 58.1672 81.0657 58.5032 80.1513C58.61 79.866 58.7562 79.5771 59.0127 79.4098C59.5062 79.0886 60.15 79.3339 60.706 79.5272C62.0709 79.9995 63.646 80.0775 64.9154 79.3845C66.1847 78.6922 67.0029 77.0939 66.506 75.7352C66.2389 75.0022 65.6709 74.4687 64.9856 74.0786C62.047 74.4575 58.9214 74.8813 55.3298 75.3501C54.5018 75.4583 53.6099 75.5996 53.0272 76.1844C52.1845 77.0299 52.3525 78.4061 52.6737 79.544C53.2816 81.7067 54.2129 83.7134 55.3986 85.5676L55.398 85.5683Z" fill="#141515"/>
<path d="M106.402 71.1752C107.358 67.942 108.314 64.7089 109.269 61.4736C108.915 64.692 108.834 67.9392 109.025 71.171C108.289 71.0578 107.555 70.944 106.819 70.8294L106.402 71.1745V71.1752Z" fill="#663304"/>
<path d="M89.4326 70.9606C89.8874 68.1056 90.5965 65.2927 91.5524 62.5649C91.4111 65.3799 91.6129 68.2117 92.1456 70.9796C91.3099 70.865 90.4721 70.7504 89.6364 70.6359L89.4326 70.9606Z" fill="#663304"/>
<path d="M96.2841 80.5154C96.6096 79.686 97.4038 79.0499 98.2732 78.8363C99.1349 78.6254 100.067 78.8946 100.733 79.5054C101.117 79.8589 101.397 80.2884 101.543 80.7769C101.717 81.3652 102.64 81.1142 102.464 80.5224C102.116 79.3409 101.184 78.4075 100.029 78.0013C98.8728 77.5929 97.5689 77.86 96.6088 78.5987C96.0409 79.0352 95.622 79.5933 95.362 80.2603C95.2685 80.5014 95.4646 80.7853 95.6951 80.8493C95.9657 80.9238 96.1899 80.7572 96.2834 80.5147L96.2841 80.5154Z" fill="#141515"/>
<path d="M62.3601 92.9815C62.4339 92.9661 62.5077 92.957 62.5786 92.9534C63.6231 92.8958 64.5706 93.6774 65.4189 94.1785C67.2752 95.2743 69.4737 95.5835 71.5942 95.3158C73.5875 95.0613 75.5436 94.3599 77.1953 93.2051C78.7289 92.136 80.0433 90.6586 80.6063 88.8494C81.3752 86.3761 80.4235 83.8844 79.2701 81.7C79.1261 81.4279 78.7142 81.669 78.8569 81.9417C79.8957 83.9069 80.8052 86.1484 80.2359 88.3975C79.7797 90.206 78.5026 91.7016 77.0041 92.7587C75.3588 93.9199 73.395 94.641 71.396 94.861C70.3214 94.9798 69.2242 94.9552 68.165 94.7317C67.1156 94.5117 66.1731 94.0886 65.2678 93.5249C64.3506 92.9555 63.271 92.2534 62.1401 92.5437C62.06 92.5641 61.9791 92.5901 61.9004 92.6203C62.0529 92.7419 62.2068 92.8621 62.3615 92.9815H62.3601Z" fill="#141515"/>
<path d="M77.4286 82.3009C78.2524 81.9487 79.0782 81.598 79.902 81.2466L79.9891 80.9198C79.9167 80.7961 79.7825 80.7827 79.6623 80.8333C78.8386 81.1854 78.012 81.5376 77.1875 81.8883L77.1018 82.2158C77.1728 82.3374 77.3084 82.3522 77.4286 82.3016V82.3009Z" fill="#141515"/>
<path d="M88.2285 128.77C92.071 145.837 96.3206 162.816 100.971 179.687C101.215 180.57 101.503 181.518 102.246 182.071C102.776 182.464 103.452 182.595 104.109 182.705C106.199 183.053 108.306 183.301 110.421 183.445C112.831 183.609 115.733 183.387 116.919 181.326C117.962 179.513 116.959 177.064 115.188 175.913C113.418 174.762 111.138 174.658 109.032 174.937C108.268 175.04 107.377 175.15 106.828 174.618C106.452 174.254 106.367 173.698 106.303 173.183C104.343 157.427 101.159 143.246 98.0116 127.641L88.2299 128.771L88.2285 128.77Z" fill="#EFA02A"/>
<path d="M112.219 128.186C116.062 145.253 114.894 163.236 119.544 180.109C119.786 180.992 120.075 181.939 120.819 182.493C121.347 182.886 122.025 183.017 122.68 183.127C124.771 183.475 126.879 183.721 128.993 183.867C131.401 184.03 134.305 183.808 135.49 181.748C136.533 179.936 135.53 177.485 133.76 176.335C131.989 175.184 129.709 175.08 127.604 175.36C126.839 175.461 125.948 175.571 125.399 175.04C125.023 174.675 124.938 174.119 124.874 173.603C122.914 157.847 120.955 142.089 118.996 126.332L112.218 128.187L112.219 128.186Z" fill="#EFA02A"/>
<path d="M78.9243 136.124C83.1127 137.154 86.5616 140.291 88.7419 144.012C90.9243 147.732 91.9701 152.007 92.6526 156.265C93.7125 162.888 93.9536 169.644 93.3716 176.325C93.3224 176.89 93.269 177.477 93.4531 178.015C93.6239 178.508 93.9796 178.913 94.3275 179.304C95.3038 180.401 96.2807 181.499 97.2584 182.598L68.7919 183.485C69.6909 180.723 68.8945 177.483 66.8162 175.451C66.1189 174.772 65.2671 174.182 64.9016 173.278C64.5242 172.345 64.7568 171.285 65.0351 170.318C67.8009 160.7 74.5364 152.812 81.0898 145.249L78.9257 136.124H78.9243Z" fill="#EFA02A"/>
<path d="M67.9189 216.824C85.5417 216.824 103.164 216.824 120.785 216.824L121.927 223.498H66.8857L67.9189 216.824Z" fill="#663304"/>
<path d="M71.547 191.2C65.967 208.881 60.7209 226.662 55.81 244.535C55.1366 246.989 54.6179 250.005 56.5255 251.729C58.3108 253.344 61.3626 252.724 63.0909 251.051C64.8192 249.377 65.5565 246.984 66.2228 244.695C71.4852 226.645 76.337 208.484 81.1867 190.324L71.547 191.2Z" fill="#BC681D"/>
<path d="M118.275 191.2C123.854 208.881 129.102 226.662 134.011 244.535C134.684 246.989 135.203 250.005 133.296 251.729C131.51 253.344 128.458 252.724 126.73 251.051C125.004 249.377 124.266 246.984 123.6 244.695C118.337 226.645 113.485 208.484 108.634 190.324L118.276 191.2H118.275Z" fill="#BC681D"/>
<path d="M58.23 186.011C58.1724 186.671 58.1407 187.334 58.1351 187.997C58.1175 190.593 60.2043 192.713 62.7993 192.734C83.3129 192.91 115.518 192.752 126.914 192.702C129.262 192.692 131.241 190.952 131.553 188.625L131.564 188.542C131.937 185.765 129.812 183.28 127.009 183.216L63.0165 181.767C60.5579 181.713 58.4458 183.56 58.23 186.011Z" fill="#663304"/>
<path d="M123.979 220.161C123.979 221.491 122.901 222.568 121.571 222.568C120.242 222.568 119.166 221.492 119.166 220.161C119.166 218.832 120.242 217.754 121.571 217.754C122.901 217.754 123.979 218.832 123.979 220.161Z" fill="#663304"/>
<path d="M70.4913 220.161C70.4913 221.491 69.4125 222.568 68.0834 222.568C66.755 222.568 65.6768 221.492 65.6768 220.161C65.6768 218.832 66.7557 217.754 68.0834 217.754C69.4125 217.754 70.4913 218.832 70.4913 220.161Z" fill="#663304"/>
<path d="M73.1755 197.593C72.5753 200.059 71.9757 202.528 71.3755 204.994C71.3024 205.293 71.7635 205.421 71.8373 205.121C72.4368 202.656 73.0371 200.187 73.6373 197.719C73.7104 197.422 73.2493 197.294 73.1762 197.593H73.1755Z" fill="#663304"/>
<path d="M73.4483 201.428C73.2908 202.524 73.1348 203.619 72.9788 204.714C72.9605 204.844 73.0097 204.971 73.1453 205.009C73.2571 205.042 73.4216 204.97 73.4398 204.842C73.5959 203.746 73.7519 202.65 73.9079 201.553C73.9262 201.426 73.877 201.298 73.7414 201.261C73.6296 201.227 73.4652 201.3 73.4483 201.428Z" fill="#663304"/>
<path d="M76.3137 196.658C75.7086 197.164 75.4794 198.086 75.7845 198.815C75.8365 198.934 75.9447 199.019 76.079 198.982L76.2456 198.687C75.9975 198.097 76.1535 197.412 76.6525 196.996V196.658H76.3137Z" fill="#663304"/>
<path d="M115.573 204.306C115.863 206.13 116.441 207.899 117.274 209.548C117.412 209.822 117.826 209.579 117.685 209.305C116.872 207.693 116.318 205.962 116.035 204.178C115.987 203.876 115.525 204.004 115.573 204.306Z" fill="#663304"/>
<path d="M118.127 207.014C118.289 207.566 118.452 208.118 118.616 208.669C118.652 208.794 118.784 208.871 118.908 208.837C119.031 208.804 119.114 208.666 119.076 208.543C118.913 207.992 118.75 207.439 118.588 206.886C118.551 206.764 118.42 206.685 118.293 206.72C118.17 206.754 118.091 206.889 118.127 207.014Z" fill="#663304"/>
<path d="M115.672 198.001C115.944 199.004 116.212 200.006 116.481 201.009C116.561 201.306 117.023 201.18 116.942 200.881C116.673 199.88 116.404 198.877 116.134 197.874C116.055 197.577 115.594 197.703 115.672 198.001Z" fill="#663304"/>
<path d="M123.211 231.008C123.399 232.668 123.895 234.273 124.685 235.748C124.831 236.018 125.243 235.776 125.098 235.504C124.351 234.11 123.869 232.579 123.689 231.007C123.654 230.704 123.176 230.702 123.211 231.007L123.211 231.008Z" fill="#663304"/>
<path d="M125.749 233.455C125.842 234.195 126.107 234.9 126.546 235.503L126.874 235.59L126.958 235.263C126.573 234.731 126.31 234.108 126.228 233.455C126.21 233.327 126.128 233.216 125.988 233.216C125.872 233.216 125.732 233.325 125.75 233.455L125.749 233.455Z" fill="#663304"/>
<path d="M127.851 232.713C127.949 233.349 128.043 233.986 128.138 234.622C128.158 234.75 128.318 234.821 128.432 234.789C128.569 234.753 128.618 234.624 128.599 234.496C128.505 233.86 128.408 233.222 128.314 232.586C128.293 232.458 128.132 232.386 128.019 232.418C127.883 232.455 127.834 232.585 127.851 232.713Z" fill="#663304"/>
<path d="M128.106 248.573C128.702 250.093 130.634 250.833 132.089 250.077C132.362 249.936 132.119 249.522 131.847 249.664C130.686 250.267 129.049 249.671 128.566 248.446C128.455 248.162 127.994 248.287 128.106 248.573Z" fill="#663304"/>
<path d="M57.0603 247.29C56.6604 248.443 57.4898 249.853 58.6987 250.047C58.8266 250.068 58.9552 250.014 58.9932 249.881C59.0241 249.768 58.9531 249.606 58.8252 249.586C57.856 249.432 57.1995 248.342 57.52 247.419C57.5629 247.296 57.4722 247.157 57.3534 247.124C57.2227 247.088 57.1025 247.168 57.0603 247.291V247.29Z" fill="#663304"/>
<path d="M61.2872 239.353C60.7538 240.117 60.5619 241.076 60.7236 241.99C60.7446 242.117 60.9007 242.189 61.0166 242.157C61.1509 242.12 61.2057 241.99 61.1832 241.863C61.0448 241.072 61.243 240.251 61.7005 239.594L61.6148 239.268L61.2865 239.353H61.2872Z" fill="#663304"/>
<path d="M62.8949 239.951C62.5962 240.684 62.5168 241.481 62.6335 242.263C62.6518 242.389 62.8134 242.46 62.928 242.43C63.0637 242.391 63.1143 242.264 63.0946 242.136C62.9906 241.439 63.0904 240.727 63.3539 240.078L63.1859 239.783C63.0496 239.746 62.942 239.83 62.8935 239.951H62.8949Z" fill="#663304"/>
<path d="M65.6548 233.615C65.3561 234.277 65.2584 234.991 65.3638 235.709C65.3821 235.836 65.5438 235.907 65.6583 235.876C65.7947 235.837 65.8425 235.71 65.8249 235.581C65.7398 235.002 65.8277 234.388 66.0667 233.856L65.9809 233.529L65.6541 233.615H65.6548Z" fill="#663304"/>
<path d="M63.1943 229.577C63.0938 230.214 62.9954 230.848 62.8956 231.487C62.8752 231.612 62.9279 231.742 63.0622 231.778C63.1753 231.811 63.337 231.741 63.3567 231.612C63.4551 230.977 63.5556 230.34 63.6554 229.706C63.6744 229.578 63.6223 229.447 63.4874 229.411C63.3742 229.38 63.214 229.45 63.1943 229.578V229.577Z" fill="#663304"/>
<path d="M66.927 217.154C67.523 219.472 68.2828 221.746 69.2 223.956C69.316 224.236 69.7785 224.113 69.6618 223.829C68.7432 221.618 67.9848 219.344 67.3888 217.027C67.3115 216.728 66.8504 216.855 66.927 217.153V217.154Z" fill="#BC681D"/>
<path d="M120.141 222.106C121.492 220.155 123.037 218.34 124.75 216.694C124.972 216.481 124.634 216.144 124.411 216.357C122.67 218.031 121.102 219.88 119.729 221.867C119.552 222.12 119.966 222.36 120.141 222.106Z" fill="#BC681D"/>
<path d="M110.302 178.41C111.826 179.195 112.541 181.245 111.784 182.798C111.652 183.074 112.063 183.317 112.199 183.04C113.061 181.261 112.311 178.908 110.543 177.997C110.27 177.856 110.027 178.269 110.302 178.41Z" fill="#663304"/>
<path d="M112.523 177.877C114.222 178.29 115.289 180.393 114.563 182.001C114.439 182.28 114.849 182.524 114.976 182.244C115.825 180.364 114.672 177.908 112.65 177.416C112.351 177.343 112.224 177.804 112.522 177.877H112.523Z" fill="#663304"/>
<path d="M128.351 178.492C129.832 179.041 130.625 180.858 130.086 182.322C129.981 182.61 130.443 182.735 130.547 182.448C131.181 180.724 130.186 178.663 128.479 178.032C128.19 177.925 128.065 178.387 128.351 178.492V178.492Z" fill="#663304"/>
<path d="M131.325 177.764C132.888 178.336 133.818 180.182 133.382 181.781C133.3 182.078 133.762 182.205 133.842 181.908C134.351 180.045 133.257 177.965 131.451 177.303C131.162 177.196 131.038 177.659 131.325 177.764V177.764Z" fill="#663304"/>
<path d="M122.731 175.782C123.843 175.382 125.051 175.37 126.17 175.748C126.463 175.846 126.588 175.384 126.297 175.286C125.105 174.883 123.788 174.895 122.603 175.322C122.317 175.426 122.441 175.887 122.73 175.782L122.731 175.782Z" fill="#663304"/>
<path d="M104.747 176.276C105.285 176.013 105.906 175.942 106.488 176.075C106.615 176.103 106.747 176.036 106.783 175.908C106.814 175.786 106.741 175.643 106.616 175.613C105.901 175.45 105.161 175.541 104.505 175.864L104.42 176.191L104.747 176.277V176.276Z" fill="#663304"/>
<path d="M97.806 127.709C98.4716 130.582 99.0943 133.466 99.6875 136.356C100.325 139.45 100.93 142.55 101.51 145.658C102.11 148.854 102.684 152.057 103.236 155.263C103.775 158.394 104.293 161.529 104.79 164.666C105.256 167.603 105.703 170.543 106.126 173.488C106.177 173.836 106.228 174.186 106.277 174.536C106.32 174.839 106.781 174.71 106.736 174.409C106.322 171.487 105.883 168.569 105.427 165.656C104.938 162.533 104.427 159.414 103.896 156.299C103.349 153.092 102.782 149.888 102.189 146.69C101.611 143.566 101.007 140.446 100.376 137.333C99.7838 134.421 99.1653 131.512 98.506 128.613C98.4266 128.269 98.3472 127.925 98.2684 127.581C98.1975 127.281 97.7364 127.408 97.806 127.709Z" fill="#663304"/>
<path d="M88.8142 135.127C89.6422 137.968 90.4744 140.81 91.301 143.652C92.1451 146.552 92.9808 149.455 93.801 152.363C94.6332 155.31 95.4492 158.261 96.2343 161.218C97.0131 164.141 97.7651 167.072 98.4757 170.012C99.1744 172.899 99.8357 175.796 100.441 178.704C100.514 179.058 100.588 179.413 100.66 179.768C100.721 180.07 101.181 179.942 101.119 179.642C100.529 176.743 99.8842 173.855 99.199 170.977C98.4989 168.041 97.7574 165.113 96.9885 162.194C96.2083 159.233 95.3979 156.281 94.5713 153.334C93.7539 150.42 92.9175 147.511 92.0755 144.603C91.2475 141.749 90.4111 138.896 89.5796 136.044C89.4784 135.696 89.3772 135.347 89.2753 134.999C89.1888 134.706 88.7278 134.829 88.8142 135.127V135.127Z" fill="#663304"/>
<path d="M113.014 134.297C113.795 140.344 114.577 146.39 115.358 152.437C116.139 158.485 116.919 164.532 117.7 170.578C118.14 173.987 118.58 177.392 119.02 180.8C119.06 181.102 119.539 181.104 119.499 180.8C118.719 174.753 117.938 168.707 117.156 162.659C116.375 156.612 115.593 150.565 114.812 144.518C114.372 141.11 113.932 137.704 113.492 134.297C113.454 133.995 112.975 133.992 113.014 134.297Z" fill="#663304"/>
<path d="M87.5911 179.509C88.7508 180.932 89.4017 182.737 89.4333 184.57C89.4389 184.878 89.9162 184.88 89.9105 184.57C89.8775 182.602 89.1718 180.695 87.9292 179.17C87.7331 178.933 87.3971 179.271 87.5904 179.509H87.5911Z" fill="#663304"/>
<path d="M91.1075 179.811C92.05 181.01 92.5969 182.502 92.6643 184.025C92.6777 184.33 93.1563 184.331 93.1416 184.025C93.0671 182.364 92.471 180.777 91.4455 179.473C91.2544 179.23 90.9184 179.571 91.1068 179.812L91.1075 179.811Z" fill="#663304"/>
<path d="M77.3063 178.846C81.4953 178.401 85.7181 178.301 89.9219 178.551C91.0964 178.622 92.2702 178.721 93.4404 178.845C93.7455 178.878 93.7434 178.4 93.4404 178.368C89.2528 177.922 85.0286 177.824 80.8241 178.074C79.6496 178.145 78.4766 178.244 77.3056 178.369C77.0041 178.4 77.0005 178.879 77.3056 178.846H77.3063Z" fill="#663304"/>
<path d="M79.4085 135.829C81.7287 137.299 83.7684 139.175 85.4939 141.309C87.2328 143.459 88.6483 145.865 89.7736 148.387C90.9565 151.037 91.8027 153.825 92.3833 156.666C93.0644 160.019 93.3821 163.436 93.4882 166.853C93.5964 170.281 93.4959 173.715 93.3392 177.141C93.3209 177.563 93.2991 177.988 93.2787 178.412C93.2626 178.718 93.7419 178.717 93.756 178.412C93.9282 174.932 94.0603 171.447 93.9949 167.963C93.9296 164.514 93.6681 161.063 93.0587 157.664C92.5309 154.72 91.7297 151.825 90.5805 149.061C89.5058 146.477 88.1457 144.006 86.4568 141.771C84.7875 139.56 82.8089 137.586 80.531 136.001C80.2421 135.8 79.9483 135.605 79.6496 135.417C79.3903 135.251 79.1485 135.665 79.4085 135.829V135.829Z" fill="#663304"/>
<path d="M72.6406 74.3605C73.2942 73.3702 73.9486 72.3777 74.6015 71.3874C74.7709 71.1302 74.3562 70.8898 74.1882 71.1477C73.5346 72.1381 72.8816 73.1291 72.228 74.1201C72.0586 74.3788 72.4719 74.6177 72.6399 74.3612L72.6406 74.3605Z" fill="#EFA02A"/>
<path d="M74.4794 73.837C75.0368 73.1173 75.5928 72.3969 76.1501 71.6772V71.3384H75.8113C75.2554 72.0581 74.698 72.7785 74.1406 73.4997V73.837H74.4794Z" fill="#EFA02A"/>
<path d="M59.2589 148.928C60.7145 146.91 63.1057 145.622 65.5868 145.504C65.8932 145.491 65.8946 145.011 65.5868 145.027C63.5204 145.125 61.5228 145.974 60.0025 147.374C59.5703 147.771 59.1865 148.212 58.8449 148.687C58.6643 148.935 59.0783 149.174 59.2582 148.928H59.2589Z" fill="#EFA02A"/>
<path d="M60.5516 149.761C61.6769 148.874 62.9434 148.161 64.2845 147.659C64.5698 147.55 64.4476 147.088 64.158 147.197C62.7312 147.732 61.4091 148.481 60.2128 149.424C59.9711 149.613 60.3112 149.949 60.5516 149.761Z" fill="#EFA02A"/>
<path d="M114.063 96.7144C114.763 98.3212 115.882 99.7121 117.281 100.762C117.526 100.946 117.766 100.531 117.522 100.348C116.189 99.3481 115.142 98 114.478 96.4734C114.354 96.1922 113.944 96.4361 114.064 96.7144H114.063Z" fill="#EFA02A"/>
<path d="M114.461 100.063C115.035 101.151 115.975 102.038 117.098 102.541L117.425 102.454L117.339 102.128C116.285 101.655 115.414 100.845 114.875 99.8236C114.731 99.5495 114.319 99.792 114.461 100.063Z" fill="#EFA02A"/>
<path d="M101.696 98.2024C101.556 98.9812 101.627 99.788 101.928 100.521C101.977 100.641 102.087 100.725 102.223 100.689L102.389 100.395C102.12 99.7424 102.031 99.0254 102.157 98.3282C102.18 98.2024 102.123 98.071 101.991 98.0351C101.875 98.0028 101.72 98.0738 101.696 98.2031V98.2024Z" fill="#B27019"/>
<path d="M104.047 98.8967C103.841 98.9572 103.692 99.128 103.642 99.3332C103.598 99.5174 103.618 99.7345 103.727 99.8934C103.803 100.005 103.905 100.084 104.035 100.127C104.154 100.165 104.302 100.081 104.33 99.9602C104.359 99.828 104.288 99.7078 104.163 99.6657L104.132 99.6565L104.189 99.679L104.124 99.6418L104.172 99.679L104.11 99.6165L104.148 99.6643L104.1 99.5806L104.124 99.6376L104.093 99.5188L104.101 99.5827V99.4506L104.093 99.5131L104.126 99.388L104.102 99.445L104.151 99.3613L104.114 99.4105L104.171 99.3515L104.122 99.3887L104.193 99.3473L104.135 99.3712L104.172 99.3578C104.292 99.3234 104.38 99.1884 104.339 99.0633C104.3 98.9417 104.173 98.8595 104.046 98.8967H104.047Z" fill="#B27019"/>
<path d="M105.802 99.4757C105.894 99.6584 105.984 99.8397 106.075 100.02L106.219 100.131L106.402 100.106L106.513 99.9649L106.489 99.78C106.397 99.5987 106.306 99.4159 106.217 99.2346L106.073 99.1235L105.889 99.1488L105.78 99.2901L105.802 99.4757H105.802Z" fill="#B27019"/>
<path d="M107.11 92.3247C107.206 92.6887 107.301 93.0514 107.398 93.4141C107.431 93.5357 107.57 93.6207 107.692 93.5807C107.816 93.542 107.895 93.4169 107.859 93.2876C107.762 92.9249 107.667 92.5608 107.569 92.1996C107.537 92.078 107.397 91.9915 107.276 92.033C107.152 92.0716 107.074 92.1967 107.11 92.3254V92.3247Z" fill="#B27019"/>
<path d="M104.647 91.5547C104.348 92.1212 104.271 92.7826 104.434 93.4039C104.465 93.5297 104.605 93.6035 104.727 93.5705C104.853 93.5375 104.927 93.4025 104.895 93.276C104.766 92.784 104.822 92.2498 105.061 91.7951L104.974 91.4683L104.647 91.5547H104.647Z" fill="#B27019"/>
<path d="M80.8642 156.17C80.9767 157.261 81.0884 158.352 81.2016 159.441C81.2149 159.572 81.3014 159.679 81.4398 159.681C81.56 159.682 81.6922 159.57 81.6788 159.441C81.5664 158.352 81.4539 157.261 81.3415 156.17C81.3295 156.042 81.2416 155.934 81.1032 155.932C80.9844 155.932 80.8509 156.043 80.8642 156.17Z" fill="#B27019"/>
<path d="M83.3992 155.833C83.279 156.361 83.3739 156.93 83.6754 157.381L84.0037 157.468L84.0887 157.14L83.9966 156.988L83.9552 156.908L83.946 156.882L83.8476 156.551L83.8357 156.475L83.8322 156.429L83.8251 156.261L83.8357 156.094V156.092L83.8427 156.048L83.861 155.96C83.8891 155.839 83.8237 155.696 83.693 155.666C83.5714 155.639 83.4287 155.703 83.3999 155.834L83.3992 155.833Z" fill="#B27019"/>
<path d="M85.2844 156.165C85.2844 156.438 85.2844 156.713 85.2844 156.985C85.2844 157.109 85.3955 157.229 85.5241 157.223C85.6534 157.216 85.7624 157.118 85.7624 156.985C85.7624 156.713 85.7624 156.438 85.7624 156.165C85.7624 156.041 85.6534 155.921 85.5241 155.926C85.3947 155.933 85.2844 156.031 85.2844 156.165Z" fill="#B27019"/>
<path d="M82.0217 147.827C82.2951 148.376 82.5685 148.921 82.842 149.467L83.1702 149.551L83.2559 149.224C82.9825 148.678 82.7091 148.132 82.4357 147.587L82.1089 147.5L82.0217 147.827Z" fill="#B27019"/>
<path d="M86.3527 163.61C86.463 164.153 86.5741 164.695 86.6845 165.237C86.7112 165.363 86.8609 165.435 86.9789 165.403C87.1111 165.369 87.1722 165.237 87.1455 165.109C87.0345 164.567 86.9241 164.025 86.8145 163.484C86.7878 163.357 86.6381 163.284 86.52 163.317C86.3893 163.353 86.3281 163.484 86.352 163.61H86.3527Z" fill="#B27019"/>
<path d="M88.8367 163.268C88.8367 163.721 88.8367 164.177 88.8367 164.633C88.8367 164.758 88.9477 164.878 89.0749 164.871C89.2042 164.865 89.3139 164.767 89.3139 164.633C89.3139 164.177 89.3139 163.72 89.3139 163.268C89.3139 163.142 89.2049 163.022 89.0749 163.028C88.9456 163.034 88.8367 163.133 88.8367 163.268Z" fill="#B27019"/>
<path d="M88.562 156.713C88.562 157.076 88.562 157.44 88.562 157.805C88.562 157.931 88.6731 158.049 88.8017 158.044C88.931 158.039 89.0413 157.939 89.0413 157.805C89.0413 157.44 89.0413 157.076 89.0413 156.713C89.0413 156.587 88.9303 156.468 88.8017 156.473C88.6724 156.479 88.562 156.579 88.562 156.713Z" fill="#B27019"/>
<path d="M99.2657 158.405C99.4126 159.049 99.5602 159.695 99.7071 160.34C99.7352 160.466 99.8814 160.541 100.002 160.506C100.131 160.472 100.198 160.34 100.17 160.215C100.021 159.568 99.8737 158.922 99.7268 158.277C99.6973 158.152 99.5532 158.078 99.4323 158.111C99.303 158.147 99.2362 158.279 99.2657 158.405V158.405Z" fill="#B27019"/>
<path d="M100.917 158.516C100.811 158.761 100.783 159.014 100.835 159.276C100.882 159.512 101.006 159.738 101.179 159.904H101.518V159.565L101.466 159.515L101.44 159.484L101.431 159.471L101.413 159.442L101.376 159.381L101.343 159.319L101.349 159.332L101.338 159.303L101.298 159.164L101.286 159.103L101.288 159.111L101.285 159.078L101.286 158.944L101.289 158.904L101.288 158.922L101.301 158.851L101.319 158.789L101.329 158.759L101.352 158.573L101.243 158.43C101.14 158.377 100.968 158.393 100.916 158.516H100.917Z" fill="#B27019"/>
<path d="M99.2017 151.522C99.2073 152.18 99.4378 152.806 99.8406 153.323H100.178V152.985C99.861 152.577 99.6845 152.039 99.6796 151.522C99.6782 151.393 99.57 151.282 99.442 151.282C99.3127 151.282 99.2003 151.393 99.2024 151.522H99.2017Z" fill="#B27019"/>
<path d="M119.699 158.077C119.699 158.441 119.699 158.806 119.699 159.169C119.699 159.295 119.81 159.414 119.939 159.409C120.067 159.403 120.178 159.303 120.178 159.169C120.178 158.806 120.178 158.441 120.178 158.077C120.178 157.951 120.067 157.831 119.939 157.838C119.808 157.843 119.699 157.942 119.699 158.077Z" fill="#B27019"/>
<path d="M120.246 163.541C120.246 163.903 120.246 164.269 120.246 164.633C120.246 164.759 120.355 164.878 120.484 164.871C120.615 164.866 120.724 164.767 120.724 164.633C120.724 164.269 120.724 163.903 120.724 163.541C120.724 163.415 120.615 163.295 120.484 163.301C120.355 163.307 120.246 163.406 120.246 163.541Z" fill="#B27019"/>
<path d="M119.057 154.567C118.889 154.61 118.738 154.737 118.666 154.893L118.595 155.173L118.662 155.455L118.804 155.565L118.989 155.542L119.1 155.398L119.074 155.214L119.067 155.197L119.091 155.253L119.068 155.169L119.076 155.233V155.133L119.068 155.197L119.099 155.086L119.075 155.144L119.129 155.05L119.092 155.1L119.164 155.029L119.114 155.065L119.189 155.022L119.131 155.046L119.183 155.029L119.327 154.92L119.349 154.735C119.309 154.609 119.185 154.536 119.057 154.568V154.567Z" fill="#B27019"/>
<path d="M118.062 148.79C118.062 149.337 118.062 149.882 118.062 150.43C118.062 150.558 118.17 150.669 118.299 150.669C118.43 150.669 118.539 150.559 118.539 150.43C118.539 149.882 118.539 149.336 118.539 148.79C118.539 148.661 118.43 148.551 118.299 148.551C118.171 148.551 118.062 148.661 118.062 148.79Z" fill="#B27019"/>
<path d="M97.2499 73.2583C99.1744 72.9652 101.168 73.1472 103.006 73.7833C101.549 75.6354 98.1665 75.3205 97.0742 73.2302L97.2507 73.2583H97.2499Z" fill="#663304"/>
<path d="M121.047 147.77C121.569 149.354 122.579 150.731 123.926 151.714C124.175 151.894 124.414 151.479 124.168 151.3C122.925 150.396 121.988 149.1 121.507 147.643C121.413 147.352 120.951 147.476 121.047 147.769V147.77Z" fill="#EFA02A"/>
<path d="M121.846 151.329C122.296 152.563 123.062 153.664 124.074 154.503H124.413V154.164C123.464 153.381 122.729 152.36 122.308 151.204C122.202 150.917 121.74 151.041 121.846 151.329Z" fill="#EFA02A"/>
<path d="M55.8858 158.422C56.7075 157.182 58.3416 156.596 59.7684 157.005C60.0629 157.091 60.1902 156.63 59.895 156.544C58.2559 156.073 56.4109 156.765 55.4719 158.18C55.3011 158.438 55.7157 158.678 55.8851 158.422H55.8858Z" fill="#EFA02A"/>
<path d="M56.9101 160.104C58.2005 159.31 59.4917 158.516 60.7821 157.721C61.0422 157.562 60.8025 157.148 60.5396 157.309C59.2492 158.103 57.9594 158.897 56.6704 159.692C56.4075 159.854 56.6479 160.268 56.9101 160.104Z" fill="#EFA02A"/>
<path d="M45.3296 156.544C44.3393 158.851 44.2697 161.513 45.1321 163.873C45.3788 164.544 45.6937 165.185 46.0802 165.785C46.2468 166.044 46.6615 165.803 46.4935 165.543C45.2045 163.542 44.7273 161.048 45.163 158.71C45.286 158.049 45.4779 157.401 45.7422 156.783C45.8638 156.504 45.4512 156.261 45.3296 156.544Z" fill="#663304"/>
<path d="M45.9763 159.719C45.7071 162.021 46.1935 164.385 47.3391 166.4C47.4924 166.667 47.9042 166.427 47.7524 166.159C46.6461 164.212 46.1935 161.941 46.4535 159.719C46.4908 159.415 46.0107 159.418 45.9763 159.719V159.719Z" fill="#663304"/>
<path d="M42.871 149.195C43.5711 147.769 44.955 146.766 46.5259 146.534C46.6552 146.514 46.7234 146.353 46.6924 146.24C46.658 146.103 46.5259 146.053 46.3993 146.073C44.7202 146.321 43.2062 147.432 42.4577 148.954C42.3227 149.23 42.7346 149.472 42.871 149.196V149.195Z" fill="#663304"/>
<path d="M44.6086 145.441C45.8842 144.991 47.162 144.542 48.4377 144.091C48.7259 143.99 48.6015 143.527 48.3098 143.629C47.0341 144.081 45.7577 144.53 44.4821 144.98C44.1925 145.081 44.3183 145.544 44.6086 145.44V145.441Z" fill="#663304"/>
<path d="M68.3512 120.958C66.5674 123.949 67.5696 128.391 69.6606 131.225C71.7488 134.058 74.866 135.971 77.9488 137.725C80.8445 139.375 86.9756 140.699 90.6832 140.292C91.2124 140.234 91.3713 139.552 90.9256 139.264C88.3012 137.559 83.0136 136.637 80.3272 136.162C83.8949 138.447 91.3122 138.855 95.5512 139.005C96.2393 139.031 96.5816 138.16 96.0488 137.724C93.5768 135.705 87.358 135.213 84.1993 134.665C88.4474 135.878 92.765 137.1 97.1621 137.211C97.7314 137.224 98.0969 136.596 97.7996 136.109C97.0342 134.861 95.2918 134.151 93.7715 133.688C90.4224 132.671 87.0733 131.655 83.7249 130.639C87.4901 131.29 91.2574 131.942 95.0219 132.595C95.6657 132.706 96.4248 132.787 96.8191 132.197C97.0539 131.846 97.0363 131.384 96.8226 131.018C96.3735 130.238 95.5055 130.002 94.6895 129.797C90.0337 128.618 85.3759 127.44 80.7201 126.262C82.8871 126.344 85.0589 126.215 87.1949 125.881C87.9504 125.762 88.0439 124.708 87.3179 124.47C81.2149 122.463 74.8442 121.256 68.4341 120.893L68.3512 120.958Z" fill="#B4713D"/>
<path d="M94.5059 119.584C94.7842 122.816 74.0056 118.6 68.1873 114.975C67.5196 114.558 66.8231 114.026 66.6888 113.261C66.5553 112.497 67.4064 111.626 68.0903 112.017C67.0346 111.372 66.0752 110.321 66.1406 109.104C66.2046 107.888 67.8232 106.881 68.7609 107.682C67.4472 107.282 66.7894 105.537 67.5253 104.4C68.2611 103.265 70.1546 103.104 71.0824 104.1C70.5047 103.229 69.9051 102.296 69.8981 101.26C69.8918 100.222 70.757 99.1138 71.8063 99.2572C72.2477 99.3176 72.6301 99.577 72.9956 99.8293C74.5222 100.889 76.0502 101.951 77.5754 103.011C77.198 101.877 76.9618 100.694 76.8754 99.5018C76.8473 99.1257 76.8424 98.7188 77.0624 98.4095C77.4187 97.9056 78.2263 97.9084 78.7541 98.2401C79.282 98.5733 85.9486 108.354 86.2754 108.879C88.1746 111.93 94.0111 107.692 97.2049 109.424C97.2049 109.424 94.1826 115.81 94.5066 119.584H94.5059Z" fill="#B4713D"/>
<path d="M144.357 77.077C137.408 83.7035 127.484 94.0103 123.366 102.389C111.839 103.817 100.379 105.945 89.0863 108.758C88.8516 114.236 89.0132 119.71 89.5664 125.131C101.152 125.564 112.734 125.995 124.319 126.429C128.638 126.589 133.057 126.74 137.26 125.566C147.857 122.605 153.977 112.432 158.842 103.219C162.286 96.6994 165.787 89.8297 165.529 82.7392C165.464 80.9673 164.571 79.3057 163.269 77.8101C158.381 72.2034 149.741 71.9447 144.357 77.0763V77.077Z" fill="#424E7F"/>
<path d="M133.071 73.1753H133.053C133.013 73.0642 132.973 72.9539 132.931 72.8442L133.071 73.1753Z" fill="#674E4F"/>
<path d="M133.052 73.1756L122.268 72.9971L131.111 68.5396L132.93 72.8446C132.972 72.9535 133.012 73.0646 133.052 73.1756Z" fill="#9C5E31"/>
<path d="M118.274 53.1182C118.274 53.9539 117.595 54.6328 116.758 54.6328C115.921 54.6328 115.242 53.9546 115.242 53.1182C115.242 52.2804 115.921 51.6035 116.758 51.6035C117.595 51.6035 118.274 52.2811 118.274 53.1182Z" fill="#141515"/>
<path d="M116.359 44.8932C117.039 45.0506 117.355 45.9039 117.183 46.5814C117.012 47.259 116.503 47.7883 116.013 48.2859C115.133 49.1792 114.253 50.0711 113.373 50.9645C113.242 51.0952 113.068 51.1831 112.884 51.1803C112.567 51.1746 112.473 50.9272 112.421 50.7016C112.296 50.1681 112.314 49.6122 112.452 49.0843C112.679 48.2177 112.992 47.3764 113.384 46.5709C113.931 45.4477 115.117 44.7828 116.36 44.8939L116.359 44.8932Z" fill="#141515"/>
<path d="M127.855 39.5687C127.71 40.2519 128.347 40.8992 129.034 41.0314C129.719 41.1621 130.415 40.9273 131.074 40.694C132.255 40.2751 133.439 39.8562 134.619 39.438C134.793 39.3761 134.948 39.2552 135.022 39.0872C135.152 38.7991 134.967 38.6072 134.785 38.4645C134.355 38.1257 133.845 37.9057 133.307 37.8073C132.427 37.6457 131.531 37.5712 130.636 37.5845C129.388 37.6035 128.283 38.3949 127.855 39.5687Z" fill="#141515"/>
<path d="M69.7197 103.582C70.8126 104.172 71.822 104.902 72.9156 105.492C73.1419 105.614 73.435 105.548 73.5686 105.321C73.6965 105.102 73.6248 104.789 73.3964 104.666C72.3041 104.076 71.2941 103.348 70.2018 102.757C69.9748 102.634 69.6803 102.701 69.5482 102.929C69.4203 103.146 69.4906 103.46 69.719 103.583L69.7197 103.582Z" fill="#874E27"/>
<path d="M67.8043 106.865C68.8044 107.324 69.8039 107.78 70.8041 108.238C71.0318 108.342 71.3312 108.311 71.4585 108.066C71.5695 107.857 71.5308 107.523 71.2862 107.412C70.2861 106.954 69.2866 106.497 68.2864 106.039C68.0594 105.935 67.7614 105.967 67.6321 106.211C67.521 106.421 67.5611 106.754 67.8043 106.864V106.865Z" fill="#874E27"/>
<path d="M66.8246 111.561C67.5528 111.742 68.2824 111.925 69.0084 112.106C69.2509 112.167 69.5391 112.029 69.5981 111.773C69.6544 111.525 69.5236 111.25 69.2636 111.184C68.5354 111.002 67.8079 110.82 67.0784 110.638C66.8373 110.577 66.5491 110.715 66.4915 110.972C66.4338 111.219 66.5646 111.494 66.8246 111.56V111.561Z" fill="#874E27"/>
<path d="M69.3141 113.27C70.5793 110.6 72.0117 108.011 73.6065 105.524C74.0613 104.814 74.5294 104.111 75.0094 103.418C75.1577 103.206 75.0509 102.886 74.84 102.765C74.6017 102.624 74.3333 102.722 74.1842 102.936C72.503 105.363 70.9736 107.897 69.615 110.52C69.2256 111.269 68.8509 112.025 68.4897 112.788C68.3793 113.021 68.425 113.304 68.6619 113.441C68.8699 113.564 69.2045 113.505 69.3148 113.27H69.3141Z" fill="#874E27"/>
<path d="M81.9268 134.468C85.5121 135.186 89.0827 135.991 92.6307 136.88C93.6442 137.136 94.657 137.398 95.667 137.666C96.2631 137.824 96.5161 136.902 95.9215 136.743C92.3854 135.804 88.8282 134.95 85.2514 134.181C84.2287 133.963 83.206 133.751 82.1806 133.545C81.9282 133.493 81.6647 133.617 81.5923 133.88C81.5276 134.113 81.6724 134.416 81.9268 134.467V134.468Z" fill="#874E27"/>
<path d="M80.8311 136.828C83.4324 137.577 86.0457 138.293 88.6526 139.026C89.3322 139.217 90.0098 139.41 90.6887 139.605C91.2819 139.775 91.5357 138.853 90.9446 138.683C88.3412 137.934 85.7287 137.218 83.1204 136.485C82.4421 136.293 81.7631 136.101 81.0842 135.906C80.4923 135.735 80.2372 136.658 80.8311 136.828Z" fill="#874E27"/>
<path d="M82.4245 128.403C82.0738 129.043 81.8137 129.734 81.6752 130.451C81.5262 131.22 81.4953 132.006 81.3899 132.782C81.1903 134.243 80.7966 135.691 80.2203 137.049C80.1177 137.287 80.1486 137.561 80.3925 137.703C80.5928 137.821 80.945 137.77 81.0462 137.531C81.6394 136.137 82.0688 134.685 82.2902 133.183C82.4027 132.425 82.4371 131.654 82.5623 130.897C82.6824 130.19 82.906 129.516 83.2504 128.885C83.547 128.346 82.7211 127.863 82.4252 128.404L82.4245 128.403Z" fill="#874E27"/>
<path d="M83.0661 131.242C86.0223 131.553 88.9315 132.281 91.6937 133.372C91.9348 133.466 92.2201 133.268 92.2827 133.038C92.3558 132.767 92.1892 132.546 91.9496 132.448C89.1002 131.324 86.1109 130.606 83.0661 130.284C82.8089 130.257 82.5889 130.524 82.5889 130.763C82.5889 131.045 82.8089 131.214 83.0661 131.241V131.242Z" fill="#874E27"/>
<path d="M148.086 74.7314C146.801 76.8048 145.451 78.8354 144.037 80.823C142.633 82.7939 141.167 84.7204 139.639 86.5977C138.107 88.48 136.513 90.3137 134.865 92.0941C133.21 93.8815 131.496 95.6189 129.728 97.2981C127.96 98.9779 126.14 100.602 124.268 102.163C124.038 102.355 123.806 102.547 123.574 102.737C123.311 102.953 123.451 103.323 123.672 103.49C126.65 105.746 129.513 108.16 132.247 110.711C133.022 111.433 133.787 112.166 134.542 112.912C134.981 113.344 135.658 112.668 135.218 112.237C132.517 109.572 129.685 107.047 126.728 104.671C125.88 103.99 125.021 103.322 124.154 102.663C124.186 102.914 124.218 103.163 124.25 103.414C126.144 101.859 127.986 100.243 129.775 98.5681C131.555 96.9024 133.282 95.1789 134.951 93.4028C136.628 91.6176 138.25 89.7789 139.81 87.8896C141.374 85.9961 142.878 84.0534 144.318 82.0643C145.756 80.0815 147.128 78.0496 148.434 75.9789C148.594 75.7231 148.753 75.4694 148.911 75.2121C149.235 74.6878 148.409 74.2077 148.086 74.7307L148.086 74.7314Z" fill="#152151"/>
<path d="M90.023 109.926C91.6719 109.475 93.3763 109.299 95.0829 109.394C95.3415 109.408 95.5615 109.163 95.5615 108.917C95.5615 108.645 95.3415 108.451 95.0829 108.436C93.2962 108.338 91.4948 108.533 89.7685 109.003C89.1753 109.165 89.427 110.088 90.023 109.926Z" fill="#152151"/>
<path d="M89.7482 112.656C91.3936 112.169 93.1016 111.997 94.8095 112.136C95.0667 112.158 95.2867 111.901 95.2867 111.659C95.2867 111.381 95.0667 111.201 94.8095 111.18C93.0228 111.035 91.2136 111.226 89.4952 111.733C88.9055 111.908 89.1578 112.831 89.7482 112.656Z" fill="#152151"/>
<path d="M89.8861 116.121C91.7072 115.946 93.529 115.773 95.3501 115.601C95.6074 115.575 95.8288 115.398 95.8288 115.122C95.8288 114.882 95.6081 114.619 95.3501 114.645C93.529 114.818 91.7072 114.991 89.8861 115.163C89.6274 115.189 89.406 115.367 89.406 115.642C89.406 115.88 89.626 116.145 89.8861 116.121Z" fill="#152151"/>
<path d="M90.7364 119.817C91.875 119.258 93.1964 119.112 94.4306 119.396C94.6816 119.453 94.948 119.318 95.0189 119.061C95.0843 118.821 94.9374 118.532 94.6844 118.473C93.1887 118.129 91.6311 118.315 90.2535 118.991C90.0216 119.103 89.9591 119.434 90.0828 119.644C90.2212 119.881 90.5045 119.931 90.7364 119.817Z" fill="#152151"/>
<path d="M90.8243 122.985C92.0227 122.572 93.2738 122.412 94.5375 122.508C94.7948 122.527 95.0148 122.273 95.0148 122.029C95.0148 121.754 94.7941 121.57 94.5375 121.551C93.1986 121.451 91.8385 121.627 90.5692 122.062C90.3253 122.147 90.1643 122.389 90.2346 122.651C90.3014 122.887 90.579 123.068 90.8243 122.985Z" fill="#152151"/>
<path d="M118.731 126.72C122.584 127.11 126.458 127.464 130.334 127.313C134.147 127.163 137.973 126.499 141.441 124.852C145.049 123.137 147.977 120.332 150.758 117.525C153.444 114.814 155.975 111.943 158.194 108.834C160.393 105.756 162.259 102.432 163.578 98.8785C163.743 98.4335 163.898 97.9837 164.046 97.5318C164.237 96.9435 163.314 96.6933 163.123 97.2759C161.97 100.814 160.237 104.13 158.161 107.212C156.066 110.319 153.626 113.179 151.031 115.878C149.697 117.265 148.33 118.625 146.897 119.912C145.436 121.226 143.883 122.443 142.163 123.404C138.929 125.212 135.257 126.032 131.587 126.288C127.77 126.554 123.936 126.269 120.134 125.903C119.667 125.859 119.2 125.812 118.732 125.766C118.475 125.739 118.255 126.003 118.255 126.243C118.255 126.523 118.475 126.695 118.732 126.72H118.731Z" fill="#152151"/>
<path d="M127.414 126.491C129.453 124.263 131.919 122.462 134.639 121.155C137.322 119.862 140.268 119.06 143.225 118.825C144.895 118.693 146.607 118.731 148.251 118.964C148.507 119 148.766 118.901 148.84 118.629C148.901 118.405 148.764 118.079 148.507 118.042C145.391 117.601 142.217 117.772 139.16 118.524C136.138 119.268 133.238 120.571 130.688 122.36C129.254 123.367 127.923 124.521 126.739 125.817C126.565 126.007 126.551 126.305 126.739 126.492C126.917 126.67 127.241 126.684 127.415 126.492L127.414 126.491Z" fill="#152151"/>
<path d="M116.929 79.8847C116.191 80.9151 116.172 82.278 116.505 83.4595C116.819 84.5784 117.449 85.6046 118.234 86.4537C119.777 88.1152 122.028 89.1365 124.299 89.1393C125.649 89.1407 126.951 88.7513 128.182 88.2263C129.439 87.6914 130.65 87.0314 131.831 86.3489C133.021 85.6608 134.172 84.9088 135.258 84.066C135.796 83.6485 136.318 83.2086 136.815 82.7405C137.289 82.2927 137.751 81.8021 138.069 81.2258C138.724 80.0499 138.69 78.6189 138.232 77.3819C137.757 76.1034 136.878 75.0434 135.937 74.0749C135.703 73.8338 135.464 73.5991 135.226 73.3629C134.787 72.9292 134.111 73.604 134.55 74.0383C135.428 74.9078 136.326 75.7892 136.945 76.8716C137.497 77.8394 137.805 79.0273 137.497 80.1258C137.172 81.2806 136.124 82.1191 135.241 82.8578C134.278 83.6647 133.239 84.3767 132.17 85.0325C131.079 85.7009 129.954 86.3166 128.81 86.8859C127.672 87.4482 126.473 87.9486 125.207 88.1237C123.215 88.3999 121.137 87.7258 119.616 86.4473C118.829 85.7859 118.207 85.0128 117.76 84.0899C117.307 83.1523 117.073 82.0235 117.402 81.0297C117.481 80.7963 117.604 80.5735 117.753 80.3655C117.902 80.1546 117.79 79.8334 117.581 79.7111C117.34 79.5706 117.077 79.6725 116.928 79.8833L116.929 79.8847Z" fill="#152151"/>
<path d="M105.49 105.389C110.41 104.66 115.412 104.808 120.34 104.141C121.734 103.952 123.118 103.696 124.481 103.341C125.075 103.186 124.824 102.265 124.228 102.419C119.418 103.67 114.422 103.634 109.501 104.004C108.075 104.112 106.651 104.258 105.236 104.467C104.981 104.505 104.839 104.827 104.903 105.054C104.977 105.328 105.234 105.428 105.491 105.389H105.49Z" fill="#152151"/>
<path d="M157.502 128.924C154.336 129.498 151.197 130.212 148.094 131.061C147.21 131.303 146.329 131.557 145.45 131.822C144.862 131.999 145.113 132.922 145.704 132.744C148.785 131.819 151.905 131.024 155.055 130.371C155.952 130.184 156.853 130.009 157.756 129.846C158.009 129.799 158.153 129.491 158.089 129.257C158.016 128.99 157.756 128.878 157.502 128.924V128.924Z" fill="#152151"/>
<path d="M155.322 131.679C152.96 132.483 150.641 133.405 148.372 134.439C148.136 134.548 148.079 134.888 148.2 135.094C148.342 135.336 148.618 135.374 148.854 135.267C151.05 134.268 153.292 133.38 155.577 132.602C155.821 132.519 155.982 132.273 155.91 132.014C155.845 131.776 155.567 131.596 155.322 131.679Z" fill="#152151"/>
<path d="M239.137 222.364C242.08 233.39 245.577 244.269 249.614 254.943C250.047 256.093 248.784 257.143 247.738 256.502C243.011 253.609 238.591 250.215 234.578 246.395C232.562 244.476 230.611 242.421 228.176 241.069C225.743 239.717 222.667 239.166 220.181 240.421C218.771 235.532 217.804 230.514 217.295 225.451C217.295 225.451 233.61 222.615 239.138 222.364H239.137Z" fill="#6B74B5"/>
<path d="M229.149 223.546C230.875 226.618 234.364 228.656 237.898 228.559C237.122 226.614 236.394 224.649 235.717 222.667C233.763 222.889 231.458 223.206 229.15 223.546H229.149Z" fill="#EFA02A"/>
<path d="M244.574 249.637C243.083 249.69 241.675 250.527 240.814 251.737C243.035 253.448 245.347 255.039 247.738 256.502C247.802 256.542 247.866 256.575 247.932 256.601C247.022 253.982 246.078 251.375 245.099 248.781L244.574 249.637Z" fill="#EFA02A"/>
<path d="M231.222 237.383C231.222 238.073 230.663 238.632 229.974 238.632C229.284 238.632 228.725 238.073 228.725 237.383C228.725 236.695 229.284 236.136 229.974 236.136C230.663 236.136 231.222 236.695 231.222 237.383Z" fill="#EFA02A"/>
<path d="M235.411 241.573C235.411 242.264 234.852 242.823 234.165 242.823C233.474 242.823 232.915 242.264 232.915 241.573C232.915 240.884 233.474 240.325 234.165 240.325C234.853 240.325 235.411 240.883 235.411 241.573Z" fill="#EFA02A"/>
<path d="M239.157 244.604C239.157 245.293 238.598 245.853 237.907 245.853C237.219 245.853 236.661 245.293 236.661 244.604C236.661 243.915 237.219 243.357 237.907 243.357C238.597 243.357 239.157 243.916 239.157 244.604Z" fill="#EFA02A"/>
<path d="M229.675 236.644C228.275 237.499 227.167 238.809 226.518 240.314C226.856 240.436 227.188 240.575 227.511 240.727C228.065 239.438 228.997 238.312 230.217 237.566C230.802 237.209 230.266 236.282 229.675 236.643V236.644Z" fill="white"/>
<path d="M234.22 241.377C233.033 241.603 232.043 242.411 231.452 243.447C231.726 243.688 231.998 243.935 232.266 244.185C232.309 244.098 232.355 244.014 232.405 243.929C232.872 243.141 233.595 242.581 234.504 242.408C234.788 242.354 234.951 242.014 234.877 241.751C234.796 241.453 234.506 241.324 234.22 241.377V241.377Z" fill="white"/>
<path d="M237.545 244.358C236.641 245.132 235.923 246.12 235.452 247.214C235.731 247.473 236.014 247.729 236.298 247.984C236.706 246.877 237.387 245.897 238.3 245.114C238.52 244.927 238.495 244.551 238.3 244.358C238.083 244.141 237.765 244.17 237.545 244.358Z" fill="white"/>
<path d="M235.689 222.67C236.299 224.578 236.919 226.483 237.547 228.385C238.514 231.32 239.504 234.246 240.512 237.165C241.522 240.085 242.553 242.997 243.601 245.903C244.652 248.808 245.723 251.705 246.812 254.596L247.473 256.34L247.738 256.502C248.069 256.705 248.42 256.739 248.734 256.654L248.247 255.374C247.151 252.486 246.075 249.591 245.02 246.686C243.965 243.783 242.931 240.873 241.917 237.955C240.902 235.037 239.908 232.112 238.935 229.18C238.203 226.975 237.482 224.766 236.774 222.552C236.427 222.587 236.065 222.627 235.689 222.67Z" fill="white"/>
<path d="M126.107 148.062C126.107 149.156 126.107 150.247 126.107 151.34C126.107 151.6 126.327 151.818 126.584 151.818C126.843 151.818 127.062 151.6 127.062 151.34C127.062 150.247 127.062 149.156 127.062 148.062C127.062 147.805 126.843 147.585 126.584 147.585C126.326 147.585 126.107 147.804 126.107 148.062Z" fill="#152151"/>
<path d="M129.385 148.427C129.385 149.519 129.385 150.611 129.385 151.704C129.385 151.962 129.605 152.182 129.862 152.182C130.121 152.182 130.341 151.963 130.341 151.704C130.341 150.611 130.341 149.519 130.341 148.427C130.341 148.167 130.12 147.948 129.862 147.948C129.603 147.948 129.385 148.167 129.385 148.427Z" fill="#152151"/>
<path d="M133.16 147.975C132.618 149.576 132.542 151.307 132.907 152.954C132.963 153.207 133.256 153.354 133.496 153.289C133.755 153.216 133.886 152.953 133.829 152.7C133.5 151.214 133.596 149.668 134.081 148.229C134.165 147.986 133.987 147.707 133.748 147.642C133.486 147.57 133.243 147.73 133.16 147.975H133.16Z" fill="#152151"/>
<path d="M136.648 148.286C136.089 149.897 136.086 151.691 136.636 153.305C136.72 153.549 136.964 153.71 137.224 153.64C137.461 153.573 137.641 153.296 137.558 153.051C137.056 151.584 137.061 150.006 137.569 148.541C137.654 148.297 137.472 148.018 137.234 147.953C136.971 147.881 136.732 148.042 136.647 148.286H136.648Z" fill="#152151"/>
<path d="M140.206 149.012C139.98 150.678 140.044 152.355 140.417 153.996C140.474 154.248 140.763 154.396 141.005 154.329C141.264 154.26 141.395 153.995 141.34 153.742C141.006 152.28 140.928 150.753 141.127 149.266C141.163 149.011 141.066 148.753 140.794 148.677C140.571 148.616 140.241 148.755 140.207 149.012H140.206Z" fill="#152151"/>
<path d="M143.223 150.247C143.223 151.584 143.223 152.918 143.223 154.254C143.223 154.869 144.179 154.871 144.179 154.254C144.179 152.918 144.179 151.584 144.179 150.247C144.179 149.632 143.223 149.631 143.223 150.247Z" fill="#152151"/>
<path d="M147.237 149.157C147.103 150.783 147.235 152.428 147.614 154.015C147.757 154.614 148.678 154.361 148.536 153.762C148.177 152.253 148.066 150.702 148.194 149.157C148.216 148.899 147.958 148.677 147.717 148.677C147.439 148.677 147.259 148.897 147.237 149.157V149.157Z" fill="#152151"/>
<path d="M150.168 150.252C149.974 151.877 150.087 153.532 150.487 155.118C150.636 155.714 151.559 155.462 151.408 154.865C151.029 153.354 150.939 151.796 151.124 150.251C151.155 149.992 150.883 149.771 150.645 149.771C150.362 149.771 150.198 149.992 150.168 150.251V150.252Z" fill="#152151"/>
<path d="M154.535 149.886C154.349 151.392 154.463 152.926 154.849 154.392C155.007 154.988 155.929 154.735 155.772 154.139C155.405 152.749 155.316 151.313 155.492 149.886C155.523 149.63 155.249 149.409 155.014 149.409C154.728 149.409 154.567 149.629 154.535 149.886Z" fill="#152151"/>
<path d="M158.518 149.519C158.518 150.733 158.518 151.946 158.518 153.161C158.518 153.775 159.474 153.777 159.474 153.161C159.474 151.946 159.474 150.733 159.474 149.519C159.474 148.903 158.518 148.902 158.518 149.519Z" fill="#152151"/>
<path d="M161.445 149.521C161.286 150.905 161.411 152.318 161.799 153.656C161.97 154.246 162.893 153.994 162.722 153.402C162.355 152.138 162.252 150.827 162.402 149.521C162.432 149.265 162.162 149.043 161.925 149.043C161.641 149.043 161.476 149.263 161.446 149.521H161.445Z" fill="#152151"/>
<path d="M221.357 230.486C223.199 231.414 225.04 232.342 226.883 233.271C227.114 233.387 227.4 233.332 227.538 233.1C227.662 232.887 227.598 232.562 227.365 232.444C225.523 231.516 223.68 230.588 221.839 229.659C221.607 229.544 221.32 229.598 221.184 229.831C221.061 230.044 221.124 230.369 221.357 230.485V230.486Z" fill="#152151"/>
<path d="M224.878 228.675C224.042 230.622 223.207 232.571 222.371 234.518C222.268 234.757 222.299 235.031 222.542 235.173C222.743 235.29 223.093 235.239 223.196 235C224.032 233.053 224.868 231.105 225.704 229.157C225.805 228.919 225.775 228.645 225.532 228.503C225.33 228.385 224.979 228.436 224.877 228.675H224.878Z" fill="#152151"/>
<path d="M48.846 231.061C50.3543 233.088 51.862 235.111 53.3703 237.139C53.5235 237.345 53.785 237.451 54.0247 237.311C54.2285 237.191 54.3501 236.864 54.1955 236.656C52.6871 234.631 51.1795 232.604 49.6726 230.579C49.5179 230.373 49.2579 230.268 49.0182 230.408C48.8144 230.527 48.6914 230.853 48.846 231.061Z" fill="#152151"/>
<path d="M53.3521 230.499C51.9042 232.445 50.0923 234.117 48.0497 235.419C47.8326 235.558 47.7433 235.844 47.8776 236.074C48.0055 236.289 48.314 236.384 48.5319 236.246C50.7227 234.85 52.6282 233.065 54.1787 230.983C54.3333 230.775 54.2131 230.449 54.0065 230.327C53.764 230.186 53.5067 230.293 53.3521 230.499Z" fill="#152151"/>
<path d="M138.525 210.213C138.308 211.474 138.558 212.79 139.285 213.854C139.429 214.068 139.703 214.162 139.938 214.026C140.148 213.903 140.255 213.586 140.11 213.372C139.52 212.51 139.278 211.447 139.448 210.466C139.491 210.213 139.379 209.952 139.114 209.88C138.883 209.816 138.568 209.957 138.525 210.213Z" fill="#6D181D"/>
<path d="M141.074 211.685C141.316 212.169 141.561 212.656 141.802 213.141C141.914 213.365 142.25 213.446 142.456 213.313C142.685 213.164 142.749 212.899 142.628 212.659C142.385 212.174 142.143 211.688 141.899 211.203C141.786 210.979 141.452 210.898 141.245 211.031C141.016 211.179 140.954 211.444 141.073 211.685H141.074Z" fill="#6D181D"/>
<path d="M138.804 202.1C138.953 202.944 139.103 203.788 139.252 204.633C139.295 204.881 139.611 205.042 139.84 204.967C140.105 204.88 140.222 204.643 140.174 204.379C140.025 203.533 139.876 202.689 139.729 201.843C139.683 201.598 139.369 201.435 139.139 201.51C138.874 201.597 138.759 201.833 138.804 202.1Z" fill="#6D181D"/>
<path d="M143.995 216.408C143.767 217.269 143.894 218.205 144.346 218.975C144.472 219.191 144.783 219.285 145 219.147C145.217 219.005 145.307 218.723 145.172 218.492L145.035 218.232L145.024 218.212L144.973 218.073L144.901 217.825L144.87 217.683L144.855 217.601L144.846 217.519L144.838 217.372L144.84 217.113L144.852 216.969L144.855 216.95L144.916 216.661C144.98 216.42 144.836 216.131 144.583 216.074C144.332 216.016 144.061 216.15 143.994 216.408L143.995 216.408Z" fill="#6D181D"/>
<path d="M146.501 211.429C146.501 212.157 146.501 212.885 146.501 213.613C146.501 213.864 146.721 214.102 146.978 214.092C147.237 214.081 147.457 213.881 147.457 213.613C147.457 212.885 147.457 212.158 147.457 211.429C147.457 211.178 147.237 210.938 146.978 210.95C146.721 210.962 146.501 211.16 146.501 211.429Z" fill="#6D181D"/>
<path d="M41.9834 191.036C41.9834 191.764 41.9834 192.491 41.9834 193.22C41.9834 193.471 42.2034 193.711 42.4606 193.699C42.7207 193.687 42.9393 193.489 42.9393 193.22C42.9393 192.492 42.9393 191.764 42.9393 191.036C42.9393 190.785 42.7193 190.546 42.4606 190.557C42.202 190.569 41.9834 190.768 41.9834 191.036Z" fill="#6D181D"/>
<path d="M44.2297 188.729L44.3556 188.936L44.402 189.03L44.4223 189.07L44.409 189.039L44.4519 189.152L44.4891 189.267L44.5397 189.471L44.5601 189.59L44.5538 189.538L44.5594 189.582L44.5685 189.824L44.5594 190.034L44.5524 190.095L44.5566 190.056L44.5341 190.175C44.4821 190.419 44.6058 190.704 44.8673 190.764C45.1083 190.819 45.4007 190.691 45.4556 190.429C45.6137 189.683 45.4844 188.883 45.0577 188.246C44.9193 188.039 44.6297 187.928 44.4034 188.073C44.1967 188.208 44.0835 188.506 44.2311 188.728L44.2297 188.729Z" fill="#6D181D"/>
<path d="M44.3084 182.633C44.4299 182.755 44.5509 182.875 44.6724 182.997L44.8256 183.098L45.0098 183.137L45.194 183.098L45.3486 182.997L45.4231 182.9L45.4885 182.658L45.4709 182.532L45.3486 182.321C45.227 182.199 45.1061 182.078 44.9845 181.957L44.8313 181.858L44.6464 181.817L44.4623 181.858L44.3091 181.957L44.2332 182.053L44.1692 182.295L44.1854 182.423L44.3091 182.634L44.3084 182.633Z" fill="#6D181D"/>
<path d="M45.9923 197.822C45.5832 198.957 45.4855 200.164 45.6563 201.356C45.6922 201.611 46.0176 201.752 46.2432 201.69C46.5194 201.614 46.615 201.359 46.5778 201.102C46.4351 200.097 46.5637 199.047 46.9152 198.076C47.003 197.832 46.8167 197.553 46.5806 197.488C46.3156 197.415 46.0809 197.577 45.993 197.821L45.9923 197.822Z" fill="#6D181D"/>
<path d="M158.07 172.09C157.954 173.305 157.838 174.518 157.722 175.733C157.699 175.992 157.96 176.212 158.201 176.212C158.479 176.212 158.654 175.992 158.678 175.733C158.794 174.519 158.909 173.306 159.025 172.09C159.05 171.832 158.787 171.612 158.548 171.612C158.269 171.612 158.093 171.832 158.069 172.09H158.07Z" fill="#6D181D"/>
<path d="M160.339 177.197C160.339 177.925 160.339 178.654 160.339 179.381C160.339 179.632 160.559 179.872 160.817 179.86C161.075 179.848 161.295 179.65 161.295 179.381C161.295 178.654 161.295 177.925 161.295 177.197C161.295 176.946 161.075 176.708 160.817 176.718C160.559 176.73 160.339 176.929 160.339 177.197Z" fill="#6D181D"/>
<path d="M159.611 186.665C159.611 187.271 159.611 187.879 159.611 188.486C159.611 188.735 159.831 188.975 160.088 188.963C160.347 188.951 160.566 188.753 160.566 188.486C160.566 187.879 160.566 187.271 160.566 186.665C160.566 186.415 160.346 186.175 160.088 186.186C159.83 186.198 159.611 186.397 159.611 186.665Z" fill="#6D181D"/>
<path d="M159.007 164.661C159.369 165.391 159.729 166.122 160.09 166.853C160.201 167.077 160.538 167.158 160.744 167.024C160.974 166.876 161.034 166.611 160.916 166.371C160.556 165.64 160.194 164.91 159.835 164.18C159.724 163.955 159.388 163.876 159.18 164.008C158.951 164.158 158.891 164.423 159.008 164.662L159.007 164.661Z" fill="#6D181D"/>
<defs>
<linearGradient id="paint0_linear_655_58" x1="31.2692" y1="177.192" x2="329.748" y2="-62.0647" gradientUnits="userSpaceOnUse">
<stop offset="0.232254" stop-color="#005546"/>
<stop offset="1" stop-color="#047460"/>
</linearGradient>
</defs>
</svg>
