<svg width="281" height="271" viewBox="0 0 281 271" fill="none" xmlns="http://www.w3.org/2000/svg">
<circle cx="140.5" cy="135.5" r="135.5" fill="url(#paint0_linear_655_59)"/>
<path d="M2.49078 219.163C6.87522 217.831 12.2408 216.581 18.7978 215.934C14.0388 216.344 6.88857 218.703 1.88773 218.023C-1.95973 217.5 1.13075 214.52 1.95309 214.403C8.89172 213.413 13.9375 212.213 20.7012 211.958C17.0519 211.923 7.93513 212.436 3.95624 211.727C3.04885 211.565 3.30891 210.855 4.05535 210.311C8.96341 206.74 24.505 208.377 30.0119 208.06C28.7637 207.306 27.5161 206.55 26.2692 205.794C25.4813 205.316 24.5824 204.571 24.8944 203.757C25.2824 202.743 26.9222 202.969 28.0067 203.399C31.2265 204.675 34.4196 206.003 37.5923 207.376C37.8685 207.274 38.1272 207.139 38.3612 206.963C39.1055 206.4 39.4401 205.518 39.7388 204.682C49.8642 176.484 59.2551 148.066 67.9003 119.463C70.0124 112.471 72.2081 105.239 77.2497 99.6182L80.8041 139.76C69.112 156.845 73.9161 179.623 64.5961 197.874C60.2363 206.41 53.0348 213.442 45.808 220.186C45.0679 220.877 44.3123 221.576 43.3817 222.035C41.4735 222.978 39.1667 222.78 36.9949 222.787C27.4627 222.826 17.8961 227.317 8.72233 225.992C7.91123 225.873 7.82548 224.84 8.60496 224.606L20.0897 221.161C14.2918 222.221 8.21627 221.999 2.52663 220.532C1.77949 220.338 1.75489 219.388 2.49008 219.163L2.49078 219.163Z" fill="#FBC9A4"/>
<path d="M78.9072 97.8703C70.2733 106.963 65.5979 119.009 61.1256 130.725C58.1181 138.607 55.1084 146.491 52.0988 154.375C51.871 154.973 51.6391 155.629 51.8359 156.238C51.9955 156.738 52.4123 157.105 52.815 157.44C59.5786 163.094 67.3452 167.543 75.6439 170.518C79.3669 160.828 83.0907 151.137 86.8144 141.444L78.9065 97.8696L78.9072 97.8703Z" fill="#4C75B5"/>
<path d="M105.64 77.1297C105.063 79.6044 91.5185 86.6977 88.9088 85.7123C86.2991 84.7241 85.2153 81.4389 86.8101 79.3507C85.585 80.812 82.8994 80.7557 81.3327 79.5812C79.7646 78.4068 79.1623 76.4774 79.1222 74.6535C76.7831 75.627 73.8451 74.2402 72.7156 72.1717C71.5854 70.1039 71.8849 67.6333 72.6489 65.4355C70.2943 64.5871 68.5315 62.5552 68.2005 60.3144C67.8687 58.0702 68.9835 55.7037 71.0112 54.3409C69.3096 53.9065 68.4015 52.0917 68.7213 50.5398C69.039 48.9893 70.295 47.7115 71.7106 46.7633C71.2572 47.4753 69.9169 47.2757 69.4319 46.582C68.9469 45.8861 69.0882 44.9872 69.3518 44.2035C69.9534 42.4246 71.1068 40.7982 72.6503 39.5513C71.1968 38.2608 71.9088 35.8873 73.5352 34.7739C75.1637 33.6592 77.3299 33.4582 79.3738 33.2979C80.4886 32.0194 82.7525 31.6926 84.2643 32.5909C85.7762 33.4884 86.3068 35.4761 85.4128 36.8853L105.638 77.1283L105.64 77.1297Z" fill="#CE8320"/>
<path d="M220.106 185.895C223.158 191.472 226.212 197.047 229.264 202.62C229.502 203.053 229.743 203.506 229.762 203.998C229.789 204.707 229.355 205.34 228.94 205.915C226.197 209.707 223.456 213.498 220.713 217.288C215.186 208.898 209.328 200.729 203.156 192.804L220.106 185.895Z" fill="#FBC9A4"/>
<path d="M233.98 202.639C236.289 202.696 238.49 201.75 240.605 200.822C244.437 199.141 248.269 197.458 252.101 195.776C254.294 194.813 256.638 193.829 259.008 194.191L226.755 231.98C226.755 231.98 223.967 229.301 222.57 223.913C222.161 222.331 221.836 220.726 221.422 219.146C221.254 218.497 221.055 217.851 220.696 217.279C220.39 216.79 220.004 216.467 219.461 216.274C218.853 216.058 217.805 214.672 217.223 214.383C216.319 213.937 215.923 212.546 215.943 211.663C215.986 209.707 213.377 211.117 213.667 209.183C213.735 208.719 214.034 208.324 214.321 207.952C217.77 203.503 221.317 198.964 226.065 195.938C226.511 195.654 227.03 195.372 227.541 195.502C228.055 195.633 228.357 196.411 227.913 196.697C228.373 196.382 229.036 196.885 229.084 197.44C229.14 198.075 228.562 198.539 228.717 199.154C228.883 199.815 229.357 200.474 229.831 200.945C230.909 202.022 232.468 202.599 233.978 202.638L233.98 202.639Z" fill="#EC8117"/>
<path d="M259.097 194.267C260.1 195.162 263.456 197.674 264.308 198.715L232.056 236.502L226.842 232.053L259.098 194.266L259.097 194.267Z" fill="white"/>
<path d="M233.98 202.639C236.289 202.696 238.49 201.75 240.605 200.822C244.437 199.141 248.269 197.458 252.101 195.776C254.294 194.813 256.638 193.829 259.008 194.191L226.755 231.98C226.755 231.98 223.967 229.301 222.57 223.913C222.161 222.331 221.836 220.726 221.422 219.146C221.254 218.497 221.055 217.851 220.696 217.279C220.39 216.79 220.004 216.467 219.461 216.274C218.853 216.058 217.805 214.672 217.223 214.383C216.319 213.937 215.923 212.546 215.943 211.663C215.986 209.707 213.377 211.117 213.667 209.183C213.735 208.719 214.034 208.324 214.321 207.952C217.77 203.503 221.317 198.964 226.065 195.938C226.511 195.654 227.03 195.372 227.541 195.502C228.055 195.633 228.357 196.411 227.913 196.697C228.373 196.382 229.036 196.885 229.084 197.44C229.14 198.075 228.562 198.539 228.717 199.154C228.883 199.815 229.357 200.474 229.831 200.945C230.909 202.022 232.468 202.599 233.978 202.638L233.98 202.639Z" fill="#EFA02A"/>
<path d="M244.253 210.759L244.834 210.274C242.469 207.443 238.6 206.058 234.976 206.743C234.469 206.839 233.954 206.974 233.455 207.104C231.975 207.489 230.577 207.852 229.309 207.322C228.68 207.058 228.138 206.576 227.69 206.137C225.697 204.189 224.173 201.765 223.28 199.124L222.562 199.366C223.492 202.118 225.081 204.649 227.16 206.679C227.66 207.166 228.27 207.709 229.016 208.02C230.52 208.65 232.109 208.236 233.644 207.836C234.131 207.71 234.633 207.579 235.116 207.488C238.422 206.861 242.094 208.176 244.252 210.759L244.253 210.759Z" fill="#4B74B4"/>
<path d="M231.471 226.324L231.999 225.779C229.549 223.412 226.191 222.016 222.786 221.95L222.771 222.709C225.988 222.771 229.158 224.088 231.471 226.324Z" fill="#4B74B4"/>
<path d="M226.528 213.046L226.614 213.015C226.874 212.936 227.202 212.983 227.589 213.155C228.713 213.653 229.508 214.8 229.631 216.016C229.176 216.02 228.724 215.979 228.299 215.894C227.264 215.696 226.558 215.31 226.201 214.753C225.992 214.422 225.947 213.941 226.088 213.555C226.155 213.378 226.283 213.155 226.528 213.046V213.046ZM227.846 220.201C229.214 219.596 230.238 218.224 230.387 216.731C231.768 216.578 233.151 216.006 233.978 214.735C234.873 213.357 234.771 211.432 233.735 210.158L233.147 210.635C233.967 211.646 234.052 213.23 233.343 214.323C232.703 215.305 231.576 215.811 230.387 215.964C230.24 214.477 229.269 213.072 227.899 212.462C227.339 212.214 226.832 212.157 226.394 212.289C225.924 212.431 225.566 212.788 225.379 213.293C225.155 213.898 225.227 214.632 225.564 215.161C226.036 215.9 226.907 216.397 228.155 216.64C228.608 216.727 229.107 216.777 229.62 216.774C229.435 218.118 228.393 219.321 227.078 219.671L227.275 220.403C227.469 220.351 227.661 220.283 227.845 220.201H227.846Z" fill="#4B74B4"/>
<path d="M240.899 205.745L241.561 205.374C240.79 204.002 240.467 202.385 240.617 200.817L240.606 200.823C240.35 200.935 240.092 201.047 239.834 201.158C239.759 202.747 240.121 204.359 240.899 205.746L240.899 205.745Z" fill="#4B74B4"/>
<path d="M246.71 203.243L247.337 202.819C246.466 201.532 246.08 199.916 246.218 198.359L245.44 198.701C245.385 200.301 245.818 201.927 246.71 203.243Z" fill="#4B74B4"/>
<path d="M216.526 211.283L225.35 203.89L224.865 203.311L216.041 210.705L216.526 211.283Z" fill="#4B74B4"/>
<path d="M217.9 214.32L227.421 206.815L226.953 206.22L217.432 213.724L217.9 214.32Z" fill="#4B74B4"/>
<path d="M260.984 196.519C252.923 205.965 244.861 215.41 236.799 224.856C234.508 227.542 232.216 230.226 229.924 232.911C229.452 233.465 228.528 232.803 229.003 232.247C237.066 222.8 245.126 213.355 253.189 203.909C255.481 201.224 257.773 198.54 260.065 195.853C260.535 195.3 261.459 195.963 260.985 196.519H260.984Z" fill="#4B74B4"/>
<path d="M262.768 197.121C258.552 202.061 254.334 207.001 250.118 211.941C245.903 216.882 241.685 221.821 237.469 226.762C235.095 229.544 232.72 232.325 230.346 235.108C229.874 235.661 228.95 234.998 229.425 234.441C233.64 229.501 237.857 224.562 242.073 219.621C246.29 214.681 250.508 209.741 254.723 204.801C257.097 202.02 259.47 199.236 261.846 196.455C262.319 195.902 263.241 196.563 262.768 197.121V197.121Z" fill="#4B74B4"/>
<path d="M114.768 159.82C123.544 145.789 128.192 128.354 141.468 118.475C144.437 116.264 147.864 114.491 151.553 114.186C155.552 113.857 159.489 115.274 163.104 117.018C169.491 120.101 175.345 124.284 180.332 129.328C185.087 134.137 189.023 139.681 192.935 145.199C202.496 158.68 212.059 172.162 221.62 185.645C209.535 189.037 210.809 190.779 198.355 192.332C189.873 179.147 167.136 167.119 157.412 154.82C155.495 169.768 150.072 184.255 141.707 196.789C140.944 197.934 140.14 199.078 139.074 199.944C137.683 201.075 135.938 201.663 134.203 202.111C123.79 204.81 112.176 203.067 103.37 196.889C94.5647 190.712 88.9031 180.055 89.3488 169.308L114.769 159.82L114.768 159.82Z" fill="#4972B2"/>
<path d="M234.044 199.197C238.594 203.634 243.147 208.07 247.697 212.507C248.05 212.852 248.414 213.214 248.577 213.678C248.81 214.349 248.581 215.083 248.352 215.752C246.841 220.18 245.328 224.607 243.816 229.037C236.075 222.634 228.081 216.537 219.859 210.766L234.044 199.197H234.044Z" fill="#FBC9A4"/>
<path d="M253.109 212.404C255.333 211.783 257.161 210.233 258.911 208.726C262.083 205.997 265.253 203.267 268.425 200.537C270.242 198.973 272.195 197.345 274.567 196.998L254.791 242.574C254.791 242.574 251.342 240.831 248.43 236.086C247.574 234.693 246.793 233.255 245.935 231.865C245.583 231.295 245.205 230.733 244.694 230.291C244.258 229.914 243.794 229.719 243.22 229.695C242.575 229.665 241.168 228.646 240.524 228.54C239.529 228.378 238.744 227.164 238.505 226.314C237.975 224.432 235.894 226.545 235.603 224.609C235.532 224.145 235.701 223.68 235.868 223.242C237.864 217.977 239.927 212.599 243.578 208.315C243.921 207.912 244.336 207.492 244.863 207.466C245.391 207.44 245.909 208.095 245.568 208.499C245.916 208.061 246.696 208.349 246.905 208.868C247.144 209.457 246.728 210.069 247.056 210.612C247.407 211.197 248.055 211.688 248.645 212C249.992 212.713 251.654 212.808 253.109 212.403L253.109 212.404Z" fill="#EFA02A"/>
<path d="M274.673 197.045C275.894 197.608 279.838 199.027 280.957 199.773L261.182 245.348L254.895 242.619L274.673 197.045V197.045Z" fill="white"/>
<path d="M265.306 217.161L265.721 216.526C262.629 214.513 258.523 214.321 255.261 216.037C254.803 216.277 254.348 216.555 253.911 216.827C252.61 217.628 251.38 218.386 250.011 218.25C249.334 218.182 248.674 217.879 248.116 217.591C245.64 216.312 243.472 214.44 241.847 212.176L241.232 212.618C242.927 214.979 245.187 216.931 247.77 218.264C248.39 218.584 249.133 218.923 249.936 219.003C251.559 219.164 252.956 218.303 254.308 217.471C254.735 217.208 255.178 216.937 255.612 216.707C258.591 215.14 262.485 215.323 265.305 217.16L265.306 217.161Z" fill="#4B74B4"/>
<path d="M257.645 235.785L257.988 235.111C254.954 233.564 251.335 233.215 248.061 234.15L248.267 234.877C251.36 233.995 254.779 234.325 257.645 235.785Z" fill="#4B74B4"/>
<path d="M249.03 224.537L249.101 224.484C249.328 224.331 249.656 224.28 250.076 224.331C251.295 224.479 252.392 225.343 252.867 226.47C252.433 226.607 251.989 226.699 251.558 226.744C250.51 226.856 249.723 226.695 249.219 226.266C248.92 226.011 248.734 225.564 248.759 225.154C248.77 224.965 248.827 224.715 249.031 224.538L249.03 224.537ZM252.384 230.993C253.514 230.013 254.093 228.402 253.799 226.931C255.074 226.382 256.229 225.429 256.647 223.97C257.1 222.39 256.439 220.581 255.073 219.665L254.652 220.294C255.733 221.019 256.278 222.51 255.918 223.762C255.596 224.888 254.666 225.702 253.573 226.198C252.998 224.819 251.657 223.76 250.169 223.578C249.561 223.505 249.06 223.598 248.678 223.854C248.271 224.124 248.033 224.573 248.004 225.109C247.965 225.756 248.249 226.435 248.726 226.841C249.395 227.41 250.374 227.631 251.637 227.497C252.096 227.448 252.586 227.35 253.077 227.198C253.294 228.537 252.649 229.992 251.495 230.712L251.898 231.353C252.067 231.246 252.231 231.125 252.383 230.993H252.384Z" fill="#4B74B4"/>
<path d="M260.632 213.349L261.156 212.801C260.017 211.714 259.235 210.262 258.92 208.718L258.91 208.727C258.699 208.909 258.486 209.092 258.271 209.274C258.664 210.816 259.483 212.252 260.632 213.35V213.349Z" fill="#4B74B4"/>
<path d="M265.456 209.255L265.933 208.665C264.723 207.691 263.881 206.258 263.557 204.728L262.912 205.283C263.327 206.829 264.219 208.257 265.456 209.255V209.255Z" fill="#4B74B4"/>
<path d="M238.951 225.781L245.224 216.129L244.587 215.717L238.314 225.369L238.951 225.781Z" fill="#4B74B4"/>
<path d="M241.155 228.282L248.06 218.318L247.438 217.886L240.531 227.851L241.155 228.282Z" fill="#4B74B4"/>
<path d="M277.137 198.646C272.194 210.038 267.252 221.43 262.31 232.822C260.903 236.06 259.499 239.298 258.094 242.536C257.804 243.205 256.728 242.842 257.018 242.17C261.96 230.778 266.903 219.386 271.845 207.995C273.25 204.756 274.656 201.518 276.061 198.279C276.351 197.611 277.428 197.974 277.137 198.646V198.646Z" fill="#4B74B4"/>
<path d="M279.016 198.7C276.432 204.658 273.847 210.616 271.262 216.574C268.677 222.533 266.092 228.49 263.507 234.448C262.052 237.804 260.597 241.16 259.141 244.513C258.85 245.181 257.775 244.82 258.065 244.148C260.65 238.19 263.236 232.232 265.82 226.274C268.405 220.316 270.99 214.357 273.574 208.398C275.031 205.045 276.486 201.689 277.942 198.333C278.232 197.666 279.309 198.03 279.017 198.7L279.016 198.7Z" fill="#4B74B4"/>
<path d="M118.12 40.6077C119.244 51.4036 128.303 61.6415 136.128 71.2615L129.309 72.2947C129.219 75.3346 130.234 82.5389 128.876 85.2618C127.317 88.3881 123.8 90.1579 120.33 90.5473C116.858 90.9374 113.372 90.1713 109.962 89.4087C108.793 94.8235 107.625 100.237 106.459 105.65C98.8137 103.592 91.4977 100.313 84.8711 95.9755C89.7096 89.0516 93.498 81.3932 96.0655 73.3448C92.1682 74.2585 88.003 70.2902 88.7242 66.3513C89.4467 62.4125 94.7484 60.1809 98.0694 62.4181C97.647 54.8476 96.9441 47.2926 95.9629 39.7741C103.268 38.3312 110.859 38.3621 118.151 39.8648L118.12 40.6084V40.6077Z" fill="#FBC9A4"/>
<path d="M137.813 117.132C143.797 119.107 147.898 120.511 154.093 121.66C157.248 108.758 159.134 95.456 161.135 82.3266C161.532 79.7133 162.104 76.9398 163.975 75.073C165.406 73.6476 167.402 72.961 169.355 72.4507C174.958 70.9895 185.081 70.9866 190.822 71.7387C191.727 71.8582 193.438 72.2005 194.955 72.736C196.483 73.2758 196.309 75.4948 194.712 75.7717C190.985 76.4183 186.321 76.6292 183.312 76.6896C184.888 76.5364 186.534 77.7018 186.748 79.2705C186.961 80.8372 185.515 82.465 183.944 82.2865C185.504 81.6624 187.384 83.1721 187.35 84.8534C187.315 86.536 185.691 87.9242 184.011 87.9811C185.553 87.8504 186.376 90.0981 185.517 91.3836C184.659 92.6691 182.946 93.0571 181.401 93.0838C179.852 93.1105 172.346 92.3585 170.885 92.8596C173.123 101.582 175.02 145.325 169.914 147.056C162.947 149.42 130.354 142.098 120.679 138.625C120.317 138.496 119.936 138.352 119.69 138.053C119.39 137.688 119.364 137.177 119.35 136.705C119.274 133.861 119.197 131.016 119.121 128.174L137.814 117.131L137.813 117.132Z" fill="#FBC9A4"/>
<path d="M179.515 69.2865C179.973 70.6079 181.112 71.672 182.461 72.0424C181.941 73.0074 181.179 73.8438 180.266 74.4518C181.152 74.3611 181.989 73.8783 182.512 73.1586C182.338 73.9943 181.965 74.7878 181.437 75.4583C182.244 74.8735 182.871 74.0385 183.209 73.1002C183.264 73.9816 183.095 74.877 182.722 75.6776C183.81 74.922 183.332 73.0897 184.188 72.079C184.323 71.9194 184.491 71.7831 184.591 71.5989C184.69 71.4155 184.701 71.1554 184.539 71.0219C184.346 70.8623 184.046 70.9699 183.815 70.8708C183.668 70.8068 183.567 70.6655 183.479 70.5291C182.687 69.2977 182.129 67.9159 181.844 66.48L179.514 69.2865H179.515Z" fill="#B12D04"/>
<path d="M168.494 69.2181C168.613 69.9449 168.719 70.7447 168.339 71.378C168.015 71.9171 167.409 72.2137 166.818 72.4288C166.188 72.6579 165.537 72.8301 164.876 72.9419C165.536 73.0164 166.211 72.958 166.846 72.769C166.048 72.9102 165.293 73.301 164.717 73.8732C165.539 73.7213 166.349 73.4971 167.133 73.2026C166.484 73.4571 165.923 73.9252 165.557 74.5177C166.648 74.1803 167.748 73.8387 168.736 73.2673C169.725 72.6952 170.603 71.8644 171.016 70.8003C171.284 70.1136 171.347 69.3629 171.291 68.6284L168.495 69.2188L168.494 69.2181Z" fill="#B12D04"/>
<path d="M173.062 62.6242C171.343 62.3149 169.85 61.2986 168.301 60.4938C166.752 59.6869 164.938 59.067 163.28 59.6152C162.353 59.9217 161.423 60.5845 160.496 60.2801C160.204 60.1838 159.929 59.9934 159.623 60.0137C159.085 60.051 158.816 60.6913 158.787 61.2283C158.669 63.4043 160.412 65.2191 162.198 66.4688C165.234 68.5914 168.784 69.9712 172.457 70.4526C173.359 70.5714 174.324 70.6593 175.042 71.2194C175.757 71.7796 176.017 73.0209 175.29 73.567C174.481 74.175 172.986 73.6162 172.522 74.5165C173.146 74.3992 173.772 74.2818 174.396 74.1644C173.536 74.2607 172.743 74.8216 172.368 75.6017C173.275 75.4085 174.144 75.0472 174.919 74.5376C174.267 74.8947 173.719 75.4415 173.356 76.0923C174.701 75.5378 176.067 74.9404 177.124 73.943C178.182 72.9457 178.893 71.4577 178.589 70.0365C179.957 70.019 181.324 70.0035 182.69 69.9873C182.94 69.9845 183.193 69.9817 183.431 70.0555C183.748 70.1539 184.008 70.3795 184.287 70.5595C185.744 71.509 187.644 71.2553 189.358 70.9671C188.346 71.762 187.459 72.7193 186.745 73.7884C187.627 73.4004 188.441 72.8634 189.144 72.207C188.521 72.7805 188.185 73.6534 188.261 74.4976C188.74 73.7125 189.22 72.926 189.7 72.1388C189.167 72.8437 188.97 73.7947 189.183 74.6536C189.898 73.5213 190.613 72.3883 191.327 71.256C191.7 70.6642 192.053 69.8264 191.55 69.34C191.014 68.8213 189.955 69.2325 189.475 68.6603C189.184 68.3138 189.292 67.7621 189.59 67.4219C189.887 67.0831 190.323 66.9046 190.742 66.7366C192.799 65.9178 194.871 65.0933 197.043 64.6674C198.638 64.3553 200.527 64.3567 201.606 65.5727C202.499 66.5806 202.506 68.1634 201.902 69.3674C201.298 70.57 200.196 71.45 199.034 72.131C195.433 74.2473 191.138 74.7738 186.973 75.0774C188.754 75.5645 190.628 75.5772 192.473 75.535C194.812 75.4816 197.179 75.3389 199.407 74.6325C201.637 73.9248 203.742 72.5928 204.968 70.6002C206.193 68.6083 206.387 65.9044 205.09 63.9575C204.302 62.7746 203.059 61.9614 201.755 61.3949C197.755 59.6553 191.736 60.1466 187.877 62.1821C182.92 64.7967 173.065 62.6249 173.065 62.6249L173.062 62.6242Z" fill="#FE6434"/>
<path d="M183.685 65.2733C182.965 66.7535 182.879 68.5001 183.486 70.0358C183.604 70.3359 184.095 70.2052 183.975 69.8995C183.419 68.4945 183.459 66.8913 184.123 65.5277C184.264 65.2353 183.829 64.9781 183.685 65.2733V65.2733Z" fill="#B12D04"/>
<path d="M175.622 67.3597C176.601 68.2994 177.521 69.301 178.376 70.3567H178.734V69.9968C177.879 68.9418 176.959 67.9409 175.979 66.9991C175.743 66.7742 175.386 67.1326 175.622 67.3589V67.3597Z" fill="#B12D04"/>
<path d="M172.928 69.0545C173.572 69.569 174.153 70.1665 174.638 70.8314C174.72 70.9403 174.858 70.9965 174.985 70.922L175.076 70.5755C174.565 69.8727 173.967 69.238 173.286 68.6968H172.928V69.0545Z" fill="#B12D04"/>
<path d="M162.701 61.8051C162.701 62.1636 162.994 62.4573 163.353 62.4573C163.715 62.4573 164.007 62.1643 164.007 61.8051C164.007 61.4438 163.715 61.1528 163.353 61.1528C162.995 61.1528 162.701 61.4438 162.701 61.8051Z" fill="#141515"/>
<path d="M168.773 66.6836C168.94 66.8073 169.107 66.9331 169.275 67.0554L169.469 67.0821L169.622 66.9662L169.647 66.7701L169.622 66.7103L169.53 66.6183C169.363 66.4946 169.197 66.3702 169.03 66.2451L168.835 66.2197L168.682 66.3357L168.658 66.5318L168.682 66.5929L168.774 66.6836H168.773Z" fill="#B12D04"/>
<path d="M167.724 67.2664C167.849 67.3887 167.975 67.5145 168.1 67.6382L168.281 67.7127L168.458 67.6382L168.534 67.4583L168.458 67.2798C168.334 67.1561 168.208 67.0316 168.083 66.9065L167.903 66.832L167.725 66.9065L167.65 67.0872L167.725 67.2671L167.724 67.2664Z" fill="#B12D04"/>
<path d="M167.479 68.0093L167.73 68.2603L167.811 68.3123L167.908 68.3334L168.007 68.3123L168.088 68.2603L168.127 68.2076L168.163 68.0803L168.154 68.0122L168.088 67.8997L167.839 67.6509L167.756 67.5989L167.659 67.5757L167.562 67.5989L167.479 67.6509L167.44 67.7022L167.404 67.8308L167.414 67.8969L167.479 68.0093Z" fill="#B12D04"/>
<path d="M170.639 68.9471C170.847 69.0708 171.057 69.1959 171.265 69.3203L171.611 69.2297C171.676 69.1067 171.642 68.9548 171.52 68.8824C171.311 68.7573 171.103 68.6336 170.896 68.5078L170.548 68.5999C170.483 68.7215 170.517 68.874 170.639 68.9464V68.9471Z" fill="#B12D04"/>
<path d="M180.958 66.2292C180.625 66.3157 180.292 66.4014 179.96 66.4878C179.832 66.5195 179.742 66.6692 179.784 66.7978C179.827 66.9314 179.958 67.0115 180.096 66.9756C180.428 66.8899 180.76 66.8048 181.092 66.7191C181.221 66.6861 181.312 66.5356 181.27 66.4056C181.228 66.2735 181.096 66.1933 180.957 66.2285L180.958 66.2292Z" fill="#B12D04"/>
<path d="M180.457 67.3535C180.25 67.3964 180.042 67.44 179.835 67.4828L179.682 67.6002L179.658 67.7949L179.774 67.9467L179.969 67.972C180.178 67.9291 180.385 67.8863 180.593 67.8427L180.744 67.7253L180.771 67.5306L180.655 67.3802L180.457 67.3535H180.457Z" fill="#B12D04"/>
<path d="M179.023 64.7036C178.899 64.7036 178.773 64.7036 178.648 64.7036L178.468 64.7781L178.395 64.9566L178.468 65.1366L178.648 65.2111C178.773 65.2111 178.899 65.2111 179.023 65.2111L179.201 65.1366L179.276 64.9566L179.201 64.7781L179.023 64.7036Z" fill="#B12D04"/>
<path d="M176.967 65.8345C176.635 65.7515 176.302 65.6679 175.968 65.585C175.842 65.5533 175.686 65.6264 175.658 65.7621C175.627 65.8928 175.696 66.0397 175.835 66.0741C176.167 66.1578 176.5 66.2407 176.834 66.325C176.961 66.356 177.115 66.2822 177.144 66.1479C177.175 66.0158 177.106 65.8696 176.967 65.8345V65.8345Z" fill="#B12D04"/>
<path d="M175.024 64.3504C174.609 64.3026 174.191 64.2548 173.777 64.2063C173.645 64.1902 173.517 64.3335 173.524 64.4601C173.531 64.6105 173.636 64.6976 173.777 64.7145C174.192 64.7623 174.61 64.8108 175.024 64.8586C175.156 64.8748 175.284 64.7307 175.278 64.6048C175.27 64.453 175.166 64.3673 175.024 64.3504Z" fill="#B12D04"/>
<path d="M171.531 65.3291H171.281L171.182 65.3502L171.102 65.4022L171.048 65.4852L171.027 65.5821L171.037 65.6503L171.102 65.7621L171.281 65.8359H171.531L171.628 65.8141L171.71 65.7621L171.763 65.6798L171.785 65.5821L171.776 65.5139L171.71 65.4022L171.531 65.3291Z" fill="#B12D04"/>
<path d="M189.098 64.5103C188.604 65.8865 188.11 67.676 189.335 68.8357C189.572 69.06 189.931 68.7022 189.694 68.478C188.616 67.4568 189.16 65.8345 189.587 64.646C189.696 64.3368 189.207 64.206 189.098 64.5097V64.5103Z" fill="#B12D04"/>
<path d="M192.76 63.2482C192.594 63.3311 192.427 63.4162 192.26 63.4991L192.145 63.6509L192.17 63.8456L192.322 63.963L192.516 63.9377C192.683 63.8541 192.849 63.7711 193.015 63.6867L193.132 63.5342L193.107 63.3381L192.956 63.2222L192.76 63.2475L192.76 63.2482Z" fill="#B12D04"/>
<path d="M191.536 62.4546L191.504 62.4982L191.544 62.4475L191.361 62.6303L191.413 62.5902L191.19 62.7196L191.252 62.6957L191.193 62.7181L191.042 62.8327L191.016 63.0302L191.133 63.1813L191.329 63.2081C191.451 63.1645 191.567 63.1082 191.671 63.0295L191.837 62.8868L191.975 62.7125L192.002 62.5164L191.886 62.3646L191.688 62.3379L191.538 62.4553L191.536 62.4546Z" fill="#B12D04"/>
<path d="M194.756 61.7075C194.59 61.7075 194.424 61.7075 194.257 61.7075L194.077 61.7806L194.004 61.9612L194.077 62.1398L194.257 62.2143C194.424 62.2143 194.59 62.2143 194.756 62.2143L194.936 62.1398L195.01 61.9612L194.936 61.7806L194.756 61.7075Z" fill="#B12D04"/>
<path d="M200.126 61.832C199.919 61.832 199.711 61.832 199.503 61.832L199.323 61.9065L199.248 62.0851C199.254 62.2221 199.36 62.3381 199.502 62.3381C199.711 62.3381 199.919 62.3381 200.125 62.3381L200.305 62.265L200.38 62.0851C200.373 61.9473 200.269 61.832 200.125 61.832H200.126Z" fill="#B12D04"/>
<path d="M198.628 62.8306C198.504 62.8306 198.379 62.8306 198.253 62.8306L198.073 62.9051L198 63.0857L198.073 63.2642L198.253 63.3387C198.379 63.3387 198.504 63.3387 198.628 63.3387L198.806 63.2642L198.881 63.0857L198.806 62.9051L198.628 62.8306Z" fill="#B12D04"/>
<path d="M204.443 64.5117L204.187 64.2692L204.106 64.2158L204.009 64.1934L203.91 64.2158L203.83 64.2692L203.756 64.4464L203.764 64.5146L203.83 64.6263L204.085 64.8716L204.166 64.9236L204.263 64.9454L204.36 64.9236L204.443 64.8716L204.517 64.6917L204.509 64.6242L204.443 64.5117Z" fill="#B12D04"/>
<path d="M202.291 71.0772C202.125 71.4532 201.963 71.8292 201.799 72.2053L201.773 72.3999L201.891 72.5532C202 72.6094 202.18 72.5904 202.236 72.4611C202.401 72.0851 202.565 71.709 202.728 71.333L202.753 71.1383L202.637 70.9865C202.526 70.9296 202.346 70.9464 202.291 71.0772Z" fill="#B12D04"/>
<path d="M199.907 73.1972C199.824 73.3209 199.74 73.4453 199.658 73.5704L199.627 73.6653L199.633 73.7665L199.749 73.9183L199.945 73.9422L200.007 73.9183L200.097 73.8276C200.18 73.7018 200.264 73.5767 200.347 73.4516L200.378 73.3581L200.372 73.2569L200.256 73.1058L200.061 73.0791L200 73.1058L199.908 73.1965L199.907 73.1972Z" fill="#B12D04"/>
<path d="M203.688 68.021C203.481 68.2719 203.273 68.5207 203.067 68.7731L202.992 68.9516L203.067 69.1301L203.245 69.2046L203.425 69.1301C203.632 68.8806 203.84 68.6304 204.048 68.3809L204.122 68.201L204.048 68.0203L203.868 67.9458L203.687 68.0203L203.688 68.021Z" fill="#B12D04"/>
<path d="M159.139 60.3442C159.386 61.0456 159.66 61.752 160.095 62.36C160.464 62.8773 160.94 63.306 161.495 63.6195C162.574 64.2317 163.899 64.4011 165.087 64.0236C165.398 63.9266 165.264 63.4353 164.952 63.5344C163.891 63.8718 162.719 63.7291 161.75 63.1816C161.264 62.9068 160.835 62.5322 160.512 62.0732C160.114 61.5053 159.856 60.86 159.627 60.2092C159.52 59.9028 159.029 60.0363 159.139 60.3442V60.3442Z" fill="#B12D04"/>
<path d="M165.306 60.6308C165.16 60.4122 164.957 60.2323 164.716 60.1269C164.451 60.0109 164.178 59.9751 163.894 60.0193C163.762 60.0397 163.677 60.2112 163.717 60.3314C163.762 60.4741 163.888 60.5303 164.027 60.5078L164.016 60.5106L164.051 60.5064L164.122 60.5036L164.205 60.5064L164.238 60.5092L164.228 60.5078L164.373 60.5402L164.445 60.5612L164.482 60.576L164.474 60.5718L164.607 60.6414L164.669 60.6814L164.701 60.7067L164.69 60.6976L164.803 60.8044L164.85 60.8606L164.841 60.8473L164.869 60.8888L165.216 60.9808L165.307 60.6329L165.306 60.6308Z" fill="#B12D04"/>
<path d="M119.74 177.689C135.735 170.139 152.106 163.388 168.775 157.471C173.361 155.841 178.334 154.261 183.012 155.61C186.169 156.521 188.798 158.67 191.331 160.766C208.811 175.236 226.292 189.706 243.774 204.177C238.933 208.691 234.093 213.208 229.253 217.722C228.726 218.216 228.15 218.731 227.435 218.827C226.832 218.907 226.236 218.672 225.673 218.44C210.361 212.107 195.689 204.23 181.953 194.969C181.035 194.35 180.027 193.699 178.923 193.776C178.1 193.833 177.366 194.291 176.675 194.737C161.849 204.316 147.908 215.533 131.718 222.557C115.525 229.581 96.0576 231.883 80.6242 223.319C75.4905 220.471 70.6548 215.889 70.1741 210.041C69.7903 205.375 72.2714 200.937 75.2621 197.334C78.2527 193.734 81.8443 190.609 84.3796 186.674L119.742 177.69L119.74 177.689Z" fill="#7F9DCF"/>
<path d="M64.5136 140.468C63.9112 146.639 68.3442 200.884 67.2632 206.989C67.1043 207.887 66.9469 208.823 67.2027 209.699C67.4775 210.636 68.1867 211.374 68.8889 212.053C83.1822 225.895 98.5488 183.82 118.009 179.662C118.608 179.534 119.247 179.373 119.65 178.909C120.053 178.446 120.124 177.789 120.17 177.178C120.77 169.298 120.365 161.344 118.969 153.567L143.385 160.727C143.689 147.666 144.33 119.686 143.913 118.88C143.489 118.059 112.426 100.963 96.2863 96.5427C93.5466 95.792 85.9958 93.0256 78.6579 98.4053C78.6579 98.4053 67.5485 109.457 64.5129 140.468H64.5136Z" fill="#7F9DCF"/>
<path d="M184.767 87.6772C183.324 87.6772 181.881 87.6772 180.437 87.6772C179.785 87.6772 179.783 88.6922 180.437 88.6922C181.881 88.6922 183.324 88.6922 184.767 88.6922C185.42 88.6922 185.42 87.6772 184.767 87.6772Z" fill="#93674A"/>
<path d="M186.099 81.6946C184.692 81.7333 183.292 81.6082 181.918 81.3067C181.65 81.2497 181.369 81.3868 181.293 81.663C181.225 81.9153 181.38 82.2267 181.648 82.2857C183.109 82.6055 184.605 82.751 186.098 82.7096C186.75 82.6927 186.753 81.6763 186.098 81.6953L186.099 81.6946Z" fill="#93674A"/>
<path d="M184.768 76.6827C183.359 76.7937 181.953 76.6799 180.584 76.3334C179.952 76.1717 179.68 77.1522 180.315 77.3117C181.767 77.68 183.274 77.8143 184.768 77.6969C185.041 77.6751 185.275 77.4797 185.275 77.1901C185.275 76.9329 185.043 76.6609 184.768 76.682V76.6827Z" fill="#93674A"/>
<path d="M179.73 75.9664C180.774 79.7253 180.816 83.74 179.863 87.5228C179.593 88.5932 179.244 89.6412 178.824 90.6631C178.719 90.9148 178.937 91.2205 179.179 91.2859C179.47 91.3674 179.697 91.1861 179.801 90.9323C181.34 87.21 181.885 83.0681 181.379 79.0737C181.234 77.9337 181.015 76.8056 180.708 75.6978C180.534 75.0688 179.555 75.3352 179.73 75.967V75.9664Z" fill="#93674A"/>
<path d="M153.53 121.658C154.875 125.542 156.222 129.426 157.567 133.31C157.946 134.4 158.324 135.492 158.701 136.582C158.79 136.839 159.049 137.012 159.327 136.937C159.577 136.868 159.77 136.572 159.679 136.313C158.334 132.429 156.989 128.545 155.642 124.661C155.265 123.569 154.888 122.479 154.509 121.388C154.42 121.129 154.161 120.957 153.885 121.034C153.633 121.103 153.441 121.397 153.53 121.658V121.658Z" fill="#93674A"/>
<path d="M98.2338 69.294C96.0661 67.929 93.8978 66.5619 91.7295 65.1984C91.4519 65.0241 91.196 65.4627 91.4723 65.6356C93.6406 67.0012 95.8096 68.3676 97.9779 69.7318C98.2555 69.9062 98.5114 69.4676 98.2345 69.294H98.2338Z" fill="#93674A"/>
<path d="M94.6067 67.4281C93.9615 68.0467 93.3163 68.6652 92.6717 69.2851C92.4342 69.5121 92.7933 69.8698 93.0295 69.6449C93.6761 69.025 94.3199 68.4051 94.9652 67.7852C95.2013 67.5581 94.8429 67.2011 94.6067 67.4281Z" fill="#93674A"/>
<path d="M129.03 77.1227C126.304 76.8697 123.671 75.5736 121.743 73.6084C121.198 73.0525 120.716 72.4487 120.294 71.7936C120.148 71.5645 119.845 71.4696 119.601 71.6123C119.372 71.7466 119.27 72.0748 119.42 72.3067C121.055 74.8518 123.603 76.7586 126.492 77.6456C127.32 77.8987 128.169 78.0575 129.03 78.139C129.303 78.1644 129.538 77.8874 129.538 77.6309C129.538 77.335 129.304 77.1494 129.03 77.1227V77.1227Z" fill="#93674A"/>
<path d="M116.31 61.1064C116.579 62.6414 117.679 63.7323 118.767 63.5411C119.852 63.3506 120.514 61.9506 120.243 60.4141C119.974 58.8798 118.875 57.7875 117.789 57.9794C116.702 58.1685 116.041 59.5686 116.31 61.1057V61.1064Z" fill="#141515"/>
<path d="M98.1886 62.3985C98.0206 63.3262 97.8569 64.3039 98.1809 65.1874C98.5063 66.0702 99.5093 66.7779 100.385 66.4364C100.961 66.21 101.305 65.6189 101.526 65.0419C102.443 62.6381 101.863 59.7325 100.095 57.8643C102.175 58.8167 104.597 56.5148 104.531 54.2312C104.466 51.9469 102.767 50.0408 100.939 48.6702C103.228 45.9501 102.198 41.1671 98.9927 39.6314C100.914 39.8619 102.451 41.274 104.18 42.142C105.911 43.0087 108.454 43.0951 109.356 41.3836C110.787 44.1712 115.591 44.0981 116.934 41.2663C115.453 42.1076 116.378 44.8249 118.08 44.893C119.785 44.9619 121.05 42.9489 120.623 41.2986C120.199 39.6476 118.557 38.5328 116.879 38.2355C118.627 37.4462 119.698 35.3847 119.338 33.4997C118.976 31.6153 117.219 30.0957 115.303 30.0079C114.941 27.7116 112.493 25.9664 110.203 26.3706C107.913 26.7747 106.211 29.253 106.657 31.5345C107.121 29.5447 105.589 27.5155 103.696 26.748C101.802 25.9798 99.6688 26.1745 97.6474 26.483C96.6768 26.6299 95.6717 26.8148 94.8725 27.3869C94.0741 27.959 93.5469 29.0309 93.9019 29.9453C94.9512 27.7264 93.6685 24.877 91.5016 23.7236C89.3347 22.5702 86.6083 22.8893 84.4308 24.0209C83.2971 24.6099 82.2295 25.4618 81.7586 26.6489C81.2891 27.8339 81.6039 29.3915 82.7088 30.0304C80.3479 29.3289 77.9877 31.8972 78.1142 34.3572C78.2408 36.8186 80.0703 38.8709 82.0938 40.276C80.2017 41.2789 79.2473 43.6068 79.4911 45.7351C79.7336 47.8626 81.0072 49.768 82.6147 51.1829C80.9946 51.9764 79.9614 53.8306 80.1385 55.6243C80.3163 57.4194 81.6918 59.0353 83.4363 59.4949C81.9266 59.7283 80.8027 61.3856 81.1415 62.8736C81.4802 64.3629 83.2093 65.3694 84.6726 64.9294C83.3801 65.4882 84.1054 67.7451 85.4978 67.9616C86.8887 68.1774 88.149 67.1013 88.9594 65.9493C89.7712 64.8001 90.403 63.4562 91.5656 62.6641C93.4099 61.4039 95.8882 61.9451 98.0417 62.5348L98.1865 62.3985H98.1886Z" fill="#CE8320"/>
<path d="M117.598 50.7251C118.546 52.0718 117.781 53.9463 116.162 54.245L115.814 54.3041C113.476 54.6801 111.104 54.8361 108.738 54.7694C111.002 52.3227 114.268 50.8319 117.599 50.7251H117.598Z" fill="#CE8320"/>
<path d="M109.066 93.2706L97.8965 84.7104L109.962 89.4077L109.066 93.2706Z" fill="#C79877"/>
<path d="M87.5544 40.0188C90.777 42.5899 92.5278 46.8239 92.0682 50.9202C91.9627 51.8486 91.7631 53.0098 90.9429 53.5896C90.0137 54.2454 88.7774 53.8335 87.9607 53.196C87.5115 52.8425 87.125 52.413 86.7524 51.9787C86.3687 51.5281 86.0053 51.0586 85.7017 50.549C85.4086 50.0556 85.1682 49.5243 85.0726 48.9543C84.9939 48.4819 84.9925 47.7959 85.3109 47.3995C85.6574 46.9729 86.3827 47.5366 86.7152 47.7538C87.139 48.0314 87.5312 48.3526 87.8911 48.7125C88.6045 49.4273 89.1836 50.2869 89.5618 51.2245C89.9645 52.2275 90.1859 53.352 90.0299 54.4309C89.8724 55.5098 89.287 56.4404 88.3697 57.0315C86.4432 58.2756 83.8271 57.7751 82.0419 56.4966C81.3004 55.9674 80.5954 55.041 81.067 54.1069C81.2413 53.759 81.5667 53.423 81.9807 53.4097C82.5142 53.3914 82.9289 53.894 83.2634 54.2433C84.6396 55.6834 86.2864 58.045 84.8835 59.9983C84.2699 60.853 83.2459 61.3632 82.2605 61.65C81.1605 61.967 79.9818 62.019 78.8579 61.7969C78.3006 61.6859 77.7579 61.5116 77.2427 61.2726C76.9497 61.1341 76.6896 61.5713 76.9869 61.7097C79.2403 62.7605 82.1586 62.7289 84.2496 61.2859C85.2125 60.6217 85.8907 59.6286 85.9217 58.4337C85.9547 57.203 85.3432 56.0335 84.627 55.0719C84.2496 54.5631 83.8314 54.0858 83.3808 53.6388C82.9844 53.2445 82.4994 52.8516 81.9034 52.9064C80.8702 52.9999 80.2369 54.1948 80.4478 55.1436C80.6994 56.2879 81.7825 57.0301 82.7729 57.5045C83.9797 58.083 85.3313 58.3916 86.6688 58.1983C87.7807 58.0387 88.873 57.4877 89.6018 56.6211C90.427 55.6392 90.6821 54.3452 90.5486 53.0899C90.3047 50.7951 88.9805 48.6738 87.0765 47.3848C86.6294 47.0818 86.0229 46.6419 85.4564 46.7487C84.84 46.8619 84.6242 47.5528 84.5546 48.0926C84.388 49.3915 85.0677 50.6299 85.8261 51.6315C86.5676 52.6127 87.4448 53.6782 88.6087 54.1645C89.7136 54.6284 91.0167 54.4689 91.7673 53.4715C92.4379 52.5768 92.5714 51.3292 92.6305 50.2475C92.6916 49.1061 92.5876 47.9541 92.3395 46.838C91.8397 44.5965 90.7355 42.4824 89.1625 40.8074C88.7746 40.3942 88.3557 40.0118 87.9129 39.6583C87.6605 39.4558 87.2986 39.8129 87.5544 40.0167V40.0188Z" fill="#935B18"/>
<path d="M96.4077 32.9255C95.5439 32.1805 94.7026 31.3912 93.7959 30.6989C93.0586 30.1359 92.1161 29.698 91.2052 30.1253C90.5332 30.4416 90.1692 31.1613 90.0187 31.8544C89.8339 32.7076 89.9267 33.5743 90.0932 34.4226C90.3238 35.5971 90.7518 36.7308 91.3415 37.7731C91.4737 37.6691 91.6065 37.5665 91.7386 37.4653C90.1108 35.5507 88.1013 33.3212 85.3412 33.5321C84.2504 33.615 83.1623 34.0627 82.4974 34.9589C81.6533 36.0947 81.8297 37.5953 82.3386 38.831C82.9838 40.3962 84.0402 41.8272 85.1718 43.0762C85.3356 43.2569 85.6877 43.0671 85.5956 42.8295C84.5463 40.1123 80.8401 39.8375 78.4834 40.7723C77.1887 41.2847 75.9159 42.2405 75.5954 43.6688C75.2088 45.395 76.3003 47.0755 77.3089 48.3793C78.3836 49.7675 79.8238 51.0087 81.6463 51.1408C81.9731 51.1647 81.9703 50.658 81.6463 50.6341C80.1864 50.5272 78.986 49.5756 78.0638 48.5044C77.5746 47.9407 77.1388 47.3201 76.7635 46.6728C76.3559 45.9713 76.0143 45.1883 76.022 44.3618C76.0353 42.994 77.0798 41.9938 78.2367 41.4294C79.3817 40.8735 80.7164 40.6696 81.9752 40.8531C83.2643 41.0415 84.6095 41.6775 85.1057 42.9638C85.247 42.8808 85.3883 42.7979 85.5296 42.7171C84.5856 41.6747 83.7338 40.5171 83.0921 39.2639C82.5185 38.1442 82.0771 36.709 82.7322 35.5254C83.2172 34.6524 84.1843 34.1787 85.1472 34.0571C86.2711 33.9187 87.3401 34.2441 88.2862 34.8443C89.5049 35.6147 90.4552 36.7364 91.3795 37.8244C91.5699 38.0487 91.9158 37.7619 91.778 37.5166C91.3085 36.6844 90.95 35.7995 90.7139 34.8738C90.5107 34.0768 90.3603 33.2369 90.4405 32.4124C90.4995 31.8059 90.697 31.0967 91.2087 30.7122C91.9115 30.183 92.7697 30.5787 93.3967 31.0306C93.8381 31.349 94.2394 31.7243 94.6513 32.08C95.118 32.4813 95.5833 32.8827 96.0486 33.284C96.2953 33.4963 96.6551 33.1392 96.407 32.9255H96.4077Z" fill="#935B18"/>
<path d="M106.122 30.6255C106.646 31.4485 107.212 32.3573 107.249 33.3603C107.28 34.1257 106.965 34.9973 106.242 35.3564C105.784 35.5834 105.239 35.5448 104.746 35.4991C104.276 35.4577 103.804 35.3881 103.348 35.27C102.493 35.0472 101.622 34.6262 101.119 33.8699C100.625 33.1256 100.458 32.1289 100.987 31.3607L100.641 31.4513C101.531 32.0937 102.017 33.2113 101.966 34.2979C101.913 35.4394 101.197 36.4192 100.196 36.9344C99.6329 37.2232 99.0038 37.3413 98.3748 37.2766C98.0508 37.2436 98.0536 37.7511 98.3748 37.7834C99.6575 37.9156 100.959 37.3111 101.743 36.2982C102.535 35.2742 102.678 33.8853 102.199 32.6905C101.928 32.0157 101.488 31.4408 100.899 31.0142L100.552 31.1048C100.001 31.9047 100.07 32.9477 100.488 33.7891C100.946 34.7161 101.831 35.3051 102.787 35.6305C103.309 35.8105 103.856 35.9075 104.404 35.9728C104.96 36.0382 105.547 36.0965 106.093 35.9504C107.059 35.6945 107.621 34.7759 107.736 33.8305C107.892 32.5668 107.215 31.3944 106.564 30.3717C106.389 30.0969 105.949 30.3507 106.124 30.6262L106.122 30.6255Z" fill="#935B18"/>
<path d="M81.5673 65.7262C81.2342 65.4226 80.7605 65.4275 80.383 65.6553C79.9592 65.9118 79.7694 66.3792 79.7884 66.8621C79.8074 67.4272 80.0499 67.9726 80.2881 68.4766C80.5067 68.9383 80.7668 69.379 81.062 69.7951C81.6657 70.6484 82.4073 71.3941 83.2591 71.9993C83.6429 72.2741 84.1595 72.7007 84.6634 72.5538C85.1477 72.4126 85.3368 71.8348 85.3276 71.3836C85.3073 70.4544 84.57 69.637 83.6956 69.3959C82.7622 69.1387 81.7901 69.6046 81.2145 70.3398C80.5812 71.153 80.4674 72.2263 80.8012 73.1892C81.1548 74.2077 81.9188 75.0061 82.855 75.5199C83.9086 76.0984 85.2482 76.4519 86.4508 76.2839C87.5655 76.1279 88.6044 75.3519 88.7218 74.1732C88.7541 73.8492 88.2459 73.8513 88.2136 74.1732C88.1335 74.9703 87.4151 75.5382 86.6842 75.7237C85.7838 75.9529 84.7892 75.7476 83.9289 75.4454C83.1186 75.1614 82.3356 74.6898 81.8049 74.0003C81.296 73.3361 80.9959 72.4484 81.1667 71.6127C81.3157 70.8873 81.8358 70.2211 82.5359 69.9512C83.2556 69.6763 84.0491 69.9223 84.5102 70.5394C84.7267 70.8304 84.8553 71.1959 84.8132 71.5579C84.7928 71.7209 84.7344 71.9367 84.5903 72.0309C84.4027 72.1567 84.1785 71.9922 84.0161 71.8924C83.2943 71.4538 82.6455 70.9014 82.0825 70.2723C81.4493 69.5589 80.9277 68.7366 80.5658 67.8552C80.3844 67.4187 80.1574 66.8389 80.3774 66.3778C80.5067 66.1058 80.9425 65.8443 81.2082 66.0868C81.45 66.3068 81.8098 65.9484 81.568 65.727L81.5673 65.7262Z" fill="#935B18"/>
<path d="M88.7666 82.2177C89.0836 84.0563 88.6169 86.0096 87.5001 87.5053C87.0067 88.1639 86.2623 88.8266 85.3774 88.6945C85.0042 88.6383 84.6479 88.4408 84.4757 88.0943C84.2648 87.6662 84.3477 87.1447 84.4799 86.7075C84.7575 85.7783 85.4034 84.9918 86.2462 84.5167L85.8997 84.426C86.353 85.3475 86.0768 86.4489 85.4808 87.2382C84.7821 88.1638 83.6358 88.5849 82.5091 88.6446C81.8104 88.6819 81.1174 88.5982 80.4398 88.4352C80.1222 88.3578 79.9865 88.847 80.3035 88.9243C81.6249 89.2406 83.0622 89.2884 84.3316 88.7416C85.44 88.2651 86.3101 87.2804 86.5625 86.0883C86.6995 85.4353 86.6334 84.7712 86.3375 84.1695C86.2764 84.0458 86.1028 84.0149 85.991 84.0788C85.1068 84.5751 84.4272 85.3798 84.0722 86.3294C83.7271 87.2565 83.699 88.5104 84.7231 89.0122C85.6501 89.467 86.6602 89.0916 87.3658 88.4197C88.1298 87.6929 88.6654 86.6998 88.995 85.708C89.3802 84.5399 89.4646 83.2909 89.2565 82.0813C89.2003 81.7601 88.7125 81.8965 88.7673 82.2163L88.7666 82.2177Z" fill="#CE8320"/>
<path d="M77.2345 34.3066C75.6116 33.3964 73.7033 34.3291 72.6954 35.713C71.4275 37.4582 71.8703 39.7545 72.822 41.5369C73.0968 42.05 73.4145 42.5385 73.761 43.0038C74.0674 43.4171 74.3774 43.8613 74.804 44.1593C75.1892 44.4285 75.7304 44.5515 76.0867 44.1635C76.4058 43.8198 76.3095 43.2793 76.0664 42.9222C75.528 42.1231 74.4716 41.9874 73.6 42.1807C72.6603 42.3902 71.8457 42.9342 71.1548 43.585C69.7519 44.905 68.8255 46.7226 68.5198 48.6196C68.3665 49.5769 68.3623 50.5475 68.5275 51.502C68.6772 52.3673 68.9527 53.6064 69.9037 53.9178C70.2917 54.0457 70.7654 53.9888 71.0775 53.7139C71.3839 53.4448 71.4704 52.9886 71.2841 52.6273C70.8989 51.8858 69.8453 51.7712 69.1256 51.9582C67.514 52.3785 66.3774 53.7997 65.9255 55.353C65.4279 57.0687 65.7765 58.8638 66.8603 60.2793C68.0341 61.8116 69.8439 62.7745 71.715 63.1512C72.1774 63.2433 72.6469 63.3023 73.1193 63.3276C73.4461 63.3438 73.444 62.8363 73.1193 62.8195C70.0302 62.6557 66.362 60.642 66.2081 57.1966C66.1469 55.7951 66.6551 54.3296 67.6763 53.3484C68.1697 52.8747 68.7897 52.5282 69.4644 52.4003C69.8004 52.3363 70.1722 52.3869 70.4751 52.5472C70.6979 52.6632 70.9446 52.867 70.8603 53.1467C70.7661 53.4693 70.343 53.5256 70.0646 53.4377C69.6781 53.314 69.4503 52.8923 69.3182 52.5381C69.0272 51.7544 68.9098 50.8941 68.9098 50.0619C68.907 48.3736 69.4264 46.6952 70.3676 45.2937C71.2314 44.0109 72.6462 42.6207 74.298 42.6031C74.674 42.5996 75.0514 42.6861 75.3579 42.911C75.5814 43.0747 75.9553 43.5084 75.7283 43.8057C75.4647 44.1508 74.9095 43.6167 74.7351 43.4191C74.4182 43.0621 74.1314 42.6685 73.8629 42.2742C72.8416 40.7651 71.975 38.7494 72.623 36.9198C73.1031 35.5661 74.5123 34.3614 76.0017 34.4492C76.3468 34.4703 76.6792 34.5758 76.9787 34.7452C77.264 34.904 77.5206 34.4661 77.2352 34.3066H77.2345Z" fill="#CE8320"/>
<path d="M120.047 39.6919C121.055 38.5118 121.388 36.9536 121.402 35.4361C121.418 33.9777 121.178 32.4883 120.626 31.1332C120.082 29.7943 119.229 28.5811 118.031 27.7504C117.395 27.3076 116.641 26.992 115.856 26.9969C115.119 27.0004 114.396 27.2752 113.8 27.7047C112.303 28.7856 111.764 30.6075 111.541 32.3604C111.512 32.6029 111.828 32.6605 111.974 32.5389C113.175 31.5521 113.433 29.8639 113.561 28.4054C113.634 27.5388 113.611 26.6441 113.259 25.8337C113.015 25.2707 112.622 24.7857 112.138 24.4097C109.928 22.6961 106.537 23.212 104.507 24.9481C103.142 26.1134 102.384 28.0709 103.063 29.8055C103.179 30.107 103.671 29.9763 103.553 29.6713C103 28.2606 103.492 26.6792 104.525 25.6242C105.455 24.6747 106.789 24.0533 108.109 23.9092C109.244 23.7834 110.455 23.957 111.449 24.5509C111.915 24.8293 112.324 25.2074 112.608 25.6734C112.995 26.3123 113.102 27.0524 113.087 27.7897C113.069 28.6071 112.967 29.4499 112.754 30.2406C112.556 30.9842 112.22 31.6836 111.614 32.1805C111.759 32.2409 111.903 32.3 112.048 32.3604C112.229 30.9378 112.633 29.4204 113.725 28.4153C114.216 27.9633 114.838 27.6217 115.505 27.5282C116.227 27.427 116.926 27.6562 117.535 28.0308C119.834 29.4499 120.792 32.3253 120.886 34.8977C120.942 36.4391 120.721 38.1196 119.685 39.3328C119.474 39.5795 119.832 39.9407 120.045 39.6912L120.047 39.6919Z" fill="#CE8320"/>
<path d="M19.5833 216.615C15.4364 216.853 11.291 217.088 7.1434 217.325C5.96611 217.392 4.79022 217.459 3.61293 217.527C3.33952 217.543 3.10547 217.748 3.10547 218.034C3.10547 218.296 3.33882 218.556 3.61293 218.541C7.7591 218.305 11.9067 218.067 16.0535 217.83C17.2294 217.764 18.4067 217.697 19.5833 217.629C19.8567 217.612 20.0915 217.407 20.0915 217.121C20.0915 216.86 19.8581 216.6 19.5833 216.614V216.615Z" fill="#93674A"/>
<path d="M18.0006 211.22C18.5952 214.145 19.1905 217.072 19.7851 219.997C19.9545 220.827 20.1225 221.655 20.2905 222.483C20.3453 222.75 20.6637 222.905 20.9146 222.835C21.1929 222.759 21.3237 222.483 21.2689 222.213C20.6742 219.286 20.0782 216.36 19.4836 213.434C19.3156 212.607 19.1469 211.777 18.9796 210.949C18.9248 210.681 18.6057 210.526 18.3548 210.596C18.0765 210.672 17.9457 210.949 18.0006 211.22V211.22Z" fill="#93674A"/>
<path d="M37.4094 207.872C38.2669 210.509 39.123 213.148 39.9797 215.786C40.0655 216.048 40.3305 216.217 40.6039 216.141C40.8583 216.07 41.0425 215.777 40.9574 215.517C40.1013 212.879 39.2438 210.241 38.3878 207.603C38.302 207.342 38.037 207.173 37.7636 207.249C37.5092 207.32 37.325 207.61 37.4094 207.873V207.872Z" fill="#93674A"/>
<path d="M57.6721 164.389C55.6668 165.734 54.9548 168.572 56.1132 170.697C56.4266 171.272 57.3024 170.76 56.9889 170.186C56.5489 169.377 56.4597 168.402 56.6783 167.512C56.9025 166.605 57.4233 165.774 58.1838 165.266C58.4108 165.113 58.5106 164.819 58.3665 164.572C58.233 164.347 57.8998 164.237 57.6721 164.389V164.389Z" fill="#93674A"/>
<path d="M168.909 91.409C168.245 91.2902 167.58 91.1728 166.914 91.0554C166.778 91.0315 166.649 91.0343 166.523 91.1074C166.418 91.1679 166.318 91.2888 166.29 91.4104C166.234 91.6585 166.366 91.9846 166.644 92.0345C167.309 92.1533 167.973 92.2706 168.639 92.3866C168.776 92.4119 168.905 92.4091 169.029 92.336C169.135 92.2749 169.234 92.1547 169.262 92.0331C169.319 91.785 169.188 91.4589 168.908 91.409H168.909Z" fill="#93674A"/>
<path d="M181.857 175.996C181.215 180.699 180.132 185.34 178.626 189.843C178.204 191.108 177.746 192.36 177.258 193.601C177.157 193.855 177.367 194.158 177.613 194.225C177.899 194.304 178.136 194.127 178.235 193.871C179.975 189.453 181.302 184.876 182.19 180.213C182.441 178.903 182.655 177.586 182.835 176.265C182.872 175.994 182.77 175.719 182.481 175.641C182.243 175.576 181.895 175.721 181.857 175.995L181.857 175.996Z" fill="#4972B2"/>
<path d="M178.924 176.431C178.952 180.931 178.756 185.431 178.336 189.91C178.214 191.19 178.076 192.467 177.918 193.744C177.886 194.017 178.177 194.252 178.427 194.252C178.73 194.252 178.9 194.017 178.935 193.744C179.482 189.277 179.808 184.786 179.908 180.286C179.938 179.001 179.947 177.716 179.939 176.431C179.936 175.777 178.921 175.777 178.925 176.431H178.924Z" fill="#4972B2"/>
<path d="M83.0863 223.61C85.5905 220.942 87.9276 218.117 90.0818 215.16C90.6849 214.333 91.2725 213.497 91.8446 212.652C91.6141 212.713 91.3821 212.774 91.1516 212.834C93.9089 214.476 96.669 216.119 99.4277 217.763C100.749 218.55 102.099 219.304 103.393 220.136C103.92 220.476 104.423 220.852 104.84 221.326C105.274 221.819 105.535 222.42 105.714 223.045C105.942 223.845 106.08 224.675 106.227 225.493C106.386 226.382 106.528 227.272 106.653 228.164C106.69 228.438 107.037 228.585 107.277 228.519C107.569 228.44 107.67 228.166 107.632 227.894C107.412 226.326 107.172 224.744 106.804 223.201C106.634 222.492 106.396 221.775 105.989 221.164C105.597 220.578 105.087 220.107 104.526 219.688C103.977 219.278 103.382 218.936 102.794 218.586C102.084 218.163 101.373 217.739 100.664 217.316C99.2534 216.477 97.8442 215.637 96.435 214.798C94.8458 213.85 93.2538 212.903 91.664 211.957C91.4159 211.81 91.1228 211.913 90.9695 212.14C88.9657 215.098 86.7826 217.931 84.428 220.62C83.7547 221.389 83.068 222.146 82.3679 222.891C81.9209 223.368 82.6371 224.086 83.0863 223.61Z" fill="#4972B2"/>
<path d="M101.961 193.158C103.666 194.112 105.523 194.632 107.482 194.607C109.37 194.583 111.229 194.14 113.066 193.749C117.629 192.777 122.268 192.179 126.845 191.263C131.498 190.331 136.12 189.201 140.601 187.63C144.728 186.185 148.69 184.326 152.637 182.455C160.42 178.77 168.512 174.879 177.308 174.819C186.635 174.757 195.574 178.655 203.741 182.797C211.809 186.886 219.469 191.795 226.542 197.435C227.432 198.143 228.309 198.865 229.18 199.594C229.678 200.012 230.4 199.297 229.898 198.877C222.985 193.08 215.505 187.968 207.572 183.664C203.605 181.508 199.526 179.525 195.342 177.825C191.037 176.075 186.566 174.679 181.945 174.093C177.566 173.537 173.172 173.854 168.893 174.917C164.711 175.952 160.713 177.608 156.802 179.39C152.838 181.198 148.943 183.164 144.931 184.866C140.584 186.712 136.08 188.117 131.49 189.214C126.864 190.319 122.174 191.136 117.483 191.918C115.31 192.28 113.162 192.716 111.001 193.148C109.167 193.515 107.263 193.791 105.405 193.41C104.366 193.196 103.396 192.798 102.472 192.282C101.902 191.962 101.39 192.839 101.959 193.159L101.961 193.158Z" fill="#4972B2"/>
<path d="M232.264 195.625C229.929 197.993 227.594 200.36 225.258 202.727C222.934 205.084 220.609 207.442 218.284 209.799C217.686 210.404 217.105 211.032 216.473 211.601C215.934 212.086 215.335 212.498 214.618 212.653C214.349 212.711 214.193 213.025 214.263 213.276C214.34 213.554 214.618 213.689 214.887 213.631C216.338 213.32 217.381 212.16 218.379 211.149C219.556 209.954 220.733 208.762 221.909 207.567C224.265 205.18 226.62 202.792 228.974 200.405C230.31 199.052 231.645 197.698 232.981 196.343C233.441 195.879 232.724 195.16 232.264 195.625V195.625Z" fill="#4972B2"/>
<path d="M156.19 200.277C155.321 200.859 154.45 201.441 153.579 202.022C153.359 202.169 153.242 202.475 153.398 202.716C153.539 202.935 153.855 203.055 154.091 202.897C154.961 202.317 155.832 201.736 156.702 201.154C156.922 201.006 157.038 200.699 156.884 200.46C156.742 200.24 156.426 200.119 156.189 200.277H156.19Z" fill="#4972B2"/>
<path d="M151.638 198.161C150.762 198.42 149.885 198.681 149.009 198.941C148.754 199.017 148.567 199.3 148.655 199.565C148.737 199.823 149.007 199.999 149.279 199.919C150.156 199.659 151.032 199.397 151.907 199.137C152.162 199.061 152.347 198.778 152.262 198.513C152.179 198.256 151.91 198.078 151.638 198.16V198.161Z" fill="#4972B2"/>
<path d="M145.132 200.837C143.442 201.033 141.903 202.001 141.049 203.486C140.911 203.723 140.994 204.043 141.232 204.179C141.467 204.318 141.789 204.237 141.926 203.998C142.117 203.664 142.275 203.451 142.528 203.184C142.648 203.059 142.773 202.941 142.905 202.83C143.044 202.712 143.112 202.664 143.284 202.552C143.427 202.455 143.577 202.368 143.731 202.289C143.908 202.197 144.002 202.155 144.158 202.098C144.329 202.034 144.502 201.98 144.679 201.938L144.918 201.886L145.053 201.862L145.133 201.852C145.405 201.821 145.641 201.641 145.641 201.344C145.641 201.095 145.408 200.805 145.133 200.837H145.132Z" fill="#4972B2"/>
<path d="M142.159 208.719C141.402 208.117 140.449 207.789 139.478 207.886C139.215 207.912 138.958 208.1 138.971 208.393C138.982 208.646 139.195 208.929 139.478 208.899C139.68 208.881 139.886 208.878 140.088 208.897L140.164 208.904L140.143 208.9L140.255 208.921L140.552 208.992L140.843 209.089L140.861 209.097L140.999 209.163L141.264 209.315L141.39 209.399L141.453 209.442L141.441 209.434C141.55 209.521 141.653 209.582 141.798 209.582C141.924 209.582 142.072 209.528 142.158 209.434C142.326 209.251 142.379 208.893 142.158 208.717L142.159 208.719Z" fill="#4972B2"/>
<path d="M147.803 173.246C147.052 173.258 146.325 173.558 145.785 174.079C145.594 174.263 145.586 174.613 145.785 174.796C145.991 174.986 146.298 174.994 146.503 174.796L146.665 174.653L146.625 174.682L146.67 174.651L146.758 174.589C146.88 174.509 147.008 174.443 147.14 174.386L147.018 174.438C147.22 174.353 147.427 174.295 147.642 174.265L147.509 174.283L147.803 174.261C148.068 174.258 148.325 174.031 148.312 173.754C148.3 173.482 148.089 173.242 147.803 173.246L147.803 173.246Z" fill="#4972B2"/>
<path d="M141.346 178.958C140.57 179.081 139.794 179.203 139.019 179.325C138.757 179.365 138.587 179.707 138.666 179.948C138.758 180.233 139.009 180.346 139.29 180.302C140.066 180.18 140.841 180.058 141.616 179.938C141.879 179.895 142.048 179.553 141.97 179.312C141.878 179.028 141.627 178.914 141.346 178.957V178.958Z" fill="#4972B2"/>
<path d="M162.117 163.538C161.006 163.645 159.896 163.753 158.785 163.86C158.521 163.887 158.264 164.075 158.278 164.368C158.288 164.62 158.501 164.902 158.785 164.876C159.895 164.768 161.006 164.659 162.117 164.553C162.38 164.526 162.636 164.337 162.622 164.045C162.613 163.791 162.399 163.509 162.117 163.538Z" fill="#4972B2"/>
<path d="M175.111 160.938C174.555 160.938 174.001 160.938 173.446 160.938C173.18 160.938 172.926 161.171 172.938 161.444C172.951 161.72 173.161 161.952 173.446 161.952C174.001 161.952 174.555 161.952 175.111 161.952C175.375 161.952 175.63 161.719 175.618 161.444C175.606 161.17 175.395 160.938 175.111 160.938Z" fill="#4972B2"/>
<path d="M113.317 118.802L118.225 116.831C119.585 116.284 120.245 114.739 119.698 113.378L119.673 113.312C119.125 111.951 117.58 111.291 116.221 111.837L111.312 113.808C109.953 114.355 109.292 115.899 109.838 117.26L109.864 117.327C110.411 118.687 111.956 119.347 113.317 118.802V118.802Z" fill="#4B74B4"/>
<path d="M101.775 136.435L106.682 134.464C108.044 133.918 108.704 132.373 108.157 131.011L108.13 130.945C107.583 129.585 106.038 128.926 104.679 129.471L99.7695 131.441C98.4095 131.988 97.7495 133.532 98.2949 134.893L98.323 134.96C98.8685 136.321 100.414 136.981 101.775 136.436V136.435Z" fill="#4B74B4"/>
<path d="M78.2968 125.656L83.2049 123.685C84.5663 123.139 85.2263 121.595 84.6795 120.233L84.6528 120.166C84.1074 118.806 82.5625 118.146 81.201 118.693L76.293 120.664C74.9329 121.209 74.2729 122.755 74.8184 124.115L74.8451 124.182C75.3919 125.543 76.9368 126.203 78.2968 125.656V125.656Z" fill="#4B74B4"/>
<path d="M86.7767 106.907L91.6834 104.938C93.0448 104.391 93.7048 102.846 93.1594 101.486L93.1313 101.419C92.5858 100.058 91.0403 99.3978 89.6795 99.9446L84.7729 101.915C83.4114 102.46 82.7514 104.006 83.2969 105.367L83.325 105.434C83.8704 106.794 85.416 107.454 86.7774 106.908L86.7767 106.907Z" fill="#4B74B4"/>
<path d="M80.5751 154.958L85.4831 152.989C86.8439 152.44 87.5046 150.895 86.9563 149.537L86.931 149.47C86.3842 148.109 84.8393 147.449 83.4786 147.995L78.5691 149.965C77.2091 150.512 76.5505 152.057 77.0959 153.417L77.1226 153.485C77.6694 154.843 79.215 155.504 80.5751 154.958V154.958Z" fill="#4B74B4"/>
<path d="M72.261 180.718L77.1691 178.748C78.5291 178.201 79.1891 176.655 78.6437 175.295L78.6169 175.228C78.0701 173.869 76.5245 173.209 75.1645 173.754L70.2564 175.724C68.8964 176.272 68.235 177.817 68.7818 179.176L68.8085 179.244C69.354 180.604 70.9002 181.264 72.261 180.718V180.718Z" fill="#4B74B4"/>
<path d="M104.33 171.247L109.237 169.277C110.598 168.731 111.258 167.186 110.712 165.826L110.685 165.76C110.138 164.398 108.593 163.738 107.232 164.284L102.324 166.255C100.963 166.8 100.304 168.345 100.85 169.707L100.876 169.774C101.423 171.134 102.968 171.794 104.33 171.247H104.33Z" fill="#4B74B4"/>
<path d="M87.6146 192.186L92.5213 190.217C93.8827 189.671 94.5427 188.125 93.9959 186.765L93.9691 186.698C93.4237 185.338 91.8781 184.677 90.5174 185.224L85.6108 187.195C84.2493 187.739 83.5893 189.285 84.1347 190.646L84.1629 190.713C84.7083 192.074 86.2539 192.734 87.6153 192.187L87.6146 192.186Z" fill="#4B74B4"/>
<path d="M129.054 138.308L133.962 136.337C135.322 135.791 135.982 134.247 135.437 132.886L135.409 132.819C134.863 131.458 133.318 130.798 131.956 131.345L127.05 133.315C125.688 133.861 125.028 135.406 125.575 136.768L125.602 136.833C126.149 138.194 127.692 138.855 129.053 138.308H129.054Z" fill="#4B74B4"/>
<path d="M138.215 117.489C138.178 122.946 138.139 128.407 138.102 133.865C138.066 139.325 138.028 144.784 137.99 150.243C137.969 153.31 137.949 156.376 137.928 159.444C137.922 160.098 138.938 160.098 138.943 159.444C138.98 153.985 139.017 148.526 139.054 143.066C139.092 137.607 139.129 132.149 139.168 126.689C139.188 123.623 139.209 120.555 139.23 117.489C139.233 116.834 138.219 116.833 138.215 117.489V117.489Z" fill="#4C75B5"/>
<path d="M119.833 154.241C117.157 152.242 114.481 150.243 111.805 148.244C109.128 146.245 106.453 144.245 103.777 142.246C102.264 141.116 100.75 139.987 99.2372 138.856C99.0172 138.692 98.6707 138.821 98.5441 139.038C98.3923 139.297 98.5055 139.568 98.7255 139.732C101.401 141.731 104.077 143.731 106.754 145.73C109.43 147.729 112.107 149.727 114.783 151.727C116.295 152.857 117.808 153.988 119.321 155.118C119.541 155.281 119.888 155.154 120.015 154.936C120.167 154.677 120.054 154.406 119.834 154.242L119.833 154.241Z" fill="#4C75B5"/>
<path d="M119.074 154.691C114.386 152.851 109.697 151.011 105.009 149.17C103.673 148.647 102.337 148.122 101.001 147.598C100.746 147.498 100.445 147.709 100.377 147.953C100.297 148.241 100.475 148.476 100.731 148.577C105.419 150.417 110.109 152.256 114.797 154.098C116.133 154.621 117.468 155.146 118.804 155.669C119.061 155.77 119.362 155.56 119.428 155.316C119.509 155.028 119.331 154.792 119.074 154.692V154.691Z" fill="#4C75B5"/>
<path d="M99.2287 183.165C97.8131 185.089 96.3849 187.004 94.9004 188.877C93.3963 190.777 91.8367 192.639 90.1835 194.417C88.5585 196.165 86.8422 197.831 85.0021 199.354C83.2231 200.827 81.317 202.157 79.2871 203.268C77.246 204.384 75.1058 205.253 72.8475 205.833C72.5678 205.906 72.2845 205.974 72.0006 206.038C71.7328 206.099 71.5753 206.407 71.6456 206.663C71.7215 206.937 72.002 207.076 72.2698 207.016C74.5927 206.497 76.8391 205.664 78.9589 204.585C81.0871 203.504 83.0734 202.174 84.9458 200.697C86.8309 199.209 88.5874 197.561 90.2468 195.826C91.9456 194.051 93.5432 192.182 95.0818 190.267C96.6217 188.35 98.1034 186.386 99.5646 184.41C99.7453 184.166 99.9245 183.922 100.104 183.678C100.267 183.457 100.142 183.111 99.9217 182.983C99.6658 182.833 99.391 182.943 99.2279 183.165L99.2287 183.165Z" fill="#4C75B5"/>
<path d="M86.3298 142.282C87.4059 145.125 88.482 147.966 89.5595 150.809C90.6342 153.651 91.7109 156.494 92.787 159.334C93.395 160.941 94.003 162.546 94.6109 164.152C94.7072 164.408 94.9539 164.583 95.2337 164.505C95.4804 164.438 95.6856 164.14 95.5879 163.882C94.5118 161.04 93.4358 158.197 92.3597 155.354C91.2843 152.513 90.2082 149.67 89.1307 146.829C88.5228 145.222 87.9162 143.616 87.3082 142.013C87.2105 141.757 86.9652 141.58 86.6827 141.658C86.4388 141.725 86.2321 142.025 86.3291 142.282H86.3298Z" fill="#4C75B5"/>
<path d="M87.5064 154.327C88.4813 157.044 89.4555 159.762 90.4317 162.479C90.7129 163.262 90.9933 164.042 91.2745 164.825C91.3665 165.083 91.6196 165.255 91.8986 165.178C92.1481 165.11 92.3456 164.814 92.2536 164.554C91.2773 161.837 90.3017 159.119 89.3269 156.402C89.0471 155.619 88.7653 154.838 88.4841 154.055C88.392 153.798 88.139 153.625 87.86 153.703C87.6119 153.771 87.4116 154.067 87.5064 154.327V154.327Z" fill="#4C75B5"/>
<path d="M85.7404 164.377C87.014 166.61 87.9017 169.043 88.3803 171.567C88.4316 171.837 88.7549 171.991 89.0045 171.924C89.287 171.845 89.41 171.569 89.3594 171.298C88.8646 168.691 87.9312 166.171 86.6183 163.865C86.2928 163.297 85.4171 163.808 85.7404 164.377Z" fill="#4C75B5"/>
<path d="M90.4074 121.748C90.8523 122.636 91.2965 123.524 91.7407 124.412C91.8609 124.65 92.2173 124.735 92.4373 124.595C92.6798 124.437 92.7451 124.155 92.6186 123.899C92.1744 123.012 91.7302 122.124 91.2853 121.237C91.1665 120.998 90.8109 120.913 90.5909 121.054C90.347 121.213 90.283 121.495 90.4081 121.748L90.4074 121.748Z" fill="#4C75B5"/>
<path d="M87.137 129.2C88.2236 130.468 88.4745 132.393 87.7674 133.886C87.6501 134.135 87.6979 134.435 87.9502 134.581C88.1702 134.71 88.5244 134.648 88.6432 134.398C89.5618 132.459 89.2505 130.111 87.8539 128.482C87.6768 128.274 87.3204 128.299 87.1363 128.482C86.931 128.689 86.9577 128.992 87.1363 129.2H87.137Z" fill="#4C75B5"/>
<path d="M100.914 110.324C101.167 111.427 101.42 112.529 101.672 113.632C101.733 113.9 102.04 114.057 102.296 113.988C102.57 113.913 102.712 113.631 102.65 113.363C102.399 112.26 102.147 111.157 101.895 110.054C101.834 109.786 101.526 109.629 101.271 109.7C100.996 109.776 100.853 110.056 100.914 110.324V110.324Z" fill="#4C75B5"/>
<path d="M96.4292 112.941C96.8691 114.274 97.3091 115.608 97.7477 116.941C97.8342 117.201 98.0977 117.37 98.3719 117.294C98.6263 117.225 98.8133 116.932 98.7282 116.67C98.2882 115.336 97.8468 114.003 97.4082 112.67C97.3225 112.409 97.0589 112.24 96.7855 112.315C96.529 112.386 96.3441 112.678 96.4292 112.94V112.941Z" fill="#4C75B5"/>
<path d="M132.311 148.79C132.311 149.457 132.311 150.121 132.311 150.788C132.311 151.053 132.544 151.309 132.819 151.295C133.094 151.283 133.327 151.073 133.327 150.788C133.327 150.121 133.327 149.457 133.327 148.79C133.327 148.525 133.092 148.272 132.819 148.282C132.544 148.295 132.311 148.506 132.311 148.79Z" fill="#4C75B5"/>
<path d="M128.483 150.875C128.706 151.54 128.93 152.205 129.152 152.872C129.235 153.122 129.505 153.313 129.776 153.225C130.025 153.146 130.22 152.871 130.13 152.601C129.907 151.936 129.685 151.271 129.462 150.604C129.378 150.353 129.108 150.162 128.839 150.25C128.588 150.331 128.394 150.605 128.483 150.875V150.875Z" fill="#4C75B5"/>
<path d="M53.5967 214.964C50.2778 213.852 41.9763 209.267 39.3687 202.909C39.2703 202.667 41.2896 198.309 41.9763 197.366C44.6205 204.223 49.6551 208.374 56.4566 211.163L53.5967 214.964Z" fill="#935B18"/>
<path d="M40.6626 203.56C38.8479 206.11 39.4467 209.651 41.9974 211.464C44.5494 213.279 48.0883 212.681 49.9017 210.129C51.7165 207.579 51.1191 204.041 48.5684 202.225C46.0163 200.41 42.4774 201.008 40.6633 203.56H40.6626Z" fill="#7F9DCF"/>
<path d="M42.1674 204.629C40.943 206.35 41.3457 208.737 43.067 209.96C44.7869 211.184 47.1738 210.78 48.3975 209.06C49.6219 207.339 49.2177 204.952 47.4978 203.729C45.7765 202.506 43.3896 202.91 42.1674 204.629Z" fill="white"/>
<path d="M46.0497 205.373C45.595 206.012 45.1402 206.651 44.6855 207.289C44.9174 207.228 45.1494 207.168 45.3813 207.108C44.7867 206.686 44.1921 206.263 43.5975 205.84C43.3817 205.686 43.0232 205.794 42.903 206.022C42.766 206.283 42.8538 206.552 43.0858 206.717C43.679 207.139 44.275 207.561 44.8689 207.984C45.1065 208.153 45.4158 208.008 45.5634 207.801C46.0167 207.164 46.4714 206.524 46.9262 205.886C47.0808 205.668 46.9719 205.311 46.7435 205.191C46.4834 205.054 46.2156 205.142 46.0504 205.374L46.0497 205.373Z" fill="#141515"/>
<defs>
<linearGradient id="paint0_linear_655_59" x1="36.2692" y1="177.192" x2="334.748" y2="-62.0647" gradientUnits="userSpaceOnUse">
<stop offset="0.232254" stop-color="#005546"/>
<stop offset="1" stop-color="#047460"/>
</linearGradient>
</defs>
</svg>
