<svg width="271" height="271" viewBox="0 0 271 271" fill="none" xmlns="http://www.w3.org/2000/svg">
<circle cx="135.5" cy="135.5" r="135.5" fill="url(#paint0_linear_655_60)"/>
<path d="M238.759 72.4422C237.381 71.4209 233.354 72.2397 229.173 74.4861C224.991 76.7331 222.085 79.6395 222.177 81.3516L222.069 81.41L232.983 101.723L232.991 101.718C233.991 103.154 238.336 102.396 242.862 99.9641C247.388 97.5322 250.419 94.3264 249.774 92.7014L249.783 92.6958L238.868 72.3824L238.759 72.4408L238.759 72.4422Z" fill="#424E7F"/>
<path d="M245.08 88.3097L231.921 95.3791L227.107 86.4204L240.266 79.3511L245.08 88.3097Z" fill="#CBD2EF"/>
<path d="M239.992 72.4619L221.513 82.3898L218.355 76.5104L236.834 66.5825L239.992 72.4619Z" fill="#99A4DD"/>
<path d="M221.198 76.8091C222.274 78.8101 223.35 80.8119 224.423 82.8129C224.579 83.1011 225.018 82.8466 224.862 82.5585C223.787 80.556 222.711 78.5543 221.636 76.5525C221.48 76.2643 221.043 76.5209 221.198 76.8091Z" fill="#424E7F"/>
<path d="M224.092 75.6139C225.167 77.6164 226.243 79.6181 227.318 81.6192C227.472 81.9073 227.912 81.6501 227.756 81.3619C226.682 79.3609 225.605 77.3605 224.529 75.3595C224.375 75.0713 223.938 75.3265 224.092 75.6139Z" fill="#424E7F"/>
<path d="M226.686 73.8604C227.76 75.8607 228.837 77.8632 229.913 79.8642C230.067 80.1524 230.504 79.8965 230.35 79.6084C229.275 77.6073 228.199 75.6056 227.124 73.6031C226.97 73.315 226.53 73.5722 226.686 73.8604Z" fill="#424E7F"/>
<path d="M229.581 72.6664C230.656 74.6674 231.732 76.6692 232.806 78.6717C232.962 78.9598 233.4 78.7026 233.245 78.4158C232.169 76.4148 231.093 74.413 230.02 72.4106C229.863 72.1224 229.425 72.3782 229.581 72.6664Z" fill="#424E7F"/>
<path d="M232.325 70.8353C233.3 72.8877 234.274 74.9407 235.249 76.9931C235.389 77.289 235.826 77.0303 235.687 76.7387C234.711 74.6849 233.738 72.6332 232.762 70.5802C232.624 70.2857 232.186 70.5415 232.325 70.836V70.8353Z" fill="#424E7F"/>
<path d="M235.295 69.7808C236.269 71.8346 237.243 73.8862 238.218 75.9393C238.358 76.2338 238.797 75.9751 238.655 75.6827C237.682 73.6297 236.708 71.5773 235.733 69.5257C235.592 69.2298 235.154 69.487 235.296 69.7801L235.295 69.7808Z" fill="#424E7F"/>
<path d="M118.738 79.8677C115.062 79.1634 111.231 80.6901 108.382 83.117C105.534 85.5433 103.518 88.7877 101.682 92.0475C98.673 97.3879 96.0155 102.925 93.734 108.613C92.3459 112.07 91.0836 115.65 90.9317 119.371C90.7286 124.361 92.5286 129.194 94.3027 133.863C98.7651 145.619 103.228 157.373 107.692 169.128C108.015 169.981 108.36 170.864 109.028 171.485C109.745 172.152 110.735 172.423 111.685 172.654C126.447 176.236 140.697 172.727 155.102 167.914C155.814 167.675 156.57 167.394 157.005 166.78C157.468 166.128 157.45 165.263 157.425 164.465C157.022 151.584 160.599 141.478 164.982 129.362C166.314 125.68 167.879 121.962 167.872 118.046C167.863 113.977 166.152 110.126 164.37 106.468C160.566 98.6629 156.282 91.0923 151.551 83.8107C150.749 82.5744 149.912 81.3254 148.764 80.3984C146.402 78.4908 143.142 78.2504 140.105 78.1668C131.572 77.9278 123.023 78.2603 114.532 79.1613L118.738 79.867V79.8677Z" fill="#821E23"/>
<path d="M126.993 215.465C131.463 216.415 135.932 217.364 140.402 218.314C141.416 218.53 142.484 218.746 143.48 218.448C144.912 218.022 145.865 216.639 147.235 216.046C149.408 215.105 151.981 216.447 153.401 218.341C154.82 220.236 155.449 222.587 156.44 224.739C158.677 229.591 162.708 233.33 166.313 237.275C169.917 241.219 173.308 245.82 173.727 251.147C166.292 247.147 159.601 241.896 152.297 237.662C144.992 233.428 136.742 230.17 128.32 230.758C126.585 230.88 124.816 231.159 123.135 230.724C120.254 229.977 118.161 226.942 118.487 223.986L126.993 215.465Z" fill="#FBC9A4"/>
<path d="M141.763 218.701C143.693 222.364 148.857 222.806 151.794 225.725C153.098 227.021 153.885 228.732 154.806 230.323C156.696 233.584 159.251 236.46 162.27 238.718C163.764 239.837 165.401 240.837 166.52 242.329C167.641 243.82 168.114 246.008 167.047 247.539C168.314 248.766 169.794 249.774 171.401 250.503C171.861 250.711 172.372 250.902 172.864 250.785C174.093 250.494 174.153 248.769 173.846 247.544C172.573 242.473 169.829 237.779 166.037 234.179C163.347 231.627 160.09 229.545 158.19 226.361C156.175 222.984 155.657 218.39 152.282 216.373C149.034 214.435 144.67 216.07 142.085 218.833L141.763 218.701H141.763Z" fill="#B03537"/>
<path d="M158.027 234.525C156.038 235.307 154.553 237.129 154.171 239.229C154.042 239.941 152.935 239.747 153.065 239.035C153.519 236.534 155.289 234.394 157.65 233.467C158.325 233.202 158.7 234.26 158.028 234.526L158.027 234.525Z" fill="#B03537"/>
<path d="M117.41 172.135C97.9752 164.525 76.914 161.107 56.0714 162.182C50.2862 162.479 43.6926 163.61 40.6591 168.544C39.4846 170.455 39.0166 172.735 39.0004 174.976C38.9413 183.987 45.6403 191.483 52.243 197.616C62.5005 207.146 73.8763 215.978 87.2025 220.274C89.5838 221.041 92.0157 221.66 94.3443 222.576C97.427 223.787 100.283 225.502 103.18 227.11C109.512 230.626 116.107 233.669 122.892 236.205C123.57 236.458 124.33 236.704 124.994 236.418C125.491 236.205 125.822 235.735 126.123 235.285C130.166 229.274 133.789 222.98 136.959 216.468C127.797 210.3 119.102 203.435 110.975 195.953C113.276 198.993 116.115 201.791 119.687 203.126C123.258 204.46 127.668 204.046 130.361 201.347C132.476 199.227 133.233 196.09 133.347 193.098C133.512 188.71 132.471 184.284 130.364 180.431C127.646 175.46 122.279 171.233 116.717 172.312L117.411 172.135L117.41 172.135Z" fill="#EFA02A"/>
<path d="M115.798 173.74C129.353 171.599 143.083 170.566 156.807 170.654C157.078 170.655 157.375 170.67 157.569 170.856C157.73 171.009 157.779 171.241 157.819 171.458C159.26 179.112 159.94 187.008 158.617 194.683C157.293 202.358 153.829 209.832 147.998 214.995C142.168 220.159 133.817 222.716 126.309 220.646C120.783 219.125 116.117 215.296 112.579 210.786C109.038 206.275 106.501 201.079 103.992 195.925L115.797 173.739L115.798 173.74Z" fill="#EFA02A"/>
<path d="M146.361 164.385C159.151 158.889 172.194 153.977 185.431 149.677C190.703 147.962 196.097 146.33 201.641 146.265C207.186 146.2 212.982 147.901 216.753 151.966C219.781 155.229 221.239 159.753 221.286 164.205C221.369 172.056 217.295 179.512 211.72 185.038C206.144 190.566 199.154 194.421 192.14 197.946C176.67 205.721 160.605 212.237 144.563 218.745C142.632 212.823 139.637 207.251 135.766 202.373C140.194 197.92 144.622 193.469 149.05 189.017C147.121 185.266 145.183 181.457 144.304 177.333C143.424 173.208 143.714 168.665 146.006 165.126L146.362 164.385H146.361Z" fill="#EFA02A"/>
<path d="M164.696 121.28C162.844 123.346 160.341 124.714 157.602 125.16L152.188 126.041L135.852 127.02L128.963 126.624L111.84 126.224L97.668 124.842L92.6398 121.253C92.6398 121.253 85.4959 131.888 89.3075 151.981C92.5168 168.9 112.546 178.94 112.546 178.94L128.027 178.946H129.266L144.748 178.953C144.748 178.953 164.784 168.926 168.007 152.011C171.832 131.919 164.695 121.28 164.695 121.28H164.696Z" fill="#99A4DD"/>
<path d="M165.573 122.307C165.573 124.917 149.049 127.025 128.668 127.018C108.285 127.011 91.7632 124.89 91.7632 122.28C91.7646 119.673 108.289 117.564 128.67 117.571C149.051 117.578 165.574 119.698 165.573 122.307H165.573Z" fill="#CBD2EF"/>
<path d="M103.36 172.082C104.746 171.037 103.765 170.108 103.141 168.486C102.518 166.866 101.318 165.549 100.369 164.095C99.4181 162.642 98.6969 160.857 99.1952 159.194C99.4883 158.215 100.178 157.387 100.429 156.398C101.063 153.903 98.8249 151.715 97.6651 149.416C96.1934 146.502 96.5244 142.766 98.4797 140.153C98.7728 139.762 99.1784 139.36 99.6633 139.409C100.089 139.449 100.402 139.824 100.613 140.195C102.227 143.061 100.544 146.81 101.705 149.888C102.423 151.788 104.187 153.302 104.328 155.328C104.417 156.609 103.826 157.91 104.143 159.153C104.364 160.024 105.021 160.808 104.924 161.699C104.843 162.448 104.252 163.026 103.916 163.698C103.019 165.496 104.013 167.621 104.99 169.375C105.363 170.048 105.817 170.782 106.563 170.969C107.894 171.3 108.87 169.699 109.102 168.349C109.418 166.508 109.261 164.587 108.649 162.824C108.147 161.377 107.333 159.911 107.646 158.411C107.851 157.441 108.519 156.581 108.536 155.587C108.548 154.988 108.316 154.414 108.12 153.846C107.056 150.774 106.934 147.468 106.826 144.219C106.788 143.104 106.757 141.95 107.185 140.921C107.613 139.893 108.637 139.024 109.745 139.144C111.261 139.309 112.028 141.136 111.932 142.658C111.835 144.181 111.206 145.656 111.289 147.18C111.437 149.881 113.775 152.121 113.809 154.828C113.827 156.368 113.085 157.833 113.045 159.373C112.999 161.247 113.985 163.157 113.378 164.928C112.957 166.161 111.834 167.049 111.389 168.273C110.944 169.497 111.946 171.328 113.133 170.791C113.454 170.644 113.687 170.354 113.877 170.054C116.403 166.094 113.192 160.415 115.469 156.305C116.15 155.076 117.289 154.085 117.68 152.734C118.013 151.575 117.742 150.343 117.56 149.151C117.377 147.961 117.309 146.65 117.974 145.646C118.64 144.641 120.306 144.266 121.036 145.224C121.505 145.843 121.411 146.706 121.293 147.472C120.84 150.42 120.386 153.367 119.933 156.315C119.315 160.337 118.686 164.405 117.109 168.154C116.69 169.151 116.195 170.135 115.478 170.944C112.744 174.027 107.911 173.647 103.838 173.015L103.36 172.081V172.082Z" fill="#424E7F"/>
<path d="M139.916 177.053C139.981 175.787 141.395 174.872 141.376 173.604C141.368 173.044 141.077 172.535 140.85 172.024C140.276 170.732 140.095 169.27 140.335 167.878C141.463 168.823 142.184 170.236 142.293 171.702C142.944 171.449 143.258 170.674 143.217 169.975C143.177 169.279 142.863 168.632 142.597 167.986C141.605 165.581 141.204 162.932 141.439 160.341C142.672 160.391 143.263 161.881 143.373 163.109C143.48 164.338 143.511 165.78 144.516 166.494C145.317 165.679 145.482 164.409 145.286 163.282C145.087 162.153 144.582 161.108 144.194 160.03C143.286 157.49 143.048 154.712 143.511 152.053C144.114 151.93 144.478 152.691 144.615 153.291C145.078 155.328 145.538 157.364 146 159.402C146.071 159.711 146.185 160.072 146.487 160.17C146.984 160.33 147.314 159.659 147.393 159.142C147.677 157.319 147.795 155.471 147.744 153.626C147.696 151.964 147.643 150 148.973 149.004C150.111 150.124 149.392 152 149.067 153.561C148.728 155.187 148.926 156.918 149.626 158.423C150.716 156.507 151.807 154.589 152.899 152.673C153.345 151.89 153.836 151.062 154.644 150.66C155.452 150.258 156.656 150.537 156.884 151.41C157.051 152.046 156.655 152.682 156.277 153.222C154.515 155.746 152.751 158.27 150.988 160.794C151.781 161.323 152.819 160.825 153.741 160.577C154.661 160.326 156.022 160.741 155.866 161.682C155.778 162.218 155.22 162.526 154.726 162.751C153.019 163.533 151.312 164.315 149.605 165.096C150.47 165.707 151.334 166.319 152.2 166.929C152.573 167.194 152.992 167.567 152.896 168.014C152.78 168.55 152.064 168.643 151.516 168.618C150.172 168.554 148.829 168.49 147.484 168.426C147.137 169.498 148.803 170.189 148.999 171.298C149.162 172.218 148.168 173.009 147.233 173.007C146.298 173.004 145.46 172.467 144.681 171.949C145.331 172.776 145.096 174.043 144.433 174.86C143.77 175.677 142.786 176.15 141.834 176.599C141.094 176.947 140.356 177.295 139.615 177.643L139.916 177.053H139.916Z" fill="#424E7F"/>
<path d="M112.214 176.685C116.741 174.738 121.541 173.405 126.429 172.769C130.681 172.215 135.088 172.151 139.249 173.316C141.567 173.965 143.759 175.014 145.671 176.484L146.018 176.394C146.094 176.263 146.035 176.131 145.926 176.047C142.448 173.368 138.12 172.181 133.788 171.932C131.593 171.807 129.392 171.915 127.211 172.165C124.761 172.447 122.333 172.895 119.947 173.509C117.217 174.21 114.546 175.132 111.959 176.247C111.658 176.373 111.916 176.81 112.214 176.684V176.685Z" fill="#424E7F"/>
<path d="M127.483 176.015C129.238 173.505 131.064 170.817 131.179 167.648C131.231 166.194 130.879 164.78 130.085 163.557C129.399 162.499 128.5 161.587 127.863 160.495C127.576 160.001 127.344 159.454 127.296 158.877C127.235 158.135 127.494 157.458 127.793 156.791C128.391 155.45 128.786 154.075 128.873 152.602C128.959 151.156 128.764 149.683 128.299 148.31C128.067 147.63 127.77 146.972 127.412 146.349C127.041 145.71 126.627 145.093 126.324 144.417C126.043 143.789 125.887 143.088 126.099 142.416C126.255 141.917 126.598 141.51 126.973 141.158C127.761 140.42 128.737 139.872 129.363 138.973C129.518 138.753 129.637 138.516 129.729 138.265C129.841 137.959 129.352 137.825 129.24 138.131C128.867 139.14 127.862 139.756 127.069 140.407C126.187 141.128 125.418 142.031 125.496 143.247C125.591 144.713 126.639 145.895 127.272 147.158C127.923 148.457 128.292 149.899 128.369 151.348C128.446 152.789 128.242 154.24 127.748 155.596C127.486 156.306 127.101 156.973 126.903 157.706C126.738 158.321 126.743 158.964 126.913 159.577C127.246 160.767 128.089 161.742 128.834 162.695C129.222 163.194 129.603 163.699 129.913 164.251C130.267 164.883 130.492 165.576 130.601 166.292C131.081 169.418 129.413 172.312 127.719 174.791C127.497 175.115 127.272 175.437 127.047 175.76C126.86 176.028 127.3 176.282 127.484 176.016L127.483 176.015Z" fill="#424E7F"/>
<path d="M133.337 138.561C131.689 140.681 131.103 143.537 131.778 146.138C132.126 147.479 132.862 148.645 133.544 149.835C134.251 151.066 134.834 152.33 134.751 153.784C134.707 154.585 134.528 155.375 134.443 156.173C134.357 156.988 134.427 157.782 134.587 158.584C134.736 159.327 134.927 160.061 135.017 160.815C135.095 161.464 135.121 162.119 135.099 162.772C135.01 165.388 134.119 167.964 132.592 170.088C131.829 171.153 130.897 172.03 129.886 172.855C128.943 173.624 127.935 174.442 127.485 175.611C127.377 175.888 127.32 176.177 127.292 176.473C127.259 176.798 127.767 176.797 127.8 176.473C127.916 175.242 128.893 174.341 129.786 173.592C130.263 173.191 130.761 172.809 131.223 172.389C131.706 171.948 132.154 171.471 132.563 170.96C134.189 168.936 135.21 166.469 135.519 163.893C135.674 162.603 135.637 161.295 135.406 160.016C135.262 159.223 135.033 158.442 134.943 157.64C134.852 156.825 134.959 156.027 135.081 155.221C135.202 154.454 135.323 153.675 135.243 152.897C135.171 152.219 134.97 151.578 134.695 150.957C134.147 149.709 133.335 148.602 132.758 147.369C131.628 144.958 131.795 142.028 133.143 139.735C133.309 139.453 133.492 139.178 133.693 138.918C133.892 138.664 133.534 138.303 133.335 138.56L133.337 138.561Z" fill="#424E7F"/>
<path d="M134.163 172.503C136.031 170.428 138.009 168.206 138.558 165.375C138.818 164.029 138.747 162.619 138.177 161.36C137.627 160.14 136.588 159.193 136.166 157.907C135.459 155.75 136.393 153.441 136.992 151.374C137.304 150.301 137.582 149.198 137.611 148.076C137.625 147.538 137.574 146.997 137.442 146.477C137.282 145.849 136.932 145.313 136.72 144.708C136.475 144.011 136.682 143.342 136.995 142.704C137.309 142.062 137.662 141.448 137.915 140.775C138.43 139.415 138.655 137.966 138.825 136.526C138.868 136.163 138.908 135.802 138.947 135.438C138.981 135.114 138.472 135.117 138.439 135.438C138.285 136.875 138.127 138.322 137.73 139.716C137.533 140.404 137.278 141.066 136.947 141.697C136.628 142.308 136.254 142.928 136.136 143.618C136.01 144.354 136.258 144.966 136.576 145.617C136.82 146.116 136.994 146.639 137.064 147.194C137.198 148.273 136.999 149.364 136.731 150.409C136.185 152.528 135.199 154.709 135.447 156.946C135.507 157.485 135.637 158.007 135.856 158.506C136.128 159.135 136.532 159.692 136.92 160.251C137.304 160.805 137.675 161.373 137.895 162.016C138.118 162.662 138.21 163.345 138.195 164.028C138.139 166.903 136.34 169.283 134.517 171.344C134.281 171.612 134.042 171.877 133.803 172.142C133.584 172.385 133.941 172.746 134.161 172.502L134.163 172.503Z" fill="#424E7F"/>
<path d="M159.564 142.185C159.562 142.457 159.342 142.677 159.07 142.677C158.799 142.677 158.579 142.456 158.579 142.185C158.579 141.913 158.799 141.693 159.071 141.693C159.342 141.693 159.563 141.913 159.563 142.185H159.564Z" fill="#CBD2EF"/>
<path d="M159.271 135.001C159.27 136.033 158.432 136.871 157.4 136.869C156.367 136.869 155.53 136.031 155.53 134.999C155.53 133.967 156.368 133.13 157.401 133.13C158.433 133.13 159.271 133.968 159.271 135V135.001Z" fill="#CBD2EF"/>
<path d="M163.795 143.073C163.795 144.105 162.958 144.941 161.924 144.941C160.893 144.941 160.055 144.103 160.055 143.07C160.055 142.037 160.893 141.2 161.926 141.2C162.959 141.2 163.796 142.038 163.795 143.072V143.073Z" fill="#CBD2EF"/>
<path d="M111.241 148.565C111.241 149.27 110.668 149.843 109.962 149.843C109.254 149.843 108.683 149.27 108.683 148.563C108.683 147.856 109.255 147.283 109.963 147.285C110.668 147.285 111.241 147.857 111.241 148.565Z" fill="#CBD2EF"/>
<path d="M113.015 142.266C113.015 142.646 112.706 142.956 112.326 142.956C111.946 142.956 111.637 142.646 111.637 142.266C111.637 141.885 111.945 141.578 112.326 141.578C112.706 141.578 113.015 141.886 113.015 142.266Z" fill="#CBD2EF"/>
<path d="M105.14 144.429C105.14 144.809 104.832 145.119 104.452 145.117C104.072 145.117 103.763 144.808 103.763 144.428C103.763 144.048 104.072 143.74 104.452 143.74C104.832 143.74 105.14 144.048 105.14 144.43V144.429Z" fill="#CBD2EF"/>
<path d="M115.772 134.984C115.772 135.364 115.464 135.674 115.083 135.674C114.702 135.674 114.395 135.365 114.395 134.983C114.395 134.604 114.702 134.295 115.084 134.296C115.466 134.296 115.772 134.604 115.772 134.984Z" fill="#CBD2EF"/>
<path d="M120.695 130.657C120.694 131.362 120.122 131.935 119.417 131.935C118.709 131.935 118.137 131.362 118.137 130.655C118.138 129.948 118.71 129.377 119.417 129.377C120.124 129.377 120.695 129.95 120.695 130.657Z" fill="#CBD2EF"/>
<path d="M152.769 141.226C152.172 140.707 151.479 140.296 150.737 140.02C150.69 140.215 150.64 140.41 150.592 140.607L150.527 140.75L150.336 140.802C150.187 140.796 150.037 140.758 149.887 140.762C149.738 140.767 149.575 140.824 149.503 140.956C149.407 141.133 149.5 141.383 149.369 141.535C149.21 141.723 148.871 141.595 148.684 141.753C148.563 141.856 148.553 142.034 148.473 142.171C148.315 142.444 147.896 142.527 147.818 142.832C149.198 142.027 150.741 141.497 152.325 141.289L152.77 141.227L152.769 141.226Z" fill="#D15259"/>
<path d="M147.411 142.998C146.923 142.223 146.046 141.762 145.15 141.579C144.254 141.394 143.329 141.454 142.416 141.515C142.688 141.724 142.967 141.941 143.143 142.237C143.32 142.53 143.378 142.924 143.192 143.215C142.995 143.522 142.546 143.737 142.616 144.092L142.745 144.331C142.903 144.514 143.114 144.639 143.284 144.807C143.457 144.976 143.589 145.219 143.527 145.451L143.35 145.751C143.145 146.024 142.946 146.386 143.109 146.686C143.646 146.512 144.23 146.564 144.789 146.476C145.619 146.347 146.394 145.892 146.913 145.232C147.432 144.571 147.691 143.71 147.62 142.872L147.411 142.998Z" fill="#D15259"/>
<path d="M151.836 145.365C151.685 145.897 151.336 146.355 150.916 146.715C150.497 147.073 150.008 147.339 149.513 147.584C149.773 147.363 149.893 147.02 149.984 146.691C150.084 146.334 150.165 145.973 150.231 145.61C150.265 145.404 150.32 145.165 150.513 145.08L150.81 145.055C151.137 145.086 151.459 145.144 151.774 145.229L151.81 145.206L151.786 145.213L151.837 145.366L151.836 145.365Z" fill="#EFA02A"/>
<path d="M153.417 145.345C153.537 145.769 153.493 146.225 153.359 146.644C153.223 147.064 153.001 147.45 152.766 147.822C152.763 147.124 152.647 146.427 152.423 145.766L152.395 145.534C152.433 145.412 152.582 145.368 152.708 145.351C152.998 145.31 153.294 145.307 153.583 145.345L153.417 145.344V145.345Z" fill="#A56919"/>
<path d="M156.806 143.524C156.812 143.722 156.734 143.914 156.592 144.054C155.303 145.329 153.482 146.057 151.666 146.011C149.745 145.96 147.861 145.04 146.64 143.556C147.646 142.811 148.745 142.193 149.903 141.717C151.166 141.2 152.575 140.853 153.891 141.219C154.957 141.513 155.841 142.243 156.606 143.048C156.73 143.178 156.803 143.346 156.806 143.524Z" fill="#EFA02A"/>
<path d="M153.233 141.095C153.025 141.436 152.904 141.857 152.839 142.266C152.647 143.471 152.812 144.74 153.296 145.849C154.532 145.57 155.692 144.946 156.592 144.054C156.734 143.913 156.811 143.722 156.806 143.524C156.802 143.346 156.73 143.179 156.606 143.049C155.841 142.244 154.957 141.514 153.89 141.22C153.674 141.159 153.454 141.119 153.233 141.095H153.233Z" fill="#D15259"/>
<path d="M151.919 141.715C151.662 141.639 151.412 141.822 151.345 142.074C151.264 142.376 151.485 142.658 151.704 142.839L151.76 142.627C151.167 142.792 151.066 143.583 151.608 143.884L151.637 143.652C151.107 143.734 151.013 144.456 151.499 144.68L151.472 144.481C151.04 144.853 151.345 145.566 151.916 145.501C152.076 145.482 152.077 145.229 151.916 145.248C151.563 145.288 151.38 144.894 151.652 144.659L151.627 144.461C151.332 144.325 151.387 143.947 151.705 143.897L151.736 143.665C151.388 143.473 151.442 142.978 151.828 142.871L151.885 142.659C151.762 142.558 151.632 142.436 151.592 142.275C151.558 142.121 151.668 141.906 151.852 141.959C152.01 142.005 152.076 141.76 151.919 141.715Z" fill="#A56919"/>
<path d="M150.344 143.066C150.121 143.102 149.985 143.327 149.981 143.539C149.976 143.804 150.165 144.016 150.342 144.19L150.399 143.976C150.089 144.04 149.933 144.367 149.94 144.66C149.947 144.988 150.211 145.427 150.596 145.274C150.748 145.214 150.682 144.971 150.529 145.029C150.156 145.177 150.051 144.305 150.467 144.221L150.523 144.008C150.406 143.894 150.26 143.757 150.238 143.585C150.222 143.463 150.283 143.33 150.412 143.308C150.572 143.282 150.504 143.038 150.344 143.065V143.066Z" fill="#A56919"/>
<path d="M149.315 142.552C149.076 142.578 148.918 142.778 148.9 143.013C148.878 143.276 149.055 143.502 149.212 143.694L149.303 143.476C148.989 143.448 148.687 143.718 148.687 144.034C148.687 144.35 148.989 144.621 149.303 144.588C149.465 144.574 149.465 144.319 149.303 144.335C149.129 144.353 148.94 144.222 148.94 144.034C148.94 143.847 149.127 143.714 149.303 143.731C149.423 143.743 149.454 143.59 149.391 143.515C149.29 143.391 149.169 143.247 149.152 143.083L149.315 142.805C149.477 142.79 149.477 142.536 149.315 142.551V142.552Z" fill="#A56919"/>
<path d="M148.268 143.291C148.048 143.241 147.847 143.417 147.812 143.631C147.775 143.871 147.924 144.074 148.068 144.249L148.124 144.037C147.933 144.083 147.804 144.303 147.876 144.488C147.951 144.687 148.188 144.767 148.371 144.671C148.516 144.595 148.389 144.377 148.244 144.453L148.117 144.408L148.125 144.332L148.192 144.282L148.249 144.07C148.167 143.969 148.062 143.848 148.06 143.711L148.105 143.583L148.202 143.535C148.361 143.572 148.429 143.327 148.27 143.291H148.268Z" fill="#A56919"/>
<path d="M154.067 143.175C154.073 143.386 154.25 143.551 154.463 143.543C154.674 143.535 154.839 143.359 154.831 143.147C154.823 142.936 154.646 142.771 154.435 142.779C154.224 142.786 154.059 142.964 154.067 143.175Z" fill="#141515"/>
<path d="M156.615 143.646C156.304 143.751 155.983 143.829 155.657 143.875L155.57 144.031L155.726 144.12C156.051 144.074 156.371 143.997 156.683 143.891L156.771 143.735L156.615 143.646Z" fill="#8E3039"/>
<path d="M143.426 142.065C143.686 142.344 143.75 142.789 143.548 143.12C143.369 143.416 142.988 143.669 143.124 144.067C143.171 144.206 143.286 144.302 143.391 144.398C143.538 144.532 143.679 144.676 143.788 144.843C143.998 145.173 144.07 145.628 143.767 145.928L143.947 146.108C144.21 145.847 144.28 145.46 144.185 145.107C144.069 144.686 143.757 144.419 143.464 144.122C143.22 143.872 143.467 143.631 143.636 143.428C143.758 143.279 143.853 143.118 143.892 142.929C143.972 142.552 143.866 142.166 143.604 141.885L143.426 142.065Z" fill="#EFA02A"/>
<path d="M144.11 142.072C144.384 142.265 144.438 142.635 144.363 142.945C144.28 143.288 143.99 143.538 143.929 143.891C143.877 144.198 144.032 144.457 144.207 144.697C144.455 145.038 144.642 145.387 144.434 145.807C144.362 145.951 144.582 146.08 144.653 145.933C144.841 145.557 144.813 145.148 144.586 144.797C144.361 144.442 144.033 144.151 144.262 143.706C144.438 143.368 144.646 143.094 144.647 142.694C144.65 142.358 144.515 142.049 144.238 141.853C144.105 141.757 143.978 141.977 144.11 142.072H144.11Z" fill="#EFA02A"/>
<path d="M144.739 142.083C144.987 142.335 145.091 142.69 145.046 143.039C144.996 143.414 144.694 143.678 144.637 144.042C144.592 144.341 144.756 144.585 144.934 144.806C145.197 145.137 145.413 145.475 145.195 145.902C145.122 146.046 145.341 146.175 145.415 146.028C145.593 145.68 145.581 145.285 145.363 144.954C145.157 144.639 144.753 144.346 144.937 143.928C145.019 143.741 145.146 143.58 145.219 143.386C145.282 143.221 145.311 143.039 145.31 142.862C145.304 142.504 145.172 142.161 144.918 141.903L144.739 142.084V142.083Z" fill="#EFA02A"/>
<path d="M145.434 142.036C145.699 142.222 145.859 142.536 145.845 142.86C145.831 143.202 145.601 143.488 145.557 143.823C145.515 144.142 145.675 144.355 145.866 144.587C146.101 144.874 146.146 145.244 145.953 145.567C145.867 145.706 146.087 145.834 146.173 145.693C146.35 145.401 146.384 145.035 146.248 144.718C146.176 144.552 146.056 144.428 145.946 144.288C145.796 144.093 145.777 143.909 145.853 143.677C145.969 143.327 146.144 143.024 146.084 142.64C146.032 142.303 145.842 142.012 145.562 141.818C145.428 141.724 145.301 141.944 145.434 142.036H145.434Z" fill="#EFA02A"/>
<path d="M146.216 142.403C146.424 142.494 146.565 142.7 146.558 142.93C146.55 143.181 146.333 143.353 146.244 143.573C146.14 143.822 146.223 144.069 146.342 144.298C146.445 144.497 146.66 144.823 146.473 145.035C146.364 145.156 146.544 145.337 146.651 145.215C146.849 144.995 146.813 144.702 146.703 144.448C146.638 144.298 146.539 144.16 146.485 144.005C146.422 143.824 146.456 143.684 146.556 143.528C146.708 143.29 146.849 143.084 146.802 142.789C146.759 142.528 146.589 142.29 146.346 142.185C146.197 142.121 146.069 142.34 146.217 142.404L146.216 142.403Z" fill="#EFA02A"/>
<path d="M150.923 146.015L150.655 145.922L150.558 145.935L150.499 146.012L150.513 146.109L150.589 146.167L150.856 146.259L150.953 146.247L151.012 146.171L150.999 146.074L150.923 146.015Z" fill="#A56919"/>
<path d="M150.784 146.319L150.598 146.289L150.547 146.286L150.5 146.302L150.442 146.377L150.455 146.475L150.53 146.533L150.718 146.565L150.768 146.566L150.815 146.552L150.874 146.475L150.861 146.377L150.784 146.319Z" fill="#A56919"/>
<path d="M150.502 146.621L150.427 146.623L150.378 146.634L150.337 146.659L150.311 146.701L150.3 146.75L150.304 146.784L150.337 146.839L150.363 146.86L150.427 146.877L150.502 146.874L150.55 146.862L150.591 146.837L150.617 146.797L150.629 146.748L150.624 146.713L150.591 146.657L150.565 146.638L150.502 146.621Z" fill="#A56919"/>
<path d="M109.046 132.813C108.449 132.293 107.756 131.881 107.014 131.604C106.966 131.802 106.916 131.997 106.869 132.193L106.805 132.335L106.613 132.386C106.462 132.38 106.313 132.343 106.164 132.349C106.013 132.353 105.852 132.411 105.779 132.542C105.682 132.719 105.777 132.969 105.646 133.122C105.487 133.309 105.147 133.182 104.96 133.341C104.841 133.442 104.83 133.62 104.751 133.757C104.591 134.03 104.174 134.111 104.095 134.418C105.474 133.611 107.018 133.083 108.602 132.874L109.047 132.813H109.046Z" fill="#D15259"/>
<path d="M103.687 134.583C103.199 133.81 102.321 133.35 101.426 133.164C100.529 132.981 99.6045 133.04 98.6921 133.1C98.9641 133.311 99.2425 133.528 99.4189 133.823C99.5967 134.117 99.6522 134.512 99.4681 134.801C99.2706 135.108 98.8215 135.321 98.8917 135.679L99.0211 135.917C99.1772 136.1 99.3894 136.225 99.5595 136.395C99.7317 136.563 99.8645 136.806 99.802 137.036L99.6262 137.339C99.4196 137.61 99.2221 137.972 99.3837 138.273C99.9221 138.1 100.506 138.151 101.065 138.065C101.894 137.934 102.67 137.479 103.189 136.818C103.708 136.158 103.966 135.298 103.896 134.46L103.687 134.583Z" fill="#D15259"/>
<path d="M108.112 136.952C107.961 137.483 107.612 137.941 107.193 138.301C106.771 138.659 106.284 138.926 105.788 139.17C106.05 138.949 106.168 138.606 106.26 138.275C106.36 137.919 106.441 137.56 106.505 137.194C106.542 136.99 106.596 136.751 106.787 136.666L107.084 136.641C107.411 136.673 107.734 136.73 108.049 136.815L108.085 136.792L108.061 136.801L108.112 136.952Z" fill="#EFA02A"/>
<path d="M109.693 136.932C109.813 137.356 109.769 137.813 109.634 138.233C109.497 138.652 109.276 139.037 109.041 139.411C109.038 138.712 108.922 138.015 108.699 137.355L108.671 137.121C108.709 137 108.858 136.956 108.984 136.937C109.273 136.898 109.568 136.896 109.858 136.932H109.693H109.693Z" fill="#A56919"/>
<path d="M113.083 135.11C113.087 135.309 113.01 135.501 112.869 135.639C111.58 136.917 109.757 137.644 107.942 137.597C106.021 137.546 104.139 136.629 102.917 135.141C103.921 134.398 105.021 133.78 106.178 133.306C107.441 132.787 108.851 132.44 110.166 132.806C111.232 133.1 112.117 133.83 112.882 134.635C113.005 134.763 113.078 134.933 113.084 135.11H113.083Z" fill="#EFA02A"/>
<path d="M109.508 132.681C109.3 133.023 109.18 133.445 109.115 133.854C108.923 135.058 109.087 136.325 109.571 137.435C110.807 137.156 111.968 136.531 112.869 135.639C113.01 135.501 113.087 135.308 113.083 135.11C113.076 134.933 113.004 134.764 112.881 134.636C112.116 133.83 111.231 133.101 110.166 132.806C109.948 132.746 109.729 132.706 109.508 132.682V132.681Z" fill="#D15259"/>
<path d="M108.195 133.302C107.938 133.226 107.688 133.41 107.621 133.659C107.54 133.964 107.76 134.246 107.98 134.426L108.036 134.214C107.442 134.377 107.343 135.169 107.884 135.471L107.915 135.239C107.383 135.318 107.29 136.043 107.775 136.265L107.75 136.066C107.316 136.437 107.622 137.15 108.193 137.086C108.352 137.068 108.355 136.813 108.193 136.833C107.839 136.872 107.657 136.478 107.929 136.246L107.904 136.046C107.61 135.912 107.664 135.53 107.983 135.482L108.014 135.25C107.666 135.057 107.719 134.565 108.106 134.458L108.162 134.246C108.038 134.143 107.909 134.023 107.87 133.861C107.836 133.705 107.946 133.49 108.13 133.544C108.288 133.59 108.354 133.346 108.197 133.301L108.195 133.302Z" fill="#A56919"/>
<path d="M106.621 134.651C106.398 134.689 106.262 134.914 106.258 135.127C106.252 135.39 106.442 135.604 106.619 135.775L106.675 135.563C106.366 135.627 106.209 135.955 106.215 136.248C106.223 136.576 106.487 137.014 106.873 136.862C107.023 136.803 106.958 136.558 106.805 136.618C106.432 136.765 106.327 135.894 106.743 135.807L106.799 135.596C106.68 135.481 106.536 135.346 106.514 135.173C106.498 135.05 106.559 134.917 106.688 134.897C106.848 134.87 106.78 134.626 106.62 134.651H106.621Z" fill="#A56919"/>
<path d="M105.591 134.139C105.352 134.163 105.195 134.364 105.176 134.598C105.153 134.861 105.33 135.087 105.486 135.28L105.577 135.064C105.264 135.033 104.963 135.306 104.963 135.621C104.963 135.935 105.266 136.205 105.579 136.176C105.741 136.159 105.742 135.907 105.579 135.922C105.405 135.94 105.217 135.808 105.217 135.621C105.215 135.432 105.404 135.301 105.578 135.318C105.699 135.33 105.729 135.176 105.667 135.1C105.567 134.977 105.446 134.833 105.428 134.668L105.591 134.393C105.752 134.376 105.754 134.123 105.591 134.139Z" fill="#A56919"/>
<path d="M104.544 134.876C104.324 134.827 104.122 135.003 104.088 135.218C104.051 135.458 104.2 135.659 104.344 135.836L104.4 135.625C104.209 135.669 104.081 135.89 104.15 136.077C104.227 136.273 104.464 136.355 104.647 136.258C104.791 136.184 104.664 135.964 104.52 136.038L104.391 135.995L104.399 135.92L104.468 135.868L104.524 135.657C104.441 135.556 104.337 135.434 104.335 135.299L104.381 135.17L104.477 135.122C104.637 135.158 104.704 134.914 104.545 134.876H104.544Z" fill="#A56919"/>
<path d="M110.343 134.76C110.35 134.972 110.527 135.138 110.738 135.131C110.95 135.124 111.114 134.946 111.107 134.735C111.099 134.524 110.921 134.359 110.71 134.366C110.5 134.373 110.334 134.55 110.342 134.76H110.343Z" fill="#141515"/>
<path d="M112.891 135.234C112.58 135.34 112.259 135.417 111.933 135.463L111.845 135.62L112.001 135.707C112.327 135.66 112.647 135.584 112.959 135.478L113.047 135.322L112.891 135.234Z" fill="#8E3039"/>
<path d="M99.7 133.651C99.9614 133.93 100.025 134.375 99.8237 134.707C99.6452 135.001 99.2621 135.255 99.3999 135.652C99.4463 135.793 99.5615 135.888 99.6648 135.983C99.8117 136.117 99.9544 136.262 100.062 136.43C100.273 136.759 100.345 137.215 100.042 137.517L100.22 137.694C100.483 137.434 100.555 137.046 100.459 136.694C100.345 136.271 100.031 136.006 99.7394 135.708C99.4955 135.461 99.7422 135.217 99.9116 135.014C100.033 134.866 100.127 134.705 100.167 134.517C100.248 134.14 100.141 133.753 99.8793 133.473L99.6993 133.651H99.7Z" fill="#EFA02A"/>
<path d="M100.385 133.657C100.66 133.853 100.714 134.222 100.638 134.531C100.556 134.873 100.264 135.127 100.204 135.476C100.152 135.787 100.307 136.044 100.483 136.285C100.731 136.625 100.916 136.973 100.709 137.391C100.638 137.537 100.856 137.666 100.928 137.519C101.115 137.143 101.088 136.736 100.861 136.382C100.636 136.029 100.307 135.738 100.537 135.294C100.714 134.955 100.921 134.682 100.922 134.282C100.925 133.945 100.79 133.635 100.513 133.438C100.38 133.343 100.252 133.563 100.385 133.656V133.657Z" fill="#EFA02A"/>
<path d="M101.015 133.669C101.263 133.922 101.367 134.277 101.322 134.627C101.272 135 100.97 135.263 100.915 135.63C100.868 135.926 101.033 136.172 101.21 136.394C101.471 136.723 101.689 137.063 101.471 137.487C101.398 137.634 101.616 137.76 101.691 137.615C101.868 137.265 101.857 136.87 101.639 136.54C101.434 136.225 101.029 135.932 101.213 135.513C101.296 135.325 101.422 135.164 101.495 134.972C101.558 134.805 101.587 134.627 101.585 134.449C101.582 134.088 101.446 133.746 101.194 133.489L101.016 133.669L101.015 133.669Z" fill="#EFA02A"/>
<path d="M101.708 133.624C101.973 133.807 102.133 134.124 102.12 134.447C102.107 134.789 101.876 135.076 101.832 135.412C101.789 135.73 101.949 135.941 102.141 136.176C102.376 136.461 102.421 136.832 102.227 137.154C102.142 137.295 102.362 137.421 102.446 137.282C102.623 136.988 102.658 136.624 102.522 136.307C102.45 136.14 102.33 136.016 102.22 135.874C102.069 135.682 102.051 135.495 102.127 135.264C102.242 134.914 102.418 134.611 102.359 134.229C102.306 133.89 102.115 133.598 101.836 133.404C101.701 133.311 101.575 133.532 101.707 133.624H101.708Z" fill="#EFA02A"/>
<path d="M102.492 133.99C102.7 134.081 102.842 134.286 102.834 134.517C102.826 134.766 102.609 134.938 102.519 135.158C102.416 135.41 102.499 135.656 102.617 135.883C102.72 136.083 102.936 136.408 102.748 136.622C102.639 136.744 102.819 136.922 102.927 136.801C103.123 136.581 103.088 136.287 102.977 136.032C102.913 135.883 102.815 135.747 102.76 135.59C102.698 135.411 102.731 135.268 102.831 135.112C102.983 134.876 103.124 134.67 103.078 134.374C103.034 134.114 102.864 133.876 102.622 133.771C102.473 133.706 102.343 133.925 102.492 133.99Z" fill="#EFA02A"/>
<path d="M107.199 137.6L106.931 137.51L106.833 137.523L106.775 137.598L106.788 137.695L106.863 137.754L107.132 137.846L107.23 137.832L107.288 137.756L107.275 137.659L107.199 137.6Z" fill="#A56919"/>
<path d="M107.06 137.906L106.873 137.875L106.823 137.873L106.775 137.887L106.717 137.965L106.731 138.062L106.805 138.119L106.992 138.15L107.043 138.152L107.09 138.138L107.148 138.062L107.136 137.965L107.06 137.906Z" fill="#A56919"/>
<path d="M106.778 138.206L106.703 138.209L106.654 138.221L106.613 138.248L106.587 138.288L106.576 138.337L106.582 138.371L106.613 138.426L106.638 138.446L106.703 138.464L106.778 138.461L106.826 138.45L106.867 138.424L106.894 138.382L106.904 138.335L106.9 138.301L106.867 138.245L106.841 138.225L106.778 138.206Z" fill="#A56919"/>
<path d="M119.552 147.734C120.596 146.76 121.816 145.975 123.138 145.433C123.236 145.782 123.335 146.131 123.433 146.48L123.559 146.733C123.65 146.814 123.784 146.822 123.907 146.813C124.178 146.795 124.441 146.718 124.712 146.717C124.983 146.715 125.279 146.809 125.416 147.042C125.601 147.356 125.449 147.809 125.694 148.077C125.993 148.404 126.596 148.153 126.942 148.428C127.165 148.602 127.195 148.924 127.346 149.165C127.648 149.646 128.408 149.766 128.567 150.313C126.033 148.948 123.225 148.092 120.361 147.815L119.552 147.734Z" fill="#D15259"/>
<path d="M129.309 150.586C130.137 149.163 131.689 148.278 133.291 147.891C134.891 147.503 136.56 147.552 138.205 147.604C137.73 148.001 137.243 148.41 136.942 148.951C136.64 149.493 136.566 150.204 136.916 150.714C137.29 151.254 138.112 151.611 138.007 152.258C137.981 152.42 137.893 152.567 137.79 152.696C137.521 153.034 137.146 153.274 136.85 153.588C136.553 153.903 136.326 154.348 136.455 154.76C136.518 154.961 136.656 155.128 136.788 155.292C137.175 155.768 137.555 156.408 137.283 156.958C136.304 156.679 135.257 156.81 134.246 156.687C132.744 156.504 131.319 155.734 130.345 154.579C129.368 153.421 128.851 151.888 128.925 150.378L129.31 150.587L129.309 150.586Z" fill="#D15259"/>
<path d="M121.492 155.127C121.797 156.072 122.453 156.875 123.232 157.494C124.009 158.114 124.907 158.564 125.812 158.972C125.328 158.59 125.093 157.979 124.907 157.393C124.706 156.758 124.535 156.113 124.399 155.463C124.32 155.094 124.207 154.668 123.859 154.528C123.691 154.46 123.5 154.477 123.32 154.501C122.737 154.578 122.158 154.703 121.594 154.875L121.529 154.834L121.573 154.848L121.491 155.127H121.492Z" fill="#EFA02A"/>
<path d="M118.643 155.187C118.454 155.957 118.564 156.778 118.833 157.525C119.103 158.27 119.527 158.95 119.972 159.606C119.932 158.351 120.098 157.086 120.461 155.884C120.501 155.747 120.545 155.597 120.497 155.465C120.417 155.247 120.149 155.179 119.919 155.153C119.397 155.098 118.866 155.112 118.348 155.196L118.642 155.187H118.643Z" fill="#A56919"/>
<path d="M112.432 152.12C112.435 152.478 112.585 152.818 112.85 153.061C115.251 155.277 118.575 156.474 121.839 156.275C125.295 156.064 128.627 154.293 130.733 151.544C128.876 150.267 126.86 149.223 124.747 148.44C122.44 147.587 119.882 147.051 117.536 147.79C115.637 148.389 114.091 149.755 112.762 151.252C112.55 151.493 112.429 151.801 112.432 152.12Z" fill="#EFA02A"/>
<path d="M118.711 147.524C119.107 148.127 119.35 148.879 119.494 149.61C119.914 151.764 119.697 154.059 118.896 156.084C116.654 155.658 114.527 154.608 112.85 153.06C112.585 152.817 112.435 152.477 112.432 152.119C112.429 151.8 112.55 151.492 112.762 151.251C114.091 149.754 115.638 148.388 117.536 147.789C117.923 147.668 118.315 147.58 118.711 147.523V147.524Z" fill="#D15259"/>
<path d="M121.216 148.9C121.551 148.777 121.856 149.117 121.851 149.439C121.845 149.803 121.572 150.099 121.313 150.324L121.369 150.535C122.153 150.712 122.322 151.735 121.624 152.141L121.688 152.377C122.341 152.444 122.44 153.297 121.87 153.567V153.785C122.44 154.227 122.036 155.086 121.35 155.017C121.187 155.001 121.189 155.254 121.35 155.27C121.777 155.313 122.208 155.058 122.35 154.646C122.487 154.246 122.324 153.817 121.998 153.566V153.785C122.352 153.618 122.575 153.221 122.5 152.831C122.426 152.434 122.077 152.162 121.688 152.123L121.75 152.359C122.147 152.129 122.389 151.674 122.318 151.214C122.249 150.757 121.882 150.392 121.437 150.291L121.493 150.502C121.846 150.194 122.205 149.73 122.081 149.231C121.98 148.832 121.56 148.504 121.148 148.654C120.995 148.711 121.062 148.956 121.215 148.9L121.216 148.9Z" fill="#A56919"/>
<path d="M123.982 151.242C124.254 151.277 124.386 151.602 124.359 151.846C124.321 152.174 124.068 152.441 123.85 152.669L123.907 152.881C124.789 153.03 124.614 154.828 123.805 154.542C123.651 154.487 123.584 154.732 123.737 154.787C124.373 155.013 124.766 154.28 124.76 153.748C124.754 153.264 124.491 152.724 123.973 152.638L124.029 152.85C124.322 152.545 124.649 152.163 124.613 151.71C124.583 151.351 124.35 151.036 123.982 150.988C123.821 150.968 123.823 151.221 123.982 151.242L123.982 151.242Z" fill="#A56919"/>
<path d="M125.86 150.26C126.147 150.279 126.299 150.604 126.28 150.86C126.255 151.192 126.027 151.477 125.835 151.732L125.944 151.923C126.313 151.875 126.704 152.15 126.723 152.539C126.742 152.927 126.364 153.238 125.996 153.214C125.833 153.203 125.833 153.458 125.996 153.468C126.503 153.5 126.994 153.057 126.976 152.538C126.96 152.024 126.452 151.603 125.944 151.669L126.053 151.86C126.304 151.528 126.584 151.138 126.527 150.696C126.479 150.345 126.23 150.031 125.86 150.007C125.697 149.996 125.698 150.249 125.86 150.26H125.86Z" fill="#A56919"/>
<path d="M127.885 151.508C128.108 151.45 128.287 151.706 128.29 151.905C128.294 152.193 128.091 152.443 127.928 152.66L128.004 152.847C128.155 152.876 128.284 153.043 128.226 153.202C128.174 153.339 127.988 153.412 127.857 153.348C127.71 153.279 127.581 153.496 127.729 153.569C127.999 153.696 128.351 153.583 128.461 153.294C128.572 153.005 128.369 152.662 128.072 152.602L128.146 152.789C128.365 152.499 128.613 152.142 128.524 151.758C128.452 151.446 128.149 151.177 127.817 151.263C127.659 151.306 127.727 151.55 127.885 151.509L127.885 151.508Z" fill="#A56919"/>
<path d="M117.342 151.32C117.342 151.703 117.033 152.01 116.652 152.01C116.272 152.01 115.964 151.701 115.964 151.32C115.964 150.941 116.272 150.632 116.652 150.632C117.032 150.632 117.342 150.941 117.342 151.32Z" fill="#141515"/>
<path d="M112.696 152.675C113.274 152.849 113.866 152.967 114.468 153.031L114.595 152.905L114.468 152.778C113.891 152.715 113.32 152.596 112.764 152.43C112.607 152.383 112.54 152.629 112.696 152.675Z" fill="#8E3039"/>
<path d="M136.166 148.414C135.829 148.792 135.655 149.288 135.676 149.797C135.698 150.354 135.949 150.781 136.32 151.179C136.542 151.417 136.838 151.731 136.765 152.09C136.703 152.395 136.346 152.628 136.145 152.845C135.757 153.263 135.414 153.765 135.319 154.341C135.229 154.902 135.372 155.504 135.804 155.892C135.925 156.001 136.107 155.821 135.984 155.712C135.445 155.228 135.454 154.426 135.757 153.815C135.929 153.471 136.177 153.17 136.446 152.896C136.663 152.678 136.938 152.472 137.011 152.157C137.176 151.428 136.36 151.016 136.089 150.453C135.798 149.852 135.904 149.089 136.346 148.592C136.454 148.47 136.275 148.29 136.166 148.413L136.166 148.414Z" fill="#EFA02A"/>
<path d="M135.007 148.41C134.239 148.978 134.215 150.09 134.644 150.878C134.915 151.375 135.417 151.848 135.286 152.465C135.175 152.986 134.75 153.383 134.511 153.846C134.217 154.417 134.227 155.079 134.541 155.639C134.62 155.782 134.84 155.654 134.759 155.512C134.572 155.175 134.499 154.784 134.577 154.405C134.641 154.076 134.823 153.795 135.009 153.522C135.337 153.038 135.687 152.524 135.514 151.912C135.341 151.295 134.813 150.86 134.667 150.226C134.538 149.661 134.643 148.993 135.135 148.629C135.265 148.533 135.138 148.312 135.008 148.411L135.007 148.41Z" fill="#EFA02A"/>
<path d="M133.804 148.527C133.126 149.255 133.007 150.376 133.44 151.262C133.688 151.767 134.183 152.218 133.98 152.829C133.818 153.317 133.396 153.674 133.152 154.119C132.853 154.666 132.864 155.32 133.176 155.86C133.255 156.002 133.475 155.874 133.394 155.732C133.202 155.401 133.136 155.013 133.221 154.638C133.293 154.319 133.481 154.052 133.673 153.796C134.012 153.34 134.4 152.853 134.253 152.25C134.175 151.928 133.971 151.662 133.801 151.386C133.632 151.114 133.513 150.821 133.464 150.504C133.363 149.861 133.537 149.185 133.983 148.707L133.803 148.526L133.804 148.527Z" fill="#EFA02A"/>
<path d="M132.623 148.431C132.157 148.772 131.851 149.285 131.778 149.86C131.69 150.551 132.041 151.083 132.263 151.705C132.392 152.063 132.414 152.403 132.205 152.739C132.029 153.023 131.783 153.252 131.643 153.561C131.389 154.124 131.451 154.794 131.792 155.306C131.881 155.442 132.101 155.315 132.01 155.18C131.649 154.636 131.653 153.939 132.027 153.404C132.193 153.161 132.406 152.95 132.525 152.677C132.634 152.426 132.641 152.157 132.582 151.893C132.452 151.296 132.028 150.792 132.013 150.162C132 149.578 132.276 148.998 132.75 148.651C132.882 148.555 132.753 148.335 132.623 148.431Z" fill="#EFA02A"/>
<path d="M131.234 149.139C130.836 149.326 130.565 149.718 130.5 150.15C130.418 150.679 130.693 151.03 130.977 151.443C131.164 151.714 131.244 151.98 131.154 152.306C131.072 152.602 130.905 152.863 130.787 153.144C130.608 153.567 130.532 154.093 130.88 154.452L131.06 154.272C130.686 153.887 130.988 153.3 131.182 152.903C131.384 152.486 131.558 152.034 131.354 151.583C131.165 151.167 130.75 150.869 130.738 150.382C130.726 149.948 130.971 149.542 131.363 149.359C131.511 149.29 131.381 149.071 131.235 149.139H131.234Z" fill="#EFA02A"/>
<path d="M123.277 156.578C123.436 156.517 123.595 156.457 123.754 156.396L123.83 156.337L123.843 156.24L123.687 156.15C123.528 156.212 123.369 156.272 123.21 156.332L123.135 156.39L123.122 156.488L123.278 156.577L123.277 156.578Z" fill="#A56919"/>
<path d="M123.545 157.117L123.881 157.049L123.958 156.99L123.971 156.893L123.912 156.817L123.814 156.805L123.479 156.871L123.403 156.93L123.391 157.027L123.448 157.103L123.545 157.117Z" fill="#A56919"/>
<path d="M123.98 157.654L124.115 157.655L124.164 157.643L124.204 157.617L124.231 157.577L124.243 157.527L124.238 157.494L124.204 157.438L124.115 157.402H123.98L123.933 157.413L123.891 157.438L123.864 157.48L123.855 157.527L123.859 157.562L123.891 157.617L123.98 157.654Z" fill="#A56919"/>
<path d="M96.8548 123.456C103.423 124.49 110.083 124.642 116.72 124.685C123.428 124.727 130.138 124.623 136.841 124.376C140.618 124.237 144.394 124.05 148.166 123.82C148.49 123.802 148.493 123.293 148.166 123.313C141.471 123.722 134.766 123.989 128.059 124.11C121.425 124.23 114.772 124.278 108.141 124.001C104.411 123.847 100.681 123.548 96.9876 122.968C96.6692 122.917 96.5301 123.405 96.8541 123.456H96.8548Z" fill="#99A4DD"/>
<path d="M118.809 121.489C122.068 121.613 125.328 121.696 128.587 121.741C131.862 121.784 135.138 121.788 138.411 121.75C140.251 121.729 142.09 121.694 143.932 121.649C144.257 121.639 144.259 121.134 143.932 121.14C140.673 121.223 137.413 121.266 134.152 121.267C130.878 121.27 127.604 121.233 124.33 121.152C122.489 121.108 120.649 121.051 118.809 120.98C118.484 120.969 118.484 121.476 118.809 121.488V121.489Z" fill="#99A4DD"/>
<path d="M150.167 121.391C151.103 121.477 152.039 121.563 152.975 121.648C153.112 121.662 153.229 121.525 153.229 121.396C153.229 121.249 153.113 121.154 152.975 121.142C152.039 121.057 151.103 120.971 150.167 120.883C150.03 120.871 149.914 121.01 149.914 121.137C149.914 121.285 150.03 121.379 150.167 121.39V121.391Z" fill="#99A4DD"/>
<path d="M109.961 122.022C110.966 122.023 111.97 122.023 112.974 122.023C113.302 122.023 113.304 121.517 112.974 121.517C111.97 121.515 110.966 121.515 109.961 121.515C109.634 121.515 109.634 122.022 109.961 122.022Z" fill="#99A4DD"/>
<path d="M146.416 79.4917C153.934 73.8365 160.417 72.9586 169.391 86.4331C177.225 98.1976 189.846 121.878 189.846 121.878C200.114 111.125 207.994 111.764 214.868 98.5786C215.763 96.8615 218.887 87.0488 220.144 85.5784C221.257 84.2753 226.199 80.2782 232.71 79.7961C233.844 79.7124 234.455 81.0654 233.586 81.7999C230.299 84.5839 225.25 87.2906 225.25 87.2906L232.446 100.749C232.446 100.749 225.635 103.05 223.727 106.43C221.545 110.295 195.21 153.291 187.324 151.33C180.172 149.553 152.415 89.2966 146.471 79.5219L146.416 79.491V79.4917Z" fill="#FBC9A4"/>
<path d="M115.411 81.7235C112.764 80.2088 110.084 78.7567 107.371 77.3678C105.434 76.3775 103.379 75.3956 101.204 75.4638C98.3484 75.5531 95.8884 77.4184 93.7159 79.2761C80.389 90.6772 69.6296 105.06 62.4548 121.063C60.4158 125.609 58.6361 130.466 58.9665 135.435C59.2223 139.294 60.7475 142.969 62.6734 146.32C67.1401 154.097 73.7947 160.446 81.1495 165.577C88.5042 170.708 96.5842 174.696 104.675 178.566C106.19 179.29 107.728 180.018 109.38 180.314C110.964 180.598 112.588 180.474 114.192 180.328C121.432 179.666 128.636 178.566 135.743 177.035C138.792 176.379 143.099 171.81 143.057 171.68C142.882 171.15 142.19 171.221 141.69 171.37C138.692 172.264 135.693 173.159 132.693 174.054C137.014 172.356 142.423 167.519 145.1 163.874C145.485 163.35 144.921 162.654 144.33 162.926L132.949 170.443C136.526 168.033 141.699 164.266 144.642 160.669C145.204 159.981 144.378 159.017 143.625 159.485L143.606 159.497C140.215 161.653 133.826 165.593 130.435 167.749C133.087 165.409 140.973 161.752 142.202 158.431C142.432 157.809 141.675 157.302 141.187 157.752C136.228 162.321 126.767 166.263 120.018 166.668C121.133 164.981 126.935 160.021 127.026 158.946C127.206 156.792 112.972 164.683 107.815 167.967C107.407 168.228 106.976 168.496 106.493 168.538C105.91 168.592 105.355 168.309 104.845 168.022C103.149 167.065 101.548 165.942 100.068 164.678C97.7074 162.665 95.6755 160.305 93.6505 157.954C87.8702 151.243 83.7065 142.373 77.9269 135.659C77.6935 135.389 77.4496 135.09 77.4271 134.735C77.4067 134.413 77.5747 134.112 77.7364 133.832C87.7177 116.66 101.983 96.4638 115.335 81.7558L115.41 81.7249L115.411 81.7235Z" fill="#FBC9A4"/>
<path d="M119.884 79.6715C113.889 75.713 101.136 72.2339 94.3266 74.5231C89.7116 76.075 86.3652 79.9977 83.2635 83.7495C76.2195 92.271 69.1754 100.792 62.1313 109.313C68.7178 116.466 76.9863 122.06 86.0757 125.515C87.0182 125.873 88.0528 126.212 89.0172 125.912C89.7517 125.683 90.3252 125.114 90.8657 124.565C96.388 118.967 92.9405 109.14 98.4615 103.541L119.884 79.6708V79.6715Z" fill="#821E23"/>
<path d="M140.45 78.4809C144.567 77.097 148.686 75.7138 152.803 74.3313C155.463 73.4365 158.255 72.5313 161.022 73.0036C164.807 73.6474 167.672 76.6999 170.062 79.706C177.438 88.9831 183.2 99.5407 187.016 110.762C187.162 111.195 187.307 111.672 187.148 112.102C186.961 112.604 186.424 112.871 185.935 113.09C179.186 116.113 174.375 118.169 167.628 121.192C163.044 115.466 156.86 110.436 152.977 104.213L140.451 78.4809H140.45Z" fill="#821E23"/>
<path d="M117.947 80.7068C118.775 87.6693 118.589 89.4763 120.036 96.3376C120.244 97.3245 120.475 98.3485 121.099 99.1407C121.824 100.061 122.969 100.534 124.079 100.907C126.85 101.836 129.832 102.379 132.699 101.812C135.567 101.247 139.583 99.5575 140.653 96.8374C141.34 95.0894 140.519 86.6832 137.686 70.4429C137.658 70.2869 137.607 70.1245 137.488 70.0205C137.308 69.8609 137.034 69.9003 136.8 69.9495C134.967 70.3347 133.136 70.7212 131.303 71.1071L117.947 80.7068Z" fill="#FBC9A4"/>
<path d="M116.474 78.5168C120.098 79.7911 123.916 82.4233 128.023 82.7101C133.25 83.077 138.172 78.2926 139.784 76.3618C139.573 79.6055 136.84 90.0121 130.749 90.2806C123.707 90.5898 117.782 81.5131 116.474 78.5168Z" fill="#C49372"/>
<path d="M100.001 35.509C100.623 47.693 104.71 67.158 112.656 76.4147C115.213 79.3934 118.151 82.1423 121.699 83.8207C125.247 85.5005 129.488 86.0073 133.117 84.5088C138.459 82.3032 141.273 76.4779 143 70.9633C147.278 57.3004 147.754 42.4687 144.365 28.5584C130.082 26.558 115.705 30.5685 101.902 34.7555L100.002 35.509H100.001Z" fill="#FBC9A4"/>
<path d="M117.399 34.0273C117.27 37.1206 116.016 40.1541 113.925 42.4377C111.81 44.7473 108.774 46.4749 107.874 49.4733C106.678 53.467 109.888 57.5429 109.614 61.701C109.39 65.0958 106.862 68.4049 107.982 71.6169C103.88 70.0411 99.6644 68.7619 95.379 67.792C96.2674 62.0362 95.3608 56.18 95.0269 50.3666C94.6938 44.5533 95.0241 38.4096 98.0612 33.4418C101.232 28.2589 106.841 25.1523 112.271 22.4273C113.325 21.898 114.568 21.366 115.639 21.8608C116.363 22.1953 116.813 22.9207 117.209 23.6123C118.185 25.3153 119.11 27.1013 119.372 29.0454C119.635 30.9909 119.118 33.1431 117.617 34.4068L117.398 34.0273H117.399Z" fill="#D15259"/>
<path d="M101.823 52.7127C99.6255 52.5848 97.448 54.1753 96.9026 56.3071C96.7585 56.8659 96.7178 57.4479 96.7178 58.0256C96.7178 59.0658 96.8541 60.1271 97.3124 61.0598C97.9562 62.3679 99.194 63.3175 100.554 63.8411C101.914 64.3654 103.394 64.5011 104.852 64.4975C103.855 60.5144 103.024 56.4877 102.36 52.4351L101.823 52.7127H101.823Z" fill="#FBC9A4"/>
<path d="M114.819 22.6144C115.819 25.1327 116.556 27.7516 117.011 30.4238C117.139 31.1878 117.246 31.9546 117.328 32.725C117.362 33.0448 117.87 33.049 117.836 32.725C117.541 29.9944 116.969 27.2968 116.11 24.6892C115.864 23.9442 115.597 23.2062 115.308 22.4787C115.19 22.18 114.698 22.3093 114.819 22.6151V22.6144Z" fill="#821E23"/>
<path d="M113.582 32.9582C113.889 35.3142 112.789 37.5155 111.444 39.3725C110.103 41.2273 108.431 42.8165 107.129 44.7002C106.497 45.6139 105.959 46.5965 105.612 47.6536C105.275 48.6833 105.143 49.7713 105.171 50.8509C105.229 53.0572 105.88 55.1953 106.446 57.3109C107.074 59.6605 107.663 62.1297 107.148 64.5588C107.082 64.8772 107.571 65.0135 107.639 64.693C108.583 60.2411 106.14 56.0584 105.732 51.702C105.631 50.6372 105.658 49.5541 105.901 48.5076C106.154 47.4195 106.634 46.4102 107.228 45.4698C108.449 43.5418 110.105 41.9513 111.493 40.1498C113.064 38.1123 114.435 35.6178 114.088 32.9561C114.071 32.819 113.985 32.7045 113.835 32.7017C113.712 32.7017 113.564 32.8204 113.582 32.9561L113.582 32.9582Z" fill="#821E23"/>
<path d="M109.36 34.3661C108.26 36.6335 107.147 38.8939 106.069 41.1698C105.041 43.3416 104.064 45.5429 103.312 47.8272C102.888 49.1163 102.54 50.4271 102.295 51.7618C102.237 52.0816 102.725 52.218 102.784 51.8968C103.655 47.1581 105.827 42.813 107.912 38.5136C108.54 37.2162 109.168 35.9187 109.798 34.6233C109.939 34.3302 109.501 34.073 109.36 34.3661Z" fill="#821E23"/>
<path d="M105.383 34.2306C103.462 37.1616 102.177 40.5051 101.639 43.9666C101.485 44.9492 101.392 45.9403 101.357 46.9341C101.345 47.2609 101.854 47.2595 101.864 46.9341C101.983 43.4978 102.843 40.0925 104.371 37.0147C104.804 36.1424 105.288 35.2997 105.821 34.4865C106 34.213 105.562 33.9586 105.383 34.2306H105.383Z" fill="#821E23"/>
<path d="M102.074 31.3605C99.9673 33.9927 98.7669 37.2968 98.6727 40.6656C98.6446 41.6194 98.7128 42.571 98.8632 43.5122C98.9152 43.8334 99.4051 43.6963 99.3524 43.3779C98.8442 40.1996 99.4233 36.8659 100.924 34.0243C101.355 33.2111 101.857 32.4365 102.431 31.7189C102.635 31.4666 102.278 31.1046 102.073 31.3605H102.074Z" fill="#821E23"/>
<path d="M109.631 26.7232C108.667 27.9701 107.954 29.3835 107.541 30.9059C107.456 31.2208 107.945 31.3564 108.03 31.0394C108.417 29.6084 109.081 28.2554 109.988 27.0838C110.187 26.8279 109.829 26.4659 109.631 26.7239V26.7232Z" fill="#821E23"/>
<path d="M96.5296 37.5962C95.2441 40.9559 95.7003 44.6339 95.5899 48.1454C95.4753 51.7933 94.9215 55.4214 93.9523 58.9392C93.4082 60.915 92.7328 62.8549 91.928 64.7392C91.8029 65.0365 92.2401 65.2952 92.3666 64.9958C93.8053 61.622 94.8505 58.0867 95.4626 54.4704C95.7656 52.6774 95.9666 50.8669 96.0601 49.0507C96.1507 47.2535 96.0925 45.4577 96.1135 43.6598C96.1374 41.6503 96.2962 39.6254 97.0202 37.7318C97.1376 37.4268 96.6456 37.2954 96.5296 37.5969V37.5962Z" fill="#D15259"/>
<path d="M99.1242 56.6448C100.355 57.4173 101.455 58.3718 102.397 59.4766C102.61 59.7262 102.967 59.3649 102.755 59.1182C101.787 57.9824 100.644 57.0012 99.3807 56.2076C99.1031 56.0333 98.8487 56.4726 99.1249 56.6448H99.1242Z" fill="#93674A"/>
<path d="M100.409 57.8711C100.186 59.1061 100.771 60.4134 101.863 61.0418C102.147 61.2041 102.403 60.7655 102.12 60.6032C101.236 60.0943 100.714 59.0182 100.899 58.0075C100.923 57.8712 100.861 57.7341 100.721 57.694C100.598 57.6603 100.433 57.7362 100.409 57.8711Z" fill="#93674A"/>
<path d="M120.02 63.3992C120.02 64.6405 119.185 65.647 118.154 65.647C117.125 65.6456 116.29 64.6391 116.29 63.3971C116.291 62.1544 117.125 61.1479 118.155 61.1479C119.187 61.1479 120.022 62.1559 120.02 63.3985V63.3992Z" fill="#141515"/>
<path d="M138.083 61.8992C138.083 63.1404 137.248 64.1469 136.218 64.1469C135.189 64.1469 134.354 63.139 134.354 61.8978C134.355 60.6551 135.189 59.6479 136.219 59.6479C137.25 59.6479 138.085 60.6559 138.083 61.8985V61.8992Z" fill="#141515"/>
<path d="M125.095 66.309C126.567 65.4424 128.226 64.7662 129.919 64.4956C130.228 64.4464 130.605 64.4169 130.868 64.6222C130.934 64.6742 131.005 64.7691 131.068 64.8914L131.175 65.2484C131.265 66.051 130.708 66.8284 130.345 67.4975C129.831 68.4513 129.315 69.403 128.801 70.3561C128.489 70.9296 129.365 71.4427 129.677 70.8663C130.185 69.9266 130.693 68.9862 131.201 68.0465C131.655 67.2065 132.273 66.276 132.191 65.2772C132.112 64.3101 131.492 63.5425 130.495 63.4561C130.006 63.4132 129.503 63.5348 129.027 63.6438C128.559 63.7527 128.095 63.8856 127.637 64.0381C126.575 64.3944 125.548 64.8618 124.581 65.4318C124.02 65.7636 124.529 66.6415 125.094 66.3076L125.095 66.309Z" fill="#93674A"/>
<path d="M123.299 72.8316C124.713 74.2661 126.861 74.8614 128.811 74.3673C129.444 74.2092 129.176 73.2301 128.542 73.3903C126.951 73.7903 125.187 73.3025 124.017 72.1139C123.557 71.6472 122.84 72.3649 123.299 72.8316Z" fill="#93674A"/>
<path d="M116.884 54.1193C114.88 55.9524 113.455 58.4117 112.857 61.0608C114.705 60.2926 116.263 58.9733 117.788 57.6751C118.463 57.1008 119.157 56.502 119.542 55.7015C119.693 55.388 119.784 55.0323 119.8 54.6802C119.833 53.8853 119.032 53.3188 118.287 53.5964L116.884 54.1193Z" fill="#D15259"/>
<path d="M134.295 52.2967C136.708 53.5436 138.727 55.5432 139.995 57.9463C138.009 57.6876 136.161 56.821 134.351 55.9663C133.548 55.5861 132.722 55.1897 132.141 54.5198C131.913 54.2549 131.733 53.9357 131.627 53.5998C131.387 52.8421 132.012 52.0851 132.804 52.1582L134.295 52.2967Z" fill="#D15259"/>
<path d="M153.865 35.6503C152.913 31.753 151.662 27.805 149.117 24.7019C145.293 20.0476 138.993 17.979 132.969 17.9952C126.944 18.0121 121.085 19.8606 115.403 21.8574L115.973 24.2788C116.892 27.5625 117.345 30.9749 117.317 34.3838C120.495 34.1132 123.731 34.1314 126.83 34.8849C129.929 35.6398 132.898 37.177 134.996 39.58C138.558 43.6573 141.631 60.8612 141.874 64.1387C143.492 64.1197 144.992 63.9601 146.403 63.6544C146.336 62.5481 146.271 61.4425 146.205 60.3369C146.558 61.1719 146.913 62.0061 147.265 62.8411C147.339 63.0155 147.433 63.1989 147.543 63.3704C148.303 63.156 149.037 62.8939 149.75 62.5853C149.583 61.5852 149.505 60.5716 149.518 59.5574C149.938 60.4058 150.342 61.2618 150.728 62.1271C150.898 62.0406 151.067 61.9528 151.235 61.8607C151.271 60.7164 151.307 59.5729 151.344 58.4286C151.806 59.2671 152.267 60.1056 152.729 60.9448L153.012 60.7515C152.983 59.9285 153.091 59.102 153.332 58.3155C153.599 58.8461 153.865 59.3754 154.133 59.906C154.993 59.2116 155.835 58.4314 156.668 57.5585C156.56 50.1827 155.617 42.8174 153.865 35.6503Z" fill="#D15259"/>
<path d="M118.75 31.2061C121.22 32.2035 123.923 32.1487 126.534 32.3567C127.803 32.4572 129.067 32.6273 130.287 33.0047C131.366 33.3379 132.398 33.8151 133.362 34.4048C135.295 35.5835 136.955 37.1938 138.293 39.0128C139.789 41.0462 140.88 43.3473 141.693 45.7314C142.557 48.2744 143.117 50.9115 143.573 53.5556C143.63 53.8811 143.684 54.2065 143.737 54.5333C143.789 54.8559 144.278 54.7189 144.226 54.3991C143.786 51.712 143.265 49.0299 142.453 46.4286C141.68 43.9581 140.64 41.5424 139.182 39.3951C137.883 37.4834 136.273 35.7733 134.369 34.4562C133.43 33.8067 132.419 33.2613 131.358 32.8445C130.203 32.3911 129 32.1254 127.771 31.9736C125.132 31.6447 122.407 31.8204 119.834 31.0529C119.512 30.9566 119.195 30.8448 118.884 30.7183C118.581 30.5953 118.45 31.0866 118.748 31.2075L118.75 31.2061Z" fill="#821E23"/>
<path d="M120.207 28.4605C123.209 29.0671 126.194 29.758 129.157 30.5368C131.674 31.1982 134.227 31.8793 136.557 33.0643C137.677 33.635 138.742 34.3203 139.674 35.1672C140.67 36.0725 141.489 37.143 142.188 38.29C142.892 39.4498 143.476 40.677 144.024 41.9168C144.606 43.241 145.134 44.5891 145.608 45.9554C146.553 48.6811 147.283 51.4799 147.787 54.3209C147.851 54.6821 147.91 55.0434 147.968 55.4075C148.017 55.7294 148.506 55.5916 148.456 55.2718C148.001 52.3704 147.313 49.5063 146.4 46.7159C145.942 45.32 145.428 43.9424 144.86 42.5887C144.322 41.3102 143.752 40.0394 143.082 38.8249C142.428 37.6399 141.668 36.5013 140.741 35.5074C139.861 34.5649 138.828 33.7714 137.716 33.1212C135.49 31.8118 132.989 31.0464 130.512 30.373C127.524 29.5626 124.512 28.8408 121.482 28.2054C121.103 28.1267 120.722 28.048 120.342 27.9721C120.024 27.9081 119.886 28.3959 120.206 28.4613L120.207 28.4605Z" fill="#821E23"/>
<path d="M120.468 26.0285C123.255 27.0209 126.171 27.5551 129.047 28.2151C131.895 28.8695 134.747 29.6658 137.283 31.1538C139.622 32.5257 141.628 34.4017 143.305 36.5194C145.102 38.7833 146.512 41.3297 147.678 43.969C148.952 46.8528 149.937 49.8554 150.89 52.858C151.01 53.2327 151.129 53.6073 151.248 53.9819C151.345 54.294 151.834 54.1604 151.737 53.8484C150.773 50.7965 149.806 47.7405 148.575 44.7829C147.438 42.0537 146.08 39.4081 144.323 37.0219C142.694 34.8072 140.75 32.8153 138.455 31.2887C136.014 29.6637 133.23 28.7183 130.402 28.0183C127.487 27.2957 124.516 26.7953 121.648 25.8914C121.298 25.7804 120.948 25.6637 120.602 25.5393C120.294 25.4296 120.162 25.9209 120.468 26.0285Z" fill="#821E23"/>
<path d="M122.589 24.0117C125.587 24.0805 128.599 24.174 131.571 24.6196C134.463 25.054 137.344 25.8222 139.904 27.2687C142.591 28.789 144.699 31.0353 146.372 33.6064C148.153 36.3433 149.556 39.353 150.733 42.3914C151.96 45.5571 152.908 48.8303 153.562 52.1605C153.641 52.5688 153.718 52.9751 153.789 53.3849C153.845 53.7047 154.333 53.5697 154.278 53.2499C153.685 49.8537 152.791 46.513 151.606 43.2756C150.46 40.1409 149.073 37.0532 147.342 34.1954C145.726 31.5302 143.705 29.094 141.074 27.3847C138.577 25.7618 135.695 24.8368 132.783 24.3076C129.792 23.7664 126.747 23.6145 123.712 23.5316C123.339 23.5225 122.964 23.5126 122.589 23.5035C122.263 23.4965 122.263 24.0032 122.589 24.0117Z" fill="#821E23"/>
<path d="M142.455 25.6336C144.223 27.4309 145.789 29.4178 147.121 31.5601C147.502 32.1744 147.862 32.8 148.204 33.4361C148.359 33.7242 148.798 33.4691 148.641 33.1816C147.433 30.9339 145.979 28.8232 144.308 26.8946C143.828 26.3386 143.33 25.7988 142.813 25.2745C142.584 25.0411 142.226 25.4003 142.455 25.6329V25.6336Z" fill="#821E23"/>
<path d="M124.734 20.6114C127.737 18.883 131.176 18.034 134.625 18.015C138.075 17.9953 141.548 18.7916 144.617 20.3632C146.174 21.1617 147.608 22.1379 148.887 23.3019C150.377 24.6577 151.631 26.2497 152.7 27.9555C153.833 29.7612 154.768 31.6898 155.574 33.6606C156.441 35.7811 157.169 37.9565 157.755 40.1698C158.923 44.5803 159.523 49.1355 159.527 53.6963C159.527 54.2593 159.519 54.823 159.501 55.3846C159.48 56.0383 160.496 56.0383 160.516 55.3846C160.658 50.6965 160.182 45.9902 159.113 41.4237C158.581 39.1422 157.899 36.8973 157.071 34.7065C156.28 32.6148 155.375 30.5561 154.272 28.6092C153.204 26.7248 151.939 24.9318 150.425 23.3771C149.171 22.0887 147.729 20.9747 146.179 20.0652C143.063 18.2357 139.491 17.213 135.887 17.0289C132.286 16.8461 128.637 17.53 125.389 19.1142C124.994 19.3075 124.604 19.5156 124.223 19.7356C123.656 20.0624 124.169 20.9382 124.735 20.6114H124.734Z" fill="#D15259"/>
<path d="M116.628 34.3041C119.745 35.3724 123.029 35.8426 126.131 36.9553C128.515 37.8099 130.754 39.0645 132.755 40.6122C134.763 42.1641 136.544 44.0162 138.03 46.072C139.516 48.1293 140.72 50.3953 141.569 52.7886C142.416 55.1755 142.915 57.6875 142.992 60.2206C143.003 60.5369 143.005 60.8539 143.003 61.1695C143 61.4963 143.508 61.4963 143.511 61.1695C143.531 58.5893 143.131 56.0112 142.359 53.5511C141.584 51.0869 140.448 48.7394 139.011 46.595C137.572 44.4512 135.837 42.5029 133.854 40.8484C131.871 39.1938 129.655 37.8331 127.266 36.8505C124.265 35.6163 121.04 35.1173 117.943 34.1923C117.547 34.0735 117.154 33.9484 116.763 33.8135C116.454 33.7066 116.321 34.1972 116.628 34.3041Z" fill="#D15259"/>
<path d="M115.509 68.3633H115.316L115.219 68.3858L115.138 68.4378L115.084 68.5207L115.063 68.6177L115.072 68.6859L115.138 68.7976L115.188 68.8363L115.316 68.8714H115.509L115.607 68.8497L115.689 68.7976L115.741 68.7154L115.763 68.6177L115.753 68.5503L115.689 68.4378L115.637 68.3991L115.509 68.3633Z" fill="#D15259"/>
<path d="M135.578 69.9791V70.1738L135.599 70.2715L135.651 70.3537L135.734 70.4057L135.831 70.4275L135.899 70.4177L136.011 70.3537L136.05 70.3017L136.084 70.1738V69.9791L136.063 69.8821L136.011 69.8005L135.928 69.7486L135.831 69.7261L135.763 69.7352L135.651 69.8005L135.613 69.8526L135.578 69.9791Z" fill="#D15259"/>
<path d="M243.509 76.4952C244.242 77.2472 244.545 78.4456 244.105 79.4135C245.053 79.3614 246.004 79.9238 246.416 80.7798C246.827 81.6345 246.674 82.7296 246.043 83.438C247.4 83.566 248.424 85.1129 248.012 86.4111C248.337 86.1686 248.84 86.3352 249.075 86.6677C249.31 86.9994 249.337 87.4345 249.307 87.84C249.179 89.6851 248.023 91.4317 246.345 92.2294C245.93 92.4255 245.447 92.4684 245.026 92.287C244.263 91.9602 244.235 91.2187 244.332 90.5763C244.464 89.704 244.783 88.8613 245.26 88.1233C244.953 88.8191 244.627 89.541 243.945 89.95C243.547 90.1883 243.052 90.2537 242.634 90.0512C241.787 89.638 241.812 88.4733 242.073 87.5955C242.438 86.3619 243.057 85.2057 243.881 84.2182C243.187 85.4714 242.227 86.5756 241.081 87.4352C240.91 87.5645 240.708 87.6552 240.495 87.677C239.674 87.7529 239.401 86.8792 239.389 86.1792C239.35 84.039 240.388 81.9072 242.096 80.6182C241.172 81.2142 240.767 82.4055 239.686 82.8497C239.257 83.0262 238.759 82.991 238.397 82.705C237.948 82.3514 238 81.8608 238.086 81.4152C238.43 79.6278 239.277 77.9389 240.494 76.5859C240.852 76.188 241.353 75.9428 241.888 75.9027C242.487 75.857 243.088 76.0643 243.509 76.4952H243.509Z" fill="#FBC9A4"/>
<path d="M239.444 83.2823C241.286 82.3046 242.776 80.6944 243.597 78.7756C243.725 78.4783 243.288 78.2196 243.16 78.5198C242.368 80.3662 240.964 81.9026 239.188 82.8438C238.899 82.997 239.155 83.4341 239.444 83.2823Z" fill="#93674A"/>
<path d="M241.11 87.0819C243.241 86.3369 245.05 84.7892 246.098 82.7874C246.25 82.4986 245.811 82.2427 245.661 82.5302C244.674 84.4146 242.984 85.8899 240.974 86.592C240.669 86.7003 240.801 87.1909 241.111 87.0826L241.11 87.0819Z" fill="#93674A"/>
<path d="M244.062 90.1992C245.663 89.2257 246.953 87.7729 247.718 86.0607C247.85 85.7648 247.413 85.5076 247.279 85.8063C246.549 87.4426 245.338 88.8293 243.806 89.762C243.528 89.9314 243.782 90.37 244.062 90.1992H244.062Z" fill="#93674A"/>
<path d="M225.314 87.1289C225.972 89.9917 225.487 93.0766 224.038 95.6286C223.629 96.3512 223.142 97.0273 222.584 97.6437C222.367 97.8862 222.726 98.2475 222.944 98.0036C225.011 95.713 226.144 92.6415 226.111 89.5594C226.1 88.6956 225.996 87.8339 225.804 86.9926C225.73 86.6749 225.241 86.8084 225.314 87.1289Z" fill="#93674A"/>
<path d="M188.534 122.095C187.943 126.216 188.076 130.423 188.936 134.497C189.182 135.658 189.488 136.806 189.85 137.934C189.949 138.244 190.438 138.112 190.339 137.8C189.09 133.901 188.536 129.796 188.704 125.704C188.752 124.541 188.86 123.382 189.026 122.231C189.044 122.093 188.991 121.96 188.848 121.918C188.729 121.884 188.555 121.96 188.534 122.095V122.095Z" fill="#93674A"/>
<path d="M67.6932 131.505C68.6589 131.478 69.6226 131.512 70.5623 131.759C71.7023 132.058 72.7608 132.606 73.7863 133.174C74.6825 133.673 75.5596 134.204 76.4333 134.739C76.713 134.91 76.9696 134.472 76.6906 134.301C75.2947 133.446 73.8903 132.575 72.3982 131.896C71.4479 131.463 70.4674 131.149 69.4251 131.042C68.8509 130.982 68.2702 130.981 67.6932 130.997C67.3657 131.006 67.3643 131.514 67.6932 131.505Z" fill="#93674A"/>
<path d="M130.118 168.323C133.315 166.733 136.361 164.846 139.207 162.688C140.018 162.074 140.81 161.438 141.587 160.783C141.838 160.572 141.476 160.215 141.229 160.424C138.516 162.712 135.588 164.746 132.498 166.488C131.633 166.976 130.753 167.441 129.862 167.885C129.57 168.029 129.825 168.469 130.118 168.322V168.323Z" fill="#93674A"/>
<path d="M131.824 170.955C135.022 169.082 138.152 167.048 140.997 164.666C141.78 164.012 142.537 163.325 143.257 162.601C143.489 162.369 143.13 162.012 142.899 162.244C140.299 164.857 137.245 167.004 134.134 168.963C133.287 169.494 132.431 170.012 131.568 170.518C131.287 170.683 131.542 171.121 131.824 170.956V170.955Z" fill="#93674A"/>
<path d="M128.178 167.015C130.083 168.985 131.608 171.326 132.623 173.874C132.768 174.239 132.905 174.608 133.028 174.981C133.141 175.32 133.236 175.681 133.513 175.925C133.757 176.139 134.117 175.783 133.872 175.566C133.632 175.354 133.572 175.003 133.47 174.71C133.359 174.383 133.24 174.061 133.112 173.74C132.861 173.111 132.583 172.493 132.278 171.89C131.656 170.672 130.917 169.517 130.08 168.436C129.598 167.814 129.083 167.22 128.536 166.655C128.309 166.421 127.951 166.781 128.178 167.015Z" fill="#93674A"/>
<path d="M106.185 169.16C106.065 170.401 106.159 171.651 106.45 172.86C106.526 173.178 107.017 173.043 106.939 172.726C106.657 171.558 106.577 170.358 106.691 169.16C106.722 168.836 106.214 168.838 106.185 169.16H106.185Z" fill="#93674A"/>
<path d="M140.108 198.701C142.977 195.217 145.929 191.798 149 188.486C152.077 185.168 155.273 181.954 158.62 178.905C161.917 175.898 165.363 173.049 168.983 170.435C172.586 167.834 176.36 165.462 180.304 163.41C184.22 161.371 188.301 159.656 192.518 158.341C193.047 158.176 193.582 158.017 194.114 157.863C194.743 157.684 194.474 156.704 193.845 156.885C189.526 158.123 185.33 159.776 181.303 161.765C177.306 163.741 173.479 166.047 169.826 168.596C166.124 171.179 162.593 174.007 159.218 177.003C155.822 180.016 152.582 183.203 149.466 186.503C146.352 189.802 143.36 193.212 140.457 196.695C140.099 197.123 139.745 197.552 139.388 197.983C139.215 198.194 139.183 198.494 139.388 198.701C139.568 198.881 139.931 198.915 140.107 198.701H140.108Z" fill="#CE8320"/>
<path d="M185.351 154.546C183.741 157.19 181.794 159.612 179.563 161.758C179.09 162.21 179.809 162.928 180.281 162.475C182.571 160.272 184.574 157.771 186.228 155.057C186.567 154.499 185.691 153.988 185.352 154.546H185.351Z" fill="#CE8320"/>
<path d="M62.2497 169.689C67.0938 170.63 71.8697 171.925 76.5282 173.556C81.179 175.182 85.7083 177.142 90.0815 179.413C94.4631 181.686 98.6873 184.267 102.708 187.129C106.723 189.984 110.531 193.127 114.099 196.522C115.899 198.236 117.636 200.013 119.306 201.852C120.131 202.759 120.938 203.682 121.73 204.619C122.13 205.093 122.527 205.572 122.918 206.054C123.096 206.273 123.274 206.504 123.388 206.764L123.422 207.318L123.509 207.27L123.49 207.266L123.376 207.216L123.307 207.144L123.335 207.247C123.294 207.392 123.163 207.515 123.263 207.465C123.848 207.172 123.334 206.296 122.751 206.587C121.645 207.142 122.873 208.536 123.79 208.242C124.426 208.037 124.588 207.262 124.434 206.685C124.26 206.028 123.777 205.506 123.356 204.994C121.708 202.984 119.982 201.038 118.185 199.162C114.57 195.387 110.667 191.898 106.529 188.704C102.415 185.528 98.0653 182.655 93.5276 180.118C88.9808 177.575 84.247 175.367 79.3769 173.518C74.5202 171.671 69.5228 170.19 64.4397 169.1C63.8008 168.964 63.1598 168.833 62.5181 168.708C61.8792 168.584 61.6058 169.563 62.2489 169.689L62.2497 169.689Z" fill="#CE8320"/>
<path d="M67.788 168.35C69.1375 169.081 70.4146 169.944 71.5834 170.938C71.7929 171.115 72.0972 171.141 72.3024 170.938C72.4837 170.755 72.5119 170.398 72.3024 170.221C71.0647 169.17 69.7264 168.246 68.2996 167.472C67.7247 167.163 67.2116 168.038 67.7872 168.35H67.788Z" fill="#CE8320"/>
<path d="M139.741 198.881C135.997 201.501 133.572 203.539 129.828 206.16C128.978 206.755 128.08 207.37 127.047 207.486C125.563 207.653 124.145 206.753 122.653 206.743C120.286 206.726 118.439 208.968 117.872 211.265C117.307 213.564 117.648 215.974 117.575 218.34C117.413 223.681 115.162 228.698 113.386 233.738C111.61 238.777 110.286 244.338 111.982 249.405C117.263 242.817 121.37 235.368 126.439 228.616C131.508 221.864 135.732 217.549 143.714 214.801L139.741 198.879V198.881Z" fill="#FBC9A4"/>
<path d="M128.725 207.047C128.382 211.174 123.803 213.598 122.239 217.431C121.543 219.136 121.487 221.017 121.26 222.842C120.796 226.584 119.567 230.228 117.672 233.486C116.735 235.101 115.617 236.659 115.169 238.471C114.722 240.283 115.14 242.479 116.72 243.474C116.033 245.097 115.065 246.603 113.87 247.902C113.527 248.274 113.134 248.647 112.635 248.734C111.389 248.947 110.66 247.382 110.465 246.133C109.656 240.969 110.346 235.576 112.429 230.78C113.909 227.377 116.093 224.191 116.598 220.516C117.135 216.622 115.814 212.191 118.134 209.016C120.365 205.961 125.287 205.489 128.746 207.026L128.725 207.047L128.725 207.047Z" fill="#B03537"/>
<path d="M119.938 227.969C122.075 227.912 124.153 229.009 125.326 230.793C125.723 231.398 126.665 230.786 126.268 230.181C124.874 228.056 122.41 226.779 119.871 226.847C119.147 226.865 119.214 227.987 119.938 227.969V227.969Z" fill="#B03537"/>
<path d="M144.164 193.219C144.857 196.277 145.583 199.325 146.349 202.363C147.11 205.39 147.908 208.407 148.741 211.415C149.211 213.111 149.694 214.806 150.187 216.497C150.368 217.122 151.35 216.857 151.165 216.227C150.287 213.219 149.444 210.198 148.639 207.17C147.837 204.154 147.072 201.13 146.342 198.096C145.931 196.382 145.531 194.668 145.141 192.951C145.083 192.682 144.773 192.527 144.518 192.596C144.244 192.672 144.102 192.952 144.164 193.22V193.219Z" fill="#CE8320"/>
<path d="M109.57 230.75C110.467 228.229 111.599 225.8 112.944 223.487C113.273 222.92 112.397 222.41 112.068 222.973C110.68 225.362 109.517 227.877 108.591 230.481C108.499 230.739 108.694 231.035 108.945 231.105C109.225 231.184 109.476 231.01 109.57 230.75Z" fill="#CE8320"/>
<path d="M79.8752 207.576C81.8376 209.97 83.9644 212.226 86.2382 214.325C88.526 216.435 90.9607 218.39 93.5156 220.167C94.9494 221.166 96.4226 222.106 97.9302 222.99C98.4953 223.32 99.0077 222.443 98.4433 222.114C95.8005 220.566 93.259 218.841 90.8567 216.941C88.4487 215.037 86.1714 212.969 84.0459 210.751C82.8447 209.5 81.6942 208.2 80.5928 206.859C80.4199 206.645 80.0565 206.677 79.8752 206.859C79.6657 207.068 79.7009 207.362 79.8752 207.576V207.576Z" fill="#CE8320"/>
<path d="M83.5257 204.279C86.6429 207.705 89.9203 210.985 93.3481 214.103C94.3125 214.981 95.2894 215.846 96.2762 216.698C96.4842 216.877 96.7907 216.902 96.9952 216.698C97.178 216.516 97.2033 216.161 96.9952 215.979C93.4873 212.953 90.122 209.763 86.9155 206.42C86.0117 205.479 85.1205 204.527 84.2433 203.562C84.0584 203.359 83.7126 203.374 83.5257 203.562C83.3233 203.763 83.3408 204.076 83.5257 204.279Z" fill="#CE8320"/>
<path d="M175.063 202.129C178.051 198.356 181.224 194.73 184.57 191.267C187.913 187.806 191.427 184.509 195.095 181.391C197.136 179.657 199.224 177.977 201.357 176.36C201.576 176.194 201.689 175.92 201.539 175.665C201.415 175.45 201.065 175.315 200.845 175.482C196.974 178.418 193.248 181.536 189.684 184.838C186.153 188.108 182.782 191.553 179.588 195.153C177.783 197.191 176.035 199.278 174.345 201.411C174.174 201.626 174.136 201.919 174.345 202.129C174.521 202.306 174.892 202.345 175.063 202.129Z" fill="#CE8320"/>
<path d="M184.208 197.384C187.321 194.16 190.63 191.125 194.111 188.304C195.083 187.517 196.067 186.747 197.065 185.993C197.284 185.828 197.397 185.556 197.248 185.3C197.121 185.084 196.773 184.952 196.553 185.118C192.929 187.851 189.471 190.796 186.205 193.949C185.285 194.839 184.38 195.745 183.491 196.666C183.036 197.137 183.754 197.854 184.208 197.384Z" fill="#CE8320"/>
<path d="M68.7055 191.798C69.5904 193.228 70.476 194.659 71.3602 196.088C71.7039 196.642 72.5832 196.135 72.2374 195.578C71.3532 194.147 70.4682 192.716 69.5826 191.285C69.2403 190.732 68.3597 191.242 68.7055 191.798Z" fill="#CE8320"/>
<path d="M73.8693 191.486L73.955 191.582L73.9951 191.63L73.9733 191.603L74.0478 191.705L74.1188 191.81L74.2467 192.03L74.3029 192.143L74.3296 192.201L74.3149 192.168L74.3619 192.287L74.4035 192.408L74.4702 192.652L74.5166 192.902C74.4751 192.752 74.511 192.881 74.5152 192.925L74.5243 193.051C74.5349 193.316 74.7485 193.573 75.0297 193.56C75.2946 193.548 75.5512 193.335 75.5379 193.051C75.4978 192.201 75.1632 191.398 74.5876 190.771C74.409 190.574 74.0499 190.574 73.8699 190.771C73.6781 190.979 73.6795 191.278 73.8699 191.488L73.8693 191.486Z" fill="#CE8320"/>
<path d="M80.3203 191.255C80.4496 191.771 80.5803 192.287 80.7082 192.805C80.7736 193.06 81.0772 193.242 81.3338 193.158C81.5988 193.072 81.7562 192.809 81.688 192.534C81.5573 192.017 81.4279 191.502 81.3 190.986C81.2354 190.728 80.931 190.548 80.6752 190.632C80.4102 190.718 80.2514 190.979 80.3203 191.255Z" fill="#CE8320"/>
<path d="M53.0898 184.186C54.5925 185.264 55.8457 186.67 56.7644 188.273C57.0884 188.84 57.967 188.329 57.6401 187.761C56.6322 186.002 55.2497 184.49 53.6015 183.308C53.3787 183.149 53.0364 183.27 52.9085 183.491C52.7574 183.748 52.8656 184.026 53.0898 184.185V184.186Z" fill="#CE8320"/>
<path d="M89.6979 195.236C90.083 196.01 90.4682 196.786 90.8541 197.561C90.9715 197.799 91.3271 197.885 91.5471 197.743C91.7909 197.585 91.8564 197.305 91.7298 197.048C91.3447 196.274 90.9602 195.498 90.5751 194.723C90.4563 194.484 90.1006 194.399 89.8806 194.541C89.6381 194.698 89.5728 194.979 89.6979 195.236Z" fill="#CE8320"/>
<path d="M94.267 195.246C94.1869 195.631 94.2509 196.041 94.4723 196.37C94.6866 196.688 95.0114 196.952 95.3965 197.024C95.5308 197.05 95.6636 197.044 95.7873 196.972C95.892 196.912 95.9926 196.791 96.0207 196.67C96.0502 196.539 96.0432 196.393 95.9701 196.279C95.9012 196.174 95.7936 196.069 95.6664 196.046L95.4858 195.992L95.6074 196.044L95.3959 195.919L95.497 195.999L95.3101 195.81L95.3895 195.914L95.2553 195.686L95.3059 195.807L95.2349 195.553L95.2525 195.69V195.441L95.2349 195.577L95.2454 195.516C95.2735 195.381 95.2644 195.245 95.1934 195.124C95.133 195.02 95.0121 194.917 94.8905 194.891C94.7611 194.862 94.6157 194.867 94.4997 194.943C94.3929 195.012 94.2945 195.116 94.2663 195.246H94.267Z" fill="#CE8320"/>
<path d="M174.454 176.005L174.77 175.74L174.791 175.725L174.895 175.648L175.066 175.53C175.303 175.374 175.55 175.234 175.806 175.111L175.993 175.025L176.015 175.016L176.11 174.976C176.239 174.925 176.367 174.88 176.499 174.839C176.779 174.751 177.063 174.684 177.353 174.636C177.616 174.591 177.786 174.252 177.706 174.011C177.616 173.728 177.364 173.609 177.084 173.657C175.838 173.866 174.677 174.449 173.738 175.288C173.539 175.466 173.543 175.827 173.738 176.005C173.95 176.199 174.245 176.195 174.456 176.005L174.454 176.005Z" fill="#CE8320"/>
<path d="M173.089 181.974C173.606 181.846 174.122 181.716 174.638 181.586C174.895 181.522 175.075 181.219 174.991 180.964C174.905 180.696 174.643 180.539 174.367 180.608C173.853 180.739 173.335 180.866 172.819 180.997C172.562 181.061 172.381 181.364 172.466 181.621C172.551 181.888 172.812 182.044 173.089 181.974Z" fill="#CE8320"/>
<path d="M172.497 187.206C173.134 186.681 173.77 186.153 174.407 185.627C174.612 185.458 174.595 185.083 174.407 184.909C174.188 184.708 173.909 184.728 173.689 184.909C173.052 185.435 172.416 185.963 171.779 186.488C171.575 186.657 171.59 187.031 171.779 187.205C171.998 187.407 172.277 187.386 172.497 187.205V187.206Z" fill="#CE8320"/>
<path d="M191.896 165.969C192.153 165.71 192.412 165.452 192.671 165.194C192.761 165.102 192.818 164.966 192.818 164.837C192.818 164.711 192.762 164.563 192.671 164.477C192.573 164.389 192.447 164.322 192.311 164.329C192.177 164.334 192.049 164.379 191.952 164.477C191.694 164.735 191.437 164.993 191.179 165.25C191.086 165.343 191.03 165.479 191.03 165.61C191.03 165.734 191.085 165.883 191.179 165.969C191.276 166.058 191.402 166.124 191.536 166.118C191.673 166.111 191.799 166.066 191.896 165.969Z" fill="#CE8320"/>
<path d="M195.652 168.744C196.039 168.485 196.425 168.227 196.813 167.97C196.923 167.895 197.011 167.797 197.047 167.666C197.081 167.544 197.065 167.382 196.996 167.276C196.925 167.167 196.822 167.072 196.693 167.042C196.564 167.013 196.416 167.018 196.301 167.093C195.914 167.351 195.526 167.609 195.139 167.867C195.029 167.94 194.942 168.04 194.907 168.17C194.872 168.292 194.888 168.454 194.957 168.561C195.026 168.669 195.132 168.763 195.26 168.794C195.389 168.824 195.537 168.818 195.652 168.744Z" fill="#CE8320"/>
<path d="M118.332 181.955C119.184 184.526 119.881 187.144 120.42 189.799C120.956 192.434 121.331 195.099 121.544 197.781C121.665 199.303 121.735 200.83 121.75 202.358C121.758 203.01 122.774 203.013 122.766 202.358C122.734 199.624 122.537 196.892 122.175 194.184C121.813 191.468 121.298 188.774 120.614 186.12C120.231 184.629 119.796 183.149 119.309 181.686C119.223 181.426 118.96 181.255 118.686 181.331C118.432 181.402 118.245 181.694 118.332 181.955Z" fill="#CE8320"/>
<path d="M140.349 183.269C139.371 186.109 139.263 189.225 140.021 192.13C140.185 192.761 141.164 192.494 140.999 191.861C140.285 189.12 140.407 186.214 141.327 183.538C141.415 183.28 141.225 182.984 140.972 182.914C140.693 182.838 140.438 183.008 140.349 183.269Z" fill="#CE8320"/>
<path d="M156.912 88.3575C158.545 92.3497 159.966 96.4284 161.162 100.574C162.355 104.705 163.327 108.901 164.072 113.137C164.487 115.503 164.831 117.88 165.103 120.269C165.134 120.541 165.313 120.777 165.609 120.777C165.86 120.777 166.148 120.542 166.118 120.269C165.626 115.936 164.907 111.633 163.953 107.378C163.01 103.168 161.841 99.0107 160.45 94.9257C159.666 92.6217 158.81 90.3403 157.889 88.0869C157.784 87.8339 157.551 87.6539 157.264 87.7333C157.025 87.7987 156.805 88.1016 156.912 88.3575Z" fill="#D15259"/>
<path d="M94.4307 88.9283C94.3723 92.7567 94.385 96.5859 94.4693 100.415C94.5523 104.243 94.7069 108.07 94.9333 111.891C95.0612 114.047 95.2109 116.202 95.3838 118.357C95.4063 118.629 95.601 118.862 95.8906 118.862C96.1478 118.862 96.4198 118.632 96.3987 118.357C96.0922 114.538 95.8589 110.717 95.6937 106.892C95.5278 103.066 95.4365 99.2385 95.4147 95.4093C95.4027 93.2494 95.4133 91.0895 95.4456 88.9297C95.4562 88.2767 94.4405 88.2767 94.4307 88.9297V88.9283Z" fill="#D15259"/>
<path d="M116.32 98.0072C116.983 99.9071 118.549 101.243 120.296 102.141C122.024 103.031 123.935 103.601 125.837 103.977C129.656 104.735 133.747 104.674 137.431 103.327C139.478 102.58 141.366 101.443 142.928 99.9176C143.398 99.4615 142.679 98.7445 142.211 99.1993C139.599 101.75 136.044 103.069 132.463 103.37C130.616 103.528 128.72 103.441 126.918 103.146C125.104 102.849 123.246 102.366 121.576 101.631C119.772 100.837 117.961 99.6343 117.3 97.738C117.208 97.4794 116.952 97.3079 116.675 97.3838C116.424 97.4527 116.231 97.7493 116.32 98.008V98.0072Z" fill="#D15259"/>
<path d="M166.186 118.205C171.094 116.319 175.891 114.141 180.535 111.674C181.852 110.974 183.155 110.252 184.446 109.508C185.012 109.183 184.502 108.305 183.933 108.632C179.416 111.236 174.74 113.567 169.939 115.603C168.606 116.168 167.265 116.707 165.916 117.225C165.658 117.324 165.483 117.568 165.561 117.851C165.628 118.095 165.926 118.304 166.186 118.205Z" fill="#D15259"/>
<path d="M64.8508 107.626C67.483 110.388 70.3506 112.918 73.4081 115.202C76.4592 117.481 79.7001 119.504 83.0878 121.238C85.0095 122.22 86.976 123.108 88.9785 123.905C89.2343 124.006 89.5359 123.794 89.6034 123.551C89.6835 123.261 89.505 123.028 89.2491 122.927C85.7636 121.538 82.3997 119.849 79.1968 117.895C76.0142 115.954 72.9913 113.75 70.1756 111.306C68.5717 109.916 67.0332 108.446 65.5677 106.908C65.1172 106.434 64.3995 107.152 64.8501 107.626H64.8508Z" fill="#D15259"/>
<path d="M161.251 90.1182C161.25 92.3111 161.25 94.5047 161.25 96.6984C161.25 97.3513 162.263 97.3527 162.263 96.6984C162.264 94.5047 162.264 92.3111 162.266 90.1182C162.266 89.4645 161.252 89.4645 161.252 90.1182H161.251Z" fill="#D15259"/>
<path d="M90.8363 91.3864C91.2214 93.4022 92.4479 95.1994 94.1474 96.3381C94.3751 96.4899 94.7097 96.3824 94.8433 96.1553C94.9873 95.9072 94.889 95.6141 94.6605 95.4616C93.1684 94.4628 92.1499 92.8694 91.8146 91.1151C91.7626 90.8473 91.44 90.6934 91.1905 90.7602C90.9094 90.8389 90.7857 91.1151 90.8363 91.3857V91.3864Z" fill="#D15259"/>
<defs>
<linearGradient id="paint0_linear_655_60" x1="31.2692" y1="177.192" x2="329.748" y2="-62.0647" gradientUnits="userSpaceOnUse">
<stop offset="0.232254" stop-color="#005546"/>
<stop offset="1" stop-color="#047460"/>
</linearGradient>
</defs>
</svg>
