<svg width="530" height="604" viewBox="0 0 530 604" fill="none" xmlns="http://www.w3.org/2000/svg">
<circle cx="280" cy="296.134" r="250" fill="#005546"/>
<path d="M356 119.354C372.212 130.179 381.653 150.365 379.576 169.749C377.772 186.515 368.172 201.917 367.791 218.774C367.387 236.578 377.215 252.732 385.163 268.668C393.109 284.604 399.426 303.613 392.038 319.818C388.412 327.773 381.691 334.398 380.011 342.978C378.169 352.384 382.809 361.723 384.159 371.213C386.395 386.861 378.775 403.483 365.468 412.009C352.154 420.533 333.871 420.505 320.588 411.932L356 119.355V119.354Z" fill="#492405"/>
<path d="M1.01446 329.993C5.28048 305.886 21.3641 284.987 41.3437 270.838C53.3544 262.332 67.4685 255.287 74.4356 242.321C79.9097 232.126 79.9572 220.03 80.8952 208.501C83.1919 180.292 93.8635 149.834 118.874 136.586C125.865 132.881 133.777 130.648 139.745 125.456C148.716 117.656 151.368 105.06 156.818 94.4953C164.666 79.2891 179.435 68.056 195.94 63.7147C192.783 60.6862 190.118 57.206 188.193 53.2624C184.662 46.0285 183.841 37.8059 183.246 29.778C182.984 26.2503 182.761 22.6554 183.622 19.2292C186.132 9.25818 196.867 3.71693 206.912 1.53808C216.154 -0.47216 226.323 -0.590024 234.5 4.16219C238.686 6.59314 242.092 10.152 245.285 13.791C251.613 21.002 257.551 29.1969 258.828 38.7062C260.005 47.4544 257.101 56.1239 253.809 64.3842C263.644 62.8749 273.439 60.3818 283.009 62.6703C290.317 64.4219 296.67 68.8025 302.835 73.1013C313.706 80.6822 324.575 88.2616 335.444 95.8425C343.574 101.51 351.878 107.351 357.554 115.472C373.64 138.475 362.569 171.968 341.843 190.9L359.574 187.117C364.493 206.324 368.595 229.198 355.294 243.893C346.869 253.199 332.421 257.734 328.703 269.722C326.737 276.057 328.433 282.85 328.929 289.465C330.299 307.592 322.206 325.687 309.458 338.649C296.714 351.614 279.709 359.801 262.108 364.327C247.942 367.971 231.017 371.001 224.744 384.215C220.667 392.805 222.732 402.861 222.863 412.363C223.337 447.142 192.311 479.269 157.54 480.003C153.046 480.096 148.391 479.764 144.218 481.419C134.553 485.246 131.793 497.329 125.566 505.648C119.277 514.049 108.484 518.841 98.0362 517.868C87.5955 516.899 77.8668 510.196 73.2406 500.783C80.6481 505.984 91.7011 505.108 98.1918 498.805C104.686 492.501 105.891 481.474 100.909 473.921C95.0489 465.031 83.2313 462.33 75.4015 455.115C62.4266 443.155 62.8719 421.508 50.3963 409.027C43.7943 402.425 34.5255 399.382 26.663 394.352C6.04328 381.152 -3.25161 354.106 1.01605 329.998L1.01446 329.993Z" fill="#492405"/>
<path d="M374.786 346.167C379.986 365.302 396.777 378.525 410.019 393.285C430.179 415.749 443.533 445.11 443.278 475.295C443.024 505.48 427.954 536.007 402.057 551.517C376.159 567.029 339.888 564.967 318.132 544.046C309.741 535.974 303.765 525.726 298.79 515.205C281.01 477.608 274.909 434.593 281.521 393.535L374.786 346.165V346.167Z" fill="#BA702D"/>
<path d="M456.219 492.648C453.208 472.091 446.962 452.011 437.775 433.376C431.703 450.651 443.37 461.573 439.269 479.416C425.473 467.085 404.948 442.003 392.068 429.159C388.94 426.04 376.636 423.09 386.345 433.726C394.923 443.122 412.604 470.19 421.518 479.274C410.609 463.089 398.991 446.28 383.264 435.227C380.079 432.989 376.06 436.619 377.936 440.032C386.522 455.618 396.848 470.247 408.674 483.546C398.578 469.553 387.75 455.835 374.148 445.229C372.219 443.726 369.099 442.428 367.682 444.419C374.529 462.686 387.193 478.076 399.639 493.093C393.432 482.109 383.886 473.042 372.601 467.406C370.312 468.939 371.538 472.484 372.977 474.833C379.84 486.012 386.79 497.317 396.128 506.53C405.468 515.738 417.584 522.797 430.682 523.479C443.781 524.16 457.671 517.382 462.926 505.36C467.115 495.781 466.059 476.267 448.333 460.902L456.222 492.648H456.219Z" fill="#FAC7B2"/>
<path d="M443.162 445.745C443.705 453.729 446.852 461.145 449.546 468.586C450.931 472.412 452.157 476.285 452.984 480.278C453.835 484.362 454.307 488.519 454.415 492.69C454.532 497.383 454.185 502.086 453.362 506.707C453.231 507.455 454.372 507.773 454.506 507.023C455.971 498.773 455.978 490.305 454.524 482.049C453.809 477.978 452.696 474.01 451.337 470.109C450.024 466.336 448.539 462.628 447.258 458.843C445.827 454.595 444.65 450.231 444.34 445.744C444.288 444.986 443.111 444.979 443.16 445.744L443.162 445.745Z" fill="#BF8271"/>
<path d="M417.257 473.743C410.46 464.51 403.108 455.691 395.238 447.352C393.016 444.998 390.752 442.685 388.456 440.412C387.912 439.878 387.077 440.709 387.617 441.246C395.693 449.23 403.28 457.695 410.334 466.595C412.346 469.144 414.315 471.726 416.24 474.337C416.687 474.941 417.712 474.352 417.259 473.739L417.257 473.743Z" fill="#BF8271"/>
<path d="M407.396 479.525C400.888 470.684 393.742 462.312 386.009 454.512C383.811 452.294 381.566 450.123 379.276 448C378.718 447.481 377.881 448.318 378.438 448.835C386.449 456.268 393.922 464.286 400.763 472.814C402.685 475.212 404.558 477.649 406.378 480.124C406.825 480.73 407.85 480.139 407.396 479.525Z" fill="#BF8271"/>
<path d="M400.671 492.823C394.038 484.196 386.752 476.078 378.875 468.575C376.666 466.47 374.412 464.414 372.112 462.409C371.544 461.911 370.703 462.741 371.277 463.244C379.389 470.33 386.957 478.029 393.894 486.266C395.867 488.607 397.785 490.992 399.652 493.418C399.846 493.672 400.154 493.805 400.459 493.63L400.673 492.823H400.671Z" fill="#BF8271"/>
<path d="M310.339 294.588C306.609 266.567 302.892 238.268 305.485 210.123C306.182 202.59 307.367 194.966 310.589 188.122C318.461 171.411 339.205 161.974 356.972 167.024C360.696 168.08 364.415 169.811 366.745 172.896C369.611 176.694 369.881 181.805 369.729 186.56C368.914 212.548 359.18 237.316 349.579 261.474C344.079 275.319 338.048 289.87 326.149 298.829L310.339 294.588Z" fill="#BA702D"/>
<path d="M331.358 288.871C327.604 290.56 322.998 288.819 320.228 285.772C317.458 282.719 316.153 278.645 315.112 274.66C309.344 252.518 309.6 228.834 315.852 206.823C318.065 199.019 321.249 191.091 327.416 185.822C333.584 180.556 343.447 178.873 349.766 183.959C356.417 189.313 356.6 199.35 354.97 207.731C352.352 221.16 346.636 233.752 342.16 246.681C338.292 257.853 335.313 269.716 336.185 281.415C336.431 284.71 334.475 287.771 331.356 288.874L331.358 288.871Z" fill="#FDF5F2"/>
<path d="M396.265 486.998C401.427 428.1 391.803 367.967 368.52 313.623C351.011 326.672 332.277 338.075 312.644 347.633C309.948 348.946 307.026 350.431 305.816 353.175C304.813 355.439 305.225 358.046 305.639 360.49C312.394 400.425 314.405 442.287 301.517 480.686C322.036 488.977 343.438 495.083 365.241 498.868L396.267 487L396.265 486.998Z" fill="#6B74B5"/>
<path d="M347.369 157.857C340.186 196.796 330.053 235.194 317.094 272.606C315.641 276.801 313.853 281.341 309.96 283.474C307.298 284.927 304.119 284.973 301.088 284.868C292.29 284.561 259.704 280.8 259.762 280.853C260.832 281.878 244.511 309.559 235.418 334.17C217.73 332.016 178.157 325.32 177.505 324.428C176.875 323.561 195.275 254.252 201.406 235.287C195.864 237.914 172.801 236.454 169.671 213.619C168.597 205.795 168.531 197.369 172.506 190.546C176.481 183.72 194.565 179.413 201.579 183.045C207.998 165.978 214.42 148.92 220.842 131.853C221.593 129.862 222.413 127.765 224.088 126.452C225.898 125.031 228.349 124.797 230.649 124.717C239.558 124.391 248.453 125.459 257.303 126.524C281.706 129.466 315.56 133.351 339.962 136.289L351.175 139.457L347.367 157.857H347.369Z" fill="#FAC7B2"/>
<path d="M302.987 283.166C294.969 283.769 287.293 286.638 280.819 291.408C275.778 295.123 270.911 299.057 266.51 303.498C259.109 310.958 252.998 320.01 250.55 330.228C247.566 342.691 250.457 356.429 258.212 366.63C263.286 373.301 270.172 378.36 277.207 382.922C281.514 385.711 285.962 388.381 290.831 389.995C303.827 394.319 318.062 390.702 330.922 385.98C339.487 382.833 347.869 379.204 356.24 375.573C362.535 372.848 369.099 369.913 373.329 364.509C376.749 360.14 378.269 354.58 379.117 349.096C382.167 329.356 375.897 306.719 358.789 296.41C353.059 292.951 346.523 291.086 340.019 289.5C327.84 286.53 315.454 284.41 302.987 283.165V283.166Z" fill="#BA702D"/>
<path d="M335.216 290.315C353.481 256.724 372.322 222.406 400.966 197.081C408.084 190.79 417.673 184.794 426.519 188.259C434.109 191.235 437.656 200.069 438.407 208.187C439.563 220.692 436.06 233.303 430.265 244.443C424.467 255.584 416.455 265.41 408.095 274.786C400.033 283.829 391.491 292.626 381.271 299.132C371.054 305.637 358.931 309.746 346.869 308.6L335.216 290.315Z" fill="#BA702D"/>
<path d="M351.438 375.403C359.304 368.726 365.785 360.14 368.738 350.252C371.691 340.368 370.825 329.128 365.23 320.459C359.64 311.789 349.039 306.233 338.837 307.792C324.903 309.921 315.773 334.228 310.605 347.348C309.543 350.041 301.248 347.497 298.686 346.15C300.271 336.204 300.125 325.987 298.267 316.083C297.502 312.009 296.113 307.535 292.465 305.556C289.416 303.904 285.621 304.514 282.404 305.814C271.852 310.066 265.036 320.866 262.71 332.005C260.383 343.138 261.875 354.69 263.72 365.917C264.18 368.726 264.703 371.627 266.327 373.966C268.904 377.68 274.275 382.562 278.156 384.878C283.591 388.119 287.327 390.025 293.528 391.3C296.605 391.934 299.791 391.47 302.89 390.937C320.407 387.925 337.552 382.77 353.822 375.621L351.437 375.403H351.438Z" fill="#FDF5F2"/>
<path d="M249.69 341.548C238.765 313.534 207.634 294.895 177.785 298.498C147.932 302.099 122.127 327.602 118.177 357.407C114.23 387.156 129.937 415.789 146.988 440.48C189.47 501.995 244.046 555.119 306.677 595.935C312.612 599.801 319.022 603.686 326.109 603.773C334.819 603.882 342.502 598.236 348.809 592.22C377.648 564.732 392.949 527.472 397.492 487.888C402.038 448.303 325.338 417.251 316.683 451.188C292.013 409.153 274.44 383.778 249.774 341.743L249.69 341.548Z" fill="#6B74B5"/>
<path d="M119.808 349.295C119.564 349.285 119.313 349.279 119.07 349.274L119.124 349.072L119.132 349.045L119.142 349.012L119.402 348.098L120.142 348.12C120.027 348.508 119.914 348.902 119.81 349.293L119.808 349.295Z" fill="#9F8B7B"/>
<path d="M254.505 350.999C253.39 350.999 252.276 350.999 251.161 350.999C237.923 350.984 224.687 350.94 211.449 350.857C198.765 350.773 186.08 350.645 173.4 350.459C160.685 350.269 147.979 350.025 135.273 349.711C130.118 349.58 124.966 349.444 119.811 349.295C119.917 348.904 120.029 348.509 120.143 348.121C126.911 348.316 133.676 348.498 140.449 348.655C153.072 348.949 165.698 349.175 178.326 349.344C191.048 349.517 203.768 349.63 216.488 349.704C228.927 349.776 241.362 349.81 253.803 349.819L253.815 349.837L253.824 349.855L253.836 349.873L253.846 349.891L253.857 349.91L253.867 349.928L253.878 349.946L253.888 349.964L253.9 349.982L253.909 350L253.921 350.018L253.931 350.036L253.942 350.054L253.952 350.072L253.963 350.09L253.973 350.108L253.985 350.126L253.995 350.144L254.006 350.162L254.016 350.18L254.027 350.198L254.037 350.216L254.049 350.234L254.058 350.252L254.07 350.27L254.08 350.288L254.091 350.307L254.101 350.324L254.112 350.343L254.122 350.361L254.134 350.379L254.144 350.397L254.153 350.415L254.165 350.433L254.175 350.451L254.186 350.469L254.196 350.487L254.207 350.505L254.217 350.523L254.227 350.541L254.238 350.559L254.248 350.577L254.26 350.595L254.263 350.601L254.27 350.613L254.281 350.631L254.291 350.649L254.301 350.667L254.312 350.685L254.322 350.703L254.333 350.721L254.343 350.739L254.353 350.757L254.364 350.775L254.374 350.793L254.386 350.811L254.396 350.829L254.405 350.847L254.417 350.865L254.427 350.883L254.448 350.92L254.458 350.938L254.469 350.956L254.479 350.974L254.505 350.999Z" fill="#B1B5D8"/>
<path d="M136.944 319.469L136.269 319.401C136.616 319.041 136.968 318.684 137.323 318.33L137.993 318.402C137.639 318.756 137.289 319.111 136.944 319.471V319.469Z" fill="#9F8B7B"/>
<path d="M208.773 325.012C195.315 325.012 181.89 324.155 168.496 322.845C157.965 321.817 147.46 320.57 136.941 319.47C137.286 319.109 137.637 318.754 137.99 318.401C149.785 319.64 161.566 321.056 173.377 322.125C185.214 323.195 197.075 323.824 208.953 323.824C211.338 323.824 213.726 323.798 216.113 323.745C223.222 323.595 230.329 323.225 237.417 322.637C237.664 322.922 237.91 323.207 238.152 323.495L238.167 323.513L238.181 323.529L238.196 323.547L238.209 323.562L238.353 323.737C229.355 324.508 220.33 324.931 211.3 325.004C210.459 325.011 209.617 325.014 208.773 325.014V325.012Z" fill="#B1B5D8"/>
<path d="M387.785 372.026C387.692 371.634 387.599 371.247 387.502 370.855L388.163 370.834L388.404 371.823L388.409 371.841L388.414 371.859L388.419 371.877L388.424 371.895L388.429 371.913L388.433 371.931L388.438 371.949L388.443 371.967L388.448 371.985L388.451 372.003L387.788 372.024L387.785 372.026Z" fill="#DAB390"/>
<path d="M362.442 372.739C363.231 372.342 364.011 371.932 364.773 371.5C372.351 371.317 379.929 371.102 387.501 370.854C387.598 371.245 387.691 371.633 387.785 372.024C379.338 372.302 370.891 372.543 362.442 372.738V372.739Z" fill="#B1B5D8"/>
<path d="M354.212 372.916C354.628 372.519 355.042 372.116 355.448 371.708C358.557 371.643 361.669 371.574 364.774 371.5C364.01 371.931 363.231 372.342 362.443 372.74C359.701 372.802 356.956 372.861 354.214 372.916H354.212Z" fill="#DAB390"/>
<path d="M308.362 373.423L308.359 373.405L308.355 373.387L308.352 373.369L308.349 373.351L308.346 373.333L308.342 373.315L308.339 373.297L308.336 373.279L308.332 373.261L308.329 373.243L308.326 373.225L308.323 373.207L308.319 373.189L308.316 373.171L308.313 373.153L308.31 373.135L308.306 373.117L308.303 373.099L308.3 373.081L308.296 373.063L308.293 373.045L308.29 373.027L308.287 373.009L308.283 372.991L308.28 372.973L308.277 372.955L308.273 372.937L308.27 372.919L308.267 372.901L308.264 372.883L308.259 372.845L308.256 372.827L308.252 372.809L308.249 372.791L308.246 372.773L308.242 372.755L308.239 372.737L308.236 372.719L308.233 372.701L308.229 372.683L308.226 372.665L308.223 372.647L308.219 372.629L308.216 372.611L308.213 372.593L308.21 372.575L308.206 372.557L308.203 372.539L308.2 372.521L308.197 372.503L308.193 372.485L308.19 372.467L308.187 372.449L308.183 372.431L308.182 372.414L308.18 372.413L308.177 372.395L308.174 372.377L308.17 372.359L308.167 372.341L308.164 372.323L308.161 372.305L308.157 372.287L308.154 372.269C323.905 372.238 339.66 372.057 355.406 371.738C355 372.144 354.586 372.549 354.17 372.946C347.679 373.074 341.19 373.18 334.7 373.261C325.904 373.369 317.117 373.434 308.323 373.452L308.362 373.423Z" fill="#FEFAF8"/>
<path d="M117.56 366.737L116.817 366.684L116.82 365.966V365.948L116.821 365.874V365.856V365.838V365.82V365.802L116.823 365.784V365.766V365.748V365.746V365.728L116.825 365.71V365.692L116.83 365.507L117.573 365.56C117.566 365.954 117.563 366.349 117.563 366.74L117.56 366.737Z" fill="#9F8B7B"/>
<path d="M267.972 373.19C242.607 372.844 217.238 372.124 191.896 371.027C167.095 369.956 142.316 368.524 117.558 366.736C117.558 366.345 117.561 365.951 117.568 365.556C121.583 365.849 125.601 366.129 129.618 366.401C175.431 369.495 221.329 371.361 267.241 372.001L267.252 372.019L267.264 372.037L267.275 372.055L267.323 372.13L267.334 372.148L267.345 372.166L267.357 372.184L267.368 372.202L267.38 372.22L267.391 372.24L267.403 372.258L267.414 372.276L267.426 372.294L267.437 372.312L267.449 372.33L267.46 372.348L267.471 372.366L267.483 372.384L267.496 372.402L267.508 372.42L267.519 372.438L267.53 372.458L267.542 372.476L267.553 372.494L267.565 372.512L267.576 372.53L267.588 372.548L267.599 372.566L267.611 372.584L267.622 372.602L267.633 372.62L267.645 372.638L267.657 372.656L267.668 372.675L267.679 372.693L267.691 372.711L267.702 372.73L267.714 372.747L267.725 372.766L267.737 372.784L267.748 372.802L267.76 372.82L267.771 372.838L267.782 372.857L267.794 372.875L267.805 372.893L267.817 372.911L267.828 372.929L267.84 372.947L267.851 372.965L267.863 372.983L267.874 373.003L267.886 373.021L267.897 373.039L267.908 373.057L267.918 373.075L267.93 373.093L267.941 373.111L267.976 373.167L267.972 373.19Z" fill="#B1B5D8"/>
<path d="M394.408 407.782C394.355 407.391 394.301 407.006 394.249 406.613L394.966 406.541L395.033 407.014L395.036 407.032L395.051 407.142L395.054 407.16L395.058 407.178L395.061 407.196L395.064 407.214L395.067 407.232L395.072 407.268L395.075 407.286L395.079 407.304L395.082 407.322L395.085 407.34L395.087 407.358L395.09 407.376L395.093 407.394L395.097 407.412L395.1 407.43L395.103 407.448L395.105 407.466L395.108 407.484L395.111 407.502L395.115 407.52L395.118 407.538L395.12 407.556L395.123 407.574L395.126 407.592L395.129 407.61L395.136 407.664L395.139 407.682L395.141 407.7L394.422 407.775L394.408 407.782Z" fill="#DAB390"/>
<path d="M319.69 412.134C317.023 412.134 314.355 412.115 311.686 412.075V412.057L311.685 412.039V412.021L311.683 412.003V411.985L311.681 411.967V411.949L311.68 411.931V411.913L311.678 411.895V411.877L311.676 411.859V411.841L311.675 411.823V411.805L311.673 411.787V411.769L311.672 411.733L311.67 411.715V411.697L311.668 411.679V411.661L311.667 411.643V411.625L311.665 411.607V411.589L311.663 411.571V411.553L311.662 411.535V411.517L311.66 411.499V411.481L311.659 411.463V411.445L311.657 411.427V411.409L311.655 411.391V411.373L311.654 411.355V411.337L311.652 411.319V411.301L311.65 411.283V411.265L311.649 411.247V411.229L311.647 411.211V411.193L311.645 411.175V411.157L311.644 411.139L311.639 410.926C313.869 410.954 316.098 410.967 318.331 410.967C331.51 410.967 344.698 410.492 357.868 409.654C370.011 408.882 382.125 407.826 394.227 406.601C394.28 406.993 394.334 407.377 394.386 407.77C378.399 409.388 362.381 410.713 346.327 411.481C337.43 411.907 328.547 412.128 319.67 412.125L319.69 412.134Z" fill="#B1B5D8"/>
<path d="M122.597 395.133L121.844 395.105L121.618 394.439L121.611 394.421L121.605 394.403L121.598 394.385L121.592 394.367L121.585 394.349L121.578 394.331L121.572 394.313L121.565 394.295L121.559 394.277L121.552 394.259L121.551 394.257L121.546 394.241L121.539 394.223L121.533 394.205L121.526 394.187L121.519 394.167L121.513 394.149L121.506 394.131L121.5 394.113L121.495 394.095L121.488 394.077L121.482 394.059L121.475 394.041L121.469 394.023L121.456 393.985L121.451 393.967L121.444 393.949L121.439 393.931L122.194 393.962C122.32 394.357 122.454 394.755 122.588 395.146L122.597 395.133Z" fill="#9F8B7B"/>
<path d="M291.822 411.406C280.725 410.818 269.629 409.872 258.552 408.546C229.603 405.077 200.859 399.922 171.78 397.568C155.415 396.246 139 395.74 122.594 395.134C122.459 394.743 122.327 394.345 122.199 393.951C142.66 394.727 163.129 395.355 183.51 397.478C212.411 400.491 241.04 405.695 269.958 408.63C277 409.347 284.054 409.887 291.111 410.267L291.123 410.285L291.699 411.211L291.711 411.229L291.72 411.247L291.732 411.265L291.743 411.283L291.755 411.301L291.765 411.319L291.776 411.337L291.787 411.355L291.799 411.373L291.809 411.391L291.819 411.409L291.822 411.406Z" fill="#B1B5D8"/>
<path d="M397.622 455.082C397.622 454.688 397.619 454.29 397.615 453.895L398.421 453.848L398.425 454.2V454.218L398.427 454.292V454.31V454.328V454.347L398.429 454.385V454.403V454.421V454.439V454.457V454.475V454.493V454.511V455.03L397.623 455.077L397.622 455.082Z" fill="#FCE1D6"/>
<path d="M383.381 455.813C382.98 455.433 382.568 455.055 382.152 454.684C387.31 454.459 392.465 454.199 397.614 453.898C397.617 454.292 397.62 454.69 397.62 455.085C392.878 455.358 388.13 455.604 383.381 455.815V455.813Z" fill="#B1B5D8"/>
<path d="M146.895 440.347L146.049 440.198L145.99 440.113L145.975 440.091L145.96 440.07L145.946 440.049L145.888 439.964L145.874 439.942L145.859 439.921L145.844 439.9L145.829 439.879L145.815 439.857L145.8 439.836L145.785 439.815L145.771 439.793L145.756 439.772L145.741 439.751L145.726 439.73L145.712 439.708L145.697 439.687L145.682 439.666L145.667 439.644L145.653 439.623L145.638 439.602L145.623 439.581L145.608 439.559L145.594 439.538L145.579 439.517L145.564 439.495L145.549 439.474L145.535 439.453L145.52 439.432L145.505 439.41L145.491 439.389L145.476 439.368L145.461 439.346L145.446 439.325L145.443 439.319L145.433 439.304L145.419 439.283L145.404 439.261L145.116 438.837L145.96 438.985C146.271 439.441 146.582 439.895 146.895 440.345V440.347Z" fill="#9F8B7B"/>
<path d="M335.371 456.883C314.406 456.883 293.442 456.271 272.511 455.051C243.674 453.375 214.899 450.535 186.286 446.562C173.119 444.733 159.987 442.661 146.896 440.348C146.583 439.898 146.272 439.444 145.961 438.988C163.098 442.037 180.307 444.674 197.574 446.891C226.176 450.558 254.922 453.089 283.725 454.465C300.92 455.289 318.13 455.701 335.343 455.701C347.103 455.701 358.867 455.508 370.62 455.123C374.464 454.996 378.309 454.85 382.153 454.683C382.569 455.055 382.983 455.435 383.382 455.813C375.389 456.17 367.392 456.436 359.394 456.613C351.387 456.793 343.382 456.883 335.371 456.883Z" fill="#B1B5D8"/>
<path d="M184.547 489.075L183.669 488.915L182.756 487.857L182.738 487.836L182.718 487.815L182.7 487.793L182.682 487.772L182.663 487.751L182.645 487.729L182.627 487.708L182.589 487.664L182.583 487.657L182.458 487.51C182.749 487.566 183.044 487.621 183.34 487.675C183.742 488.144 184.147 488.617 184.549 489.082L184.547 489.075Z" fill="white"/>
<path d="M309.54 503.437C297.135 503.437 284.721 502.856 272.356 501.828C245.782 499.624 219.412 495.425 193.19 490.658C190.307 490.136 187.43 489.609 184.548 489.075C184.147 488.61 183.741 488.137 183.34 487.669C189.756 488.858 196.174 490.02 202.6 491.149C229.253 495.83 256.084 499.763 283.111 501.427C291.541 501.945 299.96 502.212 308.376 502.212C326.658 502.212 344.903 500.952 363.06 498.272C374.064 496.645 385.057 494.717 396.087 493.098L396.067 493.246L396.064 493.264L396.061 493.284L396.057 493.302L396.054 493.32L396.051 493.338L396.048 493.356L396.041 493.412L396.038 493.431L396.036 493.438L396.034 493.449L396.031 493.467L395.995 493.708L395.992 493.726L395.989 493.744L395.918 494.227L395.915 494.245L395.908 494.283C381.368 496.432 366.886 499.118 352.313 500.913C338.109 502.664 323.825 503.435 309.534 503.435L309.54 503.437Z" fill="#B1B5D8"/>
<path d="M232.126 538.107L231.106 537.853L229.284 536.174L230.304 536.429C230.91 536.99 231.519 537.547 232.128 538.105L232.126 538.107Z" fill="white"/>
<path d="M341.36 553.105C320.792 553.105 300.235 551.465 279.929 548.199C263.838 545.609 247.934 542.054 232.127 538.107C231.518 537.548 230.909 536.992 230.304 536.43C249.324 541.222 268.485 545.488 287.918 548.215C305.578 550.697 323.416 551.93 341.253 551.93C348.43 551.93 355.606 551.73 362.77 551.334C368.157 551.032 373.537 550.618 378.901 550.094C378.742 550.414 378.585 550.733 378.425 551.05L378.415 551.07L378.405 551.09L378.395 551.109L378.385 551.129L378.376 551.149L378.371 551.157L378.274 551.342C370.328 552.1 362.361 552.619 354.384 552.886C350.042 553.035 345.698 553.105 341.356 553.105H341.36Z" fill="#B1B5D8"/>
<path d="M312.074 599.27L311.29 599.249H311.288L311.255 599.229L311.155 599.172L311.123 599.152L311.09 599.134L311.06 599.116L311.056 599.114L311.023 599.095L310.99 599.075L310.957 599.055L310.925 599.037L310.892 599.018L310.859 598.998L310.826 598.978L310.794 598.959L310.772 598.946L310.759 598.939L310.726 598.919L310.694 598.9L310.661 598.88L310.628 598.861L310.596 598.841L310.563 598.821L310.53 598.802L310.497 598.782L310.484 598.774L310.465 598.761L310.432 598.741L310.399 598.721L310.366 598.702L310.334 598.682L310.301 598.662L310.268 598.643L310.235 598.623L310.203 598.604L310.198 598.6L310.17 598.582L310.137 598.563L310.104 598.543L310.072 598.523L310.039 598.504L310.006 598.484L309.973 598.464L309.941 598.445L309.911 598.427L309.908 598.423L309.875 598.404L309.843 598.384L309.81 598.365L309.777 598.345L309.744 598.325L309.712 598.306L309.679 598.286L309.646 598.266L309.625 598.253L309.613 598.245L309.581 598.225L309.548 598.206L309.515 598.186L309.482 598.166L309.45 598.147L309.417 598.127L309.384 598.108L309.351 598.088L309.338 598.08L309.319 598.067L309.286 598.047L309.253 598.027L309.221 598.008L309.188 597.988C309.451 597.998 309.716 598.006 309.98 598.016C310.676 598.441 311.376 598.861 312.088 599.265L312.074 599.27Z" fill="white"/>
<path d="M320.338 599.386C317.58 599.386 314.823 599.348 312.068 599.271C311.358 598.867 310.655 598.448 309.96 598.022C313.425 598.143 316.891 598.202 320.36 598.202C327.376 598.202 334.39 597.952 341.39 597.42L342.048 597.371C341.564 597.734 341.073 598.088 340.575 598.43L340.545 598.449L340.516 598.469L340.486 598.489L340.457 598.508L340.428 598.528L340.401 598.546L340.398 598.548L340.369 598.567L340.339 598.587L340.31 598.607L340.251 598.646L340.221 598.665L340.192 598.685C338.561 598.803 336.929 598.903 335.296 598.99C330.311 599.253 325.325 599.381 320.337 599.381L320.338 599.386Z" fill="#B1B5D8"/>
<path d="M366.421 374.842C365.219 371.625 362.484 369.183 359.117 368.49C352.272 367.074 344.77 368.611 338.158 371.273C329.659 374.696 321.908 379.835 313.29 382.937C297.556 388.601 280.187 387.093 263.818 390.526C249.683 393.495 236.355 400.237 225.591 409.867C216.992 417.554 209.868 430.767 216.735 440.037C222.673 448.055 234.79 447.228 244.49 444.897C265.13 439.937 285.106 431.867 306.192 429.426C319.732 427.858 334.342 428.395 345.749 420.927C358.861 412.352 363.717 395.931 366.866 380.404C367.246 378.546 367.087 376.621 366.423 374.843L366.421 374.842Z" fill="#BA702D"/>
<path d="M356.299 292.468C355.734 291.664 355.33 290.751 355.143 289.788C353.246 279.975 357.029 269.802 361.485 260.756C372.161 239.105 387.123 219.579 405.26 203.648C407.867 201.356 410.629 199.089 413.923 198.002C417.221 196.915 421.206 197.244 423.679 199.675C426.012 201.967 426.521 205.498 426.655 208.762C427.271 223.655 422.596 238.714 413.653 250.636C410.28 255.14 406.344 259.177 402.418 263.204C396.738 269.033 391.055 274.861 385.372 280.69C379.151 287.071 371.891 293.873 363.454 295.394C360.699 295.893 357.908 294.76 356.299 292.468Z" fill="#FDF5F2"/>
<path d="M308.666 333.568C310.161 331.875 310.791 329.587 310.396 327.362C310.341 327.053 309.958 326.871 309.67 326.953C309.337 327.043 309.2 327.362 309.257 327.68C309.575 329.462 309.028 331.379 307.831 332.735V333.568H308.666Z" fill="#FDF5F2"/>
<path d="M319.626 308.008C319.191 309.203 318.759 310.398 318.325 311.594C318.219 311.887 318.443 312.252 318.738 312.321C319.07 312.395 319.35 312.218 319.461 311.909C319.897 310.712 320.327 309.517 320.764 308.325C320.867 308.032 320.643 307.664 320.348 307.595C320.019 307.52 319.736 307.693 319.625 308.008H319.626Z" fill="#FDF5F2"/>
<path d="M383.551 357.414C381.512 354.62 379.47 351.824 377.43 349.03C376.99 348.421 375.965 349.008 376.412 349.622C378.449 352.42 380.493 355.216 382.53 358.013C382.973 358.622 383.998 358.028 383.551 357.414Z" fill="#BA702D"/>
<path d="M381.07 363.311C379.062 360.895 377.045 358.482 375.036 356.069C374.549 355.481 373.717 356.322 374.201 356.904C376.213 359.317 378.222 361.733 380.232 364.146C380.723 364.733 381.552 363.892 381.07 363.311Z" fill="#BA702D"/>
<path d="M382.951 318.627C379.718 319.391 376.492 320.151 373.262 320.912C372.524 321.089 372.839 322.228 373.579 322.051C376.806 321.29 380.036 320.527 383.262 319.764C384.002 319.588 383.691 318.448 382.951 318.625V318.627Z" fill="#BA702D"/>
<path d="M379.266 313.526C376.872 314.017 374.475 314.503 372.08 314.991C371.332 315.143 371.65 316.279 372.391 316.127C374.788 315.639 377.186 315.151 379.583 314.663C380.324 314.511 380.008 313.375 379.265 313.524L379.266 313.526Z" fill="#BA702D"/>
<path d="M438.172 194.025C434.784 195.892 431.886 198.56 429.729 201.764C429.3 202.397 430.325 202.991 430.747 202.363C432.793 199.32 435.556 196.813 438.768 195.047C439.436 194.68 438.84 193.659 438.172 194.025Z" fill="#BA702D"/>
<path d="M434.712 189.492C432.165 191.032 430.001 193.141 428.384 195.641C427.973 196.279 428.996 196.873 429.405 196.236C430.911 193.907 432.938 191.946 435.311 190.51C435.96 190.116 435.364 189.094 434.712 189.492Z" fill="#BA702D"/>
<path d="M417.419 193.547C417.795 190.237 417.388 186.861 416.242 183.731C415.982 183.026 414.841 183.334 415.103 184.047C416.217 187.091 416.602 190.324 416.235 193.547C416.152 194.302 417.332 194.295 417.419 193.547Z" fill="#BA702D"/>
<path d="M372.344 199.808C369.915 200.985 367.488 202.162 365.06 203.339C364.374 203.668 364.973 204.687 365.656 204.357C368.08 203.18 370.513 202.007 372.94 200.83C373.626 200.497 373.024 199.479 372.344 199.808Z" fill="#BA702D"/>
<path d="M373.6 184.198C371.177 185.801 368.757 187.4 366.343 189.001C365.711 189.42 366.302 190.445 366.935 190.023C369.358 188.42 371.778 186.821 374.195 185.218C374.826 184.799 374.236 183.778 373.6 184.197V184.198Z" fill="#BA702D"/>
<path d="M328.579 340.365C328.579 344.716 332.103 348.244 336.458 348.244C340.807 348.244 344.337 344.716 344.337 340.365C344.337 336.016 340.809 332.486 336.458 332.486C332.103 332.486 328.579 336.014 328.579 340.365Z" fill="#141515"/>
<path d="M271.854 334.064C271.854 338.415 275.385 341.943 279.733 341.943C284.087 341.943 287.612 338.415 287.612 334.064C287.612 329.71 284.087 326.185 279.733 326.185C275.385 326.185 271.854 329.71 271.854 334.064Z" fill="#141515"/>
<path d="M313.76 365.833C312.428 368.166 309.376 371.157 306.487 369.469C305.317 368.783 304.655 367.495 304.261 366.241C303.763 364.66 303.614 362.985 303.516 361.34C303.382 359.086 303.457 356.828 303.716 354.582C303.791 353.924 302.684 353.775 302.553 354.424C301.923 357.612 300.399 360.759 297.961 362.957C295.794 364.913 292.789 365.807 290.137 364.265C288.78 363.476 287.742 362.209 287.319 360.693C287.111 359.96 285.972 360.274 286.177 361.006C287.035 364.066 290.053 366.357 293.249 366.264C296.729 366.161 299.543 363.547 301.306 360.752C302.465 358.92 303.272 356.864 303.694 354.739C303.306 354.687 302.922 354.633 302.534 354.581C302.275 356.827 302.206 359.084 302.34 361.338C302.447 363.173 302.607 365.064 303.206 366.812C303.704 368.269 304.532 369.69 305.893 370.487C307.358 371.344 309.07 371.26 310.573 370.568C312.377 369.736 313.813 368.127 314.78 366.429C315.16 365.771 314.137 365.172 313.762 365.832L313.76 365.833Z" fill="#141515"/>
<path d="M312.65 350.431C311.588 352.276 308.566 351.167 306.769 352.313C305.674 353.009 305.274 354.391 304.726 355.568C304.172 356.748 303.074 357.954 301.8 357.687C300.546 357.427 300.014 355.923 299.959 354.648C299.9 353.369 300.06 351.978 299.347 350.915C298.716 349.987 297.547 349.54 297.058 348.465C296.899 348.116 296.85 347.713 296.978 347.353C297.251 346.579 298.03 346.471 298.718 346.427C303.156 346.143 307.651 346.865 311.786 348.504C312.547 348.805 312.929 349.66 312.652 350.431H312.65Z" fill="#141515"/>
<path d="M308.245 358.681H308.649L308.875 358.632L309.066 358.511L309.187 358.318L309.238 358.092L309.215 357.933L309.066 357.675L308.944 357.581L308.649 357.498H308.245L308.017 357.552L307.827 357.675L307.704 357.864L307.654 358.092L307.675 358.249L307.827 358.511L307.945 358.604L308.245 358.681Z" fill="#141515"/>
<path d="M308.262 365.348L308.663 364.947L308.785 364.754L308.833 364.528L308.785 364.301L308.663 364.109L308.545 364.019L308.244 363.939L308.088 363.96L307.826 364.109L307.423 364.512L307.302 364.702L307.253 364.929L307.302 365.159L307.423 365.348L307.541 365.442L307.842 365.522L308.001 365.501L308.262 365.348Z" fill="#141515"/>
<path d="M286.52 357.881H286.925L287.151 357.827L287.337 357.705L287.462 357.514L287.511 357.286L287.489 357.128L287.337 356.867L287.219 356.777L286.925 356.697H286.52L286.294 356.746L286.101 356.867L285.98 357.059L285.928 357.286L285.949 357.445L286.101 357.705L286.223 357.797L286.52 357.881Z" fill="#141515"/>
<path d="M292.155 362.707H292.559L292.785 362.656L292.978 362.535L293.099 362.342L293.152 362.116L293.13 361.957L292.978 361.697L292.857 361.607L292.559 361.523H292.155L291.929 361.576L291.736 361.697L291.615 361.888L291.565 362.116L291.587 362.275L291.736 362.535L291.86 362.625L292.155 362.707Z" fill="#141515"/>
<path d="M380.052 341.182C380.278 357.668 379.921 374.739 373.017 389.717C366.117 404.691 350.964 417.073 334.533 415.662C352.494 396.961 365.563 373.599 372.099 348.507L380.052 341.182Z" fill="#BA702D"/>
<path d="M337.04 318.988C342.474 321.512 348.093 324.167 351.961 328.742C350.206 322.522 345.293 317.28 339.202 315.124L337.04 318.988Z" fill="#492405"/>
<path d="M288.539 311.894C283.101 314.42 277.489 317.077 273.615 321.652C275.374 315.431 280.284 310.19 286.38 308.034L288.539 311.894Z" fill="#492405"/>
<path d="M339.935 341.711L339.658 342.12L339.644 342.14L339.567 342.236L339.402 342.423L339.05 342.77L338.856 342.93L338.801 342.978L338.742 343.019C338.48 343.212 338.202 343.376 337.912 343.515L337.797 343.566L337.782 343.574L337.545 343.661L337.046 343.81C336.748 343.888 336.537 344.242 336.632 344.54C336.738 344.851 337.038 345.031 337.362 344.951C338.85 344.584 340.156 343.615 340.955 342.308L340.744 341.501C340.456 341.346 340.107 341.429 339.934 341.713L339.935 341.711Z" fill="white"/>
<path d="M283.72 334.668L283.657 334.838L283.629 334.891L283.481 335.189L283.161 335.683L282.763 336.123L282.326 336.503L281.783 336.839L281.289 337.063L280.645 337.243L280.496 337.271L280.447 337.281L280.084 337.305C279.761 337.313 279.491 337.569 279.491 337.895C279.491 338.207 279.761 338.497 280.084 338.484C282.217 338.41 284.139 336.988 284.861 334.981C284.969 334.68 284.739 334.334 284.448 334.254C284.119 334.164 283.831 334.364 283.721 334.668H283.72Z" fill="white"/>
<path d="M306.069 349.171C304.182 348.672 302.294 348.171 300.405 347.669C299.672 347.477 299.359 348.616 300.094 348.813C301.978 349.312 303.867 349.813 305.753 350.309C306.49 350.509 306.806 349.366 306.069 349.173V349.171Z" fill="white"/>
<path d="M306.2 321.758C305.895 323.091 305.591 324.423 305.286 325.758C305.214 326.065 305.383 326.398 305.7 326.484C305.995 326.568 306.352 326.383 306.427 326.069C306.732 324.739 307.036 323.407 307.341 322.073C307.413 321.765 307.247 321.433 306.928 321.346C306.63 321.266 306.273 321.444 306.201 321.758H306.2Z" fill="#FDF5F2"/>
<path d="M306.929 311.127C306.391 312.198 305.854 313.27 305.317 314.344C305.183 314.621 305.237 314.996 305.531 315.154C305.798 315.294 306.193 315.235 306.342 314.94C306.875 313.869 307.409 312.795 307.948 311.72C308.088 311.443 308.031 311.068 307.736 310.916C307.47 310.774 307.078 310.829 306.929 311.127Z" fill="#FDF5F2"/>
<path d="M314.171 320.14C313.898 320.94 313.626 321.746 313.351 322.549C313.251 322.838 313.466 323.207 313.763 323.273C314.092 323.348 314.381 323.176 314.494 322.86C314.764 322.06 315.037 321.258 315.31 320.454C315.41 320.161 315.196 319.796 314.898 319.727C314.572 319.652 314.281 319.825 314.171 320.14Z" fill="#FDF5F2"/>
<path d="M310.896 302.417C310.626 303.221 310.363 304.024 310.096 304.833C309.994 305.126 310.207 305.489 310.507 305.557C310.832 305.632 311.13 305.46 311.233 305.144C311.504 304.34 311.77 303.538 312.04 302.731C312.137 302.438 311.923 302.073 311.625 302.004C311.297 301.929 311.003 302.103 310.898 302.417H310.896Z" fill="#FDF5F2"/>
<path d="M342.255 299.354C342.255 300.697 342.255 302.038 342.255 303.38C342.255 303.697 342.528 303.971 342.844 303.971C343.166 303.971 343.437 303.701 343.437 303.38C343.437 302.038 343.437 300.697 343.437 299.354C343.437 299.035 343.163 298.765 342.844 298.765C342.525 298.765 342.255 299.035 342.255 299.354Z" fill="#FDF5F2"/>
<path d="M337.424 299.355C337.424 299.893 337.424 300.43 337.424 300.964C337.424 301.273 337.697 301.573 338.016 301.557C338.335 301.54 338.605 301.295 338.605 300.964C338.605 300.43 338.605 299.893 338.605 299.355C338.605 299.046 338.332 298.752 338.016 298.766C337.695 298.779 337.424 299.024 337.424 299.355Z" fill="#FDF5F2"/>
<path d="M294.944 294.903C294.025 295.922 293.667 297.371 294.04 298.697C294.12 298.995 294.46 299.211 294.763 299.111C295.068 299.015 295.268 298.704 295.176 298.384L295.092 298V298.008L295.084 297.887L295.071 297.69L295.089 297.296L295.092 297.253L295.096 297.206L295.143 296.988L295.251 296.612L295.289 296.518L295.286 296.525L295.366 296.345L295.58 295.985L295.636 295.904L295.664 295.867L295.698 295.829L295.775 295.736V294.901H294.944V294.903Z" fill="#FDF5F2"/>
<path d="M286.681 297.563C286.403 298.364 286.118 299.163 285.837 299.96C285.735 300.254 285.951 300.621 286.251 300.69C286.58 300.765 286.865 300.588 286.974 300.277C287.258 299.477 287.539 298.675 287.822 297.878C287.924 297.584 287.708 297.216 287.41 297.151C287.077 297.072 286.794 297.249 286.683 297.563H286.681Z" fill="#FDF5F2"/>
<path d="M240.194 424.124C233.893 428.534 228.021 433.537 222.666 439.062C222.139 439.609 222.974 440.443 223.505 439.897C228.784 434.447 234.572 429.497 240.79 425.142C241.407 424.709 240.818 423.682 240.192 424.124H240.194Z" fill="#492405"/>
<path d="M233.12 420.342C227.956 423.648 223.154 427.523 218.839 431.891C217.616 433.127 216.434 434.403 215.292 435.713C214.794 436.284 215.627 437.122 216.126 436.548C220.111 431.977 224.588 427.837 229.486 424.257C230.866 423.246 232.279 422.281 233.719 421.36C234.356 420.949 233.762 419.927 233.12 420.342Z" fill="#492405"/>
<path d="M369.153 371.239C361.309 365.987 351.154 366.046 342.357 368.525C332.379 371.339 323.548 376.944 314.12 381.089C308.841 383.412 303.292 385.301 297.524 385.862C296.776 385.936 296.768 387.12 297.524 387.043C307.801 386.041 317.029 381.13 326.113 376.577C334.851 372.198 344.094 367.931 354.084 368.075C359.187 368.147 364.286 369.401 368.559 372.257C369.192 372.683 369.785 371.661 369.155 371.239H369.153Z" fill="#492405"/>
<path d="M323.096 417.998C320.528 420.231 317.27 421.632 313.883 421.948C313.132 422.02 313.127 423.204 313.883 423.129C317.607 422.781 321.109 421.287 323.933 418.833C324.507 418.334 323.669 417.501 323.098 417.998H323.096Z" fill="#492405"/>
<path d="M311.202 419.605C310.124 420.137 309.051 420.664 307.972 421.196L307.764 422.004C307.944 422.288 308.273 422.36 308.568 422.215C309.645 421.686 310.722 421.159 311.798 420.627L312.012 419.82C311.825 419.533 311.5 419.463 311.202 419.605Z" fill="#492405"/>
<path d="M299.778 417.215C298.428 418.413 296.511 418.963 294.73 418.644C294.417 418.589 294.093 418.728 294.003 419.057C293.924 419.345 294.099 419.728 294.415 419.784C296.638 420.185 298.924 419.549 300.616 418.05V417.215H299.778Z" fill="#492405"/>
<path d="M288.64 409.076C288.106 409.346 287.567 409.613 287.03 409.88L286.757 410.235L286.816 410.688C286.999 410.972 287.332 411.052 287.626 410.903C288.16 410.636 288.699 410.366 289.236 410.099L289.509 409.745L289.447 409.289C289.267 409.006 288.934 408.929 288.64 409.078V409.076Z" fill="#492405"/>
<path d="M334.66 408.261C332.511 409.059 330.365 409.86 328.22 410.66C327.919 410.772 327.715 411.061 327.806 411.387C327.885 411.674 328.229 411.911 328.53 411.8C330.679 410.999 332.829 410.197 334.973 409.4C335.271 409.289 335.477 408.999 335.387 408.673C335.309 408.385 334.958 408.148 334.66 408.259V408.261Z" fill="#492405"/>
<path d="M379.438 278.825C377.801 280.678 376.171 282.536 374.537 284.392V285.225H375.369C377.002 283.367 378.639 281.518 380.273 279.66V278.825H379.438Z" fill="#492405"/>
<path d="M371.565 282.185C370.723 283.226 369.879 284.263 369.034 285.304V286.142H369.869C370.714 285.101 371.558 284.061 372.403 283.019V282.185H371.565Z" fill="#492405"/>
<path d="M364.838 283.754L364.695 283.962L364.679 283.983L364.599 284.08L364.286 284.44L363.939 284.776L363.752 284.941L363.654 285.021L363.634 285.038C363.377 285.229 363.114 285.408 362.831 285.558L362.381 285.786L362.287 285.823L362.263 285.833L362.004 285.933C361.716 286.035 361.488 286.339 361.595 286.66C361.685 286.946 362.004 287.182 362.318 287.072C363.765 286.563 364.995 285.617 365.864 284.357L365.65 283.546C365.352 283.388 365.027 283.487 364.839 283.758L364.838 283.754Z" fill="#492405"/>
<path d="M359.231 278.139C358.694 278.942 358.16 279.743 357.624 280.552L357.838 281.359C358.133 281.517 358.462 281.421 358.642 281.147C359.179 280.344 359.716 279.54 360.254 278.734L360.043 277.924C359.745 277.769 359.416 277.862 359.233 278.139H359.231Z" fill="#492405"/>
<path d="M333.52 264.482C332.304 266.497 331.692 268.846 331.765 271.195C331.791 271.956 332.973 271.96 332.949 271.195C332.877 269.041 333.424 266.926 334.54 265.078C334.934 264.426 333.913 263.829 333.52 264.48V264.482Z" fill="#492405"/>
<path d="M327.607 277.413C327.337 278.216 327.067 279.025 326.797 279.829C326.7 280.12 326.914 280.487 327.212 280.552C327.54 280.629 327.835 280.456 327.939 280.138C328.209 279.338 328.476 278.534 328.743 277.729C328.846 277.434 328.632 277.067 328.334 277.002C328.006 276.925 327.71 277.098 327.607 277.413Z" fill="#492405"/>
<path d="M324.553 280.849C324.553 281.653 324.553 282.459 324.553 283.262C324.553 283.573 324.826 283.871 325.144 283.855C325.466 283.84 325.736 283.595 325.736 283.262C325.736 282.459 325.736 281.655 325.736 280.849C325.736 280.54 325.463 280.247 325.144 280.257C324.823 280.273 324.553 280.519 324.553 280.849Z" fill="#492405"/>
<path d="M331.805 254.761C330.87 256.36 330.603 258.282 331.054 260.074C331.24 260.814 332.376 260.5 332.193 259.762C331.821 258.272 332.05 256.687 332.823 255.362C333.209 254.703 332.186 254.111 331.805 254.762V254.761Z" fill="#492405"/>
<path d="M417.868 228.378C416.843 231.344 415.819 234.312 414.791 237.282C414.542 237.999 415.684 238.31 415.935 237.594C416.96 234.625 417.984 231.66 419.009 228.694C419.258 227.974 418.119 227.662 417.87 228.376L417.868 228.378Z" fill="#492405"/>
<path d="M409.204 241.978C408.931 242.512 408.659 243.045 408.389 243.581L408.327 244.034L408.597 244.391C408.867 244.533 409.258 244.471 409.407 244.177C409.681 243.643 409.954 243.109 410.224 242.574L410.283 242.117L410.01 241.767C409.743 241.623 409.352 241.687 409.206 241.978H409.204Z" fill="#492405"/>
<path d="M402.755 250.031C402.003 251.136 401.249 252.244 400.497 253.351L400.708 254.161C401.006 254.318 401.331 254.224 401.517 253.95C402.272 252.84 403.023 251.732 403.781 250.624L403.567 249.82C403.269 249.661 402.945 249.758 402.756 250.031H402.755Z" fill="#492405"/>
<path d="M398.478 243.653C397.987 245.78 396.283 247.494 394.158 247.988C393.847 248.06 393.663 248.417 393.745 248.712C393.832 249.034 394.161 249.196 394.472 249.128C396.972 248.546 399.043 246.469 399.614 243.966C399.686 243.655 399.517 243.329 399.201 243.243C398.904 243.159 398.547 243.342 398.478 243.653Z" fill="#492405"/>
<path d="M350.342 206.677C349.802 208.286 349.262 209.894 348.725 211.503C348.623 211.808 348.839 212.15 349.137 212.23C349.458 212.32 349.761 212.122 349.861 211.819C350.401 210.207 350.941 208.599 351.478 206.992C351.581 206.69 351.363 206.348 351.065 206.265C350.743 206.178 350.442 206.374 350.342 206.677Z" fill="#492405"/>
<path d="M342.255 224.527C342.255 225.064 342.255 225.603 342.255 226.139C342.255 226.447 342.528 226.742 342.844 226.729C343.166 226.714 343.437 226.468 343.437 226.139C343.437 225.603 343.437 225.064 343.437 224.527C343.437 224.219 343.163 223.925 342.844 223.938C342.525 223.952 342.255 224.198 342.255 224.527Z" fill="#492405"/>
<path d="M338.148 241.234C337.459 243.492 336.428 245.616 335.089 247.561L335.303 248.371C335.596 248.542 335.93 248.422 336.112 248.16C337.503 246.135 338.571 243.899 339.286 241.552C339.507 240.822 338.368 240.511 338.15 241.234H338.148Z" fill="#492405"/>
<path d="M416.054 392.978C413.34 392.714 410.696 391.888 408.313 390.573C407.645 390.206 407.046 391.225 407.714 391.591C410.295 393.014 413.124 393.873 416.056 394.156C416.814 394.232 416.807 393.051 416.056 392.976L416.054 392.978Z" fill="#BA702D"/>
<path d="M417.017 399.387C414.601 398.588 412.188 397.787 409.768 396.99C409.045 396.751 408.734 397.891 409.457 398.13C411.87 398.928 414.287 399.726 416.703 400.528C417.426 400.764 417.736 399.624 417.015 399.388L417.017 399.387Z" fill="#BA702D"/>
<path d="M406.404 383.248C403.721 383.248 401.041 383.248 398.358 383.248C397.597 383.248 397.595 384.428 398.358 384.428C401.041 384.428 403.721 384.428 406.404 384.428C407.165 384.428 407.165 383.248 406.404 383.248Z" fill="#BA702D"/>
<path d="M401.3 380.143C399.698 380.901 397.853 381.14 396.114 380.82C395.798 380.765 395.477 380.91 395.384 381.233C395.307 381.521 395.484 381.904 395.798 381.96C397.876 382.341 399.987 382.066 401.895 381.164C402.186 381.028 402.258 380.614 402.106 380.357C401.936 380.059 401.587 380.01 401.302 380.143H401.3Z" fill="#BA702D"/>
<path d="M434.09 417.06C431.944 415.991 429.793 414.927 427.647 413.858C426.966 413.522 426.369 414.541 427.051 414.879C429.196 415.945 431.347 417.012 433.494 418.078C434.174 418.415 434.773 417.397 434.09 417.06Z" fill="#BA702D"/>
<path d="M434.752 422.966C432.657 421.802 430.563 420.64 428.468 419.474C427.8 419.103 427.206 420.124 427.869 420.496C429.964 421.656 432.061 422.822 434.158 423.984C434.826 424.352 435.418 423.333 434.754 422.966H434.752Z" fill="#BA702D"/>
<path d="M268.289 389.809C266.143 388.462 264.003 387.119 261.857 385.772C261.211 385.366 260.621 386.388 261.265 386.79C263.404 388.138 265.55 389.483 267.69 390.83C268.336 391.235 268.932 390.213 268.289 389.809Z" fill="#BA702D"/>
<path d="M262.504 390.601C260.371 389.763 258.238 388.928 256.106 388.089C255.808 387.974 255.458 388.22 255.376 388.501C255.286 388.837 255.494 389.11 255.789 389.228C257.922 390.066 260.055 390.901 262.189 391.741C262.484 391.859 262.838 391.613 262.916 391.328C263.006 390.996 262.802 390.719 262.504 390.601Z" fill="#BA702D"/>
<path d="M310.654 442.99C315.092 452.663 317.287 463.194 318.14 473.761C319.012 484.512 318.579 495.317 317.873 506.06C317.454 512.507 316.955 518.952 316.479 525.392C316.423 526.15 317.606 526.146 317.659 525.392C318.489 514.15 319.479 502.902 319.743 491.63C319.993 480.849 319.538 469.969 317.264 459.399C316.007 453.548 314.167 447.832 311.671 442.391C311.358 441.702 310.338 442.301 310.652 442.99H310.654Z" fill="#152151"/>
<path d="M310.287 444.309C311.921 453.973 312.564 463.803 312.22 473.6C311.885 483.339 310.581 493.036 308.321 502.518C307.047 507.868 305.467 513.147 303.598 518.32C303.339 519.037 304.48 519.345 304.737 518.634C308.088 509.364 310.495 499.76 311.917 490.005C313.343 480.263 313.811 470.379 313.278 460.544C312.973 454.997 312.354 449.469 311.426 443.992C311.3 443.244 310.162 443.561 310.287 444.309Z" fill="#152151"/>
<path d="M380.062 486.991C380.498 490.146 380.059 493.369 378.864 496.319C378.578 497.021 379.72 497.329 380.003 496.63C381.284 493.475 381.668 490.044 381.198 486.674C381.156 486.356 380.755 486.189 380.475 486.261C380.131 486.354 380.015 486.673 380.062 486.991Z" fill="#152151"/>
<path d="M370.435 499.76C369.102 501.626 368.69 504.074 369.299 506.275C369.499 507.009 370.645 506.694 370.438 505.963C369.906 504.041 370.294 501.978 371.453 500.358L371.242 499.551C370.944 499.377 370.622 499.501 370.435 499.762V499.76Z" fill="#152151"/>
<path d="M360.759 512.171C360.759 514.183 360.759 516.196 360.759 518.205C360.759 518.969 361.943 518.969 361.943 518.205C361.943 516.195 361.943 514.183 361.943 512.171C361.943 511.41 360.759 511.41 360.759 512.171Z" fill="#152151"/>
<path d="M369.206 437.344C369.206 441.366 369.206 445.39 369.206 449.412C369.206 450.174 370.389 450.177 370.389 449.412C370.389 445.392 370.389 441.366 370.389 437.344C370.389 436.583 369.206 436.583 369.206 437.344Z" fill="#152151"/>
<path d="M347.499 532.345C346.17 534.212 345.756 536.659 346.361 538.864C346.566 539.594 347.707 539.286 347.501 538.546C346.972 536.624 347.365 534.562 348.522 532.944L348.308 532.137C348.013 531.959 347.684 532.087 347.497 532.345H347.499Z" fill="#152151"/>
<path d="M331.659 544.751C331.489 547.593 329.814 550.238 327.349 551.649C326.688 552.024 327.284 553.046 327.947 552.667C330.788 551.05 332.645 548.009 332.84 544.751C332.884 543.99 331.707 543.995 331.659 544.751Z" fill="#152151"/>
<path d="M299.522 531.026C297.043 532.093 295.408 534.83 295.606 537.517C295.627 537.836 295.859 538.109 296.195 538.109C296.496 538.109 296.811 537.836 296.784 537.517C296.614 535.197 297.983 532.966 300.117 532.047C300.409 531.921 300.477 531.493 300.328 531.24C300.152 530.936 299.816 530.898 299.52 531.026H299.522Z" fill="#152151"/>
<path d="M166.487 414.989C168.695 416.863 170.453 419.186 171.655 421.817C171.786 422.11 172.205 422.183 172.459 422.031C172.76 421.857 172.806 421.515 172.673 421.222C171.434 418.511 169.595 416.084 167.325 414.152C166.747 413.661 165.909 414.494 166.487 414.987V414.989Z" fill="#152151"/>
<path d="M153.283 414.898C155.261 416.613 156.587 419.038 156.88 421.645C156.914 421.963 157.128 422.235 157.469 422.235C157.762 422.235 158.096 421.961 158.062 421.645C157.733 418.727 156.348 415.991 154.121 414.061C153.547 413.565 152.709 414.4 153.283 414.896V414.898Z" fill="#152151"/>
<path d="M148.548 365.057C149.191 368.706 149.836 372.355 150.48 376.004C150.612 376.752 151.753 376.435 151.619 375.691C150.976 372.042 150.331 368.39 149.686 364.745C149.555 363.997 148.415 364.314 148.548 365.059V365.057Z" fill="#152151"/>
<path d="M189.491 348.166C190.743 352.431 191.09 356.896 190.534 361.302C190.437 362.053 191.621 362.046 191.714 361.302C192.282 356.798 191.907 352.203 190.63 347.849C190.416 347.122 189.277 347.43 189.491 348.166Z" fill="#152151"/>
<path d="M212.392 476.265C213.597 478.274 214.805 480.291 216.013 482.299C216.404 482.951 217.427 482.358 217.034 481.704C215.826 479.692 214.618 477.681 213.413 475.666C213.022 475.018 211.999 475.611 212.392 476.265Z" fill="#152151"/>
<path d="M206.462 404.992C207.67 407.048 208.02 409.514 207.431 411.823C207.238 412.56 208.382 412.876 208.567 412.136C209.241 409.528 208.85 406.718 207.483 404.395C207.099 403.74 206.074 404.336 206.462 404.992Z" fill="#152151"/>
<path d="M226.021 365.495L226.191 365.547L226.16 365.531L226.24 365.575L226.376 365.658L226.351 365.64L226.404 365.683L226.53 365.807L226.59 365.879L226.571 365.851L226.747 366.146L226.729 366.099L226.764 366.182L226.814 366.352L226.847 366.529L226.841 366.473L226.844 366.56V366.726L226.834 366.812L226.837 366.775L226.793 366.942L226.769 367.014L226.772 366.994C226.641 367.274 226.687 367.646 226.986 367.804C227.25 367.945 227.654 367.888 227.797 367.59C228.108 366.94 228.08 366.226 227.779 365.575C227.505 364.987 226.965 364.509 226.335 364.352C226.034 364.275 225.68 364.448 225.608 364.763C225.536 365.074 225.698 365.409 226.017 365.493L226.021 365.495Z" fill="#152151"/>
<path d="M244.601 540.6C241.964 544.739 239.327 548.878 236.695 553.015C236.284 553.659 237.307 554.254 237.716 553.614C240.353 549.474 242.986 545.338 245.621 541.199C246.032 540.556 245.009 539.96 244.6 540.6H244.601Z" fill="#6B74B5"/>
<path d="M235.188 535.93C233.163 539.141 231.138 542.348 229.114 545.56C228.708 546.203 229.731 546.799 230.136 546.153C232.161 542.944 234.186 539.734 236.214 536.525C236.617 535.88 235.597 535.286 235.189 535.93H235.188Z" fill="#6B74B5"/>
<path d="M384.841 563.203C379.061 558.976 373.279 554.756 367.5 550.533C366.888 550.083 366.296 551.107 366.908 551.554C372.683 555.774 378.462 559.998 384.245 564.221C384.861 564.668 385.45 563.644 384.843 563.202L384.841 563.203Z" fill="#6B74B5"/>
<path d="M382.19 569.561C376.659 565.403 371.129 561.243 365.598 557.087C364.989 556.63 364.399 557.655 364.999 558.109C370.53 562.265 376.063 566.421 381.593 570.581C382.202 571.038 382.791 570.013 382.189 569.563L382.19 569.561Z" fill="#6B74B5"/>
<path d="M358.514 146.56C354.962 152.877 342.995 152.155 336.677 155.706C318.93 165.675 297.141 145.396 277.366 150.218C268.762 152.319 262.085 158.855 255.064 164.254C248.039 169.654 239.098 174.286 230.618 171.72C227.544 170.792 224.643 168.937 221.43 169.013C212.012 169.245 208.62 184.829 199.198 184.754C202.362 165.952 205.53 147.144 208.694 128.341C210.026 120.417 212.374 111.177 219.855 108.239C223.293 106.889 227.135 107.232 230.808 107.601C260.487 110.554 290.169 113.507 319.843 116.463C327.827 117.254 336.284 118.236 342.588 123.193C348.895 128.148 362.279 139.766 356.548 145.378L358.514 146.561V146.56Z" fill="#492405"/>
<path d="M259.76 280.853L219.069 267.095L250.316 300.963L259.76 280.853Z" fill="#BF8271"/>
<path d="M202.976 218.336C200.311 212.156 196.03 206.705 190.71 202.595C189.194 201.424 187.606 200.357 185.939 199.416C184.61 198.668 183.422 200.707 184.745 201.455C190.325 204.607 195.058 209.175 198.405 214.641C199.365 216.206 200.209 217.843 200.938 219.53C201.188 220.114 202.052 220.247 202.555 219.952C203.159 219.598 203.233 218.924 202.977 218.338L202.976 218.336Z" fill="#BF8271"/>
<path d="M193.48 206.6C189.327 209.972 187.104 215.568 187.557 220.873C187.688 222.407 188.008 223.916 188.579 225.347C188.813 225.94 189.368 226.354 190.029 226.17C190.596 226.015 191.092 225.316 190.856 224.72C189.086 220.244 189.751 215.158 192.449 211.177C193.172 210.111 194.107 209.118 195.15 208.27C195.646 207.865 195.569 207.016 195.15 206.598C194.662 206.107 193.976 206.192 193.478 206.598L193.48 206.6Z" fill="#BF8271"/>
<path d="M85.0788 263.584C77.362 279.983 70.7223 296.887 65.217 314.153C60.8626 327.807 57.5494 343.866 65.8555 355.548C70.372 361.899 77.6402 365.746 85.0248 368.233C102.387 374.08 123.764 372.587 136.15 359.087C141.983 352.727 145.283 344.36 151.196 338.076C160.782 327.874 175.533 324.741 189.357 322.546C194.73 321.688 200.28 320.845 204.907 317.977C214.916 311.776 217.447 298.288 216.782 286.531C215.797 269.222 211.642 249.419 201.733 235.19L131.026 244.05L85.0788 263.582V263.584Z" fill="#492405"/>
<path d="M354.715 584.761C346.669 579.952 337.856 576.435 328.726 574.317C319.59 572.197 310.128 571.444 300.781 572.156C295.539 572.548 290.334 573.399 285.244 574.703C284.506 574.888 284.819 576.033 285.557 575.843C294.52 573.546 303.819 572.695 313.052 573.238C322.281 573.779 331.431 575.728 340.079 578.999C344.947 580.837 349.649 583.113 354.118 585.784C354.773 586.176 355.369 585.154 354.714 584.763L354.715 584.761Z" fill="#152151"/>
<path d="M241.124 502.729C241.965 505.532 242.807 508.338 243.648 511.142C243.866 511.869 245.008 511.561 244.788 510.829C243.946 508.025 243.101 505.221 242.263 502.417C242.046 501.687 240.9 501.998 241.124 502.729Z" fill="#152151"/>
<path d="M232.72 507.722C233.587 509.709 234.45 511.693 235.316 513.677C235.442 513.97 235.871 514.038 236.123 513.892C236.428 513.712 236.465 513.376 236.338 513.082C235.472 511.097 234.606 509.113 233.738 507.128C233.612 506.833 233.183 506.768 232.931 506.917C232.626 507.09 232.594 507.432 232.72 507.72V507.722Z" fill="#152151"/>
<path d="M237.771 476.243C238.858 477.876 239.261 479.903 238.827 481.833C238.662 482.573 239.799 482.885 239.969 482.144C240.469 479.923 240.053 477.544 238.789 475.643C238.368 475.013 237.345 475.606 237.771 476.243Z" fill="#152151"/>
<path d="M259.89 472.469C261.008 473.751 262.126 475.034 263.246 476.319H264.079V475.484C262.961 474.203 261.843 472.916 260.724 471.631H259.89V472.469Z" fill="#152151"/>
<path d="M227.938 462.691C227.963 465.467 228.925 468.132 230.628 470.318H231.463V469.48C229.96 467.553 229.143 465.129 229.122 462.691C229.115 461.93 227.935 461.927 227.938 462.691Z" fill="#152151"/>
<path d="M199.471 59.0113C176.255 62.0201 150.083 65.8932 134.664 85.5896C131.423 89.7361 128.947 94.3934 127.432 99.437C125.711 105.171 124.794 111.343 120.5 115.851C113.424 123.28 101.914 124.053 92.444 125.938C82.4533 127.931 72.4103 131.699 64.5347 138.313C60.7745 141.474 57.5758 145.34 55.4296 149.775C53.0233 154.746 52.0395 160.227 51.9085 165.718C51.6253 177.314 54.7469 188.708 54.3344 200.306C54.1347 205.957 52.9528 211.509 50.3091 216.54C47.8372 221.251 44.3504 225.326 40.5248 228.989C32.5771 236.601 22.9876 242.401 15.4852 250.485C8.3986 258.121 1.96997 268.574 3.28776 279.43C3.58242 281.878 4.29126 284.222 5.34712 286.448C5.67289 287.132 6.69278 286.535 6.36865 285.849C1.3807 275.331 6.36217 263.686 13.0231 255.176C19.7839 246.546 29.046 240.565 37.2883 233.501C45.1918 226.725 52.3029 218.684 54.5669 208.242C56.9716 197.178 54.4344 185.827 53.4489 174.752C52.9496 169.116 52.7809 163.355 53.9579 157.785C55.0384 152.658 57.3057 147.873 60.6665 143.847C67.2407 135.959 76.9514 131.26 86.6735 128.531C96.3122 125.824 106.954 125.714 115.886 120.805C120.176 118.441 123.475 114.923 125.366 110.384C127.63 104.952 128.302 99.036 130.915 93.7222C135.669 84.0459 144.175 76.6647 153.604 71.698C164.768 65.8163 177.36 63.3035 189.742 61.4995C192.98 61.0297 196.227 60.6073 199.471 60.1866C200.216 60.09 200.226 58.9065 199.471 59.0063V59.0113Z" fill="#492405"/>
<path d="M355.566 137.051C353.235 145.644 346.838 152.793 338.828 156.559C334.717 158.491 330.227 159.426 325.686 159.316C320.354 159.19 315.158 157.807 310.062 156.355C304.97 154.904 299.883 153.344 294.612 152.693C289.086 152.007 283.582 152.665 278.231 154.133C267.125 157.18 256.866 163.314 245.298 164.671C240.513 165.229 235.698 164.861 231.19 163.089C227.178 161.516 223.467 158.838 221.203 155.119C220.649 154.209 220.193 153.256 219.832 152.259C219.574 151.548 218.431 151.855 218.693 152.572C221.798 161.149 231.093 165.738 239.786 166.083C251.677 166.553 262.496 160.686 273.418 156.882C278.992 154.942 284.808 153.444 290.752 153.58C296.261 153.711 301.625 155.168 306.888 156.677C312.074 158.157 317.273 159.735 322.657 160.298C327.441 160.801 332.235 160.347 336.76 158.691C345.22 155.592 352.305 148.901 355.656 140.517C356.07 139.492 356.417 138.436 356.707 137.369C356.908 136.632 355.769 136.318 355.568 137.051H355.566Z" fill="#492405"/>
<path d="M272.268 64.5924C274.573 62.5526 277.721 62.2171 280.665 62.5919C283.853 63.0077 286.879 64.1913 289.825 65.424C295.81 67.9204 301.579 70.921 307.082 74.3489C312.607 77.7931 317.857 81.6745 322.771 85.9503C327.66 90.2049 332.222 94.8409 336.383 99.8125C340.566 104.8 344.346 110.126 347.66 115.726C348.071 116.415 348.469 117.104 348.864 117.797C349.235 118.461 350.258 117.862 349.882 117.204C346.611 111.425 342.858 105.932 338.693 100.767C334.522 95.5988 329.937 90.7746 324.993 86.3399C320.056 81.9151 314.76 77.8717 309.18 74.2785C303.599 70.6886 297.727 67.5455 291.631 64.9148C288.637 63.6232 285.594 62.3382 282.383 61.6883C279.371 61.0859 276.086 60.9959 273.293 62.4544C272.62 62.8064 272.002 63.2533 271.43 63.7558C270.862 64.2617 271.7 65.0949 272.268 64.5907V64.5924Z" fill="#492405"/>
<path d="M320.888 210.76C319.919 207.136 317.197 204.179 313.69 202.879C310.172 201.578 306.333 202.609 303.514 204.947C301.897 206.286 300.725 208.11 300.049 210.089C299.751 210.968 300.393 212.068 301.288 212.269C302.272 212.494 303.146 211.971 303.469 211.03L303.67 210.487C303.546 210.806 303.698 210.434 303.757 210.313C303.924 209.971 304.114 209.635 304.322 209.316L304.605 208.9L304.587 208.918L304.77 208.694C305.012 208.409 305.273 208.133 305.549 207.872L305.97 207.496L306.134 207.362L306.109 207.38C306.42 207.168 306.721 206.957 307.047 206.771L307.478 206.537C307.586 206.484 308.049 206.276 307.682 206.428C308.024 206.288 308.371 206.167 308.725 206.073L309.259 205.947L309.567 205.885L309.601 205.882L309.874 205.86L310.496 205.844L310.971 205.865L311.241 205.887C311.203 205.869 310.83 205.818 311.172 205.877C311.529 205.942 311.883 206.018 312.232 206.119L312.685 206.271L312.939 206.368L312.891 206.347C313.219 206.514 313.549 206.669 313.864 206.862L314.27 207.123C314.343 207.165 314.81 207.517 314.474 207.249C314.762 207.483 315.045 207.728 315.309 207.989C315.594 208.272 315.853 208.57 316.11 208.877L316.088 208.853L316.293 209.144L316.597 209.619L316.907 210.182C316.951 210.262 317.218 210.861 317.059 210.47C317.221 210.871 317.354 211.277 317.47 211.693C317.709 212.59 318.744 213.227 319.649 212.936C320.569 212.638 321.143 211.713 320.885 210.755L320.888 210.76Z" fill="#141515"/>
<path d="M286.598 195.963C286.554 206.919 286.514 217.874 286.47 228.83C286.457 231.911 286.446 234.995 286.433 238.078C287.025 237.736 287.616 237.399 288.212 237.056C285.103 235.274 282.34 232.997 279.979 230.302C279.564 229.818 278.74 229.87 278.308 230.302C277.833 230.777 277.886 231.487 278.308 231.969C280.79 234.807 283.75 237.22 287.019 239.099C287.795 239.543 288.791 238.975 288.795 238.078C288.839 227.121 288.881 216.17 288.922 205.21C288.936 202.129 288.947 199.047 288.96 195.963C288.967 194.444 286.603 194.442 286.598 195.963Z" fill="#BF8271"/>
<path d="M283.091 247.942C270.929 247.963 261.042 239.117 252.552 230.856L256.015 240.131C259.965 250.721 273.598 254.648 283.091 247.942Z" fill="white"/>
<path d="M283.09 246.76C273.836 246.747 265.833 241.31 259.129 235.394C257.166 233.661 255.266 231.85 253.387 230.022C252.594 229.251 250.98 230.015 251.411 231.171C252.069 232.931 252.724 234.689 253.383 236.453C254.1 238.382 254.737 240.4 255.647 242.252C258.736 248.543 265.522 252.367 272.445 252.435C276.429 252.475 280.428 251.267 283.686 248.963C284.208 248.597 284.454 247.932 284.108 247.348C283.81 246.832 283.018 246.552 282.494 246.922C281.817 247.4 281.113 247.831 280.376 248.21C279.577 248.623 279.04 248.854 278.205 249.139C277.416 249.409 276.613 249.623 275.796 249.782L275.187 249.888L274.941 249.926L274.83 249.942C274.401 249.991 273.975 250.029 273.545 250.05C272.731 250.091 271.918 250.078 271.104 250.009L270.56 249.957L270.256 249.919L270.212 249.913C269.789 249.847 269.374 249.772 268.958 249.684C267.368 249.332 265.992 248.836 264.662 248.143C263.181 247.371 262.048 246.56 260.902 245.457C259.687 244.293 258.853 243.209 258.036 241.728C257.157 240.122 256.579 238.284 255.896 236.458C255.164 234.486 254.428 232.515 253.688 230.545C253.033 230.927 252.375 231.313 251.715 231.695C258.491 238.287 265.902 245.147 275.157 247.939C277.722 248.713 280.405 249.122 283.088 249.125C284.611 249.129 284.611 246.765 283.088 246.762L283.09 246.76Z" fill="#BF8271"/>
<path d="M263.127 178.886C264.198 173.71 256.355 172.017 249.269 172.834C244.827 173.343 240.242 174.406 235.766 175.961C233.111 179.547 235.419 183.069 239.478 184.082C243.537 185.098 248.771 184.251 253.775 183.265L263.127 178.886Z" fill="#492405"/>
<path d="M298.767 186.601C297.586 181.446 305.393 179.593 312.496 180.262C316.949 180.681 321.555 181.647 326.062 183.114C328.788 186.645 326.556 190.21 322.52 191.309C318.481 192.406 313.228 191.666 308.211 190.788L298.77 186.602L298.767 186.601Z" fill="#492405"/>
<path d="M235.878 68.1036C242.315 66.5763 248.526 64.1044 254.272 60.8223C259.995 57.5581 265.267 53.4836 269.867 48.7674C272.473 46.0925 274.857 43.2065 276.998 40.1502L276.787 39.3431C274.322 38.0057 271.576 38.672 269.244 39.9652C266.533 41.4713 264.29 43.7074 261.983 45.7504C256.838 50.3029 251.695 54.8587 246.55 59.4112C243.631 61.9911 240.717 64.5743 237.798 67.1525H238.637C233.557 61.423 227.69 56.4023 221.271 52.2313C214.874 48.0766 207.918 44.7698 200.652 42.4502C198.854 41.8756 197.034 41.3599 195.205 40.9065C193.624 40.5185 192.077 40.1207 190.445 40.4203C189.183 40.6527 187.862 41.4287 187.849 42.8611C187.845 43.3947 188.163 43.6059 188.539 43.9333C188.914 44.2591 189.294 44.5881 189.675 44.9073C190.44 45.5572 191.213 46.1891 191.995 46.8144C198.245 51.8204 205.016 56.1584 212.174 59.7402C219.279 63.2925 226.763 66.118 234.452 68.1086C235.425 68.3574 236.396 68.5964 237.371 68.8239C238.111 68.9909 238.424 67.8548 237.684 67.6846C230.663 66.0607 223.8 63.7689 217.216 60.8239C210.645 57.8871 204.35 54.3234 198.45 50.1916C195.12 47.8605 191.925 45.3411 188.87 42.6613L189.044 43.0739C188.932 41.6955 190.771 41.4778 191.792 41.4843C192.637 41.4909 193.447 41.7053 194.271 41.8969C195.202 42.1244 196.127 42.3601 197.05 42.6139C200.848 43.6583 204.572 44.9679 208.18 46.5394C215.396 49.6792 222.195 53.8159 228.279 58.8153C231.689 61.6162 234.875 64.6872 237.8 67.9956H238.638C243.61 63.5921 248.585 59.1885 253.559 54.785C256.031 52.5963 258.507 50.406 260.982 48.2157C262.232 47.1107 263.485 46.0025 264.732 44.8959C265.809 43.9431 266.878 42.974 268.049 42.1359C270.331 40.4989 273.433 38.8684 276.191 40.3663L275.977 39.5592C272.257 44.8746 267.754 49.6366 262.686 53.6915C257.627 57.7463 251.975 61.1038 245.988 63.5953C242.61 64.9966 239.123 66.1261 235.567 66.9708C234.826 67.1476 235.138 68.287 235.882 68.1102L235.878 68.1036Z" fill="#EFA02A"/>
<path d="M254.942 64.9419C247.669 67.9115 239.965 69.7989 232.145 70.5421C224.325 71.2804 216.4 70.917 208.688 69.4142C204.329 68.5597 200.04 67.3483 195.879 65.7834C195.168 65.5165 194.861 66.6592 195.569 66.9227C203.021 69.7236 210.882 71.3852 218.83 71.9123C226.74 72.4361 234.731 71.819 242.468 70.0887C246.834 69.1114 251.113 67.769 255.253 66.0829C255.949 65.7981 255.644 64.6538 254.942 64.9403V64.9419Z" fill="#EFA02A"/>
<path d="M249.979 65.4433C242.721 66.9903 235.322 67.8284 227.903 67.9561C220.481 68.0838 213.052 67.5092 205.743 66.2159C201.624 65.4858 197.548 64.5331 193.532 63.3676C192.8 63.1498 192.486 64.2908 193.22 64.5053C200.414 66.6006 207.812 67.9888 215.278 68.6731C222.753 69.3508 230.286 69.3164 237.756 68.5552C241.968 68.1231 246.157 67.465 250.299 66.5826C251.04 66.4206 250.724 65.2845 249.981 65.4433H249.979Z" fill="#EFA02A"/>
<path d="M233.441 69.2032C233.012 75.7184 231.917 82.1813 230.184 88.4822C228.454 94.7797 226.098 100.904 223.145 106.73C221.477 110.009 219.628 113.196 217.602 116.267C217.186 116.904 218.207 117.493 218.623 116.86C222.257 111.345 225.319 105.463 227.777 99.3338C230.236 93.1934 232.078 86.8091 233.255 80.307C233.923 76.6368 234.379 72.929 234.625 69.2048C234.672 68.4436 233.495 68.4436 233.441 69.2048V69.2032Z" fill="#EFA02A"/>
<path d="M237.575 75.2822C238.147 85.6166 236.564 96.023 232.97 105.73C231.962 108.451 230.792 111.11 229.474 113.696C229.127 114.369 230.145 114.97 230.492 114.289C235.269 104.932 238.078 94.6168 238.731 84.1302C238.914 81.1836 238.921 78.2304 238.759 75.2822C238.715 74.521 237.531 74.521 237.575 75.2822Z" fill="#EFA02A"/>
<path d="M171.899 102.813C170.718 114.601 165.958 125.96 158.442 135.113C154.689 139.683 150.275 143.56 145.422 146.925C140.751 150.167 135.832 153.038 131.208 156.341C126.827 159.475 122.705 163.03 119.586 167.462C116.748 171.495 114.844 176.115 113.78 180.919C111.523 191.095 112.693 201.691 113.738 211.942C114.818 222.548 116.136 233.488 114.014 244.054C112.955 249.339 110.961 254.363 107.952 258.847C104.809 263.531 100.748 267.52 96.3935 271.074C87.6143 278.241 77.5533 283.613 68.7069 290.687C60.3042 297.407 52.3877 305.975 49.9747 316.779C47.1313 329.495 53.103 341.591 57.0236 353.363C60.1535 362.759 62.0182 374.406 56.6864 383.402C55.3998 385.576 53.6858 387.429 51.633 388.899C51.0208 389.334 51.6084 390.361 52.2288 389.917C60.3778 384.098 61.9804 373.518 60.8116 364.185C59.2679 351.844 52.3892 340.925 50.7277 328.606C49.8961 322.44 50.6966 316.252 53.3207 310.601C55.7123 305.449 59.2958 300.953 63.3326 296.993C71.6404 288.837 81.8324 283.175 91.2435 276.453C100.175 270.079 108.653 262.501 112.86 252.108C116.827 242.3 116.648 231.437 115.792 221.072C114.913 210.382 113.135 199.648 113.854 188.896C114.199 183.789 115.183 178.667 117.267 173.962C119.549 168.801 123.103 164.435 127.385 160.789C136.158 153.318 146.938 148.628 155.17 140.458C163.267 132.426 169.067 122.082 171.718 110.99C172.362 108.294 172.806 105.562 173.079 102.81C173.157 102.055 171.974 102.055 171.899 102.81V102.813Z" fill="#6D3A14"/>
<path d="M143.082 235.878C143.716 248.706 144.256 261.905 140.97 274.444C139.368 280.56 136.785 286.398 133.001 291.481C129.657 295.977 125.481 299.797 121.172 303.352C112.654 310.37 103.105 316.559 96.5682 325.633C93.0781 330.481 90.7651 336.056 89.7027 341.931C88.5781 348.155 88.7401 354.522 89.3982 360.781C90.7733 373.868 94.2518 386.761 94.1471 399.984C94.134 401.569 94.0636 403.152 93.9359 404.73C93.877 405.488 95.0573 405.485 95.1195 404.73C96.1819 391.575 92.9816 378.592 91.1792 365.652C89.4391 353.163 89.0741 339.926 95.889 328.788C101.753 319.208 111.326 312.755 119.932 305.873C124.289 302.388 128.554 298.731 132.149 294.448C136.071 289.785 138.996 284.422 140.946 278.655C145.06 266.475 145.006 253.296 144.48 240.601C144.418 239.028 144.343 237.456 144.266 235.881C144.225 235.127 143.048 235.12 143.082 235.881V235.878Z" fill="#6D3A14"/>
<path d="M87.3407 306.026C82.7669 316.899 79.3963 328.263 77.2928 339.871C75.1958 351.433 74.3396 363.218 74.7701 374.965C74.9878 380.802 75.4626 386.678 76.4121 392.448C77.3255 398.035 78.9527 403.447 81.9239 408.301C87.3587 417.177 95.8139 423.546 102.193 431.654C107.916 438.927 112.639 449.881 108.612 459C108.131 460.091 107.528 461.112 106.833 462.075C106.392 462.692 107.414 463.283 107.857 462.672C113.732 454.502 111.046 443.629 106.314 435.608C101.047 426.676 92.4957 420.323 86.1294 412.249C82.7015 407.901 80.151 403.092 78.7251 397.729C77.2011 391.993 76.6331 385.993 76.2222 380.09C75.4053 368.286 75.8965 356.386 77.6792 344.688C79.4602 332.984 82.5198 321.473 86.8186 310.439C87.3522 309.067 87.9087 307.7 88.48 306.343C88.7747 305.641 87.6321 305.337 87.3407 306.026Z" fill="#6D3A14"/>
<path d="M38.738 306.638C32.4879 312.274 28.0745 319.889 26.205 328.09C24.2946 336.459 25.1868 345.266 28.5509 353.151C30.4481 357.593 33.118 361.688 36.4379 365.196C36.9568 365.753 37.7951 364.913 37.2712 364.362C31.5319 358.288 27.8061 350.378 26.7126 342.097C25.6322 333.933 27.2413 325.556 31.1194 318.303C33.2933 314.238 36.1498 310.565 39.5744 307.474C40.1424 306.965 39.3011 306.132 38.7396 306.639L38.738 306.638Z" fill="#6D3A14"/>
<path d="M177.816 250.635C180.22 250.5 182.129 252.044 183.563 253.817C185.21 255.835 186.374 258.265 187.492 260.596C189.982 265.775 191.882 271.41 191.969 277.206C192.046 282.289 190.73 287.542 187.594 291.622C184.876 295.153 180.951 297.417 176.789 298.848C168.297 301.773 158.974 301.878 150.821 305.875C147.002 307.748 143.833 310.542 141.273 313.918C138.742 317.252 136.825 321.004 135.028 324.765C131.521 332.108 128.363 340.295 121.866 345.581C121.105 346.198 120.301 346.758 119.466 347.273C118.818 347.665 119.411 348.693 120.062 348.293C123.631 346.11 126.456 342.999 128.738 339.524C131.083 335.962 132.89 332.08 134.697 328.23C136.519 324.339 138.336 320.417 140.687 316.807C142.979 313.279 145.838 310.125 149.474 307.948C153.397 305.607 157.866 304.41 162.297 303.454C166.818 302.482 171.408 301.771 175.833 300.401C180.065 299.093 184.149 297.099 187.23 293.85C190.83 290.057 192.668 284.933 193.068 279.781C193.515 274.014 192.071 268.273 189.854 262.987C188.743 260.347 187.5 257.711 186.007 255.267C184.778 253.259 183.203 251.206 181.046 250.139C180.036 249.641 178.94 249.394 177.812 249.458C177.058 249.495 177.051 250.677 177.812 250.635H177.816Z" fill="#6D3A14"/>
<path d="M163.388 251.492C165.754 255.463 166.751 260.103 166.509 264.704C166.266 269.301 164.785 273.84 162.205 277.658C160.758 279.801 158.941 281.701 156.842 283.216C156.23 283.654 156.818 284.679 157.435 284.235C161.385 281.394 164.297 277.367 166.006 272.829C167.713 268.283 168.177 263.26 167.273 258.485C166.767 255.815 165.805 253.231 164.41 250.896C164.022 250.241 162.997 250.837 163.388 251.494V251.492Z" fill="#6D3A14"/>
<path d="M200.809 132.806C193.521 133.385 186.307 134.679 179.695 137.933C174.095 140.693 169.093 144.607 164.816 149.14C160.462 153.756 156.809 159.034 153.863 164.647C150.432 171.176 147.911 178.162 145.904 185.246C143.833 192.534 142.304 199.959 140.842 207.388C140.662 208.304 140.482 209.221 140.302 210.139C140.156 210.881 141.296 211.202 141.441 210.452C142.874 203.138 144.314 195.819 146.208 188.61C148.099 181.426 150.44 174.34 153.673 167.645C156.394 162.008 159.779 156.677 163.878 151.941C167.918 147.27 172.657 143.175 178.048 140.14C180.778 138.599 183.66 137.349 186.652 136.432C190.347 135.297 194.177 134.646 198.018 134.243C198.949 134.147 199.876 134.06 200.807 133.989C201.559 133.93 201.568 132.747 200.807 132.806H200.809Z" fill="#6D3A14"/>
<path d="M176.519 171.477C169.709 176.573 164.367 183.47 161.095 191.318C160.172 193.526 159.427 195.805 158.856 198.131C158.676 198.869 159.815 199.184 159.998 198.444C161.951 190.445 166.088 183.028 171.84 177.131C173.477 175.455 175.24 173.898 177.116 172.499C177.719 172.049 177.13 171.024 176.521 171.477H176.519Z" fill="#6D3A14"/>
<path d="M327.952 99.9811C331.85 106.583 328.682 115.263 323.105 119.838C316.205 125.495 306.688 126.203 298.138 125.818C288.625 125.389 278.934 123.772 269.573 126.302C265.602 127.378 261.791 129.185 258.714 131.945C255.294 135.008 253.289 139.212 250.218 142.576C245.01 148.274 236.619 150.781 229.11 149.05C228.187 148.836 227.275 148.556 226.386 148.225C225.671 147.955 225.361 149.094 226.068 149.361C233.522 152.175 242.288 150.643 248.52 145.753C252.113 142.939 254.228 138.937 257.047 135.44C259.768 132.068 263.356 129.673 267.422 128.215C276.67 124.898 286.561 126.32 296.122 126.895C304.992 127.425 314.709 127.119 322.305 121.901C325.577 119.655 328.1 116.556 329.575 112.869C330.955 109.425 331.334 105.46 330.131 101.913C329.833 101.029 329.442 100.182 328.969 99.3853C328.584 98.7337 327.563 99.3263 327.951 99.9811H327.952Z" fill="#6D3A14"/>
<path d="M302.679 91.8856C300.499 99.7056 294.121 106.118 286.411 108.572C284.281 109.249 282.097 109.578 279.868 109.667C277.132 109.781 274.387 109.645 271.663 109.989C267.574 110.498 263.694 112.16 260.435 114.669C256.773 117.493 253.941 121.33 252.459 125.722C252.217 126.443 253.356 126.755 253.599 126.035C256.223 118.246 263.496 112.225 271.663 111.17C274.384 110.818 277.135 110.965 279.868 110.849C282.104 110.752 284.311 110.448 286.453 109.793C290.313 108.616 293.872 106.494 296.798 103.718C300.104 100.581 302.593 96.5904 303.815 92.1967C304.023 91.46 302.881 91.1506 302.679 91.884V91.8856Z" fill="#6D3A14"/>
<path d="M276.414 81.0378C273.485 87.2862 268.942 92.7555 263.311 96.7514C261.715 97.8875 260.042 98.9008 258.302 99.788C257.623 100.135 258.218 101.155 258.895 100.806C265.177 97.5977 270.576 92.7424 274.487 86.8754C275.595 85.204 276.582 83.4507 277.434 81.6304C277.753 80.951 276.735 80.3486 276.412 81.0378H276.414Z" fill="#6D3A14"/>
<path d="M207.808 86.1706C207.172 91.5989 205.147 96.8373 202.023 101.313C201.134 102.586 200.151 103.785 199.091 104.922C198.569 105.476 199.404 106.314 199.926 105.754C203.817 101.593 206.649 96.4755 208.097 90.9621C208.512 89.3906 208.799 87.7879 208.99 86.1706C209.077 85.4192 207.895 85.4257 207.807 86.1706H207.808Z" fill="#6D3A14"/>
<path d="M233.925 15.8965C238.291 18.2259 240.859 23.1075 240.88 27.9808C240.908 33.2192 237.769 37.8208 233.275 40.3402C228.619 42.9512 223.042 42.9954 218.298 40.589C215.919 39.3809 213.829 37.6637 212.164 35.5765C210.395 33.3584 208.975 30.5427 208.761 27.6763C208.553 24.9524 209.72 21.9501 212.465 20.9433C213.608 20.5243 214.823 20.5865 215.846 21.2626C216.739 21.8552 217.442 22.8717 217.566 23.9489C217.625 24.4727 217.535 24.9917 217.296 25.4615C216.949 26.1343 217.969 26.7351 218.318 26.0573C219.567 23.6198 217.926 20.7191 215.525 19.7778C212.78 18.7023 209.792 20.6323 208.491 23.0142C206.826 26.0508 207.594 29.7586 209.006 32.7314C210.26 35.3768 212.171 37.7226 214.469 39.5299C219.136 43.2 225.326 44.6226 231.011 42.6451C236.371 40.7789 240.936 36.2035 241.861 30.4756C242.73 25.0882 240.597 19.2687 236.21 15.9554C235.676 15.5511 235.11 15.1975 234.521 14.8799C233.849 14.523 233.252 15.5412 233.921 15.8981L233.925 15.8965Z" fill="#6D3A14"/>
<path d="M404.551 337.017C402.738 331.71 401.223 326.012 402.492 320.549C403.766 315.086 408.706 310.105 414.287 310.658C421.997 311.423 425.102 320.822 426.422 328.456C429.251 318.835 433.345 307.857 442.887 304.786C444.408 304.3 446.089 304.056 447.578 304.613C450.227 305.61 451.391 308.718 451.694 311.526C452.954 323.152 445.169 333.561 441.284 344.591C436.116 359.266 438.151 376.289 446.629 389.329C446.629 389.329 410.802 355.309 404.55 337.019L404.551 337.017Z" fill="#D15259"/>
<path d="M477.795 241.632C478.667 239.077 479.397 236.332 478.785 233.701C478.173 231.074 475.791 228.674 473.106 228.941C469.392 229.307 467.897 233.835 467.265 237.512C465.898 232.876 463.934 227.59 459.334 226.115C458.604 225.88 457.794 225.762 457.077 226.03C455.8 226.51 455.242 228.003 455.096 229.36C454.492 234.955 458.239 239.968 460.108 245.281C462.597 252.347 461.618 260.545 457.535 266.823C457.535 266.823 474.789 250.439 477.798 241.632H477.795Z" fill="#D15259"/>
<path d="M458.795 196.925C458.355 195.633 457.985 194.238 458.291 192.906C458.602 191.57 459.81 190.349 461.174 190.486C463.056 190.676 463.816 192.971 464.135 194.834C464.827 192.487 465.828 189.807 468.16 189.052C468.53 188.934 468.94 188.875 469.306 189.011C469.953 189.254 470.238 190.013 470.31 190.697C470.619 193.539 468.717 196.083 467.769 198.774C466.505 202.358 467.001 206.519 469.074 209.706C469.074 209.706 460.322 201.397 458.795 196.925Z" fill="#D15259"/>
<path d="M236.658 224.278C234.708 224.278 232.58 224.116 230.375 223.769C221.755 222.416 215.163 218.801 215.65 215.689C216.014 213.373 220.19 211.99 225.854 211.99C227.804 211.99 229.932 212.152 232.138 212.499C240.756 213.852 247.353 217.47 246.862 220.579C246.498 222.895 242.319 224.278 236.658 224.278Z" fill="#F3B2A2"/>
<path d="M318.591 232.556C316.639 232.556 314.513 232.389 312.306 232.043C303.689 230.693 297.098 227.075 297.586 223.96C297.95 221.643 302.129 220.262 307.795 220.262C309.744 220.262 311.869 220.427 314.077 220.771C322.695 222.125 329.284 225.746 328.796 228.858C328.436 231.171 324.256 232.556 318.592 232.556H318.591Z" fill="#F3B2A2"/>
<path d="M205.722 149.196C209.45 151.298 209.26 157.525 207.464 161.786C205.673 166.042 202.789 170.061 202.894 174.782C203.064 182.294 210.52 186.965 212.458 194.15C213.745 198.91 212.192 204.486 208.729 207.544C210.245 203.521 207.891 198.938 205.028 196.009C202.162 193.081 198.619 190.823 196.656 187.057C194.365 182.666 194.728 177.054 196.237 172.247C197.154 169.329 198.48 166.465 198.47 163.367C198.464 161.573 198.009 159.825 197.552 158.103C196.192 152.94 194.826 147.777 193.466 142.617L205.726 149.194L205.722 149.196Z" fill="#492405"/>
<path d="M195.329 230.6C197 231.684 196.149 234.815 194.17 235.028C192.192 235.243 190.639 232.619 191.67 230.914C192.698 229.212 195.561 229.219 196.704 230.846L195.329 230.6Z" fill="#EFA02A"/>
<path d="M200.049 247.754C197.911 243.378 195.77 239.005 193.632 234.633C190.98 238.73 187.639 242.381 183.792 245.382L190.387 264.651L200.049 247.754Z" fill="#EFA02A"/>
<path d="M245.46 207.023C245.46 211.048 248.279 214.311 251.761 214.311C255.241 214.311 258.065 211.046 258.065 207.023C258.065 202.997 255.241 199.738 251.761 199.738C248.279 199.738 245.46 202.999 245.46 207.023Z" fill="#141515"/>
</svg>
