<svg width="1919" height="508" viewBox="0 0 1919 508" fill="none" xmlns="http://www.w3.org/2000/svg">
<path d="M1918 416.587L-2 416.587L-1.99997 54.6389C-1.99997 54.6389 98.6654 35.4533 151 34.4492C249.281 32.5635 288.641 89.4189 387 89.7948C487.558 90.1793 490.44 38.3423 591 38.1467C699.927 37.9349 742.342 99.0293 851 95.4293C943.183 92.3751 935.779 37.242 1028 34.4493C1093.19 32.4749 1158.95 64.5034 1224 67.3163C1344.46 72.5249 1503.12 45.2925 1624 47.5374C1712.35 49.1783 1733.88 68.3135 1822 64.91C1878.74 62.7186 1918 55.0499 1918 55.0499L1918 416.587Z" fill="#F5F5F5"/>
<path d="M1918 508.5L-2 508.5L-1.99996 106.693C-1.99996 106.693 75.6654 77.0593 128 75.9448C226.281 73.8518 265.641 121.389 364 121.806C464.558 122.233 505.44 76.1619 606 75.9449C714.927 75.7097 757.342 143.521 866 139.525C958.183 136.135 987.779 79.0447 1080 75.9449C1145.19 73.7535 1186.95 105.134 1252 108.256C1372.46 114.038 1431.12 73.4532 1552 75.9449C1640.35 77.7662 1712.88 118.809 1801 115.031C1857.74 112.599 1918 75.945 1918 75.945L1918 508.5Z" fill="url(#paint0_linear_1_26)"/>
<path opacity="0.3" d="M1918 36.0428C1918 36.0428 1854.71 86.8192 1790 93.2084C1701.3 101.966 1616.92 6.53709 1528 1.29502C1425.41 -4.75287 1390.65 84.2633 1288 79.7576C1206.11 76.1633 1133.63 15.5911 1052 23.7129C949.514 33.9098 936.859 113.96 834 116.747C734.824 119.434 707.03 40.421 608 33.8009C505.187 26.9278 446.39 114.672 344 102.175C258.855 91.7836 219.575 19.7439 134 23.7128C72.9854 26.5426 -2 97.6918 -2 97.6918" stroke="black" stroke-width="2" stroke-linecap="round" stroke-dasharray="1 8"/>
<path opacity="0.3" d="M1918 46.1314C1918 46.1314 1839.71 98.0287 1775 104.418C1686.3 113.176 1651.92 40.1645 1563 34.9224C1460.41 28.8745 1395.65 95.4728 1293 90.9671C1211.11 87.3728 1168.63 38.0095 1087 46.1313C984.514 56.3282 951.859 170.005 849 172.792C749.824 175.48 712.03 74.0484 613 67.4283C510.187 60.5552 461.39 159.508 359 147.012C273.855 136.62 244.575 42.1624 159 46.1312C97.9854 48.961 -1.99999 108.901 -1.99999 108.901" stroke="black" stroke-width="2" stroke-linecap="round" stroke-dasharray="1 8"/>
<path d="M-2 508.5L1918 508.5L1918 410.124C1918 410.124 1840.33 359.729 1788 357.833C1689.72 354.274 1650.36 435.116 1552 435.825C1451.44 436.551 1410.56 358.203 1310 357.833C1201.07 357.434 1158.66 472.754 1050 465.959C957.817 460.194 1078 255.912 896 291.363C714 326.814 729.054 256.806 664 262.116C543.54 271.947 484.875 202.929 364 207.167C275.647 210.264 203.124 280.062 115 273.637C58.2594 269.501 -1.99997 207.167 -1.99997 207.167L-2 508.5Z" fill="#005546"/>
<defs>
<linearGradient id="paint0_linear_1_26" x1="1918" y1="508.5" x2="1044.67" y2="-688.138" gradientUnits="userSpaceOnUse">
<stop stop-color="#005546"/>
<stop offset="1" stop-color="#047460"/>
</linearGradient>
</defs>
</svg>
