<svg width="1139" height="501" viewBox="0 0 1139 501" fill="none" xmlns="http://www.w3.org/2000/svg">
<path d="M0 530.224L1139 530.225L1139 357.303C1139 357.303 1092.93 268.721 1061.88 265.389C1003.58 259.133 980.228 401.233 921.878 402.481C862.224 403.756 837.972 266.038 778.317 265.389C713.698 264.687 688.536 467.392 624.077 455.447C569.391 445.314 640.688 86.2361 532.72 148.55C424.752 210.864 433.683 87.8081 395.091 97.1411C323.63 114.423 288.829 -6.89419 217.122 0.554105C164.709 5.99835 121.686 128.686 69.4079 117.393C35.7477 110.122 9.26105e-05 0.554067 9.26105e-05 0.554067L0 530.224Z" fill="url(#paint0_linear_1_1281)"/>
<defs>
<linearGradient id="paint0_linear_1_1281" x1="569.5" y1="530.224" x2="569.5" y2="0.224282" gradientUnits="userSpaceOnUse">
<stop stop-color="#005546"/>
<stop offset="1" stop-color="#047460"/>
</linearGradient>
</defs>
</svg>
