<svg width="728" height="681" viewBox="0 0 728 681" fill="none" xmlns="http://www.w3.org/2000/svg">
<path d="M440.185 35.6518C479.589 11.8378 529.039 8.52461 573.842 19.1291C586.86 22.2149 599.895 26.5399 610.531 34.6494C635.809 53.9278 641.77 89.5184 640.385 121.274C638.997 153.035 632.321 185.37 640.05 216.205C646.829 200.132 671.844 197.78 683.81 210.473C695.775 223.171 694.247 244.904 683.128 258.345C691.67 250.463 706.162 251.874 714.958 259.465C723.761 267.062 727.469 279.231 727.507 290.855C727.548 304.15 721.235 319.353 708.279 322.321C714.269 318.642 722.711 323.47 724.792 330.182C726.881 336.899 724.256 344.214 720.527 350.171C710.583 366.036 692.137 376.209 673.413 376.15C661.469 376.114 646.782 367.201 650.444 355.833C643.655 369.684 630.728 380.374 615.856 384.448C606.694 386.957 596.355 386.876 588.279 381.876C580.205 376.867 575.399 366.095 579.158 357.369C573.517 365.1 562.817 368.727 553.635 366.019C544.452 363.318 537.431 354.469 536.881 344.913C530.496 351.448 523.769 358.196 515.112 361.117C506.452 364.043 495.31 361.785 491.061 353.702C497.9 361.775 495.508 375.145 487.569 382.142C479.632 389.144 467.824 390.419 457.595 387.701C453.784 386.685 449.902 385.161 446.017 385.845C440.941 386.735 437.331 391.079 433.217 394.187C423.488 401.528 409.946 402.097 398.25 398.634C386.562 395.165 376.283 388.187 366.222 381.307C362.578 378.815 358.694 376.02 357.364 371.808C356.033 367.595 359.014 361.919 363.399 362.438C361.243 366.595 354.986 365.215 350.861 362.995C340.633 357.5 331.229 350.46 323.069 342.198C319.063 338.136 315.142 333.244 315.123 327.536C315.111 321.833 321.239 316.128 326.344 318.673C316.11 306.365 305.678 290.838 310.444 275.559C314.728 261.809 332.526 254.226 345.41 260.67C347.809 250.071 352.058 239.483 359.997 232.067C367.939 224.652 380.201 221.145 390.043 225.74C386.553 222.944 385.682 218.08 385.05 213.65C380.716 183.169 376.388 152.114 381.426 121.743C386.474 91.3747 402.461 61.2384 429.638 46.7754L440.183 35.6518H440.185Z" fill="#141515"/>
<path d="M407.603 93.6771C403.924 134.432 400.247 175.188 396.571 215.943C394.628 237.508 392.686 259.282 395.523 280.742C396.463 287.866 398.109 295.3 402.946 300.604C407.276 305.355 413.555 307.752 419.681 309.687C435.061 314.557 472.603 319.112 474.211 321.145C475.364 322.609 480.071 413.655 481.48 414.856C482.724 415.918 572.327 413.021 573.452 411.765C574.753 410.308 564.34 302.455 565.642 250.419C579.492 257.315 597.806 253.61 607.875 241.864C617.951 230.119 618.826 211.455 609.899 198.822C600.967 186.189 583.083 180.776 568.653 186.347C569.342 155.866 570.031 125.38 570.722 94.8971C524.372 91.7897 457.767 90.5051 411.34 92.1007L407.601 93.6771H407.603Z" fill="#B4713D"/>
<path d="M695.232 456.455C676.97 416.853 631.751 388.903 589.125 398.134C586.348 385.324 583.571 372.517 580.793 359.711C544.777 358.582 508.717 358.764 472.713 360.247L467.658 376.526C399.231 374.957 340.532 359.032 272.767 356.477C192.086 344.382 109.478 336.9 32.5411 361.955L22.427 397.419C42.9374 424.151 65.2921 452.247 97.1844 463.17C109.243 467.296 122.039 468.698 134.732 469.878C179.444 474.04 224.378 475.729 269.274 474.982C269.623 483.836 270.071 492.108 270.69 499.428C286.428 501.531 302.977 523.366 318.715 525.467C327.923 603.552 334.439 659.98 335.692 724.937C336.745 779.005 380.99 822.164 435.065 822.15C497.462 822.138 559.86 818.978 621.934 812.684C624.807 812.392 627.809 812.05 630.196 810.414C634.323 807.586 635.22 801.969 635.674 796.987C640.375 744.732 635.619 689.978 656.534 641.86C665.469 621.301 678.752 602.937 688.658 582.833C707.937 543.712 713.489 496.069 695.234 456.458L695.232 456.455Z" fill="#EFA02A"/>
<path d="M87.0243 456.63C87.8543 457.9 88.7491 459.094 89.694 460.216C90.9714 460.785 92.2656 461.326 93.5765 461.838C91.6724 460.027 89.9737 457.996 88.5121 455.764C87.9069 454.838 86.4143 455.702 87.0243 456.63V456.63ZM145.056 470.789C147.785 469.861 150.417 468.77 152.9 467.536C181.802 453.142 199.456 423.948 227.215 407.897C241.068 399.888 257.624 394.848 273.52 399.225C287.538 403.086 298.446 413.906 304.955 426.611C312.574 441.5 313.717 458.577 311.172 474.904C309.801 483.688 307.45 492.297 304.579 500.701C302.867 505.708 300.814 510.614 298.991 515.595L300.465 516.647C302.946 509.703 305.797 502.895 307.986 495.835C313.072 479.42 315.959 461.843 312.883 444.748C310.476 431.357 303.984 418.36 294.004 409.007C283.521 399.187 269.594 394.585 255.308 396.197C222.729 399.869 201.051 426.972 178.235 447.394C167.243 457.233 154.945 466.476 140.501 470.392L145.061 470.787L145.056 470.789ZM323.966 570.602C330.664 573.698 337.613 576.339 344.237 579.489C370.376 591.914 394.463 610.886 409.026 636.25C415.951 648.309 420.611 661.67 421.721 675.563C422.757 688.488 421.023 701.631 416.647 713.835C412.341 725.858 405.356 737.018 395.819 745.575C384.583 755.662 370.402 760.794 355.54 762.552C351.789 762.997 348.028 763.257 344.265 763.401C344.517 763.963 344.77 764.525 345.031 765.083C359.829 764.478 374.816 761.803 387.578 753.904C397.984 747.464 406.373 738.135 412.332 727.492C424.695 705.408 427.154 677.943 418.982 654.005C409.737 626.945 389.484 605.093 365.859 589.63C359.805 585.663 353.494 582.092 346.99 578.906C340.737 575.844 334.257 573.296 327.889 570.471C326.523 569.863 325.131 569.234 323.734 568.579L323.963 570.607L323.966 570.602Z" fill="white"/>
<path d="M442.54 375.323L438.18 386.279C432.651 400.17 426.872 413.987 421.858 428.068C413.203 452.331 407.349 479.143 416.497 504.143C420.147 514.102 425.912 523.469 433.969 530.457C442.493 537.851 452.934 541.631 464.096 542.602C476.38 543.674 488.676 541.889 500.94 541.353C512.863 540.836 525.319 541.525 535.761 547.92C544.973 553.56 551.044 562.715 556.089 572.025C561.239 581.546 565.564 591.579 571.837 600.451C577.69 608.733 585.35 615.405 594.567 619.699C603.598 623.904 613.573 625.837 623.51 625.856C641.748 625.897 660.107 619.706 674.448 608.398L677.053 603.963C674.499 606.252 671.798 608.377 668.956 610.295C660.356 616.101 650.623 620.149 640.485 622.325C620.855 626.55 598.722 623.629 583.039 610.317C566.521 596.311 561.878 573.896 548.726 557.359C541.92 548.8 532.78 543.001 522.03 540.815C510.42 538.459 498.443 539.727 486.743 540.554C474.701 541.413 462.178 542.09 450.571 538.138C440.17 534.602 431.565 527.227 425.489 518.178C419.327 508.994 415.564 498.215 414.145 487.274C412.409 473.877 414.323 460.197 417.688 447.21C421.288 433.304 426.633 419.927 431.934 406.608L444.337 375.445L442.54 375.32V375.323Z" fill="white"/>
<path d="M550.593 359.07C549.667 361.711 548.895 364.409 548.273 367.146C545.959 377.319 545.658 387.917 547.009 398.244C548.349 408.482 551.198 418.615 555.813 427.868C560.205 436.681 566.422 444.941 574.881 450.189C583.715 455.668 594.267 456.902 604.304 454.519C614.796 452.036 624.338 446.183 632.407 439.157C640.426 432.179 646.856 423.627 654.444 416.223C655.559 415.137 656.697 414.073 657.87 413.046C657.374 412.714 656.877 412.384 656.377 412.061C649.834 417.845 644.28 424.684 638.299 431.031C631.008 438.762 622.595 445.515 612.811 449.826C603.421 453.964 592.762 455.493 582.901 452.108C573.632 448.931 566.338 441.824 561.121 433.719C555.693 425.292 552.176 415.694 550.071 405.925C547.911 395.897 547.32 385.496 548.583 375.303C549.27 369.786 550.531 364.323 552.406 359.086L550.595 359.065L550.593 359.07Z" fill="white"/>
<path d="M647.74 667.616C646.47 666.609 645.171 665.641 643.841 664.71C626.464 652.57 604.598 648.199 583.793 651.847C578.401 652.795 573.105 654.278 568.019 656.294C562.854 658.345 558.118 661.036 553.357 663.863C548.097 666.99 542.775 669.296 536.531 668.796C530.405 668.315 524.606 665.76 519.054 663.306C513.605 660.892 508.141 658.6 502.435 656.842C496.546 655.027 490.506 653.68 484.401 652.814C478.665 651.996 472.797 651.457 467.003 651.646C462.092 651.809 456.903 652.828 453.344 656.481C449.829 660.098 448.552 665.224 447.37 669.97C446.043 675.303 444.825 680.666 443.832 686.082C441.871 696.758 440.696 707.692 441.507 718.543C442.28 728.904 444.952 739.159 450.339 748.113C455.317 756.375 462.384 763.071 469.55 769.415C476.756 775.795 484.284 781.988 490.262 789.593C496.625 797.707 500.122 807.223 501.098 817.454C501.211 818.619 501.294 819.784 501.357 820.949L503.072 820.887C502.689 813.871 501.476 806.917 498.721 800.403C495.118 791.908 489.018 784.868 482.385 778.589C475.56 772.12 468.144 766.3 461.577 759.554C454.549 752.332 449.081 744.017 446.112 734.324C439.854 713.845 443.806 691.576 448.825 671.281C450.004 666.516 451.107 661.153 454.712 657.56C458.52 653.766 464.25 653.297 469.338 653.354C481.303 653.476 493.262 655.562 504.601 659.347C510.342 661.265 515.791 663.815 521.346 666.174C526.472 668.356 531.838 670.339 537.459 670.583C543.119 670.824 548.174 668.858 553.001 666.076C557.816 663.294 562.486 660.418 567.651 658.294C587.431 650.161 610.621 650.211 630.196 658.954C636.325 661.693 642.061 665.243 647.271 669.447L647.738 667.614L647.74 667.616Z" fill="white"/>
<path d="M335.823 362.144C337.77 367.758 338.389 373.842 338.303 379.743C338.208 387.154 337.356 394.51 338.054 401.921C338.712 408.937 340.734 416.075 345.886 421.149C351.245 426.426 358.912 428.137 366.203 426.974C373.872 425.759 380.458 421.398 385.127 415.262C389.952 408.918 392.565 401.086 393.608 393.249C394.234 388.553 394.189 383.815 394.447 379.09C394.61 376.153 394.945 373.244 395.598 370.397L393.854 370.167C392.828 374.679 392.687 379.332 392.529 383.946C392.378 388.333 392.134 392.699 391.23 397.015C390.407 400.931 389.156 404.782 387.364 408.368C383.936 415.217 378.48 421.147 371.186 423.874C364.457 426.388 356.484 426.388 350.276 422.458C344.142 418.578 341.215 411.69 340.133 404.76C338.985 397.412 339.562 389.898 339.942 382.521C340.282 375.863 339.796 369.029 337.796 362.639L337.717 362.39L335.823 362.144V362.144Z" fill="white"/>
<path d="M95.6035 348.265C96.0915 351.064 96.79 353.827 97.6369 356.501C100 363.958 103.646 371.101 108.28 377.399C112.853 383.631 118.563 389.281 125.522 392.778C132.261 396.158 139.916 397.144 147.241 395.228C154.302 393.381 160.359 389.046 165.579 384.078C171.16 378.755 175.939 372.67 180.877 366.766C186.341 360.226 192.185 354.145 198.816 348.777C199.294 348.389 199.775 348.004 200.261 347.624L197.768 347.418C193.072 351.217 188.635 355.339 184.582 359.831C179.54 365.422 174.97 371.416 169.957 377.031C165.146 382.413 159.854 387.609 153.4 390.982C147.03 394.316 139.655 395.419 132.648 393.632C125.379 391.776 119.126 387.202 114.083 381.76C108.777 376.043 104.629 369.244 101.553 362.094C99.6319 357.623 98.151 352.889 97.3233 348.066L95.6035 348.267V348.265Z" fill="white"/>
<path d="M177.63 407.353C222.701 436.679 265.037 470.207 303.903 507.36C310.166 513.348 316.409 519.522 320.813 526.974C328.482 539.968 329.894 555.617 330.396 570.693C332.054 620.05 325.904 669.666 312.244 717.129C309.989 724.97 305.527 734.051 298.989 737.517C295.578 739.323 291.607 736.292 292.437 732.518L299.449 700.692C295.604 716.079 289.629 730.941 281.749 744.71C279.168 749.22 272.228 746.514 273.376 741.448L273.68 740.309C278.178 725.93 282.679 711.553 287.172 697.173C284.177 711.354 278.168 724.882 269.724 736.654C267.092 740.321 261.346 738.355 261.483 733.845C261.832 722.078 264.71 710.385 269.932 699.831C269.41 705.103 268.008 710.285 265.829 715.11C264.219 718.674 258.945 718.074 258.27 714.227C255.883 700.69 256.196 686.672 259.236 673.266C262.145 660.42 267.351 646.29 260.901 634.807C258.315 630.207 254.148 626.751 250.768 622.691C233.612 602.123 239.475 571.556 246.266 545.647C182.247 530.552 121.639 502.971 65.22 469.172C47.475 458.543 29.4788 446.659 18.8791 428.897C8.27946 411.135 7.39904 385.901 22.2424 371.497C36.337 357.817 58.4909 358.228 78.0947 359.517C133.562 363.17 154.976 392.623 177.63 407.361V407.353Z" fill="#B4713D"/>
<path d="M139.037 363.498C139.092 373.913 139.142 384.331 139.192 394.749L139.828 395.579C147.534 398.32 154.648 402.681 160.597 408.286C162.291 409.884 163.889 411.58 165.384 413.36C166.102 414.214 167.322 412.982 166.604 412.142C161.205 405.717 154.452 400.425 146.924 396.708C144.768 395.651 142.548 394.72 140.29 393.911L140.919 394.746C140.869 384.329 140.814 373.908 140.764 363.495C140.754 362.383 139.029 362.383 139.034 363.495L139.037 363.498Z" fill="#141515"/>
<path d="M137.733 394.445C145.538 400.399 151.514 408.676 154.746 417.939C155.109 418.984 156.774 418.534 156.411 417.482C153.779 409.935 149.44 403.033 143.754 397.412C142.139 395.814 140.41 394.338 138.603 392.96C137.718 392.288 136.859 393.785 137.73 394.448L137.733 394.445Z" fill="#141515"/>
<path d="M138.461 394.147C141.552 402.579 142.958 411.54 142.588 420.513C142.547 421.626 144.269 421.618 144.317 420.513C144.688 411.404 143.265 402.252 140.128 393.69C139.751 392.657 138.076 393.099 138.464 394.147H138.461Z" fill="#141515"/>
<path d="M139.32 393.606C131.192 391.486 122.46 392.4 114.932 396.103C113.935 396.596 114.806 398.086 115.798 397.601C122.91 394.096 131.199 393.276 138.861 395.273C139.942 395.55 140.397 393.886 139.32 393.608V393.606Z" fill="#141515"/>
<path d="M182.926 350.197C182.977 360.618 183.031 371.031 183.082 381.451L183.718 382.286C191.418 385.025 198.54 389.383 204.489 394.988C206.18 396.586 207.778 398.282 209.276 400.062C209.993 400.916 211.209 399.691 210.496 398.847C205.092 392.419 198.344 387.13 190.811 383.417C188.66 382.355 186.44 381.425 184.175 380.616L184.806 381.453C184.756 371.033 184.706 360.62 184.651 350.2C184.646 349.087 182.917 349.087 182.926 350.2V350.197Z" fill="#141515"/>
<path d="M181.618 381.15C189.429 387.099 195.405 395.376 198.636 404.639C199 405.686 200.665 405.232 200.297 404.184C197.67 396.642 193.328 389.731 187.644 384.111C186.03 382.511 184.3 381.035 182.489 379.655C181.609 378.983 180.748 380.48 181.618 381.148V381.15Z" fill="#141515"/>
<path d="M182.344 380.85C185.434 389.277 186.841 398.243 186.475 407.214C186.43 408.326 188.159 408.326 188.2 407.214C188.578 398.107 187.152 388.95 184.011 380.391C183.633 379.352 181.963 379.8 182.346 380.848L182.344 380.85Z" fill="#141515"/>
<path d="M183.208 380.308C175.081 378.193 166.348 379.1 158.815 382.807C157.817 383.298 158.693 384.786 159.685 384.3C166.793 380.798 175.084 379.98 182.748 381.973C183.82 382.255 184.284 380.588 183.208 380.308Z" fill="#141515"/>
<path d="M215.076 84.3501C240.643 130.414 241.55 234.207 231.395 285.904C228.659 299.822 224.475 313.749 216.325 325.353C203.271 343.909 181.696 354.365 160.535 362.556C124.712 376.419 83.4879 385.791 48.7227 369.45C70.1421 350.827 85.1076 325.6 94.7552 298.908C104.408 272.216 109.022 243.972 112.184 215.763C115.024 190.438 125.722 113.855 144.459 96.5836C153.703 88.0747 165.754 83.3238 177.768 79.6303C184.48 77.5707 191.492 75.7669 198.448 76.6927C205.405 77.6232 212.344 81.8933 214.459 88.5866L215.076 84.3524V84.3501Z" fill="#D15259"/>
<path d="M213.12 88.9588C223.325 89.5162 233.513 90.9826 243.443 93.3341C252.184 95.3985 261.119 98.3624 267.205 104.053C273.503 109.936 275.867 117.916 276.63 125.559C278.005 139.299 274.898 153.121 267.712 165.202C267.104 161.563 266.468 157.841 264.399 154.528C262.334 151.22 258.509 148.344 254.084 148.012C247.68 147.54 243.001 152.16 237.956 155.195C227.55 161.453 211.771 161.114 200.949 154.396C200.363 154.033 199.774 153.633 199.466 153.09C199.057 152.368 199.229 151.552 199.406 150.794C204.403 129.69 209.396 108.596 214.386 87.4948L213.12 88.9588V88.9588Z" fill="#141515"/>
<path d="M269.242 162.557C268.814 154.821 267.458 145.702 260.102 141.442C253.686 137.729 245.775 138.801 238.701 137.951C234.862 137.485 231.051 136.337 228.355 133.418C227.602 132.603 226.382 133.825 227.135 134.638C232.109 140.025 240.001 139.851 246.751 140.205C250.258 140.387 253.839 140.664 257.152 141.939C260.678 143.288 263.315 145.956 264.908 149.36C266.814 153.448 267.266 158.106 267.513 162.557C267.573 163.66 269.295 163.67 269.242 162.557V162.557Z" fill="#6B74B5"/>
<path d="M146.992 121.883C121.418 109.915 94.3073 95.9803 81.404 70.8626C80.9687 70.0158 80.5381 69.0518 81.404 68.1164C81.8442 67.6499 82.4567 67.3676 83.1026 67.3126C92.5492 66.4968 100.864 72.5442 108.215 78.3763C120.37 88.0191 132.343 97.8892 144.124 107.984C128.123 92.9159 115.239 74.5418 106.527 54.3615L106.476 54.249C104.178 48.8619 110.433 43.757 115.212 47.1467C120.104 50.6177 124.221 55.5049 128.056 60.215C138.735 73.3193 149.406 86.4189 160.085 99.5183C149.698 81.8666 138.995 62.7292 136.972 42.8384C136.321 36.4537 144.414 33.2459 148.399 38.2742C162.367 55.8781 169.254 79.0677 175.308 101.143L146.992 121.88V121.883Z" fill="#B03537"/>
<path d="M60.2143 371.082C47.299 390.6 34.3838 410.113 21.4685 429.626C13.0816 442.297 4.43401 456.64 2.46765 471.185C1.44859 478.758 10.6869 483.196 16.031 477.741C23.54 470.075 30.3362 461.704 36.2927 452.784C27.7335 465.845 19.1027 479.036 13.6031 493.652C10.235 502.586 8.11783 512.184 8.0341 521.702C7.97191 529.159 17.3875 532.469 22.1168 526.707C34.7402 511.313 44.9188 493.91 52.0929 475.337C45.2178 493.989 38.2208 513.523 41.4646 533.309C41.8066 535.366 43.0124 537.23 44.8496 538.225C49.3779 540.67 53.3225 536.065 55.5998 532.058C64.757 515.966 72.0268 498.785 77.1963 481.002C70.0677 496.759 68.9195 515.133 74.0339 531.656C90.7575 522.855 92.8625 500.19 92.8362 481.299C92.7549 436.202 92.6735 391.107 92.5994 346.008L60.212 371.085L60.2143 371.082Z" fill="#B03537"/>
<path d="M76.201 264.171C60.5538 266.867 45.8085 274.543 34.6371 285.825C32.5129 287.966 30.4532 290.348 29.6543 293.26C28.0659 299.037 32.1016 305.158 37.3835 307.976C42.6701 310.792 48.8824 311.089 54.8628 311.33C36.9073 309.706 18.3275 317.535 7.10113 331.687C5.82611 333.297 5.02704 335.264 4.98159 337.314C4.87155 342.856 9.82812 344.741 14.201 345.55C22.5879 347.098 31.3455 346.626 39.5219 344.198C25.7766 344.076 12.1223 350.624 3.62291 361.429C0.273889 365.682 -2.33607 372.079 3.26876 375.906C3.84049 376.296 4.45776 376.615 5.09886 376.882C15.4569 381.279 28.0325 379.815 37.1634 373.256C25.9179 376.296 15.7631 383.231 8.83778 392.597C6.74703 395.434 4.83568 398.799 6.97428 402.593C8.01248 404.445 9.77073 405.799 11.7778 406.488C16.5382 408.11 21.3535 406.512 25.913 404.945C55.9681 394.604 86.5495 383.992 112.093 365.077C137.636 346.167 157.814 317.296 158.307 285.519C158.494 273.407 155.458 260.614 146.889 252.057C140.646 245.821 132.06 242.431 123.42 240.644C118.626 239.654 113.746 239.12 108.856 239.025C93.4556 238.742 79.9376 249.234 76.1963 264.173L76.201 264.171Z" fill="#6B74B5"/>
<path d="M150.547 82.1182C175.978 61.5217 214.628 69.2173 229.527 98.2796C230.089 99.3776 230.589 100.452 231.024 101.497C237.966 118.163 233.235 138.858 219.726 150.902C209.311 160.182 194.714 164.143 180.667 163.378C170.701 162.832 160.857 160.045 152.1 155.287C147.629 152.854 143.373 149.855 140.263 145.857C135.022 139.123 133.534 130.241 133.489 121.761C133.431 110.604 135.739 99.0954 142.296 90.0315C143.849 87.8905 146.856 85.1132 150.547 82.1206V82.1182Z" fill="#FDF5F2"/>
<path d="M236.704 239.488C223.849 248.071 213.206 259.946 206.106 273.674C198.779 287.831 195.057 304.024 185.081 316.463C177.357 326.089 166.54 332.624 157.165 340.65C148.28 348.264 140.235 358.333 139.434 369.878C146.608 367.701 153.67 365.21 160.531 362.555C181.697 354.364 203.267 343.908 216.321 325.352C224.475 313.75 228.659 299.823 231.396 285.903C233.915 273.079 235.755 257.047 236.704 239.488Z" fill="#6B74B5"/>
<path d="M212.323 118.823C211.548 124.651 206.196 128.744 200.374 127.969C194.551 127.203 190.456 121.852 191.226 116.03C191.999 110.197 197.348 106.104 203.175 106.882C208.998 107.655 213.095 113.003 212.323 118.826V118.823Z" fill="#141515"/>
<path d="M197.179 83.2771C201.013 84.167 202.13 89.5852 200.14 92.9845C198.152 96.3838 194.322 98.1755 190.725 99.7734C182.699 103.331 174.542 106.928 165.848 108.165C165.985 107.696 166.121 107.23 166.27 106.773C169.87 95.7235 179.237 87.5231 190.547 84.8487L197.176 83.2771H197.179Z" fill="#6B74B5"/>
<path d="M171.819 208.219C170.929 211.795 172.537 215.615 175.498 217.73C178.639 219.969 182.794 219.478 185.732 217.149C187.351 215.864 188.531 214.027 188.904 211.984C188.346 211.984 187.791 211.984 187.232 211.984C188.04 215.799 190.296 219.641 193.867 221.44C197.303 223.174 201.486 222.483 204.127 219.639C205.575 218.081 206.268 216.098 205.953 213.993C205.426 214.211 204.905 214.433 204.376 214.656C206.07 218.17 208.07 221.686 211.237 224.076C213.909 226.095 217.473 226.944 220.736 226.023C222.537 225.516 224.071 224.449 225.128 222.902C225.757 221.981 224.262 221.119 223.635 222.031C221.566 225.062 217.064 225.251 214.002 223.768C210.007 221.825 207.711 217.613 205.869 213.787C205.402 212.826 204.158 213.565 204.285 214.45C204.862 218.345 200.187 221.275 196.721 220.622C192.411 219.811 189.746 215.524 188.904 211.527C188.727 210.716 187.387 210.687 187.232 211.527C186.559 215.275 182.567 218.203 178.759 217.33C175.06 216.483 172.565 212.34 173.481 208.678C173.754 207.597 172.084 207.14 171.816 208.214L171.819 208.219Z" fill="#B03537"/>
<path d="M138.725 224.615C138.842 228.83 141.416 232.798 145.152 234.729C148.927 236.686 153.496 236.2 156.936 233.748C158.874 232.363 160.357 230.49 161.184 228.253C160.618 228.177 160.055 228.098 159.488 228.021C159.964 232.038 161.271 236.358 164.579 238.953C167.38 241.137 171.413 241.31 174.339 239.212C175.901 238.095 176.918 236.439 176.925 234.487C176.435 234.693 175.942 234.896 175.451 235.102C179.666 240.429 188.606 240.723 193.232 235.781C193.991 234.973 192.768 233.748 192.008 234.561C187.974 238.877 180.322 238.487 176.674 233.875C176.193 233.267 175.203 233.798 175.198 234.487C175.186 237.253 172.339 238.853 169.856 238.965C166.502 239.128 164.069 236.597 162.737 233.746C161.897 231.963 161.445 229.976 161.216 228.019C161.103 227.057 159.866 226.844 159.52 227.791C158.29 231.112 155.144 233.487 151.695 234.104C148.145 234.741 144.561 233.061 142.442 230.203C141.239 228.574 140.509 226.646 140.454 224.612C140.416 223.505 138.693 223.5 138.725 224.612V224.615Z" fill="#B03537"/>
<path d="M147.983 175.532C148.229 179.424 149.798 183.464 153.092 185.765C156.147 187.899 160.23 187.54 163.008 185.103C164.46 183.832 165.35 181.962 165.149 180.019C164.613 180.16 164.077 180.309 163.541 180.455C165.706 184.229 169.096 188.007 173.67 188.545C177.44 188.99 181.769 186.889 182.674 182.974C182.143 183.043 181.621 183.11 181.095 183.182C182.82 186.576 186.427 188.899 190.243 188.999C194.072 189.1 197.775 186.947 199.687 183.653C200.244 182.691 198.747 181.821 198.189 182.782C196.579 185.569 193.479 187.356 190.243 187.275C187.008 187.184 184.035 185.165 182.583 182.306C182.253 181.653 181.167 181.806 181.004 182.514C180.267 185.717 176.583 187.301 173.54 186.794C169.675 186.153 166.873 182.797 165.031 179.582C164.632 178.883 163.336 179.137 163.422 180.017C163.807 183.746 159.376 186.165 156.102 185.299C151.954 184.206 149.954 179.426 149.707 175.529C149.638 174.426 147.911 174.422 147.983 175.529V175.532Z" fill="#B03537"/>
<path d="M211.461 184.208C212.594 187.062 214.551 190.529 217.986 190.825C220.74 191.072 224.048 188.498 223.027 185.519C222.501 185.742 221.979 185.964 221.448 186.187C223.708 189.292 228.4 189.84 231.287 187.285C232.122 186.543 230.897 185.328 230.069 186.06C228.065 187.835 224.524 187.495 222.941 185.316C222.41 184.586 221.022 184.981 221.362 185.983C222.041 187.976 219.388 189.464 217.683 189.043C215.3 188.45 213.958 185.837 213.126 183.751C212.722 182.732 211.049 183.18 211.461 184.211V184.208Z" fill="#B03537"/>
<path d="M244.247 109.042C244.388 111.769 249.256 112.245 249.924 109.594C250.591 106.939 246.07 105.061 244.661 107.398L244.247 109.042Z" fill="#6B74B5"/>
<path d="M168.099 261.373C167.205 264.712 169.496 268.607 172.982 269.19C176.575 269.786 180.043 266.872 180.251 263.282C179.675 263.282 179.099 263.282 178.522 263.282C178.931 267.401 182.251 270.901 186.404 271.365C190.509 271.822 194.549 268.97 195.748 265.076C196.078 264.014 194.408 263.554 194.083 264.616C193.121 267.738 189.87 269.963 186.605 269.659C183.373 269.36 180.574 266.492 180.251 263.282C180.144 262.188 178.591 262.155 178.522 263.282C178.376 265.791 175.764 267.97 173.25 267.487C170.776 267.011 169.121 264.229 169.764 261.834C170.051 260.753 168.386 260.299 168.099 261.37V261.373Z" fill="#B03537"/>
<path d="M171.257 288.621C171.004 291.92 173.707 295.034 177.003 295.271C180.352 295.501 183.307 292.602 183.507 289.353C183.017 289.559 182.522 289.757 182.036 289.961C184.5 291.944 188.584 291.217 189.969 288.265C190.438 287.267 188.947 286.384 188.481 287.391C187.61 289.243 184.929 290.078 183.254 288.741C182.673 288.269 181.828 288.564 181.78 289.353C181.639 291.705 179.374 293.728 177.006 293.542C174.597 293.35 172.815 290.951 172.989 288.623C173.071 287.518 171.346 287.521 171.26 288.623L171.257 288.621Z" fill="#B03537"/>
<path d="M124.818 184.816C124.62 188.682 125.744 194.222 130.117 195.408C133.476 196.318 138.171 193.713 137.179 189.799C136.621 189.957 136.066 190.108 135.514 190.263C136.88 194.968 142.403 197.882 147.044 196.232C148.082 195.863 147.637 194.193 146.58 194.566C142.827 195.901 138.293 193.66 137.179 189.801C136.87 188.734 135.236 189.184 135.514 190.265C136.208 193.002 132.241 194.478 130.165 193.61C126.938 192.27 126.388 187.823 126.548 184.818C126.608 183.706 124.878 183.713 124.818 184.818V184.816Z" fill="#B03537"/>
<path d="M84.2045 264.279C76.8486 266.57 68.9976 269.149 64.2157 275.598C62.0603 278.498 60.6537 282.119 60.8571 285.772C61.0389 288.99 62.5578 291.975 65.0457 294.03C67.7321 296.259 71.428 297.379 74.7818 296.039C75.6765 295.683 75.5664 294.415 74.5545 294.343C67.9067 293.872 60.8091 296.862 57.0749 302.493C55.2449 305.252 54.4244 308.524 54.9101 311.796C55.3909 314.99 57.0558 318.045 59.4169 320.246C62.0889 322.724 65.6293 324.023 69.2558 323.332C69.1003 322.774 68.952 322.219 68.7965 321.667C60.6966 324.238 52.1209 327.025 46.1859 333.455C43.5761 336.287 41.5235 339.739 40.758 343.548C40.0547 347.045 40.5309 350.645 42.148 353.829C43.8631 357.233 46.9131 359.989 50.6831 360.841C50.6831 360.288 50.6831 359.728 50.6831 359.176C44.2841 361.441 37.4783 363.958 33.1246 369.455C29.2804 374.308 27.8381 381.14 31.8306 386.363C33.773 388.905 36.7224 390.661 39.9901 390.542C41.0977 390.506 41.1025 388.776 39.9901 388.817C34.591 389.008 30.8187 383.475 31.1417 378.476C31.5268 372.512 36.1914 367.852 41.1168 365.075C44.284 363.288 47.7192 362.049 51.1424 360.841C51.8911 360.573 52.0275 359.374 51.1424 359.176C44.8223 357.75 41.3084 350.631 42.325 344.545C43.5738 337.058 49.6593 331.58 56.1349 328.29C60.314 326.166 64.8017 324.748 69.2607 323.329C70.33 322.989 69.8875 321.456 68.8014 321.664C62.9526 322.776 57.8932 317.516 56.7402 312.17C55.434 306.175 59.5125 300.754 64.6294 298.101C67.6746 296.522 71.1362 295.824 74.5594 296.063C74.4829 295.501 74.4039 294.934 74.3321 294.367C68.8493 296.554 63.0051 291.427 62.6056 285.99C62.0841 279.014 67.4881 273.364 73.2197 270.312C76.8414 268.384 80.7718 267.154 84.6686 265.941C85.726 265.609 85.2762 263.939 84.2117 264.276L84.2045 264.279Z" fill="#3B4475"/>
<path d="M100.156 273.772C93.6155 275.234 88.2306 280.308 85.97 286.556C83.6329 293.005 85.2978 300.124 89.6491 305.311C92.0963 308.215 95.357 310.408 99.0122 311.47C99.0122 310.915 99.0122 310.358 99.0122 309.805C92.771 311.98 86.7691 315.65 83.0828 321.264C79.8127 326.254 79.0042 332.653 81.3079 338.212C82.547 341.212 84.6782 343.784 87.5751 345.305C87.7235 344.769 87.8671 344.234 88.0106 343.698C81.8938 344.178 75.7675 347.523 72.7989 353.027C71.3707 355.668 70.8156 358.608 71.2893 361.572C71.7199 364.308 73.0188 366.918 74.8871 368.956C77.0281 371.301 80.0016 372.803 83.2071 372.817C83.9104 372.817 84.3984 371.837 83.8147 371.339C81.6139 369.466 78.1741 369.909 76.5235 372.272V373.148C77.9708 375.1 81.2574 374.669 82.0229 372.294C82.3626 371.231 80.6977 370.779 80.358 371.837C80.0805 372.683 78.5783 373.04 78.0114 372.272V373.148C79.0018 371.731 81.2839 371.442 82.5948 372.559C82.8005 372.073 83.0037 371.578 83.2094 371.088C78.107 371.064 74.1839 366.667 73.117 361.943C71.8994 356.565 74.9375 351.391 79.3439 348.451C81.9155 346.731 84.9224 345.664 88.0155 345.415C88.8097 345.355 89.2664 344.241 88.4507 343.808C83.6688 341.298 81.4991 335.803 81.7312 330.603C82.0015 324.74 85.6112 319.695 90.2042 316.281C93.0126 314.197 96.1774 312.619 99.4738 311.466C100.261 311.188 100.328 310.049 99.4738 309.801C93.5412 308.076 88.8551 303.052 87.2212 297.134C85.5611 291.123 87.5441 284.76 91.8691 280.36C94.2637 277.918 97.2779 276.181 100.615 275.437C101.703 275.191 101.242 273.526 100.16 273.765L100.156 273.772Z" fill="#3B4475"/>
<path d="M120.955 253.485C128.406 254.073 134.219 260.082 137.755 266.218C141.343 272.447 143.005 279.633 143.123 286.798C143.24 294.099 141.817 301.402 139.142 308.186C136.252 315.514 131.973 322.276 127.076 328.407C121.543 335.333 115.194 341.55 108.633 347.475C107.803 348.219 109.027 349.437 109.852 348.693C115.938 343.2 121.833 337.459 127.069 331.139C132.246 324.876 136.798 318.047 140.011 310.564C143.001 303.593 144.725 296.075 144.847 288.482C144.965 281.011 143.491 273.462 140.037 266.8C136.664 260.307 131.083 253.958 123.696 252.183C122.799 251.966 121.876 251.829 120.95 251.762C119.842 251.671 119.847 253.401 120.95 253.487L120.955 253.485Z" fill="#3B4475"/>
<path d="M127.077 307.955C125.402 311.835 122.95 315.321 119.852 318.189C119.037 318.947 120.261 320.167 121.072 319.414C124.273 316.454 126.84 312.828 128.565 308.821C128.749 308.395 128.691 307.9 128.251 307.642C127.888 307.429 127.258 307.524 127.077 307.955Z" fill="#3B4475"/>
<path d="M222.612 271.949C223.203 274.872 223.019 277.893 222.127 280.735C221.794 281.797 223.461 282.256 223.792 281.192C224.782 278.051 224.93 274.712 224.277 271.485C224.059 270.401 222.394 270.863 222.612 271.949V271.949Z" fill="#3B4475"/>
<path d="M214.908 289.264C214.595 291.625 214.277 293.979 213.968 296.335C213.903 296.802 214.408 297.196 214.829 297.196C215.351 297.196 215.633 296.802 215.695 296.335C216.004 293.979 216.32 291.625 216.628 289.264C216.693 288.807 216.188 288.407 215.762 288.407C215.248 288.407 214.968 288.807 214.903 289.264H214.908Z" fill="#3B4475"/>
<path d="M200.049 308.653C199.382 310.569 199.549 312.674 200.413 314.497L201.588 314.801C202.013 314.533 202.109 314.062 201.901 313.627L201.829 313.464L201.81 313.428L201.719 313.179L201.537 312.586C201.415 312.096 201.391 311.907 201.37 311.457V310.835L201.389 310.526L201.41 310.292L201.456 310.06L201.525 309.751L201.712 309.115C201.86 308.689 201.544 308.153 201.109 308.053C200.631 307.943 200.207 308.199 200.052 308.656L200.049 308.653Z" fill="#3B4475"/>
<path d="M217.352 269.543C216.881 270.51 216.41 271.471 215.936 272.433L215.85 273.1L216.245 273.615C216.635 273.823 217.214 273.741 217.429 273.311C217.898 272.344 218.374 271.378 218.84 270.416L218.931 269.749L218.532 269.232C218.147 269.027 217.565 269.11 217.35 269.546L217.352 269.543Z" fill="#3B4475"/>
<path d="M207.598 318.525C206.368 320.932 206.186 323.836 207.225 326.34C207.402 326.771 207.796 327.077 208.287 326.943C208.691 326.835 209.067 326.314 208.889 325.881C208.028 323.797 208.055 321.417 209.086 319.396C209.299 318.977 209.193 318.46 208.772 318.212C208.387 317.994 207.806 318.106 207.598 318.525V318.525Z" fill="#3B4475"/>
<path d="M183.54 330.788C182.724 332.068 181.911 333.347 181.093 334.632L181.402 335.807C181.83 336.034 182.323 335.907 182.581 335.503C183.397 334.223 184.21 332.938 185.028 331.659L184.72 330.475C184.291 330.252 183.798 330.379 183.54 330.788Z" fill="#3B4475"/>
<path d="M175.674 342.109C173.225 342.616 171.899 345.882 173.304 347.949L174.483 348.257L174.792 347.078L174.615 346.769L174.61 346.779L174.555 346.63L174.473 346.296L174.464 346.241L174.473 346.312L174.461 346.152V345.824L174.48 345.662L174.476 345.676L174.662 345.028V345.032L174.734 344.884L174.921 344.58L175.012 344.449L175.016 344.454L175.239 344.222L175.356 344.112H175.351L175.629 343.944L175.77 343.877L175.76 343.882L176.126 343.772C176.571 343.686 176.865 343.138 176.731 342.714C176.581 342.243 176.145 342.011 175.674 342.112V342.109Z" fill="#3B4475"/>
<path d="M200.427 336.164C199.996 336.794 199.568 337.428 199.137 338.047L199.056 338.715L199.451 339.234L200.113 339.32L200.635 338.925C201.056 338.293 201.489 337.669 201.915 337.042L202.001 336.375L201.601 335.858L200.939 335.772L200.427 336.167V336.164Z" fill="#3B4475"/>
<path d="M44.4429 406.858C36.4602 415.597 30.4391 426.079 26.9322 437.394C26.2241 439.691 24.8535 442.975 26.6692 445.09C28.4657 447.195 31.4511 445.956 33.2763 444.576C34.4102 443.722 35.3956 442.664 36.3932 441.655C37.4959 440.542 38.5845 439.408 39.6466 438.255C41.747 435.985 43.7658 433.641 45.7034 431.23C50.0452 425.811 53.9661 420.07 57.4299 414.049C57.9873 413.083 56.5401 412.248 55.9421 413.178C49.256 423.584 44.706 435.368 42.7396 447.575C42.376 449.826 42.1367 452.517 43.5696 454.469C45.2274 456.725 48.1268 456.503 50.2822 455.123C52.6767 453.589 54.4301 451.121 56.0951 448.87C57.8605 446.487 59.4513 443.987 60.8771 441.384C64.0682 435.552 66.3766 429.242 67.6875 422.73C67.8741 421.805 66.6087 421.166 66.1088 422.058C60.6905 431.725 58.5709 443.109 60.0349 454.082C60.4535 457.199 61.1521 460.273 62.1449 463.263C62.3004 463.718 62.7332 463.976 63.2069 463.866C67.9673 462.732 70.9073 458.388 72.7732 454.168C75.206 448.673 76.8303 442.741 77.9067 436.832C78.5287 433.392 78.9451 429.912 79.1556 426.421C79.2178 425.393 77.7752 425.333 77.457 426.189C74.285 434.758 73.8737 444.286 76.1869 453.118C76.8447 455.632 77.7394 458.075 78.8279 460.433C79.0958 461.019 80.0334 460.974 80.3157 460.433C86.7147 448.164 87.8725 434.095 87.5663 420.479C87.4849 416.537 87.2769 412.602 87.0353 408.669C86.9707 407.566 85.2483 407.557 85.3105 408.669C86.1239 422.084 86.6716 435.911 82.9901 448.98C81.9567 452.637 80.5811 456.192 78.8253 459.562C79.3181 459.562 79.8158 459.562 80.3134 459.562C76.6414 451.585 75.5432 442.439 77.1412 433.813C77.5909 431.371 78.2585 428.976 79.1196 426.649C78.5527 426.572 77.9906 426.498 77.4236 426.421C77.0696 432.325 76.0982 438.174 74.5194 443.875C73.7539 446.647 72.8498 449.398 71.7925 452.07C70.9528 454.185 69.9313 456.264 68.5654 458.094C67.099 460.055 65.1614 461.624 62.7501 462.199L63.8075 462.804C60.4226 452.611 60.4991 441.416 63.9079 431.237C64.8696 428.354 66.1087 425.577 67.5966 422.931C67.0703 422.711 66.544 422.486 66.013 422.264C64.9245 427.682 63.1591 432.954 60.7215 437.921C58.315 442.822 55.3105 447.614 51.6362 451.671C50.2798 453.178 47.5478 455.592 45.4427 453.962C43.7682 452.671 44.1031 449.857 44.3973 448.037C45.3063 442.387 46.7705 436.825 48.7464 431.45C50.9879 425.355 53.9086 419.52 57.4227 414.047C56.9227 413.755 56.4276 413.47 55.9348 413.176C50.1769 423.187 43.1318 432.431 34.9889 440.612C34.0488 441.552 33.1326 442.576 32.049 443.344C31.1902 443.944 30.0301 444.647 28.9249 444.487C26.2648 444.111 28.0086 439.758 28.4488 438.31C30.042 433.064 32.1782 427.996 34.8287 423.19C37.8284 417.743 41.4647 412.667 45.6558 408.074C46.3997 407.251 45.1892 406.026 44.4356 406.854L44.4429 406.858Z" fill="#D15259"/>
<path d="M36.1833 467.748C35.2838 471.384 34.7672 475.123 34.662 478.872C34.6165 480.663 34.6355 482.474 34.8078 484.259C34.9393 485.685 35.2144 487.16 36.1928 488.266C38.2908 490.658 41.7643 489.519 44.0106 487.998C46.575 486.268 48.8306 483.895 50.7754 481.505C53.0863 478.661 55.0048 475.53 56.4664 472.171C55.9401 471.949 55.4139 471.726 54.8877 471.509C52.8041 477.499 53.3136 484.362 56.3636 489.933C57.7248 492.416 59.8897 494.504 62.8799 494.476C65.5926 494.449 68.1713 492.883 69.7693 490.746C71.8888 487.914 72.4868 484.302 73.0106 480.888C72.4437 480.812 71.8792 480.733 71.3123 480.656C71.6089 484.441 73.372 489.397 77.6109 490.258C81.0652 490.962 85.4715 488.17 84.5409 484.297C84.2873 483.216 82.6223 483.67 82.8806 484.754C83.5337 487.495 79.7854 489.206 77.5702 488.467C74.4748 487.419 73.269 483.587 73.0417 480.656C72.9747 479.762 71.5036 479.4 71.3457 480.424C70.6209 485.158 69.4034 491.796 63.6455 492.691C61.0404 493.091 59.1816 491.385 57.9687 489.261C56.6124 486.864 55.7728 484.127 55.4834 481.395C55.1413 478.202 55.5073 474.996 56.5598 471.965C56.878 471.054 55.3756 470.394 54.9809 471.298C52.6724 476.611 49.2183 481.364 44.8383 485.161C43.7929 486.07 42.6997 486.931 41.4198 487.467C40.3816 487.907 39.0467 488.215 38.0253 487.579C36.9129 486.885 36.6499 485.464 36.5351 484.256C36.3868 482.656 36.3531 481.029 36.3818 479.424C36.444 475.635 36.9441 471.882 37.8531 468.203C38.121 467.126 36.4537 466.664 36.1882 467.748H36.1833Z" fill="#D15259"/>
<path d="M145.473 139.499C146.339 142.571 148.355 145.25 151.066 146.941C152.008 147.534 152.877 146.042 151.936 145.451C149.604 143.994 147.884 141.676 147.135 139.035C146.841 137.968 145.174 138.423 145.475 139.499H145.473Z" fill="#B03537"/>
<path d="M159.291 146.184C160.581 146.983 161.875 147.787 163.164 148.586L164.339 148.278C164.566 147.849 164.444 147.352 164.03 147.093C162.741 146.299 161.459 145.495 160.169 144.694L158.985 145.003C158.765 145.428 158.887 145.933 159.294 146.187L159.291 146.184Z" fill="#B03537"/>
<path d="M177.039 148.258C178.427 148.081 179.816 147.899 181.199 147.718C181.649 147.658 182.089 147.364 182.065 146.859C182.046 146.438 181.685 145.928 181.199 145.993C179.816 146.17 178.427 146.352 177.039 146.534C176.594 146.593 176.154 146.888 176.176 147.395C176.195 147.816 176.558 148.321 177.039 148.258Z" fill="#B03537"/>
<path d="M178.134 155.668C178.807 155.759 179.476 155.845 180.153 155.936L180.761 155.682L181.01 155.07L180.761 154.462L180.589 154.326L180.153 154.213C179.476 154.117 178.804 154.031 178.134 153.941L177.52 154.194L177.266 154.806L177.52 155.414L177.694 155.55L178.134 155.668V155.668Z" fill="#B03537"/>
<path d="M151.918 130.629C153.471 131.863 155.023 133.093 156.576 134.322H157.796V133.102C156.244 131.873 154.691 130.638 153.146 129.414H151.921V130.629H151.918Z" fill="#B03537"/>
<path d="M143.813 112.594C144.227 114.704 144.639 116.809 145.048 118.915C145.139 119.371 145.684 119.637 146.11 119.517C146.588 119.386 146.803 118.915 146.713 118.455C146.306 116.35 145.892 114.238 145.478 112.135C145.392 111.676 144.842 111.413 144.416 111.53C143.935 111.662 143.723 112.135 143.813 112.592V112.594Z" fill="#B03537"/>
<path d="M482.245 362.627C480.358 371.464 480.479 380.63 482.623 389.41C483.144 391.565 486.479 390.653 485.953 388.493C483.96 380.329 483.819 371.763 485.575 363.548C485.771 362.637 485.302 361.68 484.369 361.424C483.506 361.189 482.439 361.711 482.245 362.627Z" fill="#B77115"/>
<path d="M494.77 367.237C493.916 375.445 495.452 383.774 499.009 391.207C499.408 392.051 500.612 392.274 501.37 391.829C502.229 391.324 502.396 390.307 501.992 389.468C498.693 382.571 497.44 374.83 498.227 367.237C498.323 366.307 497.361 365.508 496.497 365.508C495.481 365.508 494.863 366.302 494.772 367.237H494.77Z" fill="#B77115"/>
<path d="M508.298 365.876C509.109 374.485 509.927 383.095 510.733 391.707C510.824 392.637 511.47 393.436 512.463 393.436C513.329 393.436 514.278 392.642 514.192 391.707C513.381 383.095 512.568 374.485 511.75 365.876C511.664 364.945 511.02 364.146 510.02 364.146C509.159 364.146 508.209 364.941 508.295 365.876H508.298Z" fill="#B77115"/>
<path d="M527.323 367.232C527.323 375.836 527.323 384.436 527.323 393.038C527.323 395.258 530.773 395.263 530.773 393.038C530.773 384.436 530.773 375.836 530.773 367.232C530.773 365.007 527.323 365.005 527.323 367.232Z" fill="#B77115"/>
<path d="M544.24 367.613C545.324 375.574 545.494 383.665 544.843 391.669C544.771 392.599 545.697 393.394 546.573 393.394C547.57 393.394 548.223 392.599 548.302 391.669C548.974 383.332 548.697 374.979 547.575 366.697C547.448 365.771 546.264 365.269 545.451 365.489C544.448 365.767 544.116 366.688 544.238 367.613H544.24Z" fill="#B77115"/>
<path d="M558.612 371.311C558.055 377.827 558.511 384.403 559.904 390.792C560.1 391.709 561.167 392.24 562.028 392C562.968 391.742 563.434 390.792 563.236 389.876C561.906 383.781 561.535 377.528 562.064 371.311C562.145 370.378 561.21 369.586 560.339 369.586C559.337 369.586 558.691 370.375 558.609 371.311H558.612Z" fill="#B77115"/>
<path d="M573.58 365.881C572.896 375.1 573.403 384.372 575.027 393.477C575.199 394.393 576.317 394.914 577.154 394.685C578.12 394.417 578.525 393.477 578.362 392.561C576.785 383.765 576.364 374.785 577.037 365.881C577.101 364.95 576.19 364.151 575.307 364.151C574.314 364.151 573.652 364.946 573.578 365.881H573.58Z" fill="#B77115"/>
<path d="M489.752 592.052C495.725 601.281 500.988 610.962 505.504 620.987C510.016 630.996 513.755 641.362 516.735 651.928C519.699 662.451 521.926 673.192 523.335 684.033C524.752 694.979 525.376 706.029 525.177 717.069C524.981 727.996 523.988 738.909 522.142 749.679C521.91 751.035 521.666 752.387 521.405 753.74C521.233 754.657 521.666 755.602 522.613 755.865C523.458 756.099 524.56 755.58 524.737 754.657C526.835 743.66 528.103 732.508 528.512 721.327C528.926 710.203 528.502 699.048 527.263 687.992C526.029 676.904 524.005 665.91 521.178 655.128C518.341 644.297 514.697 633.695 510.31 623.399C505.944 613.163 500.818 603.252 494.945 593.796C494.22 592.628 493.484 591.466 492.74 590.31C491.534 588.454 488.541 590.184 489.754 592.057L489.752 592.052Z" fill="#B77115"/>
<path d="M521.272 625.487C525.85 637.998 529.448 650.854 532.032 663.925C534.596 676.924 536.139 690.119 536.651 703.369C536.943 710.833 536.897 718.308 536.534 725.767C536.483 726.697 537.359 727.496 538.258 727.496C539.234 727.496 539.943 726.702 539.988 725.767C540.641 712.378 540.246 698.934 538.804 685.602C537.361 672.3 534.921 659.104 531.448 646.182C529.486 638.879 527.2 631.673 524.599 624.571C524.284 623.7 523.43 623.105 522.475 623.365C521.631 623.598 520.946 624.614 521.274 625.49L521.272 625.487Z" fill="#B77115"/>
<path d="M460.603 776.477C470.406 778.343 480.252 775.886 489.364 772.302C496.937 769.326 504.288 765.75 511.36 761.739C525.064 753.955 537.733 744.453 549.601 734.111C561.64 723.61 572.879 712.235 583.84 700.626C594.975 688.818 605.838 676.759 616.995 664.971C628.09 653.249 639.489 641.784 651.701 631.217C653.186 629.933 654.676 628.663 656.183 627.409C656.901 626.809 656.805 625.584 656.183 624.967C655.475 624.261 654.459 624.369 653.744 624.967C641.467 635.191 630.037 646.381 618.969 657.9C607.824 669.499 597.044 681.441 586.069 693.201C575.245 704.798 564.231 716.24 552.488 726.918C541.003 737.37 528.808 747.067 515.582 755.222C508.92 759.327 502.013 763.042 494.87 766.255C486.572 769.994 477.671 773.484 468.456 773.692C466.129 773.747 463.808 773.582 461.521 773.142C460.61 772.97 459.66 773.4 459.397 774.35C459.165 775.199 459.679 776.302 460.605 776.477H460.603Z" fill="#B77115"/>
<path d="M485.444 571.046C493.508 562.188 501.024 552.859 508.284 543.343C515.499 533.894 522.453 524.251 529.436 514.637C536.397 505.047 543.397 495.483 550.733 486.18C557.989 476.984 565.577 468.04 573.753 459.646C581.893 451.29 590.625 443.472 600.079 436.624C601.248 435.779 602.428 434.949 603.614 434.129C604.38 433.602 604.732 432.614 604.236 431.77C603.791 431.007 602.643 430.617 601.873 431.148C592.127 437.86 583.068 445.53 574.65 453.842C566.273 462.119 558.517 471.004 551.135 480.175C543.626 489.502 536.488 499.126 529.436 508.798C522.388 518.467 515.418 528.191 508.225 537.752C501.098 547.216 493.752 556.512 485.903 565.382C484.944 566.461 483.98 567.539 483.009 568.609C482.38 569.298 482.329 570.374 483.009 571.049C483.645 571.69 484.82 571.747 485.451 571.049L485.444 571.046Z" fill="#B77115"/>
<path d="M583.28 432.938C578.859 439.708 575.587 447.229 573.637 455.073C573.097 457.228 576.429 458.147 576.965 455.989C578.857 448.406 581.998 441.222 586.263 434.675C586.773 433.9 586.423 432.768 585.641 432.314C584.806 431.821 583.795 432.151 583.283 432.936L583.28 432.938Z" fill="#B77115"/>
<path d="M360.178 415.586C355.042 431.357 349.903 447.122 344.767 462.886C339.816 478.088 334.457 493.3 331.67 509.086C330.122 517.843 329.388 526.754 330.072 535.636C330.144 536.572 330.811 537.366 331.797 537.366C332.677 537.366 333.593 536.577 333.526 535.636C332.314 519.934 335.581 504.397 339.966 489.394C342.208 481.724 344.731 474.136 347.21 466.534C349.765 458.697 352.314 450.861 354.869 443.019C357.752 434.185 360.627 425.346 363.507 416.504C363.799 415.614 363.173 414.617 362.302 414.38C361.362 414.117 360.465 414.693 360.178 415.581V415.586Z" fill="#B77115"/>
<path d="M384.646 555.157C392.083 561.829 399.277 568.757 406.214 575.941C413.18 583.158 419.887 590.616 426.322 598.307C432.685 605.921 438.778 613.756 444.584 621.805C450.447 629.939 456.023 638.285 461.298 646.811C466.544 655.31 471.489 663.991 476.118 672.84C476.689 673.938 477.256 675.036 477.818 676.134C478.239 676.971 479.407 677.21 480.182 676.756C481.026 676.268 481.23 675.227 480.799 674.397C476.235 665.472 471.348 656.705 466.147 648.134C460.956 639.555 455.452 631.166 449.655 622.982C443.792 614.715 437.637 606.656 431.207 598.824C424.851 591.073 418.21 583.548 411.309 576.28C404.412 568.999 397.25 561.973 389.844 555.21C388.933 554.375 388.009 553.543 387.086 552.718C386.397 552.093 385.335 552.033 384.644 552.718C384.012 553.354 383.95 554.538 384.644 555.16L384.646 555.157Z" fill="#B77115"/>
<path d="M494.917 607.989C458.331 532.179 413.61 350.19 402.343 332.072C384.155 302.832 361.234 277.198 328.356 266.012C320.763 263.431 314.457 272.275 319.447 278.554C328.681 290.166 340.802 301.031 350.605 309.38C329.698 316.25 297.411 311.176 278.733 299.534C263.815 290.231 250.933 275.282 234.693 270.663C231.767 269.828 232.559 273.232 230.732 275.667C230.691 275.727 226.072 271.057 216.477 266.814C213.781 265.622 210.913 268.12 211.716 270.957C214.965 282.375 216.513 285.91 210.585 283.001C207.576 281.516 204.423 284.752 205.966 287.733C211.889 299.16 218.847 300.041 207.387 294.512C204.968 299.567 207.786 305.502 210.917 310.15C225.947 332.467 249.381 348.322 274.752 357.269C300.128 366.208 358.2 383.637 358.554 388.434C363.717 457.603 384.189 771.361 465.123 764.761C475.938 763.879 486.387 760.465 496.386 756.257C539.27 738.201 494.865 607.857 494.915 607.984L494.917 607.989Z" fill="#B4713D"/>
<path d="M490.769 480.377C489.099 483.241 488.623 486.69 489.431 489.903C489.649 490.783 490.683 491.391 491.556 491.108C492.462 490.814 492.998 489.924 492.761 488.984L492.544 487.915C492.556 488.36 492.548 487.905 492.539 487.824L492.498 487.281V486.324L492.534 485.774L492.565 485.506L492.546 485.623C492.656 484.965 492.795 484.324 493.01 483.695L493.201 483.181L493.242 483.085L493.749 482.119C494.206 481.339 493.955 480.188 493.132 479.755C492.307 479.315 491.254 479.542 490.769 480.377V480.377Z" fill="#B77115"/>
<path d="M502.682 484.864C502.218 486.67 501.751 488.481 501.28 490.287C501.062 491.163 501.572 492.201 502.493 492.411C503.39 492.617 504.371 492.139 504.617 491.203C505.081 489.397 505.548 487.591 506.014 485.78C506.237 484.907 505.729 483.864 504.808 483.656C503.909 483.45 502.926 483.926 502.684 484.862L502.682 484.864Z" fill="#B77115"/>
<path d="M508.306 496.256C508.306 496.706 508.306 497.163 508.306 497.618L508.462 498.28L508.816 498.835L509.373 499.192L510.036 499.338L510.5 499.278L511.261 498.833L511.524 498.484L511.765 497.618C511.765 497.163 511.765 496.706 511.765 496.256L511.617 495.589L511.263 495.036L510.706 494.678L510.038 494.532L509.581 494.592L508.818 495.036L508.55 495.386L508.309 496.259L508.306 496.256Z" fill="#B77115"/>
<path d="M516.766 437.434C516.29 440.597 515.819 443.764 515.341 446.931C515.209 447.821 515.568 448.833 516.554 449.051C517.369 449.242 518.532 448.804 518.673 447.848C519.149 444.68 519.62 441.513 520.096 438.348C520.228 437.458 519.869 436.447 518.886 436.224C518.07 436.04 516.905 436.473 516.766 437.432V437.434Z" fill="#B77115"/>
<path d="M473.329 434.323C471.968 436.584 470.6 438.842 469.236 441.103C468.765 441.878 469.035 443.035 469.858 443.466C470.693 443.911 471.719 443.674 472.217 442.844C473.583 440.583 474.949 438.33 476.315 436.069C476.779 435.294 476.511 434.137 475.693 433.708C474.853 433.263 473.827 433.5 473.329 434.323Z" fill="#B77115"/>
<path d="M484.12 438.787C483.548 442.39 482.977 445.992 482.41 449.597C482.269 450.487 482.637 451.494 483.615 451.717C484.445 451.908 485.584 451.47 485.74 450.514C486.311 446.911 486.883 443.308 487.455 439.703C487.596 438.818 487.227 437.802 486.247 437.579C485.417 437.388 484.273 437.833 484.12 438.785V438.787Z" fill="#B77115"/>
<path d="M356.347 624.349C354.735 626.703 354.273 629.762 354.986 632.504C355.218 633.379 356.235 633.997 357.115 633.71C358.012 633.418 358.562 632.521 358.321 631.585L358.215 631.15L358.139 630.715L358.153 630.841L358.134 630.614L358.115 630.282L358.124 629.392L358.165 628.942L358.146 629.069L358.177 628.906C358.275 628.351 358.445 627.825 358.634 627.299L358.564 627.452L358.66 627.248L358.861 626.849L359.323 626.086C359.837 625.335 359.486 624.138 358.701 623.727C357.83 623.263 356.885 623.545 356.342 624.344L356.347 624.349Z" fill="#B77115"/>
<path d="M364.353 629.354C364.085 632.717 364.58 636.16 365.796 639.305C366.118 640.15 366.97 640.824 367.92 640.518C368.735 640.25 369.477 639.293 369.123 638.389C368.551 636.911 368.152 635.378 367.908 633.808C367.821 633.244 367.939 634.143 367.877 633.571L367.814 632.959L367.75 631.82C367.719 630.993 367.745 630.172 367.81 629.354C367.884 628.457 366.965 627.591 366.085 627.629C365.087 627.675 364.434 628.388 364.355 629.354H364.353Z" fill="#B77115"/>
<path d="M361.874 541.11C361.407 544.727 360.943 548.341 360.477 551.963C360.364 552.862 361.357 553.733 362.201 553.695C363.239 553.649 363.809 552.932 363.931 551.963C364.393 548.341 364.861 544.727 365.328 541.11C365.44 540.205 364.447 539.339 363.598 539.38C362.565 539.421 361.998 540.141 361.874 541.11Z" fill="#B77115"/>
<path d="M571.033 553.794C569.439 556.152 568.959 559.126 569.549 561.894C569.734 562.781 570.824 563.374 571.674 563.097C572.604 562.798 573.085 561.922 572.879 560.975L572.793 560.535L572.808 560.662L572.779 560.434L572.743 559.65L572.779 558.75L572.793 558.643L572.774 558.765L572.851 558.32L573.037 557.559L573.331 556.71L573.296 556.81L573.341 556.71L573.547 556.308L574.013 555.54C574.518 554.786 574.181 553.598 573.391 553.181C572.518 552.717 571.571 553 571.03 553.799L571.033 553.794Z" fill="#B77115"/>
<path d="M577.287 573.541C579.715 577.048 582.138 580.567 584.562 584.077C585.073 584.816 586.1 585.227 586.925 584.696C587.664 584.222 588.09 583.127 587.542 582.333C585.119 578.819 582.696 575.312 580.272 571.8C579.758 571.056 578.734 570.647 577.909 571.178C577.172 571.656 576.739 572.742 577.287 573.541Z" fill="#B77115"/>
<path d="M632.069 491.262C630.412 493.575 629.929 496.68 630.68 499.412C630.921 500.278 631.919 500.904 632.804 500.617C633.694 500.326 634.27 499.424 634.012 498.493L633.821 497.632L633.833 497.764L633.813 497.546L633.787 497.106L633.797 496.333L633.833 495.898L633.821 496.025L633.852 495.807L634.062 494.953L634.168 494.635L634.323 494.221L634.278 494.331L634.373 494.135L634.579 493.745L635.057 493.001C635.584 492.266 635.206 491.046 634.435 490.637C633.546 490.171 632.639 490.47 632.077 491.259L632.069 491.262Z" fill="#B77115"/>
<path d="M645.482 509.838C645.482 511.649 645.482 513.46 645.482 515.268C645.482 516.17 646.277 517.036 647.207 516.993C648.14 516.953 648.937 516.235 648.937 515.268C648.937 513.458 648.937 511.647 648.937 509.838C648.937 508.934 648.142 508.068 647.207 508.109C646.272 508.154 645.482 508.867 645.482 509.838Z" fill="#B77115"/>
<path d="M632.13 567.801C631.549 571.856 630.963 575.91 630.384 579.967C630.247 580.888 630.611 581.824 631.585 582.096C632.398 582.316 633.577 581.814 633.709 580.888C634.295 576.831 634.881 572.772 635.46 568.717C635.591 567.794 635.233 566.861 634.254 566.598C633.446 566.37 632.266 566.87 632.13 567.801V567.801Z" fill="#B77115"/>
<path d="M584.284 490.331C583.423 493.965 582.564 497.601 581.708 501.228C581.497 502.108 581.985 503.141 582.914 503.354C583.799 503.553 584.816 503.091 585.038 502.151C585.897 498.517 586.753 494.881 587.61 491.247C587.818 490.372 587.332 489.336 586.404 489.123C585.519 488.925 584.502 489.391 584.284 490.331V490.331Z" fill="#B77115"/>
<path d="M644.123 455.51C644.123 457.325 644.123 459.131 644.123 460.942C644.123 461.849 644.918 462.71 645.853 462.672C646.786 462.631 647.578 461.913 647.578 460.942C647.578 459.131 647.578 457.325 647.578 455.51C647.578 454.608 646.783 453.744 645.853 453.785C644.918 453.825 644.123 454.543 644.123 455.51Z" fill="#B77115"/>
<path d="M661.779 467.735C661.779 470.447 661.779 473.165 661.779 475.88C661.779 476.789 662.568 477.65 663.508 477.609C664.444 477.569 665.233 476.851 665.233 475.88C665.233 473.165 665.233 470.447 665.233 467.735C665.233 466.833 664.439 465.964 663.508 466.01C662.568 466.046 661.779 466.768 661.779 467.735Z" fill="#B77115"/>
<path d="M644.123 426.989C644.123 428.8 644.123 430.616 644.123 432.422C644.123 433.329 644.918 434.19 645.853 434.152C646.786 434.106 647.578 433.393 647.578 432.422C647.578 430.616 647.578 428.8 647.578 426.989C647.578 426.09 646.783 425.219 645.853 425.265C644.918 425.305 644.123 426.023 644.123 426.989Z" fill="#B77115"/>
<path d="M290.965 450.073C290.68 452.795 292.245 455.618 294.608 456.938C295.398 457.379 296.532 457.156 296.972 456.316C297.402 455.503 297.199 454.424 296.355 453.953L295.701 453.532L296.051 453.8L295.06 452.809L295.333 453.159C295.024 452.764 294.778 452.333 294.584 451.874L294.756 452.288C294.57 451.831 294.434 451.353 294.371 450.862L294.426 451.317C294.381 450.91 294.371 450.492 294.417 450.075C294.457 449.661 294.194 449.135 293.91 448.855C293.611 448.556 293.116 448.329 292.69 448.351C292.245 448.37 291.778 448.513 291.47 448.855C291.142 449.212 291.015 449.599 290.965 450.075V450.073Z" fill="#B77115"/>
<path d="M304.973 439.763C304.645 440.521 304.459 441.188 304.378 442.009C304.311 442.652 304.387 443.32 304.509 443.956C304.763 445.219 305.44 446.434 306.365 447.32C307.023 447.937 308.167 448.013 308.808 447.32C309.43 446.64 309.511 445.54 308.808 444.875L308.329 444.348L308.602 444.698L307.966 443.614L308.138 444.028C307.971 443.612 307.846 443.174 307.789 442.736L307.849 443.188C307.794 442.748 307.794 442.298 307.849 441.851L307.789 442.315L308.093 441.176L307.92 441.59L307.951 441.514C308.143 441.074 308.255 440.674 308.124 440.186L307.33 439.155C306.925 438.942 306.444 438.832 305.999 438.983L304.971 439.772L304.973 439.763Z" fill="#B77115"/>
<path d="M323.601 433.783C323.601 434.237 323.601 434.685 323.601 435.139L323.747 435.802L324.106 436.359L324.663 436.716L325.326 436.866L325.79 436.802L326.551 436.357L326.819 436.008L327.055 435.137C327.055 434.682 327.055 434.235 327.055 433.781L326.909 433.118L326.551 432.561L325.998 432.202L325.326 432.053L324.867 432.116L324.106 432.561L323.838 432.91L323.601 433.781V433.783Z" fill="#B77115"/>
<path d="M269.743 390.225C273.496 393.57 277.938 396.038 282.768 397.423C283.662 397.682 284.646 397.11 284.892 396.22C285.146 395.313 284.588 394.356 283.684 394.096C279.45 392.876 275.479 390.716 272.185 387.783C271.491 387.166 270.429 387.099 269.743 387.783C269.106 388.419 269.044 389.608 269.743 390.225V390.225Z" fill="#B77115"/>
<path d="M247.849 397.93C249.609 400.231 251.375 402.528 253.145 404.824C253.427 405.202 253.702 405.492 254.171 405.618C254.59 405.733 255.138 405.688 255.506 405.446C256.214 404.994 256.714 403.851 256.128 403.083C254.358 400.786 252.597 398.49 250.832 396.191C250.545 395.818 250.274 395.524 249.796 395.397C249.382 395.284 248.834 395.335 248.468 395.569C247.76 396.028 247.26 397.167 247.851 397.932L247.849 397.93Z" fill="#B77115"/>
<path d="M315.451 402.543C315.451 404.358 315.451 406.164 315.451 407.978C315.451 408.88 316.245 409.743 317.18 409.702C318.116 409.662 318.905 408.944 318.905 407.978C318.905 406.162 318.905 404.356 318.905 402.543C318.905 401.641 318.111 400.777 317.18 400.813C316.24 400.859 315.451 401.571 315.451 402.543Z" fill="#B77115"/>
<path d="M569.37 224.128C577.47 217.724 585.565 211.321 593.665 204.917C594.394 204.34 594.267 203.08 593.665 202.472C592.94 201.75 591.954 201.896 591.222 202.472C583.122 208.878 575.023 215.282 566.927 221.686C566.191 222.262 566.32 223.518 566.927 224.128C567.65 224.848 568.633 224.71 569.37 224.128V224.128Z" fill="#633719"/>
<path d="M578.229 217.131C580.858 222.155 583.485 227.183 586.111 232.212C586.542 233.037 587.69 233.288 588.47 232.834C589.31 232.343 589.523 231.298 589.087 230.463C586.465 225.439 583.837 220.416 581.21 215.388C580.779 214.562 579.626 214.311 578.846 214.766C578.011 215.256 577.794 216.299 578.229 217.129V217.131Z" fill="#633719"/>
<path d="M569.56 182.988C560.91 179.467 558.573 168.516 557.671 159.222C555.714 139.2 554.767 119.079 554.831 98.9613C543.425 106.286 528.991 108.736 515.808 105.587C511.878 104.647 507.672 102.887 506.024 99.2028C504.381 95.5141 507.541 90.0624 511.423 91.1843C506.995 109.245 484.791 115.23 466.398 117.941C464.034 118.285 461.221 118.476 459.685 116.642C458.157 114.812 460.752 111.164 462.432 112.862C465.628 112.173 464.855 117.826 462.405 119.991C450.779 130.255 435.381 136.155 419.87 136.291C417.261 136.315 414.153 135.882 412.978 133.55C411.804 131.212 415.605 128.057 416.88 130.337C416.971 139.776 410.79 148.969 402.013 152.45C393.241 155.935 382.44 153.476 376.036 146.539C373.563 143.86 371.661 140.255 372.36 136.674C373.063 133.102 377.326 130.258 380.5 132.04C374.46 137.26 365.066 133.035 358.971 127.875C352.251 122.184 346.029 114.415 346.627 105.631C347.235 96.8394 358.466 89.3927 365.224 95.0429C351.988 91.4045 343.773 75.2621 348.634 62.4186C353.486 49.5774 370.322 42.9057 382.66 48.9364C374.656 42.8459 374.807 29.4068 381.947 22.3164C389.081 15.2285 401.061 14.5059 409.964 19.1707C418.875 23.8425 424.834 32.9902 427.494 42.6928C429.949 32.1912 440.285 24.1057 451.069 24.2564C461.85 24.4 471.967 32.7701 474.136 43.3291C484.593 36.8129 499.898 39.8845 507.024 49.9411C519.231 39.9203 540.115 43.7334 547.997 57.419C549.439 51.9624 557.7 54.2565 562.202 57.6486C566.952 61.2344 571.703 64.8179 576.457 68.4037C580.1 71.1499 583.965 74.2311 585.119 78.6375C586.166 82.6276 584.738 86.7971 584.611 90.9188C584.456 95.7701 586.104 100.471 587.427 105.135C594 128.375 592.709 153.773 583.8 176.219C581.513 181.984 574.234 188.304 570.378 183.452L569.562 182.988H569.56Z" fill="#141515"/>
<path d="M475.587 339.234L474.213 321.144C474.532 321.548 475.125 328.813 475.842 339.138L475.589 339.234H475.587Z" fill="#141515"/>
<path d="M475.84 339.139C475.122 328.814 474.529 321.549 474.211 321.145L530.776 317.959L475.84 339.139Z" fill="#8C552B"/>
<path d="M458.346 190.219C458.356 190.74 458.346 191.257 458.31 191.776L458.25 192.453L458.205 192.793L458.169 193.003C458.002 193.994 457.751 194.972 457.425 195.924C457.284 196.347 457.126 196.768 456.959 197.182L456.763 197.622L456.396 198.388C455.952 199.285 455.456 200.163 454.925 201.017C452.655 204.67 450.06 207.6 447.342 210.999C444.67 214.339 442.031 217.788 440.34 221.745C438.474 226.111 437.876 230.905 439.338 235.495C441.144 241.145 445.45 245.786 451.033 247.829C451.909 248.147 452.925 247.465 453.157 246.623C453.425 245.662 452.83 244.822 451.949 244.494C447.801 242.983 444.357 239.318 442.869 235.17C442.065 232.909 441.785 230.79 442.029 228.39L442.07 228.046L442.079 227.996L442.194 227.316C442.285 226.812 442.407 226.309 442.539 225.819C442.661 225.379 442.797 224.948 442.943 224.515L443.211 223.793L443.393 223.331C444.197 221.46 445.239 219.695 446.378 218.011C447.567 216.25 448.634 214.88 449.899 213.301C452.55 210.002 455.342 206.78 457.629 203.203C460.119 199.309 461.889 194.905 461.803 190.221C461.762 188.001 458.31 187.994 458.348 190.221L458.346 190.219Z" fill="#633719"/>
<path d="M510.828 200.594C510.828 206.29 506.658 210.905 501.515 210.905C496.374 210.905 492.207 206.29 492.207 200.594C492.207 194.906 496.372 190.294 501.515 190.294C506.656 190.294 510.828 194.906 510.828 200.594Z" fill="#141515"/>
<path d="M425.051 199.265C425.051 204.961 420.886 209.575 415.743 209.575C410.602 209.575 406.43 204.961 406.43 199.265C406.43 193.579 410.6 188.964 415.743 188.964C420.884 188.964 425.051 193.579 425.051 199.265Z" fill="#141515"/>
<path d="M445.531 263.286C455.119 264.319 465.008 260.59 471.833 253.846C473.776 251.93 475.469 249.744 476.842 247.397C477.969 245.474 474.986 243.73 473.855 245.651C469.434 253.215 461.53 258.32 452.894 259.695C450.608 260.059 447.957 260.095 445.529 259.832C444.598 259.731 443.799 260.698 443.799 261.556C443.799 262.575 444.598 263.181 445.529 263.286H445.531Z" fill="#633719"/>
<path d="M526.166 181.75C530.465 175.659 529.357 167.237 523.544 162.572C521.47 160.902 519.157 159.474 516.846 158.266C509.435 154.391 499.321 152.144 493.511 158.161C502.283 168.5 513.593 176.671 526.166 181.75V181.75Z" fill="#141515"/>
<path d="M447.964 150.505C446.335 143.235 439.347 138.401 431.987 139.582C429.358 140.003 426.745 140.757 424.298 141.656C416.452 144.551 407.998 150.546 408.56 158.892C422.117 159.327 435.761 156.418 447.964 150.505V150.505Z" fill="#141515"/>
<path d="M588.129 35.8989C608.606 35.9109 625.879 50.1968 635.831 67.119C641.366 76.5345 645.084 86.8688 647.938 97.3751C651.028 108.752 653.602 120.514 653.688 132.348C653.734 138.303 653.052 144.175 651.547 149.929C650.083 155.519 648.067 160.952 646.682 166.559C644.471 175.544 644.06 186.091 649.701 193.992C652.432 197.822 656.322 200.448 660.855 201.702C665.551 202.991 670.498 202.927 675.328 202.965C680.146 203.001 685.066 203.078 689.631 204.79C693.269 206.156 696.396 208.792 698.58 211.979C703.153 218.658 704.407 227.509 702.649 235.336C700.343 245.56 693.922 254.291 687.248 262.128C685.528 264.147 683.767 266.13 682.012 268.113C680.533 269.769 682.973 272.218 684.454 270.556C691.607 262.513 698.958 254.215 703.285 244.235C706.971 235.75 708.069 226.332 705.081 217.447C702.249 209.034 695.948 202.365 687.102 200.463C682.138 199.396 677.038 199.563 671.996 199.482C667.254 199.413 662.231 199.183 657.97 196.872C649.744 192.425 647.777 182.012 648.854 173.458C649.588 167.65 651.535 162.045 653.251 156.476C655.026 150.689 656.435 144.881 656.918 138.836C657.889 126.653 655.698 114.417 652.849 102.619C650.22 91.732 646.849 80.9601 641.826 70.9226C632.685 52.656 616.454 36.2697 595.506 33.0402C593.064 32.6623 590.605 32.4542 588.131 32.4542C585.911 32.4542 585.909 35.9037 588.131 35.9037L588.129 35.8989Z" fill="#141515"/>
<path d="M506.809 89.3463C503.994 93.2982 504.836 98.8216 507.568 102.565C510.249 106.233 514.216 108.763 518.364 110.493C525.973 113.665 534.865 113.766 542.627 111.06C547.074 109.507 551.177 107.077 554.566 103.795C556.164 102.252 553.722 99.8072 552.124 101.355C546.89 106.41 539.699 109.201 532.525 109.496C525.291 109.795 517.45 107.716 512.077 102.52C509.02 99.5608 507.113 94.8507 509.785 91.0902C510.336 90.3319 509.926 89.1692 509.173 88.7267C508.3 88.2219 507.348 88.5856 506.809 89.3487V89.3463Z" fill="#141515"/>
<path d="M593.696 29.2511C597.507 20.6513 599.392 11.298 599.074 1.892C599.004 -0.327924 595.548 -0.3351 595.624 1.892C595.916 10.6593 594.273 19.4767 590.711 27.5024C590.333 28.3564 590.464 29.3588 591.328 29.8635C592.065 30.2989 593.316 30.1051 593.699 29.2511H593.696Z" fill="#141515"/>
<path d="M601.726 31.2244C605.996 23.1341 611.46 15.7448 617.955 9.31228C619.538 7.7478 617.096 5.30536 615.512 6.86983C608.824 13.4985 603.142 21.1463 598.746 29.4782C598.31 30.3035 598.537 31.3584 599.367 31.8416C600.147 32.2961 601.296 32.0497 601.729 31.2244H601.726Z" fill="#141515"/>
<path d="M212.554 281.801C218.453 291.698 226.184 300.408 234.975 307.826C243.879 315.344 253.766 321.617 264.114 326.949C270.013 329.994 276.068 332.726 282.206 335.24C283.067 335.594 284.103 334.855 284.33 334.037C284.598 333.044 283.988 332.266 283.122 331.91C272.594 327.599 262.335 322.547 252.701 316.485C243.176 310.476 234.282 303.429 226.694 295.08C222.488 290.447 218.745 285.433 215.539 280.06C214.4 278.156 211.413 279.888 212.554 281.804V281.801Z" fill="#633719"/>
<path d="M227.306 277.623C233.241 286.201 240.32 293.968 248.331 300.647C256.34 307.326 265.193 312.976 274.678 317.328C280.036 319.785 285.565 321.849 291.234 323.468C293.38 324.076 294.291 320.746 292.155 320.139C282.402 317.357 273.078 313.242 264.418 307.963C255.833 302.717 247.95 296.358 241.02 289.062C237.112 284.945 233.523 280.548 230.292 275.879C229.756 275.113 228.777 274.764 227.928 275.262C227.165 275.702 226.77 276.85 227.306 277.62V277.623Z" fill="#633719"/>
<path d="M206.505 296.835C214.447 304.652 222.47 312.413 231.06 319.524C239.584 326.581 248.671 333.057 258.611 337.975C264.18 340.731 269.997 343.004 275.997 344.637C278.143 345.219 279.059 341.886 276.913 341.303C266.493 338.475 256.783 333.662 247.784 327.734C238.689 321.744 230.357 314.683 222.382 307.296C217.824 303.081 213.373 298.746 208.954 294.395C207.366 292.838 204.923 295.275 206.507 296.837L206.505 296.835Z" fill="#633719"/>
<path d="M277.769 351.037C282.768 342.47 287.533 333.765 292.045 324.936C293.337 322.407 294.61 319.867 295.861 317.314C296.274 316.48 296.088 315.451 295.239 314.956C294.476 314.511 293.287 314.733 292.878 315.573C288.507 324.477 283.888 333.258 279.025 341.896C277.625 344.375 276.216 346.838 274.781 349.288C273.661 351.211 276.647 352.955 277.769 351.034V351.037Z" fill="#633719"/>
<path d="M372.692 372.418C375.4 371.387 378.115 370.359 380.828 369.328C381.668 369.01 382.34 368.148 382.031 367.204C381.768 366.381 380.814 365.651 379.907 365.996C377.199 367.027 374.484 368.055 371.771 369.086C370.932 369.407 370.259 370.265 370.568 371.21C370.831 372.031 371.783 372.763 372.692 372.416V372.418Z" fill="#633719"/>
<path d="M277.626 644.628C277.394 654.725 276.507 664.801 274.93 674.774C273.351 684.763 271.115 694.648 268.232 704.343C266.603 709.84 264.754 715.275 262.718 720.636C262.388 721.507 263.087 722.526 263.926 722.76C264.902 723.028 265.718 722.433 266.053 721.552C269.675 712.017 272.675 702.241 275.002 692.306C277.349 682.309 279.019 672.147 280.03 661.935C280.597 656.184 280.947 650.407 281.078 644.63C281.133 642.408 277.674 642.412 277.624 644.63L277.626 644.628Z" fill="#633719"/>
<path d="M299.782 652.461C296.878 664.441 293.686 676.359 290.23 688.193C286.766 700.029 283.032 711.782 279.02 723.441C276.76 730.015 274.41 736.565 271.978 743.079C271.657 743.954 272.341 744.971 273.186 745.208C274.154 745.476 274.982 744.875 275.312 744C279.623 732.45 283.668 720.796 287.438 709.053C291.21 697.312 294.708 685.487 297.93 673.589C299.746 666.872 301.468 660.138 303.112 653.382C303.638 651.222 300.303 650.301 299.782 652.466V652.461Z" fill="#633719"/>
<path d="M309.019 651.247C307.35 662.023 305.386 672.752 303.108 683.419C300.831 694.083 298.243 704.683 295.363 715.203C293.741 721.112 292.028 726.987 290.224 732.841C289.562 734.975 292.896 735.881 293.552 733.764C296.769 723.344 299.692 712.83 302.309 702.243C304.926 691.657 307.247 680.996 309.252 670.279C310.383 664.255 311.416 658.215 312.352 652.163C312.493 651.242 312.115 650.306 311.144 650.039C310.323 649.816 309.165 650.321 309.019 651.247V651.247Z" fill="#633719"/>
<path d="M271.987 640.744C282.632 648.286 295.284 652.812 308.264 653.953C311.922 654.271 315.598 654.307 319.256 654.063C320.186 653.999 320.985 653.312 320.985 652.339C320.985 651.454 320.191 650.549 319.256 650.609C306.776 651.446 294.129 648.908 282.943 643.299C279.735 641.693 276.659 639.83 273.731 637.761C272.968 637.223 271.812 637.627 271.367 638.38C270.862 639.246 271.226 640.201 271.989 640.744H271.987Z" fill="#633719"/>
<path d="M249.253 546.147C254.659 540.774 260.611 536.009 267.036 531.911C267.826 531.411 268.139 530.376 267.659 529.55C267.199 528.768 266.084 528.431 265.297 528.931C258.631 533.172 252.418 538.133 246.811 543.705C245.232 545.269 247.672 547.721 249.253 546.147V546.147Z" fill="#633719"/>
<path d="M498.691 180.759C485.644 180.759 475.03 191.373 475.03 204.42C475.03 217.467 485.644 228.081 498.691 228.081C511.742 228.081 522.356 217.467 522.356 204.42C522.356 191.373 511.742 180.759 498.691 180.759ZM498.691 230.961C484.06 230.961 472.157 219.053 472.157 204.417C472.157 189.787 484.06 177.881 498.691 177.881C513.331 177.881 525.234 189.789 525.234 204.417C525.234 219.053 513.331 230.961 498.691 230.961Z" fill="white"/>
<path d="M414.247 180.759C401.2 180.759 390.586 191.373 390.586 204.42C390.586 217.467 401.2 228.081 414.247 228.081C427.293 228.081 437.912 217.467 437.912 204.42C437.912 191.373 427.293 180.759 414.247 180.759ZM414.247 230.961C399.611 230.961 387.703 219.053 387.703 204.417C387.703 189.787 399.609 177.881 414.247 177.881C428.877 177.881 440.783 189.789 440.783 204.417C440.783 219.053 428.875 230.961 414.247 230.961Z" fill="white"/>
<path d="M440.759 202.364C442.696 199.279 446.418 197.69 449.988 197.463C454.454 197.173 458.683 198.848 462.575 201.171C465.022 202.63 467.326 204.314 469.622 206.003C470.376 206.555 471.551 206.125 471.981 205.381C472.5 204.505 472.122 203.575 471.364 203.022C466.962 199.788 462.427 196.53 457.145 194.903C452.638 193.523 447.71 193.645 443.414 195.652C441.094 196.731 439.125 198.46 437.768 200.621C436.584 202.503 439.575 204.242 440.754 202.362L440.759 202.364Z" fill="white"/>
<path d="M526.114 203.584C538.661 197.508 551.394 191.822 564.31 186.564C568.003 185.061 571.706 183.59 575.424 182.157C576.294 181.822 576.897 180.995 576.629 180.033C576.402 179.203 575.381 178.485 574.505 178.827C561.221 183.954 548.103 189.508 535.178 195.486C531.556 197.161 527.954 198.866 524.368 200.601C523.533 201.01 523.306 202.208 523.751 202.964C524.251 203.823 525.272 203.991 526.112 203.586L526.114 203.584Z" fill="white"/>
<path d="M570.525 117.419C566.437 124.129 561.789 130.506 556.663 136.46C551.752 132.119 547.567 126.959 544.329 121.263L543.788 121.49L544.034 120.756L544.329 121.263C553.081 117.555 562.066 114.383 571.217 111.783C572.57 113.3 571.59 115.682 570.528 117.419H570.525ZM581.701 109.898C583.259 106.635 580.323 103.018 576.814 103.891C564.647 106.898 552.644 110.544 540.855 114.79C537.977 115.828 534.66 117.364 535.363 121.275C535.511 122.105 535.848 122.899 536.289 123.622C540.659 130.77 546.3 137.135 552.861 142.34C554.653 143.766 556.797 145.177 559.055 144.804C561.583 144.4 563.198 141.977 564.504 139.786C569.441 131.487 574.379 123.186 579.316 114.89L581.699 109.898H581.701Z" fill="#6B74B5"/>
</svg>
