<svg width="73" height="22" viewBox="0 0 73 22" fill="none" xmlns="http://www.w3.org/2000/svg">
<path fill-rule="evenodd" clip-rule="evenodd" d="M34.8066 8.67142C35.7284 8.96713 36.1356 10.8291 34.8636 12.496C34.647 12.7797 32.2381 15.6971 32.0712 15.4816C31.1304 14.2672 28.7625 12.5682 29.0619 10.3481C29.2013 9.31259 30.5644 8.13758 31.7816 10.2148C31.9549 10.5108 32.1184 10.8138 32.2808 11.1173C32.5561 10.5158 33.0047 9.51215 33.4826 9.11442C33.8152 8.83828 34.3594 8.52748 34.8069 8.67142H34.8066Z" fill="#FF6231"/>
<path d="M55.0708 6.01518C55.407 6.01518 55.6169 6.05711 55.743 6.26729C55.8693 6.51939 55.9953 6.81342 55.9953 7.27571C55.9953 8.03203 55.6591 8.91468 55.0708 9.54466C54.6926 10.0069 54.1043 10.4692 53.0958 10.6375C53.1378 9.46081 53.3899 8.24249 53.81 7.31791C54.1881 6.51939 54.6923 6.01518 55.0705 6.01518H55.0708ZM46.8771 14.629C46.5408 15.3434 45.9947 16.2257 45.154 16.2257C44.8597 16.2257 44.6076 15.8898 44.6076 15.4694C44.6076 14.2089 46.2884 13.4526 47.2969 13.1583C47.1705 13.7047 47.0445 14.2089 46.8768 14.629H46.8771ZM47.5912 11.3516C46.1205 11.6456 44.1875 12.5702 43.4312 13.9146C44.0614 8.53596 44.986 6.7293 45.5324 6.18316C45.7845 5.88913 45.9525 5.88913 45.9525 5.88913C46.8771 5.88913 47.6331 7.9901 47.6331 10.4692C47.6331 10.7633 47.5912 11.0995 47.5912 11.3516ZM51.4574 10.974C50.6782 10.9793 49.9359 11.021 49.2299 11.0995C49.2721 10.8893 49.2721 10.7211 49.2721 10.4692C49.2721 8.45239 48.6418 4.25017 45.9525 4.25017C43.4734 4.25017 42.5488 8.9144 42.2128 10.8893C42.0449 10.5953 41.8347 10.427 41.4987 10.427C41.0786 10.427 40.7002 10.8055 40.7002 11.2678C40.7002 14.4244 40.9232 17.4974 41.0951 20.6362C41.1203 21.0976 41.4733 21.5186 41.9356 21.5186C42.3979 21.5186 42.7363 21.0968 42.776 20.6362C43.1377 16.4362 42.9135 19.5204 43.1377 16.4362C43.4739 17.2766 44.2302 17.865 45.1545 17.865C47.6337 17.865 48.7681 14.8397 49.0622 12.7807C49.8101 12.656 50.5994 12.5314 51.5922 12.5288C51.7207 13.2776 51.9597 14.0703 52.382 14.7978C53.0964 16.0583 54.3147 16.7727 55.7435 16.7727C57.7126 16.7727 58.9991 15.1351 59.7308 13.7908C60.0086 14.4381 60.3278 14.9529 60.7021 15.3439C61.2482 15.9742 61.9204 16.2263 62.6348 16.2263C63.4333 16.2263 64.5678 15.8481 65.5762 13.9995C65.6598 13.8455 65.7321 13.6927 65.7953 13.544C65.918 13.8721 65.9963 14.16 65.9963 14.3777C65.9963 14.7556 65.8702 15.134 65.7864 15.47L64.7779 16.2685C64.0216 16.8988 63.4333 17.4449 63.6435 18.1593C63.6851 18.4114 63.9794 18.8315 64.7779 18.8315C65.4501 18.8315 66.2065 18.2853 66.7948 17.2769L67.2149 16.5206L68.2233 15.7224C69.4838 14.7978 71.1228 13.7055 72.7193 12.4447C73.0552 12.1926 73.0974 11.6465 72.8031 11.3102C72.551 10.9321 72.0468 10.8902 71.6686 11.1423C70.2399 12.277 68.853 13.3274 67.6347 14.1678C67.5925 13.3696 67.1305 12.5291 66.7101 11.4785C66.2059 10.3862 65.6598 9.12542 65.6598 8.20112C65.6598 7.86489 65.8275 7.36068 66.1218 7.10829C66.2059 6.98224 66.2481 6.94032 66.3319 6.94032C66.3742 6.98224 66.4158 7.27627 66.4158 7.31847C66.4158 7.82269 66.7942 8.20084 67.2562 8.20084C68.6847 8.20084 68.1805 5.30135 66.3739 5.30135C65.8275 5.30135 65.3232 5.51125 64.9032 5.97354C64.357 6.51967 64.0208 7.3604 64.0208 8.20056C64.0208 9.20815 64.3967 10.3231 64.8266 11.3524C64.7888 11.4162 64.7578 11.4863 64.7352 11.5623C64.525 12.5708 63.6424 14.5876 62.6339 14.5876C62.466 14.5876 62.1716 14.5876 61.9198 14.2514C61.2896 13.663 60.4491 11.8983 59.9871 6.8137H62.7183C63.1803 6.8137 63.5588 6.43555 63.5588 6.01546C63.5588 5.55318 63.1803 5.17502 62.7183 5.17502H59.903C59.903 4.05927 59.8778 0.927795 59.8778 0.88587C59.8778 0.465788 59.5416 0.0434691 59.1212 0.00350118C58.6592 -0.0406592 58.2389 0.339735 58.2389 0.759818C58.2389 0.843667 58.2489 4.04697 58.3062 5.17502H56.9395C56.478 4.66494 55.8106 4.3765 55.071 4.3765C53.9785 4.3765 53.012 5.17502 52.3398 6.64573C51.7937 7.82213 51.4574 9.37696 51.4574 10.8893L51.4577 10.9743L51.4574 10.974ZM57.6072 6.81315H58.3481C58.4742 8.03175 58.558 9.08237 58.7263 10.0489C58.8236 10.597 58.9264 11.1059 59.0368 11.5772C58.8479 12.0394 57.6595 15.1332 55.743 15.1332C54.0201 15.1332 53.4318 13.5364 53.2219 12.2759C54.3986 12.1079 55.4909 11.5196 56.3313 10.6369C57.1298 9.71236 57.6337 8.40991 57.6337 7.27515C57.6337 7.11891 57.6248 6.96407 57.6072 6.81287V6.81315Z" fill="#FF6231"/>
<path d="M5.45744 5.20068C6.57431 5.20068 7.54388 5.38683 8.36644 5.75912C9.18899 6.13141 9.82261 6.65965 10.2667 7.34442C10.7111 8.0289 10.9333 8.83944 10.9333 9.77603C10.9333 10.7006 10.7111 11.5084 10.2667 12.1987C9.82261 12.8893 9.18899 13.4176 8.36644 13.7837C7.54388 14.1501 6.57431 14.3329 5.45744 14.3329H2.91766V17.1424C2.91766 17.5097 2.61804 17.8093 2.25078 17.8093H0.666878C0.29962 17.8093 0 17.5097 0 17.1424V5.86756C0 5.5003 0.29962 5.20068 0.666878 5.20068H5.45772H5.45744ZM5.29533 11.9555C6.17183 11.9555 6.83843 11.7663 7.29485 11.3882C7.75127 11.01 7.97933 10.4725 7.97933 9.77603C7.97933 9.06751 7.75127 8.52417 7.29485 8.14573C6.83843 7.76758 6.17211 7.57836 5.29533 7.57836H2.91766V11.9555H5.29533Z" fill="white"/>
<path d="M20.8397 17.5225L18.6068 14.2974H18.4629H15.9231V17.1429C15.9231 17.5102 15.6235 17.8098 15.2559 17.8098H13.672C13.3045 17.8098 13.0049 17.5102 13.0049 17.1429V5.86805C13.0049 5.50079 13.3045 5.20117 13.672 5.20117H18.4629C19.5797 5.20117 20.5493 5.38732 21.3719 5.75961C22.1944 6.13189 22.8281 6.66014 23.2722 7.34491C23.7166 8.02939 23.9388 8.83993 23.9388 9.77652C23.9388 10.7134 23.7135 11.5209 23.2632 12.1992C22.813 12.8778 22.1735 13.3971 21.345 13.7574L23.4413 16.7617C23.5872 16.9708 23.6037 17.2259 23.4857 17.4518C23.3678 17.6779 23.1492 17.8104 22.8943 17.8104H21.3884C21.1625 17.8104 20.9686 17.7086 20.84 17.523L20.8397 17.5225ZM20.9845 9.77596C20.9845 9.06744 20.7564 8.5241 20.3 8.14566C19.8436 7.76751 19.1773 7.57829 18.3005 7.57829H15.9228V11.9734H18.3005C19.177 11.9734 19.8436 11.7813 20.3 11.397C20.7564 11.0127 20.9845 10.4725 20.9845 9.77596Z" fill="white"/>
<path d="M32.3505 18.0257C32.0243 18.0257 31.7063 18.0081 31.396 17.9732L29.7735 20.7835C29.3604 21.4987 28.4373 21.7461 27.7218 21.3333H27.7215C27.0063 20.9202 26.7586 19.997 27.1717 19.2815L28.4909 16.9963C27.5918 16.4507 26.8757 15.7341 26.343 14.8462C25.7485 13.8556 25.4514 12.7415 25.4514 11.5048C25.4514 10.268 25.7485 9.15393 26.343 8.1634C26.9375 7.17286 27.7601 6.39531 28.8107 5.83072C29.8613 5.26642 31.0413 4.98413 32.3502 4.98413C33.6591 4.98413 34.8361 5.26642 35.8808 5.83072C36.9256 6.39503 37.7481 7.17259 38.3485 8.1634C38.9488 9.15421 39.249 10.268 39.249 11.5048C39.249 12.7415 38.9488 13.8553 38.3485 14.8462C37.7481 15.837 36.9256 16.6145 35.8808 17.1788C34.8361 17.7431 33.6594 18.0254 32.3502 18.0254L32.3505 18.0257ZM32.3505 16.1802C33.213 16.1802 33.9925 15.982 34.6882 15.5854C35.3839 15.1888 35.93 14.6357 36.3266 13.926C36.7229 13.2164 36.9214 12.4092 36.9214 11.5051C36.9214 10.6006 36.7229 9.79342 36.3266 9.08378C35.93 8.37414 35.3839 7.8213 34.6882 7.42441C33.9925 7.02781 33.2133 6.82964 32.3505 6.82964C31.488 6.82964 30.7087 7.02781 30.0131 7.42441C29.3174 7.82102 28.7713 8.37414 28.3747 9.08378C27.9781 9.79342 27.7799 10.6006 27.7799 11.5051C27.7799 12.4095 27.9781 13.2164 28.3747 13.926C28.7713 14.6357 29.3174 15.1888 30.0131 15.5854C30.7087 15.982 31.488 16.1802 32.3505 16.1802Z" fill="white"/>
</svg>
