<svg width="1919" height="2232" viewBox="0 0 1919 2232" fill="none" xmlns="http://www.w3.org/2000/svg">
<path fill-rule="evenodd" clip-rule="evenodd" d="M1919 1041.48C1875.76 1063.4 1840.23 1098.29 1805.81 1132.1C1743.79 1193.02 1685.33 1250.43 1591.75 1222.16C1547.39 1208.75 1524.34 1183.39 1500.87 1157.56C1479.34 1133.87 1457.45 1109.78 1418.41 1094.18C1314.45 1052.63 1229.71 1078.93 1140.57 1106.59C1065.29 1129.95 986.87 1154.28 891.085 1139.53C831.269 1130.32 790.217 1106.25 749.697 1082.49C706.118 1056.93 663.154 1031.73 598.125 1025.78C553.851 1021.72 515.393 1068.7 479.935 1112.01C432.176 1170.35 389.859 1222.04 346.097 1133.44C329.046 1098.92 299.26 1130.71 264.207 1168.14C227.855 1206.94 185.836 1251.8 146.48 1235.01C72.3651 1203.38 0 1106.02 0 1106.02V2110.31C0 2110.31 11.7626 2227.79 85.4465 2231.17C147.341 2234.02 176.306 2181.8 206.519 2127.32C232.262 2080.91 258.911 2032.86 307.607 2015.85C377.901 1991.28 405.465 2084.41 426.68 2156.08C444.017 2214.65 457.114 2258.9 485.824 2212.89C501.803 2187.29 513.119 2163.86 522.536 2144.36C551.968 2083.42 562.863 2060.86 639.628 2130.18C768.85 2246.89 858.746 2202.73 946.731 2159.52C995.05 2135.78 1042.79 2112.33 1096.16 2115.96C1139.35 2118.9 1175.83 2145.98 1208.6 2170.31C1250.81 2201.65 1286.88 2228.42 1323.2 2193.16C1389.12 2129.17 1422.58 2117.17 1503.86 2116.54C1584.76 2115.91 1654.9 2129.31 1717.44 2141.25C1766.84 2150.68 1811.49 2159.2 1852.97 2159.2C1892.55 2159.2 1908.26 2143.35 1919 2121.48V1041.48Z" fill="#F5F5F5"/>
<g opacity="0.3">
<circle cx="5" cy="5" r="5" transform="matrix(-1 0 0 1 350.991 87)" fill="#005546"/>
<circle cx="10" cy="10" r="10" transform="matrix(-1 0 0 1 174.995 364)" fill="#005546"/>
<circle cx="3.5" cy="3.5" r="3.5" transform="matrix(-1 0 0 1 168.985 73)" fill="#005546"/>
<circle cx="2.5" cy="2.5" r="2.5" transform="matrix(-1 0 0 1 233.985 229)" fill="#005546"/>
<circle cx="25" cy="25" r="21.5" transform="matrix(-1 0 0 1 214.995 0)" stroke="#005546" stroke-width="7"/>
<circle cx="15" cy="15" r="12.5" transform="matrix(-1 0 0 1 365.991 262)" stroke="#005546" stroke-width="5"/>
<circle cx="7.5" cy="7.5" r="6" transform="matrix(-1 0 0 1 107.988 247)" stroke="#005546" stroke-width="3"/>
</g>
<g opacity="0.3">
<circle cx="5" cy="5" r="5" transform="matrix(1 0 0 -1 1568 975)" fill="#005546"/>
<circle cx="10" cy="10" r="10" transform="matrix(1 0 0 -1 1743.99 698)" fill="#005546"/>
<circle cx="3.5" cy="3.5" r="3.5" transform="matrix(1 0 0 -1 1750 989)" fill="#005546"/>
<circle cx="2.5" cy="2.5" r="2.5" transform="matrix(1 0 0 -1 1685 833)" fill="#005546"/>
<circle cx="25" cy="25" r="21.5" transform="matrix(1 0 0 -1 1703.99 1062)" stroke="#005546" stroke-width="7"/>
<circle cx="15" cy="15" r="12.5" transform="matrix(1 0 0 -1 1553 800)" stroke="#005546" stroke-width="5"/>
<circle cx="7.5" cy="7.5" r="6" transform="matrix(1 0 0 -1 1811 815)" stroke="#005546" stroke-width="3"/>
</g>
</svg>
