<svg width="528" height="664" viewBox="0 0 528 664" fill="none" xmlns="http://www.w3.org/2000/svg">
<circle cx="263.85" cy="400.15" r="263.85" fill="#005546"/>
<path d="M286.935 587.711C296.491 594.684 306.431 601.4 317.552 605.441C341.835 614.269 370.768 608.684 390.023 591.454C372.975 598.882 352.733 598.567 335.923 590.614C319.113 582.662 306.03 567.211 300.96 549.317L286.935 587.709V587.711Z" fill="#663304"/>
<path d="M378.991 607.837C393.747 609.603 443.858 614.879 458.478 611.716C472.197 608.74 485.998 603.376 496.978 592.257C516.029 572.952 523.489 537.905 518.043 507.288C512.597 476.671 482.845 394.781 462.183 378.525L378.993 607.839L378.991 607.837Z" fill="#EFA02A"/>
<path d="M341.772 18.3344L328.156 11.8957C312.085 4.2945 293.609 3.58057 276.999 9.9181C265.758 0.318263 249.46 -2.01631 235.134 1.63732C220.807 5.29094 208.319 14.3086 198.164 25.0557C193.789 29.6866 189.669 34.7567 184.139 37.9178C178.287 41.2679 171.407 42.1651 164.848 43.7342C149.886 47.3191 135.869 54.7753 124.534 65.1826C121.482 67.981 118.552 71.104 117.066 74.9676C115.104 80.0872 115.927 85.8101 116.929 91.197C119.932 107.356 124.013 125.357 115.163 139.204C109.572 147.952 88.3509 149.216 76.0862 176.945C71.2262 187.927 77.1476 208.34 77.2965 220.349C77.4549 232.913 68.4965 243.47 60.4753 253.142C47.1894 269.158 34.5372 288.13 36.051 308.888C37.5914 330.021 53.3933 347.159 69.4719 360.968C87.2132 376.203 109.414 390.451 132.38 386.049C142.161 384.18 150.961 379.055 160.223 375.403C181.251 367.111 205.235 366.559 226.62 373.882C252.779 382.834 276.11 403.214 303.734 402.135C327.906 401.19 350.356 383.533 374.183 387.7C381.777 389.033 388.867 392.543 396.479 393.77C416.811 397.044 435.743 383.819 452.097 371.297C454.649 369.342 457.278 367.304 458.851 364.501C460.517 361.531 460.834 358.019 461.115 354.627C462.418 338.884 463.493 322.038 455.68 308.303C445.603 290.577 418.706 248.962 423.792 229.212C438.187 173.218 395.735 150.984 393.215 144.986C386.179 128.201 396.002 109.574 398.146 91.4986C400.587 70.9093 392.085 49.333 376.249 35.9478C366.33 27.562 351.716 26.6839 341.772 18.3382C303.268 -13.9698 341.772 18.3382 341.772 18.3382V18.3344Z" fill="#141515"/>
<path d="M356.401 179.12C356.905 176.94 358.94 175.346 361.12 174.872C363.308 174.399 365.592 174.888 367.671 175.709C377.25 179.513 382.887 191.073 380.251 201.036C377.615 211 367.24 218.218 356.959 217.498C355.134 208.629 354.107 199.602 353.883 190.552L356.401 179.12Z" fill="#E5B595"/>
<path d="M362.55 78.2942C362.573 121.622 361.443 181.73 359.154 224.997C358.803 231.609 362.452 255.669 357.127 259.605C344.866 268.668 304.053 266.989 291.861 266.511C293.686 285.163 295.511 306.094 297.34 324.744C297.506 326.46 297.642 328.333 296.693 329.774C295.53 331.551 293.177 332.038 291.073 332.345C269.573 335.499 247.756 336.505 226.054 335.333C223.588 300.845 221.643 266.32 220.245 231.769C211.315 239.06 197.837 240.497 187.869 234.705C177.902 228.916 172.468 216.021 175.854 204.997C179.238 193.977 191.484 186.286 202.785 188.579C200.456 161.341 205.11 117.322 202.785 90.0835C251.084 78.2159 362.552 78.2961 362.552 78.2961L362.55 78.2942Z" fill="#FBC9A4"/>
<path d="M294.269 292.064L238.627 259.451L291.862 266.51L294.269 292.064Z" fill="#DDAB87"/>
<path d="M198.679 187.964C212.445 185.555 224.371 175.999 231.419 163.927C238.463 151.861 240.965 153.524 240.425 139.56C240.244 134.912 240.324 129.157 244.459 127.03C246.392 126.034 248.694 126.208 250.865 126.419C267.005 128.006 285.834 129.729 296.898 117.866C304.339 109.885 306.679 96.9308 316.518 92.2025C328.736 86.325 344.536 97.2324 356.373 90.6276C346.583 108.518 350.862 132.934 366.155 146.43C370.562 122.392 373.133 98.0208 373.838 73.5926C373.95 69.605 373.878 65.2202 371.249 62.2213C368.31 58.8636 363.308 58.499 358.847 58.3959C308.813 57.2296 258.718 58.5601 208.814 62.3683C204.33 62.7119 199.695 63.1262 195.78 65.3195C188.299 69.521 185.609 78.823 184.08 87.2642C177.029 126.225 180.524 151.044 194.092 188.241L198.681 187.962L198.679 187.964Z" fill="#141515"/>
<path d="M189.028 218.963C192.019 216.529 195.007 214.09 197.998 211.652C198.54 211.211 198.458 210.276 197.998 209.818C197.462 209.281 196.709 209.373 196.158 209.818C193.17 212.255 190.183 214.691 187.192 217.133C186.644 217.574 186.732 218.509 187.192 218.965C187.728 219.505 188.48 219.414 189.026 218.965L189.028 218.963Z" fill="#93674A"/>
<path d="M187.833 203.906C193.025 206.607 197.433 210.707 200.489 215.706C201.333 217.094 202.093 218.551 202.713 220.049C202.977 220.698 203.572 221.158 204.307 220.954C204.924 220.79 205.487 220.013 205.216 219.36C202.776 213.425 198.781 208.3 193.636 204.472C192.216 203.415 190.71 202.481 189.143 201.663C188.522 201.336 187.734 201.502 187.368 202.126C187.026 202.709 187.209 203.583 187.835 203.904L187.833 203.906Z" fill="#93674A"/>
<path d="M379.872 58.794C387.701 65.1354 390.74 74.9528 391.587 84.671C392.488 95.0363 390.959 105.32 390.675 115.67C390.392 125.806 391.163 136.633 396.508 145.53C399.246 150.083 403.109 153.584 407.393 156.648C411.865 159.841 416.703 162.638 420.536 166.631C428.009 174.41 429.754 185.499 429.882 195.872C430.008 206.369 428.448 216.824 429.252 227.323C429.987 236.976 432.587 247.023 439.764 253.952C443.765 257.816 448.814 260.177 453.792 262.51C458.778 264.85 463.549 267.385 467.59 271.185C485.637 288.161 485.213 315.052 481.26 337.583C480.691 340.82 480.057 344.046 479.402 347.263C479.07 348.897 481.571 349.595 481.909 347.954C486.66 324.6 490.235 298.231 476.09 277.254C473.198 272.963 469.659 269.149 465.492 266.072C460.918 262.693 455.621 260.629 450.572 258.098C445.699 255.649 441.259 252.593 438.151 248.031C435.358 243.932 433.726 239.202 432.774 234.365C428.773 213.951 437.582 191.449 427.616 172.135C425.157 167.362 421.519 163.581 417.256 160.368C412.799 157.007 407.847 154.267 403.768 150.421C395.831 142.932 393.53 132.054 393.259 121.541C392.986 110.997 394.704 100.532 394.468 89.9968C394.252 80.3435 392.635 70.0183 386.681 62.1136C385.231 60.1932 383.578 58.4714 381.713 56.9538C380.424 55.9116 378.574 57.7384 379.872 58.794Z" fill="#141515"/>
<path d="M146.162 55.4669C134.628 63.1044 122.74 71.0092 114.682 82.5103C110.947 87.8456 108.066 93.9274 106.829 100.353C105.506 107.223 106.547 113.788 108.133 120.513C109.712 127.211 111.113 133.886 109.273 140.686C107.772 146.237 104.615 151.179 100.839 155.461C92.7778 164.591 82.2617 170.655 72.6772 177.949C63.6748 184.8 54.5999 193.158 51.1849 204.307C49.3695 210.235 49.6463 216.385 51.1238 222.356C52.7177 228.823 55.4475 234.955 56.965 241.447C58.2612 246.994 58.3299 252.62 56.5947 258.071C55.1325 262.693 52.5536 266.896 49.6024 270.714C43.1465 279.043 34.9936 285.865 28.0891 293.802C21.0243 301.917 15.7214 311.064 14.8815 321.993C14.0187 333.099 17.5368 344.501 24.5405 353.163C26.2719 355.307 28.2266 357.244 30.3703 358.976C31.6645 360.014 33.5104 358.189 32.2105 357.139C23.5212 350.118 18.2679 339.436 17.47 328.336C17.071 322.817 17.741 317.253 19.6022 312.034C21.3355 307.161 24.1931 302.701 27.4019 298.666C33.8693 290.528 41.837 283.765 48.648 275.931C54.9301 268.7 60.1815 260.295 60.5442 250.455C61.0291 237.368 52.4314 226.002 52.4696 213.008C52.4982 201.116 60.4927 191.516 69.0808 184.153C78.1232 176.399 88.6374 170.606 97.4604 162.564C105.709 155.039 112.781 145.282 112.821 133.673C112.846 126.543 110.269 119.785 109.179 112.814C108.133 106.129 109.124 99.4193 111.714 93.1867C117.044 80.3418 127.938 71.1084 139.084 63.3621C141.85 61.436 144.664 59.571 147.479 57.7099C148.865 56.7898 147.565 54.5411 146.168 55.465L146.162 55.4669Z" fill="#141515"/>
<path d="M328.986 183.148L328.179 183.297C327.602 181.924 327.259 180.321 327.259 178.593C327.259 173.611 330.044 169.578 333.472 169.578C336.904 169.578 339.682 173.611 339.682 178.593C339.682 180.871 339.094 182.948 338.132 184.536C335.339 183.182 332.071 182.682 328.984 183.15L328.986 183.148Z" fill="#141515"/>
<path d="M300.952 159.839C303.031 166.852 305.49 173.774 308.68 180.363C311.799 186.806 315.676 192.939 320.595 198.17C323.361 201.113 326.472 203.744 329.851 205.956C329.763 205.275 329.677 204.595 329.59 203.917C326.801 206.859 323.397 209.214 319.627 210.719C318.97 210.98 318.516 211.587 318.718 212.316C318.888 212.933 319.659 213.485 320.316 213.225C324.516 211.553 328.311 209.031 331.426 205.752C332.023 205.122 331.871 204.177 331.164 203.713C325.428 199.962 320.631 194.913 316.781 189.268C312.816 183.456 309.752 177.069 307.254 170.504C305.833 166.778 304.593 162.981 303.459 159.156C302.985 157.554 300.479 158.235 300.952 159.843V159.839Z" fill="#93674A"/>
<path d="M279.381 212.29C277.61 217.885 280.91 223.972 286.648 225.196C287.576 225.394 288.534 225.461 289.494 225.373C294.86 224.881 299.337 219.645 298.978 214.267C298.861 212.486 298.243 210.675 296.954 209.43C295.671 208.188 293.656 207.63 292.02 208.344C291.147 208.728 290.277 209.455 289.364 209.18C288.561 208.934 288.191 208.035 287.702 207.359C286.7 205.979 284.789 205.336 283.157 205.832C281.528 206.321 280.295 207.918 280.225 209.619L279.381 212.292V212.29Z" fill="#B03537"/>
<path d="M274.548 203.648C278.362 212.428 287.093 218.823 296.493 220.305C299.241 220.738 301.971 220.768 304.728 220.389C305.422 220.295 305.804 219.404 305.636 218.791C305.43 218.041 304.735 217.783 304.037 217.886C302.095 218.151 299.579 218.136 297.646 217.869C295.448 217.567 293.293 216.981 291.234 216.162C287.229 214.568 283.531 211.917 280.681 208.594C279.112 206.765 277.778 204.61 276.793 202.336C276.514 201.691 275.569 201.546 275.017 201.868C274.351 202.256 274.273 202.999 274.55 203.646L274.548 203.648Z" fill="#93674A"/>
<path d="M336.733 136.567C344.302 138.17 351.004 143.515 354.188 150.572C349.773 149.106 345.36 147.64 340.946 146.172C338.94 145.502 336.897 144.819 335.191 143.565C334.46 143.028 333.794 142.362 333.271 141.614C332.2 140.067 332.742 137.916 334.36 136.956C335.078 136.536 335.922 136.395 336.733 136.565V136.567Z" fill="#141515"/>
<path d="M220.014 295.562C241.854 313.914 277.831 312.096 297.714 291.643C299.984 298.263 302.255 304.885 304.525 311.508C305.325 313.837 306.188 316.267 308.009 317.926C310.584 320.272 314.39 320.496 317.874 320.595C335.375 321.101 352.873 321.601 370.374 322.109C380.774 322.404 391.29 322.725 401.335 325.459C422.008 331.086 438.659 346.382 452.333 362.885C474.535 389.674 491.209 421.022 501.013 454.41C506.373 472.658 509.244 493.854 498.366 509.45C493.824 515.965 487.296 520.802 480.647 525.148C462.475 537.018 442.487 546.095 421.588 551.953C403.11 557.134 384.027 559.799 365.014 562.446C341.325 565.745 317.633 569.045 293.944 572.346C279.52 574.352 277.816 587.363 263.268 588.109C248.861 588.844 221.683 577.34 207.274 576.673C163.055 574.621 -94.5662 721.427 37.1133 440.548C57.7504 396.536 86.6587 356.341 122.62 323.63C128.914 317.901 135.523 312.322 143.269 308.79C166.561 298.173 195.262 307.91 218.649 297.495L220.014 295.562Z" fill="#EFA02A"/>
<path d="M157.676 342.53C157.676 345.916 154.935 348.665 151.545 348.665C148.155 348.665 145.416 345.916 145.416 342.53C145.416 339.145 148.157 336.395 151.545 336.395C154.935 336.395 157.676 339.144 157.676 342.53Z" fill="white"/>
<path d="M208.874 389.461C208.874 392.847 206.129 395.592 202.742 395.592C199.352 395.592 196.607 392.847 196.607 389.461C196.607 386.07 199.352 383.325 202.742 383.325C206.127 383.325 208.874 386.07 208.874 389.461Z" fill="white"/>
<path d="M247.803 341.465C247.803 344.848 245.055 347.596 241.672 347.596C238.282 347.596 235.535 344.848 235.535 341.465C235.535 338.075 238.284 335.328 241.672 335.328C245.055 335.328 247.803 338.077 247.803 341.465Z" fill="white"/>
<path d="M366.727 389.461C366.727 392.847 363.978 395.592 360.598 395.592C357.208 395.592 354.459 392.847 354.459 389.461C354.459 386.07 357.208 383.325 360.598 383.325C363.98 383.325 366.727 386.07 366.727 389.461Z" fill="white"/>
<path d="M385.927 343.596C385.927 346.981 383.178 349.726 379.788 349.726C376.405 349.726 373.658 346.981 373.658 343.596C373.658 340.206 376.407 337.461 379.788 337.461C383.178 337.461 385.927 340.206 385.927 343.596Z" fill="white"/>
<path d="M430.722 375.594C430.722 378.98 427.977 381.725 424.587 381.725C421.202 381.725 418.457 378.98 418.457 375.594C418.457 372.204 421.202 369.459 424.587 369.459C427.977 369.459 430.722 372.204 430.722 375.594Z" fill="white"/>
<path d="M138.479 463.583C138.479 466.973 135.734 469.722 132.344 469.722C128.959 469.722 126.212 466.973 126.212 463.583C126.212 460.2 128.957 457.453 132.344 457.453C135.734 457.453 138.479 460.202 138.479 463.583Z" fill="white"/>
<path d="M110.75 409.721C110.75 413.112 108.005 415.86 104.62 415.86C101.234 415.86 98.4851 413.112 98.4851 409.721C98.4851 406.339 101.234 403.592 104.62 403.592C108.005 403.592 110.75 406.341 110.75 409.721Z" fill="white"/>
<path d="M58.4863 495.579C58.4863 498.97 55.7413 501.716 52.3511 501.716C48.9667 501.716 46.2217 498.968 46.2217 495.579C46.2217 492.197 48.9667 489.448 52.3511 489.448C55.7413 489.448 58.4863 492.197 58.4863 495.579Z" fill="white"/>
<path d="M117.148 549.977C117.148 553.363 114.403 556.112 111.017 556.112C107.626 556.112 104.881 553.363 104.881 549.977C104.881 546.592 107.626 543.842 111.017 543.842C114.403 543.842 117.148 546.591 117.148 549.977Z" fill="white"/>
<path d="M215.277 515.316C215.277 518.703 212.532 521.448 209.142 521.448C205.755 521.448 203.01 518.703 203.01 515.316C203.01 511.926 205.755 509.181 209.142 509.181C212.532 509.181 215.277 511.926 215.277 515.316Z" fill="white"/>
<path d="M196.606 453.454C196.606 456.84 193.861 459.585 190.475 459.585C187.085 459.585 184.34 456.84 184.34 453.454C184.34 450.063 187.085 447.318 190.475 447.318C193.861 447.318 196.606 450.063 196.606 453.454Z" fill="white"/>
<path d="M287.269 544.112C287.269 547.498 284.524 550.247 281.134 550.247C277.749 550.247 275.004 547.498 275.004 544.112C275.004 540.727 277.749 537.977 281.134 537.977C284.524 537.977 287.269 540.725 287.269 544.112Z" fill="white"/>
<path d="M293.667 489.184C293.667 492.569 290.918 495.314 287.536 495.314C284.145 495.314 281.398 492.569 281.398 489.184C281.398 485.794 284.147 483.049 287.536 483.049C290.918 483.049 293.667 485.794 293.667 489.184Z" fill="white"/>
<path d="M267.003 441.19C267.003 444.572 264.254 447.319 260.868 447.319C257.481 447.319 254.732 444.57 254.732 441.19C254.732 437.799 257.481 435.051 260.868 435.051C264.252 435.051 267.003 437.799 267.003 441.19Z" fill="white"/>
<path d="M309.665 383.058C309.665 386.448 306.92 389.19 303.533 389.19C300.143 389.19 297.396 386.448 297.396 383.058C297.396 379.674 300.145 376.929 303.533 376.929C306.92 376.929 309.665 379.674 309.665 383.058Z" fill="white"/>
<path d="M326.199 343.596C326.199 346.981 323.45 349.726 320.063 349.726C316.679 349.726 313.928 346.981 313.928 343.596C313.928 340.206 316.677 337.461 320.063 337.461C323.45 337.461 326.199 340.206 326.199 343.596Z" fill="white"/>
<path d="M416.321 434.254C416.321 437.638 413.576 440.383 410.192 440.383C406.802 440.383 404.057 437.638 404.057 434.254C404.057 430.864 406.802 428.119 410.192 428.119C413.576 428.119 416.321 430.864 416.321 434.254Z" fill="white"/>
<path d="M471.785 409.721C471.785 413.112 469.036 415.86 465.65 415.86C462.265 415.86 459.515 413.112 459.515 409.721C459.515 406.339 462.263 403.592 465.65 403.592C469.036 403.592 471.785 406.341 471.785 409.721Z" fill="white"/>
<path d="M493.65 476.388C493.65 479.771 490.901 482.518 487.511 482.518C484.13 482.518 481.382 479.769 481.382 476.388C481.382 472.998 484.13 470.249 487.511 470.249C490.901 470.249 493.65 472.998 493.65 476.388Z" fill="white"/>
<path d="M360.325 469.985C360.325 473.375 357.58 476.116 354.196 476.116C350.806 476.116 348.064 473.375 348.064 469.985C348.064 466.594 350.806 463.855 354.196 463.855C357.58 463.855 360.325 466.596 360.325 469.985Z" fill="white"/>
<path d="M373.123 538.249C373.123 541.631 370.382 544.378 366.994 544.378C363.607 544.378 360.862 541.63 360.862 538.249C360.862 534.859 363.607 532.11 366.994 532.11C370.384 532.11 373.123 534.859 373.123 538.249Z" fill="white"/>
<path d="M429.655 508.917C429.655 512.302 426.91 515.047 423.52 515.047C420.134 515.047 417.389 512.302 417.389 508.917C417.389 505.527 420.134 502.782 423.52 502.782C426.91 502.782 429.655 505.527 429.655 508.917Z" fill="white"/>
<path d="M499.516 532.378C499.516 535.768 496.771 538.513 493.38 538.513C489.996 538.513 487.251 535.768 487.251 532.378C487.251 528.993 489.996 526.248 493.38 526.248C496.771 526.248 499.516 528.993 499.516 532.378Z" fill="white"/>
<path d="M449.922 579.842C449.922 583.226 447.173 585.971 443.787 585.971C440.4 585.971 437.651 583.226 437.651 579.842C437.651 576.452 440.4 573.71 443.787 573.71C447.171 573.71 449.922 576.452 449.922 579.842Z" fill="white"/>
<path d="M46.223 585.708C46.223 589.098 43.4742 591.838 40.0878 591.838C36.7015 591.838 33.9526 589.097 33.9526 585.708C33.9526 582.318 36.7015 579.577 40.0878 579.577C43.4723 579.577 46.223 582.318 46.223 585.708Z" fill="white"/>
<path d="M201.754 430.448C220.719 413.513 249.648 410.017 273.374 419.157C290.235 425.653 301.967 432.699 310.829 444.672C318.067 454.449 330.702 458.57 342.239 454.703L362.04 448.073C345.38 434.396 365.828 418.18 373.906 419.814L386.457 469.791C369.14 474.616 352.58 482.147 337.545 492.01C333.476 494.683 328.156 494.238 324.487 491.029C317.044 484.504 306.91 481.017 297.035 481.933C281.825 483.338 269.339 493.919 256.089 501.517C242.839 509.114 224.741 513.42 213.28 503.328C204.738 495.799 203.318 483.231 202.474 471.873C201.512 458.891 200.548 445.91 199.584 432.924L201.752 430.45L201.754 430.448Z" fill="#663304"/>
<path d="M20.6025 565.393C21.8223 578.744 21.1561 592.977 33.9095 597.136C46.6571 601.302 72.5474 596.558 85.7188 594.04C90.5865 593.109 95.5439 591.969 99.6786 589.249C106.726 584.599 110.21 576.198 112.718 568.14C115.026 560.743 116.859 553.196 118.197 545.566C95.2098 549.994 71.9652 553.071 48.6232 554.789L20.6025 565.393Z" fill="#B77115"/>
<path d="M125.237 322.409C107.515 354.881 92.9249 389.746 88.92 426.518C84.919 463.295 92.4114 502.349 115.125 531.552C140.453 564.106 184.128 581.307 224.849 574.767C249.162 570.86 292.702 561.365 307.533 541.713C322.365 522.057 307.5 492.038 298.54 469.104C290.457 448.423 272.472 433.457 254.681 420.168C250.697 417.195 246.555 414.097 244.266 409.692C242.397 406.089 241.945 401.945 241.525 397.912C239.856 381.841 238.182 365.774 236.51 349.699C236.241 347.12 235.735 344.155 233.488 342.859C231.324 341.607 228.607 342.523 226.257 343.367C199.915 352.826 169.384 349.783 145.433 335.306L125.239 322.411L125.237 322.409Z" fill="#A05204"/>
<path d="M196.941 371.201C200.538 398.437 210.117 425.639 228.772 445.801C247.432 465.966 276.17 477.954 303 472.057C290.29 454.814 277.401 437.38 260.825 423.82C255.088 419.126 248.915 414.901 243.881 409.459C231.032 395.568 227.281 375.796 224.067 357.151L196.943 371.203L196.941 371.201Z" fill="white"/>
<path d="M230.076 358.187C239.266 353.081 248.052 347.243 256.328 340.751C261.98 336.315 267.624 331.241 269.957 324.445C272.593 316.771 270.551 308.37 268.422 300.544C261.774 276.076 251.805 248.801 228.332 239.205C212.035 232.543 193.508 236.453 176.57 241.276C163.83 244.901 150.787 249.242 141.024 258.199C136.399 262.437 132.665 267.589 129.752 273.14C115.745 299.788 123.027 335.816 146.285 354.932C169.545 374.048 206.299 374.22 229.733 355.32L230.076 358.187Z" fill="#A05204"/>
<path d="M249.205 255.015C245.475 236.283 241.741 217.551 238.013 198.819C221.604 207.789 207.99 221.785 199.478 238.438C217.204 241.002 234.332 247.585 249.212 257.554L249.205 255.015Z" fill="#A05204"/>
<path d="M145.87 258.499C124.124 253.328 99.2221 253.137 81.6545 266.957C95.8605 280.247 110.067 293.537 124.273 306.83C129.287 289.807 136.946 273.57 146.891 258.867C147.332 258.211 147.752 257.245 147.155 256.727C146.557 256.21 146.049 257.913 146.738 257.514L145.87 258.499Z" fill="#A05204"/>
<path d="M200.875 235.603C195.189 241.586 192.547 251.258 191.587 259.449C190.619 267.648 193.774 276.604 200.673 281.134C205.025 283.988 210.324 284.87 215.311 286.349C225.884 289.485 235.564 295.59 242.948 303.781C246.431 307.645 249.535 312.304 249.655 317.508C249.854 326.102 242.195 332.59 235.083 337.414C222.246 346.122 208.29 354.119 192.877 355.888C181.893 357.152 168.688 353.628 164.874 343.25C161.953 335.305 165.714 326.459 170.553 319.509C175.39 312.56 181.481 306.202 184.035 298.129C187.41 287.447 183.709 275.333 176.321 266.911C168.934 258.489 158.964 255.349 148.083 252.669C163.549 242.538 181.815 236.42 200.877 235.603H200.875Z" fill="white"/>
<path d="M198.157 306.317C198.254 309.87 198.512 313.84 202.017 315.795C203.719 316.745 205.939 316.312 207.001 314.676C208.942 311.694 204.903 308.69 206.84 305.689C207.486 304.685 208.6 304.086 209.786 303.946C211.263 303.78 212.613 304.179 213.888 304.799C216.612 306.128 219.838 303.866 219.338 300.875C219.208 300.1 218.922 299.357 218.469 298.727C216.658 296.221 213.35 295.312 210.271 295.077C203.286 294.545 196.13 296.692 190.594 300.984C188.28 302.78 186.089 305.315 186.282 308.241C186.474 311.168 190.447 313.525 192.474 311.406C194.152 309.661 194.299 305.691 196.679 306.134L198.161 306.317H198.157Z" fill="#141515"/>
<path d="M237.314 314.386C237.499 318.955 234.21 323.153 230.056 324.905C224.954 327.049 219.019 325.753 214.336 323.187C213.008 322.46 211.679 321.714 210.15 321.544C208.89 321.403 207.615 321.731 206.537 322.372C204.339 323.68 202.944 325.974 201.579 328.057C198.867 332.182 195.1 336.09 190.219 337.47C185.726 338.737 180.127 337.325 177.817 333.053C177.021 331.579 174.778 332.888 175.576 334.364C177.985 338.821 183.361 340.915 188.249 340.452C193.781 339.923 198.466 336.37 201.825 332.123C202.694 331.027 203.484 329.886 204.252 328.712C204.926 327.683 205.569 326.717 206.399 325.833C207.178 325.005 207.945 324.396 208.97 324.163C209.379 324.073 209.959 324.087 210.509 324.239C211.175 324.424 211.777 324.747 212.378 325.073C215.073 326.547 217.868 327.75 220.913 328.25C223.936 328.752 227.092 328.681 230.014 327.685C235.558 325.795 240.162 320.446 239.91 314.387C239.881 313.689 239.333 313.091 238.61 313.091C237.932 313.091 237.283 313.685 237.314 314.387V314.386Z" fill="#141515"/>
<path d="M229.258 311.866V311.459L229.149 310.957L228.88 310.541L228.46 310.268L227.96 310.156L227.616 310.207L227.041 310.541L226.839 310.801L226.662 311.459V311.866L226.772 312.368L227.041 312.786L227.461 313.053L227.96 313.162L228.305 313.118L228.88 312.786L229.08 312.524L229.258 311.866Z" fill="#141515"/>
<path d="M220.682 313.092V312.682L220.569 312.182L220.298 311.767L219.88 311.495L219.378 311.384L219.036 311.43L218.465 311.767L218.259 312.027L218.082 312.682V313.092L218.193 313.589L218.465 314.009L218.882 314.276L219.378 314.388L219.725 314.341L220.298 314.009L220.504 313.743L220.682 313.092Z" fill="#141515"/>
<path d="M190.789 322.56H191.194L191.698 322.447L192.114 322.184L192.383 321.758L192.498 321.264L192.452 320.914L192.114 320.344L191.854 320.139L191.194 319.962H190.789L190.285 320.076L189.869 320.344L189.602 320.76L189.493 321.264L189.535 321.604L189.869 322.184L190.133 322.382L190.789 322.56Z" fill="#141515"/>
<path d="M218.165 239.209C225.098 240.012 232.29 240.904 238.219 244.594C235.667 234.509 235.807 225.205 232.783 213.885C229.788 215.836 218.165 239.209 218.165 239.209Z" fill="#BC681D"/>
<path d="M123.382 288.915C114.496 281.058 104.834 273.445 93.3516 270.471C104.834 267.219 117.44 268.099 128.365 272.913C128.365 272.913 123.226 283.809 123.382 288.915Z" fill="#BC681D"/>
<path d="M219.784 277.482C220.446 274.741 222.268 272.408 224.763 271.059C227.269 269.696 230.228 269.639 232.913 270.7C234.399 271.288 235.742 272.294 236.792 273.544C237.245 274.081 238.165 274.012 238.633 273.544C239.161 273.012 239.085 272.248 238.633 271.708C236.344 268.991 232.803 267.409 229.264 267.365C225.755 267.317 222.336 268.915 220.038 271.555C218.723 273.061 217.749 274.842 217.278 276.791C216.886 278.418 219.389 279.109 219.784 277.482Z" fill="#141515"/>
<path d="M149.386 297.745C150.052 295.008 151.873 292.675 154.364 291.323C156.874 289.962 159.829 289.901 162.515 290.963C164 291.549 165.348 292.557 166.398 293.809C166.85 294.341 167.77 294.273 168.234 293.809C168.767 293.272 168.687 292.509 168.234 291.969C165.949 289.254 162.408 287.666 158.869 287.628C155.364 287.584 151.938 289.178 149.642 291.818C148.328 293.328 147.353 295.105 146.883 297.058C146.492 298.68 148.994 299.375 149.386 297.745Z" fill="#141515"/>
<path d="M135.799 283.402C133.901 285.553 135.327 289.025 138.196 289.102L138.257 289.105C140.355 289.126 142.27 287.979 143.99 286.78C149.609 282.877 154.552 278.005 158.547 272.452C159.774 270.744 160.962 268.831 160.609 266.647C160.439 265.601 159.83 264.645 158.889 264.156C157.367 263.374 156.014 264.181 154.828 264.988C148.586 269.228 139.504 279.206 135.799 283.402Z" fill="#663304"/>
<path d="M232.429 246.004C235.296 246.021 236.94 249.396 235.085 251.587L235.048 251.635C233.666 253.214 231.536 253.876 229.493 254.365C222.841 255.951 215.913 256.4 209.112 255.676C207.016 255.455 204.804 255.064 203.406 253.347C202.738 252.523 202.433 251.433 202.696 250.404C203.124 248.753 204.626 248.277 206.018 247.934C213.344 246.101 226.836 245.975 232.431 246.004H232.429Z" fill="#663304"/>
<path d="M19.5604 562.586C19.402 572.537 25.4913 581.318 34.2436 583.643C53.5769 588.77 73.6872 591.208 90.9016 581.281C101.374 575.245 109.448 565.254 117.279 555.477C143.385 522.879 197.155 450.468 206.113 445.526C220.023 437.853 248.985 430.219 262.916 422.6C261.631 425.361 260.719 428.329 260.204 431.379C259.554 435.211 262.525 438.675 266.012 438.122C274.547 436.774 282.163 428.268 284.763 418.725C287.993 406.869 285.592 394.141 283.177 382.054C281.196 372.143 278.914 361.627 272.302 354.594C270.994 344.244 258.9 339.516 249.873 342.61C240.845 345.714 191.672 382.458 184.575 389.355C147.258 425.626 29.4218 500.693 19.8028 547.704L19.5604 562.584V562.586Z" fill="#FBC9A4"/>
<path d="M163.366 371.499C176.108 368.573 188.855 365.644 201.599 362.722C207.799 361.296 214.4 359.895 220.4 362.012C225.119 363.676 228.849 367.332 232.136 371.108C239.204 379.234 245.013 388.389 250.222 397.807C250.61 398.514 251.009 399.264 250.965 400.06C250.889 401.432 249.589 402.381 248.377 403.03C240.073 407.48 229.601 407.61 221.188 403.366C212.776 399.127 206.66 390.624 205.306 381.299C190.333 393.789 172.668 403.038 153.875 408.23C155.583 398.332 157.296 388.429 159.01 378.53L163.366 371.501V371.499Z" fill="#A05204"/>
<path d="M215.235 468.384C235.861 453.523 265.002 453.071 287.641 464.637C303.726 472.861 314.662 481.096 322.223 493.925C328.4 504.413 340.531 509.826 352.418 507.184L372.797 502.662C357.661 487.315 379.692 473.33 387.553 475.796L394.812 526.808C377.083 529.803 359.828 535.56 343.851 543.799C339.517 546.03 334.272 545.034 330.964 541.453C324.242 534.188 314.53 529.662 304.611 529.538C289.336 529.35 275.816 538.565 261.844 544.74C247.873 550.91 229.422 553.303 219.076 542.064C211.369 533.688 211.268 521.035 211.619 509.655C212.018 496.64 212.419 483.629 212.814 470.618L215.233 468.382L215.235 468.384Z" fill="#A05204"/>
<path d="M260.106 183.148L260.906 183.297C261.486 181.924 261.826 180.321 261.826 178.593C261.826 173.611 259.048 169.578 255.616 169.578C252.186 169.578 249.403 173.611 249.403 178.593C249.403 180.871 249.993 182.948 250.953 184.536C253.751 183.182 257.023 182.682 260.108 183.15L260.106 183.148Z" fill="#141515"/>
<path d="M273.382 136.567C265.817 138.17 259.107 143.515 255.925 150.572C260.338 149.106 264.758 147.64 269.167 146.172C271.173 145.502 273.22 144.819 274.922 143.565C275.653 143.028 276.324 142.362 276.845 141.614C277.916 140.067 277.373 137.916 275.751 136.956C275.037 136.536 274.189 136.395 273.382 136.565V136.567Z" fill="#141515"/>
<path d="M222.58 387.704C228.203 392.293 231.985 398.814 233.168 405.968C233.285 406.659 234.142 407.049 234.766 406.873C235.505 406.675 235.791 405.972 235.675 405.277C234.697 399.388 231.987 393.841 228.052 389.361C226.941 388.097 225.72 386.927 224.416 385.862C223.876 385.421 223.112 385.333 222.58 385.862C222.123 386.322 222.038 387.255 222.58 387.702V387.704Z" fill="#663304"/>
<path d="M233.454 383.491C237.625 388.666 241.064 394.483 243.586 400.635C243.849 401.282 244.447 401.742 245.18 401.544C245.797 401.374 246.36 400.599 246.089 399.944C243.384 393.347 239.766 387.212 235.292 381.653C234.849 381.111 233.912 381.197 233.456 381.653C232.915 382.197 233.015 382.947 233.456 383.493L233.454 383.491Z" fill="#663304"/>
<path d="M225.834 363.612C219.831 360.795 213.32 359.474 206.709 359.228C200.007 358.978 193.301 359.764 186.692 360.818C179.996 361.885 173.363 363.284 166.678 364.363C159.407 365.54 152.069 366.308 144.71 366.684C137.313 367.064 129.893 367.043 122.494 366.623C121.578 366.567 120.662 366.514 119.749 366.449C119.043 366.399 118.446 367.079 118.446 367.749C118.446 368.492 119.043 368.994 119.749 369.045C127.068 369.559 134.419 369.683 141.751 369.413C149.167 369.135 156.566 368.455 163.91 367.398C170.652 366.424 177.325 365.042 184.041 363.882C190.545 362.755 197.113 361.824 203.726 361.782C210.095 361.742 216.467 362.593 222.417 364.939C223.131 365.222 223.83 365.529 224.521 365.855C225.155 366.151 225.922 366.033 226.298 365.388C226.623 364.826 226.468 363.91 225.831 363.612H225.834Z" fill="#663304"/>
<path d="M203.644 379.57C198.796 383.829 193.617 387.689 188.169 391.14C182.675 394.612 176.92 397.665 170.968 400.28C165.063 402.87 158.955 405.003 152.734 406.682C146.517 408.36 140.17 409.595 133.769 410.319C127.317 411.05 120.802 411.29 114.31 411.016C113.51 410.979 112.706 410.935 111.908 410.888C111.206 410.844 110.608 411.514 110.608 412.188C110.608 412.926 111.202 413.444 111.908 413.484C118.452 413.885 125.028 413.774 131.56 413.15C138.173 412.516 144.738 411.39 151.18 409.771C157.542 408.169 163.79 406.091 169.841 403.563C175.942 401.011 181.856 398.033 187.512 394.601C193.159 391.167 198.544 387.296 203.591 383.035C204.228 382.499 204.858 381.956 205.482 381.409C206.007 380.945 205.954 380.044 205.482 379.568C204.958 379.047 204.171 379.105 203.646 379.568L203.644 379.57Z" fill="#663304"/>
<path d="M126.029 326.912C129.024 332.942 132.961 338.5 137.595 343.378C142.23 348.251 147.596 352.466 153.437 355.799C156.761 357.691 160.252 359.292 163.848 360.602C164.505 360.836 165.269 360.329 165.446 359.693C165.645 358.973 165.2 358.336 164.538 358.097C158.454 355.885 152.712 352.708 147.541 348.805C142.398 344.932 137.79 340.253 133.997 335.045C131.832 332.064 129.912 328.906 128.272 325.604C127.957 324.978 127.07 324.8 126.495 325.14C125.854 325.51 125.716 326.285 126.031 326.915L126.029 326.912Z" fill="#663304"/>
<path d="M376.502 495.843C375.294 490.451 378.425 484.123 383.607 481.964C384.256 481.693 384.718 481.103 384.516 480.364C384.346 479.753 383.567 479.188 382.918 479.459C377.798 481.592 374.34 486.473 373.723 491.953C373.553 493.484 373.662 495.034 373.998 496.538C374.151 497.22 374.939 497.624 375.596 497.443C376.298 497.248 376.657 496.534 376.5 495.845L376.502 495.843Z" fill="#663304"/>
<path d="M382.466 499.354C382.313 494.729 385.094 490.319 389.385 488.422C390.023 488.137 390.176 487.202 389.853 486.644C389.462 485.986 388.715 485.894 388.07 486.181C383.04 488.412 379.684 493.871 379.868 499.354C379.917 501.02 382.517 501.03 382.464 499.354H382.466Z" fill="#663304"/>
<path d="M179.157 501.439C184.853 491.738 192.71 483.421 201.768 476.778C210.972 470.03 221.322 464.902 232.138 461.31C234.814 460.422 237.523 459.63 240.257 458.924C240.799 458.782 241.343 458.637 241.9 458.548L242.167 458.508H242.146L242.864 458.431C245.529 458.166 248.224 458.156 250.899 458.204C259.252 458.357 267.382 459.242 275.501 461.006C284.047 462.864 292.702 465.597 299.707 470.973C300.249 471.393 301.164 472.164 301.811 472.769C303.031 473.907 304.875 472.074 303.647 470.934C297.079 464.818 288.235 461.501 279.672 459.328C271.133 457.156 262.289 456.03 253.491 455.686C250.423 455.568 247.335 455.532 244.267 455.722C243.235 455.787 242.204 455.881 241.184 456.047C239.197 456.377 237.231 457.032 235.303 457.601C224.128 460.903 213.337 465.763 203.665 472.282C194.058 478.753 185.548 486.883 179.136 496.563C178.361 497.732 177.622 498.925 176.912 500.131C176.064 501.58 178.309 502.886 179.153 501.442L179.157 501.439Z" fill="#663304"/>
<path d="M249.769 504.829C251.949 506.279 254.125 507.736 256.305 509.189C256.874 509.57 257.768 509.316 258.082 508.721C258.426 508.07 258.22 507.348 257.615 506.946C255.435 505.495 253.259 504.038 251.079 502.586C250.514 502.206 249.62 502.46 249.305 503.053C248.958 503.704 249.164 504.426 249.769 504.829Z" fill="#663304"/>
<path d="M259.545 499.432C261.728 500.877 263.908 502.322 266.094 503.767C266.659 504.143 267.554 503.897 267.869 503.3C268.213 502.649 268.01 501.923 267.402 501.524C265.222 500.079 263.038 498.634 260.854 497.191C260.285 496.815 259.392 497.061 259.077 497.659C258.731 498.306 258.936 499.031 259.545 499.432Z" fill="#663304"/>
<path d="M272.259 496.044C272.998 496.758 273.736 497.47 274.475 498.182C274.721 498.421 275.054 498.566 275.395 498.566L276.315 498.182C276.542 497.936 276.709 497.614 276.695 497.266C276.68 496.922 276.565 496.592 276.315 496.346C275.577 495.636 274.838 494.924 274.099 494.206C273.853 493.973 273.519 493.83 273.179 493.83L272.259 494.206C272.03 494.456 271.864 494.783 271.883 495.126C271.892 495.468 272.009 495.804 272.259 496.046V496.044Z" fill="#663304"/>
<path d="M243.314 484.01C245.11 485.132 246.906 486.247 248.703 487.37C249.277 487.729 250.159 487.511 250.48 486.902C250.816 486.264 250.627 485.509 250.012 485.129C248.216 484.006 246.42 482.888 244.62 481.767C244.043 481.408 243.167 481.626 242.844 482.235C242.508 482.872 242.695 483.628 243.312 484.01H243.314Z" fill="#663304"/>
<path d="M284.955 522.313C285.531 522.437 286.1 522.591 286.661 522.792L287.114 522.958L287.308 523.038L287.293 523.03L288.118 523.429C288.639 523.702 289.147 524.008 289.628 524.349L289.979 524.599L289.971 524.592L290.134 524.725L290.861 525.363C291.357 525.827 292.212 525.888 292.701 525.363C293.157 524.855 293.226 524.023 292.701 523.527C290.731 521.684 288.278 520.369 285.638 519.812C284.976 519.671 284.205 520.005 284.042 520.717C283.893 521.368 284.241 522.162 284.951 522.313H284.955Z" fill="#663304"/>
<path d="M118.588 391.087C119.319 392.536 120.045 393.992 120.768 395.443C121.075 396.052 121.984 396.271 122.545 395.907C123.168 395.508 123.337 394.78 123.013 394.131C122.286 392.675 121.56 391.228 120.837 389.775C120.531 389.168 119.619 388.947 119.054 389.308C118.432 389.71 118.264 390.43 118.586 391.085L118.588 391.087Z" fill="#663304"/>
<path d="M129.69 390.256C130.05 390.622 130.413 390.983 130.78 391.346L131.196 391.613L131.7 391.726L132.196 391.613L132.616 391.346L132.818 391.084L132.994 390.426L132.948 390.086L132.614 389.509C132.251 389.147 131.887 388.782 131.524 388.423L131.108 388.152L130.61 388.04L130.106 388.152L129.69 388.423L129.487 388.685L129.31 389.336L129.358 389.683L129.692 390.256H129.69Z" fill="#663304"/>
<path d="M207.515 379.577C211.147 377.401 214.778 375.221 218.407 373.041C219.839 372.182 218.535 369.937 217.099 370.8C213.467 372.98 209.834 375.156 206.207 377.336C204.774 378.195 206.081 380.44 207.515 379.577Z" fill="#663304"/>
<path d="M296.789 486.056C298.929 487.566 301.068 489.072 303.21 490.582C303.764 490.977 304.676 490.702 304.984 490.118C305.339 489.451 305.112 488.76 304.516 488.341C302.376 486.831 300.24 485.324 298.102 483.815C297.541 483.423 296.628 483.698 296.325 484.282C295.974 484.948 296.195 485.639 296.789 486.058V486.056Z" fill="#663304"/>
<path d="M304.919 501.511C306.404 502.935 307.885 504.35 309.365 505.774C309.857 506.245 310.722 506.295 311.205 505.774C311.672 505.264 311.726 504.437 311.205 503.939C309.72 502.515 308.238 501.097 306.753 499.677C306.264 499.205 305.396 499.152 304.919 499.677C304.451 500.186 304.394 501.009 304.919 501.511Z" fill="#663304"/>
<path d="M259.153 293.029C260.659 295.879 261.665 299.009 262.053 302.216C262.137 302.911 262.589 303.513 263.353 303.513C263.99 303.513 264.737 302.915 264.649 302.216C264.204 298.534 263.127 295.003 261.392 291.714C261.062 291.097 260.205 290.906 259.619 291.25C258.989 291.616 258.823 292.405 259.151 293.029H259.153Z" fill="#663304"/>
<path d="M255.77 299.254C256.14 300.34 256.509 301.43 256.881 302.516L257.478 303.295L258.475 303.424L259.254 302.827C259.414 302.525 259.5 302.153 259.383 301.825C259.015 300.739 258.645 299.653 258.276 298.566L257.679 297.788L256.677 297.658L255.901 298.255C255.743 298.557 255.659 298.929 255.772 299.255L255.77 299.254Z" fill="#663304"/>
<path d="M138.959 328.062C140.125 330.568 141.288 333.073 142.448 335.579C142.735 336.2 143.674 336.402 144.227 336.047C144.861 335.633 144.999 334.93 144.691 334.268C143.529 331.761 142.366 329.257 141.204 326.747C140.914 326.128 139.976 325.928 139.421 326.279C138.787 326.691 138.65 327.398 138.957 328.062H138.959Z" fill="#663304"/>
<path d="M145.823 328.992C146.548 330.082 147.276 331.172 148.003 332.261C148.188 332.544 148.444 332.764 148.774 332.859L149.776 332.729C150.055 332.552 150.298 332.284 150.374 331.954C150.446 331.624 150.435 331.24 150.244 330.952C149.517 329.866 148.788 328.776 148.064 327.686C147.877 327.403 147.623 327.178 147.289 327.088L146.289 327.218C146.01 327.396 145.764 327.663 145.691 327.993C145.615 328.325 145.626 328.703 145.821 328.992H145.823Z" fill="#663304"/>
<path d="M124.126 293.49C123.916 285.614 126.293 277.832 130.825 271.397C131.229 270.824 130.93 269.956 130.357 269.62C129.712 269.24 128.988 269.515 128.584 270.087C124.85 275.388 122.55 281.592 121.775 288.012C121.561 289.829 121.479 291.658 121.524 293.49C121.572 295.157 124.164 295.164 124.124 293.49H124.126Z" fill="#663304"/>
<path d="M212.549 243.08C219.885 241.527 227.73 242.389 234.545 245.539C235.183 245.833 235.946 245.717 236.322 245.071C236.649 244.51 236.496 243.586 235.855 243.294C228.37 239.835 219.929 238.869 211.856 240.576C211.173 240.721 210.774 241.527 210.947 242.176C211.146 242.886 211.856 243.225 212.547 243.08H212.549Z" fill="#663304"/>
<path d="M156.492 249.366C158.954 244.368 161.421 239.371 163.883 234.373C165.452 231.195 168.069 227.457 171.544 228.188C170.438 233.041 169.335 237.889 168.23 242.742C170.77 235.471 175.984 229.169 182.65 225.313C182.02 229.981 180.309 234.501 177.704 238.418C180.019 233.921 183.86 230.223 188.445 228.079C190.165 227.28 192.352 226.736 193.851 227.902C195.223 228.973 195.361 231.092 194.634 232.674C193.908 234.253 192.53 235.423 191.198 236.534C188.054 239.153 184.915 241.77 181.775 244.389L156.496 249.364L156.492 249.366Z" fill="white"/>
<path d="M427.375 613.916C439.455 613.544 451.492 611.712 463.138 608.474C470.344 606.472 477.499 603.883 483.59 599.544C489.682 595.211 494.66 588.942 496.195 581.62C497.632 574.75 495.822 567.265 491.403 561.807C483.575 552.146 469.224 549.684 461.514 539.927L427.373 613.916H427.375Z" fill="#B77115"/>
<path d="M482.37 596.394C471.195 609.59 357.885 631.18 258.517 629.141C217.428 628.297 131.787 561.034 135.603 545.556C137.232 538.94 174.155 582.778 174.155 582.778C174.155 582.778 139.015 538.386 134.687 525.74C133.754 523.016 137.146 520.888 139.253 522.85C150.225 533.091 168.097 560.369 174.216 568.774C164.811 556.886 138.805 530.302 131.675 513.275C130.686 510.921 133.177 508.596 135.474 509.713C152.337 517.921 180.369 543.766 189.843 560.438C180.338 548.904 157.143 526.568 155.536 511.729C155.303 509.637 157.418 508.104 159.367 508.907C176.864 516.102 218.573 558.708 235.965 568.772C231.978 561.289 222.832 534.454 224.755 533.106C231.334 528.489 257.693 569.616 259.829 574.3C263.062 581.371 338.412 552.529 382.718 539.744C405.552 533.154 429.627 532.801 452.875 537.737C509.715 549.807 493.829 582.864 482.37 596.39V596.394Z" fill="#FBC9A4"/>
<path d="M134.208 523.156C141.094 528.066 147.179 534.004 152.912 540.204C159.022 546.809 164.848 553.677 170.764 560.458C174.284 564.499 177.808 568.538 181.33 572.574C181.793 573.106 182.694 573.049 183.162 572.574C183.691 572.052 183.626 571.27 183.162 570.739C176.876 563.529 170.59 556.319 164.3 549.109C158.652 542.631 153 536.142 146.752 530.228C143.215 526.882 139.485 523.742 135.52 520.907C134.947 520.503 134.075 520.81 133.743 521.375C133.363 522.032 133.638 522.744 134.21 523.158L134.208 523.156Z" fill="#93674A"/>
<path d="M174.127 586.127C179.187 577.747 184.809 569.701 190.981 562.1C192.737 559.933 194.541 557.801 196.379 555.705C196.843 555.176 196.896 554.39 196.379 553.869C195.907 553.399 195.01 553.34 194.543 553.869C187.938 561.392 181.846 569.367 176.351 577.732C174.816 580.065 173.329 582.43 171.886 584.816C171.021 586.249 173.266 587.561 174.127 586.127Z" fill="#93674A"/>
<path d="M161.437 529.93C167.807 538.194 174.704 546.042 182.12 553.381C184.206 555.441 186.329 557.462 188.482 559.444C189 559.917 189.807 559.954 190.317 559.444C190.798 558.961 190.838 558.081 190.317 557.607C182.763 550.672 175.666 543.241 169.096 535.369C167.246 533.149 165.438 530.904 163.674 528.615C163.245 528.064 162.559 527.764 161.897 528.151C161.355 528.47 160.998 529.367 161.433 529.929L161.437 529.93Z" fill="#93674A"/>
<path d="M152.338 561.111C158.019 566.376 163.856 571.467 169.85 576.382C171.524 577.755 173.206 579.106 174.901 580.452C175.453 580.885 176.205 580.985 176.737 580.452C177.19 580 177.287 579.055 176.737 578.616C170.694 573.811 164.776 568.85 159.023 563.698C157.394 562.237 155.778 560.764 154.174 559.275C152.951 558.141 151.107 559.974 152.34 561.111H152.338Z" fill="#93674A"/>
<path d="M150.662 567.28C145.462 562.655 140.743 557.484 136.669 551.843C135.667 550.457 134.638 549.05 133.774 547.577C133.451 547.029 133.079 546.361 133.155 545.719C133.22 545.169 133.651 544.799 134.035 544.654C135.201 544.213 136.562 544.944 137.511 545.748C138.832 546.87 140.012 548.185 141.241 549.415C144.334 552.515 147.422 555.619 150.515 558.725C151.698 559.912 153.502 558.098 152.355 556.884C147.77 552.061 143.862 546.634 140.728 540.766C139.178 537.87 137.82 534.879 136.679 531.8C135.455 528.501 134.524 525.118 133.619 521.719C132.852 518.836 132.088 515.958 131.319 513.075C131.221 512.703 131.112 512.325 131.017 511.949L130.939 511.464L130.971 510.994L131.03 510.817L131.055 510.758L131.088 510.668L131.244 510.491L131.403 510.405L131.363 510.412L131.559 510.347L131.683 510.311L132.014 510.29L132.414 510.305L132.592 510.323L132.607 510.33L133.401 510.527L133.835 510.672L134.02 510.748C134.249 510.836 133.756 510.622 134.14 510.796C135.57 511.458 136.326 512.182 137.54 513.157C143.652 518.082 149.77 523.011 155.88 527.936C156.634 528.541 157.387 529.15 158.144 529.757C158.648 530.164 159.311 530.29 159.851 529.858C160.324 529.482 160.557 528.724 160.183 528.182C158.028 525.046 156.625 521.493 156.012 517.739C155.716 515.906 155.651 514.022 155.762 512.168C155.783 511.806 155.802 511.304 155.856 511.006L155.945 510.647L156.184 510.311L156.709 510.032L156.76 510.017L157.039 510.021L157.385 510.13C159.198 510.796 160.941 511.785 162.584 512.787C164.255 513.808 165.851 514.931 167.404 516.114C170.514 518.487 173.4 521.135 176.386 523.65C182.487 528.803 188.86 533.622 195.276 538.37C201.807 543.201 208.392 547.943 214.856 552.858C221.123 557.621 227.281 562.548 233.078 567.881C233.777 568.523 234.468 569.176 235.161 569.827C236.369 570.982 238.211 569.149 236.997 567.99C231.041 562.327 224.66 557.134 218.149 552.129C211.509 547.019 204.718 542.123 197.977 537.156C191.416 532.319 184.89 527.415 178.644 522.171C172.314 516.855 166.257 511.017 158.507 507.799C157.619 507.432 156.696 507.278 155.762 507.602C154.899 507.898 154.128 508.519 153.704 509.334C153.227 510.258 153.208 511.334 153.151 512.35C153.099 513.352 153.103 514.356 153.16 515.36C153.403 519.418 154.504 523.41 156.419 526.999C156.879 527.858 157.387 528.69 157.94 529.494C158.616 528.965 159.301 528.444 159.979 527.919C153.613 522.791 147.246 517.662 140.88 512.531C138.408 510.54 136.007 508.143 132.708 507.74C131.485 507.587 130.149 507.849 129.286 508.797C128.32 509.851 128.182 511.34 128.53 512.68C129.312 515.736 130.152 518.781 130.96 521.831C131.651 524.412 132.325 527.006 133.155 529.547C134.245 532.912 135.574 536.2 137.114 539.384C140.17 545.698 144.122 551.587 148.781 556.835C149.348 557.476 149.932 558.106 150.518 558.728C151.129 558.117 151.746 557.505 152.359 556.888C149.388 553.912 146.424 550.932 143.461 547.955C142.11 546.601 140.812 545.152 139.351 543.91C137.994 542.758 136.31 541.806 134.463 541.943C132.416 542.096 130.672 543.602 130.563 545.717C130.465 547.615 131.769 549.298 132.771 550.783C134.944 553.989 137.305 557.069 139.832 559.996C142.625 563.233 145.633 566.278 148.827 569.117C149.352 569.584 150.15 569.636 150.667 569.117C151.143 568.643 151.188 567.748 150.667 567.282L150.662 567.28Z" fill="#93674A"/>
<path d="M280.483 564.727C285.658 572.212 289.499 580.565 291.892 589.341C294.286 598.11 295.243 607.261 294.674 616.336C294.359 621.416 293.551 626.461 292.261 631.39C292.051 632.197 293.303 632.545 293.515 631.733C295.85 622.8 296.615 613.471 295.844 604.274C295.073 595.098 292.813 586.073 289.138 577.628C287.074 572.876 284.553 568.331 281.605 564.071C281.134 563.389 280.011 564.038 280.483 564.727Z" fill="#2F3866"/>
<path d="M304.747 607.726C304.425 613.164 299.754 617.314 294.313 616.992C288.875 616.669 284.725 611.998 285.048 606.56C285.37 601.121 290.041 596.969 295.48 597.292C300.918 597.615 305.07 602.286 304.747 607.726Z" fill="#6B74B5"/>
<path d="M293.365 565.382C293.04 570.82 288.371 574.966 282.933 574.646C277.494 574.323 273.348 569.652 273.669 564.213C273.991 558.775 278.662 554.629 284.101 554.95C289.536 555.272 293.685 559.943 293.365 565.382Z" fill="#6B74B5"/>
<path d="M302.316 585.676C301.993 591.114 297.322 595.264 291.883 594.942C286.445 594.621 282.293 589.948 282.616 584.51C282.938 579.071 287.609 574.919 293.05 575.242C298.488 575.568 302.638 580.236 302.316 585.676Z" fill="#6B74B5"/>
<path d="M303.452 629.549C303.13 634.987 298.462 639.139 293.018 638.817C287.58 638.494 283.434 633.823 283.754 628.385C284.081 622.946 288.748 618.798 294.188 619.121C299.627 619.439 303.773 624.111 303.452 629.549Z" fill="#6B74B5"/>
<path d="M292.193 301.241C293.327 306.408 294.461 311.572 295.595 316.735C295.742 317.42 296.544 317.818 297.195 317.644C297.897 317.449 298.252 316.731 298.1 316.044C296.962 310.881 295.834 305.717 294.696 300.552C294.547 299.864 293.755 299.465 293.102 299.647C292.396 299.843 292.041 300.555 292.193 301.241Z" fill="#B77115"/>
<path d="M286.101 303.26C286.808 309.155 287.894 314.992 289.398 320.736C289.826 322.351 292.33 321.668 291.904 320.049C290.459 314.53 289.377 308.92 288.699 303.26C288.619 302.565 288.163 301.964 287.403 301.964C286.766 301.964 286.019 302.562 286.103 303.26H286.101Z" fill="#B77115"/>
<path d="M280.212 308.533C281.283 313.44 282.356 318.346 283.429 323.25C283.578 323.939 284.377 324.336 285.027 324.155C285.737 323.962 286.084 323.246 285.931 322.561C284.859 317.657 283.791 312.747 282.719 307.844C282.572 307.156 281.77 306.757 281.119 306.939C280.413 307.132 280.061 307.847 280.214 308.533H280.212Z" fill="#B77115"/>
<path d="M273.13 309.829C272.996 316 274.316 322.12 276.896 327.719C277.19 328.357 278.11 328.515 278.674 328.187C279.328 327.803 279.433 327.045 279.137 326.41C276.751 321.231 275.606 315.527 275.726 309.831C275.762 308.159 273.166 308.159 273.13 309.831V309.829Z" fill="#B77115"/>
<path d="M270.813 337.587C279.229 336.964 287.456 334.265 294.59 329.747C296.621 328.464 298.551 327.023 300.383 325.473C300.92 325.02 300.851 324.104 300.383 323.638C299.851 323.106 299.083 323.182 298.547 323.638C292.5 328.762 285.179 332.326 277.444 334.021C275.257 334.502 273.048 334.824 270.813 334.99C270.114 335.042 269.513 335.552 269.513 336.29C269.513 336.953 270.11 337.642 270.813 337.587Z" fill="#B77115"/>
<path d="M261.702 424.504C267.079 422.023 272.768 420.226 278.584 419.108C279.271 418.978 279.666 418.152 279.489 417.514C279.29 416.794 278.584 416.474 277.895 416.605C271.847 417.764 265.981 419.684 260.394 422.261C259.757 422.555 259.598 423.475 259.926 424.039C260.306 424.69 261.062 424.798 261.7 424.502L261.702 424.504Z" fill="#93674A"/>
<path d="M256.173 342.576C259.968 340.27 265.237 341.747 268.226 345.042C271.21 348.333 272.271 352.968 272.372 357.415C278.689 357.78 283.388 365.368 280.905 371.184C280.485 372.158 279.901 373.122 279.937 374.179C280.01 376.102 281.972 377.276 283.381 378.587C287.233 382.159 287.24 389.05 283.396 392.635C290.142 397.059 291.927 407.49 287.034 413.905C286.693 414.35 286.315 414.789 285.795 415.005C284.69 415.473 283.451 414.766 282.514 414.008C277.257 409.79 274.182 403.492 271.274 397.409C264.653 383.565 258.029 369.716 251.405 355.869L256.173 342.576Z" fill="#FBC9A4"/>
<path d="M275.36 395.46C277.484 394.761 279.611 394.055 281.735 393.352C282.381 393.138 282.869 392.447 282.644 391.751C282.438 391.113 281.735 390.617 281.048 390.846C278.922 391.552 276.797 392.251 274.667 392.955C274.022 393.169 273.541 393.86 273.762 394.555C273.972 395.196 274.667 395.689 275.36 395.46Z" fill="#93674A"/>
<path d="M273.143 378.763C275.334 377.692 277.516 376.619 279.707 375.549C280.32 375.247 280.53 374.329 280.171 373.769C279.767 373.143 279.049 372.985 278.394 373.302C276.21 374.378 274.019 375.449 271.835 376.518C271.224 376.82 271.007 377.734 271.367 378.301C271.768 378.924 272.49 379.084 273.143 378.765V378.763Z" fill="#93674A"/>
<path d="M266.986 362.711L267.276 362.284L267.431 362.074L267.45 362.053L268.097 361.316L268.807 360.64L269.2 360.31L269.225 360.291L269.435 360.138C269.964 359.756 270.529 359.42 271.123 359.138L271.354 359.025L271.375 359.014L271.858 358.829C272.18 358.71 272.509 358.607 272.843 358.525C273.501 358.351 273.965 357.588 273.747 356.925C273.534 356.252 272.856 355.832 272.153 356.017C269.109 356.82 266.457 358.769 264.741 361.398C264.367 361.965 264.608 362.856 265.209 363.175C265.854 363.515 266.589 363.316 266.982 362.707L266.986 362.711Z" fill="#93674A"/>
<path d="M254.053 353.644C258.268 358.497 261.889 363.849 264.867 369.549C267.829 375.221 270.124 381.224 271.714 387.424C272.607 390.916 273.283 394.468 273.703 398.049C273.787 398.744 274.241 399.345 275.003 399.345C275.644 399.345 276.387 398.746 276.299 398.049C275.524 391.437 274.005 384.929 271.72 378.672C269.419 372.399 266.419 366.386 262.735 360.812C260.656 357.663 258.363 354.654 255.891 351.806C255.431 351.281 254.526 351.335 254.055 351.806C253.526 352.335 253.591 353.117 254.055 353.646L254.053 353.644Z" fill="#93674A"/>
<path d="M401.064 344.614C404.631 367.595 406.987 390.756 408.132 413.98C409.278 437.087 409.226 460.248 407.976 483.351C407.27 496.356 406.183 509.333 404.723 522.271C404.647 522.978 405.38 523.564 406.023 523.571C406.79 523.579 407.243 522.966 407.323 522.271C408.623 510.719 409.633 499.136 410.333 487.533C411.032 475.927 411.433 464.302 411.528 452.679C411.622 440.993 411.416 429.31 410.902 417.637C410.391 406.023 409.579 394.421 408.465 382.849C407.354 371.28 405.933 359.738 404.219 348.237C404.009 346.8 403.788 345.363 403.568 343.923C403.456 343.228 402.591 342.856 401.969 343.018C401.23 343.213 400.959 343.923 401.064 344.614Z" fill="#B77115"/>
<path d="M467.253 484.651C467.253 488.19 467.253 491.731 467.253 495.268C467.253 496.942 469.849 496.946 469.849 495.268C469.849 491.731 469.849 488.19 469.849 484.651C469.849 482.977 467.253 482.977 467.253 484.651Z" fill="#B77115"/>
<path d="M480.32 492.003C480.32 494.183 480.32 496.359 480.32 498.539C480.32 499.217 480.918 499.868 481.62 499.839C482.327 499.806 482.92 499.266 482.92 498.539C482.92 496.359 482.92 494.183 482.92 492.003C482.92 491.327 482.323 490.674 481.62 490.707C480.918 490.737 480.32 491.276 480.32 492.003Z" fill="#B77115"/>
<path d="M489.309 500.986C489.309 503.166 489.309 505.346 489.309 507.522C489.309 508.207 489.906 508.856 490.609 508.826C491.311 508.793 491.905 508.249 491.905 507.522C491.905 505.346 491.905 503.166 491.905 500.986C491.905 500.308 491.307 499.657 490.609 499.69C489.906 499.722 489.309 500.263 489.309 500.986Z" fill="#B77115"/>
<path d="M475.52 451.495C475.821 453.397 476.119 455.294 476.415 457.199C476.52 457.873 477.396 458.304 478.013 458.108C478.744 457.869 479.038 457.228 478.921 456.508C478.62 454.607 478.324 452.702 478.022 450.801C477.917 450.131 477.045 449.695 476.428 449.896C475.697 450.134 475.407 450.772 475.52 451.497V451.495Z" fill="#B77115"/>
<path d="M460.621 443.398C459.701 445.704 459.531 448.243 460.005 450.673C460.135 451.339 460.969 451.784 461.602 451.578C462.313 451.345 462.649 450.698 462.507 449.98L462.429 449.516C462.36 449.137 462.45 449.782 462.41 449.394L462.341 448.575C462.32 448.047 462.334 447.518 462.385 446.989L462.429 446.579L462.45 446.46L462.616 445.653C462.746 445.12 462.918 444.599 463.124 444.093C463.374 443.459 462.849 442.637 462.215 442.494C461.465 442.324 460.89 442.725 460.621 443.398Z" fill="#B77115"/>
<path d="M507.266 487.105C513.422 490.381 519.382 494.008 525.118 497.969C525.695 498.368 526.563 498.078 526.894 497.505C527.273 496.86 527.01 496.125 526.43 495.722C520.693 491.763 514.734 488.14 508.578 484.863C507.957 484.538 507.165 484.706 506.802 485.326C506.459 485.916 506.646 486.775 507.266 487.104V487.105Z" fill="#EFA02A"/>
<path d="M514.033 498.017C517.13 500.653 520.705 502.627 524.597 503.81C526.201 504.301 526.882 501.791 525.288 501.304C521.841 500.254 518.615 498.517 515.87 496.18C515.337 495.724 514.554 495.659 514.033 496.18C513.569 496.648 513.497 497.561 514.033 498.017Z" fill="#EFA02A"/>
<path d="M32.461 432.546C36.0535 429.673 40.3581 427.777 44.8707 426.93C45.5579 426.8 45.9531 425.97 45.7755 425.332C45.577 424.609 44.8707 424.296 44.1778 424.423C39.207 425.361 34.5703 427.556 30.6246 430.706C30.0768 431.145 30.1684 432.086 30.6246 432.546C31.1668 433.088 31.9131 432.985 32.4591 432.546H32.461Z" fill="#EFA02A"/>
<path d="M30.4628 446.493C34.3742 443.894 38.6864 442.017 43.2601 440.935C44.8826 440.553 44.1973 438.048 42.5652 438.432C37.7987 439.562 33.2288 441.536 29.1476 444.251C28.5692 444.638 28.3153 445.396 28.6837 446.028C29.0235 446.604 29.8711 446.883 30.4609 446.492L30.4628 446.493Z" fill="#EFA02A"/>
<path d="M352.845 324.361C355.861 320.241 359.364 316.481 363.22 313.135C363.749 312.678 363.691 311.774 363.22 311.302C362.695 310.773 361.916 310.838 361.38 311.302C357.348 314.793 353.75 318.745 350.6 323.049C350.188 323.618 350.501 324.498 351.068 324.827C351.723 325.21 352.429 324.928 352.845 324.359V324.361Z" fill="#EFA02A"/>
<path d="M362.396 322.928C364.315 321.309 366.235 319.694 368.153 318.079C368.678 317.64 368.642 316.688 368.153 316.239C367.6 315.728 366.876 315.772 366.321 316.239C364.399 317.858 362.478 319.473 360.556 321.092C360.035 321.531 360.071 322.481 360.556 322.926C361.11 323.434 361.833 323.394 362.396 322.926V322.928Z" fill="#EFA02A"/>
<path d="M46.9004 454.318C43.2869 458.82 41.7216 464.567 42.5367 470.281C42.6379 470.975 43.5217 471.355 44.1364 471.189C44.8827 470.983 45.1443 470.288 45.0412 469.592C44.3712 464.896 45.7647 459.847 48.7349 456.153C49.1778 455.605 49.2713 454.849 48.7349 454.317C48.2787 453.86 47.3414 453.763 46.9004 454.317V454.318Z" fill="#B77115"/>
<path d="M53.9571 459.805C53.3271 461.96 52.6934 464.114 52.0634 466.269C51.8763 466.916 52.2963 467.71 52.9721 467.863C53.6669 468.021 54.3655 467.653 54.5679 466.958C55.2016 464.803 55.8278 462.653 56.4596 460.498C56.6524 459.847 56.2325 459.053 55.551 458.897C54.86 458.738 54.1575 459.107 53.9571 459.805Z" fill="#B77115"/>
<path d="M63.9313 457.959C64.0496 458.283 64.1527 458.617 64.2348 458.955L64.3398 459.469L64.3837 459.722V459.766C64.4085 460.114 64.4314 460.457 64.4219 460.809L64.4047 461.328L64.3799 461.591L64.3722 461.675L64.357 461.759L64.3093 462.021L64.1966 462.529C64.1126 462.87 63.9981 463.195 63.8855 463.525L63.8702 463.577L63.7614 463.815L63.5266 464.283L62.9768 465.165C62.5817 465.718 62.8566 466.631 63.4407 466.94C64.1107 467.295 64.7979 467.068 65.2198 466.472C67.0657 463.857 67.541 460.28 66.4319 457.271C66.201 456.634 65.5424 456.138 64.838 456.367C64.2119 456.569 63.6755 457.279 63.9294 457.964L63.9313 457.959Z" fill="#B77115"/>
<path d="M75.2945 399.032C73.7655 401.444 72.8893 404.199 72.666 407.041C72.6106 407.717 73.3035 408.366 73.9659 408.341C74.7161 408.305 75.2086 407.765 75.2659 407.041L75.3098 406.53L75.3384 406.274L75.3461 406.238L75.5045 405.356C75.6286 404.747 75.7908 404.146 75.9893 403.56C76.2146 402.878 76.3368 402.586 76.6002 402.025C76.8789 401.446 77.1939 400.887 77.5375 400.349C77.9002 399.769 77.6749 398.888 77.0698 398.566C76.4284 398.234 75.6839 398.421 75.2926 399.034L75.2945 399.032Z" fill="#B77115"/>
<path d="M63.7252 427.936C62.1026 432.271 61.0298 436.765 60.4514 441.359C60.3617 442.056 61.1119 442.655 61.7476 442.655C62.5226 442.655 62.9578 442.054 63.0475 441.359C63.5973 437.011 64.6911 432.727 66.2258 428.623C66.4721 427.965 65.951 427.203 65.321 427.029C64.5899 426.827 63.9676 427.275 63.7252 427.934V427.936Z" fill="#B77115"/>
<path d="M381.689 377.81C380.538 380.042 379.889 382.472 379.777 384.976C379.748 385.662 380.395 386.309 381.077 386.28C381.806 386.244 382.34 385.708 382.373 384.976L382.432 384.161L382.48 383.694L382.497 383.577C382.585 383.035 382.695 382.501 382.838 381.97C382.98 381.445 383.146 380.92 383.346 380.412L383.472 380.086L383.573 379.855L383.932 379.118C384.247 378.513 384.11 377.681 383.468 377.345C382.871 377.03 382.023 377.163 381.691 377.808L381.689 377.81Z" fill="#B77115"/>
<path d="M391.391 381.381C391.053 383.279 390.713 385.168 390.373 387.066C390.257 387.728 390.554 388.497 391.282 388.664C391.916 388.805 392.748 388.469 392.881 387.755C393.215 385.861 393.555 383.968 393.895 382.074C394.013 381.406 393.714 380.64 392.99 380.472C392.356 380.331 391.52 380.669 391.391 381.381Z" fill="#B77115"/>
<path d="M364.997 361.715C364.258 364.456 363.515 367.201 362.777 369.946C362.599 370.603 363 371.383 363.685 371.544C364.371 371.7 365.094 371.341 365.279 370.635C366.026 367.894 366.764 365.149 367.503 362.404C367.681 361.747 367.282 360.967 366.598 360.81C365.911 360.655 365.188 361.012 364.999 361.715H364.997Z" fill="#B77115"/>
<path d="M345.313 396.423C345.389 398.874 345.469 401.323 345.54 403.771C345.563 404.448 346.122 405.103 346.84 405.071C347.525 405.038 348.161 404.498 348.14 403.771C348.063 401.322 347.985 398.874 347.909 396.423C347.886 395.746 347.327 395.095 346.609 395.127C345.924 395.16 345.292 395.7 345.313 396.423Z" fill="#B77115"/>
<path d="M364.659 441.746C363.218 436.999 365.354 431.433 369.382 428.569C370.642 427.676 371.783 427.147 373.246 426.796C374.872 426.408 374.181 423.902 372.555 424.293C366.532 425.735 362.226 431.423 361.655 437.461C361.496 439.123 361.67 440.84 362.155 442.443C362.636 444.037 365.146 443.352 364.661 441.748L364.659 441.746Z" fill="#A05204"/>
<path d="M374.328 433.196C370.291 436.838 368.596 442.741 370.001 447.983C370.434 449.594 372.941 448.912 372.507 447.292C371.333 442.937 372.769 438.096 376.165 435.038C376.69 434.567 376.646 433.675 376.165 433.198C375.651 432.679 374.853 432.727 374.328 433.198V433.196Z" fill="#A05204"/>
<path d="M325.594 462.627C326.279 465.723 326.963 468.819 327.652 471.912C327.805 472.601 328.601 472.998 329.25 472.82C329.956 472.624 330.307 471.908 330.154 471.222C329.469 468.126 328.782 465.03 328.097 461.934C327.944 461.252 327.152 460.848 326.499 461.029C325.793 461.226 325.441 461.938 325.594 462.627Z" fill="#A05204"/>
<path d="M411.797 521.424C411.446 524.683 411.102 527.943 410.755 531.201C410.682 531.904 411.404 532.501 412.051 532.501C412.814 532.501 413.274 531.904 413.351 531.201C413.698 527.943 414.046 524.683 414.393 521.424C414.465 520.725 413.742 520.128 413.097 520.128C412.331 520.128 411.871 520.725 411.797 521.424Z" fill="#B77115"/>
<path d="M427.321 519.447C426.255 523.54 425.194 527.63 424.131 531.723C423.711 533.34 426.217 534.029 426.637 532.41C427.702 528.318 428.764 524.227 429.827 520.138C430.247 518.519 427.74 517.828 427.321 519.447Z" fill="#B77115"/>
<path d="M437.377 521.676C438.124 524.715 437.408 527.934 435.466 530.484C435.043 531.037 435.379 531.933 435.934 532.259C436.604 532.65 437.286 532.353 437.707 531.791C440.025 528.752 440.79 524.679 439.88 520.989C439.714 520.308 438.946 519.899 438.286 520.084C437.587 520.277 437.209 520.997 437.377 521.678V521.676Z" fill="#B77115"/>
<path d="M451.348 524.399C450.795 527.54 449.668 530.418 447.943 533.091C447.559 533.679 447.819 534.522 448.41 534.866C449.036 535.234 449.8 534.99 450.184 534.398C452.005 531.585 453.265 528.397 453.853 525.094C453.977 524.403 453.667 523.691 452.944 523.493C452.322 523.319 451.47 523.707 451.348 524.398V524.399Z" fill="#B77115"/>
<path d="M461.818 526.839C461.066 530.08 459.416 532.888 456.956 535.135C456.435 535.608 456.473 536.492 456.956 536.975C457.469 537.489 458.269 537.449 458.79 536.975C461.528 534.48 463.484 531.142 464.32 527.534C464.479 526.848 464.106 526.125 463.412 525.934C462.755 525.753 461.978 526.155 461.818 526.839Z" fill="#B77115"/>
<path d="M470.609 531.698C470.476 532.27 470.314 532.836 470.117 533.393L469.964 533.805L469.88 534.011V534.004L469.481 534.851C469.216 535.376 468.92 535.882 468.59 536.377L468.078 537.092L467.941 537.262L467.622 537.646C467.177 538.156 467.08 538.982 467.622 539.478C468.111 539.927 468.983 540.028 469.456 539.478C471.22 537.444 472.501 535.017 473.11 532.385C473.267 531.73 472.904 530.951 472.205 530.791C471.539 530.638 470.768 530.99 470.606 531.696L470.609 531.698Z" fill="#B77115"/>
<path d="M479.1 534.218C478.489 536.939 477.583 539.567 476.414 542.001C476.12 542.61 476.225 543.427 476.882 543.776C477.46 544.084 478.342 543.963 478.657 543.309C479.95 540.628 480.952 537.815 481.608 534.915C481.755 534.253 481.406 533.472 480.7 533.314C480.041 533.161 479.262 533.512 479.102 534.218H479.1Z" fill="#B77115"/>
<path d="M491.717 556.828C493.918 556.07 496.117 555.318 498.318 554.56C498.96 554.338 499.448 553.659 499.227 552.962C499.017 552.326 498.314 551.822 497.627 552.057C495.428 552.809 493.227 553.567 491.028 554.323C490.387 554.544 489.898 555.224 490.123 555.921C490.33 556.555 491.032 557.064 491.717 556.826V556.828Z" fill="#B77115"/>
<path d="M497.481 568.403C499.669 567.599 501.848 566.795 504.032 565.992C504.67 565.757 505.17 565.1 504.941 564.394C504.739 563.768 504.025 563.235 503.339 563.485C501.159 564.289 498.972 565.096 496.792 565.896C496.154 566.131 495.654 566.788 495.887 567.496C496.089 568.118 496.799 568.651 497.481 568.401V568.403Z" fill="#B77115"/>
<path d="M498.733 578.645C500.659 578.858 502.713 578.326 504.299 577.219C504.582 577.022 504.807 576.783 504.897 576.44L504.767 575.44C504.408 574.89 503.587 574.559 502.992 574.976C502.652 575.21 502.297 575.417 501.923 575.592L501.776 575.665L501.854 575.628L501.547 575.741L500.957 575.919L500.356 576.047L500.192 576.071L500.293 576.054L500.006 576.079C499.579 576.11 499.155 576.098 498.733 576.047L497.817 576.426L497.437 577.343C497.452 577.681 497.561 578.032 497.817 578.263C498.084 578.513 498.37 578.603 498.733 578.646V578.645Z" fill="#B77115"/>
<path d="M483.256 545.614C484.12 545.702 485.008 545.469 485.773 545.072C486.529 544.68 487.192 544.031 487.608 543.289C487.774 542.987 487.829 542.619 487.738 542.29L487.14 541.512C486.529 541.189 485.718 541.346 485.365 541.979L485.103 542.371L485.312 542.109L484.712 542.703L484.974 542.5L484.202 542.951L484.514 542.821L483.655 543.056L484.002 543.008L483.252 543.016L482.332 543.398L481.95 544.318C481.965 544.654 482.074 545.001 482.332 545.234C482.599 545.484 482.889 545.578 483.252 545.618L483.256 545.614Z" fill="#B77115"/>
<path d="M16.5975 594.398C19.0562 592.775 21.5187 591.157 23.9773 589.536C24.5424 589.162 24.8363 588.37 24.4412 587.757C24.0785 587.192 23.2729 586.892 22.664 587.289C20.2092 588.916 17.7505 590.534 15.288 592.157C14.723 592.529 14.429 593.323 14.8204 593.93C15.1907 594.499 15.9886 594.799 16.5975 594.398Z" fill="#B77115"/>
<path d="M11.559 579.512C12.964 578.479 14.3651 577.451 15.7739 576.42C16.0526 576.214 16.274 575.988 16.3676 575.645L16.2378 574.643C15.8903 574.102 15.0504 573.744 14.4625 574.175C13.0575 575.206 11.6526 576.238 10.2476 577.271C9.96512 577.477 9.7475 577.695 9.65015 578.046L9.78377 579.046C10.1274 579.589 10.9749 579.94 11.559 579.514V579.512Z" fill="#B77115"/>
<path d="M7.53511 562.411L8.14596 562.075L8.08106 562.1L8.28722 562.024L8.62319 561.923L8.96678 561.839L9.14049 561.81L9.0546 561.82L9.80479 561.787L10.1598 561.804L10.3336 561.825L10.2496 561.818L10.9349 561.986L11.267 562.104L11.2384 562.095L11.3968 562.173L12.0344 562.564C12.588 562.963 13.5042 562.684 13.8097 562.096C14.1685 561.43 13.9356 560.745 13.3458 560.321C11.3033 558.855 8.33112 558.819 6.21797 560.167C5.64531 560.531 5.3647 561.335 5.75029 561.94C6.12444 562.516 6.92045 562.799 7.53321 562.408L7.53511 562.411Z" fill="#B77115"/>
<path d="M6.97235 547.231C8.60637 547.272 10.2423 547.304 11.8763 547.34C12.554 547.355 13.2049 546.731 13.1724 546.044C13.14 545.326 12.6036 544.759 11.8763 544.744C10.2423 544.708 8.60637 544.672 6.97235 544.637C6.2966 544.622 5.64376 545.244 5.67621 545.937C5.70866 546.655 6.24506 547.22 6.97235 547.233V547.231Z" fill="#B77115"/>
<path d="M10.7134 534.101C12.0764 534.643 13.4374 535.191 14.7985 535.735L15.8007 535.605L16.3981 534.83C16.4707 534.498 16.4535 534.124 16.2683 533.832C16.0736 533.527 15.8236 533.364 15.4895 533.235C14.1266 532.687 12.7655 532.145 11.4045 531.601L10.4023 531.73L9.80481 532.505C9.73227 532.836 9.74945 533.21 9.93843 533.504C10.1293 533.809 10.3832 533.971 10.7115 534.101H10.7134Z" fill="#B77115"/>
<path d="M16.2023 520.779C17.8192 521.89 19.4436 523.002 21.0624 524.11C21.6236 524.497 22.5246 524.234 22.8357 523.642C23.187 522.987 22.9694 522.277 22.3719 521.867C20.7531 520.756 19.1344 519.647 17.5118 518.536C16.9506 518.152 16.0477 518.412 15.7366 519.003C15.3853 519.662 15.6029 520.368 16.2004 520.779H16.2023Z" fill="#B77115"/>
<path d="M24.0283 513.345C24.8472 514.16 25.6623 514.979 26.4793 515.794C26.716 516.033 27.0673 516.178 27.3994 516.178L28.3157 515.794C28.5429 515.548 28.7108 515.221 28.6956 514.878C28.6803 514.534 28.5658 514.208 28.3157 513.961C27.4968 513.142 26.6817 512.324 25.8647 511.508C25.6318 511.27 25.2825 511.125 24.9484 511.125L24.0283 511.508C23.8031 511.755 23.6351 512.081 23.6484 512.429C23.6656 512.768 23.7821 513.095 24.0283 513.345Z" fill="#B77115"/>
<path d="M30.2329 507.052C30.775 508.413 31.3229 509.776 31.8669 511.137L32.4644 511.916L33.4647 512.046L34.2435 511.448L34.3733 510.448C33.8274 509.085 33.2833 507.724 32.7374 506.363L32.1399 505.584L31.1396 505.454L30.3646 506.052L30.2348 507.052H30.2329Z" fill="#B77115"/>
<path d="M31.189 596.262C30.4865 599.028 30.1353 601.886 30.1468 604.74C30.1506 605.421 30.7404 606.072 31.4429 606.04C32.1416 606.007 32.7429 605.467 32.739 604.74C32.7314 602.031 33.033 599.561 33.6916 596.949C33.8576 596.295 33.4816 595.512 32.7868 595.354C32.1129 595.201 31.3704 595.56 31.1909 596.262H31.189Z" fill="#B77115"/>
<path d="M43.591 599.323C44.051 602.333 44.5187 605.342 44.9825 608.346C45.0913 609.037 45.9599 609.427 46.5822 609.255C47.3209 609.049 47.5958 608.352 47.487 607.657C47.0232 604.645 46.5555 601.638 46.0935 598.63C45.9847 597.939 45.1123 597.555 44.4958 597.725C43.7532 597.927 43.4783 598.628 43.591 599.323Z" fill="#B77115"/>
<path d="M53.3662 600.637C53.5991 604.081 55.0327 607.347 57.4513 609.813C57.9266 610.302 58.8161 610.327 59.2876 609.813C59.7667 609.296 59.7954 608.498 59.2876 607.977L58.568 607.187L58.3981 606.977C58.1308 606.643 58.4591 607.063 58.3141 606.868L58.0067 606.435C57.5944 605.822 57.2279 605.179 56.9244 604.505L56.8175 604.262L56.7946 604.197L56.6075 603.699C56.4911 603.363 56.3899 603.018 56.2964 602.674C56.2047 602.304 56.1227 601.932 56.0635 601.559L56.0348 601.401L56.0158 601.241L55.9661 600.639C55.9184 599.965 55.4011 599.305 54.6662 599.343C54.0038 599.368 53.3185 599.916 53.37 600.639L53.3662 600.637Z" fill="#B77115"/>
<path d="M66.1899 601C66.8466 603.749 68.4176 606.307 70.5976 608.113C71.1187 608.544 71.9319 608.66 72.4301 608.113C72.873 607.633 72.9913 606.736 72.4301 606.276C71.9529 605.871 71.4966 605.44 71.0805 604.969L70.7751 604.613L70.609 604.407L70.6243 604.423L70.0669 603.6L69.5992 602.787L69.393 602.363L69.3014 602.174L69.2441 602.04L69.2117 601.953L69.1182 601.71L68.9635 601.265L68.6982 600.309C68.5398 599.65 67.7495 599.192 67.1005 599.4C66.4094 599.626 66.0258 600.292 66.1918 601H66.1899Z" fill="#B77115"/>
<path d="M81.9165 598.816C83.4188 601.79 86.0225 604.052 89.1016 605.278C89.7353 605.532 90.5543 605.003 90.6993 604.369C90.8692 603.625 90.4722 603.044 89.7907 602.775L89.7391 602.754L89.512 602.657L89.0233 602.418L88.086 601.878L87.2309 601.288L87.2232 601.281L86.9961 601.088L86.5914 600.729L85.8565 599.994L85.5014 599.589L85.3449 599.396L85.3067 599.349C84.8753 598.761 84.4916 598.154 84.1652 597.505C83.8617 596.896 82.953 596.676 82.388 597.041C81.7695 597.44 81.5977 598.163 81.9203 598.814L81.9165 598.816Z" fill="#B77115"/>
<path d="M98.2017 594.753C99.62 596.666 101.384 598.277 103.474 599.443C104.064 599.775 104.915 599.606 105.249 598.976C105.574 598.365 105.415 597.554 104.782 597.202C104.325 596.948 103.879 596.666 103.453 596.366L103.159 596.156L102.964 596.011L103.037 596.066L102.418 595.553C102.035 595.213 101.672 594.858 101.321 594.484L100.788 593.879L100.561 593.596L100.59 593.636L100.445 593.444C100.235 593.165 100.021 592.944 99.6696 592.846L98.6674 592.976C98.131 593.323 97.7683 594.171 98.2036 594.753H98.2017Z" fill="#B77115"/>
<path d="M106.807 591.158C108.712 591.973 110.617 592.792 112.524 593.609C112.856 593.75 113.157 593.838 113.524 593.739L114.303 593.141C114.597 592.58 114.501 591.65 113.835 591.364C111.93 590.549 110.021 589.73 108.118 588.915C107.782 588.77 107.48 588.68 107.118 588.785L106.339 589.379C106.047 589.936 106.14 590.87 106.807 591.156V591.158Z" fill="#B77115"/>
<path d="M115.305 580.529C117.473 580.873 119.64 581.215 121.808 581.554C122.478 581.656 123.24 581.385 123.408 580.646C123.549 580.023 123.215 579.157 122.499 579.046C120.331 578.704 118.162 578.368 115.996 578.029C115.326 577.928 114.566 578.199 114.396 578.937C114.255 579.556 114.589 580.422 115.305 580.531V580.529Z" fill="#B77115"/>
<path d="M117.755 571.6C120.04 572.18 122.411 571.911 124.534 570.905C125.148 570.611 125.358 569.681 125.001 569.127C124.597 568.498 123.883 568.349 123.224 568.664L123.043 568.748L123.075 568.732L122.796 568.845L122.126 569.059L121.441 569.215L121.216 569.259L120.991 569.284C120.523 569.328 120.053 569.332 119.582 569.294L119.286 569.265L119.334 569.276L119.135 569.244L118.444 569.095C117.788 568.929 117.007 569.313 116.85 570.004C116.694 570.677 117.053 571.424 117.755 571.6Z" fill="#B77115"/>
<path d="M120.723 562.5C121.813 563.042 122.903 563.59 123.992 564.134C124.307 564.292 124.643 564.359 124.993 564.264L125.772 563.67C125.93 563.365 126.006 563 125.901 562.67L125.302 561.891C124.212 561.345 123.122 560.801 122.036 560.257C121.721 560.102 121.381 560.03 121.034 560.127L120.259 560.727C120.1 561.026 120.02 561.389 120.129 561.725L120.723 562.5Z" fill="#B77115"/>
<path d="M121.85 556.057C122.936 556.344 124.016 556.634 125.102 556.92C125.433 557.006 125.812 556.964 126.104 556.79L126.702 556.015C126.858 555.33 126.496 554.603 125.797 554.416C124.711 554.129 123.625 553.839 122.539 553.549L121.54 553.679L120.941 554.458C120.788 555.143 121.149 555.87 121.85 556.057Z" fill="#B77115"/>
<path d="M226.7 100.397C230.936 109.766 235.752 118.866 241.126 127.626C242.647 130.106 244.21 132.555 245.816 134.977C246.207 135.559 246.967 135.813 247.593 135.445C248.175 135.105 248.452 134.257 248.061 133.671C242.384 125.104 237.237 116.184 232.671 106.975C231.383 104.368 230.14 101.743 228.941 99.0917C228.651 98.4503 227.725 98.2957 227.168 98.624C226.509 99.0116 226.412 99.7617 226.7 100.397Z" fill="#EFA02A"/>
<path d="M235.422 99.7035C239.314 108.593 243.823 117.212 248.922 125.472C250.359 127.812 251.848 130.114 253.379 132.391C253.772 132.974 254.526 133.227 255.154 132.855C255.737 132.521 256.015 131.664 255.622 131.08C250.205 123.026 245.352 114.597 241.113 105.865C239.914 103.399 238.768 100.904 237.669 98.392C237.386 97.7507 236.443 97.6018 235.892 97.9282C235.229 98.3119 235.145 99.0583 235.424 99.7035H235.422Z" fill="#EFA02A"/>
<path d="M457.156 195.755C464.233 181.23 462.276 162.744 452.312 150.027C447.661 144.092 441.456 139.341 437.812 132.744C434.164 126.145 434.223 116.43 440.635 112.475C445.56 109.436 452.289 111.171 456.652 114.97C461.012 118.769 463.555 124.19 465.974 129.445C464.557 119.569 475.537 110.181 485.072 113.113C492.803 115.489 497.384 124.028 497.459 132.118C497.535 140.211 494.011 147.891 490.018 154.923C485.364 163.118 479.958 170.882 473.895 178.092L457.154 195.755H457.156Z" fill="#B03537"/>
<path d="M38.4267 129.917C40.0149 125.183 42.8878 120.128 47.7803 119.134C51.5026 118.378 55.4788 120.449 57.4851 123.675C59.4913 126.905 59.6803 131.055 58.5312 134.68C60.8257 131.334 63.2461 127.873 66.7833 125.88C70.3129 123.893 75.3104 123.866 77.9695 126.937C81.0867 130.541 79.5042 136.238 76.7707 140.149C72.6971 145.963 66.6172 150.068 62.0149 155.485C56.9315 161.471 53.7551 169.053 53.0641 176.884C53.0641 176.884 33.0932 145.799 38.4267 129.921V129.917Z" fill="#B03537"/>
</svg>
