<svg width="700" height="1007" viewBox="0 0 700 1007" fill="none" xmlns="http://www.w3.org/2000/svg">
<path d="M274.996 348.75C284.193 335.005 295.62 322.722 308.711 312.522C313.636 308.69 318.906 305.089 324.895 303.298C339.162 299.027 354.338 305.74 366.665 313.953C400.897 336.782 425.74 372.974 434.598 412.927C434.963 414.579 435.233 416.513 434.084 417.772C432.839 419.142 430.647 418.928 428.826 418.557C387.917 410.144 355.904 380.041 322.667 355.059C316.277 350.259 309.576 345.518 301.817 343.483C294.058 341.448 284.932 342.648 279.38 348.426L274.99 348.747L274.996 348.75Z" fill="#894610"/>
<path d="M302.347 327.146C303.711 333.26 305.413 339.296 307.441 345.225C307.789 346.261 307.035 347.435 306.034 347.711C304.923 348.014 303.898 347.34 303.547 346.297C301.512 340.377 299.81 334.335 298.447 328.228C298.206 327.161 298.768 326.041 299.855 325.735C300.868 325.462 302.104 326.08 302.347 327.149V327.146Z" fill="#492405"/>
<path d="M383.108 391.336C371.354 382.398 359.406 373.709 347.275 365.291C343.865 362.917 340.434 360.567 336.991 358.236C336.091 357.621 335.696 356.453 336.263 355.47C336.786 354.573 338.123 354.133 339.029 354.742C351.258 363.021 363.313 371.564 375.174 380.354C378.51 382.834 381.834 385.324 385.149 387.843C386.01 388.502 386.468 389.583 385.871 390.608C385.374 391.458 383.984 391.995 383.111 391.336H383.108Z" fill="#492405"/>
<path d="M554.731 306.302C548.633 335.006 530.32 360.974 505.183 376.536C505.938 353.295 508.112 330.095 511.718 307.119L554.731 306.302Z" fill="#663304"/>
<path d="M539.324 142.705C537.031 181.58 533.55 220.39 528.883 259.06C544.336 253.116 563.326 262.101 570.155 277.046C576.978 291.991 572.336 310.687 560.709 322.379C549.091 334.077 531.61 339.061 515.097 337.561C510.597 371.63 509.507 406.147 511.862 440.423C482.41 453.274 447.786 454.049 417.775 442.544C414.056 417.239 418.36 356.147 417.911 356.462C417.466 356.786 364.6 344.952 353.565 334.638C335.736 317.979 335.48 290.392 337.658 266.227C341.947 218.658 350.781 171.489 364.015 125.56L477.408 24.5241L554.311 98.5578L539.324 142.708V142.705Z" fill="#FAC7B2"/>
<path d="M389.285 60.2522C371.967 69.2855 359.904 106.319 363.75 125.315C368.901 150.766 372.712 167.523 393.375 183.531C381.333 157.69 380.81 126.836 391.967 100.612C392.947 122.021 404.009 142 418.621 157.818C433.245 173.636 451.315 185.857 469.218 197.929C446.541 171.456 436.884 134.553 443.716 100.517C456.157 133.968 477.809 164.015 505.713 186.558C497.797 163.646 496.436 138.563 501.831 114.954C510.751 149.712 519.672 184.478 528.592 219.248C531.771 196.25 534.949 173.265 538.121 150.276C530.891 195.802 526.361 241.744 524.558 287.783C521.965 277.437 530.449 266.369 541.009 264.221C551.563 262.08 562.726 267.608 569.148 276.169C579.248 239.153 579.438 199.539 569.713 162.425C565.848 147.695 560.364 133.181 551.426 120.8C534.735 97.6804 507.721 84.132 480.723 74.4571C443.776 61.2206 427.004 49.3178 389.288 60.2581L389.285 60.2522Z" fill="#663304"/>
<path d="M529.766 208.739C522.928 213.681 520.088 225.932 519.996 237.053C519.895 248.172 521.831 259.198 521.522 270.317C521.214 281.43 517.857 293.561 510.763 297.669C516.146 300.613 522.23 295.495 525.464 288.571C528.705 281.655 529.938 273.231 531.984 265.404C536.621 247.607 545.774 232.39 557.264 223.359C558.689 222.245 560.472 221.223 561.844 222.462L529.766 208.736V208.739Z" fill="#663304"/>
<path d="M507.836 8.69432C510.896 1.32749 520.746 -1.90144 528.193 1.13738C535.631 4.18511 540.223 12.2649 540.348 20.2288C527.62 18.286 515.158 14.662 503.392 9.46962L507.833 8.69432H507.836Z" fill="#CE8320"/>
<path d="M508.158 113.033C553.883 122.589 598.42 137.694 640.464 157.884C660.524 167.521 680.845 179.055 692.843 197.645C696.458 203.244 699.295 209.8 698.403 216.385C697.2 225.261 689.32 232.123 680.708 234.874C672.091 237.622 662.793 237.054 653.778 236.317C618.384 233.415 581.936 225.677 547.134 218.691C544.039 218.07 542.019 219.689 540.168 217.158C538.935 215.479 538.508 213.664 538.231 211.603C536.152 196.136 534.073 180.662 531.993 165.186L508.155 113.033H508.158Z" fill="#6B74B5"/>
<path d="M591.137 220.177C618.112 225.321 645.423 230.481 672.859 228.907C681.396 228.411 691.091 226.522 695.425 219.229C698.723 213.662 695.58 205.853 694.151 199.552C696.091 206.236 701.349 208.776 698.794 223.284C697.588 230.131 691.412 234.046 684.684 236.069C681.378 237.067 671.296 237.958 667.847 237.833C637.014 236.678 612.094 233.618 581.958 227.11L591.137 220.18V220.177Z" fill="#535D91"/>
<path d="M492.079 158.271C490.309 170.307 487.454 182.192 483.542 193.745C454.6 183.372 427.263 168.781 402.703 150.586L400.912 149.948C405.201 129.6 421.283 112.023 441.495 105.601C454.981 101.324 471.131 102.328 481.525 111.714C493.951 122.946 494.473 141.874 492.079 158.271ZM598.88 80.6816C578.17 38.9937 534.275 7.62227 486.857 6.35684C454.532 5.49539 422.469 18.5834 398.639 40.0036C374.798 61.4239 361.167 111.067 354.1 141.936C352.353 149.579 506.201 219.508 589.657 228.559C594.665 229.099 621.67 126.576 598.88 80.6846V80.6816Z" fill="#EFA02A"/>
<path d="M390.143 163.641C392.927 156.636 396.043 149.558 398.826 142.553C442.002 159.218 484.041 178.758 524.561 201.001L524.683 201.069C530.256 204.158 527.484 212.657 521.139 211.935C489.37 208.341 413.741 179.557 390.14 163.644L390.143 163.641Z" fill="#6B74B5"/>
<path d="M404.941 142.013C411.814 154.421 418.863 167.04 429.239 176.783C436.089 183.217 444.184 188.199 452.207 193.124C458.214 196.81 464.356 200.55 471.224 202.169C457.352 182.775 446.623 161.179 439.574 138.47C431.307 141.473 421.694 140.594 414.132 136.15L404.941 142.016V142.013Z" fill="#663304"/>
<path d="M411.022 158.879C411.097 160.356 409.947 161.612 408.453 161.686C406.959 161.761 405.687 160.62 405.613 159.15C405.536 157.667 406.682 156.411 408.182 156.331C409.677 156.262 410.942 157.403 411.022 158.879Z" fill="#EFA02A"/>
<path d="M470.38 183.519C470.458 184.989 469.311 186.252 467.811 186.326C466.317 186.4 465.051 185.26 464.971 183.783C464.894 182.307 466.044 181.051 467.541 180.97C469.035 180.902 470.303 182.037 470.38 183.519Z" fill="#EFA02A"/>
<path d="M489.473 193.299C489.547 194.779 488.398 196.032 486.903 196.109C485.412 196.184 484.138 195.049 484.064 193.567C483.987 192.084 485.136 190.828 486.633 190.757C488.121 190.682 489.396 191.82 489.473 193.299Z" fill="#EFA02A"/>
<path d="M501.13 208.912C503.046 201.994 504.962 195.072 506.878 188.157C508.185 188.401 509.492 188.647 510.805 188.891C508.155 195.765 505.815 202.76 503.786 209.827L501.13 208.912Z" fill="#EFA02A"/>
<path d="M378.674 155.407C384.125 142.17 391.15 129.513 400.59 118.677C409.82 108.072 421.422 99.4398 434.822 94.9544C447.762 90.6204 462.356 89.9491 475.334 94.4821C481.967 96.7931 488.363 100.438 493.3 105.482C496.047 108.289 498.168 111.545 499.52 115.231C500.94 119.113 501.468 123.266 501.929 127.351C503.839 144.187 502.763 161.375 498.851 177.864C498.367 179.887 497.844 181.898 497.274 183.894C496.57 186.389 492.67 185.329 493.38 182.819C497.826 167.09 499.561 150.672 498.507 134.352C498.248 130.363 497.895 126.355 497.2 122.423C496.552 118.793 495.53 115.249 493.507 112.127C489.907 106.56 483.922 102.571 477.986 99.8646C466.277 94.5266 452.583 94.3187 440.243 97.5536C427.277 100.952 415.924 108.396 406.659 118.014C397.21 127.841 390.036 139.675 384.466 152.065C383.807 153.536 383.171 155 382.568 156.482C382.152 157.489 381.226 158.211 380.082 157.89C379.122 157.629 378.246 156.42 378.668 155.404L378.674 155.407Z" fill="#CE8320"/>
<path d="M361.018 119.001C369.82 123.457 378.633 127.928 387.441 132.389C388.415 132.879 388.697 134.249 388.168 135.155C387.592 136.141 386.38 136.379 385.403 135.883C376.595 131.409 367.788 126.953 358.974 122.483C358.006 121.993 357.724 120.623 358.252 119.717C358.829 118.731 360.038 118.505 361.018 119.001Z" fill="#CE8320"/>
<path d="M504.833 168.605C515.444 173.316 526.304 177.486 537.336 181.099C548.443 184.74 559.725 187.827 571.147 190.346C577.592 191.766 584.089 193.001 590.609 194.059C591.684 194.228 592.287 195.568 592.023 196.539C591.702 197.689 590.615 198.128 589.534 197.953C577.889 196.064 566.34 193.601 554.945 190.554C543.604 187.515 532.417 183.921 521.438 179.768C515.149 177.385 508.941 174.822 502.792 172.095C501.794 171.649 501.557 170.197 502.071 169.326C502.668 168.308 503.829 168.159 504.833 168.605Z" fill="#CE8320"/>
<path d="M372.675 82.8048C382.819 89.7023 393.807 95.3611 405.347 99.5228C408.656 100.717 412.007 101.795 415.387 102.752C417.892 103.462 416.825 107.362 414.318 106.646C402.219 103.221 390.539 98.29 379.667 91.9837C376.584 90.1925 373.575 88.2913 370.634 86.2922C369.731 85.6832 369.327 84.5099 369.906 83.5296C370.429 82.6325 371.766 82.184 372.672 82.8018L372.675 82.8048Z" fill="#CE8320"/>
<path d="M507.975 136.518C517.87 141.268 527.651 145.563 538.048 149.089C549.081 152.832 560.431 155.547 571.945 157.3C579.496 158.449 587.103 159.177 594.714 159.643C595.807 159.712 596.736 160.528 596.736 161.666C596.736 162.709 595.813 163.757 594.714 163.683C581.471 162.878 568.246 161.221 555.313 158.217C544.426 155.687 533.803 152.166 523.481 147.901C517.552 145.444 511.715 142.786 505.94 140.011C504.954 139.539 504.695 138.131 505.212 137.246C505.798 136.242 506.986 136.046 507.972 136.518H507.975Z" fill="#CE8320"/>
<path d="M390.694 49.4279C404.106 55.3213 417.521 61.2237 430.989 66.9805C444.433 72.7403 457.937 78.3575 471.545 83.7223C485.159 89.0929 498.885 94.2051 512.748 98.9134C526.573 103.619 540.529 107.929 554.641 111.692C568.683 115.444 582.879 118.658 597.197 121.192C599.024 121.519 600.847 121.822 602.68 122.128C603.756 122.309 604.359 123.643 604.088 124.614C603.779 125.758 602.686 126.209 601.602 126.028C587.124 123.64 572.761 120.55 558.545 116.894C544.405 113.261 530.414 109.061 516.557 104.453C502.61 99.8134 488.798 94.7666 475.101 89.4345C461.329 84.0698 447.677 78.4348 434.084 72.6601C420.592 66.9241 407.165 61.0455 393.748 55.1461C392.051 54.4064 390.355 53.6579 388.659 52.9152C387.655 52.4756 387.426 51.0082 387.931 50.1467C388.534 49.116 389.696 48.9793 390.694 49.4249V49.4279Z" fill="#CE8320"/>
<path d="M439.026 20.8819C456.748 30.2093 475.079 38.3574 493.879 45.2489C512.664 52.1226 531.904 57.7755 551.435 62.1362C562.456 64.6047 573.562 66.6513 584.738 68.2881C585.819 68.4515 586.416 69.8149 586.151 70.7803C585.831 71.9359 584.749 72.3458 583.662 72.1884C563.656 69.2535 543.846 64.9908 524.404 59.4301C505.003 53.8841 485.983 47.0372 467.474 38.996C457.134 34.4987 446.969 29.6182 436.988 24.3663C436.025 23.8643 435.737 22.5187 436.26 21.6038C436.836 20.6235 438.063 20.3651 439.026 20.876V20.8819Z" fill="#CE8320"/>
<path d="M689.126 199.732C691.776 204.319 691.577 210.117 689.049 214.709C686.619 219.109 682.309 222.198 677.598 223.772C676.365 224.182 675.834 222.234 677.063 221.821C681.201 220.44 684.992 217.742 687.178 213.91C689.465 209.912 689.721 204.794 687.386 200.754C686.738 199.625 688.479 198.606 689.126 199.732Z" fill="#535D91"/>
<path d="M633.868 158.135C646.917 163.134 659.242 169.981 670.34 178.471C673.462 180.859 676.485 183.363 679.405 185.995C680.374 186.862 678.945 188.294 677.973 187.421C667.829 178.292 656.396 170.646 644.095 164.729C640.572 163.033 636.978 161.476 633.333 160.086C632.127 159.626 632.65 157.668 633.868 158.135Z" fill="#535D91"/>
<path d="M599.346 214.074C607.675 216.537 616.111 218.619 624.631 220.327C625.905 220.583 625.364 222.525 624.09 222.27C615.574 220.568 607.134 218.485 598.805 216.02C597.561 215.655 598.089 213.7 599.346 214.071V214.074Z" fill="#535D91"/>
<path d="M524.272 305.578C530.272 297.563 538.248 291.093 547.409 287.033C550.065 285.853 552.774 284.849 555.563 284.068C558.07 283.364 559.149 287.261 556.645 287.968C547.703 290.476 539.463 295.267 532.86 301.802C531.033 303.617 529.31 305.554 527.765 307.618C527.112 308.486 526.019 308.937 525 308.34C524.144 307.838 523.619 306.46 524.272 305.581V305.578Z" fill="#BF8271"/>
<path d="M543.246 292.959C548.02 299.384 548.617 308.313 545.082 315.437C544.592 316.417 543.211 316.681 542.316 316.164C541.318 315.579 541.105 314.379 541.589 313.393C544.521 307.494 543.674 300.266 539.753 295C539.099 294.12 539.608 292.739 540.475 292.234C541.506 291.631 542.587 292.077 543.249 292.962L543.246 292.959Z" fill="#BF8271"/>
<path d="M417.921 357.933L417.909 356.462H417.921C417.953 356.498 417.95 357.009 417.921 357.933Z" fill="#DBB9AF"/>
<path d="M418.076 379.683L417.925 357.933C417.955 357.009 417.958 356.498 417.925 356.462L480.986 360.651L418.076 379.685V379.683Z" fill="#D9A08E"/>
<path d="M423.815 211.133C415.599 217.698 408.989 225.964 404.239 235.33C399.564 244.554 396.757 254.879 396.204 265.157C395.895 271.024 396.278 276.867 397.41 282.54C396.763 282.044 396.109 281.548 395.462 281.058C403.693 281.578 411.897 282.377 420.069 283.476C421.153 283.616 422.092 284.299 422.092 285.499C422.092 286.473 421.162 287.665 420.069 287.516C411.897 286.423 403.696 285.618 395.462 285.098C394.627 285.042 393.697 284.513 393.51 283.616C391.356 272.809 391.665 261.628 394.238 250.923C396.769 240.368 401.48 230.275 408.039 221.619C411.796 216.661 416.092 212.164 420.96 208.275C421.813 207.595 422.989 207.446 423.815 208.275C424.519 208.979 424.677 210.45 423.815 211.133Z" fill="#BF8271"/>
<path d="M442.481 249.997C445.523 244.175 451.865 240.857 458.263 240.417C464.43 239.992 470.639 242.508 474.384 247.472C476.381 250.122 477.613 253.282 478.674 256.401C479.018 257.438 478.267 258.611 477.26 258.888C476.149 259.191 475.124 258.51 474.771 257.48C473.918 254.931 473.095 252.78 471.598 250.499C470.416 248.702 468.883 247.249 466.848 246.171C462.413 243.833 456.65 243.848 452.135 246.126C449.423 247.484 447.356 249.376 445.972 252.032C445.464 253 444.118 253.288 443.209 252.76C442.229 252.183 441.973 250.962 442.481 249.997Z" fill="#141515"/>
<path d="M350.939 226.464C353.981 220.642 360.326 217.324 366.715 216.884C372.891 216.468 379.102 218.981 382.848 223.939C384.844 226.591 386.077 229.752 387.132 232.877C387.476 233.908 386.725 235.081 385.718 235.357C384.613 235.666 383.582 234.992 383.231 233.949C382.376 231.407 381.553 229.25 380.053 226.975C378.871 225.172 377.341 223.722 375.303 222.641C370.874 220.303 365.108 220.324 360.596 222.596C357.884 223.954 355.82 225.858 354.432 228.501C353.924 229.47 352.579 229.764 351.667 229.229C350.686 228.653 350.431 227.438 350.939 226.467V226.464Z" fill="#141515"/>
<path d="M452.661 209.684C452.189 211.499 452.477 213.394 454.012 215.269C454.761 216.187 455.72 216.897 456.757 217.479C468.517 224.055 479.33 232.254 488.803 241.748C491.414 244.362 495.763 244.989 498.671 242.68C510.128 233.609 476.125 213.971 464.789 205.698C460.45 202.531 454.009 204.524 452.664 209.687L452.661 209.684Z" fill="#663304"/>
<path d="M408.781 195.732C407.901 197.39 406.404 198.599 403.992 198.973C402.819 199.148 401.619 199.041 400.46 198.78C387.286 195.827 373.711 194.708 360.243 195.432C356.535 195.634 352.888 193.204 352.303 189.56C349.991 175.23 388.507 183.298 402.522 184.715C407.88 185.249 411.3 191.018 408.781 195.732Z" fill="#663304"/>
<path d="M449.693 200.951C448.392 203.565 447.085 206.176 445.784 208.791L444.396 209.153L444.034 207.766C445.341 205.164 446.642 202.544 447.952 199.938L449.333 199.573L449.696 200.954L449.693 200.951Z" fill="#663304"/>
<path d="M453.697 203.315C452.586 205.89 451.472 208.475 450.349 211.053L448.968 211.412C448.451 211.109 448.395 210.539 448.609 210.031C449.722 207.456 450.833 204.874 451.95 202.293L453.335 201.928C453.849 202.234 453.917 202.807 453.697 203.315Z" fill="#663304"/>
<path d="M414.348 186.35C414.042 189.205 413.745 192.071 413.442 194.938C413.392 195.479 413.017 195.948 412.432 195.948C411.93 195.948 411.363 195.484 411.425 194.938C411.725 192.071 412.028 189.208 412.325 186.35C412.382 185.804 412.75 185.34 413.335 185.34C413.84 185.34 414.405 185.804 414.348 186.35Z" fill="#663304"/>
<path d="M418.927 188.677C418.927 190.504 418.927 192.322 418.927 194.149C418.927 194.68 418.457 195.185 417.914 195.159C417.373 195.135 416.91 194.719 416.91 194.149C416.91 192.322 416.91 190.504 416.91 188.677C416.91 188.145 417.37 187.64 417.914 187.667C418.466 187.691 418.927 188.107 418.927 188.677Z" fill="#663304"/>
<path d="M403.948 296.311C413.202 300.497 424.59 299.32 433.217 293.899C435.659 292.361 437.765 290.546 439.692 288.327C440.408 287.504 441.816 287.59 442.547 288.327C443.364 289.144 443.263 290.356 442.547 291.184C434.966 299.918 422.764 304.05 411.398 302.535C408.089 302.095 404.946 301.183 401.908 299.802C400.91 299.356 400.672 297.912 401.18 297.039C401.777 296.014 402.944 295.863 403.946 296.311H403.948Z" fill="#BF8271"/>
<path d="M161.342 655.389C177.606 743.25 206.907 780.673 202.944 949.539C202.668 961.243 221.489 963.926 232.563 967.752C273.728 981.956 318.909 971.295 362.362 974.129C402.443 976.749 440.756 990.877 479.981 999.509C519.213 1008.15 562.258 1010.79 597.687 991.863C637.875 970.389 660.359 971.589 664.8 926.239C669.241 880.894 658.315 835.55 646.121 791.646C629.243 730.866 609.792 670.842 589.281 611.2C582.772 592.284 576.05 573.175 564.967 556.519C551.178 535.782 530.795 519.034 522.213 495.654L161.345 655.392L161.342 655.389Z" fill="#D15259"/>
<path d="M403.939 394.496C438.887 407.631 479.211 405.727 512.775 389.362C520.355 402.058 520.213 418.94 530.295 429.755C535.012 434.817 541.419 437.889 547.512 441.168C591.927 465.077 626.093 505.803 646.712 551.828C667.33 597.862 675.011 648.972 674.126 699.405C673.321 745.709 664.641 793.798 636.906 830.888C591.588 812.783 542.991 802.912 494.197 801.896C495.772 779.998 496.045 758.016 495.02 736.088C494.699 729.152 494.176 721.957 490.829 715.871C488.28 711.24 484.279 707.598 480.274 704.137C453.599 681.113 423 661.968 389.128 652.29C354.468 642.377 317.821 642.683 281.768 643.067C254.202 643.358 226.624 643.646 199.055 643.94C166.857 644.276 134.369 644.593 102.808 638.213C71.2461 631.835 40.252 618.162 18.514 594.413C11.9492 587.245 6.24558 579.13 2.98992 569.978C-5.50867 546.092 5.09607 501.638 22.3695 483.082C39.6459 464.525 63.2199 453.255 86.6364 443.55C175.834 406.618 293.499 413.599 390.019 411.368C394.92 411.255 403.942 394.496 403.942 394.496H403.939Z" fill="#D15259"/>
<path d="M531.787 538.787C525.403 554.644 519.593 570.765 515.105 587.272C511.504 600.496 508.789 613.997 507.239 627.584C505.757 640.539 505.266 653.585 505.254 666.62C505.242 681.428 505.759 696.232 506.184 711.034C506.716 729.725 507.108 748.427 507.075 767.135C507.069 769.785 507.061 772.429 507.043 775.081C507.019 777.678 502.982 777.684 502.997 775.081C503.136 755.634 502.833 736.192 502.305 716.75C501.895 701.654 501.336 686.552 501.235 671.45C501.146 658.246 501.455 645.027 502.744 631.88C504.075 618.325 506.431 604.899 509.761 591.695C513.839 575.55 519.249 559.762 525.296 544.247C526.146 542.067 527.016 539.886 527.892 537.703C528.299 536.69 529.238 535.98 530.373 536.289C531.335 536.553 532.206 537.76 531.787 538.778V538.787Z" fill="#821E23"/>
<path d="M512.965 752.961C522.474 749.084 533.043 750.02 542.917 751.761C552.85 753.507 562.7 755.875 572.393 758.652C592.01 764.264 611.083 771.82 629.227 781.136C634.09 783.64 638.988 786.174 643.595 789.109C648.03 791.937 652.133 795.302 655.047 799.725C655.65 800.64 655.231 801.962 654.325 802.494C653.339 803.073 652.162 802.687 651.553 801.772C649.186 798.178 645.823 795.394 642.25 793.057C638.299 790.463 634.09 788.244 629.907 786.046C621.201 781.466 612.274 777.289 603.164 773.576C584.72 766.049 565.549 760.289 545.994 756.439C535.508 754.372 524.25 752.699 514.031 756.864C513.021 757.274 511.812 756.418 511.551 755.456C511.23 754.295 511.946 753.383 512.959 752.964L512.965 752.961Z" fill="#821E23"/>
<path d="M635.97 791.235C632.335 799.689 628.704 808.141 625.077 816.595C624.644 817.599 623.168 817.824 622.309 817.322C621.272 816.713 621.153 815.564 621.581 814.557C625.217 806.103 628.847 797.652 632.48 789.207C632.908 788.197 634.378 787.977 635.245 788.479C636.276 789.088 636.401 790.237 635.967 791.238L635.97 791.235Z" fill="#821E23"/>
<path d="M619.816 788.958C617.6 796.301 615.387 803.641 613.177 810.984C612.428 813.47 608.528 812.41 609.277 809.909C611.49 802.566 613.706 795.225 615.913 787.888C616.664 785.396 620.561 786.456 619.813 788.958H619.816Z" fill="#821E23"/>
<path d="M604.325 778.572C601.159 785.948 597.989 793.317 594.829 800.696C594.401 801.7 592.918 801.926 592.063 801.418C591.026 800.815 590.907 799.659 591.341 798.655C594.502 791.28 597.668 783.91 600.829 776.54C601.262 775.53 602.736 775.31 603.597 775.812C604.628 776.415 604.753 777.571 604.325 778.572Z" fill="#821E23"/>
<path d="M586.373 772.001C582.823 779.389 580.376 787.272 579.036 795.352C578.855 796.427 577.524 797.03 576.55 796.76C575.406 796.445 574.961 795.355 575.136 794.274C576.544 785.838 579.182 777.669 582.88 769.96C583.352 768.974 584.76 768.716 585.645 769.232C586.652 769.824 586.845 771.012 586.373 771.998V772.001Z" fill="#821E23"/>
<path d="M572.171 768.357C570.193 775.769 568.217 783.177 566.242 790.583C565.571 793.096 561.664 792.032 562.342 789.513C564.32 782.102 566.292 774.694 568.277 767.282C568.942 764.775 572.845 765.838 572.168 768.357H572.171Z" fill="#821E23"/>
<path d="M552.277 759.042C550.495 767.421 548.706 775.807 546.924 784.187C546.692 785.256 545.442 785.877 544.438 785.601C543.327 785.301 542.798 784.187 543.024 783.117C544.809 774.732 546.591 766.346 548.382 757.963C548.608 756.897 549.853 756.279 550.869 756.555C551.968 756.858 552.509 757.969 552.277 759.045V759.042Z" fill="#821E23"/>
<path d="M540.419 760.44C538.824 767.281 537.241 774.128 535.658 780.975C535.411 782.041 534.193 782.665 533.172 782.383C532.078 782.083 531.514 780.969 531.764 779.903C533.347 773.056 534.93 766.209 536.519 759.356C536.763 758.295 537.984 757.666 539.006 757.948C540.093 758.248 540.666 759.368 540.419 760.437V760.44Z" fill="#821E23"/>
<path d="M526.221 760.441C524.661 766.762 523.099 773.086 521.536 779.413C520.912 781.938 517.012 780.866 517.642 778.338C519.198 772.008 520.758 765.687 522.326 759.36C522.947 756.844 526.845 757.907 526.221 760.444V760.441Z" fill="#821E23"/>
<path d="M314.427 820.431C297.54 849.856 266.237 867.774 235.243 881.575C219.594 888.535 203.218 894.904 186.099 895.358C154.442 896.193 126.142 877.075 100.317 858.747C139.768 869.527 183.619 863.007 218.231 841.212C252.837 819.418 277.664 782.682 284.978 742.44L314.427 820.431Z" fill="#492405"/>
<path d="M150.228 463.29C142.017 514.451 140.761 566.719 146.509 618.21C148.983 640.361 152.821 662.643 161.899 682.997C174.105 710.382 195.073 732.8 216.431 753.84C245.052 782.048 275.514 809.127 311.205 827.597C346.904 846.059 388.601 855.377 427.785 846.43C466.966 837.483 502.535 808.031 512.195 769.025C520.179 736.78 510.311 702.762 496.513 672.558C478.794 633.772 451.659 595.821 411.343 581.946C403.977 579.412 395.65 577.279 391.304 570.807C388.753 567.013 388.037 562.314 387.303 557.805C383.388 533.637 377.183 509.852 368.815 486.855C361.528 466.845 351.262 445.984 332.248 436.404C321.486 430.983 309.117 429.857 297.068 429.411C273.631 428.568 250.173 429.964 226.76 431.366C208.405 432.459 188.927 433.947 174.09 444.807C162.071 453.597 154.841 467.318 148.018 480.551L150.231 463.29H150.228Z" fill="#BA702D"/>
<path d="M87.2891 465.719C95.8382 462.737 105.041 462.161 113.893 464.044C165.446 474.981 217.189 485.473 269.669 490.066C299.46 492.671 329.536 493.384 358.837 499.357C390.247 505.753 420.13 518.06 449.312 531.332C453.462 533.221 457.769 535.253 460.573 538.85C464.01 543.267 464.563 549.214 464.984 554.793C466.461 574.336 467.931 593.873 469.408 613.416C469.809 618.718 470.156 624.323 467.774 629.085C465.368 633.885 460.606 636.98 455.978 639.719C445.198 646.103 434.014 651.785 422.506 656.737C417.293 658.98 411.504 661.104 406.074 659.44C400.483 657.729 396.838 652.486 393.642 647.597C380.7 627.808 367.754 608.015 354.806 588.226C352.017 583.948 348.99 579.469 344.367 577.306C340.138 575.31 335.233 575.58 330.561 575.937C242.197 582.733 155.604 606.628 67.0479 610.267C61.7396 610.487 56.262 610.602 51.331 608.645C46.2247 606.622 42.2355 602.582 38.4035 598.652C29.5693 589.601 20.744 580.553 11.9127 571.496C8.40753 567.916 4.78345 564.114 3.43781 559.29C1.79216 553.429 3.81515 547.209 6.19451 541.607C21.0708 506.507 51.2806 478.234 87.283 465.719H87.2891Z" fill="#FAC7B2"/>
<path d="M184.646 451.422C194.874 460.072 205.101 468.722 215.323 477.375C229.533 489.394 243.869 501.555 253.624 516.856C263.385 532.163 268.31 551.094 262.776 571.151C257.242 591.196 240.037 613.216 217.081 621.331C192.224 630.118 192.866 551.952 193.59 549.068C194.294 546.261 192.773 543.944 191.342 541.844C175.271 518.198 164.557 491.14 159.73 462.08C158.467 454.484 168.95 446.419 176.837 449.087L177 449.137C182.403 451.053 184.646 451.428 184.646 451.428V451.422Z" fill="#894610"/>
<path d="M336.858 407.11C350.501 414.346 363.399 422.978 375.278 432.84C384.588 440.566 393.624 449.594 397.022 461.202C400.741 473.872 397.123 487.512 392.109 499.724C383.504 520.675 370.701 539.891 354.687 555.902C352.337 558.252 349.807 560.601 346.652 561.638C336.974 564.831 328.163 554.476 325.11 544.76C319.552 527.112 322.059 508.035 325.255 489.811C325.79 486.746 326.343 483.585 325.603 480.57C324.881 477.644 323.024 475.167 321.203 472.773C315.726 465.554 310.248 458.33 304.768 451.118C303.194 449.038 301.565 446.846 301.164 444.271C300.567 440.439 302.792 436.782 305.092 433.66C312.833 423.138 322.537 414.073 333.561 407.062L336.855 407.113L336.858 407.11Z" fill="#894610"/>
<path d="M242.804 671.319C264.34 649.489 288.662 653.93 318.465 661.121C348.274 668.307 374.584 685.39 400.24 702.188C398.178 671.952 400.041 641.459 405.75 611.701C407.794 601.079 411.638 588.977 421.776 585.21C426.764 583.362 432.425 584.034 437.33 586.089C452.087 592.277 459.204 608.941 463.283 624.415C475.325 670.027 473.51 717.997 471.612 765.133C471.229 774.538 470.771 784.254 466.631 792.705C462.49 801.159 453.608 808.042 444.275 806.809C433.426 805.371 425.555 793.899 414.617 793.706C403.015 793.507 395.689 805.493 388.854 814.877C370.116 840.596 334.74 855.499 305.003 844.151C288.814 837.976 276.061 825.155 265.466 811.44C234.852 771.832 218.79 715.294 242.964 671.458L242.795 671.319H242.804Z" fill="#894610"/>
<path d="M447.513 606.797C444.328 595.589 444.584 583.416 448.229 572.351C448.814 570.592 449.518 568.795 450.861 567.515C454.054 564.482 459.261 565.605 463.313 567.346C491.545 579.483 506.659 609.883 518.154 638.382C529.211 665.815 539.141 693.892 544.01 723.059C545.744 733.444 546.445 745.299 539.551 753.263C531.189 762.932 514.949 761.756 504.731 754.074C494.503 746.386 488.931 734.148 484.113 722.302C466.673 679.363 453.882 634.529 446.043 588.846L447.513 606.794V606.797Z" fill="#894610"/>
<path d="M306.841 312.299C259.601 316.853 212.643 324.317 166.336 334.637C164.634 335.014 162.813 335.466 161.661 336.761C160.663 337.872 160.348 339.419 160.077 340.881C155.461 365.212 150.857 389.547 146.25 413.884C144.334 424.01 142.456 434.722 146.018 444.406C151.894 460.354 169.99 467.813 186.262 473.205C194.039 475.786 201.845 478.305 209.661 480.762C229.727 487.056 250.734 493.006 271.557 489.908C303.433 485.17 328.882 459.567 342.368 430.602C346.82 421.052 350.284 410.72 349.726 400.22C347.979 367.357 308.843 344.894 308.653 311.987L306.844 312.302L306.841 312.299Z" fill="#894610"/>
<path d="M304.005 312.967C289.134 318.635 277.469 331.889 273.833 347.235C270.2 362.586 274.706 379.586 285.486 391.195C293.076 399.358 303.208 404.702 312.01 411.57C320.818 418.452 328.764 427.979 328.886 439.074C328.948 445.243 326.566 451.205 323.488 456.57C314.568 472.123 299.353 484.047 282.002 489.067C264.646 494.099 245.34 492.183 229.35 483.842C223.697 480.895 218.3 477.025 215.08 471.559C211.085 464.762 210.972 456.412 211.848 448.603C212.846 439.733 214.982 430.991 218.193 422.653C221.46 414.151 225.839 406.062 228.489 397.353C236.102 372.306 227.482 343.189 207.419 326.147C237.415 317.592 268.626 313.208 299.852 313.175L304.005 312.967Z" fill="#BA702D"/>
<path d="M204.578 345.951C197.113 340.952 189.639 335.956 182.168 330.962C175.588 326.551 168.617 322.009 160.698 321.332C150.672 320.465 141.172 326.008 133.666 332.644C125.696 339.681 119.117 348.096 112.676 356.52C100.408 372.573 88.3836 389.006 79.7098 407.206C71.03 425.409 65.796 445.65 67.813 465.68C68.0506 468.012 68.4041 470.409 69.5953 472.429C71.9598 476.454 77.2204 478.115 81.8782 477.461C86.5329 476.814 90.6857 474.274 94.479 471.523C121.641 451.817 136.378 419.816 148.643 388.777C153.969 375.321 159.91 360.721 172.576 353.52C182.043 348.132 193.578 347.959 204.465 348.669L204.578 345.951Z" fill="#894610"/>
<path d="M630.235 830.901C620.304 871.225 607.38 913.786 575.45 940.346C567.929 946.613 559.023 951.954 549.247 952.444C541.72 952.816 534.383 950.297 527.283 947.796C421.079 910.358 316.277 868.941 213.174 823.667C200.288 818.006 187.147 812.109 176.934 802.417C155.425 782 159.274 718.301 157.721 688.341C157.647 686.983 159.494 686.52 160.076 687.746L164.422 744.905C157.165 729.978 162.494 680.62 163.718 664.075C163.876 661.933 166.852 661.541 167.544 663.57L172.068 733.991C165.245 713.058 166.974 678.66 170.874 657.575C171.542 653.945 176.711 653.835 177.572 657.412L184.045 731.377C181.734 706.915 179.426 682.447 177.115 657.979L177.1 657.759C176.429 649.374 188.483 647.125 190.952 655.172C194.255 665.913 197.089 676.8 199.438 687.788C202.352 701.381 204.673 715.506 212.01 727.307C219.359 739.109 233.362 748.095 246.874 744.813C242.635 729.72 241.251 713.854 242.692 698.244C243.378 690.812 253.73 689.55 256.279 696.56C263.723 717.038 286.911 790.306 290.995 794.334C294.506 797.806 481.009 827.71 492.873 822.791C504.74 817.872 492.918 822.188 515.758 794.271C515.758 794.271 551.484 786.501 582.971 797.589C611.081 807.484 630.238 830.904 630.238 830.904L630.235 830.901Z" fill="#FAC7B2"/>
<path d="M180.978 659.277C182.76 677.041 184.72 694.775 186.859 712.491C187.462 717.478 188.071 722.454 188.707 727.435C188.843 728.516 187.676 729.458 186.684 729.458C185.478 729.458 184.795 728.516 184.661 727.435C182.424 709.734 180.36 692.006 178.479 674.263C177.948 669.27 177.437 664.276 176.935 659.277C176.822 658.196 177.939 657.26 178.952 657.26C180.134 657.26 180.868 658.19 180.975 659.277H180.978Z" fill="#BF8271"/>
<path d="M168.734 670.465C170.498 688.08 172.272 705.701 174.036 723.316C174.541 728.324 175.043 733.344 175.551 738.367C175.658 739.448 174.541 740.384 173.528 740.384C172.346 740.384 171.612 739.454 171.511 738.367C169.738 720.752 167.967 703.137 166.197 685.513C165.695 680.499 165.193 675.479 164.685 670.462C164.572 669.374 165.695 668.439 166.702 668.439C167.884 668.439 168.618 669.369 168.731 670.462L168.734 670.465Z" fill="#BF8271"/>
<path d="M161.959 692.458C163.831 708.05 165.696 723.636 167.565 739.229C168.096 743.681 168.631 748.137 169.166 752.59C169.29 753.671 168.141 754.607 167.137 754.607C165.943 754.607 165.256 753.674 165.12 752.59C163.254 736.998 161.383 721.409 159.521 705.819C158.983 701.367 158.448 696.911 157.92 692.458C157.783 691.374 158.933 690.441 159.937 690.441C161.137 690.441 161.823 691.371 161.959 692.458Z" fill="#BF8271"/>
<path d="M191.984 723.792C183.203 731.4 175.483 740.202 169.144 749.933C167.353 752.689 165.671 755.511 164.094 758.39C162.85 760.68 159.356 758.636 160.598 756.349C166.284 745.946 173.425 736.322 181.73 727.871C184.095 725.459 186.569 723.142 189.123 720.935C189.94 720.219 191.17 720.118 191.981 720.935C192.712 721.663 192.804 723.071 191.981 723.792H191.984Z" fill="#BF8271"/>
<path d="M290.344 799.378C286.717 805.209 283.099 811.043 279.469 816.874C278.1 819.078 274.607 817.05 275.982 814.834C279.606 809.002 283.23 803.168 286.857 797.331C288.226 795.127 291.72 797.156 290.344 799.378Z" fill="#BF8271"/>
<path d="M281.489 459.776C281.507 457.364 280.877 454.985 280.847 452.572C280.824 450.16 281.593 447.511 283.648 446.251C284.935 445.461 286.5 445.345 288 445.14C292.631 444.531 297.135 442.96 301.136 440.542C302.6 439.663 304.177 438.255 303.839 436.576C303.687 435.828 303.159 435.207 302.618 434.666C298.976 431.036 293.793 429.284 288.672 428.901C283.542 428.506 278.414 429.37 273.362 430.309C264.165 432.02 254.879 434.09 246.713 438.644C244.634 439.799 242.468 441.365 242.052 443.703C241.568 446.471 243.918 449.091 246.589 449.953C249.259 450.82 252.149 450.404 254.945 450.059C257.734 449.721 260.687 449.492 263.232 450.683C266.473 452.198 268.276 455.632 270.599 458.359C272.916 461.086 276.882 463.314 279.947 461.46L281.489 459.776Z" fill="#141515"/>
<path d="M251.193 466.89V466.103L251.282 465.714L251.49 465.387L251.817 465.179L252.2 465.087L252.47 465.129L252.915 465.387L253.073 465.589L253.213 466.103V466.89L253.123 467.279L252.915 467.606L252.595 467.817L252.2 467.9L251.935 467.868L251.49 467.606L251.332 467.404L251.193 466.89Z" fill="#141515"/>
<path d="M299.641 470.291C298.691 474.726 293.905 477.498 289.545 477.034C284.426 476.482 280.443 472.65 278.064 468.307C276.543 465.524 275.533 462.491 274.544 459.488C275.203 459.396 275.862 459.306 276.525 459.217C276.638 464.683 280.627 470.556 277.164 475.739C273.682 480.935 266.924 480.997 261.441 479.746C260.175 479.455 260.71 477.51 261.981 477.798C266.687 478.873 273.133 479.036 275.794 474.096C276.976 471.892 276.572 469.311 276.014 466.991C275.39 464.422 274.561 461.894 274.505 459.22C274.481 458.044 276.139 457.895 276.492 458.956C278.307 464.445 280.375 470.591 285.689 473.669C287.902 474.952 290.489 475.46 292.964 474.667C295.263 473.921 297.185 472.16 297.693 469.76C297.969 468.485 299.918 469.029 299.641 470.297V470.291Z" fill="#141515"/>
<path d="M209.918 418.851C207.23 414.98 202.474 412.518 197.861 412.307C192.975 412.087 188.495 414.267 185.334 418.09C183.632 420.14 182.527 422.665 182.061 425.383C181.874 426.458 180.549 427.055 179.574 426.797C178.431 426.482 177.974 425.389 178.167 424.308C179.153 418.515 183.086 413.287 188.243 410.513C193.69 407.569 200.116 407.64 205.682 410.236C208.804 411.689 211.454 413.991 213.409 416.813C214.038 417.71 213.578 419.062 212.687 419.576C211.683 420.167 210.551 419.754 209.921 418.854L209.918 418.851Z" fill="#141515"/>
<path d="M328.291 389.456C325.609 385.585 320.847 383.126 316.231 382.912C311.345 382.692 306.859 384.872 303.704 388.686C302.002 390.742 300.897 393.267 300.431 395.982C300.25 397.054 298.922 397.663 297.942 397.39C296.804 397.075 296.347 395.988 296.534 394.901C297.526 389.114 301.453 383.883 306.61 381.112C312.069 378.177 318.489 378.239 324.056 380.829C327.178 382.282 329.824 384.587 331.779 387.406C332.409 388.303 331.948 389.655 331.057 390.181C330.053 390.766 328.915 390.347 328.291 389.453V389.456Z" fill="#141515"/>
<path d="M177.119 337.41C170.397 347.079 164.578 357.363 159.787 368.122C158.441 371.149 157.181 374.203 156.005 377.292C155.616 378.314 154.648 379.012 153.513 378.7C152.544 378.442 151.716 377.247 152.105 376.22C156.397 364.956 161.723 354.089 168.062 343.841C169.836 340.969 171.698 338.144 173.623 335.372C174.25 334.481 175.393 334.065 176.389 334.645C177.274 335.167 177.734 336.51 177.116 337.41H177.119Z" fill="#492405"/>
<path d="M92.2209 410.37C86.0512 420.835 83.3181 433.112 84.2716 445.205C84.5419 448.603 85.1331 451.957 86.0005 455.251C86.6659 457.77 82.7715 458.843 82.1061 456.327C78.8148 443.844 79.4982 430.338 84.0163 418.251C85.2996 414.82 86.8619 411.49 88.7273 408.329C90.0522 406.092 93.5457 408.127 92.2209 410.37Z" fill="#492405"/>
<path d="M220.153 486.601C213.425 484.647 206.703 482.692 199.98 480.747C193.54 478.875 187.041 477.128 180.69 474.96C174.725 472.919 168.93 470.368 163.684 466.842C158.684 463.476 154.092 459.407 150.329 454.704C146.101 449.423 142.697 442.977 143.229 436.02C143.315 434.933 144.102 434.003 145.252 434.003C146.277 434.003 147.361 434.927 147.269 436.02C146.841 441.616 149.354 446.755 152.634 451.134C155.964 455.595 160.229 459.513 164.783 462.707C175.079 469.919 187.374 472.878 199.279 476.338C206.593 478.462 213.909 480.577 221.226 482.701C223.721 483.429 222.657 487.332 220.15 486.604L220.153 486.601Z" fill="#492405"/>
<path d="M344.479 380.695C351.139 389.66 352.075 401.147 350.334 411.858C348.519 422.986 343.897 433.543 338.529 443.381C333.04 453.412 326.303 462.879 318.075 470.852C309.731 478.941 299.88 485.351 288.883 489.201C277.94 493.021 265.972 494.191 254.589 491.744C253.199 491.438 251.824 491.084 250.457 490.674C247.968 489.935 249.025 486.026 251.529 486.78C262.066 489.935 273.309 489.552 283.834 486.56C294.417 483.557 304.092 477.984 312.303 470.698C320.558 463.37 327.342 454.559 332.921 445.068C338.366 435.806 343.065 425.864 345.528 415.36C347.803 405.635 348.124 394.843 343.092 385.955C342.459 384.836 341.755 383.763 340.989 382.732C340.335 381.859 340.846 380.478 341.711 379.97C342.747 379.367 343.823 379.818 344.476 380.698L344.479 380.695Z" fill="#492405"/>
<path d="M235.886 579.857C236.231 589.927 232.63 599.884 226.226 607.619C224.447 609.767 222.433 611.71 220.232 613.418C219.376 614.089 218.218 614.258 217.38 613.418C216.679 612.726 216.507 611.231 217.38 610.563C224.693 604.878 229.642 596.605 231.315 587.503C231.772 585.014 231.929 582.435 231.837 579.857C231.748 577.252 235.794 577.258 235.883 579.857H235.886Z" fill="#492405"/>
<path d="M223.233 575.907C222.173 587.091 217.182 597.71 209.112 605.54C207.246 607.355 204.382 604.504 206.254 602.686C213.523 595.631 218.234 586.012 219.193 575.907C219.288 574.822 220.043 573.89 221.21 573.89C222.223 573.89 223.334 574.819 223.233 575.907Z" fill="#492405"/>
<path d="M252.389 554.461C241.131 550.347 229.332 546.087 217.159 546.533C213.856 546.652 210.609 547.172 207.437 548.11C204.935 548.847 203.869 544.944 206.361 544.21C218.611 540.592 231.492 543.206 243.353 547.032C246.751 548.131 250.111 549.337 253.467 550.555C254.486 550.932 255.178 551.936 254.875 553.044C254.605 554.036 253.423 554.833 252.383 554.458L252.389 554.461Z" fill="#492405"/>
<path d="M363.743 522.641C358.723 534.823 352.423 546.431 344.872 557.235C344.245 558.126 343.101 558.542 342.106 557.963C341.221 557.443 340.754 556.097 341.378 555.197C348.718 544.697 354.963 533.412 359.849 521.571C360.265 520.564 361.188 519.842 362.332 520.157C363.286 520.422 364.165 521.634 363.74 522.644L363.743 522.641Z" fill="#492405"/>
<path d="M351.067 527.13C346.608 535.049 342.146 542.954 337.681 550.861C336.404 553.128 332.908 551.09 334.188 548.82C338.65 540.913 343.115 533.002 347.576 525.098C348.86 522.831 352.35 524.866 351.064 527.133L351.067 527.13Z" fill="#492405"/>
<path d="M349.19 485.684C342.512 487.077 335.665 487.549 328.86 487.02C327.767 486.928 326.837 486.15 326.837 484.997C326.837 483.973 327.761 482.894 328.86 482.974C335.306 483.476 341.787 483.105 348.12 481.783C349.187 481.558 350.301 482.092 350.607 483.191C350.88 484.195 350.268 485.458 349.193 485.681L349.19 485.684Z" fill="#492405"/>
<path d="M211.357 375.661C200.942 381.474 190.421 387.103 179.816 392.554C182.902 385.583 188.041 379.544 194.422 375.361C199.686 371.912 206.936 369.86 212.049 373.51L211.357 375.658V375.661Z" fill="#492405"/>
<path d="M282.812 355.678C293.785 360.351 304.838 364.824 315.975 369.111C312.155 362.513 306.401 357.054 299.61 353.575C294.014 350.712 286.587 349.443 281.891 353.62L282.809 355.678H282.812Z" fill="#492405"/>
<path d="M262.971 326.561C271.096 316.44 278.412 305.672 284.819 294.39C287.077 290.428 289.287 286.034 288.64 281.513C281.769 283.631 276.461 289.07 272.043 294.744C266.123 302.351 261.219 310.749 257.506 319.64C259.654 313.428 261.81 307.226 263.964 301.018C265.683 296.063 267.311 290.258 264.433 285.88C263.993 285.215 263.39 284.561 262.597 284.43C261.976 284.323 261.347 284.561 260.779 284.831C255.685 287.243 252.551 292.433 250.181 297.539C246.708 305.016 244.213 312.944 242.775 321.071C245.333 313.532 245.639 305.248 243.66 297.539C242.561 293.268 239.57 288.411 235.192 288.931C232.628 289.234 230.673 291.375 229.343 293.597C225.995 299.182 225.101 305.961 225.629 312.457C226.167 318.942 228.029 325.236 229.889 331.48L262.98 326.561H262.971Z" fill="#BA702D"/>
<path d="M451.139 612.632C452.226 615.275 453.343 618.071 452.954 620.905C452.571 623.738 450.09 626.495 447.257 626.1C443.502 625.568 442.456 620.655 442.664 616.868C442.771 614.958 443.11 612.795 444.693 611.723C446.14 610.736 448.186 611.093 449.624 612.085C451.068 613.083 452.048 614.604 452.987 616.08L451.139 612.632Z" fill="#492405"/>
<path d="M430.389 604.288C431.357 606.953 432.248 609.905 431.307 612.588C430.371 615.276 426.738 617.094 424.566 615.252C423.714 614.519 423.286 613.425 422.939 612.356C422.241 610.194 421.744 607.877 422.252 605.666C422.757 603.45 424.495 601.389 426.75 601.136C429.004 600.875 431.387 603.052 430.828 605.251L430.389 604.288Z" fill="#492405"/>
<path d="M421.364 624.876C422.54 627.258 423.292 630.065 422.377 632.563C421.471 635.064 418.363 636.841 416.026 635.578C415.128 635.094 414.469 634.25 414.015 633.336C412.714 630.716 413.293 627.014 415.856 625.612C418.426 624.213 422.359 626.682 421.56 629.501L421.364 624.879V624.876Z" fill="#492405"/>
<path d="M453.475 755.874C450.861 757.826 447.091 756.468 446.352 753.296L446.34 753.228C439.837 724.957 433.299 696.381 433.362 667.371C433.367 664.953 433.436 662.446 434.491 660.266C435.539 658.091 437.853 656.333 440.241 656.686C441.81 656.924 443.123 657.993 444.165 659.182C447.558 663.058 448.781 668.34 449.732 673.398C454.562 699.043 455.507 725.228 456.338 751.32C456.383 752.803 455.7 754.211 454.518 755.096L453.475 755.874Z" fill="#492405"/>
<path d="M526.57 733.403C518.912 704.318 507.497 676.223 492.689 650.041C490.672 646.462 487.149 642.354 483.305 643.815C480.329 644.941 479.491 648.729 479.429 651.913C479.215 663.792 483.638 675.208 488.052 686.237C490.835 693.191 493.636 700.133 496.44 707.081C500.353 716.768 504.431 726.704 511.706 734.199C514.201 736.774 517.442 739.142 521.016 738.859C524.595 738.586 527.72 734.234 525.664 731.296L526.57 733.406V733.403Z" fill="#492405"/>
<path d="M482.054 588.541C484.876 588.823 485.277 593.561 482.752 594.871C480.233 596.178 476.93 594.241 476.047 591.544C475.257 589.149 476.255 586.084 478.623 585.217C480.984 584.346 484.032 586.806 483.171 589.17L482.057 588.541H482.054Z" fill="#492405"/>
<path d="M466.251 583.075C468.235 583.381 469.046 586.277 467.739 587.807C466.438 589.333 463.863 589.307 462.286 588.056C460.711 586.8 460.067 584.652 460.165 582.647C460.227 581.491 460.58 580.241 461.546 579.605C462.877 578.714 464.802 579.468 465.722 580.781C466.643 582.094 466.821 583.773 466.967 585.368L466.251 583.075Z" fill="#492405"/>
<path d="M472.877 604.225C474.686 607.151 472.161 611.699 468.724 611.55C465.288 611.399 463.247 606.376 465.721 603.982C468.184 601.587 473.272 604.068 472.756 607.469L472.88 604.222L472.877 604.225Z" fill="#492405"/>
<path d="M421.667 582.737C433.035 583.301 443.907 588.125 452.216 595.848C456.33 599.666 459.817 604.24 462.316 609.26C465.331 615.341 466.852 621.944 467.68 628.64C468.56 635.695 468.667 642.818 468.913 649.911C469.171 657.43 469.436 664.945 469.703 672.464C470.226 687.56 470.752 702.656 471.281 717.746C471.809 732.848 472.335 747.944 472.858 763.034C472.926 764.926 472.992 766.827 473.06 768.719C473.149 771.322 469.103 771.316 469.02 768.719C468.503 753.926 467.984 739.139 467.467 724.349C466.953 709.497 466.436 694.647 465.916 679.798C465.657 672.398 465.399 665.008 465.141 657.608C464.891 650.473 464.751 643.317 464.318 636.194C463.911 629.51 463.094 622.824 460.946 616.461C459.194 611.253 456.422 606.415 452.813 602.271C445.803 594.212 435.997 588.675 425.41 587.124C424.192 586.946 422.918 586.842 421.667 586.779C420.58 586.723 419.65 585.888 419.65 584.763C419.65 583.702 420.574 582.689 421.667 582.734V582.737Z" fill="#492405"/>
<path d="M401.138 701.559C401.42 711.849 402.551 722.089 404.551 732.179C406.568 742.344 409.431 752.337 413.1 762.024C415.146 767.427 417.463 772.721 420.015 777.904C420.493 778.882 420.279 780.091 419.293 780.667C418.396 781.19 417.012 780.925 416.528 779.939C411.843 770.448 407.952 760.565 404.919 750.421C401.88 740.268 399.736 729.871 398.431 719.356C397.704 713.45 397.255 707.509 397.092 701.559C397.018 698.954 401.063 698.954 401.138 701.559Z" fill="#492405"/>
<path d="M344.084 616.735C345.581 621.137 347.663 625.302 350.236 629.172C350.958 630.256 349.205 631.269 348.489 630.185C345.813 626.178 343.689 621.835 342.132 617.269C341.716 616.039 343.665 615.511 344.084 616.732V616.735Z" fill="#894610"/>
<path d="M334.525 620.705C334.873 622.265 335.235 623.821 335.586 625.387C335.705 625.901 335.428 626.504 334.882 626.622C334.362 626.744 333.768 626.468 333.637 625.918C333.289 624.362 332.927 622.802 332.576 621.243C332.458 620.729 332.728 620.126 333.28 620.004C333.8 619.885 334.398 620.156 334.525 620.708V620.705Z" fill="#894610"/>
<path d="M326.559 623.877C327.477 627.614 328.814 631.226 330.572 634.639C331.169 635.795 329.423 636.819 328.832 635.658C326.987 632.09 325.567 628.318 324.616 624.415C324.307 623.149 326.256 622.612 326.559 623.874V623.877Z" fill="#894610"/>
<path d="M326.652 590.385C327.695 592.233 328.737 594.081 329.786 595.928L329.42 597.309L328.039 596.947C326.996 595.099 325.948 593.252 324.905 591.398L325.268 590.017L326.655 590.385H326.652Z" fill="#894610"/>
<path d="M305.029 602.116C306.633 603.83 307.587 605.986 307.824 608.315C307.881 608.838 307.322 609.346 306.82 609.322C306.223 609.296 305.867 608.88 305.807 608.315L305.79 608.134L305.727 607.781L305.564 607.08L305.35 606.387L305.219 606.052V606.04L305.127 605.838L304.423 604.575L304.221 604.284L304.114 604.139L304.102 604.127L303.6 603.551V602.119H305.026L305.029 602.116Z" fill="#894610"/>
<path d="M301.244 610.445C301.577 612.542 301.904 614.645 302.23 616.74C302.317 617.254 302.1 617.851 301.526 617.978C301.042 618.091 300.371 617.833 300.282 617.274C299.955 615.177 299.628 613.08 299.301 610.98C299.215 610.46 299.432 609.869 300.005 609.738C300.49 609.631 301.161 609.884 301.244 610.442V610.445Z" fill="#894610"/>
<path d="M227.007 639.684C228.308 644.692 229.613 649.698 230.926 654.706C231.246 655.963 229.304 656.497 228.974 655.247C227.667 650.238 226.36 645.227 225.056 640.225C224.723 638.962 226.675 638.428 227.007 639.684Z" fill="#894610"/>
<path d="M223.091 647.286C224.059 648.638 224.342 650.447 223.902 652.036C223.756 652.541 223.174 652.909 222.657 652.74C222.134 652.571 221.802 652.039 221.953 651.501L222.066 650.999L222.054 651.074L222.069 650.949L222.081 650.693L222.075 650.242L222.051 649.986L222.063 650.066L222.04 649.936L221.915 649.434L221.858 649.253L221.766 649.009L221.796 649.077L221.739 648.958L221.615 648.733L221.344 648.305L221.707 646.918C222.23 646.642 222.758 646.823 223.088 647.28L223.091 647.286Z" fill="#894610"/>
<path d="M215.511 645.901C216.233 648.29 216.96 650.687 217.685 653.075C217.849 653.598 217.498 654.174 216.981 654.32C216.441 654.465 215.9 654.133 215.736 653.61C215.015 651.222 214.29 648.833 213.568 646.442C213.405 645.919 213.752 645.343 214.272 645.197C214.807 645.052 215.353 645.385 215.511 645.901Z" fill="#894610"/>
<path d="M190.1 617.507C190.923 621.194 191.758 624.865 192.581 628.54C192.866 629.814 190.917 630.355 190.629 629.08C189.806 625.406 188.972 621.722 188.149 618.045C187.861 616.779 189.809 616.236 190.097 617.504L190.1 617.507Z" fill="#894610"/>
<path d="M184.297 622.066C185.396 623.587 185.999 625.42 186.115 627.282C186.148 627.814 185.625 628.313 185.102 628.292C184.526 628.262 184.128 627.846 184.095 627.282L184.065 626.961L184.054 626.831L183.964 626.278L183.626 625.075L183.531 624.814L183.468 624.662L183.474 624.686L183.21 624.139L182.556 623.085L182.916 621.697C183.442 621.427 183.97 621.602 184.297 622.066Z" fill="#894610"/>
<path d="M176.538 623.066C177.536 625.674 178.089 628.44 178.205 631.238C178.228 631.785 177.72 632.245 177.198 632.245C176.627 632.245 176.211 631.785 176.188 631.238C176.069 628.618 175.522 626.054 174.592 623.604C174.393 623.096 174.806 622.499 175.296 622.365C175.861 622.208 176.339 622.558 176.535 623.069L176.538 623.066Z" fill="#894610"/>
<path d="M493.502 770.47C495.548 774.664 495.828 779.616 494.117 783.977C493.918 784.484 493.442 784.847 492.872 784.68C492.388 784.55 491.972 783.95 492.168 783.442C493.68 779.586 493.576 775.219 491.758 771.486C491.191 770.318 492.934 769.299 493.505 770.473L493.502 770.47Z" fill="#894610"/>
<path d="M487.991 780.859C487.715 782.703 487.438 784.545 487.162 786.381C487.088 786.91 486.396 787.242 485.924 787.091C485.347 786.907 485.127 786.408 485.219 785.846C485.493 784.001 485.766 782.16 486.042 780.324C486.12 779.795 486.809 779.463 487.287 779.614C487.863 779.798 488.077 780.297 487.991 780.859Z" fill="#894610"/>
<path d="M483.034 786.343C482.105 789.287 481.181 792.218 480.251 795.162C479.862 796.392 477.913 795.866 478.299 794.622C479.229 791.681 480.153 788.749 481.083 785.808C481.472 784.572 483.42 785.104 483.031 786.343H483.034Z" fill="#894610"/>
<path d="M461.909 809.298C461.526 811.811 459.527 813.971 457.103 814.651C456.589 814.791 455.974 814.47 455.858 813.947C455.736 813.406 456.016 812.854 456.562 812.702L456.94 812.578L457.124 812.509L457.13 812.503L457.804 812.132L458.131 811.906L458.113 811.921L458.264 811.791L458.835 811.226L458.968 811.075L459.001 811.024L458.974 811.069L459.188 810.769L459.565 810.103L459.652 809.922V809.916L459.782 809.533L459.958 808.755C460.041 808.232 460.724 807.893 461.202 808.051C461.772 808.235 461.998 808.734 461.906 809.289L461.909 809.298Z" fill="#894610"/>
<path d="M262.803 365.459C263.771 370.025 264.95 374.549 266.311 379.013C266.694 380.264 264.751 380.787 264.362 379.554C262.999 375.086 261.82 370.565 260.851 365.997C260.581 364.731 262.527 364.188 262.803 365.462V365.459Z" fill="#894610"/>
<path d="M257.736 372.88C259.566 375.067 260.543 377.912 260.306 380.77C260.255 381.311 259.872 381.774 259.293 381.774C258.779 381.774 258.241 381.314 258.28 380.77C258.393 379.513 258.28 378.459 257.914 377.277C257.582 376.228 257.014 375.153 256.31 374.312V372.88H257.742H257.736Z" fill="#894610"/>
<path d="M253.839 377.365C254.478 380.24 255.123 383.112 255.761 385.982C255.886 386.52 255.604 387.075 255.057 387.227C254.552 387.363 253.937 387.057 253.813 386.517C253.177 383.647 252.535 380.778 251.897 377.905C251.778 377.37 252.054 376.806 252.601 376.661C253.106 376.524 253.726 376.827 253.839 377.365Z" fill="#894610"/>
<path d="M246.895 349.957C247.436 354.166 247.97 358.382 248.514 362.591C248.588 363.137 248 363.604 247.501 363.604C246.904 363.604 246.559 363.134 246.497 362.591C245.956 358.382 245.413 354.166 244.875 349.957C244.807 349.411 245.389 348.944 245.888 348.944C246.491 348.944 246.83 349.414 246.895 349.957Z" fill="#894610"/>
<path d="M253.897 400.533C254.236 403.423 254.569 406.316 254.907 409.201C254.964 409.741 254.393 410.208 253.894 410.208C253.297 410.208 252.947 409.747 252.881 409.201C252.548 406.316 252.216 403.426 251.883 400.533C251.815 399.992 252.385 399.526 252.887 399.526C253.49 399.526 253.835 399.995 253.9 400.533H253.897Z" fill="#894610"/>
<path d="M265.205 405.735C265.675 407.33 266.147 408.931 266.613 410.526C266.759 411.04 266.432 411.652 265.909 411.771C265.369 411.892 264.822 411.607 264.664 411.067C264.198 409.465 263.723 407.87 263.256 406.275C263.105 405.761 263.432 405.146 263.96 405.031C264.501 404.909 265.048 405.194 265.205 405.735Z" fill="#894610"/>
<path d="M242.789 408.134L242.534 408.648L242.483 408.784L242.403 409.013L242.115 410.16L242.1 410.282L242.106 410.258L242.08 410.54L242.062 411.107L242.092 411.684L242.118 411.966L242.148 412.097C242.243 412.619 242.008 413.214 241.444 413.341C240.948 413.454 240.3 413.19 240.199 412.637C239.855 410.745 240.137 408.817 241.043 407.115L242.43 406.753L242.792 408.134H242.789Z" fill="#894610"/>
<path d="M294.081 434.636C285.167 435.605 276.309 436.986 267.525 438.777C266.251 439.033 265.71 437.087 266.984 436.829C275.943 435.008 284.995 433.606 294.084 432.619C295.37 432.474 295.359 434.503 294.084 434.636H294.081Z" fill="white"/>
<path d="M260.122 439.254C259.587 439.77 259.053 440.29 258.509 440.807L257.799 441.107L257.083 440.807L256.789 440.091L257.083 439.375C257.618 438.859 258.159 438.339 258.693 437.825L259.409 437.534L260.119 437.825L260.41 438.541L260.119 439.251L260.122 439.254Z" fill="white"/>
<path d="M506.403 397.586C507.659 406.198 509.614 414.693 512.234 422.996C513.015 425.476 509.118 426.546 508.333 424.065C505.713 415.772 503.765 407.273 502.5 398.656C502.342 397.58 502.764 396.493 503.908 396.175C504.858 395.911 506.233 396.502 506.4 397.583L506.403 397.586Z" fill="#821E23"/>
<path d="M495.906 405.965C495.223 413.189 495.603 420.47 497.088 427.558C497.308 428.63 496.779 429.744 495.674 430.05C494.676 430.326 493.414 429.711 493.194 428.642C491.623 421.186 491.153 413.546 491.857 405.965C491.964 404.884 492.719 403.948 493.886 403.948C494.899 403.948 496.007 404.878 495.903 405.965H495.906Z" fill="#821E23"/>
<path d="M482.569 409.212C482.569 415.01 482.569 420.802 482.569 426.595C482.569 429.191 478.53 429.2 478.53 426.595C478.53 420.802 478.53 415.01 478.53 409.212C478.53 406.615 482.569 406.615 482.569 409.212Z" fill="#821E23"/>
<path d="M468.981 413.906C468.666 420.218 468.793 426.54 469.346 432.828C469.447 433.915 468.354 434.845 467.329 434.845C466.156 434.845 465.407 433.915 465.312 432.828C464.748 426.54 464.626 420.218 464.935 413.906C464.991 412.819 465.826 411.889 466.964 411.889C468.012 411.889 469.037 412.813 468.981 413.906Z" fill="#821E23"/>
<path d="M454.982 415.929C453.764 421.502 453.55 427.238 454.254 432.909C454.385 433.993 453.223 434.926 452.225 434.926C451.025 434.926 450.345 433.99 450.208 432.909C449.457 426.881 449.79 420.783 451.082 414.854C451.313 413.791 452.558 413.17 453.574 413.44C454.673 413.743 455.22 414.854 454.982 415.929Z" fill="#821E23"/>
<path d="M439.91 415.54C439.91 420.272 439.91 425.016 439.91 429.757C439.91 430.85 438.98 431.774 437.887 431.774C436.794 431.774 435.87 430.85 435.87 429.757C435.87 425.019 435.87 420.272 435.87 415.54C435.87 414.441 436.794 413.511 437.887 413.511C438.986 413.511 439.91 414.441 439.91 415.54Z" fill="#821E23"/>
<path d="M428.204 413.223C426.288 417.426 425.465 422.001 425.647 426.593C425.685 427.686 424.687 428.616 423.624 428.616C422.498 428.616 421.651 427.692 421.607 426.593C421.399 421.273 422.507 416.021 424.711 411.182C425.168 410.19 426.6 409.946 427.476 410.454C428.498 411.057 428.656 412.228 428.204 413.22V413.223Z" fill="#821E23"/>
<path d="M417.681 410.364C417.128 411.101 416.626 411.885 416.199 412.714L415.866 413.374L415.697 413.739L415.227 415.052L414.862 416.394L414.722 417.122L414.636 417.592L414.589 418.061L414.538 418.798L414.532 420.28C414.571 421.34 413.573 422.347 412.509 422.303C411.38 422.252 410.531 421.412 410.492 420.28C410.335 416.041 411.642 411.719 414.188 408.327C414.826 407.483 415.961 406.963 416.953 407.599C417.788 408.134 418.358 409.458 417.675 410.364H417.681Z" fill="#821E23"/>
<path d="M407.558 406.33C405.674 411.154 403.794 415.984 401.911 420.814C401.51 421.827 400.547 422.537 399.422 422.222C398.453 421.958 397.613 420.755 398.008 419.736C399.897 414.906 401.777 410.082 403.66 405.249C404.053 404.239 405.012 403.529 406.15 403.841C407.112 404.105 407.959 405.305 407.558 406.33Z" fill="#821E23"/>
<path d="M357.026 897.479C366.24 913.228 375.464 928.975 384.684 944.715C387.286 949.162 389.886 953.603 392.488 958.047C393.801 960.29 390.313 962.33 389 960.082C379.78 944.338 370.562 928.594 361.336 912.851C358.74 908.404 356.141 903.963 353.536 899.519C352.217 897.271 355.707 895.23 357.023 897.479H357.026Z" fill="#821E23"/>
<path d="M336.591 896.634C341.008 906.547 345.428 916.462 349.839 926.387C350.285 927.385 350.133 928.558 349.118 929.149C348.256 929.654 346.794 929.426 346.352 928.422C341.938 918.503 337.521 908.594 333.104 898.675C332.664 897.677 332.815 896.501 333.831 895.91C334.693 895.408 336.148 895.633 336.591 896.637V896.634Z" fill="#821E23"/>
<path d="M324.745 911.104C328.253 921.451 332.806 931.402 338.302 940.851C339.609 943.106 336.116 945.14 334.809 942.886C329.147 933.148 324.468 922.841 320.85 912.174C320.497 911.143 321.248 909.97 322.264 909.69C323.369 909.384 324.394 910.062 324.745 911.104Z" fill="#821E23"/>
<path d="M664.751 642.453C666.316 650.884 667.891 659.314 669.456 667.744C669.655 668.819 669.156 669.925 668.042 670.233C667.062 670.504 665.761 669.895 665.562 668.82C663.988 660.389 662.422 651.965 660.857 643.529C660.658 642.459 661.148 641.354 662.265 641.042C663.251 640.772 664.546 641.375 664.751 642.45V642.453Z" fill="#821E23"/>
<path d="M656.028 653.653C656.687 658.376 657.335 663.099 657.982 667.825C658.128 668.901 657.724 669.994 656.574 670.312C655.63 670.57 654.237 669.988 654.091 668.898C653.437 664.181 652.784 659.454 652.133 654.731C651.988 653.65 652.398 652.563 653.547 652.242C654.489 651.984 655.879 652.569 656.028 653.656V653.653Z" fill="#821E23"/>
<path d="M646.344 664.85C648.729 671.766 649.02 679.305 647.273 686.398C646.65 688.923 642.755 687.854 643.373 685.323C644.956 678.898 644.603 672.17 642.443 665.926C642.093 664.889 642.85 663.713 643.857 663.439C644.968 663.13 645.987 663.811 646.341 664.847L646.344 664.85Z" fill="#821E23"/>
<path d="M639.3 713.263C637.711 718.533 636.134 723.8 634.556 729.063C633.808 731.553 629.907 730.489 630.656 727.994C632.239 722.724 633.817 717.461 635.4 712.194C636.145 709.708 640.043 710.762 639.3 713.263Z" fill="#821E23"/>
<path d="M640.479 596.746C642.074 601.458 642.653 606.531 642.154 611.483C642.047 612.564 641.301 613.5 640.137 613.5C639.127 613.5 638.001 612.576 638.114 611.483C638.592 606.81 638.087 602.26 636.581 597.819C636.237 596.788 636.979 595.609 637.995 595.332C639.094 595.026 640.125 595.704 640.482 596.746H640.479Z" fill="#821E23"/>
<path d="M631.112 606.743C631.112 610.429 631.112 614.119 631.112 617.805C631.112 618.866 630.182 619.873 629.095 619.822C628.001 619.775 627.078 618.937 627.078 617.805C627.078 614.119 627.078 610.429 627.078 606.743C627.078 605.689 628.007 604.676 629.095 604.726C630.188 604.777 631.112 605.611 631.112 606.743Z" fill="#821E23"/>
<path d="M673.375 589.34C666.445 583.114 659.506 576.888 652.576 570.664C651.759 569.937 651.83 568.552 652.576 567.807C653.384 566.996 654.617 567.076 655.433 567.807C662.364 574.027 669.303 580.256 676.233 586.476C677.05 587.207 676.976 588.594 676.233 589.34C675.425 590.145 674.192 590.074 673.375 589.34Z" fill="#D15259"/>
<path d="M673.147 602.259C667.405 597.467 661.651 592.667 655.903 587.879C655.062 587.175 655.181 585.743 655.903 585.021C656.732 584.186 657.92 584.317 658.767 585.021C664.509 589.813 670.262 594.607 676.01 599.401C676.851 600.099 676.732 601.537 676.01 602.259C675.182 603.094 673.993 602.957 673.147 602.259Z" fill="#D15259"/>
<path d="M98.8543 636.434C93.1747 639.776 87.489 643.123 81.8035 646.471C79.5548 647.79 77.52 644.3 79.7627 642.984C85.4423 639.636 91.1281 636.288 96.8196 632.946C99.0623 631.622 101.103 635.112 98.8543 636.434Z" fill="#D15259"/>
<path d="M84.9458 632.456C80.0534 631.746 74.9561 632.851 70.7083 635.353C68.4656 636.677 66.4248 633.19 68.6676 631.865C73.9194 628.77 80.0179 627.683 86.0183 628.55C87.0995 628.714 87.6965 630.083 87.4322 631.039C87.1114 632.201 86.0301 632.608 84.9458 632.453V632.456Z" fill="#D15259"/>
<path d="M691.233 916.004C682.752 906.065 673.82 896.518 664.466 887.396C662.6 885.581 665.464 882.723 667.33 884.538C676.684 893.663 685.616 903.208 694.097 913.147C694.801 913.982 694.914 915.188 694.097 916.001C693.369 916.729 691.949 916.836 691.233 916.001V916.004Z" fill="#D15259"/>
<path d="M677.805 923.039C670.474 915.099 663.143 907.153 655.818 899.21C655.072 898.411 655.028 897.143 655.818 896.352C656.566 895.604 657.93 895.547 658.672 896.352C666.004 904.298 673.329 912.239 680.654 920.182C681.391 920.99 681.447 922.243 680.654 923.039C679.909 923.788 678.542 923.85 677.802 923.039H677.805Z" fill="#D15259"/>
<path d="M564.981 438.633C554.905 440.956 544.823 443.275 534.744 445.598C533.678 445.842 532.558 445.272 532.258 444.19C531.981 443.169 532.602 441.954 533.666 441.704C543.748 439.384 553.832 437.061 563.908 434.732C564.969 434.492 566.095 435.059 566.395 436.146C566.677 437.159 566.059 438.383 564.981 438.63V438.633Z" fill="#D15259"/>
<path d="M562.721 450.689C556.417 451.343 550.102 451.99 543.799 452.641C542.712 452.754 541.776 451.637 541.776 450.624C541.776 449.433 542.706 448.714 543.799 448.607C550.102 447.948 556.417 447.3 562.721 446.652C563.808 446.54 564.744 447.659 564.744 448.669C564.744 449.861 563.814 450.579 562.721 450.692V450.689Z" fill="#D15259"/>
<path d="M31.7387 478.949C24.3808 479.591 17.011 480.23 9.64418 480.865C8.55697 480.961 7.6272 479.867 7.6272 478.848C7.6272 477.675 8.55697 476.921 9.64418 476.826C17.011 476.187 24.3808 475.545 31.7387 474.91C32.8318 474.815 33.7618 475.902 33.7618 476.933C33.7618 478.106 32.8318 478.86 31.7387 478.949Z" fill="#D15259"/>
<path d="M23.3008 490.316C19.1065 489.657 14.9149 489.003 10.7235 488.338C9.67494 488.175 8.99788 486.811 9.31573 485.852C9.6811 484.714 10.6731 484.268 11.796 484.444C15.9903 485.103 20.1818 485.757 24.3791 486.422C25.4277 486.585 26.0989 487.949 25.793 488.902C25.4217 490.04 24.4236 490.492 23.3037 490.316H23.3008Z" fill="#D15259"/>
<path d="M302.324 311.144C311.402 312.501 317.507 320.352 320.97 328.269C324.77 336.949 325.717 346.481 329.062 355.306C330.844 360.023 333.476 364.42 337.471 367.643C338.321 368.335 338.187 369.79 337.471 370.497C336.637 371.341 335.469 371.187 334.614 370.497C327.113 364.447 324.247 354.778 322.031 345.789C320.937 341.354 319.984 336.886 318.389 332.597C316.996 328.845 314.934 324.758 312.397 321.722C309.4 318.131 305.883 315.736 301.246 315.044C300.171 314.881 299.568 313.517 299.832 312.561C300.153 311.405 301.234 310.987 302.321 311.147L302.324 311.144Z" fill="#492405"/>
<path d="M134.647 378.632C133.07 380.738 131.487 382.847 129.91 384.953C129.577 385.387 129.25 385.725 128.698 385.883L127.141 385.681C126.713 385.399 126.33 384.989 126.211 384.469L126.413 382.909C127.996 380.803 129.574 378.694 131.157 376.594C131.478 376.154 131.816 375.816 132.363 375.664L133.92 375.866C134.353 376.139 134.737 376.564 134.849 377.072L134.647 378.632Z" fill="#492405"/>
<path d="M122.01 380.205C120.949 382.314 119.904 384.42 118.843 386.529C118.368 387.474 116.954 387.818 116.081 387.257C115.112 386.63 114.845 385.498 115.353 384.491C116.413 382.382 117.459 380.282 118.519 378.173C118.995 377.223 120.409 376.878 121.282 377.445C122.25 378.066 122.518 379.192 122.01 380.205Z" fill="#492405"/>
<path d="M137.505 353.166C135.928 355.806 134.356 358.444 132.782 361.076C132.235 361.988 130.937 362.401 130.016 361.804C129.101 361.219 128.709 360.013 129.294 359.038C130.866 356.401 132.44 353.769 134.017 351.131C134.558 350.225 135.862 349.806 136.786 350.403C137.692 350.988 138.087 352.194 137.508 353.166H137.505Z" fill="#492405"/>
<path d="M120.661 406.049C120.598 407.388 120.203 408.731 119.461 409.86C118.73 410.971 117.732 411.945 116.526 412.518C116.03 412.756 115.519 412.872 114.969 412.72L113.766 411.791C113.517 411.321 113.389 410.76 113.564 410.234L114.488 409.028L115.439 408.449L115.029 408.758L116.065 407.721L115.75 408.131L116.484 406.857L116.282 407.341L116.653 406.001L116.579 406.536L116.624 406.046C116.654 405.511 116.832 405.003 117.218 404.62L118.649 404.029C119.172 404.052 119.71 404.225 120.076 404.62C120.426 405.003 120.696 405.511 120.67 406.046L120.661 406.049Z" fill="#492405"/>
<path d="M363.955 684.505C349.925 674.081 334.161 666.055 317.455 660.895C308.98 658.281 300.223 656.264 291.392 655.281C282.397 654.283 273.043 654.452 264.512 657.767C257.079 660.658 250.105 666.266 247.036 673.731C246.62 674.738 245.696 675.454 244.553 675.145C243.602 674.88 242.726 673.668 243.145 672.655C246.24 665.119 252.243 659.261 259.474 655.623C267.853 651.407 277.359 650.302 286.636 650.837C296.037 651.384 305.424 653.276 314.472 655.807C323.259 658.257 331.817 661.492 340.051 665.407C349.18 669.753 357.88 674.981 365.995 681.017C366.869 681.665 367.314 682.764 366.717 683.783C366.215 684.641 364.837 685.158 363.958 684.505H363.955Z" fill="#492405"/>
<path d="M323.1 689.047C318.915 686.896 314.72 684.742 310.526 682.589C309.584 682.105 309.231 680.705 309.804 679.826C310.416 678.864 311.557 678.582 312.567 679.098C316.758 681.249 320.943 683.403 325.144 685.544C326.085 686.029 326.433 687.431 325.865 688.316C325.245 689.281 324.107 689.555 323.1 689.044V689.047Z" fill="#492405"/>
<path d="M316.214 698.865C312.804 699.254 309.097 697.71 306.979 695.01C306.632 694.57 306.382 694.166 306.382 693.578L306.979 692.146C307.707 691.481 309.139 691.261 309.837 692.146L310.541 692.945L310.924 693.299L311.105 693.456L311.019 693.394L311.904 693.979L312.374 694.225C312.519 694.3 313.06 694.49 312.48 694.288C313.14 694.516 313.775 694.715 314.462 694.846L314.331 694.828L314.569 694.852L315.091 694.876L316.211 694.819L317.637 695.414L318.228 696.839C318.205 697.362 318.035 697.912 317.637 698.271C317.221 698.66 316.77 698.803 316.211 698.865H316.214Z" fill="#492405"/>
<path d="M318.456 717.285C315.236 715.835 312.013 714.388 308.796 712.939C307.828 712.499 307.528 711.023 308.069 710.173C308.716 709.175 309.803 708.985 310.834 709.445C314.057 710.898 317.271 712.348 320.488 713.794C321.456 714.228 321.768 715.71 321.216 716.563C320.574 717.561 319.493 717.751 318.456 717.285Z" fill="#492405"/>
<path d="M351.574 707.981C348.942 706.392 346.311 704.802 343.685 703.219C342.773 702.678 342.36 701.383 342.957 700.457C343.542 699.545 344.748 699.15 345.719 699.729C348.351 701.312 350.983 702.901 353.612 704.485C354.515 705.037 354.937 706.326 354.334 707.25C353.755 708.156 352.543 708.557 351.571 707.978L351.574 707.981Z" fill="#492405"/>
<path d="M269.356 668.537C267.253 667.485 265.147 666.431 263.038 665.376C262.093 664.904 261.748 663.487 262.31 662.611C262.937 661.642 264.063 661.381 265.076 661.889C267.179 662.94 269.285 663.995 271.394 665.049C272.341 665.522 272.689 666.936 272.122 667.809C271.498 668.786 270.375 669.045 269.356 668.537Z" fill="#492405"/>
<path d="M283.399 695.654C281.857 694.549 280.313 693.45 278.768 692.345C278.334 692.03 277.987 691.671 277.838 691.139L278.04 689.58C278.322 689.146 278.732 688.769 279.252 688.65L280.805 688.852C282.356 689.957 283.895 691.062 285.445 692.164C285.879 692.479 286.224 692.835 286.375 693.37L286.173 694.929C285.891 695.36 285.472 695.737 284.961 695.859L283.402 695.651L283.399 695.654Z" fill="#492405"/>
<path d="M148.232 606.702C149.192 623.607 151.604 640.411 155.439 656.906C156.532 661.582 157.738 666.231 159.045 670.853C159.761 673.36 155.861 674.432 155.151 671.928C150.44 655.344 147.172 638.368 145.363 621.225C144.849 616.395 144.466 611.556 144.193 606.702C144.124 605.615 145.161 604.685 146.216 604.685C147.359 604.685 148.17 605.609 148.232 606.702Z" fill="#492405"/>
<path d="M515.205 768.318C510.254 784.156 502.195 798.92 491.617 811.69C488.688 815.228 485.554 818.599 482.251 821.793C480.379 823.602 477.522 820.744 479.399 818.929C490.91 807.802 500.175 794.449 506.632 779.784C508.43 775.705 509.974 771.499 511.308 767.245C512.074 764.765 515.983 765.825 515.199 768.318H515.205Z" fill="#492405"/>
<path d="M520.499 489.801C520.499 495.071 520.499 500.338 520.499 505.608C520.499 508.204 516.459 508.21 516.459 505.608C516.459 500.338 516.459 495.071 516.459 489.801C516.459 487.205 520.499 487.196 520.499 489.801Z" fill="#821E23"/>
<path d="M506.282 496.127C506.282 499.287 506.282 502.445 506.282 505.612C506.282 506.663 505.352 507.679 504.259 507.628C503.166 507.578 502.237 506.743 502.237 505.612C502.237 502.445 502.237 499.287 502.237 496.127C502.237 495.075 503.166 494.059 504.259 494.11C505.352 494.16 506.282 494.995 506.282 496.127Z" fill="#821E23"/>
<path d="M490.471 499.287C490.471 500.865 490.471 502.445 490.471 504.034C490.471 504.548 490.246 505.095 489.886 505.46L488.454 506.054C487.361 506.004 486.438 505.169 486.438 504.037C486.438 502.448 486.438 500.871 486.438 499.29C486.438 498.773 486.663 498.227 487.023 497.864L488.454 497.267C489.548 497.318 490.471 498.158 490.471 499.29V499.287Z" fill="#821E23"/>
<path d="M452.478 471.381C451.429 474.012 450.369 476.644 449.32 479.282L448.39 480.488L446.831 480.69C445.883 480.384 444.998 479.252 445.423 478.204C446.477 475.572 447.529 472.937 448.584 470.302L449.513 469.09L451.07 468.888C452.015 469.197 452.9 470.323 452.478 471.378V471.381Z" fill="#821E23"/>
</svg>
