<svg width="1920" height="962" viewBox="0 0 1920 962" fill="none" xmlns="http://www.w3.org/2000/svg">
<path d="M0 370.513H1920V48.6924C1920 48.6924 1819.33 31.6338 1767 30.741C1668.72 29.0644 1629.36 79.6165 1531 79.9508C1430.44 80.2926 1427.56 34.2024 1327 34.0286C1218.07 33.8402 1175.66 88.1614 1067 84.9605C974.817 82.2449 982.221 33.2241 890 30.741C824.806 28.9855 759.054 57.4631 694 59.9642C573.54 64.5954 414.875 40.3821 294 42.3781C205.647 43.837 184.124 60.8508 96 57.8246C39.2594 55.8762 0 49.0577 0 49.0577V370.513Z" fill="#F5F5F5"/>
<path d="M0 452.237H1920V94.9755C1920 94.9755 1842.33 68.6274 1790 67.6364C1691.72 65.7755 1652.36 108.042 1554 108.413C1453.44 108.793 1412.56 67.8294 1312 67.6364C1203.07 67.4274 1160.66 127.721 1052 124.168C959.817 121.154 930.221 70.3926 838 67.6364C772.806 65.688 731.054 93.5895 666 96.3656C545.54 101.506 486.875 65.421 366 67.6364C277.647 69.2558 205.124 105.748 117 102.389C60.2594 100.227 0 67.6364 0 67.6364V452.237Z" fill="url(#paint0_linear_1_38)"/>
<path opacity="0.3" d="M0 32.1577C0 32.1577 63.2919 77.3049 128 82.9857C216.699 90.7728 301.08 5.92312 390 1.26222C492.589 -4.11517 527.348 75.0324 630 71.0262C711.888 67.8304 784.37 13.9734 866 21.1948C968.486 30.2612 981.141 101.437 1084 103.915C1183.18 106.304 1210.97 36.0506 1310 30.1644C1412.81 24.0534 1471.61 102.07 1574 90.9588C1659.15 81.719 1698.42 17.6659 1784 21.1948C1845.01 23.7109 1920 86.9722 1920 86.9722" stroke="black" stroke-width="2" stroke-linecap="round" stroke-dasharray="1 8"/>
<path opacity="0.3" d="M0 41.1277C0 41.1277 78.2919 87.2715 143 92.9524C231.699 100.739 266.08 35.8223 355 31.1614C457.589 25.784 522.348 84.999 625 80.9928C706.888 77.797 749.37 33.9064 831 41.1277C933.486 50.1941 966.141 151.269 1069 153.747C1168.18 156.136 1205.97 65.9499 1305 60.0637C1407.81 53.9526 1456.61 141.935 1559 130.824C1644.15 121.584 1673.42 37.5988 1759 41.1277C1820.01 43.6438 1920 96.9389 1920 96.9389" stroke="black" stroke-width="2" stroke-linecap="round" stroke-dasharray="1 8"/>
<path d="M1920 544.379H0V907.227C0 907.227 100.665 926.461 153 927.467C251.28 929.358 290.641 872.361 389 871.984C489.558 871.599 492.44 923.565 593 923.761C701.927 923.973 744.342 862.727 853 866.336C945.183 869.397 937.779 924.668 1030 927.467C1095.19 929.447 1160.95 897.339 1226 894.519C1346.46 889.297 1505.12 916.597 1626 914.347C1714.35 912.702 1735.88 893.519 1824 896.931C1880.74 899.128 1920 906.816 1920 906.816V544.379Z" fill="#F5F5F5"/>
<path d="M1920 452.237H0V855.044C0 855.044 77.6654 884.751 130 885.868C228.28 887.967 267.641 840.311 366 839.893C466.558 839.465 507.44 885.651 608 885.868C716.927 886.104 759.342 818.124 868 822.13C960.183 825.528 989.779 882.761 1082 885.868C1147.19 888.065 1188.95 856.607 1254 853.477C1374.46 847.681 1433.12 888.366 1554 885.868C1642.35 884.043 1714.88 842.898 1803 846.685C1859.74 849.123 1920 885.868 1920 885.868V452.237Z" fill="url(#paint1_linear_1_38)"/>
<path opacity="0.3" d="M1920 925.87C1920 925.87 1856.71 874.967 1792 868.562C1703.3 859.782 1618.92 955.449 1530 960.704C1427.41 966.767 1392.65 877.529 1290 882.046C1208.11 885.649 1135.63 946.372 1054 938.23C951.514 928.008 938.859 847.759 836 844.965C736.824 842.27 709.03 921.481 610 928.117C507.187 935.007 448.39 847.045 346 859.572C260.855 869.99 221.575 942.209 136 938.23C74.9854 935.393 0 864.067 0 864.067" stroke="black" stroke-width="2" stroke-linecap="round" stroke-dasharray="1 8"/>
<path opacity="0.3" d="M1920 915.756C1920 915.756 1841.71 863.73 1777 857.325C1688.3 848.545 1653.92 921.738 1565 926.993C1462.41 933.056 1397.65 866.292 1295 870.809C1213.11 874.412 1170.63 923.898 1089 915.756C986.514 905.534 953.859 791.574 851 788.78C751.824 786.086 714.03 887.77 615 894.406C512.187 901.297 463.39 802.097 361 814.625C275.855 825.042 246.575 919.735 161 915.756C99.9854 912.92 0 852.83 0 852.83" stroke="black" stroke-width="2" stroke-linecap="round" stroke-dasharray="1 8"/>
<path fill-rule="evenodd" clip-rule="evenodd" d="M0 364.767V452.237V754.32C0 754.32 60.2594 691.831 117 687.684C163.719 684.27 206.053 702.331 248.686 720.52C286.469 736.641 324.487 752.861 366 754.32C424.748 756.384 468.801 741.102 512.396 725.978C558.498 709.984 604.086 694.168 666 699.234C689.165 701.13 702.173 693.451 717.537 684.381C745.32 667.98 780.808 647.03 898 669.914C1004.6 690.73 1007.53 629.1 1010.19 573.301C1012.07 533.831 1013.81 497.278 1052 494.884C1107.33 491.415 1145.48 519.69 1183.99 548.227C1221.1 575.73 1258.54 603.475 1312 603.278C1362.03 603.094 1397.29 583.558 1432.48 564.062C1468.01 544.374 1503.47 524.727 1554 525.092C1602.29 525.441 1636.35 545.151 1670.15 564.705C1705.2 584.983 1739.97 605.095 1790 603.278C1842.33 601.378 1920 550.858 1920 550.858V452.237V184.311C1920 184.311 1859.74 239.734 1803 243.412C1756.28 246.44 1713.95 230.421 1671.31 214.289C1633.53 199.991 1595.51 185.605 1554 184.311C1495.25 182.48 1451.2 196.034 1407.6 209.448C1361.5 223.633 1315.91 237.661 1254 233.168C1230.83 231.487 1217.83 238.297 1202.46 246.342C1174.68 260.888 1139.19 279.469 1022 259.172C915.402 240.711 912.467 295.372 909.811 344.862C907.931 379.869 906.191 412.288 868 414.412C812.669 417.489 774.515 392.411 736.009 367.101C698.898 342.708 661.459 318.099 608 318.274C557.966 318.437 522.706 335.764 487.519 353.056C451.985 370.518 416.525 387.944 366 387.619C317.713 387.31 283.646 369.829 249.846 352.485C214.795 334.5 180.033 316.663 130 318.274C77.6654 319.959 0 364.767 0 364.767Z" fill="#005546"/>
<defs>
<linearGradient id="paint0_linear_1_38" x1="0" y1="452.237" x2="744.622" y2="-695.259" gradientUnits="userSpaceOnUse">
<stop stop-color="#005546"/>
<stop offset="1" stop-color="#047460"/>
</linearGradient>
<linearGradient id="paint1_linear_1_38" x1="1920" y1="452.237" x2="1043.83" y2="1649.78" gradientUnits="userSpaceOnUse">
<stop stop-color="#005546"/>
<stop offset="1" stop-color="#047460"/>
</linearGradient>
</defs>
</svg>
