<svg width="1920" height="972" viewBox="0 0 1920 972" fill="none" xmlns="http://www.w3.org/2000/svg">
<path d="M-320 158.661H2240V866.153C2240 866.153 2105.78 903.655 2036 905.618C1904.96 909.303 1852.48 798.169 1721.33 797.435C1587.26 796.683 1583.41 898.008 1449.33 898.39C1304.1 898.804 1247.54 779.384 1102.67 786.421C979.756 792.391 989.628 900.159 866.667 905.618C779.741 909.477 692.073 846.871 605.333 841.373C444.72 831.192 233.167 884.423 72 880.035C-45.8034 876.827 -74.5013 839.424 -192 846.077C-267.654 850.36 -320 865.35 -320 865.35V158.661Z" fill="#F5F5F5"/>
<path d="M-320 -21H2240V764.404C2240 764.404 2136.45 822.328 2066.67 824.506C1935.63 828.598 1883.15 735.678 1752 734.862C1617.92 734.028 1563.41 824.082 1429.33 824.506C1284.1 824.966 1227.54 692.417 1082.67 700.227C959.756 706.854 920.294 818.447 797.333 824.506C710.408 828.79 654.739 767.451 568 761.348C407.386 750.048 329.167 829.377 168 824.506C50.1966 820.946 -46.5013 740.721 -164 748.105C-239.654 752.86 -320 824.506 -320 824.506V-21Z" fill="url(#paint0_linear_1_32)"/>
<path opacity="0.3" d="M-320 902.503C-320 902.503 -235.611 803.251 -149.333 790.762C-31.0673 773.643 81.4399 960.177 200 970.424C336.786 982.245 383.13 808.247 520 817.054C629.184 824.08 725.827 942.479 834.667 926.604C971.315 906.672 988.188 750.2 1125.33 744.752C1257.57 739.499 1294.63 893.945 1426.67 906.885C1563.75 920.319 1642.15 748.808 1778.67 773.234C1892.19 793.547 1944.57 934.362 2058.67 926.604C2140.02 921.072 2240 781.998 2240 781.998" stroke="black" stroke-width="2" stroke-linecap="round" stroke-dasharray="1 8"/>
<path opacity="0.3" d="M-320 882.783C-320 882.783 -215.611 781.34 -129.333 768.852C-11.0673 751.732 34.7732 894.446 153.333 904.693C290.119 916.515 376.464 786.336 513.333 795.143C622.517 802.169 679.161 898.659 788 882.783C924.648 862.851 968.188 640.649 1105.33 635.201C1237.57 629.948 1287.96 828.214 1420 841.154C1557.08 854.589 1622.15 661.167 1758.67 685.594C1872.19 705.907 1911.23 890.541 2025.33 882.783C2106.69 877.252 2240 760.088 2240 760.088" stroke="black" stroke-width="2" stroke-linecap="round" stroke-dasharray="1 8"/>
<path d="M2240 -21H-320V171.294C-320 171.294 -216.446 269.8 -146.667 273.505C-15.626 280.462 36.8542 122.442 168 121.055C302.077 119.637 356.586 272.783 490.667 273.505C635.903 274.286 692.456 48.8715 837.333 62.1543C960.244 73.4231 800 472.728 1042.67 403.433C1285.33 334.138 1265.26 470.98 1352 460.602C1512.61 441.384 1590.83 576.292 1752 568.009C1869.8 561.955 1966.5 425.523 2084 438.081C2159.65 446.166 2240 568.009 2240 568.009V-21Z" fill="#005546"/>
<defs>
<linearGradient id="paint0_linear_1_32" x1="-320" y1="-21" x2="1468.37" y2="1650.49" gradientUnits="userSpaceOnUse">
<stop stop-color="#005546"/>
<stop offset="1" stop-color="#047460"/>
</linearGradient>
</defs>
</svg>
