<svg width="522" height="665" viewBox="0 0 522 665" fill="none" xmlns="http://www.w3.org/2000/svg">
<path d="M300.681 535.924C308.664 537.475 315.984 531.224 320.939 524.773C325.898 518.324 330.44 510.775 338.033 507.857C348.986 503.643 360.597 510.805 371.406 515.366C387.026 521.953 404.282 523.245 420.805 527.034C437.328 530.817 454.352 538.031 463.321 552.422C458.366 558.925 448.797 558.993 440.635 558.588C387.459 555.959 332.65 559.339 283.963 580.888C281.061 566.477 282.834 551.162 288.952 537.799L300.681 535.926V535.924Z" fill="#F39E31"/>
<path d="M460.906 554.849C430.211 522.946 371.25 535.851 337.931 507.895L338.033 507.855C348.986 503.641 360.597 510.803 371.406 515.364C387.026 521.947 404.282 523.243 420.805 527.032C437.328 530.816 454.352 538.03 463.321 552.42C462.606 553.357 461.797 554.162 460.908 554.849H460.906Z" fill="#B03537"/>
<path d="M352.634 517.609C343.71 525.16 331.286 528.316 319.812 526.185C320.201 525.717 320.577 525.246 320.942 524.771C325.901 518.322 330.443 510.774 338.036 507.856C338.442 507.699 338.851 507.561 339.26 507.435L352.801 516.304L352.634 517.611V517.609Z" fill="#6B74B5"/>
<path d="M405.164 545.462C405.536 547.07 407.14 548.072 408.742 547.701C410.351 547.329 411.352 545.725 410.986 544.122C410.617 542.516 409.013 541.513 407.407 541.885C405.796 542.254 404.791 543.856 405.164 545.462Z" fill="#6B74B5"/>
<path d="M385.718 546.883C386.09 548.491 387.691 549.493 389.297 549.122C390.903 548.749 391.906 547.145 391.534 545.543C391.161 543.935 389.561 542.933 387.955 543.306C386.349 543.672 385.345 545.279 385.718 546.885V546.883Z" fill="#6B74B5"/>
<path d="M366.465 547.978C366.838 549.585 368.442 550.588 370.048 550.219C371.654 549.847 372.654 548.249 372.289 546.64C371.917 545.034 370.315 544.027 368.706 544.397C367.098 544.768 366.097 546.37 366.463 547.976L366.465 547.978Z" fill="#6B74B5"/>
<path d="M409.369 543.613C406.889 547.915 405.8 552.918 406.104 557.845L404.696 557.861C404.512 554.771 404.844 551.65 405.7 548.676C406.28 546.661 407.107 544.719 408.155 542.898C408.606 542.117 409.827 542.828 409.371 543.613H409.369Z" fill="white"/>
<path d="M388.994 545.43C388.038 549.68 387.706 554.046 387.982 558.372L386.578 558.444C386.298 553.966 386.648 549.45 387.638 545.057C387.834 544.172 389.196 544.549 388.994 545.43V545.43Z" fill="white"/>
<path d="M369.885 546.426C368.531 550.766 367.975 555.314 368.229 559.831L366.829 559.975C366.557 555.284 367.121 550.554 368.523 546.049C368.798 545.192 370.154 545.561 369.883 546.426H369.885Z" fill="white"/>
<path d="M319.595 547.648C320.841 553.051 326.232 556.424 331.636 555.178C337.041 553.93 340.412 548.541 339.166 543.133C337.921 537.728 332.529 534.355 327.122 535.603C321.718 536.85 318.343 542.24 319.595 547.648Z" fill="#6B74B5"/>
<path d="M442.624 543.208C437.616 546.681 434.208 552.273 433.144 558.255C435.646 558.351 438.145 558.459 440.641 558.584C447.326 558.916 454.957 558.93 460.222 555.347C455.59 549.357 449.289 544.642 442.183 542.008L442.624 543.208V543.208Z" fill="#6B74B5"/>
<path d="M459.281 555.937C454.178 549.922 447.568 545.338 440.474 541.915C432.117 537.877 423.066 535.386 413.993 533.563C403.641 531.486 393.138 530.251 382.777 528.204C372.313 526.133 361.934 523.197 352.541 518.026C347.161 515.067 342.008 511.364 336.49 508.532C336.991 508.286 337.502 508.06 338.033 507.857C338.661 507.617 339.29 507.413 339.921 507.244C343.454 509.205 346.877 511.418 350.3 513.473C354.786 516.171 359.441 518.502 364.361 520.317C369.423 522.181 374.644 523.583 379.909 524.735C390.528 527.056 401.338 528.348 412.025 530.327C421.352 532.047 430.589 534.461 439.293 538.278C447.715 541.979 455.648 547.184 461.572 554.298C460.863 554.925 460.094 555.468 459.281 555.937V555.937Z" fill="white"/>
<path d="M367.233 570.433C374.663 573.734 383.205 569.293 389.478 564.118C395.755 558.947 401.883 552.618 409.937 551.478C421.551 549.832 431.255 559.421 440.764 566.295C454.507 576.223 471.03 581.358 486.284 588.765C501.531 596.161 516.5 607.018 522 623.053C515.715 628.276 506.374 626.195 498.509 623.964C447.287 609.454 393.115 600.429 340.832 610.483C341.244 595.793 346.418 581.27 355.38 569.618L367.231 570.431L367.233 570.433Z" fill="#F39E31"/>
<path d="M519.106 624.879C496.362 586.896 436.017 586.219 409.829 551.494L409.937 551.478C421.555 549.832 431.255 559.421 440.764 566.295C454.507 576.223 471.03 581.358 486.284 588.761C501.531 596.161 516.5 607.02 522 623.055C521.095 623.808 520.123 624.409 519.104 624.879H519.106Z" fill="#B03537"/>
<path d="M421.967 564.261C411.57 569.615 398.76 569.895 388.063 565.241C388.546 564.872 389.018 564.496 389.479 564.117C395.756 558.946 401.885 552.617 409.938 551.478C410.368 551.415 410.797 551.373 411.224 551.341L422.423 563.026L421.969 564.261H421.967Z" fill="#6B74B5"/>
<path d="M466.9 603.206C466.9 604.859 468.24 606.193 469.886 606.193C471.538 606.193 472.872 604.861 472.872 603.206C472.872 601.562 471.538 600.22 469.886 600.22C468.242 600.22 466.9 601.562 466.9 603.206Z" fill="#6B74B5"/>
<path d="M447.626 600.22C447.626 601.872 448.96 603.206 450.613 603.206C452.263 603.206 453.599 601.872 453.599 600.22C453.599 598.573 452.263 597.235 450.613 597.235C448.96 597.235 447.626 598.573 447.626 600.22Z" fill="#6B74B5"/>
<path d="M428.628 596.964C428.628 598.612 429.961 599.95 431.614 599.95C433.262 599.95 434.596 598.614 434.596 596.964C434.596 595.316 433.262 593.98 431.614 593.98C429.961 593.98 428.628 595.314 428.628 596.964Z" fill="#6B74B5"/>
<path d="M471.398 602.365C468.017 605.994 465.842 610.623 465.031 615.486L463.655 615.185C464.17 612.137 465.193 609.173 466.69 606.469C467.711 604.623 468.963 602.908 470.403 601.366C471.018 600.701 472.013 601.7 471.398 602.365Z" fill="white"/>
<path d="M451.142 599.562C449.255 603.481 447.955 607.655 447.254 611.925L445.872 611.681C446.608 607.249 447.971 602.917 449.922 598.851C450.317 598.036 451.53 598.749 451.142 599.562V599.562Z" fill="white"/>
<path d="M432.296 596.235C430.005 600.155 428.447 604.457 427.682 608.907L426.286 608.733C427.075 604.092 428.695 599.604 431.077 595.528C431.537 594.747 432.755 595.452 432.296 596.235Z" fill="white"/>
<path d="M383.021 586.105C383.021 591.651 387.517 596.149 393.063 596.149C398.611 596.149 403.109 591.651 403.109 586.105C403.109 580.557 398.611 576.063 393.063 576.063C387.517 576.063 383.021 580.557 383.021 586.105Z" fill="#6B74B5"/>
<path d="M503.901 609.43C498.243 611.687 493.663 616.37 491.282 621.962C493.699 622.616 496.108 623.285 498.512 623.966C504.955 625.795 512.391 627.521 518.323 625.212C515.157 618.332 510.078 612.324 503.745 608.158L503.901 609.428V609.43Z" fill="#6B74B5"/>
<path d="M517.267 625.577C513.496 618.345 507.918 612.248 501.503 607.199C493.99 601.283 485.404 596.773 476.684 592.925C467.073 588.681 457.167 585.116 447.611 580.74C438.062 576.37 428.883 571.133 421.094 564.023C416.784 560.085 412.776 555.595 408.272 551.791C408.819 551.663 409.372 551.557 409.936 551.479C410.605 551.385 411.266 551.329 411.923 551.305C414.759 553.866 417.447 556.622 420.147 559.248C423.802 562.801 427.647 566.075 431.875 568.923C436.257 571.868 440.892 574.413 445.641 576.712C455.218 581.347 465.222 585.002 475.01 589.156C483.996 592.967 492.811 597.347 500.724 603.107C508.453 608.725 515.358 615.687 519.759 624.245L519.885 624.489C519.048 624.942 518.174 625.301 517.269 625.577H517.267Z" fill="white"/>
<path d="M193.549 387.132C127.857 445.226 119.737 442.608 93.2 453.956C60.2478 468.048 24.0489 485.41 11.4913 518.974C-1.19055 552.871 19.7629 595.321 54.3835 605.87C72.0583 611.253 91.051 609.064 109.369 606.591C177.677 597.358 245.538 584.798 312.63 568.97C309.982 556.188 308.627 543.146 308.59 530.095C237.399 537.476 165.127 534.363 94.8343 520.888L284.745 465.004L277.963 392.925L193.549 387.13V387.132Z" fill="#821E23"/>
<path d="M297.786 386.05C308.435 402.143 316.478 449.804 320.167 468.75C323.852 487.693 321.505 508.398 310.594 524.32C302.258 536.479 289.696 544.985 277.341 553.035C240.195 577.245 202.118 600.025 163.219 621.319C190.327 604.1 217.914 586.66 248.777 577.769C270.578 571.495 293.378 569.674 316.007 568.074C334.982 566.732 353.959 565.512 372.951 564.427C373.901 578.45 372.303 592.636 368.241 606.093C311.547 630.329 252.162 648.27 191.533 659.468C161.258 665.064 127.653 668.365 101.807 651.641C77.7027 636.045 66.1526 605.232 68.8544 576.646C71.5562 548.068 86.7274 521.813 106.267 500.777C125.81 479.748 149.65 463.267 173.281 446.958C192.276 433.857 166.415 385.035 185.408 371.932L297.786 386.052V386.05Z" fill="#B03537"/>
<path d="M232.531 583.897C223.331 586.847 214.234 590.132 205.279 593.757C196.331 597.378 187.528 601.346 178.878 605.63C173.991 608.055 169.159 610.581 164.38 613.202C162.788 614.077 161.366 611.644 162.958 610.771C171.492 606.086 180.2 601.716 189.06 597.684C197.967 593.637 207.024 589.908 216.207 586.535C221.36 584.642 226.551 582.858 231.78 581.181C232.505 580.949 233.319 581.454 233.513 582.165C233.721 582.926 233.258 583.667 232.533 583.897H232.531Z" fill="#821E23"/>
<path d="M358.833 567.429C357.824 578.653 356.638 589.861 355.262 601.044C354.879 604.205 354.473 607.367 354.058 610.526C353.956 611.281 353.477 611.934 352.648 611.934C351.965 611.934 351.136 611.285 351.238 610.526C352.712 599.354 354.008 588.158 355.118 576.944C355.43 573.774 355.729 570.599 356.015 567.429C356.083 566.672 356.616 566.019 357.425 566.019C358.132 566.019 358.899 566.67 358.833 567.429V567.429Z" fill="#821E23"/>
<path d="M228.959 584.575C220.373 584.292 211.775 584.571 203.225 585.422C194.727 586.261 186.292 587.677 177.984 589.638C173.279 590.747 168.615 592.037 164.006 593.489C162.274 594.036 161.533 591.316 163.257 590.773C171.483 588.174 179.878 586.123 188.374 584.633C196.96 583.129 205.643 582.177 214.351 581.813C219.218 581.616 224.093 581.596 228.959 581.757C230.768 581.813 230.776 584.633 228.959 584.573V584.575Z" fill="#821E23"/>
<path d="M247.493 414.95C250.738 420.374 254.964 425.148 259.886 429.122C264.761 433.051 270.383 436.16 276.291 438.191C279.62 439.33 283.173 440.194 286.596 440.626C287.349 440.726 288.002 441.209 288.002 442.036C288.002 442.723 287.351 443.54 286.596 443.446C279.921 442.595 273.474 440.566 267.509 437.444C261.661 434.389 256.303 430.3 251.845 425.437C249.288 422.661 247.004 419.613 245.064 416.372C244.132 414.806 246.568 413.392 247.495 414.952L247.493 414.95Z" fill="#821E23"/>
<path d="M285.313 408.684C290.318 423.869 295.47 440.48 290.222 456.323C285.604 470.26 274.707 481.003 264.228 490.783C253.07 501.19 241.25 510.855 229.407 520.463C217.628 530.026 205.794 539.54 194.528 549.714C188.89 554.801 183.4 560.052 178.149 565.53C173.008 570.892 167.891 576.411 163.707 582.566C159.771 588.356 156.286 594.993 155.523 602.061C154.828 608.47 156.687 614.867 161.245 619.52C165.311 623.672 170.839 625.993 176.412 627.327C182.643 628.813 189.046 629.047 195.425 628.865C211.952 628.39 228.289 625.362 244.236 621.092C260.23 616.808 275.862 611.296 291.42 605.67C307.825 599.738 324.212 593.782 340.611 587.835C344.623 586.383 348.638 584.925 352.658 583.469C354.364 582.85 355.097 585.57 353.403 586.187C336.788 592.21 320.174 598.236 303.555 604.261C287.679 610.017 271.82 615.889 255.646 620.768C239.711 625.572 223.426 629.382 206.839 630.964C193.681 632.222 179.008 632.931 166.813 626.894C161.467 624.247 156.935 620.041 154.534 614.525C151.738 608.096 152.186 600.95 154.428 594.427C156.815 587.489 160.865 581.232 165.439 575.542C170.192 569.626 175.477 564.102 180.853 558.763C191.734 547.941 203.458 538.016 215.325 528.3C227.236 518.55 239.315 508.999 250.945 498.919C256.727 493.908 262.411 488.77 267.867 483.411C273.11 478.258 278.151 472.812 282.127 466.597C286.207 460.226 288.955 453.136 289.501 445.55C290.102 437.244 288.456 428.984 286.219 421.025C285.121 417.128 283.867 413.274 282.602 409.429C282.035 407.705 284.755 406.967 285.317 408.682L285.313 408.684Z" fill="#821E23"/>
<path d="M316.628 151.789C395.507 175.945 406.909 243.265 399.853 287.786C400.225 287.684 337.962 268.239 337.962 268.239C333.171 242 339.494 197.301 334.701 171.062L316.628 151.789V151.789Z" fill="#6B74B5"/>
<path d="M304.976 20.2788C305.028 16.6778 306.899 13.307 309.338 10.6593C314.912 4.61077 323.875 1.80286 331.826 3.88579C339.785 5.96671 346.302 12.9805 347.51 21.1119C348.717 29.2494 344.367 37.9957 337.015 41.6849C331.457 44.4768 324.85 44.3806 318.759 43.1209C316.154 42.5861 313.536 41.821 311.373 40.2709C306.841 37.0263 305.23 31.1361 303.926 25.7205L304.976 20.2788V20.2788Z" fill="#B03537"/>
<path d="M337.413 309.287C320.106 335.009 314.248 366.463 307.014 396.612C306.223 399.912 305.286 403.419 302.744 405.673C300.703 407.481 297.941 408.184 295.298 408.833C259.954 417.485 222.199 426.051 187.879 413.97C185.355 413.077 182.794 412.033 180.919 410.129C178.738 407.914 177.759 404.825 176.839 401.857C167.296 370.856 157.743 339.852 148.191 308.849C143.278 292.906 138.351 275.818 143.142 259.842C147.586 245.013 159.685 233.827 172.047 224.512C187.248 213.048 204.08 203.034 222.746 199.295L337.415 309.285L337.413 309.287Z" fill="#6B74B5"/>
<path d="M308.95 173.14C267.174 160.04 220.156 152.95 180.802 172.149C142.463 190.853 114.605 235.556 106.68 277.471C119.12 282.84 137.133 279.708 150.306 282.854C167.239 286.9 182.843 295.138 199.326 300.757C238.938 314.26 282.229 312.179 323.481 305.154C327.28 284.4 331.077 263.649 334.875 242.898C338.59 222.606 340.795 197.925 324.693 185.029L308.95 173.14V173.14Z" fill="#6B74B5"/>
<path d="M325.273 331.592C323.487 331.322 321.73 330.885 320.044 330.278C310.066 326.691 302.445 318.295 297.354 308.994C293.693 302.309 290.314 294.288 283.062 291.932C275.463 289.459 267.62 294.58 261.588 299.82C257.328 303.513 252.966 307.973 252.583 313.599C252.116 320.36 257.48 325.958 262.443 330.579C268.317 336.064 274.193 341.544 280.072 347.03C282.359 349.159 284.744 351.464 285.501 354.488C286.637 359.071 283.587 363.751 279.753 366.505C275.924 369.253 271.323 370.705 267.254 373.094C252.88 381.532 248.517 401.602 255.003 416.878C268.57 414.743 282.105 411.524 295.303 408.296C297.949 407.645 300.709 406.938 302.75 405.131C305.291 402.882 306.229 399.371 307.02 396.071C312.225 374.38 316.717 352.015 325.273 331.594V331.592Z" fill="#2F3866"/>
<path d="M146.31 197.918C156.907 203.496 166.929 210.169 176.154 217.814C185.655 225.687 194.698 235.268 197.347 247.319C199.995 259.374 193.806 274.051 181.785 276.843C175.453 278.315 166.186 278.417 165.749 284.904C165.623 286.789 166.482 288.587 167.325 290.273C171.375 298.359 175.767 306.801 175.445 315.835C175.068 326.382 167.594 335.619 157.96 340.007L148.194 308.305C145.463 299.44 142.731 290.223 141.663 281.037C133.454 280.374 124.405 280.716 116.326 279.504L120.95 235.064C127.663 221.573 136.233 208.837 146.312 197.914L146.31 197.918Z" fill="#2F3866"/>
<path d="M303.502 170.929C300.814 172.305 298.381 174.186 296.392 176.489C291.275 182.415 290.031 190.484 288.561 197.901C287.858 201.462 287.101 205.017 285.757 208.396C284.53 211.488 282.923 214.436 280.764 216.978C278.725 219.383 276.14 221.36 273.14 222.381C270.103 223.419 266.843 223.349 263.881 222.123C258.159 219.756 253.746 213.613 254.223 207.298C254.485 203.757 256.404 200.699 258.014 197.626C259.609 194.57 260.936 191.149 259.522 187.759C258.227 184.658 255.272 182.515 252.314 181.143C248.709 179.475 244.69 178.912 240.912 177.759C237.299 176.653 233.959 174.961 231.339 172.185C228.923 169.627 227.183 166.409 226.42 162.968C226.21 162.02 226.081 161.073 226.025 160.13L227.419 160.046C227.844 166.693 232.188 172.689 238.301 175.327C242.016 176.931 246.067 177.52 249.909 178.736C253.129 179.753 256.292 181.35 258.613 183.865C260.912 186.355 261.99 189.553 261.351 192.912C260.686 196.407 258.513 199.389 257.029 202.559C256.338 204.033 255.771 205.594 255.637 207.228C255.507 208.74 255.695 210.252 256.14 211.7C257.021 214.602 258.906 217.216 261.317 219.045C263.73 220.873 266.712 221.939 269.753 221.686C272.841 221.432 275.733 219.92 277.99 217.845C282.929 213.312 285.255 206.717 286.634 200.33C288.235 192.936 289.094 185.071 293.178 178.514C295.269 175.159 298.199 172.371 301.593 170.372L303.504 170.935L303.502 170.929Z" fill="#2F3866"/>
<path d="M202.029 417.254C201.731 415.023 201.648 412.764 201.785 410.523C202.017 406.69 202.876 402.912 204.372 399.379C205.762 396.113 207.731 393.164 209.968 390.423C214.31 385.095 219.57 380.623 224.144 375.51C228.476 370.661 232.203 364.967 232.502 358.284C232.704 353.731 231.462 349.101 229.656 344.955C228.164 341.52 225.895 338.073 222.147 336.889C218.462 335.718 214.561 337.008 211.364 338.904C207.933 340.939 205.26 343.805 202.568 346.701C200.004 349.463 197.378 352.267 194.168 354.292C192.588 355.291 190.847 356.082 189.027 356.537C186.858 357.072 184.601 357.142 182.381 356.968C177.871 356.617 173.439 355.359 168.886 355.486C166.896 355.54 164.923 355.886 163.024 356.479L162.61 355.131C166.297 353.989 170.078 353.899 173.906 354.396C178.416 354.983 183.062 356.209 187.621 355.399C191.514 354.709 194.767 352.451 197.595 349.792C200.453 347.102 202.902 344.005 205.786 341.35C208.696 338.672 212.205 336.323 216.101 335.411C219.89 334.526 223.776 335.305 226.68 337.969C229.678 340.717 231.288 344.771 232.47 348.57C233.788 352.81 234.364 357.284 233.491 361.674C232.852 364.865 231.484 367.879 229.726 370.607C225.983 376.409 220.721 381.035 215.927 385.94C213.513 388.414 211.154 390.973 209.145 393.797C206.976 396.856 205.308 400.204 204.308 403.821C203.082 408.258 202.806 412.968 203.477 417.535C202.992 417.447 202.51 417.356 202.025 417.262L202.029 417.254Z" fill="#2F3866"/>
<path d="M375.785 189.022C367.958 192.711 361.397 199.138 357.784 207.015C356.953 208.84 356.254 210.813 356.47 212.802C356.835 216.224 359.719 218.762 362.507 220.777C370.163 226.301 379.52 231.828 380.956 241.157C382.062 248.362 377.856 255.618 379.076 262.802C380.003 268.253 384.091 272.858 389.076 275.259C392.791 277.05 396.943 277.721 401.087 277.635C403.474 249.84 398.313 215.9 375.787 189.02L375.785 189.022Z" fill="#2F3866"/>
<path d="M235.245 215.588C229.691 210.04 220.997 206.834 213.813 209.992C206.625 213.149 203.521 224.132 209.467 229.259C214.524 233.614 223.691 232.636 226.637 238.629C228.175 241.763 227.158 245.586 225.373 248.583C223.587 251.585 221.091 254.114 219.359 257.143C216.551 262.051 215.994 268.276 218.229 273.47C220.466 278.659 225.578 282.604 231.212 283.081C233.308 283.257 235.544 282.937 237.202 281.641C242.491 277.505 237.943 268.164 241.77 262.644C245.654 257.044 256.06 258.34 258.53 251.991C259.403 249.748 258.898 247.227 258.213 244.923C255.109 234.433 248.366 225.062 239.413 218.779L235.245 215.588V215.588Z" fill="#2F3866"/>
<path d="M360.248 250.38C354.386 254.776 346.3 255.958 339.38 253.602C338.309 253.238 337.29 252.787 336.314 252.271L336.244 250.622C338.585 251.946 341.123 252.845 343.827 253.2C347.528 253.683 351.335 253.208 354.802 251.836C356.49 251.169 358.081 250.256 359.533 249.164C360.262 248.621 360.961 249.841 360.248 250.38V250.38ZM333.392 250.46C329.783 247.906 326.675 244.58 323.386 241.646C321.077 239.595 318.573 237.606 315.669 236.468C312.585 235.263 309.238 235.131 306.096 236.218C302.809 237.35 300.029 239.649 297.78 242.247C295.349 245.054 293.46 248.333 292.05 251.76C290.486 255.571 289.45 259.761 290.534 263.841C291.305 266.753 293.043 269.246 295.241 271.273C300.019 275.679 306.504 278.033 312.653 279.791C316.004 280.749 319.633 281.694 322.194 284.209C324.486 286.469 324.992 289.601 325.677 292.623L325.086 295.846C324.514 294.063 324.143 292.249 323.724 290.426C323.284 288.483 322.643 286.635 321.195 285.211C319.937 283.967 318.311 283.14 316.669 282.521C315.008 281.894 313.296 281.454 311.599 280.953C309.969 280.474 308.355 279.949 306.763 279.361C303.602 278.187 300.49 276.785 297.668 274.922C295.062 273.206 292.671 271.075 291.003 268.411C289.126 265.405 288.367 261.854 288.779 258.339C289.266 254.201 290.956 250.158 293.019 246.569C294.852 243.39 297.165 240.398 300.033 238.093C302.771 235.89 306.006 234.327 309.551 234.085C312.791 233.859 315.982 234.81 318.772 236.432C324.427 239.719 328.447 245.092 333.666 248.946L333.388 250.464L333.392 250.46ZM328.239 299.943C330.176 303.989 332.841 307.684 336.044 310.829L335.277 312.041C331.978 308.858 329.22 305.111 327.193 301.005C326.625 299.849 326.108 298.668 325.655 297.464L328.241 299.943H328.239Z" fill="#2F3866"/>
<path d="M201.24 164.062C201.402 166.185 201.426 168.32 201.31 170.447C200.879 178.205 196.896 187.35 189.145 187.929C185.638 188.191 182.245 186.541 178.73 186.463C171.22 186.289 163.627 193.128 156.968 189.654C156.479 189.399 156.022 189.099 155.596 188.758C163.335 181.853 171.776 176.01 180.801 171.61C187.418 168.382 194.252 165.9 201.24 164.064V164.062Z" fill="#2F3866"/>
<path d="M346.685 212.32C353.074 251.483 328.179 346.278 294.621 365.355C261.066 384.427 216.123 378.904 187.787 352.216C177.004 342.062 167.958 328.883 154.27 323.74C150.611 322.364 146.375 321.359 144.3 317.938C142.251 314.571 143.147 310.199 144.11 306.346C150.215 281.865 156.323 257.395 162.43 232.919C164.379 225.11 166.712 216.684 172.939 211.859C178.08 207.882 184.903 207.179 191.312 207.447C205.655 208.048 219.812 212.863 231.721 221.186C235.911 224.116 236.58 226.257 241.585 226.98C246.592 227.695 256.464 199.103 256.228 193.862L346.683 212.32H346.685Z" fill="#F39E31"/>
<path d="M165.205 106.684C169.338 103.948 174.726 102.592 177.314 98.3659C179.328 95.0873 179.064 90.9716 179.689 87.1763C180.973 79.3573 186.539 72.3774 193.879 69.3872C198.624 67.4565 204.087 67.04 208.161 63.9316C215.099 58.6502 215.011 48.2676 219.301 40.6789C219.725 39.9239 220.202 39.2009 220.723 38.5139L219.016 39.1407C223.222 31.6562 227.518 24.0737 233.621 18.0252C239.719 11.9807 247.957 7.56647 256.535 7.96103C259.98 8.12125 263.346 9.04052 266.777 9.385C269.145 9.61733 271.526 9.57923 273.905 9.54118C275.055 9.52115 276.205 9.5032 277.35 9.51722C285.339 9.60534 293.665 11.3878 299.756 16.5571C302.632 19.0045 304.885 22.0969 307.647 24.6725C312.566 29.2649 318.905 32.0509 324.07 36.3589C331.757 42.7639 336.501 52.5636 336.768 62.5637C336.996 71.0095 334.252 79.8619 337.441 87.6889C339.8 93.475 345.221 98.0615 345.822 104.288C346.475 111.07 341.224 116.766 336.996 122.111C335.458 124.056 333.96 126.207 333.739 128.681C333.319 133.425 337.573 137.176 339.211 141.651C341.891 148.995 337.248 156.742 333.531 163.62C329.812 170.501 327.214 179.926 332.792 185.404C305.96 182.893 278.818 180.321 253.37 171.451C242.904 167.799 232.832 163.115 222.774 158.442C213.609 154.182 204.446 149.924 195.281 145.664C195.726 140.908 196.344 136.173 197.139 131.462C195.107 135.536 193.074 139.612 191.037 143.688C189.258 142.858 187.478 142.031 185.699 141.208C186.304 137.621 186.915 134.042 187.518 130.459C185.934 133.601 184.171 136.652 182.249 139.604C181.572 139.287 180.893 138.973 180.214 138.659C179.891 134.581 179.567 130.513 179.24 126.443C176.927 129.235 174.78 132.169 172.811 135.216C167.592 132.788 162.369 130.357 157.147 127.934C155.054 120.119 158.457 111.148 165.207 106.684H165.205Z" fill="#B03537"/>
<path d="M205.543 84.7541C197.941 99.7511 192.972 118.774 202.467 132.649C208.82 141.922 227.31 151.147 227.212 148.804C227.208 148.728 225.043 162.866 225.762 168.852C227.232 181.033 237.414 190.296 249.679 190.607C261.853 190.917 272.437 182.317 274.626 170.34C276.755 158.658 279.031 144.864 279.513 136.853C289.331 140.576 301.196 144.065 309.608 137.78C315.226 133.581 317.423 125.539 315.181 118.886C312.946 112.237 306.663 107.268 299.744 106.094C306.589 93.8989 300.721 82.8234 307.565 70.6262C278.408 55.0884 261.965 38.427 232.808 22.8872C232.808 22.8872 213.15 69.759 205.547 84.752L205.543 84.7541Z" fill="#FAC7B2"/>
<path d="M271.514 43.6591C269.705 50.3425 271.42 57.4245 273.258 64.0998C277.528 79.6176 283.513 96.3111 297.384 104.481C300.777 106.479 304.873 107.881 308.638 106.722C312.403 105.56 315.177 100.936 313.254 97.5007C311.712 94.7549 308.185 93.9819 305.075 93.4892C306.181 95.2056 308.654 95.5861 310.577 94.8911C312.491 94.1962 313.99 92.686 315.406 91.2159C317.523 89.0088 319.726 86.5614 320.078 83.5292C320.459 80.2786 318.502 77.0621 315.796 75.2195C313.092 73.3729 309.748 72.6979 306.477 72.4756C311.7 69.8919 312.335 61.8988 308.582 57.4385C304.833 52.9783 298.286 51.7745 292.551 52.826C293.262 47.9432 290.569 42.7579 286.169 40.5248C281.768 38.2936 275.986 39.1869 272.467 42.6437L271.514 43.6591Z" fill="#B03537"/>
<path d="M275.486 44.5229C259.157 51.7571 240.939 57.3148 223.893 52.2397C218.023 50.4912 212.295 47.3308 208.718 42.1295C205.143 36.9222 204.208 29.4057 207.606 24.0682C210.999 18.7267 219.119 17.0544 223.453 21.5727C223.583 15.5322 230.378 11.2763 235.918 12.8765C241.458 14.4768 245.155 20.4191 245.808 26.4255C250.489 21.6849 259.409 23.253 262.369 29.3396C262.978 30.5893 263.421 32.0494 264.534 32.8204C265.666 33.5995 267.128 33.4393 268.478 33.4574C273.375 33.5375 278.716 38.5065 276.695 43.2031L275.484 44.525L275.486 44.5229Z" fill="#B03537"/>
<path d="M307.53 120.22C304.003 119.335 300.045 120.621 296.891 122.189C293.722 123.765 290.888 125.92 288.237 128.247C287.556 128.844 286.554 127.849 287.237 127.252C290.075 124.767 293.12 122.437 296.534 120.801C299.957 119.153 304.111 117.909 307.902 118.864C308.784 119.085 308.407 120.445 307.53 120.22V120.22Z" fill="#BF8271"/>
<path d="M301.394 126.79C299.484 125.246 297.307 124.012 295.007 123.149C294.649 123.016 294.41 122.674 294.517 122.283C294.607 121.941 295.025 121.656 295.38 121.789C297.925 122.742 300.277 124.088 302.39 125.79V126.79H301.394V126.79Z" fill="#BF8271"/>
<path d="M267.912 107.537C268.064 106.455 267.788 105.151 267.233 104.122C266.628 102.982 265.767 102.075 264.624 101.474C262.392 100.292 259.376 100.673 257.405 102.283C256.817 102.762 255.989 102.856 255.415 102.283C254.918 101.784 254.822 100.771 255.415 100.288C258.377 97.865 262.603 97.2161 266.046 99.0387C269.376 100.805 271.147 104.617 270.632 108.29C270.526 109.041 269.568 109.451 268.9 109.269C268.09 109.049 267.808 108.296 267.916 107.537H267.912Z" fill="#141515"/>
<path d="M227.971 85.1132C228.123 84.0297 227.841 82.7259 227.294 81.6964C226.683 80.5568 225.82 79.6496 224.681 79.0447C222.45 77.8671 219.433 78.2416 217.463 79.8539C216.874 80.3326 216.049 80.4307 215.468 79.8539C214.973 79.3572 214.879 78.3458 215.468 77.8631C218.438 75.4397 222.656 74.7847 226.103 76.6133C229.431 78.3798 231.206 82.1912 230.689 85.8623C230.583 86.6174 229.622 87.0279 228.957 86.8456C228.144 86.6253 227.867 85.8703 227.973 85.1132H227.971Z" fill="#141515"/>
<path d="M248.086 82.6126C243.94 88.8894 239.508 94.9719 234.811 100.846L233.956 100.956C232.065 99.8888 230.173 98.8174 228.276 97.7499C227.343 97.2231 226.418 96.6403 225.458 96.1576C225.018 95.9373 224.835 95.9934 224.683 96.4381C224.547 96.8366 224.535 97.2732 224.501 97.6878C224.166 101.848 224.573 106.039 225.666 110.067C225.905 110.944 224.545 111.321 224.307 110.444C223.329 106.843 222.874 103.087 222.999 99.3541C223.031 98.4648 223.063 97.5616 223.193 96.6823C223.291 96.0174 223.523 95.3064 224.098 94.8999C224.781 94.4132 225.572 94.6255 226.259 94.994C227.114 95.4507 227.942 95.9433 228.787 96.418C230.752 97.5236 232.708 98.6331 234.673 99.7387L233.818 99.8488C238.442 94.0667 242.796 88.0742 246.872 81.8956C247.371 81.1445 248.591 81.8496 248.088 82.6106L248.086 82.6126Z" fill="#BF8271"/>
<path d="M237.477 117.735C230.996 119.155 223.974 117.556 218.681 113.559C217.165 112.419 215.797 111.109 214.623 109.615C214.064 108.916 215.056 107.909 215.615 108.624C219.506 113.549 225.567 116.573 231.831 116.831C233.606 116.904 235.372 116.755 237.109 116.381C237.99 116.187 238.367 117.542 237.477 117.737V117.735Z" fill="#BF8271"/>
<path d="M267.238 76.8013C264.975 76.4929 263.222 78.734 264.053 80.865C264.3 81.4959 264.612 82.1008 264.969 82.6676C266.15 84.5562 267.797 86.0944 269.353 87.6866C271.886 90.2742 274.228 93.0582 276.355 95.9963C275.974 92.3552 275.309 88.712 273.893 85.3433C272.473 81.9705 270.26 78.8623 267.236 76.8034L267.238 76.8013Z" fill="#B03537"/>
<path d="M240.258 61.8018C241.352 63.7866 239.938 66.2361 237.675 66.2441C236.98 66.2441 236.283 66.1759 235.604 66.0417C233.419 65.6171 231.39 64.6358 229.347 63.7626C226.014 62.3305 222.574 61.1489 219.069 60.2296C222.596 59.2682 226.235 58.5773 229.894 58.6794C233.549 58.7856 237.25 59.7249 240.258 61.8018V61.8018Z" fill="#B03537"/>
<path d="M295.292 100.682C296.752 102.925 295.17 106.021 292.956 107.518C290.741 109.01 288.013 109.554 285.71 110.906C281.25 113.52 278.937 119.318 280.373 124.283C281.186 120.51 283.892 117.197 287.421 115.643C291.02 114.055 295.24 114.255 298.761 112.509C302.954 110.428 305.54 105.507 304.873 100.874L295.292 100.68V100.682Z" fill="#B03537"/>
<path d="M218.344 39.479C216.587 45.8359 214.609 52.7276 209.588 57.3361C204.945 61.6041 198.606 62.8979 192.658 64.2819C189.692 64.9688 186.691 65.6878 183.89 66.8955C181.017 68.1272 178.476 69.8997 176.489 72.3291C172.249 77.5104 170.899 84.3 167.867 90.1402C165.059 95.5498 159.84 101.366 153.232 101.314C152.457 101.306 151.682 101.204 150.927 101.035C150.046 100.845 150.414 99.4853 151.304 99.6795C157.777 101.09 163.218 95.4917 166.137 90.3785C169.347 84.7406 170.635 78.1834 174.374 72.8139C176.161 70.2523 178.44 68.1413 181.184 66.6472C183.801 65.2172 186.673 64.3139 189.553 63.5809C195.322 62.1088 201.56 61.3017 206.601 57.9109C212.145 54.1757 214.539 47.6525 216.317 41.5018C216.549 40.7047 216.77 39.9057 216.994 39.1045C217.232 38.2293 218.594 38.6018 218.35 39.477L218.344 39.479Z" fill="#B03537"/>
<path d="M309.618 27.8188C316.89 29.0305 323.676 32.4193 329.254 37.21C334.845 42.0167 339.226 48.2635 341.719 55.2112C343.005 58.7823 343.722 62.5095 343.938 66.2968C344.197 70.8232 343.874 75.3615 344.128 79.8879C344.379 84.3401 345.33 88.6262 347.745 92.4215C350.037 96.0266 353.127 99.1269 354.972 103.018C358.166 109.756 356.92 118.156 352.154 123.84C351.565 124.547 350.916 125.199 350.219 125.804C349.536 126.397 348.541 125.406 349.22 124.809C354.667 120.07 356.754 111.997 354.357 105.195C352.989 101.306 350.105 98.1975 347.73 94.8989C346.488 93.1745 345.394 91.37 344.591 89.3892C343.794 87.4044 343.315 85.3135 343.029 83.1965C342.436 78.8224 342.66 74.4002 342.634 70.002C342.608 66.0545 342.298 62.175 341.244 58.3596C339.33 51.4479 335.462 45.1391 330.349 40.124C325.234 35.117 318.841 31.3858 311.865 29.7054C311 29.4971 310.125 29.3168 309.247 29.1726C308.354 29.0244 308.731 27.6685 309.62 27.8167L309.618 27.8188Z" fill="#B03537"/>
<path d="M307.764 27.7546C300.182 26.583 292.289 27.5945 285.215 30.5546C283.182 31.4018 281.221 32.4313 279.348 33.5929C278.577 34.0716 277.866 32.8518 278.633 32.3771C285.427 28.1572 293.39 25.896 301.383 25.868C303.644 25.864 305.9 26.0503 308.139 26.3948C309.032 26.531 308.656 27.8909 307.762 27.7527L307.764 27.7546Z" fill="#821E23"/>
<path d="M279.864 32.5042C284.294 33.7539 288.834 35.1799 292.473 38.108C295.692 40.6957 297.827 44.6612 297.656 48.8511C297.566 51.0882 296.763 53.2212 295.201 54.8434C295.095 54.4549 294.993 54.0604 294.891 53.6698C300.058 54.6071 305.361 56.3776 309.241 60.0668C312.629 63.2893 314.39 67.9519 313.659 72.6124C313.276 75.0679 312.079 77.3812 310.14 78.9574C309.974 78.5548 309.81 78.1543 309.643 77.7557C313.481 77.3611 317.436 78.9073 320.084 81.6992C322.82 84.5753 323.871 88.6069 323.176 92.4844C322.786 94.6755 321.812 96.7123 320.384 98.4027C320.218 98.0041 320.05 97.6015 319.888 97.201C323.691 97.5595 326.926 101.076 326.491 104.982C326.283 106.857 325.325 108.637 323.873 109.853C322.768 110.776 320.31 112.22 318.994 110.902C318.325 110.233 318.596 109.196 319.515 108.967C320.416 108.743 321.165 109.43 320.769 110.327C320.4 111.157 319.189 110.438 319.553 109.616C320.074 110.113 320.164 110.353 319.83 110.331H319.856L319.996 109.925L320.076 109.951C320.422 109.913 320.683 109.959 321.037 109.853C321.758 109.632 322.439 109.246 323.002 108.751C324.124 107.772 324.925 106.388 325.091 104.9C325.433 101.841 322.922 98.8974 319.886 98.611C319.263 98.5509 318.974 97.8899 319.389 97.4072C321.63 94.7595 322.477 91.0243 321.722 87.6456C320.951 84.2228 318.512 81.4569 315.323 80.0469C313.537 79.2598 311.58 78.9594 309.643 79.1577C309.058 79.2178 308.686 78.3285 309.151 77.9539C312.421 75.2902 313.03 70.7238 311.878 66.8484C310.529 62.298 306.689 59.2017 302.485 57.335C299.952 56.2135 297.236 55.5145 294.514 55.0198C293.969 54.9256 293.863 54.1965 294.206 53.8461C296.767 51.1783 296.691 47.0566 295.255 43.8541C293.579 40.1048 290.072 37.7375 286.405 36.1653C284.167 35.2079 281.822 34.519 279.487 33.858C278.614 33.6117 278.986 32.2558 279.864 32.4981V32.5042Z" fill="#821E23"/>
<path d="M277.793 32.4734C275.6 30.8792 274.641 28.3617 273.181 26.1746C272.44 25.061 271.502 24.0516 270.229 23.5529C268.767 22.9841 267.158 23.1464 265.678 23.579C263.856 24.1057 262.167 25.029 260.549 25.9944C260.058 26.2868 259.528 25.9002 259.486 25.3835C259.249 22.5154 257.695 19.7876 255.394 18.0612C253 16.2646 249.912 15.7018 247.016 16.4048C245.364 16.8114 243.832 17.5986 242.574 18.7382C242.225 19.0546 241.723 18.9865 241.464 18.5939C239.71 15.9342 237.194 13.9635 233.934 13.6811C230.841 13.4187 227.422 14.3279 225.165 16.539C224.034 17.6486 223.301 19.1407 223.555 20.7529C223.691 21.6382 222.339 22.0208 222.199 21.1255C221.606 17.3763 224.52 14.6024 227.727 13.2605C231.03 11.8825 235.049 11.7824 238.232 13.5309C240.09 14.5483 241.53 16.1405 242.68 17.889C242.315 17.8389 241.943 17.7908 241.574 17.7447C244.112 15.4415 247.611 14.36 251.008 14.8026C254.37 15.2432 257.306 17.234 259.123 20.08C260.142 21.6803 260.739 23.4988 260.894 25.3835C260.541 25.1872 260.187 24.9809 259.834 24.7786C262.698 23.0722 266.107 21.2797 269.554 21.9026C272.624 22.4574 274.224 25.063 275.652 27.5625C276.419 28.9084 277.226 30.3205 278.502 31.2518C279.231 31.7845 278.528 33.0022 277.795 32.4714L277.793 32.4734Z" fill="#821E23"/>
<path d="M277.37 34.5606C274.202 36.285 272.175 39.4734 271.242 42.8962C270.076 47.1822 270.661 51.7227 271.572 55.9967C273.316 64.1541 275.918 72.2195 279.623 79.704C281.69 83.8878 284.122 87.8914 286.938 91.6106C287.484 92.3316 286.261 93.0347 285.722 92.3217C280.509 85.436 276.675 77.611 273.859 69.4675C272.441 65.3618 271.276 61.1619 270.338 56.922C269.347 52.4477 268.67 47.7311 269.715 43.2067C270.639 39.1871 272.972 35.3537 276.661 33.3429C277.458 32.9103 278.169 34.1259 277.372 34.5585L277.37 34.5606Z" fill="#821E23"/>
<path d="M280.678 45.3293C279.808 52.7377 280.309 60.8572 284.613 67.2061C285.659 68.7523 286.934 70.2844 288.573 71.2137C290.095 72.0769 292.118 72.3433 293.626 71.2938C294.791 70.4807 295.292 68.6221 294.367 67.4364C293.417 66.2127 291.597 66.7294 290.669 67.6908C289.229 69.1869 289.919 71.5882 291.034 73.0583C292.382 74.8328 294.551 75.8101 296.512 76.7354C297.221 77.0739 296.766 77.9712 296.159 78.0513C294.807 78.2236 293.91 79.4272 293.55 80.6529C293.113 82.149 293.367 83.6551 294.227 84.947C295.236 86.4791 296.844 87.5226 298.454 88.3397C299.3 88.7643 300.187 89.2291 301.096 89.4794C301.423 89.5755 302.031 89.7297 302.232 89.3472L302.284 89.0888L302.22 89.0087C301.335 88.8225 301.711 87.4625 302.596 87.6528C303.419 87.8311 303.774 88.6583 303.652 89.4333C303.516 90.3026 302.843 90.8733 301.977 90.9674C300.926 91.0856 299.903 90.5549 298.971 90.1363C298.036 89.7177 297.121 89.2611 296.255 88.7123C294.655 87.6969 293.175 86.333 292.414 84.5645C291.787 83.1084 291.765 81.3699 292.326 79.8818C292.973 78.1534 294.291 76.8777 296.159 76.6414C296.037 77.078 295.919 77.5166 295.807 77.9512C293.748 76.9778 291.563 75.9364 290.095 74.1258C288.743 72.4655 287.956 70.1182 288.795 68.0432C289.472 66.3709 291.314 65.1632 293.135 65.3234C295.068 65.4977 296.333 67.2261 296.235 69.1148C296.133 71.1356 294.707 72.7038 292.775 73.1945C290.597 73.7533 288.416 72.9822 286.7 71.6343C284.97 70.2764 283.608 68.4117 282.524 66.5171C281.431 64.6064 280.617 62.5335 280.047 60.4065C278.743 55.5097 278.683 50.3384 279.272 45.3274C279.378 44.4421 280.788 44.4321 280.678 45.3274V45.3293Z" fill="#821E23"/>
<path d="M265.87 34.2661C263.096 41.7386 254.921 46.6455 247.017 45.3156C242.816 44.6086 238.518 41.5363 238.576 36.8697C238.602 34.6086 239.855 32.6939 241.261 31.0235C241.87 30.2985 242.595 29.1469 243.683 29.2791C244.666 29.4013 245.391 30.3807 245.734 31.2318C246.585 33.3408 245.603 35.5178 244.354 37.2302C243.08 38.9747 241.656 40.669 239.972 42.033C238.383 43.3208 236.537 44.3382 234.462 44.4684C232.657 44.5786 230.891 43.9337 229.553 42.732C226.961 40.3967 226.188 36.4331 226.753 33.1124C227.023 31.5202 227.965 29.219 229.905 29.229C231.998 29.2411 232.227 31.6344 231.642 33.1285C230.931 34.945 229.305 36.4792 227.73 37.5648C226.034 38.7424 223.997 39.4914 221.92 39.5435C218.045 39.6397 214.207 36.8477 213.456 32.9603C213.278 32.041 213.288 31.1257 213.486 30.2044C213.673 29.3192 215.029 29.6917 214.842 30.5809C214.185 33.6933 216.557 36.7816 219.425 37.769C222.725 38.9046 226.342 37.3324 228.664 34.947C229.523 34.0698 230.931 32.5116 230.502 31.1317C230.312 30.5148 229.681 30.5649 229.259 30.9194C228.682 31.4101 228.389 32.1812 228.221 32.9042C227.606 35.564 228.069 38.7443 229.783 40.9274C230.612 41.9809 231.744 42.73 233.066 42.9783C234.752 43.3008 236.429 42.736 237.845 41.8387C239.373 40.8734 240.661 39.5515 241.822 38.1756C242.956 36.8317 244.398 35.2195 244.612 33.4009C244.704 32.6479 244.578 31.8247 244.125 31.1998L243.358 30.7631C242.982 30.9894 242.659 31.5342 242.369 31.8687C241.215 33.2326 240.056 34.8329 239.976 36.6895C239.815 40.577 243.364 43.1185 246.803 43.8475C253.262 45.2154 260.23 41.7125 263.479 36.0746C263.877 35.3736 264.224 34.6507 264.504 33.8936C264.82 33.0484 266.18 33.4149 265.862 34.2661H265.87Z" fill="#821E23"/>
<path d="M300.559 32.0106C305.292 33.1843 308.995 37.4283 309.814 42.197C310.022 43.4047 310.056 44.6164 309.89 45.8261C309.696 47.2081 309.025 48.7481 309.966 49.9939C310.683 50.9392 311.861 51.48 312.896 51.9967C314.1 52.6016 315.282 53.2625 316.403 54.0136C318.556 55.4496 320.563 57.208 321.935 59.4312C323.443 61.8786 323.732 64.5364 323.531 67.3564C323.409 68.9927 323.193 70.6849 323.463 72.3172C323.696 73.6691 324.26 74.9109 324.987 76.0665C326.461 78.4339 328.464 80.4467 329.744 82.9422C332.602 88.508 332.368 95.4878 329.093 100.825C328.622 101.598 327.399 100.889 327.873 100.116C330.693 95.5259 331.11 89.6096 328.997 84.6566C327.915 82.1111 326.067 80.0782 324.487 77.8471C323.724 76.7796 323.055 75.6559 322.582 74.4242C322.059 73.0603 321.905 71.6083 321.941 70.1623C322.005 67.2181 322.652 64.274 321.42 61.4661C320.433 59.2209 318.654 57.3884 316.706 55.9403C315.66 55.1652 314.555 54.4823 313.423 53.8554C312.332 53.2585 311.17 52.7759 310.157 52.0528C309.237 51.3919 308.42 50.5327 308.158 49.3971C307.823 47.947 308.45 46.5331 308.56 45.0931C308.971 39.8617 305.294 34.6344 300.182 33.3646C299.305 33.1483 299.674 31.7884 300.559 32.0087V32.0106Z" fill="#821E23"/>
<path d="M285.203 24.0443C283.667 24.7934 282.315 23.6978 281.35 22.5542C280.388 21.4146 279.465 20.3391 278.215 19.5039C275.84 17.9097 272.972 17.1266 270.118 17.2588C268.492 17.3349 266.885 17.7335 265.417 18.4485C265.111 18.6007 264.612 18.5666 264.456 18.1981C262.966 14.7372 258.868 12.7865 255.249 13.9081C254.596 14.1124 254.037 13.1971 254.566 12.7305L255.269 12.1115C255.946 11.5107 256.945 12.5061 256.264 13.107L255.561 13.7298C255.329 13.3353 255.107 12.9427 254.875 12.5482C259.038 11.2644 263.943 13.4715 265.668 17.4871L264.706 17.2368C269.946 14.6652 276.629 15.7547 280.819 19.8164C281.428 20.4012 281.912 21.0701 282.461 21.701C282.892 22.1957 283.729 23.1971 284.49 22.8306C285.299 22.432 286.018 23.6438 285.201 24.0464L285.203 24.0443Z" fill="#821E23"/>
<path d="M291.293 22.1582C291.351 20.2095 289.875 18.6213 288.176 17.8663C286.053 16.9169 283.568 17.1412 281.319 17.3335C280.415 17.4136 280.423 16.0036 281.319 15.9275C283.944 15.7032 286.754 15.547 289.172 16.7867C291.17 17.8082 292.771 19.837 292.701 22.1582C292.679 23.0635 291.265 23.0655 291.293 22.1582V22.1582Z" fill="#821E23"/>
<path d="M202.571 78.2686C198.654 78.2887 194.883 80.0291 192.193 82.847C190.813 84.2951 189.731 86.0275 189.092 87.9282C188.305 90.2695 188.093 92.743 187.881 95.1884C187.504 99.4324 186.999 104.097 183.939 107.349C181.045 110.43 176.667 110.95 172.896 112.376C170.735 113.198 168.834 114.467 167.38 116.278C165.97 118.04 165.055 120.226 164.822 122.473C164.73 123.366 163.32 123.374 163.412 122.473C163.845 118.293 166.23 114.417 169.863 112.264C173.526 110.083 178.093 109.973 181.606 107.522C185.393 104.878 186.052 99.8649 186.431 95.6249C186.655 93.0533 186.841 90.4417 187.602 87.9622C188.209 85.9674 189.229 84.1408 190.576 82.5446C193.521 79.0577 197.989 76.8866 202.571 76.8606C203.477 76.8566 203.477 78.2666 202.571 78.2686V78.2686Z" fill="#821E23"/>
<path d="M195.141 96.2234C195.814 100.107 194.969 104.167 192.812 107.473C191.732 109.126 190.357 110.532 188.742 111.667C186.938 112.941 184.969 113.966 183.697 115.843C182.383 117.778 181.821 120.095 182.087 122.412C182.189 123.313 180.779 123.305 180.677 122.412C180.449 120.409 180.817 118.381 181.672 116.554C182.574 114.627 184.028 113.149 185.768 111.955C187.535 110.744 189.279 109.684 190.665 108.024C191.897 106.558 192.812 104.805 193.363 102.971C193.982 100.912 194.154 98.7209 193.781 96.6C193.629 95.7107 194.987 95.3322 195.141 96.2234V96.2234Z" fill="#821E23"/>
<path d="M326.503 117.978C328.696 121.32 330.937 125.029 330.158 129.197C329.816 131.006 328.842 132.506 327.41 133.64C326.1 134.669 324.366 135.608 324.098 137.417C323.937 138.504 324.262 139.612 324.542 140.647C324.849 141.775 325.161 142.901 325.229 144.074C325.279 144.978 323.873 144.976 323.819 144.074C323.713 142.106 322.772 140.289 322.66 138.318C322.557 136.446 323.455 134.951 324.879 133.808C326.213 132.736 327.679 131.877 328.382 130.235C329.097 128.578 329.041 126.656 328.554 124.943C327.905 122.664 326.575 120.657 325.287 118.695C324.791 117.934 326.008 117.225 326.503 117.98V117.978Z" fill="#821E23"/>
<path d="M322.049 123.346C322.969 126.693 321.953 130.428 319.45 132.843C318.799 133.47 317.799 132.475 318.454 131.844C320.601 129.773 321.483 126.597 320.692 123.717C320.447 122.843 321.809 122.467 322.049 123.344V123.346Z" fill="#821E23"/>
<path d="M310.556 104.169C307.542 103.646 304.85 101.882 303.083 99.4003L303.338 98.435C303.69 98.2287 304.083 98.3769 304.299 98.6893C305.861 100.882 308.289 102.348 310.928 102.807C311.305 102.871 311.517 103.332 311.421 103.674C311.311 104.069 310.928 104.233 310.556 104.167V104.169Z" fill="#821E23"/>
<path d="M337.006 95.2355C339.177 97.6709 340.14 101.01 339.741 104.238C339.545 105.846 339.032 107.415 338.165 108.791C337.3 110.176 336.088 111.302 335.001 112.506C333.845 113.774 332.744 115.212 332.896 117.016C332.976 117.921 331.566 117.913 331.49 117.016C331.221 113.822 334.009 111.616 335.904 109.451C337.971 107.092 338.84 103.95 338.245 100.861C337.911 99.1449 337.17 97.5368 336.008 96.2309C335.407 95.554 336.399 94.5545 337.006 95.2355V95.2355Z" fill="#821E23"/>
<path d="M203.625 88.761C204.236 87.3971 204.883 86.0592 205.543 84.7534C206.242 83.3755 207.046 81.7211 207.925 79.8645C204.76 79.9987 202.237 82.372 202.237 85.2861C202.237 86.6079 202.758 87.8197 203.625 88.763V88.761Z" fill="#B03537"/>
<path d="M208.207 90.7137C211.506 90.7137 214.18 88.2823 214.18 85.2841C214.18 82.2859 211.504 79.8545 208.207 79.8545C208.113 79.8545 208.021 79.8585 207.927 79.8625C207.046 81.7211 206.245 83.3734 205.546 84.7513C204.885 86.0591 204.24 87.3971 203.627 88.759C204.721 89.9527 206.371 90.7117 208.21 90.7117L208.207 90.7137Z" fill="#DE8F83"/>
<path d="M346.645 217.75C342.778 232.473 341.438 258.211 335.099 272.047C326.753 290.268 312.619 308.049 296.287 319.66C279.954 331.274 257.206 335.522 239.597 325.958C229.162 320.286 221.596 310.567 214.976 300.705C208.357 290.837 202.371 280.543 197.065 269.904C193.16 262.073 190.081 251.444 196.551 245.558C202.709 239.954 212.459 243.296 220.7 242.111C234.488 240.128 242.413 225.94 249.541 213.973C251.103 211.347 252.896 208.604 255.704 207.4C258.127 206.358 260.883 206.647 263.504 206.955C279.705 208.862 295.914 210.773 312.117 212.681L346.645 217.75Z" fill="white"/>
<path d="M147.135 292.55C169.05 276.548 197.841 270.333 224.402 275.875C250.963 281.415 274.873 298.617 288.566 322.044C289.273 323.259 289.972 324.545 290.044 325.945C290.124 327.483 289.435 328.951 288.764 330.341C284.627 338.923 280.489 347.505 276.347 356.082C275.488 357.862 274.564 359.717 272.946 360.85C270.787 362.366 267.919 362.238 265.293 361.994C243.599 360.017 222.227 354.577 202.223 345.941L147.134 292.548L147.135 292.55Z" fill="#F39E31"/>
<path d="M178.349 209.608C163.915 206.165 144.147 218.837 144.147 218.837C133.35 211.625 111.643 177.269 98.661 177.095C97.1268 177.074 95.4546 177.243 94.327 178.28C93.3596 179.165 92.979 180.515 92.7347 181.801C91.0203 190.784 93.7982 200.175 98.639 207.93C103.484 215.685 110.257 222.022 117.183 227.99C125.485 235.136 128.691 248.335 137.632 254.669C143.38 258.741 154.68 256.204 160.662 259.925C159.659 244.647 162.677 229.124 169.32 215.332L178.347 209.61L178.349 209.608Z" fill="#F39E31"/>
<path d="M230.06 341.659C206.393 352.384 196.869 380.267 180.721 400.625C161.465 424.896 128.742 439.344 98.5511 432.396C81.3169 428.43 66.1777 418.178 49.316 412.849C32.4504 407.519 11.0643 408.719 0.849938 423.157C-3.58429 399.52 9.77846 374.685 30.125 361.873C50.4756 349.063 76.382 347.178 99.7629 352.79C115.683 356.612 131.652 363.74 147.768 360.864C162.767 358.186 174.75 347.369 187.057 338.376C199.363 329.387 214.784 321.594 229.345 326.111L230.06 341.663V341.659Z" fill="#F39E31"/>
<path d="M199.741 225.725C193.799 218.232 186.415 211.074 176.633 209.35C173.921 208.867 171.117 208.879 168.419 209.472C167.538 209.662 167.158 208.306 168.047 208.112C173.008 207.031 178.171 207.782 182.822 209.722C187.492 211.671 191.56 214.772 195.117 218.337C197.124 220.341 198.968 222.504 200.733 224.726C201.296 225.432 200.302 226.432 199.741 225.725V225.725Z" fill="#C66700"/>
<path d="M250.564 248.873C247.929 242.406 245.489 235.793 244.494 228.881C243.703 223.372 243.765 217.483 240.903 212.707C240.44 211.936 239.721 211.114 238.828 211.213C238.269 211.277 237.821 211.687 237.46 212.122C235.728 214.211 235.283 217.053 234.983 219.747C234.067 227.948 233.911 236.232 234.516 244.461L250.564 248.873V248.873Z" fill="#FAC7B2"/>
<path d="M247.069 257.995C246.286 247.054 226.386 208.405 224.51 205.674C222.629 202.942 217.314 202.231 216.767 205.507C215.05 203.228 213.258 200.887 210.756 199.519C208.253 198.155 204.83 198.041 202.789 200.036C200.778 198.664 198.553 197.322 196.12 197.358C193.68 197.392 191.123 199.397 191.419 201.818C188.996 199.485 184.544 201.44 183.35 204.584C182.158 207.732 183.214 211.259 184.484 214.378C193.887 237.478 214.043 254.154 233.438 269.83C256.094 288.143 278.878 306.539 304.222 320.899C313.252 326.015 322.906 329.938 332.96 332.504C342.037 334.825 352.538 339.802 360.593 335.692C369.878 330.95 386.049 299.105 386.281 283.984L342.85 270.413L339.131 277.943C339.051 278.015 306.645 269.663 284.796 265.381L247.073 257.995C247.073 257.995 276.477 262.141 247.073 257.995H247.069Z" fill="#FAC7B2"/>
<path d="M217.691 205.895C218.33 209.235 219.267 212.508 220.495 215.68C220.818 216.528 219.458 216.896 219.135 216.057C217.911 212.885 216.972 209.61 216.335 206.271C216.167 205.382 217.521 205.005 217.691 205.895V205.895Z" fill="#CE9582"/>
<path d="M203.967 201.408C205.178 205.278 206.39 209.147 207.602 213.013C207.872 213.882 206.514 214.25 206.246 213.389C205.03 209.522 203.822 205.654 202.611 201.787C202.336 200.92 203.698 200.547 203.967 201.41V201.408Z" fill="#CE9582"/>
<path d="M193.107 202.875C193.62 204.709 194.136 206.546 194.653 208.376C194.899 209.252 193.544 209.626 193.293 208.753C192.778 206.918 192.264 205.084 191.747 203.251C191.501 202.374 192.859 202.005 193.107 202.875Z" fill="#CE9582"/>
<path d="M222.63 218.237C218.542 217.17 214.458 216.106 210.364 215.035C206.357 213.989 202.351 212.842 198.271 212.111C195.962 211.692 193.629 211.45 191.28 211.458C190.376 211.462 190.372 210.056 191.28 210.052C195.463 210.034 199.585 210.843 203.625 211.842C207.737 212.852 211.82 213.963 215.916 215.031C218.279 215.65 220.643 216.269 223.004 216.883C223.879 217.112 223.507 218.472 222.628 218.241L222.63 218.237Z" fill="#CE9582"/>
<path d="M263.214 225.968C260.168 225.165 256.93 224.159 254.989 221.678C253.549 219.843 253.04 217.468 252.573 215.184C250.939 207.251 249.517 199.254 249.083 191.165C248.38 178.122 265.093 137.221 289.808 126.001C291.62 133.418 301.586 145.002 301.478 145.23C301.372 145.457 328.184 152.605 327.815 152.372C327.571 152.224 350.413 147.451 355.49 146.256L355.905 159.242C356.604 181.073 353.525 202.859 346.808 223.64C345.732 228.367 290.631 233.158 263.214 225.966V225.968Z" fill="#F39E31"/>
<path d="M346.646 223.722C332.228 217.954 319.606 209.554 310.321 197.107C305.929 191.219 300.777 184.101 293.433 184.099C275.528 184.091 251.009 206.764 249.471 213.949C254.358 250.868 312.005 247.764 342.476 238.247L346.648 223.722H346.646Z" fill="white"/>
<path d="M314.545 243.403C319.578 244.044 322.406 249.512 320.042 253.996L319.984 254.11C315.748 262.169 311.512 270.227 307.276 278.286C302.53 287.313 297.31 296.846 287.937 301.264C286.497 301.941 284.921 302.332 283.333 302.222C278.27 301.873 276.856 297.401 276.319 293.423C274.232 277.99 279.644 262.516 286.505 248.538C287.41 246.692 288.386 244.801 289.978 243.499C293.09 240.946 297.583 241.296 301.576 241.781C305.288 242.237 310.072 242.838 314.543 243.403H314.545Z" fill="#F39E31"/>
<path d="M280.341 235.265C285.374 235.904 288.206 241.367 285.842 245.858L285.78 245.964C281.548 254.021 277.312 262.08 273.072 270.14C268.33 279.166 263.11 288.7 253.733 293.118C252.293 293.797 250.715 294.186 249.129 294.075C244.064 293.725 240.234 286.337 239.693 282.355C237.608 266.925 245.438 254.376 252.301 240.394C253.208 238.547 254.186 236.655 255.776 235.351C258.888 232.799 263.383 233.152 267.372 233.637C271.088 234.089 275.872 234.69 280.341 235.263V235.265Z" fill="#F39E31"/>
<path d="M173.161 277.931C157.371 275.374 141.581 272.82 125.794 270.264C118.272 269.049 110.517 267.841 103.101 269.587C95.6842 271.34 88.6103 276.804 87.3666 284.322C86.1749 291.586 90.7593 298.842 96.91 302.882C103.061 306.926 110.519 308.368 117.795 309.481C131.242 311.54 144.825 312.756 158.426 313.123C160.778 313.183 163.471 313.077 164.974 311.264C166.075 309.93 166.181 308.069 166.341 306.349C167.249 296.315 171.627 286.633 178.561 279.323L173.161 277.933V277.931Z" fill="#F39E31"/>
<path d="M313.529 184.091C313.529 190.686 318.875 196.032 325.47 196.032C332.069 196.032 337.415 190.686 337.415 184.091C337.415 177.494 332.069 172.144 325.47 172.144C318.875 172.144 313.529 177.494 313.529 184.091Z" fill="#C66700"/>
<path d="M317.869 184.092C317.869 188.29 321.274 191.694 325.472 191.694C329.67 191.694 333.071 188.29 333.071 184.092C333.071 179.892 329.67 176.493 325.472 176.493C321.274 176.493 317.869 179.894 317.869 184.092Z" fill="#141515"/>
<path d="M331.449 182.191C331.449 183.239 332.3 184.092 333.35 184.092C334.397 184.092 335.252 183.241 335.252 182.191C335.252 181.14 334.397 180.291 333.35 180.291C332.3 180.291 331.449 181.138 331.449 182.191Z" fill="white"/>
<path d="M266.3 169.976C266.3 176.572 271.646 181.921 278.245 181.921C284.841 181.921 290.186 176.572 290.186 169.976C290.186 163.381 284.841 158.031 278.245 158.031C271.646 158.031 266.3 163.381 266.3 169.976Z" fill="#C66700"/>
<path d="M270.64 169.976C270.64 174.17 274.045 177.575 278.243 177.575C282.437 177.575 285.842 174.17 285.842 169.976C285.842 165.778 282.437 162.374 278.243 162.374C274.045 162.374 270.64 165.778 270.64 169.976Z" fill="#141515"/>
<path d="M284.211 168.076C284.211 169.125 285.066 169.977 286.116 169.977C287.161 169.977 288.016 169.125 288.016 168.076C288.016 167.026 287.161 166.175 286.116 166.175C285.066 166.175 284.211 167.026 284.211 168.076Z" fill="white"/>
<path d="M295.864 196.547C296.088 196.135 296.431 195.754 296.801 195.388C297.627 194.579 298.846 194.3 299.952 194.651C300.198 194.731 300.49 194.791 300.905 194.855C301.642 194.965 302.531 194.953 302.828 194.088C303.048 193.461 302.764 192.772 302.231 192.374C299.874 190.621 297.124 189.399 294.248 188.821C293.244 188.618 292.109 188.524 291.282 189.125L291.063 189.345C289.844 190.984 291.155 192.378 292.557 192.772C293.557 193.05 294.324 193.852 294.632 194.843L295.153 196.491L295.864 196.543V196.547Z" fill="#141515"/>
<path d="M304.028 198.863C306.315 201.048 306.277 204.915 303.887 207.004C301.418 209.157 297.713 208.929 295.498 206.522C294.951 205.929 294.532 205.244 294.244 204.493C293.97 203.786 293.849 202.851 293.134 202.444C291.6 201.575 289.613 203.063 288.111 203.367C286.429 203.706 284.717 203.425 283.389 202.292C282.287 201.346 281.63 199.92 281.494 198.488C281.156 194.883 284.544 192.087 287.957 192.113C288.864 192.121 288.868 193.531 287.957 193.523C285.442 193.501 282.824 195.412 282.876 198.098C282.902 199.259 283.421 200.403 284.274 201.194C285.392 202.22 286.98 202.266 288.37 201.851C289.788 201.421 291.097 200.643 292.626 200.842C294.134 201.038 294.903 202.061 295.366 203.429C295.81 204.745 296.505 205.823 297.743 206.522C298.907 207.183 300.276 207.293 301.532 206.818C302.892 206.301 303.968 205.142 304.252 203.7C304.526 202.306 304.058 200.836 303.032 199.858C302.375 199.231 303.373 198.236 304.028 198.863V198.863Z" fill="#141515"/>
<path d="M343.207 159.896C346.456 156.478 349.704 153.061 352.953 149.646C351.691 155.148 350.433 160.645 349.173 166.139C347.733 163.874 345.705 161.983 343.341 160.714L343.207 159.896Z" fill="white"/>
<path d="M287.566 142.496C287.684 138.48 287.376 134.449 286.655 130.497C283.813 134.24 280.967 137.982 278.121 141.721C281.302 141.318 284.584 141.725 287.57 142.894L287.566 142.496Z" fill="white"/>
<path d="M347.588 237.717C345.802 234.795 344.019 231.868 342.239 228.944C341.764 228.169 342.984 227.462 343.454 228.237C345.237 231.161 347.019 234.082 348.8 237.006C349.274 237.781 348.059 238.488 347.588 237.717V237.717Z" fill="white"/>
<path d="M346.909 241.575C345.003 239.17 343.308 236.616 341.856 233.911C341.432 233.113 342.647 232.402 343.072 233.202C344.462 235.795 346.074 238.273 347.905 240.58V241.575H346.909Z" fill="white"/>
<path d="M254.227 211.592C251.974 209.707 249.39 208.205 246.632 207.186C246.28 207.052 246.035 206.707 246.145 206.318C246.236 205.978 246.65 205.692 247.007 205.828C250.005 206.941 252.771 208.544 255.22 210.597V211.592H254.225H254.227Z" fill="white"/>
<path d="M252.466 213.822C250.521 213.141 248.572 212.462 246.625 211.781C246.273 211.657 246.029 211.299 246.139 210.912C246.229 210.566 246.64 210.297 247 210.421C248.947 211.102 250.892 211.785 252.836 212.466C253.195 212.593 253.433 212.949 253.327 213.332C253.233 213.682 252.822 213.948 252.464 213.822H252.466Z" fill="white"/>
<path d="M323.027 153.993C322.489 150.828 321.549 147.732 320.235 144.802L319.566 144.039C319.044 143.899 318.613 144.463 318.401 144.966C317.874 146.212 317.596 147.566 317.596 148.914C317.069 146.608 316.406 144.323 315.613 142.09C315.206 140.954 314.74 139.785 313.842 138.982C313.532 138.705 313.113 138.465 312.719 138.599C312.222 138.765 312.08 139.39 312.028 139.909C311.872 141.557 311.856 143.214 311.99 144.864C311.097 140.434 308.249 136.43 304.353 134.139C303.664 133.74 302.809 133.388 302.11 133.766C301.525 134.089 301.293 134.814 301.221 135.481C301.014 137.239 301.505 138.996 302.002 140.694C303.059 144.303 304.167 147.898 305.334 151.477L323.027 153.997V153.993Z" fill="#F39E31"/>
<path d="M286.458 154.428C283.058 153.896 279.689 153.203 276.352 152.351C280.33 151.146 284.456 150.437 288.601 150.258C289.999 150.196 291.93 150.741 291.75 152.127C290.819 153.906 288.844 154.863 286.867 154.506L286.456 154.43L286.458 154.428Z" fill="#141515"/>
<path d="M326.111 168.177C329.474 168.91 332.87 169.481 336.281 169.896C333.015 167.332 329.42 165.181 325.616 163.513C324.336 162.948 322.338 162.761 322.003 164.117C322.232 166.108 323.728 167.722 325.696 168.103L326.111 168.179V168.177Z" fill="#141515"/>
<path d="M289.749 197.42C284.285 192.325 277.566 188.685 270.32 186.873C269.439 186.657 269.815 185.297 270.692 185.517C278.173 187.386 285.107 191.165 290.747 196.424C291.411 197.043 290.412 198.039 289.751 197.42H289.749Z" fill="#141515"/>
<path d="M283.632 197.936C276.891 195.831 270.035 194.115 263.091 192.791C262.206 192.625 262.583 191.269 263.468 191.431C270.406 192.753 277.263 194.471 284.003 196.578C284.866 196.849 284.498 198.213 283.63 197.936H283.632Z" fill="#141515"/>
<path d="M303.064 201.265C310.142 204.259 316.841 208.109 322.988 212.719C323.707 213.256 323.004 214.48 322.281 213.931C316.126 209.322 309.431 205.477 302.349 202.483C301.998 202.335 301.926 201.818 302.098 201.517C302.307 201.153 302.715 201.117 303.064 201.263V201.265Z" fill="#141515"/>
<path d="M302.081 204.763C308.414 209.988 313.95 216.135 318.494 222.968C318.999 223.723 317.779 224.434 317.283 223.683C312.798 216.946 307.329 210.901 301.086 205.758C300.387 205.183 301.39 204.192 302.081 204.763V204.763Z" fill="#141515"/>
<path d="M296.81 226.382C296.433 227.051 296.069 227.74 295.73 228.433C295.408 229.094 295.069 229.835 294.815 230.447C294.679 230.79 294.342 231.066 293.952 230.942C293.625 230.838 293.311 230.439 293.457 230.073C294.086 228.569 294.791 227.095 295.596 225.673L296.557 225.422L296.808 226.384L296.81 226.382Z" fill="#F39E31"/>
<path d="M292.536 223.772C292.171 224.789 291.799 225.805 291.426 226.822C291.304 227.169 290.944 227.437 290.563 227.313C290.225 227.203 289.936 226.818 290.068 226.445C290.441 225.43 290.809 224.413 291.178 223.399C291.304 223.053 291.665 222.78 292.047 222.905C292.382 223.015 292.674 223.403 292.534 223.772H292.536Z" fill="#F39E31"/>
<path d="M286.928 220.612L286.579 221.247L286.541 221.335L286.557 221.301L286.509 221.435L286.387 221.776L286.231 222.457L286.211 222.551L286.219 222.505L286.203 222.645L286.185 223.033C286.173 223.402 285.864 223.752 285.478 223.736C285.105 223.72 284.767 223.424 284.775 223.033C284.801 221.932 285.121 220.84 285.712 219.907L286.673 219.653L286.928 220.614V220.612Z" fill="#F39E31"/>
<path d="M272.146 214.962L271.341 215.835L271.259 215.941L271.225 215.987L271.065 216.208L270.73 216.72C270.528 217.051 270.352 217.389 270.195 217.742L270.145 217.844L270.115 217.916L270.009 218.202L269.819 218.787C269.715 219.138 269.316 219.396 268.95 219.278C268.597 219.16 268.349 218.791 268.463 218.413C268.954 216.73 269.887 215.18 271.157 213.969H272.148V214.964L272.146 214.962Z" fill="#F39E31"/>
<path d="M309.924 236.132C309.734 236.501 309.544 236.865 309.355 237.234L308.933 237.556L308.39 237.488L308.068 237.063L308.14 236.525C308.33 236.156 308.52 235.788 308.705 235.423L309.127 235.101L309.672 235.169L309.994 235.593L309.926 236.132H309.924Z" fill="#F39E31"/>
<path d="M307.193 235.12C307.038 235.594 306.882 236.067 306.726 236.542L306.4 236.96L305.857 237.028L305.438 236.706L305.362 236.167C305.522 235.697 305.678 235.226 305.833 234.753L306.155 234.329L306.7 234.26L307.121 234.583L307.193 235.122V235.12Z" fill="#F39E31"/>
<path d="M334.701 232.735C334.701 233.658 334.701 234.581 334.701 235.504C334.701 235.873 334.379 236.225 333.998 236.211C333.619 236.191 333.295 235.903 333.295 235.504C333.295 234.581 333.295 233.658 333.295 232.735C333.295 232.366 333.617 232.013 333.998 232.028C334.379 232.046 334.701 232.338 334.701 232.735Z" fill="#F39E31"/>
<path d="M331.767 233.396L331.802 233.886L331.737 234.347L331.423 235.064C331.103 235.547 330.636 235.919 330.065 236.067L329.526 235.999L329.204 235.581C329.116 235.208 329.31 234.81 329.695 234.711L329.907 234.643L329.741 234.711L330.087 234.507L329.943 234.621L330.241 234.317L330.135 234.457L330.362 234.067L330.293 234.237L330.412 233.8L330.386 233.991V233.61L330.412 233.8L330.408 233.774L330.392 233.494L330.48 233.231L330.898 232.909L331.445 232.981L331.767 233.4V233.396Z" fill="#F39E31"/>
<path d="M328.59 232.458C328.658 233.461 328.276 234.466 327.599 235.205H326.599V234.206L326.765 234.012L326.655 234.156L327.038 233.495L326.97 233.663L327.186 232.89L327.16 233.076L327.18 232.458C327.154 232.089 327.521 231.737 327.883 231.755C328.29 231.773 328.56 232.061 328.59 232.458V232.458Z" fill="#F39E31"/>
<path d="M332.229 224.416C332.203 225.221 331.971 226.018 331.546 226.703L330.585 226.954L330.335 225.992L330.615 225.448L330.543 225.614L330.813 224.635L330.787 224.821L330.821 224.414C330.831 224.046 331.136 223.691 331.524 223.711C331.897 223.721 332.243 224.02 332.231 224.414L332.229 224.416Z" fill="#F39E31"/>
<path d="M353.073 198.376C353.395 202.243 354.539 206.017 356.397 209.428C356.83 210.225 355.614 210.936 355.182 210.138C353.197 206.499 352.013 202.502 351.663 198.376C351.587 197.469 352.997 197.475 353.073 198.376V198.376Z" fill="#F39E31"/>
<path d="M351.771 203.837C352.6 205.583 353.291 207.396 353.816 209.258C353.922 209.623 353.69 210.021 353.325 210.12C352.957 210.226 352.562 209.999 352.458 209.629C351.965 207.884 351.33 206.184 350.555 204.546C350.391 204.205 350.461 203.787 350.806 203.584C351.112 203.402 351.607 203.49 351.771 203.835V203.837Z" fill="#F39E31"/>
<path d="M252.584 181.511C249.834 183.594 246.638 185.06 243.271 185.789C242.386 185.979 242.009 184.623 242.894 184.431C246.157 183.72 249.209 182.312 251.867 180.293L252.832 180.544C253.051 180.904 252.883 181.281 252.582 181.509L252.584 181.511Z" fill="#F39E31"/>
<path d="M250.352 186.488C248.84 187.339 247.188 187.938 245.477 188.232C245.113 188.292 244.702 188.134 244.608 187.741C244.532 187.399 244.714 186.94 245.101 186.872C246.719 186.594 248.223 186.067 249.641 185.268L250.603 185.522L250.352 186.488Z" fill="#F39E31"/>
<path d="M251.442 191.998C250.222 192.77 248.84 193.29 247.414 193.499C247.054 193.553 246.639 193.41 246.549 193.008C246.473 192.673 246.651 192.203 247.042 192.143C247.715 192.045 248.372 191.88 249.01 191.646L249.269 191.548L249.349 191.514L249.844 191.287L250.733 190.791L251.694 191.041C251.876 191.388 251.774 191.794 251.444 192.002L251.442 191.998Z" fill="#F39E31"/>
<path d="M291.793 286.512C288.556 291.302 285.795 296.405 283.591 301.755C283.249 302.58 281.885 302.22 282.234 301.378C284.483 295.915 287.269 290.695 290.581 285.801C291.086 285.051 292.306 285.759 291.793 286.512V286.512Z" fill="#C66700"/>
<path d="M285.079 282.766C282.165 287.629 279.988 292.893 278.602 298.394C278.386 299.272 277.026 298.899 277.246 298.018C278.656 292.41 280.889 287.018 283.863 282.054C284.328 281.278 285.546 281.985 285.079 282.768V282.766Z" fill="#C66700"/>
<path d="M256.91 277.125C255.261 279.917 253.779 282.801 252.487 285.777C251.852 287.239 251.272 288.729 250.737 290.232C250.535 290.79 250.234 291.61 249.461 291.405C248.83 291.233 248.712 290.452 249.135 290.017L249.986 289.903L250.034 289.925C250.867 290.288 250.148 291.499 249.325 291.141L249.275 291.123L250.126 291.009L250.266 290.504L249.946 290.081L250.004 290.115L249.461 290.047L249.563 289.348L249.902 288.437C250.118 287.862 250.346 287.297 250.579 286.727C251.061 285.537 251.574 284.359 252.121 283.198C253.2 280.876 254.394 278.619 255.7 276.418C256.16 275.639 257.38 276.342 256.911 277.125H256.91Z" fill="#C66700"/>
<path d="M250.455 275.845C248.302 279.887 246.432 284.066 244.863 288.365C244.555 289.212 243.191 288.847 243.504 287.992C245.12 283.578 247.035 279.284 249.242 275.138C249.666 274.337 250.888 275.048 250.457 275.845H250.455Z" fill="#C66700"/>
<path d="M291.268 332.977C289.746 326.078 286.968 319.496 283.145 313.554C279.333 307.624 274.491 302.322 268.897 298.034C265.72 295.599 262.302 293.49 258.702 291.745C257.885 291.351 258.6 290.135 259.413 290.526C265.899 293.674 271.789 298.018 276.772 303.22C281.761 308.421 285.867 314.481 288.801 321.065C290.457 324.772 291.749 328.637 292.626 332.603C292.824 333.484 291.464 333.865 291.266 332.975L291.268 332.977Z" fill="#C66700"/>
<path d="M261.209 289.577C257.512 292.02 253.192 293.867 248.69 293.845C244.852 293.821 241.003 292.245 238.491 289.282C237.123 287.678 236.264 285.783 236.022 283.693C235.92 282.789 237.33 282.797 237.436 283.693C237.816 287.037 240.3 289.725 243.222 291.177C246.677 292.901 250.68 292.679 254.263 291.485C256.483 290.752 258.554 289.647 260.502 288.363C261.257 287.86 261.964 289.084 261.209 289.579V289.577Z" fill="#C66700"/>
<path d="M208.138 274.443C198.969 274.523 189.848 276.362 181.362 279.835C180.298 280.263 179.255 280.728 178.215 281.213C177.17 281.703 176.157 282.3 175.073 282.707C172.85 283.536 170.845 281.872 168.968 280.89C164.971 278.809 160.777 277.117 156.457 275.833C151.528 274.371 146.453 273.436 141.332 273.067C140.43 272.999 140.424 271.593 141.332 271.657C150.366 272.314 159.235 274.652 167.418 278.545C168.43 279.032 169.433 279.536 170.424 280.073C171.368 280.576 172.391 281.373 173.471 281.533C174.576 281.694 175.694 280.872 176.643 280.408C177.693 279.903 178.76 279.416 179.834 278.958C184.006 277.179 188.33 275.777 192.752 274.794C197.801 273.674 202.964 273.085 208.135 273.035C209.043 273.027 209.043 274.437 208.135 274.445L208.138 274.443Z" fill="#C66700"/>
<path d="M110.048 292.574C104.364 287.649 96.647 285.366 89.2006 286.305C88.3073 286.419 88.3153 285.011 89.2006 284.899C97.0236 283.912 105.097 286.419 111.043 291.574C111.73 292.169 110.727 293.163 110.048 292.572V292.574Z" fill="#C66700"/>
<path d="M113.4 284.504C108.183 279.555 100.669 277.171 93.5525 278.289C92.6673 278.425 92.2848 277.069 93.1801 276.929C100.813 275.735 108.784 278.179 114.396 283.51C115.057 284.137 114.057 285.133 113.4 284.506V284.504Z" fill="#C66700"/>
<path d="M110.654 188.542C107.16 183.748 101.814 180.473 95.9859 179.428C95.0966 179.267 95.4711 177.911 96.3624 178.072C102.563 179.181 108.167 182.748 111.87 187.833C112.407 188.566 111.183 189.269 110.654 188.542V188.542Z" fill="#C66700"/>
<path d="M105.956 195.187C102.923 190.858 98.6293 187.44 93.7244 185.467C92.8992 185.128 93.2577 183.768 94.1009 184.109C99.3703 186.226 103.911 189.821 107.171 194.473C107.692 195.219 106.47 195.921 105.956 195.184V195.187Z" fill="#C66700"/>
<path d="M169.773 231.325C163.872 241.063 159.336 251.592 156.314 262.567C155.455 265.676 154.726 268.824 154.115 271.992C153.943 272.882 152.583 272.501 152.755 271.616C154.936 260.324 158.685 249.351 163.86 239.078C165.317 236.198 166.881 233.376 168.557 230.612C169.024 229.841 170.243 230.544 169.773 231.323V231.325Z" fill="#C66700"/>
<path d="M145.069 220.169C143.761 225.302 142.271 230.381 140.593 235.404C140.306 236.259 138.946 235.895 139.235 235.031C140.911 230.008 142.405 224.925 143.711 219.796C143.935 218.919 145.295 219.287 145.069 220.169Z" fill="#C66700"/>
<path d="M173.085 286.155C171.775 291.386 169.836 296.451 167.325 301.228C166.904 302.029 165.688 301.32 166.109 300.513C168.568 295.843 170.449 290.902 171.729 285.778C171.945 284.901 173.305 285.276 173.085 286.155V286.155Z" fill="#C66700"/>
<path d="M158.265 312.758C158.265 312.758 160.54 317.13 160.45 317.579C161.475 316.203 188.854 294.436 204.013 279.341C207.478 275.892 210.912 272.323 213.404 268.061C215.759 264.028 217.195 259.497 218.715 255.045C223.476 241.081 229.212 227.488 235.874 214.396C236.288 213.587 236.733 212.743 237.47 212.231C239.168 211.057 241.618 212.329 242.509 214.242C243.402 216.152 243.186 218.397 242.953 220.51C243.755 217.672 247.254 216.074 249.799 217.388C252.341 218.698 253.244 222.573 251.562 224.957C252.861 223.056 255.521 222.327 257.546 223.322C259.575 224.318 260.73 226.915 260.152 229.175C262.022 227.124 265.667 228.62 266.747 231.213C267.826 233.813 267.129 236.805 266.322 239.507C262.154 253.425 246.503 269.621 239.697 282.357C234.219 292.616 213.42 344.673 202.004 360.659C194.952 370.533 186.807 380.064 176.136 385.33C165.463 390.593 151.743 390.715 142.693 382.804C133.31 374.603 131.291 360.635 129.909 347.953C128.747 337.314 125.767 321.228 124.605 310.591L158.269 312.76L158.265 312.758Z" fill="#FAC7B2"/>
<path d="M235.636 216.951C231.811 223.817 228.909 231.135 226.249 238.517C223.585 245.911 221.138 253.388 218.172 260.672C216.504 264.752 214.677 268.776 212.576 272.651C212.139 273.444 210.924 272.739 211.356 271.94C215.112 265.032 217.956 257.688 220.599 250.3C223.245 242.899 225.702 235.429 228.723 228.169C230.413 224.097 232.274 220.095 234.425 216.246C234.865 215.453 236.081 216.164 235.636 216.953V216.951Z" fill="#CE9582"/>
<path d="M261.337 229.999C259.672 233.514 258.008 237.021 256.344 240.532C255.955 241.353 254.739 240.638 255.128 239.825C256.788 236.31 258.457 232.799 260.121 229.288C260.51 228.467 261.721 229.182 261.337 229.999V229.999Z" fill="#CE9582"/>
<path d="M253.406 224.032C252.05 227.429 250.496 230.746 248.738 233.956C248.301 234.753 247.085 234.038 247.522 233.245C249.224 230.145 250.736 226.942 252.046 223.656C252.187 223.297 252.513 223.059 252.913 223.161C253.252 223.249 253.548 223.678 253.406 224.03V224.032Z" fill="#CE9582"/>
<path d="M244 219.533C242.756 221.778 241.611 224.069 240.561 226.408C240.407 226.751 239.9 226.839 239.596 226.659C239.239 226.45 239.185 226.042 239.342 225.693C240.393 223.356 241.545 221.061 242.784 218.818C243.221 218.023 244.437 218.738 244 219.533V219.533Z" fill="#CE9582"/>
<path d="M258.201 242.923C256.366 242.25 254.8 241.134 253.276 239.929C251.505 238.527 249.749 237.103 247.986 235.689C244.423 232.837 240.863 229.979 237.296 227.121C236.593 226.556 237.596 225.563 238.295 226.125C241.732 228.883 245.179 231.641 248.617 234.401C250.316 235.761 252.018 237.129 253.719 238.493C255.213 239.688 256.755 240.902 258.575 241.567C259.419 241.875 259.054 243.235 258.199 242.923H258.201Z" fill="#CE9582"/>
<path d="M160.36 318.54C153.256 325.219 148.779 334.08 145.473 343.136C144.519 345.742 143.66 348.38 142.843 351.027C142.581 351.895 141.217 351.524 141.485 350.659C144.377 341.256 147.89 331.784 153.806 323.821C155.475 321.572 157.321 319.463 159.362 317.544C160.023 316.921 161.018 317.913 160.358 318.54H160.36Z" fill="#CE9582"/>
<path d="M252.782 223.867C253.193 221.636 251.977 219.225 249.936 218.233C247.869 217.23 245.264 217.877 243.766 219.559C243.295 220.08 242.376 219.533 242.588 218.872C243.147 217.114 242.121 214.967 240.289 214.46C238.46 213.956 236.481 215.273 236.057 217.07C235.853 217.955 234.493 217.583 234.701 216.701C235.294 214.16 238.12 212.399 240.667 213.102C243.209 213.801 244.737 216.757 243.946 219.245C243.555 219.019 243.159 218.79 242.768 218.562C244.703 216.393 248.038 215.736 250.643 217.016C253.277 218.312 254.663 221.408 254.138 224.24C253.972 225.133 252.618 224.753 252.782 223.867V223.867Z" fill="#CE9582"/>
<path d="M335.926 8.37338C327.647 8.67781 319.62 12.363 313.849 18.2833C312.197 19.9777 310.749 21.8523 309.517 23.8711C309.051 24.6422 307.831 23.9351 308.306 23.1561C312.816 15.7396 320.284 10.276 328.658 8.04685C331.034 7.41596 333.475 7.05553 335.926 6.96741C336.838 6.93336 336.836 8.33934 335.926 8.37338Z" fill="#821E23"/>
<path d="M339.703 11.5919C339.334 11.0471 338.251 11.4656 337.784 11.6319C336.865 11.9583 335.964 12.3229 335.078 12.7154C333.308 13.5025 331.587 14.4058 329.931 15.4112C326.614 17.432 323.568 19.8795 320.876 22.6794C319.36 24.2596 317.962 25.954 316.698 27.7405C316.178 28.4775 314.958 27.7746 315.483 27.0336C320.414 20.0538 327.265 14.4999 335.14 11.1632C336.743 10.4863 339.613 8.92611 340.919 10.8829C341.425 11.6359 340.201 12.3469 339.703 11.5898V11.5919Z" fill="#821E23"/>
<path d="M343.125 14.129C334.06 17.8663 326.153 24.3913 320.752 32.5708C320.227 33.374 319.396 35.4169 318.108 34.784C316.93 34.2032 318.092 32.2104 319.115 33.2038C319.764 33.8346 318.773 34.8341 318.12 34.1992L318.31 34.3133L318.849 34.2412L318.473 33.4962L318.557 33.4L318.739 33.1197L319.184 32.4047C319.47 31.9641 319.76 31.5234 320.061 31.0868C320.672 30.1976 321.319 29.3243 321.983 28.4731C323.305 26.7907 324.733 25.1905 326.253 23.6864C329.26 20.7262 332.624 18.1285 336.258 15.9895C338.344 14.7578 340.514 13.6944 342.751 12.7751C343.59 12.4286 343.954 13.7946 343.127 14.133L343.125 14.129Z" fill="#821E23"/>
<path d="M343.997 15.3408C341.916 23.1217 337.278 30.1737 330.995 35.2087C329.224 36.6267 327.34 37.8864 325.347 38.97C324.55 39.3986 323.853 38.2149 324.636 37.7503C325.301 37.3557 325.974 36.9592 326.643 36.5646C327.424 36.1 328.135 37.3157 327.358 37.7763C326.685 38.1749 326.018 38.5694 325.349 38.97C325.112 38.5634 324.874 38.1569 324.638 37.7503C331.471 34.0571 337.013 28.1689 340.36 21.163C341.313 19.1762 342.074 17.0973 342.643 14.9663C342.875 14.0971 344.235 14.4656 343.999 15.3428L343.997 15.3408Z" fill="#821E23"/>
<path d="M346.32 18.1279C344.477 26.5937 340.085 35.4602 332.164 39.7122C331.617 40.0046 331.054 40.271 330.482 40.5133C329.949 40.7376 329.452 41.01 328.875 40.7937C328.439 40.6334 327.986 40.2188 327.97 39.7221C327.954 39.0913 328.529 38.8911 329.05 38.9672C329.943 39.0934 329.562 40.4492 328.673 40.325L329.176 40.1728L329.384 39.6761L329.292 39.4297L329.314 39.4518L329.304 39.4819L329.927 39.2315C330.368 39.0452 330.804 38.8369 331.231 38.6146C332.024 38.202 332.793 37.7334 333.526 37.2207C335.012 36.1752 336.348 34.9275 337.542 33.5596C339.997 30.7476 341.832 27.3968 343.149 23.916C343.909 21.9091 344.505 19.8462 344.96 17.7573C345.154 16.8681 346.514 17.2427 346.32 18.1299V18.1279Z" fill="#821E23"/>
<path d="M335.258 63.5792C336.253 58.1656 335.242 52.4616 332.648 47.6268C331.349 45.1994 329.662 42.9983 327.627 41.1417C325.336 39.0548 322.612 37.5667 319.961 35.9965C318.571 35.1754 317.195 34.3241 315.903 33.3488C314.785 32.5036 313.744 31.5703 312.688 30.651C310.403 28.6522 308.156 26.6052 306.005 24.4502C304.938 23.3787 303.892 22.2853 302.897 21.1417C302.164 20.2985 301.519 19.3711 300.748 18.562C299.294 17.0458 297.449 15.8983 295.622 14.8888C293.175 13.5289 290.595 12.4074 287.936 11.5462C285.793 10.8472 283.505 10.2042 281.234 10.2583C280.327 10.2804 280.327 8.87036 281.234 8.84833C283.327 8.79826 285.448 9.315 287.439 9.91184C289.87 10.6409 292.246 11.5983 294.521 12.7218C296.648 13.7713 298.723 14.975 300.561 16.4871C301.31 17.104 301.963 17.7789 302.564 18.5459C303.453 19.6715 304.407 20.7491 305.386 21.7905C307.533 24.0697 309.82 26.2127 312.154 28.2997C314.479 30.3806 316.794 32.4115 319.456 34.0518C322.188 35.7301 325.052 37.2122 327.555 39.231C329.74 40.9935 331.605 43.1585 333.075 45.5459C336.448 51.0015 337.782 57.6429 336.616 63.9578C336.45 64.847 335.094 64.4665 335.26 63.5813L335.258 63.5792Z" fill="#821E23"/>
<path d="M285.744 181.833C282.902 177.559 278.789 173.912 273.808 172.685C268.823 171.453 262.972 173.091 260.144 177.373C267.519 181.974 276.247 184.383 284.939 184.215L285.744 181.833V181.833Z" fill="#F39E31"/>
<path d="M285.121 182.495C282.373 176.385 275.652 172.669 269.042 172.948C267.18 173.028 265.323 173.441 263.621 174.202C262.8 174.57 262.087 173.358 262.914 172.986C269.559 170.014 277.709 171.812 282.868 176.849C284.312 178.263 285.508 179.934 286.341 181.78C286.709 182.601 285.498 183.318 285.121 182.495V182.495Z" fill="#C66700"/>
<path d="M336.068 202.327C336.615 203.805 337.162 205.287 337.705 206.774C337.835 207.114 337.565 207.561 337.214 207.635C336.816 207.731 336.485 207.517 336.349 207.144C335.802 205.662 335.259 204.182 334.713 202.7C334.586 202.349 334.857 201.909 335.205 201.833C335.6 201.743 335.93 201.955 336.068 202.327V202.327Z" fill="#C66700"/>
<path d="M332 204.234L332.559 204.789L332.703 205.017L332.759 205.288L332.703 205.558L332.559 205.784L332.413 205.894L332.058 205.991L331.87 205.966L331.56 205.784L331.005 205.23L330.857 205.005L330.799 204.733L330.857 204.462L331.005 204.234L331.149 204.124L331.504 204.03L331.688 204.056L332 204.234Z" fill="#C66700"/>
<path d="M329.798 205.026L329.608 205.343L329.532 205.509L329.55 205.467L329.532 205.509L329.353 206.196L329.361 206.128L329.353 206.216L329.341 206.402L329.345 206.749L329.361 206.909L329.357 206.857L329.373 206.947L329.462 207.306C329.572 207.658 329.331 208.089 328.971 208.175C328.59 208.257 328.218 208.057 328.104 207.68C327.763 206.567 327.937 205.291 328.582 204.315L329.548 204.065L329.798 205.03V205.026Z" fill="#C66700"/>
<path d="M348.191 189.596C348.388 190.329 348.582 191.068 348.78 191.803C348.876 192.162 348.662 192.586 348.288 192.668C347.919 192.753 347.525 192.558 347.424 192.178C347.228 191.437 347.03 190.704 346.832 189.967C346.739 189.614 346.954 189.188 347.324 189.101C347.693 189.017 348.091 189.212 348.191 189.594V189.596Z" fill="#C66700"/>
<path d="M344.96 191.981C344.96 192.532 344.96 193.09 344.96 193.641L344.756 194.138L344.257 194.346C343.875 194.326 343.55 194.034 343.55 193.639C343.55 193.088 343.55 192.53 343.55 191.979L343.759 191.476L344.255 191.272C344.636 191.288 344.958 191.578 344.958 191.979L344.96 191.981Z" fill="#C66700"/>
<path d="M311.634 159.999C311.438 160.736 311.24 161.473 311.045 162.206C310.947 162.563 310.537 162.813 310.176 162.699C309.812 162.581 309.583 162.212 309.685 161.83C309.882 161.097 310.08 160.364 310.274 159.623C310.37 159.27 310.781 159.014 311.141 159.132C311.51 159.254 311.734 159.615 311.634 159.997V159.999Z" fill="#C66700"/>
<path d="M307.954 160.896C307.412 161.282 306.873 161.671 306.33 162.057L305.791 162.129L305.367 161.807L305.299 161.264L305.621 160.842C306.16 160.453 306.703 160.071 307.248 159.68L307.79 159.608L308.209 159.93L308.281 160.473L307.958 160.896H307.954Z" fill="#C66700"/>
<path d="M304.404 159.076C304.031 159.627 303.659 160.186 303.29 160.736L302.87 161.059L302.331 160.991L302.008 160.568L302.076 160.029C302.445 159.471 302.818 158.92 303.186 158.365L303.607 158.039L304.151 158.111L304.474 158.531L304.406 159.076H304.404Z" fill="#C66700"/>
<path d="M303.981 170.777C303.579 171.684 303.176 172.597 302.774 173.509L302.353 173.831L301.814 173.759L301.488 173.337L301.556 172.794C301.962 171.885 302.365 170.977 302.768 170.066L303.186 169.74L303.733 169.816L304.055 170.234L303.983 170.777H303.981Z" fill="#C66700"/>
<path d="M299.731 174.341C299.358 174.527 298.994 174.714 298.621 174.9L298.077 174.972L297.656 174.646L297.588 174.107L297.91 173.688C298.279 173.502 298.651 173.316 299.02 173.129L299.559 173.061L299.981 173.38L300.053 173.922L299.731 174.341V174.341Z" fill="#C66700"/>
<path d="M308.079 179.65C307.534 180.213 306.992 180.782 306.449 181.345H305.453V180.349C305.998 179.783 306.541 179.22 307.088 178.655H308.079V179.65V179.65Z" fill="#C66700"/>
<path d="M310.531 151.129C310.163 152.052 309.79 152.976 309.426 153.903L309.103 154.326L308.557 154.394C308.23 154.288 307.922 153.897 308.066 153.529C308.434 152.605 308.807 151.682 309.171 150.755L309.494 150.336L310.041 150.264C310.371 150.37 310.68 150.761 310.531 151.131V151.129Z" fill="#C66700"/>
<path d="M305.037 150.953C305.037 151.322 305.037 151.69 305.037 152.059L304.835 152.561L304.338 152.766L303.835 152.561L303.631 152.059C303.631 151.69 303.631 151.322 303.631 150.953L303.835 150.452L304.338 150.25L304.835 150.452L305.037 150.953Z" fill="#C66700"/>
<path d="M274.988 360.551C272.607 363.393 269.182 365.18 265.521 365.62C265.144 365.666 264.818 365.264 264.818 364.917C264.818 364.494 265.14 364.256 265.521 364.21C268.814 363.816 271.87 362.089 273.993 359.556C274.574 358.861 275.569 359.864 274.988 360.551V360.551Z" fill="#C66700"/>
<path d="M266.012 357.694C265.015 358.655 263.581 359.18 262.197 359.02C261.829 358.974 261.476 358.723 261.494 358.313C261.504 357.966 261.804 357.564 262.197 357.61L263.06 357.62L263.094 357.616L263.132 357.608L263.339 357.57L263.767 357.451L263.97 357.379L263.944 357.391L264.038 357.349L264.41 357.159L264.783 356.909L264.765 356.925L264.845 356.853L265.019 356.692H266.014V357.69L266.012 357.694Z" fill="#C66700"/>
<path d="M259.523 353.702C259.264 354.138 258.836 354.451 258.353 354.587C257.862 354.727 257.338 354.667 256.883 354.435L256.561 354.008L256.629 353.469C256.849 353.135 257.24 353.039 257.594 353.215L257.678 353.253L257.506 353.185L257.806 353.265L257.616 353.243H257.975L257.784 353.269L258.149 353.171L257.983 353.239L258.269 353.069L258.129 353.181L258.345 352.961L258.235 353.105L258.311 352.995L258.734 352.672L259.278 352.741L259.529 353.702H259.523Z" fill="#C66700"/>
<path d="M265.167 341.304C263.681 341.619 262.189 341.931 260.699 342.245C260.338 342.319 259.92 342.135 259.834 341.753C259.754 341.4 259.936 340.97 260.324 340.888C261.817 340.571 263.307 340.259 264.797 339.944C265.155 339.872 265.576 340.054 265.662 340.437C265.746 340.789 265.556 341.224 265.169 341.304H265.167Z" fill="#C66700"/>
<path d="M246.67 357.913C245.196 357.913 243.714 357.913 242.236 357.913C241.871 357.913 241.519 357.591 241.533 357.206C241.551 356.828 241.843 356.503 242.236 356.503C243.714 356.503 245.196 356.503 246.67 356.503C247.042 356.503 247.395 356.83 247.377 357.206C247.361 357.591 247.069 357.913 246.67 357.913Z" fill="#C66700"/>
<path d="M240.022 352.958C238.464 352.996 236.972 352.179 236.129 350.883L236.379 349.917C236.728 349.731 237.124 349.841 237.341 350.172L237.471 350.358L237.467 350.35L237.531 350.426L237.861 350.765L238.034 350.909L238.03 350.905L238.106 350.963L238.512 351.207L238.714 351.305L238.745 351.315L238.797 351.335L239.227 351.472L239.472 351.522L239.566 351.538L239.55 351.534L240.024 351.55C240.393 351.542 240.745 351.88 240.727 352.257C240.711 352.643 240.421 352.948 240.024 352.96L240.022 352.958Z" fill="#C66700"/>
<path d="M244.455 338.506C243.901 338.506 243.346 338.506 242.791 338.506L242.292 338.3L242.088 337.803C242.104 337.42 242.397 337.096 242.791 337.096C243.346 337.096 243.901 337.096 244.455 337.096L244.952 337.304L245.16 337.801C245.14 338.181 244.85 338.504 244.453 338.504L244.455 338.506Z" fill="#C66700"/>
<path d="M247.936 325.606C247.199 325.792 246.462 325.978 245.721 326.161C245.365 326.253 244.942 326.047 244.856 325.67C244.774 325.306 244.966 324.899 245.351 324.803C246.088 324.619 246.825 324.43 247.57 324.244C247.922 324.152 248.349 324.362 248.433 324.735C248.515 325.103 248.323 325.51 247.939 325.604L247.936 325.606Z" fill="#C66700"/>
<path d="M286.901 359.382C285.636 359.993 284.372 360.606 283.102 361.217C282.772 361.377 282.327 361.315 282.141 360.967C281.975 360.65 282.037 360.174 282.395 360.001C283.661 359.391 284.927 358.774 286.191 358.163C286.521 358.003 286.97 358.065 287.152 358.417C287.318 358.734 287.254 359.21 286.901 359.382Z" fill="#C66700"/>
<path d="M267.043 325.181C266.493 325.557 265.942 325.936 265.395 326.308L264.852 326.384L264.434 326.058L264.362 325.513L264.684 325.095C265.235 324.718 265.782 324.34 266.332 323.959L266.875 323.891L267.294 324.213L267.362 324.756L267.041 325.179L267.043 325.181Z" fill="#C66700"/>
<path d="M259.979 315.219H259.425L259.15 315.157L258.928 315.013L258.784 314.786L258.722 314.516L258.746 314.326L258.928 314.015L259.072 313.909L259.425 313.809H259.979L260.25 313.871L260.476 314.015L260.62 314.242L260.686 314.516L260.66 314.702L260.476 315.013L260.338 315.119L259.979 315.219Z" fill="#C66700"/>
<path d="M255.368 310.185C255 310.369 254.631 310.558 254.259 310.744L253.72 310.812L253.297 310.489L253.229 309.945L253.552 309.524C253.916 309.342 254.289 309.156 254.657 308.969L255.202 308.897L255.623 309.22L255.691 309.762L255.368 310.185V310.185Z" fill="#C66700"/>
<path d="M56.6558 353.123C60.6153 356.199 64.8213 359.772 65.5383 365.046C65.8547 367.367 65.4321 369.79 63.98 371.679C62.558 373.532 60.4491 374.609 58.5023 375.821C56.4955 377.065 54.8252 378.587 53.94 380.824C53.1068 382.913 52.9926 385.266 53.7196 387.405C55.1977 391.747 59.4456 394.407 61.6027 398.358C64.0621 402.845 63.1228 408.707 59.2434 412.108C58.5624 412.701 57.563 411.709 58.2439 411.11C61.5346 408.23 62.544 403.271 60.5472 399.368C58.5484 395.468 54.6309 392.909 52.8084 388.887C50.9498 384.795 51.847 379.69 55.1376 376.57C56.794 375.002 58.8929 374.05 60.7535 372.767C62.6242 371.471 63.96 369.71 64.1964 367.401C64.8012 361.509 59.8343 357.363 55.6664 354.118C54.9494 353.559 55.9568 352.572 56.6577 353.123H56.6558Z" fill="white"/>
<path d="M124.59 426.16C120.464 428.812 115.453 429.807 110.624 429.01C109.727 428.862 110.107 427.502 110.997 427.65C115.455 428.387 120.089 427.38 123.885 424.943C124.648 424.456 125.355 425.672 124.592 426.162L124.59 426.16Z" fill="#C66700"/>
<path d="M115.264 420.18C114.074 422.128 111.298 422.819 109.348 421.604L109.093 420.642L110.059 420.388L110.335 420.548L110.403 420.582L110.521 420.626L110.856 420.724L111.012 420.758L111.106 420.778L111.204 420.788L111.364 420.8H111.685L111.845 420.788L111.909 420.784L112.224 420.718L112.536 420.636L112.69 420.58L112.728 420.568L113.291 420.264L113.445 420.154L113.453 420.146L113.708 419.905L113.818 419.787L113.886 419.711L113.946 419.629L114.048 419.469L115.01 419.218L115.26 420.176L115.264 420.18Z" fill="#C66700"/>
<path d="M107.739 418.989C106.003 419.586 104.148 419.704 102.339 419.384C101.963 419.322 101.753 418.863 101.849 418.521C101.955 418.12 102.339 417.958 102.714 418.026C104.264 418.296 105.866 418.14 107.36 417.631C107.723 417.507 108.127 417.772 108.228 418.12C108.334 418.509 108.097 418.865 107.737 418.987L107.739 418.989Z" fill="#C66700"/>
<path d="M121.742 402.199C119.367 403.861 116.639 405.003 113.789 405.526C113.412 405.6 113.026 405.427 112.92 405.037C112.827 404.694 113.038 404.238 113.412 404.17C116.16 403.665 118.744 402.585 121.035 400.983L121.996 401.234C122.203 401.588 122.055 401.979 121.742 402.199Z" fill="#C66700"/>
<path d="M142.768 409.879C139.798 411.343 136.834 412.805 133.87 414.267C133.061 414.662 132.342 413.45 133.155 413.051C136.121 411.587 139.089 410.123 142.053 408.663C142.862 408.263 143.577 409.476 142.768 409.879Z" fill="#C66700"/>
<path d="M136.003 416.19C134.338 416.737 132.67 417.288 131.006 417.833C130.645 417.955 130.239 417.696 130.139 417.342C130.032 416.961 130.269 416.593 130.629 416.475C132.296 415.928 133.96 415.381 135.628 414.83C135.987 414.71 136.395 414.966 136.492 415.323C136.598 415.706 136.365 416.068 136.001 416.188L136.003 416.19Z" fill="#C66700"/>
<path d="M131.966 396.93C131.061 398.196 129.731 399.125 128.205 399.462C127.849 399.544 127.426 399.355 127.34 398.971C127.256 398.618 127.446 398.188 127.835 398.106L128.772 397.813H128.768L128.86 397.767L129.096 397.649L129.517 397.399L129.711 397.266L129.815 397.194L129.791 397.21L130.168 396.888L130.506 396.531L130.672 396.331L130.656 396.353L130.747 396.227L131.708 395.973L131.966 396.934V396.93Z" fill="#C66700"/>
<path d="M162.216 414.954C160.208 416.284 158.201 417.618 156.194 418.948L155.233 418.696C155.026 418.349 155.164 417.945 155.483 417.732C157.488 416.398 159.499 415.069 161.503 413.733L162.465 413.989C162.669 414.33 162.533 414.74 162.214 414.952L162.216 414.954Z" fill="#C66700"/>
<path d="M96.2698 430.91C89.8027 429.315 82.9792 429.568 76.6463 431.625C75.783 431.905 75.4105 430.549 76.2737 430.269C82.8389 428.136 89.9429 427.897 96.6463 429.55C97.5235 429.768 97.1551 431.124 96.2698 430.912V430.91Z" fill="#F39E31"/>
<path d="M83.6663 425.556C80.1513 425.556 76.6404 425.556 73.1314 425.556C72.2222 425.556 72.2222 424.142 73.1314 424.142C76.6404 424.142 80.1533 424.142 83.6663 424.142C84.5715 424.142 84.5715 425.556 83.6663 425.556Z" fill="#F39E31"/>
<path d="M113.575 357.614C109.471 356.422 105.227 355.198 101.678 352.731C98.644 350.618 96.1164 347.614 95.3033 343.942C95.109 343.061 96.4649 342.681 96.6632 343.566C98.4217 351.491 107.126 354.277 113.949 356.252C114.815 356.502 114.444 357.862 113.573 357.612L113.575 357.614Z" fill="#F39E31"/>
<path d="M97.1132 355.382C94.0749 352.943 91.5173 349.926 89.5866 346.544C89.136 345.757 90.3537 345.044 90.8023 345.835C92.6789 349.121 95.1564 352.015 98.1125 354.387V355.382H97.1132Z" fill="#F39E31"/>
<path d="M113.302 353.087C114.992 357.313 118.787 360.541 123.188 361.637C124.069 361.853 123.696 363.213 122.819 362.997C117.906 361.773 113.818 358.144 111.942 353.463C111.798 353.107 112.098 352.696 112.432 352.598C112.835 352.484 113.161 352.742 113.302 353.089V353.087Z" fill="#F39E31"/>
<path d="M340.586 278.281C347.005 285.142 351.95 293.342 355.034 302.225C355.903 304.728 356.622 307.288 357.183 309.877C357.377 310.766 356.017 311.139 355.827 310.254C353.87 301.275 350.033 292.753 344.611 285.333C343.065 283.214 341.381 281.191 339.588 279.276C338.969 278.615 339.965 277.616 340.584 278.281H340.586Z" fill="#CE9582"/>
<path d="M229.309 309.812C215.293 305.667 203.056 296.396 195.72 284.375C197.13 282.855 198.54 281.336 199.948 279.808C200.222 279.516 200.515 279.211 200.909 279.113C201.985 278.839 217.332 297.83 234.048 301.507L229.309 309.812Z" fill="#2F3866"/>
<path d="M205.519 290.458C202.296 296.103 204.257 303.292 209.899 306.514C215.545 309.741 222.733 307.778 225.959 302.132C229.186 296.49 227.221 289.298 221.577 286.075C215.931 282.849 208.743 284.814 205.519 290.456V290.458Z" fill="#B03537"/>
<path d="M208.46 292.137C206.161 296.161 207.555 301.282 211.579 303.577C215.598 305.877 220.72 304.473 223.019 300.457C225.314 296.435 223.916 291.316 219.897 289.017C215.877 286.724 210.756 288.116 208.46 292.137V292.137Z" fill="#F39E31"/>
<path d="M219.202 292.072C218.058 294.075 216.915 296.072 215.771 298.078L214.806 298.329C213.196 297.406 211.579 296.486 209.965 295.567C209.178 295.114 209.889 293.895 210.68 294.347C212.29 295.271 213.907 296.194 215.521 297.113L214.556 297.363C215.699 295.365 216.843 293.362 217.982 291.361C218.437 290.574 219.655 291.285 219.202 292.072Z" fill="#141515"/>
<path d="M312.957 31.7148C309.666 23.0066 305.929 14.4687 301.737 6.15502C301.228 5.13359 300.728 4.09613 300.169 3.09672C299.788 2.41777 299.276 1.57657 298.438 1.42435C296.99 1.15598 296.269 3.14478 296.087 4.24032C295.791 6.04486 296.291 8.06766 296.874 9.75803C297.535 11.6887 298.535 13.4853 299.652 15.1837C300.77 16.8941 302.03 18.5124 303.311 20.1046C304.649 21.7569 305.987 23.4212 307.465 24.9513C310.311 27.8955 313.742 29.8763 317.643 31.0719C321.455 32.2476 325.424 32.7604 329.364 33.2851C333.626 33.8579 337.856 34.5489 342.028 35.6184C346.356 36.7239 350.6 38.146 354.717 39.8684C356.738 40.7196 358.745 41.6168 360.694 42.6182C362.19 43.3973 363.752 44.4047 364.625 45.8928C365.05 46.6078 365.266 47.4129 365.242 48.2501L364.726 48.9291C357.223 51.9273 349.012 50.0346 341.789 47.1325C337.956 45.5943 334.259 43.7378 330.554 41.9092C326.546 39.9245 322.506 37.9958 318.525 35.9629C315.552 34.4468 311.99 31.9432 312.582 28.1439C313.035 28.2681 313.486 28.3902 313.938 28.5204C311.393 39.2114 308.278 49.7622 304.593 60.1188C303.56 63.0309 302.48 65.9169 301.361 68.793C301.034 69.6282 299.67 69.2656 300.001 68.4204C303.992 58.178 307.437 47.7253 310.305 37.1184C311.11 34.1402 311.871 31.1461 312.584 28.1459C312.797 27.2486 314.08 27.6431 313.94 28.5224C313.474 31.5166 316.93 33.5635 319.16 34.7071C322.887 36.6218 326.674 38.4263 330.425 40.2809C337.371 43.7157 344.433 47.469 352.174 48.7108C356.278 49.3697 360.472 49.1174 364.355 47.5712L363.838 48.2521C363.888 46.4496 362.35 45.2198 360.944 44.3687C359.064 43.2391 356.985 42.3619 354.972 41.4966C350.728 39.6681 346.34 38.184 341.868 37.0324C337.525 35.9108 333.129 35.2018 328.695 34.6049C324.639 34.0662 320.544 33.5174 316.64 32.2336C312.642 30.9198 309.16 28.7808 306.257 25.7245C304.751 24.1363 303.383 22.4239 302.016 20.7175C300.702 19.0792 299.418 17.4148 298.278 15.6483C297.143 13.8919 296.161 12.0313 295.49 10.0445C294.886 8.24795 294.439 6.169 294.681 4.26232C294.871 2.77624 295.544 1.0358 296.954 0.310779C298.699 -0.590487 300.321 0.611177 301.216 2.08925C302.41 4.05001 303.355 6.2071 304.363 8.26599C305.414 10.425 306.442 12.5901 307.433 14.7751C309.416 19.1293 311.281 23.5334 313.029 27.9857C313.47 29.1033 313.902 30.2228 314.325 31.3444C314.643 32.1916 313.279 32.5601 312.965 31.7169L312.957 31.7148Z" fill="#F39E31"/>
<path d="M312.685 27.8912C307.226 34.178 301.025 39.8059 294.251 44.6507C292.303 46.0367 290.312 47.3585 288.271 48.6123C287.498 49.0909 286.793 47.8712 287.56 47.3966C294.608 43.0545 301.127 37.8792 306.955 32.0049C308.59 30.3526 310.17 28.6462 311.69 26.8938C312.287 26.2068 313.278 27.2062 312.685 27.8892V27.8912Z" fill="#F39E31"/>
</svg>
