<svg width="109" height="33" viewBox="0 0 109 33" fill="none" xmlns="http://www.w3.org/2000/svg">
<path d="M38.8877 17.373L35.9141 26H34.1162L37.8623 16.0469H39.0107L38.8877 17.373ZM41.376 26L38.3955 17.373L38.2656 16.0469H39.4209L43.1807 26H41.376ZM41.2324 22.3086V23.6689H35.8184V22.3086H41.2324ZM48.0752 22.2881H45.4844V20.9277H48.0752C48.5264 20.9277 48.891 20.8548 49.1689 20.709C49.4469 20.5632 49.6497 20.3626 49.7773 20.1074C49.9095 19.8477 49.9756 19.5514 49.9756 19.2188C49.9756 18.9043 49.9095 18.6104 49.7773 18.3369C49.6497 18.0589 49.4469 17.8356 49.1689 17.667C48.891 17.4984 48.5264 17.4141 48.0752 17.4141H46.0107V26H44.2949V16.0469H48.0752C48.8454 16.0469 49.4993 16.1836 50.0371 16.457C50.5794 16.7259 50.9919 17.0996 51.2744 17.5781C51.557 18.0521 51.6982 18.5944 51.6982 19.2051C51.6982 19.8477 51.557 20.3991 51.2744 20.8594C50.9919 21.3197 50.5794 21.6729 50.0371 21.9189C49.4993 22.165 48.8454 22.2881 48.0752 22.2881ZM57.0166 22.2881H54.4258V20.9277H57.0166C57.4678 20.9277 57.8324 20.8548 58.1104 20.709C58.3883 20.5632 58.5911 20.3626 58.7188 20.1074C58.8509 19.8477 58.917 19.5514 58.917 19.2188C58.917 18.9043 58.8509 18.6104 58.7188 18.3369C58.5911 18.0589 58.3883 17.8356 58.1104 17.667C57.8324 17.4984 57.4678 17.4141 57.0166 17.4141H54.9521V26H53.2363V16.0469H57.0166C57.7868 16.0469 58.4408 16.1836 58.9785 16.457C59.5208 16.7259 59.9333 17.0996 60.2158 17.5781C60.4984 18.0521 60.6396 18.5944 60.6396 19.2051C60.6396 19.8477 60.4984 20.3991 60.2158 20.8594C59.9333 21.3197 59.5208 21.6729 58.9785 21.9189C58.4408 22.165 57.7868 22.2881 57.0166 22.2881ZM70.9004 23.4365C70.9004 23.2314 70.8685 23.0492 70.8047 22.8896C70.7454 22.7301 70.6383 22.5843 70.4834 22.4521C70.3285 22.32 70.1097 22.1924 69.8271 22.0693C69.5492 21.9417 69.1937 21.8118 68.7607 21.6797C68.2868 21.5339 67.8493 21.3721 67.4482 21.1943C67.0518 21.012 66.7054 20.8024 66.4092 20.5654C66.113 20.3239 65.8828 20.0482 65.7188 19.7383C65.5547 19.4238 65.4727 19.0615 65.4727 18.6514C65.4727 18.2458 65.557 17.8766 65.7256 17.5439C65.8988 17.2113 66.1426 16.9242 66.457 16.6826C66.776 16.4365 67.152 16.2474 67.585 16.1152C68.0179 15.9785 68.4964 15.9102 69.0205 15.9102C69.7588 15.9102 70.3945 16.0469 70.9277 16.3203C71.4655 16.5938 71.8779 16.9606 72.165 17.4209C72.4567 17.8812 72.6025 18.3893 72.6025 18.9453H70.9004C70.9004 18.6172 70.8298 18.3278 70.6885 18.0771C70.5518 17.8219 70.3421 17.6214 70.0596 17.4756C69.7816 17.3298 69.4284 17.2568 69 17.2568C68.5944 17.2568 68.2572 17.3184 67.9883 17.4414C67.7194 17.5645 67.5189 17.7308 67.3867 17.9404C67.2546 18.1501 67.1885 18.387 67.1885 18.6514C67.1885 18.8382 67.2318 19.0091 67.3184 19.1641C67.4049 19.3145 67.5371 19.4557 67.7148 19.5879C67.8926 19.7155 68.1159 19.8363 68.3848 19.9502C68.6536 20.0641 68.9704 20.1735 69.335 20.2783C69.8864 20.4424 70.3672 20.6247 70.7773 20.8252C71.1875 21.0212 71.5293 21.2445 71.8027 21.4951C72.0762 21.7458 72.2812 22.0306 72.418 22.3496C72.5547 22.6641 72.623 23.0218 72.623 23.4229C72.623 23.8421 72.5387 24.2204 72.3701 24.5576C72.2015 24.8903 71.96 25.1751 71.6455 25.4121C71.3356 25.6445 70.9619 25.8245 70.5244 25.9521C70.0915 26.0752 69.6084 26.1367 69.0752 26.1367C68.5967 26.1367 68.125 26.0729 67.6602 25.9453C67.1999 25.8177 66.7806 25.624 66.4023 25.3643C66.0241 25.0999 65.7233 24.7718 65.5 24.3799C65.2767 23.9834 65.165 23.5208 65.165 22.9922H66.8809C66.8809 23.3158 66.9355 23.5915 67.0449 23.8193C67.1589 24.0472 67.3161 24.234 67.5166 24.3799C67.7171 24.5212 67.9495 24.626 68.2139 24.6943C68.4827 24.7627 68.7699 24.7969 69.0752 24.7969C69.4762 24.7969 69.8112 24.7399 70.0801 24.626C70.3535 24.512 70.5586 24.3525 70.6953 24.1475C70.832 23.9424 70.9004 23.7054 70.9004 23.4365ZM78.2354 16.0469V26H76.5332V16.0469H78.2354ZM81.3594 16.0469V17.4141H73.4365V16.0469H81.3594ZM90.417 20.75V21.2969C90.417 22.0488 90.319 22.7233 90.123 23.3203C89.9271 23.9173 89.6468 24.4255 89.2822 24.8447C88.9222 25.264 88.4893 25.5853 87.9834 25.8086C87.4775 26.0273 86.917 26.1367 86.3018 26.1367C85.6911 26.1367 85.1328 26.0273 84.627 25.8086C84.1257 25.5853 83.6904 25.264 83.3213 24.8447C82.9521 24.4255 82.665 23.9173 82.46 23.3203C82.2594 22.7233 82.1592 22.0488 82.1592 21.2969V20.75C82.1592 19.998 82.2594 19.3258 82.46 18.7334C82.6605 18.1364 82.943 17.6283 83.3076 17.209C83.6768 16.7852 84.112 16.4639 84.6133 16.2451C85.1191 16.0218 85.6774 15.9102 86.2881 15.9102C86.9033 15.9102 87.4639 16.0218 87.9697 16.2451C88.4756 16.4639 88.9108 16.7852 89.2754 17.209C89.64 17.6283 89.9202 18.1364 90.1162 18.7334C90.3167 19.3258 90.417 19.998 90.417 20.75ZM88.7012 21.2969V20.7363C88.7012 20.1803 88.6465 19.6904 88.5371 19.2666C88.4323 18.8382 88.2751 18.4805 88.0654 18.1934C87.8604 17.9017 87.6074 17.6829 87.3066 17.5371C87.0059 17.3867 86.6663 17.3115 86.2881 17.3115C85.9098 17.3115 85.5726 17.3867 85.2764 17.5371C84.9801 17.6829 84.7272 17.9017 84.5176 18.1934C84.3125 18.4805 84.1553 18.8382 84.0459 19.2666C83.9365 19.6904 83.8818 20.1803 83.8818 20.7363V21.2969C83.8818 21.8529 83.9365 22.3451 84.0459 22.7734C84.1553 23.2018 84.3148 23.5641 84.5244 23.8604C84.7386 24.152 84.9938 24.373 85.29 24.5234C85.5863 24.6693 85.9235 24.7422 86.3018 24.7422C86.6846 24.7422 87.0241 24.6693 87.3203 24.5234C87.6165 24.373 87.8672 24.152 88.0723 23.8604C88.2773 23.5641 88.4323 23.2018 88.5371 22.7734C88.6465 22.3451 88.7012 21.8529 88.7012 21.2969ZM92.1328 16.0469H95.6533C96.4098 16.0469 97.0547 16.1608 97.5879 16.3887C98.1211 16.6165 98.529 16.9538 98.8115 17.4004C99.0986 17.8424 99.2422 18.3893 99.2422 19.041C99.2422 19.5378 99.151 19.9753 98.9688 20.3535C98.7865 20.7318 98.529 21.0508 98.1963 21.3105C97.8636 21.5658 97.4671 21.764 97.0068 21.9053L96.4873 22.1582H93.3223L93.3086 20.7979H95.6807C96.0908 20.7979 96.4326 20.7249 96.7061 20.5791C96.9795 20.4333 97.1846 20.235 97.3213 19.9844C97.4626 19.7292 97.5332 19.4421 97.5332 19.123C97.5332 18.7767 97.4648 18.4759 97.3281 18.2207C97.196 17.9609 96.9909 17.7627 96.7129 17.626C96.4349 17.4847 96.0817 17.4141 95.6533 17.4141H93.8486V26H92.1328V16.0469ZM97.8135 26L95.4756 21.5293L97.2734 21.5225L99.6455 25.9111V26H97.8135ZM107.466 24.6396V26H102.182V24.6396H107.466ZM102.667 16.0469V26H100.951V16.0469H102.667ZM106.775 20.2031V21.543H102.182V20.2031H106.775ZM107.432 16.0469V17.4141H102.182V16.0469H107.432Z" fill="white"/>
<path d="M36.749 8H35.2646L35.2744 7.2334H36.749C37.2568 7.2334 37.68 7.1276 38.0186 6.91602C38.3571 6.70117 38.611 6.40169 38.7803 6.01758C38.9528 5.63021 39.0391 5.17773 39.0391 4.66016V4.22559C39.0391 3.81868 38.9902 3.45736 38.8926 3.1416C38.7949 2.82259 38.6517 2.55404 38.4629 2.33594C38.2741 2.11458 38.043 1.94694 37.7695 1.83301C37.4993 1.71908 37.1885 1.66211 36.8369 1.66211H35.2354V0.890625H36.8369C37.3024 0.890625 37.7272 0.96875 38.1113 1.125C38.4954 1.27799 38.8258 1.50098 39.1025 1.79395C39.3825 2.08366 39.5973 2.43522 39.7471 2.84863C39.8968 3.25879 39.9717 3.72103 39.9717 4.23535V4.66016C39.9717 5.17448 39.8968 5.63835 39.7471 6.05176C39.5973 6.46191 39.3809 6.81185 39.0977 7.10156C38.8177 7.39128 38.4792 7.61426 38.082 7.77051C37.6882 7.9235 37.2438 8 36.749 8ZM35.7676 0.890625V8H34.8252V0.890625H35.7676ZM41.0117 5.41699V5.30469C41.0117 4.92383 41.0671 4.57064 41.1777 4.24512C41.2884 3.91634 41.4479 3.63151 41.6562 3.39062C41.8646 3.14648 42.1169 2.95768 42.4131 2.82422C42.7093 2.6875 43.0413 2.61914 43.4092 2.61914C43.7803 2.61914 44.1139 2.6875 44.4102 2.82422C44.7096 2.95768 44.9635 3.14648 45.1719 3.39062C45.3835 3.63151 45.5446 3.91634 45.6553 4.24512C45.766 4.57064 45.8213 4.92383 45.8213 5.30469V5.41699C45.8213 5.79785 45.766 6.15104 45.6553 6.47656C45.5446 6.80208 45.3835 7.08691 45.1719 7.33105C44.9635 7.57194 44.7113 7.76074 44.415 7.89746C44.1221 8.03092 43.79 8.09766 43.4189 8.09766C43.0479 8.09766 42.7142 8.03092 42.418 7.89746C42.1217 7.76074 41.8678 7.57194 41.6562 7.33105C41.4479 7.08691 41.2884 6.80208 41.1777 6.47656C41.0671 6.15104 41.0117 5.79785 41.0117 5.41699ZM41.915 5.30469V5.41699C41.915 5.68066 41.946 5.92969 42.0078 6.16406C42.0697 6.39518 42.1624 6.60026 42.2861 6.7793C42.4131 6.95833 42.571 7.09993 42.7598 7.2041C42.9486 7.30501 43.1683 7.35547 43.4189 7.35547C43.6663 7.35547 43.8828 7.30501 44.0684 7.2041C44.2572 7.09993 44.4134 6.95833 44.5371 6.7793C44.6608 6.60026 44.7536 6.39518 44.8154 6.16406C44.8805 5.92969 44.9131 5.68066 44.9131 5.41699V5.30469C44.9131 5.04427 44.8805 4.7985 44.8154 4.56738C44.7536 4.33301 44.6592 4.1263 44.5322 3.94727C44.4085 3.76497 44.2523 3.62174 44.0635 3.51758C43.8779 3.41341 43.6598 3.36133 43.4092 3.36133C43.1618 3.36133 42.9437 3.41341 42.7549 3.51758C42.5693 3.62174 42.4131 3.76497 42.2861 3.94727C42.1624 4.1263 42.0697 4.33301 42.0078 4.56738C41.946 4.7985 41.915 5.04427 41.915 5.30469ZM48.292 7.0625L49.6494 2.7168H50.2451L50.1279 3.58105L48.7461 8H48.165L48.292 7.0625ZM47.3789 2.7168L48.5361 7.11133L48.6191 8H48.0088L46.4756 2.7168H47.3789ZM51.5439 7.07715L52.6475 2.7168H53.5459L52.0127 8H51.4072L51.5439 7.07715ZM50.377 2.7168L51.7051 6.98926L51.8564 8H51.2803L49.8594 3.57129L49.7422 2.7168H50.377ZM55.377 3.84473V8H54.4736V2.7168H55.3281L55.377 3.84473ZM55.1621 5.1582L54.7861 5.14355C54.7894 4.78223 54.8431 4.44857 54.9473 4.14258C55.0514 3.83333 55.1979 3.56478 55.3867 3.33691C55.5755 3.10905 55.8001 2.93327 56.0605 2.80957C56.3242 2.68262 56.6156 2.61914 56.9346 2.61914C57.195 2.61914 57.4294 2.65495 57.6377 2.72656C57.846 2.79492 58.0234 2.9056 58.1699 3.05859C58.3197 3.21159 58.4336 3.41016 58.5117 3.6543C58.5898 3.89518 58.6289 4.18978 58.6289 4.53809V8H57.7207V4.52832C57.7207 4.25163 57.68 4.03027 57.5986 3.86426C57.5173 3.69499 57.3984 3.57292 57.2422 3.49805C57.0859 3.41992 56.8939 3.38086 56.666 3.38086C56.4414 3.38086 56.2363 3.42806 56.0508 3.52246C55.8685 3.61686 55.7106 3.74707 55.5771 3.91309C55.4469 4.0791 55.3444 4.26953 55.2695 4.48438C55.1979 4.69596 55.1621 4.92057 55.1621 5.1582ZM60.9824 0.5V8H60.0742V0.5H60.9824ZM62.1934 5.41699V5.30469C62.1934 4.92383 62.2487 4.57064 62.3594 4.24512C62.4701 3.91634 62.6296 3.63151 62.8379 3.39062C63.0462 3.14648 63.2985 2.95768 63.5947 2.82422C63.891 2.6875 64.223 2.61914 64.5908 2.61914C64.9619 2.61914 65.2956 2.6875 65.5918 2.82422C65.8913 2.95768 66.1452 3.14648 66.3535 3.39062C66.5651 3.63151 66.7262 3.91634 66.8369 4.24512C66.9476 4.57064 67.0029 4.92383 67.0029 5.30469V5.41699C67.0029 5.79785 66.9476 6.15104 66.8369 6.47656C66.7262 6.80208 66.5651 7.08691 66.3535 7.33105C66.1452 7.57194 65.8929 7.76074 65.5967 7.89746C65.3037 8.03092 64.9717 8.09766 64.6006 8.09766C64.2295 8.09766 63.8958 8.03092 63.5996 7.89746C63.3034 7.76074 63.0495 7.57194 62.8379 7.33105C62.6296 7.08691 62.4701 6.80208 62.3594 6.47656C62.2487 6.15104 62.1934 5.79785 62.1934 5.41699ZM63.0967 5.30469V5.41699C63.0967 5.68066 63.1276 5.92969 63.1895 6.16406C63.2513 6.39518 63.3441 6.60026 63.4678 6.7793C63.5947 6.95833 63.7526 7.09993 63.9414 7.2041C64.1302 7.30501 64.3499 7.35547 64.6006 7.35547C64.848 7.35547 65.0645 7.30501 65.25 7.2041C65.4388 7.09993 65.5951 6.95833 65.7188 6.7793C65.8424 6.60026 65.9352 6.39518 65.9971 6.16406C66.0622 5.92969 66.0947 5.68066 66.0947 5.41699V5.30469C66.0947 5.04427 66.0622 4.7985 65.9971 4.56738C65.9352 4.33301 65.8408 4.1263 65.7139 3.94727C65.5902 3.76497 65.4339 3.62174 65.2451 3.51758C65.0596 3.41341 64.8415 3.36133 64.5908 3.36133C64.3434 3.36133 64.1253 3.41341 63.9365 3.51758C63.751 3.62174 63.5947 3.76497 63.4678 3.94727C63.3441 4.1263 63.2513 4.33301 63.1895 4.56738C63.1276 4.7985 63.0967 5.04427 63.0967 5.30469ZM71.251 7.09668V4.37695C71.251 4.16862 71.2087 3.98796 71.124 3.83496C71.0426 3.67871 70.9189 3.55827 70.7529 3.47363C70.5869 3.389 70.3818 3.34668 70.1377 3.34668C69.9098 3.34668 69.7096 3.38574 69.5371 3.46387C69.3678 3.54199 69.2344 3.64453 69.1367 3.77148C69.0423 3.89844 68.9951 4.03516 68.9951 4.18164H68.0918C68.0918 3.99284 68.1406 3.80566 68.2383 3.62012C68.3359 3.43457 68.4759 3.26693 68.6582 3.11719C68.8438 2.96419 69.0651 2.84375 69.3223 2.75586C69.5827 2.66471 69.8724 2.61914 70.1914 2.61914C70.5755 2.61914 70.9141 2.68424 71.207 2.81445C71.5033 2.94466 71.7344 3.1416 71.9004 3.40527C72.0697 3.66569 72.1543 3.99284 72.1543 4.38672V6.84766C72.1543 7.02344 72.1689 7.21061 72.1982 7.40918C72.2308 7.60775 72.278 7.77865 72.3398 7.92188V8H71.3975C71.3519 7.89583 71.3161 7.75749 71.29 7.58496C71.264 7.40918 71.251 7.24642 71.251 7.09668ZM71.4072 4.79688L71.417 5.43164H70.5039C70.2467 5.43164 70.0173 5.4528 69.8154 5.49512C69.6136 5.53418 69.4443 5.5944 69.3076 5.67578C69.1709 5.75716 69.0667 5.8597 68.9951 5.9834C68.9235 6.10384 68.8877 6.24544 68.8877 6.4082C68.8877 6.57422 68.9251 6.72559 69 6.8623C69.0749 6.99902 69.1872 7.10807 69.3369 7.18945C69.4899 7.26758 69.6771 7.30664 69.8984 7.30664C70.1751 7.30664 70.4193 7.24805 70.6309 7.13086C70.8424 7.01367 71.0101 6.87044 71.1338 6.70117C71.2607 6.5319 71.3291 6.36751 71.3389 6.20801L71.7246 6.64258C71.7018 6.7793 71.64 6.93066 71.5391 7.09668C71.4382 7.2627 71.3031 7.4222 71.1338 7.5752C70.9678 7.72493 70.7692 7.85026 70.5381 7.95117C70.3102 8.04883 70.0531 8.09766 69.7666 8.09766C69.4085 8.09766 69.0944 8.02767 68.8242 7.8877C68.5573 7.74772 68.349 7.56055 68.1992 7.32617C68.0527 7.08854 67.9795 6.82324 67.9795 6.53027C67.9795 6.24707 68.0348 5.99805 68.1455 5.7832C68.2562 5.5651 68.4157 5.38444 68.624 5.24121C68.8324 5.09473 69.083 4.98405 69.376 4.90918C69.6689 4.83431 69.9961 4.79688 70.3574 4.79688H71.4072ZM76.9053 6.97461V0.5H77.8135V8H76.9834L76.9053 6.97461ZM73.3506 5.41699V5.31445C73.3506 4.91081 73.3994 4.5446 73.4971 4.21582C73.598 3.88379 73.7396 3.59896 73.9219 3.36133C74.1074 3.1237 74.3271 2.94141 74.5811 2.81445C74.8382 2.68424 75.1247 2.61914 75.4404 2.61914C75.7725 2.61914 76.0622 2.67773 76.3096 2.79492C76.5602 2.90885 76.7718 3.0765 76.9443 3.29785C77.1201 3.51595 77.2585 3.77962 77.3594 4.08887C77.4603 4.39811 77.5303 4.74805 77.5693 5.13867V5.58789C77.5335 5.97526 77.4635 6.32357 77.3594 6.63281C77.2585 6.94206 77.1201 7.20573 76.9443 7.42383C76.7718 7.64193 76.5602 7.80957 76.3096 7.92676C76.0589 8.04069 75.766 8.09766 75.4307 8.09766C75.1214 8.09766 74.8382 8.03092 74.5811 7.89746C74.3271 7.764 74.1074 7.57682 73.9219 7.33594C73.7396 7.09505 73.598 6.81185 73.4971 6.48633C73.3994 6.15755 73.3506 5.80111 73.3506 5.41699ZM74.2588 5.31445V5.41699C74.2588 5.68066 74.2848 5.92806 74.3369 6.15918C74.3923 6.3903 74.4769 6.59375 74.5908 6.76953C74.7048 6.94531 74.8496 7.08366 75.0254 7.18457C75.2012 7.28223 75.4111 7.33105 75.6553 7.33105C75.9548 7.33105 76.2005 7.26758 76.3926 7.14062C76.5879 7.01367 76.7441 6.84603 76.8613 6.6377C76.9785 6.42936 77.0697 6.20312 77.1348 5.95898V4.78223C77.0957 4.60319 77.0387 4.43066 76.9639 4.26465C76.8923 4.09538 76.7979 3.94564 76.6807 3.81543C76.5667 3.68197 76.4251 3.57617 76.2559 3.49805C76.0898 3.41992 75.8929 3.38086 75.665 3.38086C75.4176 3.38086 75.2044 3.43294 75.0254 3.53711C74.8496 3.63802 74.7048 3.77799 74.5908 3.95703C74.4769 4.13281 74.3923 4.33789 74.3369 4.57227C74.2848 4.80339 74.2588 5.05078 74.2588 5.31445ZM81.4609 5.41699V5.30469C81.4609 4.92383 81.5163 4.57064 81.627 4.24512C81.7376 3.91634 81.8971 3.63151 82.1055 3.39062C82.3138 3.14648 82.5661 2.95768 82.8623 2.82422C83.1585 2.6875 83.4906 2.61914 83.8584 2.61914C84.2295 2.61914 84.5632 2.6875 84.8594 2.82422C85.1589 2.95768 85.4128 3.14648 85.6211 3.39062C85.8327 3.63151 85.9938 3.91634 86.1045 4.24512C86.2152 4.57064 86.2705 4.92383 86.2705 5.30469V5.41699C86.2705 5.79785 86.2152 6.15104 86.1045 6.47656C85.9938 6.80208 85.8327 7.08691 85.6211 7.33105C85.4128 7.57194 85.1605 7.76074 84.8643 7.89746C84.5713 8.03092 84.2393 8.09766 83.8682 8.09766C83.4971 8.09766 83.1634 8.03092 82.8672 7.89746C82.571 7.76074 82.3171 7.57194 82.1055 7.33105C81.8971 7.08691 81.7376 6.80208 81.627 6.47656C81.5163 6.15104 81.4609 5.79785 81.4609 5.41699ZM82.3643 5.30469V5.41699C82.3643 5.68066 82.3952 5.92969 82.457 6.16406C82.5189 6.39518 82.6117 6.60026 82.7354 6.7793C82.8623 6.95833 83.0202 7.09993 83.209 7.2041C83.3978 7.30501 83.6175 7.35547 83.8682 7.35547C84.1156 7.35547 84.332 7.30501 84.5176 7.2041C84.7064 7.09993 84.8626 6.95833 84.9863 6.7793C85.11 6.60026 85.2028 6.39518 85.2646 6.16406C85.3298 5.92969 85.3623 5.68066 85.3623 5.41699V5.30469C85.3623 5.04427 85.3298 4.7985 85.2646 4.56738C85.2028 4.33301 85.1084 4.1263 84.9814 3.94727C84.8577 3.76497 84.7015 3.62174 84.5127 3.51758C84.3271 3.41341 84.109 3.36133 83.8584 3.36133C83.611 3.36133 83.3929 3.41341 83.2041 3.51758C83.0186 3.62174 82.8623 3.76497 82.7354 3.94727C82.6117 4.1263 82.5189 4.33301 82.457 4.56738C82.3952 4.7985 82.3643 5.04427 82.3643 5.30469ZM88.3066 3.84473V8H87.4033V2.7168H88.2578L88.3066 3.84473ZM88.0918 5.1582L87.7158 5.14355C87.7191 4.78223 87.7728 4.44857 87.877 4.14258C87.9811 3.83333 88.1276 3.56478 88.3164 3.33691C88.5052 3.10905 88.7298 2.93327 88.9902 2.80957C89.2539 2.68262 89.5452 2.61914 89.8643 2.61914C90.1247 2.61914 90.359 2.65495 90.5674 2.72656C90.7757 2.79492 90.9531 2.9056 91.0996 3.05859C91.2493 3.21159 91.3633 3.41016 91.4414 3.6543C91.5195 3.89518 91.5586 4.18978 91.5586 4.53809V8H90.6504V4.52832C90.6504 4.25163 90.6097 4.03027 90.5283 3.86426C90.4469 3.69499 90.3281 3.57292 90.1719 3.49805C90.0156 3.41992 89.8236 3.38086 89.5957 3.38086C89.3711 3.38086 89.166 3.42806 88.9805 3.52246C88.7982 3.61686 88.6403 3.74707 88.5068 3.91309C88.3766 4.0791 88.2741 4.26953 88.1992 4.48438C88.1276 4.69596 88.0918 4.92057 88.0918 5.1582ZM97.623 2.7168V3.41016H94.7666V2.7168H97.623ZM95.7334 1.43262H96.6367V6.69141C96.6367 6.87044 96.6644 7.00553 96.7197 7.09668C96.7751 7.18783 96.8467 7.24805 96.9346 7.27734C97.0225 7.30664 97.1169 7.32129 97.2178 7.32129C97.2926 7.32129 97.3708 7.31478 97.4521 7.30176C97.5368 7.28548 97.6003 7.27246 97.6426 7.2627L97.6475 8C97.5758 8.02279 97.4814 8.04395 97.3643 8.06348C97.2503 8.08626 97.112 8.09766 96.9492 8.09766C96.7279 8.09766 96.5244 8.05371 96.3389 7.96582C96.1533 7.87793 96.0052 7.73145 95.8945 7.52637C95.7871 7.31803 95.7334 7.03809 95.7334 6.68652V1.43262ZM99.5859 0.5V8H98.6826V0.5H99.5859ZM99.3711 5.1582L98.9951 5.14355C98.9984 4.78223 99.0521 4.44857 99.1562 4.14258C99.2604 3.83333 99.4069 3.56478 99.5957 3.33691C99.7845 3.10905 100.009 2.93327 100.27 2.80957C100.533 2.68262 100.825 2.61914 101.144 2.61914C101.404 2.61914 101.638 2.65495 101.847 2.72656C102.055 2.79492 102.232 2.9056 102.379 3.05859C102.529 3.21159 102.643 3.41016 102.721 3.6543C102.799 3.89518 102.838 4.18978 102.838 4.53809V8H101.93V4.52832C101.93 4.25163 101.889 4.03027 101.808 3.86426C101.726 3.69499 101.607 3.57292 101.451 3.49805C101.295 3.41992 101.103 3.38086 100.875 3.38086C100.65 3.38086 100.445 3.42806 100.26 3.52246C100.077 3.61686 99.9196 3.74707 99.7861 3.91309C99.6559 4.0791 99.5534 4.26953 99.4785 4.48438C99.4069 4.69596 99.3711 4.92057 99.3711 5.1582ZM106.383 8.09766C106.015 8.09766 105.681 8.03581 105.382 7.91211C105.086 7.78516 104.83 7.60775 104.615 7.37988C104.404 7.15202 104.241 6.88184 104.127 6.56934C104.013 6.25684 103.956 5.91504 103.956 5.54395V5.33887C103.956 4.90918 104.02 4.52669 104.146 4.19141C104.273 3.85286 104.446 3.56641 104.664 3.33203C104.882 3.09766 105.13 2.92025 105.406 2.7998C105.683 2.67936 105.969 2.61914 106.266 2.61914C106.643 2.61914 106.969 2.68424 107.242 2.81445C107.519 2.94466 107.745 3.12695 107.921 3.36133C108.097 3.59245 108.227 3.86589 108.312 4.18164C108.396 4.49414 108.438 4.83594 108.438 5.20703V5.6123H104.493V4.875H107.535V4.80664C107.522 4.57227 107.473 4.3444 107.389 4.12305C107.307 3.90169 107.177 3.7194 106.998 3.57617C106.819 3.43294 106.575 3.36133 106.266 3.36133C106.061 3.36133 105.872 3.40527 105.699 3.49316C105.527 3.5778 105.379 3.70475 105.255 3.87402C105.131 4.04329 105.035 4.25 104.967 4.49414C104.898 4.73828 104.864 5.01986 104.864 5.33887V5.54395C104.864 5.7946 104.898 6.0306 104.967 6.25195C105.038 6.47005 105.141 6.66211 105.274 6.82812C105.411 6.99414 105.576 7.12435 105.768 7.21875C105.963 7.31315 106.184 7.36035 106.432 7.36035C106.751 7.36035 107.021 7.29525 107.242 7.16504C107.464 7.03483 107.657 6.86068 107.823 6.64258L108.37 7.07715C108.256 7.24967 108.111 7.41406 107.936 7.57031C107.76 7.72656 107.543 7.85352 107.286 7.95117C107.032 8.04883 106.731 8.09766 106.383 8.09766Z" fill="white"/>
<path d="M16.6185 3C16.6743 3 16.7302 3 16.7892 3C16.9262 4.69253 16.2802 5.95719 15.495 6.87301C14.7246 7.78251 13.6697 8.6646 11.9635 8.53076C11.8497 6.86247 12.4967 5.69161 13.2808 4.77789C14.008 3.92636 15.3412 3.16862 16.6185 3Z" fill="#F2F2F2"/>
<path d="M21.7836 20.6167C21.7836 20.6335 21.7836 20.6483 21.7836 20.6641C21.3041 22.1163 20.6201 23.361 19.7855 24.516C19.0235 25.5646 18.0898 26.9758 16.4225 26.9758C14.9819 26.9758 14.025 26.0494 12.5485 26.0241C10.9866 25.9988 10.1277 26.7987 8.6997 27C8.53635 27 8.373 27 8.21281 27C7.1642 26.8482 6.31793 26.0178 5.70141 25.2695C3.88347 23.0585 2.47865 20.2025 2.21729 16.5476C2.21729 16.1893 2.21729 15.832 2.21729 15.4737C2.32794 12.858 3.59892 10.7313 5.28829 9.70057C6.17987 9.15256 7.40553 8.68569 8.77031 8.89436C9.35521 8.98499 9.95276 9.18523 10.4765 9.38336C10.9729 9.57411 11.5937 9.9124 12.1817 9.89449C12.5801 9.88289 12.9763 9.67528 13.3779 9.52879C14.554 9.10408 15.7069 8.61718 17.2266 8.84588C19.053 9.12199 20.3493 9.93348 21.1502 11.1855C19.6052 12.1688 18.3838 13.6505 18.5925 16.1809C18.7779 18.4794 20.1143 19.8241 21.7836 20.6167Z" fill="#F2F2F2"/>
</svg>
