<svg width="50" height="50" viewBox="0 0 50 50" fill="none" xmlns="http://www.w3.org/2000/svg">
<circle cx="25" cy="24.9998" r="25" fill="white"/>
<g clip-path="url(#clip0_1_1427)">
<path d="M34.0812 30.368C33.7364 31.2141 33.3085 32.0239 32.8037 32.7855C32.1325 33.793 31.5837 34.4905 31.16 34.878C30.5037 35.5142 29.8 35.8392 29.0475 35.858C28.505 35.858 27.8537 35.6955 27.0938 35.3667C26.3325 35.0392 25.6325 34.878 24.9925 34.878C24.3212 34.878 23.6012 35.0405 22.8313 35.3667C22.06 35.6955 21.4387 35.8667 20.9637 35.8842C20.2413 35.9167 19.5212 35.5817 18.8025 34.878C18.3437 34.4567 17.77 33.7342 17.0825 32.7117C16.345 31.6192 15.7387 30.3517 15.2638 28.9067C14.755 27.348 14.5 25.8367 14.5 24.3742C14.5 22.6992 14.8437 21.253 15.5325 20.043C16.0435 19.1021 16.7882 18.3087 17.695 17.7392C18.5704 17.1847 19.5826 16.884 20.6188 16.8705C21.1925 16.8705 21.945 17.058 22.88 17.4242C23.8125 17.793 24.4113 17.9805 24.6737 17.9805C24.87 17.9805 25.535 17.7617 26.6625 17.3255C27.7287 16.9217 28.6287 16.7542 29.3662 16.8205C31.3638 16.9905 32.8638 17.8205 33.8625 19.313C32.075 20.453 31.1925 22.0505 31.21 24.0967C31.2262 25.693 31.775 27.0205 32.855 28.0742C33.345 28.563 33.8925 28.9417 34.5 29.2092C34.3687 29.613 34.2288 29.998 34.0812 30.368ZM29.4987 11.3867C29.4987 12.6367 29.065 13.8042 28.2013 14.8842C27.1575 16.1692 25.895 16.9117 24.5262 16.7942C24.5079 16.6366 24.4987 16.478 24.4987 16.3192C24.4987 15.1192 24.995 13.8355 25.8762 12.7855C26.3162 12.253 26.8763 11.8105 27.5538 11.4592C28.2325 11.1105 28.8725 10.9192 29.475 10.8855C29.4912 11.053 29.5 11.2205 29.5 11.3855L29.4987 11.3867Z" fill="#141515"/>
</g>
<defs>
<clipPath id="clip0_1_1427">
<rect width="25" height="25" fill="white" transform="translate(12 10.8855)"/>
</clipPath>
</defs>
</svg>
