<svg width="33" height="40" viewBox="0 0 33 40" fill="none" xmlns="http://www.w3.org/2000/svg">
<g clip-path="url(#clip0_618_59)">
<path d="M16.5525 31.2121C15.7705 31.2121 15.0081 31.1699 14.2643 31.0861L10.3749 37.8232C9.38458 39.5377 7.1715 40.1307 5.45625 39.1411H5.45558C3.74099 38.1508 3.14736 35.9377 4.13765 34.2225L7.30015 28.7444C5.14469 27.4365 3.42809 25.7186 2.15104 23.5899C0.725901 21.2154 0.0136719 18.5447 0.0136719 15.5798C0.0136719 12.615 0.725901 9.94428 2.15104 7.56973C3.57617 5.19517 5.54804 3.33118 8.06665 1.97773C10.5853 0.624962 13.4141 -0.0517578 16.5518 -0.0517578C19.6895 -0.0517578 22.511 0.624962 25.0155 1.97773C27.52 3.33051 29.4919 5.1945 30.9311 7.56973C32.3703 9.94495 33.0899 12.615 33.0899 15.5798C33.0899 18.5447 32.3703 21.2147 30.9311 23.5899C29.4919 25.9651 27.52 27.8291 25.0155 29.1819C22.511 30.5347 19.6902 31.2114 16.5518 31.2114L16.5525 31.2121ZM16.5525 26.7879C18.6201 26.7879 20.4888 26.3129 22.1565 25.3621C23.8242 24.4114 25.1334 23.0854 26.0842 21.3842C27.0343 19.683 27.51 17.748 27.51 15.5805C27.51 13.4123 27.0343 11.4773 26.0842 9.7761C25.1334 8.07492 23.8242 6.74962 22.1565 5.79819C20.4888 4.84743 18.6208 4.37239 16.5525 4.37239C14.4848 4.37239 12.6168 4.84743 10.9491 5.79819C9.28139 6.74895 7.97217 8.07492 7.02142 9.7761C6.07066 11.4773 5.59561 13.4123 5.59561 15.5805C5.59561 17.7487 6.07066 19.683 7.02142 21.3842C7.97217 23.0854 9.28139 24.4114 10.9491 25.3621C12.6168 26.3129 14.4848 26.7879 16.5525 26.7879Z" fill="#005546"/>
<path fill-rule="evenodd" clip-rule="evenodd" d="M22.4393 8.78773C24.6491 9.49661 25.6253 13.9603 22.576 17.9563C22.0567 18.6364 16.2818 25.63 15.8818 25.1134C13.6265 22.2022 7.95013 18.1292 8.66773 12.8072C9.00207 10.3248 12.2698 7.50799 15.1877 12.4876C15.6031 13.1971 15.9951 13.9234 16.3843 14.6511C17.0443 13.2092 18.1197 10.8031 19.2654 9.84971C20.0628 9.18773 21.3673 8.44267 22.44 8.78773H22.4393Z" fill="#FF6231"/>
</g>
<defs>
<clipPath id="clip0_618_59">
<rect width="33" height="40" fill="white"/>
</clipPath>
</defs>
</svg>
