<svg width="126" height="33" viewBox="0 0 126 33" fill="none" xmlns="http://www.w3.org/2000/svg">
<path d="M42.6543 20.9141V24.7148C42.513 24.9017 42.292 25.1068 41.9912 25.3301C41.695 25.5488 41.3008 25.738 40.8086 25.8975C40.3164 26.057 39.7035 26.1367 38.9697 26.1367C38.3454 26.1367 37.7734 26.0319 37.2539 25.8223C36.7344 25.6081 36.2855 25.2959 35.9072 24.8857C35.5335 24.4756 35.2441 23.9766 35.0391 23.3887C34.834 22.7962 34.7314 22.1217 34.7314 21.3652V20.6748C34.7314 19.9229 34.8249 19.2529 35.0117 18.665C35.2031 18.0726 35.4766 17.5713 35.832 17.1611C36.1875 16.751 36.6159 16.4411 37.1172 16.2314C37.623 16.0173 38.195 15.9102 38.833 15.9102C39.6488 15.9102 40.3232 16.0469 40.8564 16.3203C41.3942 16.5892 41.8089 16.9629 42.1006 17.4414C42.3923 17.9199 42.5768 18.4668 42.6543 19.082H40.9727C40.918 18.7357 40.8109 18.4258 40.6514 18.1523C40.4964 17.8789 40.2731 17.6647 39.9814 17.5098C39.6943 17.3503 39.3206 17.2705 38.8604 17.2705C38.4639 17.2705 38.1152 17.3457 37.8145 17.4961C37.5137 17.6465 37.263 17.8675 37.0625 18.1592C36.8665 18.4508 36.7184 18.8063 36.6182 19.2256C36.5179 19.6449 36.4678 20.1234 36.4678 20.6611V21.3652C36.4678 21.9121 36.5247 22.3975 36.6387 22.8213C36.7572 23.2451 36.9258 23.6029 37.1445 23.8945C37.3678 24.1862 37.639 24.4072 37.958 24.5576C38.277 24.7035 38.637 24.7764 39.0381 24.7764C39.43 24.7764 39.7513 24.7445 40.002 24.6807C40.2526 24.6123 40.4508 24.5326 40.5967 24.4414C40.7471 24.3457 40.8633 24.2546 40.9453 24.168V22.1924H38.874V20.9141H42.6543ZM52.4912 20.75V21.2969C52.4912 22.0488 52.3932 22.7233 52.1973 23.3203C52.0013 23.9173 51.721 24.4255 51.3564 24.8447C50.9964 25.264 50.5635 25.5853 50.0576 25.8086C49.5518 26.0273 48.9912 26.1367 48.376 26.1367C47.7653 26.1367 47.207 26.0273 46.7012 25.8086C46.1999 25.5853 45.7646 25.264 45.3955 24.8447C45.0264 24.4255 44.7393 23.9173 44.5342 23.3203C44.3337 22.7233 44.2334 22.0488 44.2334 21.2969V20.75C44.2334 19.998 44.3337 19.3258 44.5342 18.7334C44.7347 18.1364 45.0173 17.6283 45.3818 17.209C45.751 16.7852 46.1862 16.4639 46.6875 16.2451C47.1934 16.0218 47.7516 15.9102 48.3623 15.9102C48.9775 15.9102 49.5381 16.0218 50.0439 16.2451C50.5498 16.4639 50.985 16.7852 51.3496 17.209C51.7142 17.6283 51.9945 18.1364 52.1904 18.7334C52.391 19.3258 52.4912 19.998 52.4912 20.75ZM50.7754 21.2969V20.7363C50.7754 20.1803 50.7207 19.6904 50.6113 19.2666C50.5065 18.8382 50.3493 18.4805 50.1396 18.1934C49.9346 17.9017 49.6816 17.6829 49.3809 17.5371C49.0801 17.3867 48.7406 17.3115 48.3623 17.3115C47.984 17.3115 47.6468 17.3867 47.3506 17.5371C47.0544 17.6829 46.8014 17.9017 46.5918 18.1934C46.3867 18.4805 46.2295 18.8382 46.1201 19.2666C46.0107 19.6904 45.9561 20.1803 45.9561 20.7363V21.2969C45.9561 21.8529 46.0107 22.3451 46.1201 22.7734C46.2295 23.2018 46.389 23.5641 46.5986 23.8604C46.8128 24.152 47.068 24.373 47.3643 24.5234C47.6605 24.6693 47.9977 24.7422 48.376 24.7422C48.7588 24.7422 49.0983 24.6693 49.3945 24.5234C49.6908 24.373 49.9414 24.152 50.1465 23.8604C50.3516 23.5641 50.5065 23.2018 50.6113 22.7734C50.7207 22.3451 50.7754 21.8529 50.7754 21.2969ZM62.1436 20.75V21.2969C62.1436 22.0488 62.0456 22.7233 61.8496 23.3203C61.6536 23.9173 61.3734 24.4255 61.0088 24.8447C60.6488 25.264 60.2158 25.5853 59.71 25.8086C59.2041 26.0273 58.6436 26.1367 58.0283 26.1367C57.4176 26.1367 56.8594 26.0273 56.3535 25.8086C55.8522 25.5853 55.417 25.264 55.0479 24.8447C54.6787 24.4255 54.3916 23.9173 54.1865 23.3203C53.986 22.7233 53.8857 22.0488 53.8857 21.2969V20.75C53.8857 19.998 53.986 19.3258 54.1865 18.7334C54.387 18.1364 54.6696 17.6283 55.0342 17.209C55.4033 16.7852 55.8385 16.4639 56.3398 16.2451C56.8457 16.0218 57.404 15.9102 58.0146 15.9102C58.6299 15.9102 59.1904 16.0218 59.6963 16.2451C60.2021 16.4639 60.6374 16.7852 61.002 17.209C61.3665 17.6283 61.6468 18.1364 61.8428 18.7334C62.0433 19.3258 62.1436 19.998 62.1436 20.75ZM60.4277 21.2969V20.7363C60.4277 20.1803 60.373 19.6904 60.2637 19.2666C60.1589 18.8382 60.0016 18.4805 59.792 18.1934C59.5869 17.9017 59.334 17.6829 59.0332 17.5371C58.7324 17.3867 58.3929 17.3115 58.0146 17.3115C57.6364 17.3115 57.2992 17.3867 57.0029 17.5371C56.7067 17.6829 56.4538 17.9017 56.2441 18.1934C56.0391 18.4805 55.8818 18.8382 55.7725 19.2666C55.6631 19.6904 55.6084 20.1803 55.6084 20.7363V21.2969C55.6084 21.8529 55.6631 22.3451 55.7725 22.7734C55.8818 23.2018 56.0413 23.5641 56.251 23.8604C56.4652 24.152 56.7204 24.373 57.0166 24.5234C57.3128 24.6693 57.6501 24.7422 58.0283 24.7422C58.4111 24.7422 58.7507 24.6693 59.0469 24.5234C59.3431 24.373 59.5938 24.152 59.7988 23.8604C60.0039 23.5641 60.1589 23.2018 60.2637 22.7734C60.373 22.3451 60.4277 21.8529 60.4277 21.2969ZM71.502 20.9141V24.7148C71.3607 24.9017 71.1396 25.1068 70.8389 25.3301C70.5426 25.5488 70.1484 25.738 69.6562 25.8975C69.1641 26.057 68.5511 26.1367 67.8174 26.1367C67.193 26.1367 66.6211 26.0319 66.1016 25.8223C65.582 25.6081 65.1331 25.2959 64.7549 24.8857C64.3812 24.4756 64.0918 23.9766 63.8867 23.3887C63.6816 22.7962 63.5791 22.1217 63.5791 21.3652V20.6748C63.5791 19.9229 63.6725 19.2529 63.8594 18.665C64.0508 18.0726 64.3242 17.5713 64.6797 17.1611C65.0352 16.751 65.4635 16.4411 65.9648 16.2314C66.4707 16.0173 67.0426 15.9102 67.6807 15.9102C68.4964 15.9102 69.1709 16.0469 69.7041 16.3203C70.2419 16.5892 70.6566 16.9629 70.9482 17.4414C71.2399 17.9199 71.4245 18.4668 71.502 19.082H69.8203C69.7656 18.7357 69.6585 18.4258 69.499 18.1523C69.3441 17.8789 69.1208 17.6647 68.8291 17.5098C68.542 17.3503 68.1683 17.2705 67.708 17.2705C67.3115 17.2705 66.9629 17.3457 66.6621 17.4961C66.3613 17.6465 66.1107 17.8675 65.9102 18.1592C65.7142 18.4508 65.5661 18.8063 65.4658 19.2256C65.3656 19.6449 65.3154 20.1234 65.3154 20.6611V21.3652C65.3154 21.9121 65.3724 22.3975 65.4863 22.8213C65.6048 23.2451 65.7734 23.6029 65.9922 23.8945C66.2155 24.1862 66.4867 24.4072 66.8057 24.5576C67.1247 24.7035 67.4847 24.7764 67.8857 24.7764C68.2777 24.7764 68.599 24.7445 68.8496 24.6807C69.1003 24.6123 69.2985 24.5326 69.4443 24.4414C69.5947 24.3457 69.7109 24.2546 69.793 24.168V22.1924H67.7217V20.9141H71.502ZM79.6367 24.6396V26H74.6396V24.6396H79.6367ZM75.1182 16.0469V26H73.4023V16.0469H75.1182ZM87.4775 24.6396V26H82.1934V24.6396H87.4775ZM82.6787 16.0469V26H80.9629V16.0469H82.6787ZM86.7871 20.2031V21.543H82.1934V20.2031H86.7871ZM87.4434 16.0469V17.4141H82.1934V16.0469H87.4434ZM96.1455 22.2881H93.5547V20.9277H96.1455C96.5967 20.9277 96.9613 20.8548 97.2393 20.709C97.5173 20.5632 97.7201 20.3626 97.8477 20.1074C97.9798 19.8477 98.0459 19.5514 98.0459 19.2188C98.0459 18.9043 97.9798 18.6104 97.8477 18.3369C97.7201 18.0589 97.5173 17.8356 97.2393 17.667C96.9613 17.4984 96.5967 17.4141 96.1455 17.4141H94.0811V26H92.3652V16.0469H96.1455C96.9157 16.0469 97.5697 16.1836 98.1074 16.457C98.6497 16.7259 99.0622 17.0996 99.3447 17.5781C99.6273 18.0521 99.7686 18.5944 99.7686 19.2051C99.7686 19.8477 99.6273 20.3991 99.3447 20.8594C99.0622 21.3197 98.6497 21.6729 98.1074 21.9189C97.5697 22.165 96.9157 22.2881 96.1455 22.2881ZM107.541 24.6396V26H102.544V24.6396H107.541ZM103.022 16.0469V26H101.307V16.0469H103.022ZM112.88 17.373L109.906 26H108.108L111.854 16.0469H113.003L112.88 17.373ZM115.368 26L112.388 17.373L112.258 16.0469H113.413L117.173 26H115.368ZM115.225 22.3086V23.6689H109.811V22.3086H115.225ZM118.458 16.0469L120.769 20.7979L123.079 16.0469H124.979L121.63 22.3359V26H119.9V22.3359L116.551 16.0469H118.458Z" fill="white"/>
<path d="M36.749 8H35.2646L35.2744 7.2334H36.749C37.2568 7.2334 37.68 7.1276 38.0186 6.91602C38.3571 6.70117 38.611 6.40169 38.7803 6.01758C38.9528 5.63021 39.0391 5.17773 39.0391 4.66016V4.22559C39.0391 3.81868 38.9902 3.45736 38.8926 3.1416C38.7949 2.82259 38.6517 2.55404 38.4629 2.33594C38.2741 2.11458 38.043 1.94694 37.7695 1.83301C37.4993 1.71908 37.1885 1.66211 36.8369 1.66211H35.2354V0.890625H36.8369C37.3024 0.890625 37.7272 0.96875 38.1113 1.125C38.4954 1.27799 38.8258 1.50098 39.1025 1.79395C39.3825 2.08366 39.5973 2.43522 39.7471 2.84863C39.8968 3.25879 39.9717 3.72103 39.9717 4.23535V4.66016C39.9717 5.17448 39.8968 5.63835 39.7471 6.05176C39.5973 6.46191 39.3809 6.81185 39.0977 7.10156C38.8177 7.39128 38.4792 7.61426 38.082 7.77051C37.6882 7.9235 37.2438 8 36.749 8ZM35.7676 0.890625V8H34.8252V0.890625H35.7676ZM41.0117 5.41699V5.30469C41.0117 4.92383 41.0671 4.57064 41.1777 4.24512C41.2884 3.91634 41.4479 3.63151 41.6562 3.39062C41.8646 3.14648 42.1169 2.95768 42.4131 2.82422C42.7093 2.6875 43.0413 2.61914 43.4092 2.61914C43.7803 2.61914 44.1139 2.6875 44.4102 2.82422C44.7096 2.95768 44.9635 3.14648 45.1719 3.39062C45.3835 3.63151 45.5446 3.91634 45.6553 4.24512C45.766 4.57064 45.8213 4.92383 45.8213 5.30469V5.41699C45.8213 5.79785 45.766 6.15104 45.6553 6.47656C45.5446 6.80208 45.3835 7.08691 45.1719 7.33105C44.9635 7.57194 44.7113 7.76074 44.415 7.89746C44.1221 8.03092 43.79 8.09766 43.4189 8.09766C43.0479 8.09766 42.7142 8.03092 42.418 7.89746C42.1217 7.76074 41.8678 7.57194 41.6562 7.33105C41.4479 7.08691 41.2884 6.80208 41.1777 6.47656C41.0671 6.15104 41.0117 5.79785 41.0117 5.41699ZM41.915 5.30469V5.41699C41.915 5.68066 41.946 5.92969 42.0078 6.16406C42.0697 6.39518 42.1624 6.60026 42.2861 6.7793C42.4131 6.95833 42.571 7.09993 42.7598 7.2041C42.9486 7.30501 43.1683 7.35547 43.4189 7.35547C43.6663 7.35547 43.8828 7.30501 44.0684 7.2041C44.2572 7.09993 44.4134 6.95833 44.5371 6.7793C44.6608 6.60026 44.7536 6.39518 44.8154 6.16406C44.8805 5.92969 44.9131 5.68066 44.9131 5.41699V5.30469C44.9131 5.04427 44.8805 4.7985 44.8154 4.56738C44.7536 4.33301 44.6592 4.1263 44.5322 3.94727C44.4085 3.76497 44.2523 3.62174 44.0635 3.51758C43.8779 3.41341 43.6598 3.36133 43.4092 3.36133C43.1618 3.36133 42.9437 3.41341 42.7549 3.51758C42.5693 3.62174 42.4131 3.76497 42.2861 3.94727C42.1624 4.1263 42.0697 4.33301 42.0078 4.56738C41.946 4.7985 41.915 5.04427 41.915 5.30469ZM48.292 7.0625L49.6494 2.7168H50.2451L50.1279 3.58105L48.7461 8H48.165L48.292 7.0625ZM47.3789 2.7168L48.5361 7.11133L48.6191 8H48.0088L46.4756 2.7168H47.3789ZM51.5439 7.07715L52.6475 2.7168H53.5459L52.0127 8H51.4072L51.5439 7.07715ZM50.377 2.7168L51.7051 6.98926L51.8564 8H51.2803L49.8594 3.57129L49.7422 2.7168H50.377ZM55.377 3.84473V8H54.4736V2.7168H55.3281L55.377 3.84473ZM55.1621 5.1582L54.7861 5.14355C54.7894 4.78223 54.8431 4.44857 54.9473 4.14258C55.0514 3.83333 55.1979 3.56478 55.3867 3.33691C55.5755 3.10905 55.8001 2.93327 56.0605 2.80957C56.3242 2.68262 56.6156 2.61914 56.9346 2.61914C57.195 2.61914 57.4294 2.65495 57.6377 2.72656C57.846 2.79492 58.0234 2.9056 58.1699 3.05859C58.3197 3.21159 58.4336 3.41016 58.5117 3.6543C58.5898 3.89518 58.6289 4.18978 58.6289 4.53809V8H57.7207V4.52832C57.7207 4.25163 57.68 4.03027 57.5986 3.86426C57.5173 3.69499 57.3984 3.57292 57.2422 3.49805C57.0859 3.41992 56.8939 3.38086 56.666 3.38086C56.4414 3.38086 56.2363 3.42806 56.0508 3.52246C55.8685 3.61686 55.7106 3.74707 55.5771 3.91309C55.4469 4.0791 55.3444 4.26953 55.2695 4.48438C55.1979 4.69596 55.1621 4.92057 55.1621 5.1582ZM60.9824 0.5V8H60.0742V0.5H60.9824ZM62.1934 5.41699V5.30469C62.1934 4.92383 62.2487 4.57064 62.3594 4.24512C62.4701 3.91634 62.6296 3.63151 62.8379 3.39062C63.0462 3.14648 63.2985 2.95768 63.5947 2.82422C63.891 2.6875 64.223 2.61914 64.5908 2.61914C64.9619 2.61914 65.2956 2.6875 65.5918 2.82422C65.8913 2.95768 66.1452 3.14648 66.3535 3.39062C66.5651 3.63151 66.7262 3.91634 66.8369 4.24512C66.9476 4.57064 67.0029 4.92383 67.0029 5.30469V5.41699C67.0029 5.79785 66.9476 6.15104 66.8369 6.47656C66.7262 6.80208 66.5651 7.08691 66.3535 7.33105C66.1452 7.57194 65.8929 7.76074 65.5967 7.89746C65.3037 8.03092 64.9717 8.09766 64.6006 8.09766C64.2295 8.09766 63.8958 8.03092 63.5996 7.89746C63.3034 7.76074 63.0495 7.57194 62.8379 7.33105C62.6296 7.08691 62.4701 6.80208 62.3594 6.47656C62.2487 6.15104 62.1934 5.79785 62.1934 5.41699ZM63.0967 5.30469V5.41699C63.0967 5.68066 63.1276 5.92969 63.1895 6.16406C63.2513 6.39518 63.3441 6.60026 63.4678 6.7793C63.5947 6.95833 63.7526 7.09993 63.9414 7.2041C64.1302 7.30501 64.3499 7.35547 64.6006 7.35547C64.848 7.35547 65.0645 7.30501 65.25 7.2041C65.4388 7.09993 65.5951 6.95833 65.7188 6.7793C65.8424 6.60026 65.9352 6.39518 65.9971 6.16406C66.0622 5.92969 66.0947 5.68066 66.0947 5.41699V5.30469C66.0947 5.04427 66.0622 4.7985 65.9971 4.56738C65.9352 4.33301 65.8408 4.1263 65.7139 3.94727C65.5902 3.76497 65.4339 3.62174 65.2451 3.51758C65.0596 3.41341 64.8415 3.36133 64.5908 3.36133C64.3434 3.36133 64.1253 3.41341 63.9365 3.51758C63.751 3.62174 63.5947 3.76497 63.4678 3.94727C63.3441 4.1263 63.2513 4.33301 63.1895 4.56738C63.1276 4.7985 63.0967 5.04427 63.0967 5.30469ZM71.251 7.09668V4.37695C71.251 4.16862 71.2087 3.98796 71.124 3.83496C71.0426 3.67871 70.9189 3.55827 70.7529 3.47363C70.5869 3.389 70.3818 3.34668 70.1377 3.34668C69.9098 3.34668 69.7096 3.38574 69.5371 3.46387C69.3678 3.54199 69.2344 3.64453 69.1367 3.77148C69.0423 3.89844 68.9951 4.03516 68.9951 4.18164H68.0918C68.0918 3.99284 68.1406 3.80566 68.2383 3.62012C68.3359 3.43457 68.4759 3.26693 68.6582 3.11719C68.8438 2.96419 69.0651 2.84375 69.3223 2.75586C69.5827 2.66471 69.8724 2.61914 70.1914 2.61914C70.5755 2.61914 70.9141 2.68424 71.207 2.81445C71.5033 2.94466 71.7344 3.1416 71.9004 3.40527C72.0697 3.66569 72.1543 3.99284 72.1543 4.38672V6.84766C72.1543 7.02344 72.1689 7.21061 72.1982 7.40918C72.2308 7.60775 72.278 7.77865 72.3398 7.92188V8H71.3975C71.3519 7.89583 71.3161 7.75749 71.29 7.58496C71.264 7.40918 71.251 7.24642 71.251 7.09668ZM71.4072 4.79688L71.417 5.43164H70.5039C70.2467 5.43164 70.0173 5.4528 69.8154 5.49512C69.6136 5.53418 69.4443 5.5944 69.3076 5.67578C69.1709 5.75716 69.0667 5.8597 68.9951 5.9834C68.9235 6.10384 68.8877 6.24544 68.8877 6.4082C68.8877 6.57422 68.9251 6.72559 69 6.8623C69.0749 6.99902 69.1872 7.10807 69.3369 7.18945C69.4899 7.26758 69.6771 7.30664 69.8984 7.30664C70.1751 7.30664 70.4193 7.24805 70.6309 7.13086C70.8424 7.01367 71.0101 6.87044 71.1338 6.70117C71.2607 6.5319 71.3291 6.36751 71.3389 6.20801L71.7246 6.64258C71.7018 6.7793 71.64 6.93066 71.5391 7.09668C71.4382 7.2627 71.3031 7.4222 71.1338 7.5752C70.9678 7.72493 70.7692 7.85026 70.5381 7.95117C70.3102 8.04883 70.0531 8.09766 69.7666 8.09766C69.4085 8.09766 69.0944 8.02767 68.8242 7.8877C68.5573 7.74772 68.349 7.56055 68.1992 7.32617C68.0527 7.08854 67.9795 6.82324 67.9795 6.53027C67.9795 6.24707 68.0348 5.99805 68.1455 5.7832C68.2562 5.5651 68.4157 5.38444 68.624 5.24121C68.8324 5.09473 69.083 4.98405 69.376 4.90918C69.6689 4.83431 69.9961 4.79688 70.3574 4.79688H71.4072ZM76.9053 6.97461V0.5H77.8135V8H76.9834L76.9053 6.97461ZM73.3506 5.41699V5.31445C73.3506 4.91081 73.3994 4.5446 73.4971 4.21582C73.598 3.88379 73.7396 3.59896 73.9219 3.36133C74.1074 3.1237 74.3271 2.94141 74.5811 2.81445C74.8382 2.68424 75.1247 2.61914 75.4404 2.61914C75.7725 2.61914 76.0622 2.67773 76.3096 2.79492C76.5602 2.90885 76.7718 3.0765 76.9443 3.29785C77.1201 3.51595 77.2585 3.77962 77.3594 4.08887C77.4603 4.39811 77.5303 4.74805 77.5693 5.13867V5.58789C77.5335 5.97526 77.4635 6.32357 77.3594 6.63281C77.2585 6.94206 77.1201 7.20573 76.9443 7.42383C76.7718 7.64193 76.5602 7.80957 76.3096 7.92676C76.0589 8.04069 75.766 8.09766 75.4307 8.09766C75.1214 8.09766 74.8382 8.03092 74.5811 7.89746C74.3271 7.764 74.1074 7.57682 73.9219 7.33594C73.7396 7.09505 73.598 6.81185 73.4971 6.48633C73.3994 6.15755 73.3506 5.80111 73.3506 5.41699ZM74.2588 5.31445V5.41699C74.2588 5.68066 74.2848 5.92806 74.3369 6.15918C74.3923 6.3903 74.4769 6.59375 74.5908 6.76953C74.7048 6.94531 74.8496 7.08366 75.0254 7.18457C75.2012 7.28223 75.4111 7.33105 75.6553 7.33105C75.9548 7.33105 76.2005 7.26758 76.3926 7.14062C76.5879 7.01367 76.7441 6.84603 76.8613 6.6377C76.9785 6.42936 77.0697 6.20312 77.1348 5.95898V4.78223C77.0957 4.60319 77.0387 4.43066 76.9639 4.26465C76.8923 4.09538 76.7979 3.94564 76.6807 3.81543C76.5667 3.68197 76.4251 3.57617 76.2559 3.49805C76.0898 3.41992 75.8929 3.38086 75.665 3.38086C75.4176 3.38086 75.2044 3.43294 75.0254 3.53711C74.8496 3.63802 74.7048 3.77799 74.5908 3.95703C74.4769 4.13281 74.3923 4.33789 74.3369 4.57227C74.2848 4.80339 74.2588 5.05078 74.2588 5.31445ZM81.4609 5.41699V5.30469C81.4609 4.92383 81.5163 4.57064 81.627 4.24512C81.7376 3.91634 81.8971 3.63151 82.1055 3.39062C82.3138 3.14648 82.5661 2.95768 82.8623 2.82422C83.1585 2.6875 83.4906 2.61914 83.8584 2.61914C84.2295 2.61914 84.5632 2.6875 84.8594 2.82422C85.1589 2.95768 85.4128 3.14648 85.6211 3.39062C85.8327 3.63151 85.9938 3.91634 86.1045 4.24512C86.2152 4.57064 86.2705 4.92383 86.2705 5.30469V5.41699C86.2705 5.79785 86.2152 6.15104 86.1045 6.47656C85.9938 6.80208 85.8327 7.08691 85.6211 7.33105C85.4128 7.57194 85.1605 7.76074 84.8643 7.89746C84.5713 8.03092 84.2393 8.09766 83.8682 8.09766C83.4971 8.09766 83.1634 8.03092 82.8672 7.89746C82.571 7.76074 82.3171 7.57194 82.1055 7.33105C81.8971 7.08691 81.7376 6.80208 81.627 6.47656C81.5163 6.15104 81.4609 5.79785 81.4609 5.41699ZM82.3643 5.30469V5.41699C82.3643 5.68066 82.3952 5.92969 82.457 6.16406C82.5189 6.39518 82.6117 6.60026 82.7354 6.7793C82.8623 6.95833 83.0202 7.09993 83.209 7.2041C83.3978 7.30501 83.6175 7.35547 83.8682 7.35547C84.1156 7.35547 84.332 7.30501 84.5176 7.2041C84.7064 7.09993 84.8626 6.95833 84.9863 6.7793C85.11 6.60026 85.2028 6.39518 85.2646 6.16406C85.3298 5.92969 85.3623 5.68066 85.3623 5.41699V5.30469C85.3623 5.04427 85.3298 4.7985 85.2646 4.56738C85.2028 4.33301 85.1084 4.1263 84.9814 3.94727C84.8577 3.76497 84.7015 3.62174 84.5127 3.51758C84.3271 3.41341 84.109 3.36133 83.8584 3.36133C83.611 3.36133 83.3929 3.41341 83.2041 3.51758C83.0186 3.62174 82.8623 3.76497 82.7354 3.94727C82.6117 4.1263 82.5189 4.33301 82.457 4.56738C82.3952 4.7985 82.3643 5.04427 82.3643 5.30469ZM88.3066 3.84473V8H87.4033V2.7168H88.2578L88.3066 3.84473ZM88.0918 5.1582L87.7158 5.14355C87.7191 4.78223 87.7728 4.44857 87.877 4.14258C87.9811 3.83333 88.1276 3.56478 88.3164 3.33691C88.5052 3.10905 88.7298 2.93327 88.9902 2.80957C89.2539 2.68262 89.5452 2.61914 89.8643 2.61914C90.1247 2.61914 90.359 2.65495 90.5674 2.72656C90.7757 2.79492 90.9531 2.9056 91.0996 3.05859C91.2493 3.21159 91.3633 3.41016 91.4414 3.6543C91.5195 3.89518 91.5586 4.18978 91.5586 4.53809V8H90.6504V4.52832C90.6504 4.25163 90.6097 4.03027 90.5283 3.86426C90.4469 3.69499 90.3281 3.57292 90.1719 3.49805C90.0156 3.41992 89.8236 3.38086 89.5957 3.38086C89.3711 3.38086 89.166 3.42806 88.9805 3.52246C88.7982 3.61686 88.6403 3.74707 88.5068 3.91309C88.3766 4.0791 88.2741 4.26953 88.1992 4.48438C88.1276 4.69596 88.0918 4.92057 88.0918 5.1582ZM97.623 2.7168V3.41016H94.7666V2.7168H97.623ZM95.7334 1.43262H96.6367V6.69141C96.6367 6.87044 96.6644 7.00553 96.7197 7.09668C96.7751 7.18783 96.8467 7.24805 96.9346 7.27734C97.0225 7.30664 97.1169 7.32129 97.2178 7.32129C97.2926 7.32129 97.3708 7.31478 97.4521 7.30176C97.5368 7.28548 97.6003 7.27246 97.6426 7.2627L97.6475 8C97.5758 8.02279 97.4814 8.04395 97.3643 8.06348C97.2503 8.08626 97.112 8.09766 96.9492 8.09766C96.7279 8.09766 96.5244 8.05371 96.3389 7.96582C96.1533 7.87793 96.0052 7.73145 95.8945 7.52637C95.7871 7.31803 95.7334 7.03809 95.7334 6.68652V1.43262ZM99.5859 0.5V8H98.6826V0.5H99.5859ZM99.3711 5.1582L98.9951 5.14355C98.9984 4.78223 99.0521 4.44857 99.1562 4.14258C99.2604 3.83333 99.4069 3.56478 99.5957 3.33691C99.7845 3.10905 100.009 2.93327 100.27 2.80957C100.533 2.68262 100.825 2.61914 101.144 2.61914C101.404 2.61914 101.638 2.65495 101.847 2.72656C102.055 2.79492 102.232 2.9056 102.379 3.05859C102.529 3.21159 102.643 3.41016 102.721 3.6543C102.799 3.89518 102.838 4.18978 102.838 4.53809V8H101.93V4.52832C101.93 4.25163 101.889 4.03027 101.808 3.86426C101.726 3.69499 101.607 3.57292 101.451 3.49805C101.295 3.41992 101.103 3.38086 100.875 3.38086C100.65 3.38086 100.445 3.42806 100.26 3.52246C100.077 3.61686 99.9196 3.74707 99.7861 3.91309C99.6559 4.0791 99.5534 4.26953 99.4785 4.48438C99.4069 4.69596 99.3711 4.92057 99.3711 5.1582ZM106.383 8.09766C106.015 8.09766 105.681 8.03581 105.382 7.91211C105.086 7.78516 104.83 7.60775 104.615 7.37988C104.404 7.15202 104.241 6.88184 104.127 6.56934C104.013 6.25684 103.956 5.91504 103.956 5.54395V5.33887C103.956 4.90918 104.02 4.52669 104.146 4.19141C104.273 3.85286 104.446 3.56641 104.664 3.33203C104.882 3.09766 105.13 2.92025 105.406 2.7998C105.683 2.67936 105.969 2.61914 106.266 2.61914C106.643 2.61914 106.969 2.68424 107.242 2.81445C107.519 2.94466 107.745 3.12695 107.921 3.36133C108.097 3.59245 108.227 3.86589 108.312 4.18164C108.396 4.49414 108.438 4.83594 108.438 5.20703V5.6123H104.493V4.875H107.535V4.80664C107.522 4.57227 107.473 4.3444 107.389 4.12305C107.307 3.90169 107.177 3.7194 106.998 3.57617C106.819 3.43294 106.575 3.36133 106.266 3.36133C106.061 3.36133 105.872 3.40527 105.699 3.49316C105.527 3.5778 105.379 3.70475 105.255 3.87402C105.131 4.04329 105.035 4.25 104.967 4.49414C104.898 4.73828 104.864 5.01986 104.864 5.33887V5.54395C104.864 5.7946 104.898 6.0306 104.967 6.25195C105.038 6.47005 105.141 6.66211 105.274 6.82812C105.411 6.99414 105.576 7.12435 105.768 7.21875C105.963 7.31315 106.184 7.36035 106.432 7.36035C106.751 7.36035 107.021 7.29525 107.242 7.16504C107.464 7.03483 107.657 6.86068 107.823 6.64258L108.37 7.07715C108.256 7.24967 108.111 7.41406 107.936 7.57031C107.76 7.72656 107.543 7.85352 107.286 7.95117C107.032 8.04883 106.731 8.09766 106.383 8.09766Z" fill="white"/>
<g clip-path="url(#clip0_705_58)">
<path d="M4.59852 5.30589C3.98023 4.9337 3.24335 4.90042 2.60069 5.21027L13.3759 16.0085L16.8991 12.4689L4.59852 5.30589ZM1.61068 6.20965C1.47474 6.49747 1.40161 6.81762 1.40161 7.14716V26.8995C1.40161 27.2305 1.47521 27.546 1.61255 27.8277L12.3836 17.0055L1.61068 6.20965ZM13.3774 18.0012L2.61948 28.8102C2.90495 28.9424 3.20871 29 3.51199 29C3.88653 29 4.26012 28.9105 4.59856 28.7071L16.9015 21.5332L13.3774 18.0012ZM21.5839 15.1971C21.5797 15.1943 21.575 15.1915 21.5708 15.1891L18.1554 13.2002L14.3693 17.0041L18.1578 20.8006C18.1578 20.8006 21.5797 18.8056 21.5839 18.8032C22.219 18.4174 22.5983 17.7434 22.5983 16.9999C22.5983 16.2565 22.219 15.5824 21.5839 15.1971Z" fill="white"/>
</g>
<defs>
<clipPath id="clip0_705_58">
<rect width="24" height="24" fill="white" transform="translate(0 5)"/>
</clipPath>
</defs>
</svg>
