<svg width="50" height="50" viewBox="0 0 50 50" fill="none" xmlns="http://www.w3.org/2000/svg">
<circle cx="25" cy="24.9998" r="25" fill="white"/>
<path fill-rule="evenodd" clip-rule="evenodd" d="M36.095 22.4548H25.5V26.8061H31.555C31.4297 27.4943 31.1661 28.15 30.7803 28.7336C30.3944 29.3171 29.8942 29.8163 29.31 30.2011V33.0248H32.945C35.0725 31.0661 36.3 28.1811 36.3 24.7561C36.3 23.9573 36.2288 23.1911 36.095 22.4548Z" fill="#4285F4"/>
<path fill-rule="evenodd" clip-rule="evenodd" d="M32.945 33.0247L29.31 30.201C28.3025 30.876 27.0138 31.276 25.5 31.276C22.57 31.276 20.09 29.296 19.205 26.6372H15.4463V29.5522C16.3826 31.4159 17.8187 32.9825 19.5941 34.0769C21.3696 35.1714 23.4144 35.7505 25.5 35.7497C28.5375 35.7497 31.0838 34.7422 32.945 33.0247Z" fill="#259344"/>
<path fill-rule="evenodd" clip-rule="evenodd" d="M18.8525 24.4998C18.8525 23.7585 18.98 23.0373 19.205 22.3623V19.4473H15.4463C14.6588 21.0151 14.2492 22.7453 14.25 24.4998C14.25 26.3148 14.685 28.0335 15.4463 29.5523L19.205 26.6373C18.9734 25.9483 18.8544 25.2266 18.8525 24.4998Z" fill="#FBBC05"/>
<path fill-rule="evenodd" clip-rule="evenodd" d="M29.8 19.406L33.0275 16.181C31.0788 14.3635 28.5325 13.2498 25.5 13.2498C23.4144 13.2489 21.3696 13.8281 19.5941 14.9225C17.8187 16.017 16.3826 17.5836 15.4463 19.4473L19.205 22.3623C20.09 19.7035 22.57 17.7248 25.5 17.7248C27.1513 17.7248 28.635 18.2923 29.8 19.406Z" fill="#EA4335"/>
</svg>
