<svg width="15" height="15" viewBox="0 0 15 15" fill="none" xmlns="http://www.w3.org/2000/svg">
<path fill-rule="evenodd" clip-rule="evenodd" d="M7.5 10.5C9.15685 10.5 10.5 9.15686 10.5 7.5C10.5 5.84315 9.15685 4.5 7.5 4.5C5.84315 4.5 4.5 5.84315 4.5 7.5C4.5 9.15686 5.84315 10.5 7.5 10.5ZM7.5 9.3C8.49412 9.3 9.3 8.49411 9.3 7.5C9.3 6.50589 8.49412 5.7 7.5 5.7C6.50588 5.7 5.7 6.50589 5.7 7.5C5.7 8.49411 6.50588 9.3 7.5 9.3Z" fill="white"/>
<path d="M10.8 5.1C11.1314 5.1 11.4 4.83137 11.4 4.5C11.4 4.16863 11.1314 3.9 10.8 3.9C10.4686 3.9 10.2 4.16863 10.2 4.5C10.2 4.83137 10.4686 5.1 10.8 5.1Z" fill="white"/>
<path fill-rule="evenodd" clip-rule="evenodd" d="M3.9 1.5C2.57452 1.5 1.5 2.57452 1.5 3.9V11.1C1.5 12.4255 2.57452 13.5 3.9 13.5H11.1C12.4255 13.5 13.5 12.4255 13.5 11.1V3.9C13.5 2.57452 12.4255 1.5 11.1 1.5H3.9ZM11.1 2.7H3.9C3.23725 2.7 2.7 3.23726 2.7 3.9V11.1C2.7 11.7627 3.23725 12.3 3.9 12.3H11.1C11.7628 12.3 12.3 11.7627 12.3 11.1V3.9C12.3 3.23726 11.7628 2.7 11.1 2.7Z" fill="white"/>
</svg>
