<svg width="15" height="15" viewBox="0 0 15 15" fill="none" xmlns="http://www.w3.org/2000/svg">
<path d="M12.2921 2.97977C11.1937 1.88142 9.41295 1.88142 8.3146 2.97977L7.05647 4.24709C6.81328 4.49205 6.81472 4.88778 7.05969 5.13097C7.30465 5.37416 7.70038 5.37271 7.94357 5.12775L9.19849 3.86365L9.19925 3.86289C9.8095 3.25346 10.7983 3.25371 11.4082 3.86365C12.0184 4.47385 12.0184 5.46317 11.4082 6.07336L8.68072 8.80084C8.07053 9.41103 7.08121 9.41103 6.47101 8.80084C6.22693 8.55676 5.83121 8.55676 5.58713 8.80084C5.34305 9.04491 5.34305 9.44064 5.58713 9.68472C6.68548 10.7831 8.46625 10.7831 9.5646 9.68472L12.2921 6.95724C13.3904 5.85889 13.3904 4.07812 12.2921 2.97977Z" fill="white"/>
<path d="M1.85281 13.4347C2.94924 14.5311 4.72571 14.5331 5.82452 13.4405L6.99347 12.3276C7.24347 12.0896 7.25319 11.694 7.01518 11.444C6.77717 11.194 6.38156 11.1842 6.13156 11.4223L4.95184 12.5454L4.94641 12.5508C4.33621 13.161 3.34689 13.161 2.7367 12.5508C2.1265 11.9406 2.1265 10.9513 2.7367 10.3411L5.46417 7.61365C6.07437 7.00345 7.06369 7.00345 7.67388 7.61365C7.91796 7.85772 8.31369 7.85772 8.55777 7.61365C8.80184 7.36957 8.80184 6.97384 8.55777 6.72976C7.45942 5.63141 5.67864 5.63141 4.58029 6.72976L1.85282 9.45724C0.754465 10.5556 0.754465 12.3364 1.85281 13.4347Z" fill="white"/>
</svg>
