<svg width="50" height="51" viewBox="0 0 50 51" fill="none" xmlns="http://www.w3.org/2000/svg">
<path d="M38.2812 7.7439C31.8195 7.7439 26.5625 13.0009 26.5625 19.4626C26.5625 22.5526 27.7547 25.4682 29.9193 27.6725C32.0792 29.8718 34.9642 31.1168 38.0433 31.1784L38.1327 31.1806C39.2122 31.2131 40.1079 30.3573 40.136 29.279C40.1642 28.2006 39.3127 27.3038 38.2344 27.2756L38.1263 27.2729C33.9039 27.1913 30.4688 23.6874 30.4688 19.4626C30.4688 15.1548 33.9734 11.6501 38.2812 11.6501C42.5891 11.6501 46.0938 15.1548 46.0938 19.4626C46.0938 24.8433 44.8141 29.8083 42.2899 34.22C40.4035 37.5173 38.4852 39.259 38.4493 39.2913C37.6448 40.0054 37.5692 41.2367 38.2815 42.044C38.6676 42.4814 39.206 42.7049 39.7469 42.7049C40.206 42.7048 40.667 42.5439 41.0383 42.2163C41.1327 42.1329 43.3768 40.1314 45.5857 36.3242C47.5996 32.8535 50 27.1107 50 19.4626C50 13.0008 44.743 7.7439 38.2812 7.7439Z" fill="url(#paint0_linear_1_1242)" fill-opacity="0.991703"/>
<path d="M11.7188 7.7439C5.25703 7.7439 0 13.0008 0 19.4626C0 22.5526 1.19219 25.4682 3.35684 27.6727C5.5167 29.872 8.40166 31.1169 11.4808 31.1786L11.5702 31.1808C12.6474 31.2133 13.5455 30.3575 13.5735 29.2792C13.6017 28.2008 12.7502 27.304 11.6719 27.2758L11.5638 27.2731C7.34141 27.1913 3.90625 23.6874 3.90625 19.4626C3.90625 15.1548 7.41094 11.6501 11.7188 11.6501C16.0266 11.6501 19.5312 15.1548 19.5312 19.4626C19.5312 24.8433 18.2516 29.8084 15.7274 34.2199C13.841 37.5172 11.9227 39.2589 11.8868 39.2912C11.0822 40.0054 11.0067 41.2366 11.719 42.0439C12.1051 42.4814 12.6435 42.7048 13.1844 42.7048C13.6435 42.7048 14.1045 42.5439 14.4759 42.2163C14.5702 42.1329 16.8144 40.1314 19.0233 36.3242C21.0371 32.8535 23.4375 27.1108 23.4375 19.4626C23.4375 13.0008 18.1805 7.7439 11.7188 7.7439Z" fill="url(#paint1_linear_1_1242)" fill-opacity="0.991703"/>
<defs>
<linearGradient id="paint0_linear_1_1242" x1="50" y1="25.2244" x2="26.5625" y2="25.2244" gradientUnits="userSpaceOnUse">
<stop stop-color="#FFA979"/>
<stop offset="1" stop-color="#FF6231"/>
</linearGradient>
<linearGradient id="paint1_linear_1_1242" x1="23.4375" y1="25.2244" x2="6.99582e-08" y2="25.2244" gradientUnits="userSpaceOnUse">
<stop stop-color="#FFA979"/>
<stop offset="1" stop-color="#FF6231"/>
</linearGradient>
</defs>
</svg>
