<svg width="15" height="15" viewBox="0 0 15 15" fill="none" xmlns="http://www.w3.org/2000/svg">
<path d="M13.5527 1.85743C13.4227 1.74723 13.2652 1.67433 13.097 1.64647C12.9289 1.61861 12.7563 1.63685 12.5976 1.69922L1.78124 5.94727C1.59152 6.01955 1.43082 6.15219 1.32389 6.32477C1.21695 6.49735 1.16971 6.70029 1.18944 6.90235C1.20704 7.10433 1.28964 7.29516 1.42487 7.44623C1.56009 7.5973 1.74064 7.70046 1.93944 7.74024L4.68749 8.28516V11.7188C4.68739 11.9045 4.74247 12.0861 4.84575 12.2405C4.94903 12.3949 5.09584 12.5151 5.26757 12.5859C5.38122 12.6317 5.50248 12.6555 5.62499 12.6563C5.74812 12.6567 5.8701 12.6326 5.98379 12.5853C6.09748 12.538 6.20059 12.4685 6.2871 12.3809L7.81053 10.8633L10.1133 12.8906C10.2833 13.0406 10.5018 13.1238 10.7285 13.125C10.8282 13.1271 10.9274 13.1112 11.0215 13.0781C11.1761 13.0292 11.3153 12.9408 11.4252 12.8216C11.5352 12.7024 11.6121 12.5565 11.6484 12.3984L13.8516 2.77735C13.8901 2.61133 13.8826 2.43796 13.8299 2.27588C13.7773 2.11379 13.6814 1.96912 13.5527 1.85743ZM5.04491 7.4004L2.12694 6.82032L10.3066 3.60352L5.04491 7.4004ZM5.62499 11.7188V8.94141L7.10155 10.2422L5.62499 11.7188ZM10.7344 12.1875L5.90624 7.93946L12.8613 2.91797L10.7344 12.1875Z" fill="white"/>
</svg>
