<svg width="15" height="15" viewBox="0 0 15 15" fill="none" xmlns="http://www.w3.org/2000/svg">
<path d="M4.9492 13.125C10.1381 13.125 12.9759 8.79713 12.9759 5.04469C12.9759 4.92151 12.9736 4.79889 12.9675 4.67682C13.5186 4.27689 13.9974 3.77625 14.375 3.20644C13.8695 3.43313 13.3257 3.58499 12.7551 3.65362C13.3373 3.30206 13.7844 2.74632 13.9957 2.08257C13.4502 2.40826 12.8469 2.6445 12.204 2.77275C11.6891 2.21982 10.9567 1.875 10.1448 1.875C8.58716 1.875 7.32372 3.14682 7.32372 4.71507C7.32372 4.93726 7.34819 5.1544 7.39657 5.36196C5.05207 5.24327 2.97283 4.11319 1.58148 2.39476C1.33958 2.81494 1.2 3.30208 1.2 3.8224C1.2 4.8079 1.6977 5.67752 2.45566 6.18658C1.99243 6.17196 1.55756 6.04426 1.17775 5.83107C1.1772 5.84345 1.17719 5.8547 1.17719 5.86764C1.17719 7.24295 2.14925 8.39156 3.43994 8.65144C3.20305 8.71669 2.95391 8.75158 2.69644 8.75158C2.5146 8.75158 2.33833 8.73358 2.16594 8.70039C2.52573 9.82877 3.56673 10.65 4.80126 10.6731C3.83588 11.4347 2.61971 11.8886 1.29787 11.8886C1.06987 11.8886 0.84577 11.8757 0.625 11.8492C1.87343 12.6547 3.35598 13.125 4.9492 13.125" fill="white"/>
</svg>
