<svg width="21" height="20" viewBox="0 0 21 20" fill="none" xmlns="http://www.w3.org/2000/svg">
<path d="M14.9205 6.82693C15.2256 7.13211 15.2256 7.6268 14.9205 7.93182L9.67938 13.1731C9.37421 13.4781 8.87967 13.4781 8.57449 13.1731L6.07953 10.6779C5.77435 10.3729 5.77435 9.87823 6.07953 9.57321C6.38455 9.26804 6.87924 9.26804 7.18427 9.57321L9.12686 11.5158L13.8156 6.82693C14.1208 6.52191 14.6154 6.52191 14.9205 6.82693ZM20.5 10C20.5 15.5275 16.0267 20 10.5 20C4.9725 20 0.5 15.5267 0.5 10C0.5 4.4725 4.97327 0 10.5 0C16.0275 0 20.5 4.47327 20.5 10ZM18.9375 10C18.9375 5.33615 15.1632 1.5625 10.5 1.5625C5.83615 1.5625 2.0625 5.33676 2.0625 10C2.0625 14.6638 5.83676 18.4375 10.5 18.4375C15.1638 18.4375 18.9375 14.6632 18.9375 10Z" fill="#FF6231"/>
</svg>
