<svg width="265" height="265" viewBox="0 0 265 265" fill="none" xmlns="http://www.w3.org/2000/svg">
<g clip-path="url(#clip0_2865_56)">
<rect width="265" height="265" fill="white"/>
<g clip-path="url(#clip1_2865_56)">
<path d="M133.5 3C98.6283 3 94.2433 3.16063 80.5419 3.771C66.8406 4.4135 57.5083 6.56587 49.3325 9.74625C40.7566 12.9719 32.9888 18.0317 26.5719 24.5719C20.0357 30.9921 14.9765 38.759 11.7462 47.3325C8.56587 55.4923 6.39744 64.8406 5.771 78.4937C5.16063 92.2272 5 96.5962 5 131.516C5 166.404 5.16063 170.773 5.771 184.474C6.4135 198.159 8.56587 207.492 11.7462 215.667C15.0391 224.116 19.4241 231.28 26.5719 238.428C33.7037 245.576 40.8676 249.977 49.3164 253.254C57.5083 256.434 66.8246 258.603 80.5098 259.229C94.2272 259.839 98.5962 260 133.5 260C168.404 260 172.757 259.839 186.474 259.229C200.143 258.586 209.508 256.434 217.684 253.254C226.254 250.026 234.016 244.967 240.428 238.428C247.576 231.28 251.961 224.116 255.254 215.667C258.418 207.492 260.586 198.159 261.229 184.474C261.839 170.773 262 166.404 262 131.5C262 96.5962 261.839 92.2272 261.229 78.5098C260.586 64.8406 258.418 55.4923 255.254 47.3325C252.024 38.7587 246.965 30.9917 240.428 24.5719C234.013 18.0293 226.245 12.9691 217.667 9.74625C209.476 6.56587 200.127 4.39744 186.458 3.771C172.741 3.16063 168.388 3 133.468 3H133.516H133.5ZM121.983 26.1621H133.516C167.826 26.1621 171.889 26.2746 185.43 26.901C197.959 27.4632 204.769 29.5674 209.299 31.3182C215.29 33.6473 219.579 36.4421 224.076 40.9396C228.574 45.4371 231.353 49.7098 233.682 55.7171C235.449 60.2307 237.537 67.0412 238.099 79.5699C238.725 93.1106 238.854 97.1744 238.854 131.468C238.854 165.761 238.725 169.841 238.099 183.382C237.537 195.911 235.433 202.705 233.682 207.235C231.622 212.814 228.333 217.859 224.06 221.996C219.563 226.494 215.29 229.272 209.283 231.602C204.785 233.368 197.975 235.457 185.43 236.035C171.889 236.645 167.826 236.79 133.516 236.79C99.2066 236.79 95.1267 236.645 81.586 236.035C69.0573 235.457 62.2628 233.368 57.7332 231.602C52.1515 229.544 47.1018 226.262 42.9557 221.996C38.6791 217.853 35.3858 212.803 33.3182 207.219C31.5674 202.705 29.4632 195.895 28.901 183.366C28.2906 169.825 28.1621 165.761 28.1621 131.436C28.1621 97.1262 28.2906 93.0785 28.901 79.5378C29.4793 67.0091 31.5674 60.1986 33.3343 55.6689C35.6633 49.6776 38.4582 45.3889 42.9557 40.8914C47.4532 36.3939 51.7258 33.6151 57.7332 31.2861C62.2628 29.5192 69.0573 27.4311 81.586 26.8528C93.4401 26.3067 98.034 26.1461 121.983 26.13V26.1621ZM202.103 47.4931C200.078 47.4931 198.073 47.892 196.202 48.6669C194.331 49.4418 192.631 50.5777 191.199 52.0095C189.767 53.4414 188.632 55.1413 187.857 57.0121C187.082 58.883 186.683 60.8881 186.683 62.9131C186.683 64.9381 187.082 66.9433 187.857 68.8141C188.632 70.6849 189.767 72.3848 191.199 73.8167C192.631 75.2486 194.331 76.3844 196.202 77.1593C198.073 77.9343 200.078 78.3331 202.103 78.3331C206.193 78.3331 210.115 76.7085 213.007 73.8167C215.898 70.9249 217.523 67.0028 217.523 62.9131C217.523 58.8235 215.898 54.9013 213.007 52.0095C210.115 49.1177 206.193 47.4931 202.103 47.4931ZM133.516 65.5152C124.763 65.3787 116.07 66.9847 107.944 70.2399C99.8179 73.495 92.4204 78.3343 86.1823 84.4758C79.9442 90.6173 74.9902 97.9385 71.6086 106.013C68.2271 114.087 66.4857 122.754 66.4857 131.508C66.4857 140.262 68.2271 148.929 71.6086 157.003C74.9902 165.078 79.9442 172.399 86.1823 178.54C92.4204 184.682 99.8179 189.521 107.944 192.776C116.07 196.031 124.763 197.637 133.516 197.501C150.84 197.231 167.363 190.159 179.519 177.812C191.674 165.466 198.487 148.834 198.487 131.508C198.487 114.182 191.674 97.5505 179.519 85.2039C167.363 72.8572 150.84 65.7855 133.516 65.5152ZM133.516 88.6613C144.878 88.6613 155.774 93.1747 163.808 101.208C171.841 109.242 176.355 120.138 176.355 131.5C176.355 142.862 171.841 153.758 163.808 161.792C155.774 169.825 144.878 174.339 133.516 174.339C122.155 174.339 111.258 169.825 103.225 161.792C95.1907 153.758 90.6774 142.862 90.6774 131.5C90.6774 120.138 95.1907 109.242 103.225 101.208C111.258 93.1747 122.155 88.6613 133.516 88.6613Z" fill="#4A4A4A"/>
</g>
</g>
<defs>
<clipPath id="clip0_2865_56">
<rect width="265" height="265" fill="white"/>
</clipPath>
<clipPath id="clip1_2865_56">
<rect width="257" height="257" fill="white" transform="translate(5)"/>
</clipPath>
</defs>
</svg>
