<svg width="265" height="265" viewBox="0 0 265 265" fill="none" xmlns="http://www.w3.org/2000/svg">
<g clip-path="url(#clip0_2865_56)">
<rect width="265" height="265" fill="white"/>
<g clip-path="url(#clip1_2865_56)">
<path d="M132.5 2.66691e-05C101.606 -0.0195661 71.6759 10.757 47.8854 30.4663C24.095 50.1756 7.93948 77.5787 2.21237 107.937C-3.51474 138.296 1.54657 169.701 16.5212 196.724C31.4958 223.746 55.4423 244.686 84.2201 255.924C83.0607 245.44 82.0007 229.324 84.6673 217.88C87.0854 207.528 100.203 152.011 100.203 152.011C100.203 152.011 96.2445 144.077 96.2445 132.351C96.2445 113.917 106.927 100.17 120.227 100.17C131.523 100.17 136.988 108.65 136.988 118.836C136.988 130.198 129.75 147.191 126.007 162.942C122.894 176.126 132.632 186.891 145.634 186.891C169.186 186.891 187.289 162.048 187.289 126.206C187.289 94.4891 164.482 72.3119 131.937 72.3119C94.2404 72.3119 72.1129 100.584 72.1129 129.8C72.1129 141.195 76.502 153.402 81.9676 160.043C82.4383 160.544 82.7711 161.158 82.9337 161.826C83.0962 162.493 83.083 163.192 82.8951 163.853C81.8848 168.027 79.6489 177.037 79.2182 178.875C78.6385 181.293 77.297 181.807 74.7795 180.647C58.217 172.946 47.882 148.748 47.882 129.303C47.882 87.5163 78.2576 49.141 135.431 49.141C181.392 49.141 217.118 81.885 217.118 125.66C217.118 171.323 188.315 208.075 148.367 208.075C134.934 208.075 122.314 201.102 117.991 192.854L109.743 224.356C106.745 235.867 98.6626 250.293 93.2632 259.087C111.482 264.72 130.701 266.354 149.609 263.878C168.517 261.402 186.667 254.874 202.82 244.739C218.974 234.605 232.749 221.103 243.206 205.156C253.663 189.21 260.554 171.194 263.409 152.34C266.265 133.486 265.017 114.237 259.751 95.9094C254.484 77.5817 245.324 60.6066 232.896 46.1437C220.468 31.6809 205.064 20.0711 187.737 12.1075C170.411 4.1438 151.569 0.0139506 132.5 2.66691e-05Z" fill="#4A4A4A"/>
</g>
</g>
<defs>
<clipPath id="clip0_2865_56">
<rect width="265" height="265" fill="white"/>
</clipPath>
<clipPath id="clip1_2865_56">
<rect width="265" height="265" fill="white"/>
</clipPath>
</defs>
</svg>
